<?xml version="1.0" standalone="no"?>
<!DOCTYPE svg PUBLIC "-//W3C//DTD SVG 1.1//EN" "http://www.w3.org/Graphics/SVG/1.1/DTD/svg11.dtd" >
<svg xmlns="http://www.w3.org/2000/svg">
<metadata>
FS Thrive Elliot is a licensed version of FS Elliot Copyright (c) 2015 by Fontsmith Ltd for Alight. All rights reserved. This font may not be altered in any way without prior permission of Fontsmith Ltd.
</metadata>
<defs>
<font id="FSThriveElliotWeb-LightItalic" horiz-adv-x="556" >
  <font-face 
    font-family="FS Thrive Elliot Web Light It"
    font-weight="300"
    font-style="italic"
    font-stretch="normal"
    units-per-em="1000"
    panose-1="2 6 4 3 3 2 2 9 2 4"
    ascent="800"
    descent="-200"
    x-height="483"
    cap-height="672"
    bbox="-298 -282 1182 921"
    underline-thickness="40"
    underline-position="-60"
    slope="-10"
    unicode-range="U+000D-FB04"
  />
<missing-glyph horiz-adv-x="500" 
d="M28 672h476v-672h-476v672zM428 624h-324l162 -244zM238 336l-162 244v-488zM456 580l-162 -244l162 -244v488zM428 48l-162 244l-162 -244h324z" />
    <glyph glyph-name="fi" unicode="fi" horiz-adv-x="554" 
d="M171 444h-107l7 39h107l17 97q12 63 57.5 99.5t112.5 36.5t151 -38l-18 -37q-77 35 -130 35q-49 0 -83.5 -26.5t-42.5 -71.5l-16 -95h283l-85 -483h-47l77 444h-235l-78 -444h-48z" />
    <glyph glyph-name="fl" unicode="fl" horiz-adv-x="602" 
d="M416.5 11q-25.5 23 -25.5 61q0 16 3 32l98 548q-74 24 -125 24q-49 0 -83 -26.5t-42 -71.5l-16 -95h148l-7 -39h-149l-77 -444h-48l78 444h-107l7 39h107l17 97q12 64 57 100t114 36q39 0 82 -9t97 -26l-103 -575q-3 -15 -3 -27q0 -24 15.5 -37t40.5 -13q12 0 42 5l4 -39
q-33 -7 -58 -7q-41 0 -66.5 23z" />
    <glyph glyph-name="f_b.liga" unicode="fb" horiz-adv-x="888" 
d="M495.5 18q-41.5 30 -54.5 81l-24 -99h-40l115 652q-74 24 -125 24q-49 0 -83 -26.5t-42 -71.5l-16 -95h148l-7 -39h-149l-77 -444h-48l78 444h-107l7 39h107l17 97q12 64 57 100t114 36q39 0 82 -9t97 -26l-50 -278q31 44 75 68t95 24q79 0 127.5 -52.5t48.5 -138.5
q0 -88 -32 -160.5t-89 -114t-127 -41.5q-56 0 -97.5 30zM692.5 64.5q46.5 35.5 73 97.5t26.5 138q0 69 -38.5 111.5t-101.5 42.5q-65 0 -115 -44t-61 -112l-16 -92q-5 -23 -5 -41q0 -60 37.5 -98t95.5 -38t104.5 35.5z" />
    <glyph glyph-name="f_f.liga" unicode="ff" horiz-adv-x="660" 
d="M171 444h-107l7 39h107l20 115q10 53 47.5 85.5t91.5 32.5q42 0 100 -22l-15 -38q-48 19 -81 19q-37 0 -63 -22t-33 -60l-19 -110h251l21 115q9 53 46.5 85.5t92.5 32.5q42 0 100 -22l-15 -38q-48 19 -81 19q-37 0 -63 -22t-33 -60l-20 -110h149l-8 -39h-148l-78 -444
h-47l77 444h-252l-77 -444h-48z" />
    <glyph glyph-name="f_f_b.liga" unicode="ffb" horiz-adv-x="1188" 
d="M795.5 18q-41.5 30 -55.5 81l-23 -99h-41l115 652q-74 24 -124 24q-49 0 -83 -26.5t-42 -71.5l-17 -95h149l-8 -39h-148l-78 -444h-47l77 444h-252l-77 -444h-48l78 444h-107l7 39h107l20 115q10 53 47.5 85.5t91.5 32.5q42 0 100 -22l-15 -38q-48 19 -81 19
q-37 0 -63 -22t-33 -60l-19 -110h251l18 97q11 64 56 100t115 36q68 0 178 -35l-49 -278q31 44 74.5 68t95.5 24q79 0 127.5 -52.5t48.5 -138.5q0 -88 -32.5 -160.5t-89 -114t-126.5 -41.5q-56 0 -97.5 30zM992 64.5q47 35.5 73.5 97.5t26.5 138q0 69 -39 111.5t-101 42.5
q-65 0 -115 -44t-62 -112l-16 -92q-4 -28 -4 -41q0 -60 37 -98t95 -38t105 35.5z" />
    <glyph glyph-name="f_f_h.liga" unicode="ffh" horiz-adv-x="1187" 
d="M171 444h-107l7 39h107l20 115q10 53 47.5 85.5t91.5 32.5q42 0 100 -22l-15 -38q-48 19 -81 19q-37 0 -63 -22t-33 -60l-19 -110h251l18 97q11 64 56 100t115 36q68 0 178 -35l-51 -288q29 47 76.5 74.5t100.5 27.5q68 0 110.5 -40t42.5 -104q0 -23 -5 -53l-53 -298h-48
l52 296q5 25 5 46q0 51 -32.5 81.5t-85.5 30.5q-67 0 -118 -47.5t-64 -121.5l-50 -285h-48l115 652q-74 24 -124 24q-49 0 -83 -26.5t-42 -71.5l-17 -95h149l-8 -39h-148l-78 -444h-47l77 444h-252l-77 -444h-48z" />
    <glyph glyph-name="f_f_i.liga" unicode="ffi" horiz-adv-x="854" 
d="M171 444h-107l7 39h107l20 115q10 53 47.5 85.5t91.5 32.5q42 0 100 -22l-15 -38q-48 19 -81 19q-37 0 -63 -22t-33 -60l-19 -110h251l18 97q11 63 56.5 99.5t112.5 36.5q68 0 151 -38l-17 -37q-77 35 -131 35q-48 0 -82.5 -26.5t-42.5 -71.5l-17 -95h284l-85 -483h-48
l78 444h-236l-78 -444h-47l77 444h-252l-77 -444h-48z" />
    <glyph glyph-name="f_f_j.liga" unicode="ffj" horiz-adv-x="854" 
d="M467 -199l15 37q51 -17 81 -17q37 0 63 22t33 60l95 541h-236l-78 -444h-47l77 444h-252l-77 -444h-48l78 444h-107l7 39h107l20 115q10 53 47.5 85.5t91.5 32.5q42 0 100 -22l-15 -38q-48 19 -81 19q-37 0 -63 -22t-33 -60l-19 -110h251l18 97q11 63 56.5 99.5
t112.5 36.5q68 0 151 -38l-17 -37q-77 35 -131 35q-48 0 -82.5 -26.5t-42.5 -71.5l-17 -95h284l-103 -585q-9 -53 -46.5 -85.5t-92.5 -32.5q-40 0 -100 21z" />
    <glyph glyph-name="f_f_k.liga" unicode="ffk" horiz-adv-x="1117" 
d="M171 444h-107l7 39h107l20 115q10 53 47.5 85.5t91.5 32.5q42 0 100 -22l-15 -38q-48 19 -81 19q-37 0 -63 -22t-33 -60l-19 -110h251l18 97q11 64 56 100t115 36q67 0 177 -35l-80 -453l295 255h60l-262 -226l184 -257h-54l-164 230l-69 -60l-30 -170h-47l115 652
q-74 24 -124 24q-49 0 -83 -26.5t-42 -71.5l-17 -95h149l-8 -39h-148l-78 -444h-47l77 444h-252l-77 -444h-48z" />
    <glyph glyph-name="f_f_l.liga" unicode="ffl" horiz-adv-x="902" 
d="M716.5 11q-25.5 23 -25.5 61q0 16 3 32l97 548q-74 24 -124 24q-49 0 -83 -26.5t-42 -71.5l-17 -95h149l-8 -39h-148l-78 -444h-47l77 444h-252l-77 -444h-48l78 444h-107l7 39h107l20 115q10 53 47.5 85.5t91.5 32.5q42 0 100 -22l-15 -38q-48 19 -81 19q-37 0 -63 -22
t-33 -60l-19 -110h251l18 97q11 64 56 100t115 36q68 0 178 -35l-102 -575q-3 -15 -3 -27q0 -24 15.5 -37t40.5 -13q11 0 41 5l4 -39q-33 -7 -57 -7q-41 0 -66.5 23z" />
    <glyph glyph-name="f_h.liga" unicode="fh" horiz-adv-x="887" 
d="M171 444h-107l7 39h107l17 97q12 64 57 100t114 36q39 0 82 -9t97 -26l-52 -288q29 47 77 74.5t101 27.5q68 0 110 -40t42 -104q0 -23 -5 -53l-53 -298h-47l52 296q4 20 4 46q0 51 -32.5 81.5t-85.5 30.5q-67 0 -117.5 -47.5t-63.5 -121.5l-51 -285h-47l115 652
q-74 24 -125 24q-49 0 -83 -26.5t-42 -71.5l-16 -95h148l-7 -39h-149l-77 -444h-48z" />
    <glyph glyph-name="f_j.liga" unicode="fj" horiz-adv-x="554" 
d="M167 -199l16 37q49 -17 80 -17q37 0 63 22t33 60l95 541h-235l-78 -444h-48l78 444h-107l7 39h107l17 97q12 63 57.5 99.5t112.5 36.5t151 -38l-18 -37q-77 35 -130 35q-49 0 -83.5 -26.5t-42.5 -71.5l-16 -95h283l-103 -585q-9 -53 -46.5 -85.5t-92.5 -32.5
q-40 0 -100 21z" />
    <glyph glyph-name="f_k.liga" unicode="fk" horiz-adv-x="818" 
d="M171 444h-107l7 39h107l17 97q12 64 57 100t114 36q39 0 81 -9t96 -26l-80 -453l296 255h60l-262 -226l184 -257h-54l-165 230l-69 -60l-30 -170h-46l115 652q-74 24 -125 24q-49 0 -83 -26.5t-42 -71.5l-16 -95h148l-7 -39h-149l-77 -444h-48z" />
    <glyph glyph-name=".notdef" horiz-adv-x="500" 
d="M28 672h476v-672h-476v672zM428 624h-324l162 -244zM238 336l-162 244v-488zM456 580l-162 -244l162 -244v488zM428 48l-162 244l-162 -244h324z" />
    <glyph glyph-name=".null" horiz-adv-x="0" 
 />
    <glyph glyph-name="nonmarkingreturn" unicode="&#xd;" horiz-adv-x="240" 
 />
    <glyph glyph-name="space" unicode=" " horiz-adv-x="240" 
 />
    <glyph glyph-name="A" unicode="A" horiz-adv-x="655" 
d="M380 672h47l155 -672h-48l-45 200h-333l-117 -200h-52zM481 239l-85 376l-219 -376h304z" />
    <glyph glyph-name="Aacute" unicode="&#xc1;" horiz-adv-x="655" 
d="M380 672h47l155 -672h-48l-45 200h-333l-117 -200h-52zM481 239l-85 376l-219 -376h304zM368 780l171 109l20 -35l-174 -102z" />
    <glyph glyph-name="Abreve" unicode="&#x102;" horiz-adv-x="655" 
d="M380 672h47l155 -672h-48l-45 200h-333l-117 -200h-52zM481 239l-85 376l-219 -376h304zM330.5 777.5q-33.5 29.5 -33.5 77.5q0 11 2 25h34q-1 -6 -1 -17q0 -36 23.5 -57t63.5 -21q44 0 77 26t42 69h35q-10 -60 -53 -96t-103 -36q-53 0 -86.5 29.5z" />
    <glyph glyph-name="uni01CD" unicode="&#x1cd;" horiz-adv-x="655" 
d="M380 672h47l155 -672h-48l-45 200h-333l-117 -200h-52zM481 239l-85 376l-219 -376h304zM298 876l25 22l94 -105l137 106l19 -27l-142 -116h-33z" />
    <glyph glyph-name="Acircumflex" unicode="&#xc2;" horiz-adv-x="655" 
d="M380 672h47l155 -672h-48l-45 200h-333l-117 -200h-52zM481 239l-85 376l-219 -376h304zM274 780l143 116h33l100 -120l-25 -22l-95 105l-136 -106z" />
    <glyph glyph-name="Adieresis" unicode="&#xc4;" horiz-adv-x="655" 
d="M380 672h47l155 -672h-48l-45 200h-333l-117 -200h-52zM481 239l-85 376l-219 -376h304zM297 799.5q-8 8.5 -8 21.5q0 17 11.5 28.5t28.5 11.5q13 0 21.5 -8t8.5 -22q0 -17 -11.5 -28.5t-28.5 -11.5q-14 0 -22 8.5zM497.5 799.5q-8.5 8.5 -8.5 21.5q0 17 12 28.5t29 11.5
q13 0 21.5 -8.5t8.5 -21.5q0 -17 -11.5 -28.5t-28.5 -11.5q-14 0 -22.5 8.5z" />
    <glyph glyph-name="Agrave" unicode="&#xc0;" horiz-adv-x="655" 
d="M380 672h47l155 -672h-48l-45 200h-333l-117 -200h-52zM481 239l-85 376l-219 -376h304zM297 857l24 32l151 -109l-20 -28z" />
    <glyph glyph-name="Amacron" unicode="&#x100;" horiz-adv-x="655" 
d="M380 672h47l155 -672h-48l-45 200h-333l-117 -200h-52zM481 239l-85 376l-219 -376h304zM286 844h284l-7 -36h-283z" />
    <glyph glyph-name="Aogonek" unicode="&#x104;" horiz-adv-x="655" 
d="M442.5 -201q-20.5 19 -20.5 51q0 36 29 75t83 75l-45 200h-333l-117 -200h-52l393 672h47l155 -672q-58 -38 -89.5 -75t-31.5 -68q0 -20 13 -32t34 -12q22 0 43 8l8 -31q-32 -10 -62 -10q-34 0 -54.5 19zM481 239l-85 376l-219 -376h304z" />
    <glyph glyph-name="Aring" unicode="&#xc5;" horiz-adv-x="655" 
d="M380 672h47l155 -672h-48l-45 200h-333l-117 -200h-52zM481 239l-85 376l-219 -376h304zM352.5 756q-22.5 22 -22.5 57q0 44 31 74.5t77 30.5q35 0 57.5 -22t22.5 -56q0 -45 -31 -75.5t-76 -30.5q-36 0 -58.5 22zM467.5 782.5q21.5 21.5 21.5 53.5q0 25 -15 40t-40 15
q-31 0 -52.5 -21.5t-21.5 -53.5q0 -25 14.5 -40t39.5 -15q32 0 53.5 21.5z" />
    <glyph glyph-name="Atilde" unicode="&#xc3;" horiz-adv-x="655" 
d="M380 672h47l155 -672h-48l-45 200h-333l-117 -200h-52zM481 239l-85 376l-219 -376h304zM281 800q11 29 33 46.5t49 17.5q17 0 31 -5t37 -16q18 -9 30.5 -13.5t25.5 -4.5q16 0 29.5 10.5t20.5 28.5l32 -12q-12 -28 -34 -45.5t-49 -17.5q-17 0 -32.5 5t-34.5 15
q-21 10 -32 14t-24 4q-17 0 -30.5 -10t-20.5 -28z" />
    <glyph glyph-name="AE" unicode="&#xc6;" horiz-adv-x="950" 
d="M523 672h428l-7 -40h-353l-47 -268h321l-7 -40h-321l-50 -284h369l-7 -40h-417l34 200h-277l-168 -200h-60zM473 239l69 388l-324 -388h255z" />
    <glyph glyph-name="AEacute" unicode="&#x1fc;" horiz-adv-x="950" 
d="M523 672h428l-7 -40h-353l-47 -268h321l-7 -40h-321l-50 -284h369l-7 -40h-417l34 200h-277l-168 -200h-60zM473 239l69 388l-324 -388h255zM607 780l171 109l20 -35l-174 -102z" />
    <glyph glyph-name="B" unicode="B" horiz-adv-x="638" 
d="M186 672h240q79 0 123.5 -41t44.5 -111q0 -64 -34 -111.5t-94 -63.5q44 -14 70 -53t26 -94q0 -57 -28 -102t-77 -70.5t-111 -25.5h-278zM385 362q71 0 116 42.5t45 110.5q0 54 -34 86t-94 32h-192l-47 -271h206zM342 39q49 0 88.5 20.5t61.5 57.5t22 84q0 57 -34.5 91
t-98.5 34h-208l-50 -287h219z" />
    <glyph glyph-name="C" unicode="C" horiz-adv-x="635" 
d="M200 22q-62 34 -97 95t-35 140q0 122 46 219t129.5 152.5t191.5 55.5q55 0 110 -17.5t103 -51.5l-25 -36q-88 63 -187 63q-95 0 -167 -49t-111.5 -135.5t-39.5 -195.5q0 -68 29.5 -121t81.5 -82t119 -29q102 0 191 55l18 -35q-100 -62 -217 -62q-78 0 -140 34z" />
    <glyph glyph-name="Cacute" unicode="&#x106;" horiz-adv-x="635" 
d="M200 22q-62 34 -97 95t-35 140q0 122 46 219t129.5 152.5t191.5 55.5q55 0 110 -17.5t103 -51.5l-25 -36q-88 63 -187 63q-95 0 -167 -49t-111.5 -135.5t-39.5 -195.5q0 -68 29.5 -121t81.5 -82t119 -29q102 0 191 55l18 -35q-100 -62 -217 -62q-78 0 -140 34zM410 780
l171 109l20 -35l-174 -102z" />
    <glyph glyph-name="Ccaron" unicode="&#x10c;" horiz-adv-x="635" 
d="M200 22q-62 34 -97 95t-35 140q0 122 46 219t129.5 152.5t191.5 55.5q55 0 110 -17.5t103 -51.5l-25 -36q-88 63 -187 63q-95 0 -167 -49t-111.5 -135.5t-39.5 -195.5q0 -68 29.5 -121t81.5 -82t119 -29q102 0 191 55l18 -35q-100 -62 -217 -62q-78 0 -140 34zM340 876
l25 22l94 -105l137 106l19 -27l-142 -116h-33z" />
    <glyph glyph-name="Ccedilla" unicode="&#xc7;" horiz-adv-x="635" 
d="M269 593q-72 -49 -111.5 -135.5t-39.5 -195.5q0 -68 29.5 -121t81.5 -82t119 -29q102 0 191 55l18 -35q-98 -60 -212 -62l-18 -53q29 -5 45.5 -23.5t16.5 -46.5q0 -37 -29.5 -61t-75.5 -24q-41 0 -90 22l14 30q40 -19 74 -19q29 0 48 15t19 38q0 20 -17 33t-42 13h-7
l26 77q-71 7 -125.5 42.5t-85 94t-30.5 131.5q0 122 46 219t129.5 152.5t191.5 55.5q55 0 110 -17.5t103 -51.5l-25 -36q-88 63 -187 63q-95 0 -167 -49z" />
    <glyph glyph-name="Ccircumflex" unicode="&#x108;" horiz-adv-x="635" 
d="M200 22q-62 34 -97 95t-35 140q0 122 46 219t129.5 152.5t191.5 55.5q55 0 110 -17.5t103 -51.5l-25 -36q-88 63 -187 63q-95 0 -167 -49t-111.5 -135.5t-39.5 -195.5q0 -68 29.5 -121t81.5 -82t119 -29q102 0 191 55l18 -35q-100 -62 -217 -62q-78 0 -140 34zM316 780
l143 116h33l100 -120l-25 -22l-95 105l-136 -106z" />
    <glyph glyph-name="Cdotaccent" unicode="&#x10a;" horiz-adv-x="635" 
d="M200 22q-62 34 -97 95t-35 140q0 122 46 219t129.5 152.5t191.5 55.5q55 0 110 -17.5t103 -51.5l-25 -36q-88 63 -187 63q-95 0 -167 -49t-111.5 -135.5t-39.5 -195.5q0 -68 29.5 -121t81.5 -82t119 -29q102 0 191 55l18 -35q-100 -62 -217 -62q-78 0 -140 34zM438 798
q-9 9 -9 23q0 18 12.5 30t29.5 12q14 0 23 -9t9 -23q0 -17 -12 -29.5t-30 -12.5q-14 0 -23 9z" />
    <glyph glyph-name="D" unicode="D" horiz-adv-x="695" 
d="M186 672h182q138 0 215 -71t77 -199q0 -118 -48 -209.5t-134.5 -142t-197.5 -50.5h-212zM279 41q97 0 172 45t117 126.5t42 186.5q0 111 -65 171.5t-185 60.5h-133l-103 -590h155z" />
    <glyph glyph-name="Eth" unicode="&#xd0;" horiz-adv-x="711" 
d="M140 324h-96l7 40h96l55 308h174q142 0 221 -71t79 -198q0 -118 -49.5 -209.5t-137.5 -142.5t-200 -51h-205zM288 41q99 0 175.5 45t119.5 126.5t43 186.5q0 111 -66.5 171.5t-190.5 60.5h-126l-46 -267h177l-7 -40h-177l-51 -283h149z" />
    <glyph glyph-name="Dcaron" unicode="&#x10e;" horiz-adv-x="695" 
d="M186 672h182q138 0 215 -71t77 -199q0 -118 -48 -209.5t-134.5 -142t-197.5 -50.5h-212zM279 41q97 0 172 45t117 126.5t42 186.5q0 111 -65 171.5t-185 60.5h-133l-103 -590h155zM273 876l25 22l94 -105l137 106l19 -27l-142 -116h-33z" />
    <glyph glyph-name="Dcroat" unicode="&#x110;" horiz-adv-x="711" 
d="M140 324h-96l7 40h96l55 308h174q142 0 221 -71t79 -198q0 -118 -49.5 -209.5t-137.5 -142.5t-200 -51h-205zM288 41q99 0 175.5 45t119.5 126.5t43 186.5q0 111 -66.5 171.5t-190.5 60.5h-126l-46 -267h177l-7 -40h-177l-51 -283h149z" />
    <glyph glyph-name="E" unicode="E" horiz-adv-x="587" 
d="M186 672h402l-7 -40h-353l-47 -268h321l-7 -40h-321l-50 -284h369l-7 -40h-418z" />
    <glyph glyph-name="Eacute" unicode="&#xc9;" horiz-adv-x="587" 
d="M186 672h402l-7 -40h-353l-47 -268h321l-7 -40h-321l-50 -284h369l-7 -40h-418zM347 780l171 109l20 -35l-174 -102z" />
    <glyph glyph-name="Ebreve" unicode="&#x114;" horiz-adv-x="587" 
d="M186 672h402l-7 -40h-353l-47 -268h321l-7 -40h-321l-50 -284h369l-7 -40h-418zM309.5 777.5q-33.5 29.5 -33.5 77.5q0 11 2 25h34q-1 -6 -1 -17q0 -36 23.5 -57t63.5 -21q44 0 77 26t42 69h35q-10 -60 -53 -96t-103 -36q-53 0 -86.5 29.5z" />
    <glyph glyph-name="Ecaron" unicode="&#x11a;" horiz-adv-x="587" 
d="M186 672h402l-7 -40h-353l-47 -268h321l-7 -40h-321l-50 -284h369l-7 -40h-418zM277 876l25 22l94 -105l137 106l19 -27l-142 -116h-33z" />
    <glyph glyph-name="Ecircumflex" unicode="&#xca;" horiz-adv-x="587" 
d="M186 672h402l-7 -40h-353l-47 -268h321l-7 -40h-321l-50 -284h369l-7 -40h-418zM253 780l143 116h33l100 -120l-25 -22l-95 105l-136 -106z" />
    <glyph glyph-name="Edieresis" unicode="&#xcb;" horiz-adv-x="587" 
d="M186 672h402l-7 -40h-353l-47 -268h321l-7 -40h-321l-50 -284h369l-7 -40h-418zM276 799.5q-8 8.5 -8 21.5q0 17 11.5 28.5t28.5 11.5q13 0 21.5 -8t8.5 -22q0 -17 -11.5 -28.5t-28.5 -11.5q-14 0 -22 8.5zM476.5 799.5q-8.5 8.5 -8.5 21.5q0 17 12 28.5t29 11.5
q13 0 21.5 -8.5t8.5 -21.5q0 -17 -11.5 -28.5t-28.5 -11.5q-14 0 -22.5 8.5z" />
    <glyph glyph-name="Edotaccent" unicode="&#x116;" horiz-adv-x="587" 
d="M186 672h402l-7 -40h-353l-47 -268h321l-7 -40h-321l-50 -284h369l-7 -40h-418zM375 798q-9 9 -9 23q0 18 12.5 30t29.5 12q14 0 23 -9t9 -23q0 -17 -12 -29.5t-30 -12.5q-14 0 -23 9z" />
    <glyph glyph-name="Egrave" unicode="&#xc8;" horiz-adv-x="587" 
d="M186 672h402l-7 -40h-353l-47 -268h321l-7 -40h-321l-50 -284h369l-7 -40h-418zM276 857l24 32l151 -109l-20 -28z" />
    <glyph glyph-name="Emacron" unicode="&#x112;" horiz-adv-x="587" 
d="M186 672h402l-7 -40h-353l-47 -268h321l-7 -40h-321l-50 -284h369l-7 -40h-418zM265 844h284l-7 -36h-283z" />
    <glyph glyph-name="Eogonek" unicode="&#x118;" horiz-adv-x="587" 
d="M346.5 -201q-20.5 19 -20.5 51q0 36 29.5 75t83.5 75h-371l118 672h402l-7 -40h-353l-47 -268h321l-7 -40h-321l-50 -284h369l-7 -40q-58 -38 -89.5 -75t-31.5 -68q0 -20 13 -32t34 -12q22 0 43 8l8 -31q-32 -10 -62 -10q-34 0 -54.5 19z" />
    <glyph glyph-name="F" unicode="F" horiz-adv-x="571" 
d="M186 672h402l-7 -41h-354l-50 -291h321l-7 -41h-322l-52 -299h-49z" />
    <glyph glyph-name="G" unicode="G" horiz-adv-x="679" 
d="M205 21.5q-65 33.5 -101 95t-36 141.5q0 121 47 218t131.5 152.5t193.5 55.5q111 0 220 -63l-21 -36q-102 58 -198 58t-169.5 -49.5t-114 -136t-40.5 -195.5q0 -69 30.5 -122t86 -82.5t128.5 -29.5q87 0 165 34l41 233h-172l7 39h218l-53 -300q-103 -46 -212 -46
q-86 0 -151 33.5z" />
    <glyph glyph-name="Gbreve" unicode="&#x11e;" horiz-adv-x="679" 
d="M205 21.5q-65 33.5 -101 95t-36 141.5q0 121 47 218t131.5 152.5t193.5 55.5q111 0 220 -63l-21 -36q-102 58 -198 58t-169.5 -49.5t-114 -136t-40.5 -195.5q0 -69 30.5 -122t86 -82.5t128.5 -29.5q87 0 165 34l41 233h-172l7 39h218l-53 -300q-103 -46 -212 -46
q-86 0 -151 33.5zM377.5 777.5q-33.5 29.5 -33.5 77.5q0 11 2 25h34q-1 -6 -1 -17q0 -36 23.5 -57t63.5 -21q44 0 77 26t42 69h35q-10 -60 -53 -96t-103 -36q-53 0 -86.5 29.5z" />
    <glyph glyph-name="Gcircumflex" unicode="&#x11c;" horiz-adv-x="679" 
d="M205 21.5q-65 33.5 -101 95t-36 141.5q0 121 47 218t131.5 152.5t193.5 55.5q111 0 220 -63l-21 -36q-102 58 -198 58t-169.5 -49.5t-114 -136t-40.5 -195.5q0 -69 30.5 -122t86 -82.5t128.5 -29.5q87 0 165 34l41 233h-172l7 39h218l-53 -300q-103 -46 -212 -46
q-86 0 -151 33.5zM321 780l143 116h33l100 -120l-25 -22l-95 105l-136 -106z" />
    <glyph glyph-name="Gcommaaccent" unicode="&#x122;" horiz-adv-x="679" 
d="M205 21.5q-65 33.5 -101 95t-36 141.5q0 121 47 218t131.5 152.5t193.5 55.5q111 0 220 -63l-21 -36q-102 58 -198 58t-169.5 -49.5t-114 -136t-40.5 -195.5q0 -69 30.5 -122t86 -82.5t128.5 -29.5q87 0 165 34l41 233h-172l7 39h218l-53 -300q-103 -46 -212 -46
q-86 0 -151 33.5zM223 -261q74 48 84 110q-14 -3 -24 4.5t-10 21.5q0 17 12 28.5t29 11.5q15 0 24 -11.5t9 -31.5q0 -41 -30 -83t-80 -71z" />
    <glyph glyph-name="Gdotaccent" unicode="&#x120;" horiz-adv-x="679" 
d="M205 21.5q-65 33.5 -101 95t-36 141.5q0 121 47 218t131.5 152.5t193.5 55.5q111 0 220 -63l-21 -36q-102 58 -198 58t-169.5 -49.5t-114 -136t-40.5 -195.5q0 -69 30.5 -122t86 -82.5t128.5 -29.5q87 0 165 34l41 233h-172l7 39h218l-53 -300q-103 -46 -212 -46
q-86 0 -151 33.5zM443 798q-9 9 -9 23q0 18 12.5 30t29.5 12q14 0 23 -9t9 -23q0 -17 -12 -29.5t-30 -12.5q-14 0 -23 9z" />
    <glyph glyph-name="H" unicode="H" horiz-adv-x="735" 
d="M186 672h49l-54 -308h417l54 308h49l-118 -672h-49l57 324h-417l-57 -324h-49z" />
    <glyph glyph-name="Hbar" unicode="&#x126;" horiz-adv-x="735" 
d="M161 532h-81l6 37h81l19 103h49l-19 -103h417l19 103h49l-18 -103h80l-6 -37h-81l-93 -532h-49l57 324h-417l-57 -324h-49zM598 364l29 168h-417l-29 -168h417z" />
    <glyph glyph-name="Hcircumflex" unicode="&#x124;" horiz-adv-x="735" 
d="M186 672h49l-54 -308h417l54 308h49l-118 -672h-49l57 324h-417l-57 -324h-49zM318 780l143 116h33l100 -120l-25 -22l-95 105l-136 -106z" />
    <glyph glyph-name="I" unicode="I" horiz-adv-x="269" 
d="M186 672h49l-118 -672h-49z" />
    <glyph glyph-name="IJ" unicode="&#x132;" horiz-adv-x="707" 
d="M186 672h49l-118 -672h-49zM262 17l15 39q68 -26 115 -26q55 0 92.5 33t47.5 88l91 521h50l-93 -526q-13 -73 -62 -115.5t-121 -42.5q-60 0 -135 29z" />
    <glyph glyph-name="Iacute" unicode="&#xcd;" horiz-adv-x="269" 
d="M186 672h49l-118 -672h-49zM179 780l171 109l20 -35l-174 -102z" />
    <glyph glyph-name="Ibreve" unicode="&#x12c;" horiz-adv-x="269" 
d="M186 672h49l-118 -672h-49zM141.5 777.5q-33.5 29.5 -33.5 77.5q0 11 2 25h34q-1 -6 -1 -17q0 -36 23.5 -57t63.5 -21q44 0 77 26t42 69h35q-10 -60 -53 -96t-103 -36q-53 0 -86.5 29.5z" />
    <glyph glyph-name="Icircumflex" unicode="&#xce;" horiz-adv-x="269" 
d="M186 672h49l-118 -672h-49zM85 780l143 116h33l100 -120l-25 -22l-95 105l-136 -106z" />
    <glyph glyph-name="Idieresis" unicode="&#xcf;" horiz-adv-x="269" 
d="M186 672h49l-118 -672h-49zM108 799.5q-8 8.5 -8 21.5q0 17 11.5 28.5t28.5 11.5q13 0 21.5 -8t8.5 -22q0 -17 -11.5 -28.5t-28.5 -11.5q-14 0 -22 8.5zM308.5 799.5q-8.5 8.5 -8.5 21.5q0 17 12 28.5t29 11.5q13 0 21.5 -8.5t8.5 -21.5q0 -17 -11.5 -28.5t-28.5 -11.5
q-14 0 -22.5 8.5z" />
    <glyph glyph-name="Idotaccent" unicode="&#x130;" horiz-adv-x="269" 
d="M186 672h49l-118 -672h-49zM207 798q-9 9 -9 23q0 18 12.5 30t29.5 12q14 0 23 -9t9 -23q0 -17 -12 -29.5t-30 -12.5q-14 0 -23 9z" />
    <glyph glyph-name="Igrave" unicode="&#xcc;" horiz-adv-x="269" 
d="M186 672h49l-118 -672h-49zM108 857l24 32l151 -109l-20 -28z" />
    <glyph glyph-name="Imacron" unicode="&#x12a;" horiz-adv-x="269" 
d="M186 672h49l-118 -672h-49zM97 844h284l-7 -36h-283z" />
    <glyph glyph-name="Iogonek" unicode="&#x12e;" horiz-adv-x="269" 
d="M-22.5 -201q-20.5 19 -20.5 51q0 36 29 75t82 75l118 672h49l-118 -672q-58 -38 -89.5 -75t-31.5 -68q0 -20 13 -32t34 -12q22 0 43 8l8 -31q-32 -10 -62 -10q-34 0 -54.5 19z" />
    <glyph glyph-name="Itilde" unicode="&#x128;" horiz-adv-x="269" 
d="M186 672h49l-118 -672h-49zM92 800q11 29 33 46.5t49 17.5q17 0 31 -5t37 -16q18 -9 30.5 -13.5t25.5 -4.5q16 0 29.5 10.5t20.5 28.5l32 -12q-12 -28 -34 -45.5t-49 -17.5q-17 0 -32.5 5t-34.5 15q-21 10 -32 14t-24 4q-17 0 -30.5 -10t-20.5 -28z" />
    <glyph glyph-name="J" unicode="J" horiz-adv-x="438" 
d="M-7 17l15 39q68 -26 115 -26q55 0 92.5 33t47.5 88l91 521h50l-93 -526q-13 -73 -62 -115.5t-121 -42.5q-60 0 -135 29z" />
    <glyph glyph-name="Jacute" horiz-adv-x="438" 
d="M-7 17l15 39q68 -26 115 -26q55 0 92.5 33t47.5 88l91 521h50l-93 -526q-13 -73 -62 -115.5t-121 -42.5q-60 0 -135 29zM348 780l171 109l20 -35l-174 -102z" />
    <glyph glyph-name="Jcircumflex" unicode="&#x134;" horiz-adv-x="438" 
d="M-7 17l15 39q68 -26 115 -26q55 0 92.5 33t47.5 88l91 521h50l-93 -526q-13 -73 -62 -115.5t-121 -42.5q-60 0 -135 29zM254 780l143 116h33l100 -120l-25 -22l-95 105l-136 -106z" />
    <glyph glyph-name="K" unicode="K" horiz-adv-x="644" 
d="M186 672h47l-64 -367l434 367h62l-367 -312l262 -360h-56l-242 331l-103 -87l-43 -244h-48z" />
    <glyph glyph-name="Kcommaaccent" unicode="&#x136;" horiz-adv-x="644" 
d="M186 672h47l-64 -367l434 367h62l-367 -312l262 -360h-56l-242 331l-103 -87l-43 -244h-48zM182 -261q74 48 84 110q-14 -3 -24 4.5t-10 21.5q0 17 12 28.5t29 11.5q15 0 24 -11.5t9 -31.5q0 -41 -30 -83t-80 -71z" />
    <glyph glyph-name="L" unicode="L" horiz-adv-x="523" 
d="M186 672h49l-111 -631h335l-8 -41h-383z" />
    <glyph glyph-name="Lacute" unicode="&#x139;" horiz-adv-x="523" 
d="M186 672h49l-111 -631h335l-8 -41h-383zM179 780l171 109l20 -35l-174 -102z" />
    <glyph glyph-name="Lcaron" unicode="&#x13d;" horiz-adv-x="523" 
d="M310 534l88 163l36 -16l-93 -161zM186 672h49l-111 -631h335l-8 -41h-383z" />
    <glyph glyph-name="Lcommaaccent" unicode="&#x13b;" horiz-adv-x="523" 
d="M186 672h49l-111 -631h335l-8 -41h-383zM145 -261q74 48 84 110q-14 -3 -24 4.5t-10 21.5q0 17 12 28.5t29 11.5q15 0 24 -11.5t9 -31.5q0 -41 -30 -83t-80 -71z" />
    <glyph glyph-name="Ldot" unicode="&#x13f;" horiz-adv-x="539" 
d="M186 672h49l-111 -631h335l-8 -41h-383zM396 325q-9 9 -9 23q0 18 12.5 30t29.5 12q14 0 23 -9t9 -23q0 -17 -12 -29.5t-30 -12.5q-14 0 -23 9z" />
    <glyph glyph-name="Lslash" unicode="&#x141;" horiz-adv-x="539" 
d="M136 301l-91 -41l-12 34l110 51l59 327h49l-54 -303l165 75l12 -34l-185 -85l-49 -284h335l-8 -41h-383z" />
    <glyph glyph-name="M" unicode="M" horiz-adv-x="823" 
d="M186 672h47l188 -358l316 358h52l-118 -672h-46l106 603l-301 -343h-30l-180 343l-106 -603h-46z" />
    <glyph glyph-name="N" unicode="N" horiz-adv-x="735" 
d="M186 672h47l316 -600l106 600h46l-118 -672h-47l-316 600l-106 -600h-46z" />
    <glyph glyph-name="Nacute" unicode="&#x143;" horiz-adv-x="735" 
d="M186 672h47l316 -600l106 600h46l-118 -672h-47l-316 600l-106 -600h-46zM412 780l171 109l20 -35l-174 -102z" />
    <glyph glyph-name="Ncaron" unicode="&#x147;" horiz-adv-x="735" 
d="M186 672h47l316 -600l106 600h46l-118 -672h-47l-316 600l-106 -600h-46zM342 876l25 22l94 -105l137 106l19 -27l-142 -116h-33z" />
    <glyph glyph-name="Ncommaaccent" unicode="&#x145;" horiz-adv-x="735" 
d="M186 672h47l316 -600l106 600h46l-118 -672h-47l-316 600l-106 -600h-46zM220 -261q74 48 84 110q-14 -3 -24 4.5t-10 21.5q0 17 12 28.5t29 11.5q15 0 24 -11.5t9 -31.5q0 -41 -30 -83t-80 -71z" />
    <glyph glyph-name="Eng" unicode="&#x14a;" horiz-adv-x="735" 
d="M253 -191l15 39q70 -26 117 -26q54 0 91.5 32t48.5 86l11 60l-317 600l-105 -600h-46l118 672h47l317 -600l105 600h46l-118 -672l-11 -62q-13 -73 -62.5 -115.5t-121.5 -42.5q-60 0 -135 29z" />
    <glyph glyph-name="Ntilde" unicode="&#xd1;" horiz-adv-x="735" 
d="M186 672h47l316 -600l106 600h46l-118 -672h-47l-316 600l-106 -600h-46zM325 800q11 29 33 46.5t49 17.5q17 0 31 -5t37 -16q18 -9 30.5 -13.5t25.5 -4.5q16 0 29.5 10.5t20.5 28.5l32 -12q-12 -28 -34 -45.5t-49 -17.5q-17 0 -32.5 5t-34.5 15q-21 10 -32 14t-24 4
q-17 0 -30.5 -10t-20.5 -28z" />
    <glyph glyph-name="O" unicode="O" horiz-adv-x="735" 
d="M197 21.5q-61 33.5 -95 94.5t-34 141q0 121 47.5 218.5t130.5 153t186 55.5q78 0 139 -33.5t95 -94.5t34 -141q0 -121 -47 -218.5t-130 -153t-187 -55.5q-78 0 -139 33.5zM498.5 78.5q70.5 49.5 111 137t40.5 195.5q0 70 -28 122.5t-78 81t-115 28.5q-88 0 -159 -49.5
t-111.5 -137t-40.5 -195.5q0 -70 28 -122.5t78.5 -81t115.5 -28.5q88 0 158.5 49.5z" />
    <glyph glyph-name="Oacute" unicode="&#xd3;" horiz-adv-x="735" 
d="M197 21.5q-61 33.5 -95 94.5t-34 141q0 121 47.5 218.5t130.5 153t186 55.5q78 0 139 -33.5t95 -94.5t34 -141q0 -121 -47 -218.5t-130 -153t-187 -55.5q-78 0 -139 33.5zM498.5 78.5q70.5 49.5 111 137t40.5 195.5q0 70 -28 122.5t-78 81t-115 28.5q-88 0 -159 -49.5
t-111.5 -137t-40.5 -195.5q0 -70 28 -122.5t78.5 -81t115.5 -28.5q88 0 158.5 49.5zM412 780l171 109l20 -35l-174 -102z" />
    <glyph glyph-name="Obreve" unicode="&#x14e;" horiz-adv-x="735" 
d="M197 21.5q-61 33.5 -95 94.5t-34 141q0 121 47.5 218.5t130.5 153t186 55.5q78 0 139 -33.5t95 -94.5t34 -141q0 -121 -47 -218.5t-130 -153t-187 -55.5q-78 0 -139 33.5zM498.5 78.5q70.5 49.5 111 137t40.5 195.5q0 70 -28 122.5t-78 81t-115 28.5q-88 0 -159 -49.5
t-111.5 -137t-40.5 -195.5q0 -70 28 -122.5t78.5 -81t115.5 -28.5q88 0 158.5 49.5zM374.5 777.5q-33.5 29.5 -33.5 77.5q0 11 2 25h34q-1 -6 -1 -17q0 -36 23.5 -57t63.5 -21q44 0 77 26t42 69h35q-10 -60 -53 -96t-103 -36q-53 0 -86.5 29.5z" />
    <glyph glyph-name="Ocircumflex" unicode="&#xd4;" horiz-adv-x="735" 
d="M197 21.5q-61 33.5 -95 94.5t-34 141q0 121 47.5 218.5t130.5 153t186 55.5q78 0 139 -33.5t95 -94.5t34 -141q0 -121 -47 -218.5t-130 -153t-187 -55.5q-78 0 -139 33.5zM498.5 78.5q70.5 49.5 111 137t40.5 195.5q0 70 -28 122.5t-78 81t-115 28.5q-88 0 -159 -49.5
t-111.5 -137t-40.5 -195.5q0 -70 28 -122.5t78.5 -81t115.5 -28.5q88 0 158.5 49.5zM318 780l143 116h33l100 -120l-25 -22l-95 105l-136 -106z" />
    <glyph glyph-name="Odieresis" unicode="&#xd6;" horiz-adv-x="735" 
d="M197 21.5q-61 33.5 -95 94.5t-34 141q0 121 47.5 218.5t130.5 153t186 55.5q78 0 139 -33.5t95 -94.5t34 -141q0 -121 -47 -218.5t-130 -153t-187 -55.5q-78 0 -139 33.5zM498.5 78.5q70.5 49.5 111 137t40.5 195.5q0 70 -28 122.5t-78 81t-115 28.5q-88 0 -159 -49.5
t-111.5 -137t-40.5 -195.5q0 -70 28 -122.5t78.5 -81t115.5 -28.5q88 0 158.5 49.5zM341 799.5q-8 8.5 -8 21.5q0 17 11.5 28.5t28.5 11.5q13 0 21.5 -8t8.5 -22q0 -17 -11.5 -28.5t-28.5 -11.5q-14 0 -22 8.5zM541.5 799.5q-8.5 8.5 -8.5 21.5q0 17 12 28.5t29 11.5
q13 0 21.5 -8.5t8.5 -21.5q0 -17 -11.5 -28.5t-28.5 -11.5q-14 0 -22.5 8.5z" />
    <glyph glyph-name="Ograve" unicode="&#xd2;" horiz-adv-x="735" 
d="M197 21.5q-61 33.5 -95 94.5t-34 141q0 121 47.5 218.5t130.5 153t186 55.5q78 0 139 -33.5t95 -94.5t34 -141q0 -121 -47 -218.5t-130 -153t-187 -55.5q-78 0 -139 33.5zM498.5 78.5q70.5 49.5 111 137t40.5 195.5q0 70 -28 122.5t-78 81t-115 28.5q-88 0 -159 -49.5
t-111.5 -137t-40.5 -195.5q0 -70 28 -122.5t78.5 -81t115.5 -28.5q88 0 158.5 49.5zM341 857l24 32l151 -109l-20 -28z" />
    <glyph glyph-name="Ohungarumlaut" unicode="&#x150;" horiz-adv-x="735" 
d="M197 21.5q-61 33.5 -95 94.5t-34 141q0 121 47.5 218.5t130.5 153t186 55.5q78 0 139 -33.5t95 -94.5t34 -141q0 -121 -47 -218.5t-130 -153t-187 -55.5q-78 0 -139 33.5zM498.5 78.5q70.5 49.5 111 137t40.5 195.5q0 70 -28 122.5t-78 81t-115 28.5q-88 0 -159 -49.5
t-111.5 -137t-40.5 -195.5q0 -70 28 -122.5t78.5 -81t115.5 -28.5q88 0 158.5 49.5zM336 778l152 134l26 -31l-156 -130zM514 778l152 134l26 -31l-156 -130z" />
    <glyph glyph-name="Omacron" unicode="&#x14c;" horiz-adv-x="735" 
d="M197 21.5q-61 33.5 -95 94.5t-34 141q0 121 47.5 218.5t130.5 153t186 55.5q78 0 139 -33.5t95 -94.5t34 -141q0 -121 -47 -218.5t-130 -153t-187 -55.5q-78 0 -139 33.5zM498.5 78.5q70.5 49.5 111 137t40.5 195.5q0 70 -28 122.5t-78 81t-115 28.5q-88 0 -159 -49.5
t-111.5 -137t-40.5 -195.5q0 -70 28 -122.5t78.5 -81t115.5 -28.5q88 0 158.5 49.5zM330 844h284l-7 -36h-283z" />
    <glyph glyph-name="Oslash" unicode="&#xd8;" horiz-adv-x="735" 
d="M232.5 6q-47.5 18 -82.5 52l-53 -58h-47l75 81q-57 71 -57 176q0 121 47 218.5t130 153t187 55.5q56 0 103.5 -18.5t82.5 -52.5l54 59h45l-75 -81q28 -34 43 -79t15 -97q0 -121 -47 -218.5t-130 -153t-187 -55.5q-56 0 -103.5 18zM588 580q-29 31 -70 47.5t-89 16.5
q-89 0 -160.5 -49.5t-112 -137t-40.5 -196.5q0 -87 43 -144zM500.5 79.5q71.5 49.5 112 136.5t40.5 195q0 84 -44 144l-428 -463q29 -30 70 -46t89 -16q89 0 160.5 49.5z" />
    <glyph glyph-name="Oslashacute" unicode="&#x1fe;" horiz-adv-x="735" 
d="M232.5 6q-47.5 18 -82.5 52l-53 -58h-47l75 81q-57 71 -57 176q0 121 47 218.5t130 153t187 55.5q56 0 103.5 -18.5t82.5 -52.5l54 59h45l-75 -81q28 -34 43 -79t15 -97q0 -121 -47 -218.5t-130 -153t-187 -55.5q-56 0 -103.5 18zM588 580q-29 31 -70 47.5t-89 16.5
q-89 0 -160.5 -49.5t-112 -137t-40.5 -196.5q0 -87 43 -144zM500.5 79.5q71.5 49.5 112 136.5t40.5 195q0 84 -44 144l-428 -463q29 -30 70 -46t89 -16q89 0 160.5 49.5zM412 780l171 109l20 -35l-174 -102z" />
    <glyph glyph-name="Otilde" unicode="&#xd5;" horiz-adv-x="735" 
d="M197 21.5q-61 33.5 -95 94.5t-34 141q0 121 47.5 218.5t130.5 153t186 55.5q78 0 139 -33.5t95 -94.5t34 -141q0 -121 -47 -218.5t-130 -153t-187 -55.5q-78 0 -139 33.5zM498.5 78.5q70.5 49.5 111 137t40.5 195.5q0 70 -28 122.5t-78 81t-115 28.5q-88 0 -159 -49.5
t-111.5 -137t-40.5 -195.5q0 -70 28 -122.5t78.5 -81t115.5 -28.5q88 0 158.5 49.5zM325 800q11 29 33 46.5t49 17.5q17 0 31 -5t37 -16q18 -9 30.5 -13.5t25.5 -4.5q16 0 29.5 10.5t20.5 28.5l32 -12q-12 -28 -34 -45.5t-49 -17.5q-17 0 -32.5 5t-34.5 15q-21 10 -32 14
t-24 4q-17 0 -30.5 -10t-20.5 -28z" />
    <glyph glyph-name="OE" unicode="&#x152;" horiz-adv-x="992" 
d="M145.5 71q-76.5 71 -76.5 199q0 118 48 209.5t134.5 142t197.5 50.5h544l-7 -40h-353l-47 -268h321l-7 -40h-321l-50 -284h370l-8 -40h-530q-139 0 -215.5 71zM480 41l103 590h-133q-97 0 -172 -45t-117 -126.5t-42 -186.5q0 -111 65 -171.5t185 -60.5h111z" />
    <glyph glyph-name="P" unicode="P" horiz-adv-x="606" 
d="M186 672h220q88 0 139.5 -49.5t51.5 -132.5q0 -65 -31 -116t-86 -79.5t-125 -28.5h-193l-47 -266h-47zM352 306q57 0 102 23t70 64t25 94q0 67 -41 105.5t-112 38.5h-170l-57 -325h183z" />
    <glyph glyph-name="Thorn" unicode="&#xde;" horiz-adv-x="606" 
d="M186 672h47l-21 -125h172q88 0 139.5 -49t51.5 -133q0 -65 -31 -116t-86 -79.5t-125 -28.5h-193l-25 -141h-47zM330 181q57 0 102 23t70 64.5t25 94.5q0 67 -41 105.5t-112 38.5h-170l-57 -326h183z" />
    <glyph glyph-name="Q" unicode="Q" horiz-adv-x="735" 
d="M458 12q-61 -24 -122 -24q-78 0 -139 33.5t-95 94.5t-34 141q0 121 47.5 218.5t130.5 153t186 55.5q78 0 139 -33.5t95 -94.5t34 -141q0 -131 -54.5 -233.5t-146.5 -152.5l155 -129l-28 -31zM498.5 78.5q70.5 49.5 111 137t40.5 195.5q0 70 -28 122.5t-78 81t-115 28.5
q-88 0 -159 -49.5t-111.5 -137t-40.5 -195.5q0 -70 28 -122.5t78.5 -81t115.5 -28.5q88 0 158.5 49.5z" />
    <glyph glyph-name="R" unicode="R" horiz-adv-x="638" 
d="M186 672h231q83 0 132.5 -47t49.5 -127q0 -59 -27 -106t-74.5 -75t-108.5 -32l151 -285h-51l-148 282h-176l-50 -282h-47zM364 322q54 0 96.5 22t66 61.5t23.5 89.5q0 63 -38 99.5t-105 36.5h-181l-54 -309h192z" />
    <glyph glyph-name="Racute" unicode="&#x154;" horiz-adv-x="638" 
d="M186 672h231q83 0 132.5 -47t49.5 -127q0 -59 -27 -106t-74.5 -75t-108.5 -32l151 -285h-51l-148 282h-176l-50 -282h-47zM364 322q54 0 96.5 22t66 61.5t23.5 89.5q0 63 -38 99.5t-105 36.5h-181l-54 -309h192zM338 780l171 109l20 -35l-174 -102z" />
    <glyph glyph-name="Rcaron" unicode="&#x158;" horiz-adv-x="638" 
d="M186 672h231q83 0 132.5 -47t49.5 -127q0 -59 -27 -106t-74.5 -75t-108.5 -32l151 -285h-51l-148 282h-176l-50 -282h-47zM364 322q54 0 96.5 22t66 61.5t23.5 89.5q0 63 -38 99.5t-105 36.5h-181l-54 -309h192zM268 876l25 22l94 -105l137 106l19 -27l-142 -116h-33z
" />
    <glyph glyph-name="Rcommaaccent" unicode="&#x156;" horiz-adv-x="638" 
d="M186 672h231q83 0 132.5 -47t49.5 -127q0 -59 -27 -106t-74.5 -75t-108.5 -32l151 -285h-51l-148 282h-176l-50 -282h-47zM364 322q54 0 96.5 22t66 61.5t23.5 89.5q0 63 -38 99.5t-105 36.5h-181l-54 -309h192zM179 -261q74 48 84 110q-14 -3 -24 4.5t-10 21.5
q0 17 12 28.5t29 11.5q15 0 24 -11.5t9 -31.5q0 -41 -30 -83t-80 -71z" />
    <glyph glyph-name="S" unicode="S" horiz-adv-x="566" 
d="M146.5 3.5q-63.5 15.5 -122.5 45.5l17 39q58 -29 116 -44t110 -15q79 0 129 40t50 104q0 39 -21 65.5t-51.5 43.5t-84.5 40q-59 24 -93.5 44t-59 53t-24.5 82q0 52 28.5 93.5t78.5 65.5t114 24q111 0 228 -54l-17 -39q-113 52 -210 52q-50 0 -89.5 -18t-62 -50t-22.5 -72
q0 -37 20.5 -63t50.5 -42.5t83 -38.5q58 -24 93.5 -44.5t60.5 -54.5t25 -85q0 -55 -28.5 -97.5t-80 -66t-116.5 -23.5q-58 0 -121.5 15.5z" />
    <glyph glyph-name="Sacute" unicode="&#x15a;" horiz-adv-x="566" 
d="M146.5 3.5q-63.5 15.5 -122.5 45.5l17 39q58 -29 116 -44t110 -15q79 0 129 40t50 104q0 39 -21 65.5t-51.5 43.5t-84.5 40q-59 24 -93.5 44t-59 53t-24.5 82q0 52 28.5 93.5t78.5 65.5t114 24q111 0 228 -54l-17 -39q-113 52 -210 52q-50 0 -89.5 -18t-62 -50t-22.5 -72
q0 -37 20.5 -63t50.5 -42.5t83 -38.5q58 -24 93.5 -44.5t60.5 -54.5t25 -85q0 -55 -28.5 -97.5t-80 -66t-116.5 -23.5q-58 0 -121.5 15.5zM327 780l171 109l20 -35l-174 -102z" />
    <glyph glyph-name="Scaron" unicode="&#x160;" horiz-adv-x="566" 
d="M146.5 3.5q-63.5 15.5 -122.5 45.5l17 39q58 -29 116 -44t110 -15q79 0 129 40t50 104q0 39 -21 65.5t-51.5 43.5t-84.5 40q-59 24 -93.5 44t-59 53t-24.5 82q0 52 28.5 93.5t78.5 65.5t114 24q111 0 228 -54l-17 -39q-113 52 -210 52q-50 0 -89.5 -18t-62 -50t-22.5 -72
q0 -37 20.5 -63t50.5 -42.5t83 -38.5q58 -24 93.5 -44.5t60.5 -54.5t25 -85q0 -55 -28.5 -97.5t-80 -66t-116.5 -23.5q-58 0 -121.5 15.5zM257 876l25 22l94 -105l137 106l19 -27l-142 -116h-33z" />
    <glyph glyph-name="Scedilla" unicode="&#x15e;" horiz-adv-x="566" 
d="M244.5 625q-39.5 -18 -62 -50t-22.5 -72q0 -37 20.5 -63t50.5 -42.5t83 -38.5q58 -24 93.5 -44.5t60.5 -54.5t25 -85q0 -55 -28.5 -97.5t-80 -66t-116.5 -23.5h-4l-18 -53q29 -5 45.5 -23.5t16.5 -46.5q0 -37 -29.5 -61t-75.5 -24q-41 0 -90 22l14 30q40 -19 74 -19
q29 0 48 15t19 38q0 20 -17 33t-42 13h-7l26 78q-107 8 -204 59l17 39q58 -29 116 -44t110 -15q79 0 129 40t50 104q0 39 -21 65.5t-51.5 43.5t-84.5 40q-59 24 -93.5 44t-59 53t-24.5 82q0 52 28.5 93.5t78.5 65.5t114 24q111 0 228 -54l-17 -39q-113 52 -210 52
q-50 0 -89.5 -18z" />
    <glyph glyph-name="Scircumflex" unicode="&#x15c;" horiz-adv-x="566" 
d="M146.5 3.5q-63.5 15.5 -122.5 45.5l17 39q58 -29 116 -44t110 -15q79 0 129 40t50 104q0 39 -21 65.5t-51.5 43.5t-84.5 40q-59 24 -93.5 44t-59 53t-24.5 82q0 52 28.5 93.5t78.5 65.5t114 24q111 0 228 -54l-17 -39q-113 52 -210 52q-50 0 -89.5 -18t-62 -50t-22.5 -72
q0 -37 20.5 -63t50.5 -42.5t83 -38.5q58 -24 93.5 -44.5t60.5 -54.5t25 -85q0 -55 -28.5 -97.5t-80 -66t-116.5 -23.5q-58 0 -121.5 15.5zM233 780l143 116h33l100 -120l-25 -22l-95 105l-136 -106z" />
    <glyph glyph-name="Scommaaccent" unicode="&#x218;" horiz-adv-x="566" 
d="M146.5 3.5q-63.5 15.5 -122.5 45.5l17 39q58 -29 116 -44t110 -15q79 0 129 40t50 104q0 39 -21 65.5t-51.5 43.5t-84.5 40q-59 24 -93.5 44t-59 53t-24.5 82q0 52 28.5 93.5t78.5 65.5t114 24q111 0 228 -54l-17 -39q-113 52 -210 52q-50 0 -89.5 -18t-62 -50t-22.5 -72
q0 -37 20.5 -63t50.5 -42.5t83 -38.5q58 -24 93.5 -44.5t60.5 -54.5t25 -85q0 -55 -28.5 -97.5t-80 -66t-116.5 -23.5q-58 0 -121.5 15.5zM133 -261q74 48 84 110q-14 -3 -24 4.5t-10 21.5q0 17 12 28.5t29 11.5q15 0 24 -11.5t9 -31.5q0 -41 -30 -83t-80 -71z" />
    <glyph glyph-name="uni1E9E" unicode="&#x1e9e;" horiz-adv-x="767" 
d="M243 45l23 37q82 -53 161 -53q54 0 98.5 23.5t70 63.5t25.5 88q0 65 -43.5 108t-117.5 43h-16l-4 29l223 247h-437l-111 -631h-47l118 672h544l-5 -32l-225 -251q77 -4 123 -55.5t46 -126.5q0 -59 -32 -109.5t-87 -80t-123 -29.5q-94 0 -184 57z" />
    <glyph glyph-name="T" unicode="T" horiz-adv-x="587" 
d="M337 631h-240l8 41h528l-7 -41h-240l-110 -631h-50z" />
    <glyph glyph-name="Tbar" unicode="&#x166;" horiz-adv-x="587" 
d="M278 300h-145l7 39h145l52 292h-240l8 41h528l-7 -41h-240l-51 -292h147l-7 -39h-147l-52 -300h-50z" />
    <glyph glyph-name="Tcaron" unicode="&#x164;" horiz-adv-x="587" 
d="M337 631h-240l8 41h528l-7 -41h-240l-110 -631h-50zM268 876l25 22l94 -105l137 106l19 -27l-142 -116h-33z" />
    <glyph glyph-name="uni0162" unicode="&#x162;" horiz-adv-x="587" 
d="M337 631h-240l8 41h528l-7 -41h-240l-110 -631h-50zM145 -261q74 48 84 110q-14 -3 -24 4.5t-10 21.5q0 17 12 28.5t29 11.5q15 0 24 -11.5t9 -31.5q0 -41 -30 -83t-80 -71z" />
    <glyph glyph-name="uni021A" unicode="&#x21a;" horiz-adv-x="587" 
d="M337 631h-240l8 41h528l-7 -41h-240l-110 -631h-50zM145 -261q74 48 84 110q-14 -3 -24 4.5t-10 21.5q0 17 12 28.5t29 11.5q15 0 24 -11.5t9 -31.5q0 -41 -30 -83t-80 -71z" />
    <glyph glyph-name="U" unicode="U" horiz-adv-x="735" 
d="M214 15.5q-54 27.5 -84 76.5t-30 112q0 24 5 56l73 412h49l-72 -412q-5 -22 -5 -52q0 -81 52 -130t138 -49q95 0 161.5 58.5t82.5 156.5l76 428h49l-76 -431q-20 -117 -100 -185t-196 -68q-69 0 -123 27.5z" />
    <glyph glyph-name="Uacute" unicode="&#xda;" horiz-adv-x="735" 
d="M214 15.5q-54 27.5 -84 76.5t-30 112q0 24 5 56l73 412h49l-72 -412q-5 -22 -5 -52q0 -81 52 -130t138 -49q95 0 161.5 58.5t82.5 156.5l76 428h49l-76 -431q-20 -117 -100 -185t-196 -68q-69 0 -123 27.5zM412 780l171 109l20 -35l-174 -102z" />
    <glyph glyph-name="Ubreve" unicode="&#x16c;" horiz-adv-x="735" 
d="M214 15.5q-54 27.5 -84 76.5t-30 112q0 24 5 56l73 412h49l-72 -412q-5 -22 -5 -52q0 -81 52 -130t138 -49q95 0 161.5 58.5t82.5 156.5l76 428h49l-76 -431q-20 -117 -100 -185t-196 -68q-69 0 -123 27.5zM374.5 777.5q-33.5 29.5 -33.5 77.5q0 11 2 25h34q-1 -6 -1 -17
q0 -36 23.5 -57t63.5 -21q44 0 77 26t42 69h35q-10 -60 -53 -96t-103 -36q-53 0 -86.5 29.5z" />
    <glyph glyph-name="Ucircumflex" unicode="&#xdb;" horiz-adv-x="735" 
d="M214 15.5q-54 27.5 -84 76.5t-30 112q0 24 5 56l73 412h49l-72 -412q-5 -22 -5 -52q0 -81 52 -130t138 -49q95 0 161.5 58.5t82.5 156.5l76 428h49l-76 -431q-20 -117 -100 -185t-196 -68q-69 0 -123 27.5zM318 780l143 116h33l100 -120l-25 -22l-95 105l-136 -106z" />
    <glyph glyph-name="Udieresis" unicode="&#xdc;" horiz-adv-x="735" 
d="M214 15.5q-54 27.5 -84 76.5t-30 112q0 24 5 56l73 412h49l-72 -412q-5 -22 -5 -52q0 -81 52 -130t138 -49q95 0 161.5 58.5t82.5 156.5l76 428h49l-76 -431q-20 -117 -100 -185t-196 -68q-69 0 -123 27.5zM341 799.5q-8 8.5 -8 21.5q0 17 11.5 28.5t28.5 11.5
q13 0 21.5 -8t8.5 -22q0 -17 -11.5 -28.5t-28.5 -11.5q-14 0 -22 8.5zM541.5 799.5q-8.5 8.5 -8.5 21.5q0 17 12 28.5t29 11.5q13 0 21.5 -8.5t8.5 -21.5q0 -17 -11.5 -28.5t-28.5 -11.5q-14 0 -22.5 8.5z" />
    <glyph glyph-name="Ugrave" unicode="&#xd9;" horiz-adv-x="735" 
d="M214 15.5q-54 27.5 -84 76.5t-30 112q0 24 5 56l73 412h49l-72 -412q-5 -22 -5 -52q0 -81 52 -130t138 -49q95 0 161.5 58.5t82.5 156.5l76 428h49l-76 -431q-20 -117 -100 -185t-196 -68q-69 0 -123 27.5zM341 857l24 32l151 -109l-20 -28z" />
    <glyph glyph-name="Uhungarumlaut" unicode="&#x170;" horiz-adv-x="735" 
d="M214 15.5q-54 27.5 -84 76.5t-30 112q0 24 5 56l73 412h49l-72 -412q-5 -22 -5 -52q0 -81 52 -130t138 -49q95 0 161.5 58.5t82.5 156.5l76 428h49l-76 -431q-20 -117 -100 -185t-196 -68q-69 0 -123 27.5zM336 778l152 134l26 -31l-156 -130zM514 778l152 134l26 -31
l-156 -130z" />
    <glyph glyph-name="Umacron" unicode="&#x16a;" horiz-adv-x="735" 
d="M214 15.5q-54 27.5 -84 76.5t-30 112q0 24 5 56l73 412h49l-72 -412q-5 -22 -5 -52q0 -81 52 -130t138 -49q95 0 161.5 58.5t82.5 156.5l76 428h49l-76 -431q-20 -117 -100 -185t-196 -68q-69 0 -123 27.5zM330 844h284l-7 -36h-283z" />
    <glyph glyph-name="Uogonek" unicode="&#x172;" horiz-adv-x="735" 
d="M261.5 -201q-20.5 19 -20.5 50q0 35 34.5 73t91.5 70q-15 -3 -29 -3q-69 0 -123.5 27t-84.5 75.5t-30 112.5q0 24 5 56l73 412h49l-72 -412q-5 -22 -5 -52q0 -81 52 -130t138 -49q95 0 161.5 58.5t82.5 156.5l76 428h49l-76 -431q-16 -91 -62.5 -145.5t-124.5 -90.5
q-81 -38 -123.5 -78.5t-42.5 -69.5q0 -19 13 -31.5t33 -12.5q23 0 44 8l8 -31q-32 -10 -62 -10q-34 0 -54.5 19z" />
    <glyph glyph-name="Uring" unicode="&#x16e;" horiz-adv-x="735" 
d="M214 15.5q-54 27.5 -84 76.5t-30 112q0 24 5 56l73 412h49l-72 -412q-5 -22 -5 -52q0 -81 52 -130t138 -49q95 0 161.5 58.5t82.5 156.5l76 428h49l-76 -431q-20 -117 -100 -185t-196 -68q-69 0 -123 27.5zM396.5 756q-22.5 22 -22.5 57q0 44 31 74.5t77 30.5
q35 0 57.5 -22t22.5 -56q0 -45 -31 -75.5t-76 -30.5q-36 0 -58.5 22zM511.5 782.5q21.5 21.5 21.5 53.5q0 25 -15 40t-40 15q-31 0 -52.5 -21.5t-21.5 -53.5q0 -25 14.5 -40t39.5 -15q32 0 53.5 21.5z" />
    <glyph glyph-name="Utilde" unicode="&#x168;" horiz-adv-x="735" 
d="M214 15.5q-54 27.5 -84 76.5t-30 112q0 24 5 56l73 412h49l-72 -412q-5 -22 -5 -52q0 -81 52 -130t138 -49q95 0 161.5 58.5t82.5 156.5l76 428h49l-76 -431q-20 -117 -100 -185t-196 -68q-69 0 -123 27.5zM325 800q11 29 33 46.5t49 17.5q17 0 31 -5t37 -16
q18 -9 30.5 -13.5t25.5 -4.5q16 0 29.5 10.5t20.5 28.5l32 -12q-12 -28 -34 -45.5t-49 -17.5q-17 0 -32.5 5t-34.5 15q-21 10 -32 14t-24 4q-17 0 -30.5 -10t-20.5 -28z" />
    <glyph glyph-name="V" unicode="V" horiz-adv-x="655" 
d="M107 672h49l138 -610l354 610h54l-394 -672h-46z" />
    <glyph glyph-name="W" unicode="W" horiz-adv-x="983" 
d="M119 672h47l86 -607l290 607h47l88 -607l290 607h51l-327 -672h-48l-87 607l-291 -607h-48z" />
    <glyph glyph-name="Wacute" unicode="&#x1e82;" horiz-adv-x="983" 
d="M119 672h47l86 -607l290 607h47l88 -607l290 607h51l-327 -672h-48l-87 607l-291 -607h-48zM536 780l171 109l20 -35l-174 -102z" />
    <glyph glyph-name="Wcircumflex" unicode="&#x174;" horiz-adv-x="983" 
d="M119 672h47l86 -607l290 607h47l88 -607l290 607h51l-327 -672h-48l-87 607l-291 -607h-48zM442 780l143 116h33l100 -120l-25 -22l-95 105l-136 -106z" />
    <glyph glyph-name="Wdieresis" unicode="&#x1e84;" horiz-adv-x="983" 
d="M119 672h47l86 -607l290 607h47l88 -607l290 607h51l-327 -672h-48l-87 607l-291 -607h-48zM465 799.5q-8 8.5 -8 21.5q0 17 11.5 28.5t28.5 11.5q13 0 21.5 -8t8.5 -22q0 -17 -11.5 -28.5t-28.5 -11.5q-14 0 -22 8.5zM665.5 799.5q-8.5 8.5 -8.5 21.5q0 17 12 28.5
t29 11.5q13 0 21.5 -8.5t8.5 -21.5q0 -17 -11.5 -28.5t-28.5 -11.5q-14 0 -22.5 8.5z" />
    <glyph glyph-name="Wgrave" unicode="&#x1e80;" horiz-adv-x="983" 
d="M119 672h47l86 -607l290 607h47l88 -607l290 607h51l-327 -672h-48l-87 607l-291 -607h-48zM465 857l24 32l151 -109l-20 -28z" />
    <glyph glyph-name="X" unicode="X" horiz-adv-x="655" 
d="M317 347l-188 325h53l170 -294l266 294h60l-302 -331l198 -341h-54l-179 310l-281 -310h-60z" />
    <glyph glyph-name="Y" unicode="Y" horiz-adv-x="580" 
d="M275 298l-188 374h53l166 -330l259 330h58l-300 -379l-51 -293h-49z" />
    <glyph glyph-name="Yacute" unicode="&#xdd;" horiz-adv-x="580" 
d="M275 298l-188 374h53l166 -330l259 330h58l-300 -379l-51 -293h-49zM326 780l171 109l20 -35l-174 -102z" />
    <glyph glyph-name="Ycircumflex" unicode="&#x176;" horiz-adv-x="580" 
d="M275 298l-188 374h53l166 -330l259 330h58l-300 -379l-51 -293h-49zM232 780l143 116h33l100 -120l-25 -22l-95 105l-136 -106z" />
    <glyph glyph-name="Ydieresis" unicode="&#x178;" horiz-adv-x="580" 
d="M275 298l-188 374h53l166 -330l259 330h58l-300 -379l-51 -293h-49zM255 799.5q-8 8.5 -8 21.5q0 17 11.5 28.5t28.5 11.5q13 0 21.5 -8t8.5 -22q0 -17 -11.5 -28.5t-28.5 -11.5q-14 0 -22 8.5zM455.5 799.5q-8.5 8.5 -8.5 21.5q0 17 12 28.5t29 11.5q13 0 21.5 -8.5
t8.5 -21.5q0 -17 -11.5 -28.5t-28.5 -11.5q-14 0 -22.5 8.5z" />
    <glyph glyph-name="Ygrave" unicode="&#x1ef2;" horiz-adv-x="580" 
d="M275 298l-188 374h53l166 -330l259 330h58l-300 -379l-51 -293h-49zM255 857l24 32l151 -109l-20 -28z" />
    <glyph glyph-name="Z" unicode="Z" horiz-adv-x="614" 
d="M21 31l525 600h-408l7 41h475l-5 -31l-525 -600h431l-7 -41h-499z" />
    <glyph glyph-name="Zacute" unicode="&#x179;" horiz-adv-x="614" 
d="M21 31l525 600h-408l7 41h475l-5 -31l-525 -600h431l-7 -41h-499zM351 780l171 109l20 -35l-174 -102z" />
    <glyph glyph-name="Zcaron" unicode="&#x17d;" horiz-adv-x="614" 
d="M21 31l525 600h-408l7 41h475l-5 -31l-525 -600h431l-7 -41h-499zM281 876l25 22l94 -105l137 106l19 -27l-142 -116h-33z" />
    <glyph glyph-name="Zdotaccent" unicode="&#x17b;" horiz-adv-x="614" 
d="M21 31l525 600h-408l7 41h475l-5 -31l-525 -600h431l-7 -41h-499zM379 798q-9 9 -9 23q0 18 12.5 30t29.5 12q14 0 23 -9t9 -23q0 -17 -12 -29.5t-30 -12.5q-14 0 -23 9z" />
    <glyph glyph-name="Cacute.loclPLK" horiz-adv-x="635" 
d="M200 22q-62 34 -97 95t-35 140q0 122 46 219t129.5 152.5t191.5 55.5q55 0 110 -17.5t103 -51.5l-25 -36q-88 63 -187 63q-95 0 -167 -49t-111.5 -135.5t-39.5 -195.5q0 -68 29.5 -121t81.5 -82t119 -29q102 0 191 55l18 -35q-100 -62 -217 -62q-78 0 -140 34zM430 764
l71 136l36 -20l-77 -133z" />
    <glyph glyph-name="Nacute.loclPLK" horiz-adv-x="735" 
d="M186 672h47l316 -600l106 600h46l-118 -672h-47l-316 600l-106 -600h-46zM432 764l71 136l36 -20l-77 -133z" />
    <glyph glyph-name="Oacute.loclPLK" horiz-adv-x="735" 
d="M197 21.5q-61 33.5 -95 94.5t-34 141q0 121 47.5 218.5t130.5 153t186 55.5q78 0 139 -33.5t95 -94.5t34 -141q0 -121 -47 -218.5t-130 -153t-187 -55.5q-78 0 -139 33.5zM498.5 78.5q70.5 49.5 111 137t40.5 195.5q0 70 -28 122.5t-78 81t-115 28.5q-88 0 -159 -49.5
t-111.5 -137t-40.5 -195.5q0 -70 28 -122.5t78.5 -81t115.5 -28.5q88 0 158.5 49.5zM432 764l71 136l36 -20l-77 -133z" />
    <glyph glyph-name="Sacute.loclPLK" horiz-adv-x="566" 
d="M146.5 3.5q-63.5 15.5 -122.5 45.5l17 39q58 -29 116 -44t110 -15q79 0 129 40t50 104q0 39 -21 65.5t-51.5 43.5t-84.5 40q-59 24 -93.5 44t-59 53t-24.5 82q0 52 28.5 93.5t78.5 65.5t114 24q111 0 228 -54l-17 -39q-113 52 -210 52q-50 0 -89.5 -18t-62 -50t-22.5 -72
q0 -37 20.5 -63t50.5 -42.5t83 -38.5q58 -24 93.5 -44.5t60.5 -54.5t25 -85q0 -55 -28.5 -97.5t-80 -66t-116.5 -23.5q-58 0 -121.5 15.5zM347 764l71 136l36 -20l-77 -133z" />
    <glyph glyph-name="Zacute.loclPLK" horiz-adv-x="614" 
d="M21 31l525 600h-408l7 41h475l-5 -31l-525 -600h431l-7 -41h-499zM371 764l71 136l36 -20l-77 -133z" />
    <glyph glyph-name="a" unicode="a" 
d="M94.5 40.5q-48.5 52.5 -48.5 138.5q0 88 32 160.5t89 114t127 41.5q56 0 97.5 -29.5t56.5 -80.5l22 98h41l-85 -483h-38l9 83q-34 -46 -79 -70.5t-96 -24.5q-79 0 -127.5 52.5zM314.5 50q37.5 21 63.5 56.5t33 78.5l16 92q5 23 5 40q0 59 -37 98t-95 39t-105 -35.5
t-73.5 -97.5t-26.5 -138q0 -69 38.5 -111.5t101.5 -42.5q42 0 79.5 21z" />
    <glyph glyph-name="aacute" unicode="&#xe1;" 
d="M94.5 40.5q-48.5 52.5 -48.5 138.5q0 88 32 160.5t89 114t127 41.5q56 0 97.5 -29.5t56.5 -80.5l22 98h41l-85 -483h-38l9 83q-34 -46 -79 -70.5t-96 -24.5q-79 0 -127.5 52.5zM314.5 50q37.5 21 63.5 56.5t33 78.5l16 92q5 23 5 40q0 59 -37 98t-95 39t-105 -35.5
t-73.5 -97.5t-26.5 -138q0 -69 38.5 -111.5t101.5 -42.5q42 0 79.5 21zM262 591l171 109l20 -35l-174 -102z" />
    <glyph glyph-name="abreve" unicode="&#x103;" 
d="M94.5 40.5q-48.5 52.5 -48.5 138.5q0 88 32 160.5t89 114t127 41.5q56 0 97.5 -29.5t56.5 -80.5l22 98h41l-85 -483h-38l9 83q-34 -46 -79 -70.5t-96 -24.5q-79 0 -127.5 52.5zM314.5 50q37.5 21 63.5 56.5t33 78.5l16 92q5 23 5 40q0 59 -37 98t-95 39t-105 -35.5
t-73.5 -97.5t-26.5 -138q0 -69 38.5 -111.5t101.5 -42.5q42 0 79.5 21zM224.5 588.5q-33.5 29.5 -33.5 77.5q0 11 2 25h34q-1 -6 -1 -17q0 -36 23.5 -57t63.5 -21q44 0 77 26t42 69h35q-10 -60 -53 -96t-103 -36q-53 0 -86.5 29.5z" />
    <glyph glyph-name="uni01CE" unicode="&#x1ce;" 
d="M94.5 40.5q-48.5 52.5 -48.5 138.5q0 88 32 160.5t89 114t127 41.5q56 0 97.5 -29.5t56.5 -80.5l22 98h41l-85 -483h-38l9 83q-34 -46 -79 -70.5t-96 -24.5q-79 0 -127.5 52.5zM314.5 50q37.5 21 63.5 56.5t33 78.5l16 92q5 23 5 40q0 59 -37 98t-95 39t-105 -35.5
t-73.5 -97.5t-26.5 -138q0 -69 38.5 -111.5t101.5 -42.5q42 0 79.5 21zM192 687l25 22l94 -105l137 106l19 -27l-142 -116h-33z" />
    <glyph glyph-name="acircumflex" unicode="&#xe2;" 
d="M94.5 40.5q-48.5 52.5 -48.5 138.5q0 88 32 160.5t89 114t127 41.5q56 0 97.5 -29.5t56.5 -80.5l22 98h41l-85 -483h-38l9 83q-34 -46 -79 -70.5t-96 -24.5q-79 0 -127.5 52.5zM314.5 50q37.5 21 63.5 56.5t33 78.5l16 92q5 23 5 40q0 59 -37 98t-95 39t-105 -35.5
t-73.5 -97.5t-26.5 -138q0 -69 38.5 -111.5t101.5 -42.5q42 0 79.5 21zM168 591l143 116h33l100 -120l-25 -22l-95 105l-136 -106z" />
    <glyph glyph-name="adieresis" unicode="&#xe4;" 
d="M94.5 40.5q-48.5 52.5 -48.5 138.5q0 88 32 160.5t89 114t127 41.5q56 0 97.5 -29.5t56.5 -80.5l22 98h41l-85 -483h-38l9 83q-34 -46 -79 -70.5t-96 -24.5q-79 0 -127.5 52.5zM314.5 50q37.5 21 63.5 56.5t33 78.5l16 92q5 23 5 40q0 59 -37 98t-95 39t-105 -35.5
t-73.5 -97.5t-26.5 -138q0 -69 38.5 -111.5t101.5 -42.5q42 0 79.5 21zM188 610.5q-8 8.5 -8 21.5q0 17 11.5 28.5t28.5 11.5q13 0 21.5 -8t8.5 -22q0 -17 -11.5 -28.5t-28.5 -11.5q-14 0 -22 8.5zM388.5 610.5q-8.5 8.5 -8.5 21.5q0 17 12 28.5t29 11.5q13 0 21.5 -8.5
t8.5 -21.5q0 -17 -11.5 -28.5t-28.5 -11.5q-14 0 -22.5 8.5z" />
    <glyph glyph-name="agrave" unicode="&#xe0;" 
d="M94.5 40.5q-48.5 52.5 -48.5 138.5q0 88 32 160.5t89 114t127 41.5q56 0 97.5 -29.5t56.5 -80.5l22 98h41l-85 -483h-38l9 83q-34 -46 -79 -70.5t-96 -24.5q-79 0 -127.5 52.5zM314.5 50q37.5 21 63.5 56.5t33 78.5l16 92q5 23 5 40q0 59 -37 98t-95 39t-105 -35.5
t-73.5 -97.5t-26.5 -138q0 -69 38.5 -111.5t101.5 -42.5q42 0 79.5 21zM191 668l24 32l151 -109l-20 -28z" />
    <glyph glyph-name="amacron" unicode="&#x101;" 
d="M94.5 40.5q-48.5 52.5 -48.5 138.5q0 88 32 160.5t89 114t127 41.5q56 0 97.5 -29.5t56.5 -80.5l22 98h41l-85 -483h-38l9 83q-34 -46 -79 -70.5t-96 -24.5q-79 0 -127.5 52.5zM314.5 50q37.5 21 63.5 56.5t33 78.5l16 92q5 23 5 40q0 59 -37 98t-95 39t-105 -35.5
t-73.5 -97.5t-26.5 -138q0 -69 38.5 -111.5t101.5 -42.5q42 0 79.5 21zM180 655h284l-7 -36h-283z" />
    <glyph glyph-name="aogonek" unicode="&#x105;" 
d="M286.5 -201q-20.5 19 -20.5 51q0 77 123 156l8 77q-33 -47 -78 -71t-97 -24q-79 0 -127.5 52.5t-48.5 138.5q0 88 32 160.5t89 114t127 41.5q56 0 97.5 -29.5t56.5 -80.5l22 98h41l-85 -483q-121 -79 -121 -143q0 -20 13 -32t34 -12q22 0 43 8l8 -31q-32 -10 -62 -10
q-34 0 -54.5 19zM315 49.5q38 20.5 63.5 56.5t32.5 79l16 92q5 23 5 40q0 59 -37 98t-95 39t-105 -35.5t-73.5 -97.5t-26.5 -138q0 -69 38.5 -111.5t101.5 -42.5q42 0 80 20.5z" />
    <glyph glyph-name="aring" unicode="&#xe5;" 
d="M94.5 40.5q-48.5 52.5 -48.5 138.5q0 88 32 160.5t89 114t127 41.5q56 0 97.5 -29.5t56.5 -80.5l22 98h41l-85 -483h-38l9 83q-34 -46 -79 -70.5t-96 -24.5q-79 0 -127.5 52.5zM314.5 50q37.5 21 63.5 56.5t33 78.5l16 92q5 23 5 40q0 59 -37 98t-95 39t-105 -35.5
t-73.5 -97.5t-26.5 -138q0 -69 38.5 -111.5t101.5 -42.5q42 0 79.5 21zM246.5 567q-22.5 22 -22.5 57q0 44 31 74.5t77 30.5q35 0 57.5 -22t22.5 -56q0 -45 -31 -75.5t-76 -30.5q-36 0 -58.5 22zM361.5 593.5q21.5 21.5 21.5 53.5q0 25 -15 40t-40 15q-31 0 -52.5 -21.5
t-21.5 -53.5q0 -25 14.5 -40t39.5 -15q32 0 53.5 21.5z" />
    <glyph glyph-name="atilde" unicode="&#xe3;" 
d="M94.5 40.5q-48.5 52.5 -48.5 138.5q0 88 32 160.5t89 114t127 41.5q56 0 97.5 -29.5t56.5 -80.5l22 98h41l-85 -483h-38l9 83q-34 -46 -79 -70.5t-96 -24.5q-79 0 -127.5 52.5zM314.5 50q37.5 21 63.5 56.5t33 78.5l16 92q5 23 5 40q0 59 -37 98t-95 39t-105 -35.5
t-73.5 -97.5t-26.5 -138q0 -69 38.5 -111.5t101.5 -42.5q42 0 79.5 21zM175 611q11 29 33 46.5t49 17.5q17 0 31 -5t37 -16q18 -9 30.5 -13.5t25.5 -4.5q16 0 29.5 10.5t20.5 28.5l32 -12q-12 -28 -34 -45.5t-49 -17.5q-17 0 -32.5 5t-34.5 15q-21 10 -32 14t-24 4
q-17 0 -30.5 -10t-20.5 -28z" />
    <glyph glyph-name="ae" unicode="&#xe6;" horiz-adv-x="848" 
d="M73 25.5q-42 37.5 -42 97.5q0 76 62 120t167 44q56 0 123 -14l10 58q3 24 3 28q0 43 -30 70t-83 27q-72 0 -156 -28l-9 37q93 30 172 30q61 0 99.5 -29.5t44.5 -81.5q32 53 83 82t115 29q80 0 129 -53t49 -138q0 -33 -9 -74h-377q-3 -15 -3 -47q1 -70 46 -113.5
t115 -43.5q71 0 147 45l18 -34q-89 -49 -171 -49q-72 0 -123 38t-66 102q-24 -63 -79.5 -101.5t-123.5 -38.5q-69 0 -111 37.5zM761 264q3 14 3 43q-1 68 -37.5 108.5t-97.5 40.5q-73 0 -128 -53t-72 -139h332zM307.5 69q48.5 44 60.5 116l9 55q-63 15 -115 15
q-84 0 -133.5 -34.5t-49.5 -92.5q0 -47 30.5 -75t82.5 -28q67 0 115.5 44z" />
    <glyph glyph-name="aeacute" unicode="&#x1fd;" horiz-adv-x="848" 
d="M73 25.5q-42 37.5 -42 97.5q0 76 62 120t167 44q56 0 123 -14l10 58q3 24 3 28q0 43 -30 70t-83 27q-72 0 -156 -28l-9 37q93 30 172 30q61 0 99.5 -29.5t44.5 -81.5q32 53 83 82t115 29q80 0 129 -53t49 -138q0 -33 -9 -74h-377q-3 -15 -3 -47q1 -70 46 -113.5
t115 -43.5q71 0 147 45l18 -34q-89 -49 -171 -49q-72 0 -123 38t-66 102q-24 -63 -79.5 -101.5t-123.5 -38.5q-69 0 -111 37.5zM761 264q3 14 3 43q-1 68 -37.5 108.5t-97.5 40.5q-73 0 -128 -53t-72 -139h332zM307.5 69q48.5 44 60.5 116l9 55q-63 15 -115 15
q-84 0 -133.5 -34.5t-49.5 -92.5q0 -47 30.5 -75t82.5 -28q67 0 115.5 44zM434 591l171 109l20 -35l-174 -102z" />
    <glyph glyph-name="b" unicode="b" 
d="M164.5 18q-41.5 30 -55.5 81l-24 -99h-40l124 704h48l-53 -301q31 44 74.5 68t95.5 24q79 0 127 -52.5t48 -138.5q0 -88 -32 -160.5t-88.5 -114t-126.5 -41.5q-56 0 -97.5 30zM361 64.5q47 35.5 73.5 97.5t26.5 138q0 69 -39 111.5t-101 42.5q-65 0 -115 -44t-62 -112
l-16 -92q-4 -28 -4 -41q0 -60 37 -98t95 -38t105 35.5z" />
    <glyph glyph-name="c" unicode="c" horiz-adv-x="478" 
d="M142 13q-45 25 -70.5 70.5t-25.5 103.5q0 86 35 156.5t96.5 111t138.5 40.5q84 0 154 -48l-24 -35q-61 42 -129 42q-63 0 -114 -34.5t-79.5 -94.5t-28.5 -134q0 -72 44 -117t113 -45q70 0 137 40l17 -35q-79 -46 -162 -46q-57 0 -102 25z" />
    <glyph glyph-name="cacute" unicode="&#x107;" horiz-adv-x="478" 
d="M142 13q-45 25 -70.5 70.5t-25.5 103.5q0 86 35 156.5t96.5 111t138.5 40.5q84 0 154 -48l-24 -35q-61 42 -129 42q-63 0 -114 -34.5t-79.5 -94.5t-28.5 -134q0 -72 44 -117t113 -45q70 0 137 40l17 -35q-79 -46 -162 -46q-57 0 -102 25zM281 591l171 109l20 -35
l-174 -102z" />
    <glyph glyph-name="ccaron" unicode="&#x10d;" horiz-adv-x="478" 
d="M142 13q-45 25 -70.5 70.5t-25.5 103.5q0 86 35 156.5t96.5 111t138.5 40.5q84 0 154 -48l-24 -35q-61 42 -129 42q-63 0 -114 -34.5t-79.5 -94.5t-28.5 -134q0 -72 44 -117t113 -45q70 0 137 40l17 -35q-79 -46 -162 -46q-57 0 -102 25zM211 687l25 22l94 -105l137 106
l19 -27l-142 -116h-33z" />
    <glyph glyph-name="ccedilla" unicode="&#xe7;" horiz-adv-x="478" 
d="M203 419.5q-51 -34.5 -79.5 -94.5t-28.5 -134q0 -72 44 -117t113 -45q70 0 137 40l17 -35q-76 -45 -156 -46l-18 -53q29 -5 45.5 -23.5t16.5 -46.5q0 -37 -29.5 -61t-75.5 -24q-41 0 -90 22l14 30q40 -19 74 -19q29 0 48 15t19 38q0 20 -17 33t-42 13h-7l27 78
q-76 9 -122.5 63t-46.5 134q0 86 35 156.5t96.5 111t138.5 40.5q84 0 154 -48l-24 -35q-61 42 -129 42q-63 0 -114 -34.5z" />
    <glyph glyph-name="ccircumflex" unicode="&#x109;" horiz-adv-x="478" 
d="M142 13q-45 25 -70.5 70.5t-25.5 103.5q0 86 35 156.5t96.5 111t138.5 40.5q84 0 154 -48l-24 -35q-61 42 -129 42q-63 0 -114 -34.5t-79.5 -94.5t-28.5 -134q0 -72 44 -117t113 -45q70 0 137 40l17 -35q-79 -46 -162 -46q-57 0 -102 25zM187 591l143 116h33l100 -120
l-25 -22l-95 105l-136 -106z" />
    <glyph glyph-name="cdotaccent" unicode="&#x10b;" horiz-adv-x="478" 
d="M142 13q-45 25 -70.5 70.5t-25.5 103.5q0 86 35 156.5t96.5 111t138.5 40.5q84 0 154 -48l-24 -35q-61 42 -129 42q-63 0 -114 -34.5t-79.5 -94.5t-28.5 -134q0 -72 44 -117t113 -45q70 0 137 40l17 -35q-79 -46 -162 -46q-57 0 -102 25zM309 609q-9 9 -9 23
q0 18 12.5 30t29.5 12q14 0 23 -9t9 -23q0 -17 -12 -29.5t-30 -12.5q-14 0 -23 9z" />
    <glyph glyph-name="d" unicode="d" 
d="M94.5 40.5q-48.5 52.5 -48.5 138.5q0 88 32 160.5t89 114t127 41.5q56 0 97 -29.5t55 -80.5l56 319h48l-124 -704h-38l9 83q-34 -46 -79 -70.5t-96 -24.5q-79 0 -127.5 52.5zM350 73q50 44 61 112l16 92q5 23 5 40q0 61 -37 99t-95 38t-105 -35.5t-73.5 -97.5t-26.5 -138
q0 -69 38.5 -111.5t101.5 -42.5q65 0 115 44z" />
    <glyph glyph-name="eth" unicode="&#xf0;" 
d="M138.5 13q-43.5 25 -68 70t-24.5 102q0 87 33.5 157t93 109.5t134.5 39.5q49 0 87.5 -22t63.5 -63q-24 137 -109 212l-141 -62l-12 30l121 53q-40 29 -79 45l14 34q62 -24 109 -61l125 56l11 -30l-109 -48q123 -117 123 -320q0 -96 -35 -170.5t-97 -115.5t-140 -41
q-57 0 -100.5 25zM354 60.5q49 34.5 77 95t28 135.5q0 72 -41.5 116.5t-109.5 44.5q-62 0 -111 -34.5t-76.5 -94.5t-27.5 -135q0 -72 41.5 -117t108.5 -45q62 0 111 34.5z" />
    <glyph glyph-name="dcaron" unicode="&#x10f;" horiz-adv-x="628" 
d="M601 566l88 163l36 -16l-93 -161zM94.5 40.5q-48.5 52.5 -48.5 138.5q0 88 32 160.5t89 114t127 41.5q56 0 97 -29.5t55 -80.5l56 319h48l-124 -704h-38l9 83q-34 -46 -79 -70.5t-96 -24.5q-79 0 -127.5 52.5zM350 73q50 44 61 112l16 92q5 23 5 40q0 61 -37 99t-95 38
t-105 -35.5t-73.5 -97.5t-26.5 -138q0 -69 38.5 -111.5t101.5 -42.5q65 0 115 44z" />
    <glyph glyph-name="dcroat" unicode="&#x111;" 
d="M94.5 40.5q-48.5 52.5 -48.5 138.5q0 88 32 160.5t89 114t127 41.5q56 0 97 -29.5t55 -80.5l34 195h-183l6 37h184l15 87h48l-16 -87h75l-7 -37h-74l-102 -580h-38l9 83q-34 -46 -79 -70.5t-96 -24.5q-79 0 -127.5 52.5zM350 73q50 44 61 112l16 92q5 23 5 40
q0 61 -37 99t-95 38t-105 -35.5t-73.5 -97.5t-26.5 -138q0 -69 38.5 -111.5t101.5 -42.5q65 0 115 44z" />
    <glyph glyph-name="e" unicode="e" horiz-adv-x="521" 
d="M143.5 13q-46.5 25 -72 70.5t-25.5 103.5q0 86 34 156.5t93.5 111t131.5 40.5q79 0 128 -52.5t49 -138.5q0 -38 -8 -74h-378q-3 -25 -2 -47q2 -70 46.5 -113.5t114.5 -43.5q71 0 147 45l17 -34q-87 -49 -170 -49q-59 0 -105.5 25zM434 264q3 21 3 43q-1 68 -38 108.5
t-98 40.5q-72 0 -127.5 -53.5t-71.5 -138.5h332z" />
    <glyph glyph-name="eacute" unicode="&#xe9;" horiz-adv-x="521" 
d="M143.5 13q-46.5 25 -72 70.5t-25.5 103.5q0 86 34 156.5t93.5 111t131.5 40.5q79 0 128 -52.5t49 -138.5q0 -38 -8 -74h-378q-3 -25 -2 -47q2 -70 46.5 -113.5t114.5 -43.5q71 0 147 45l17 -34q-87 -49 -170 -49q-59 0 -105.5 25zM434 264q3 21 3 43q-1 68 -38 108.5
t-98 40.5q-72 0 -127.5 -53.5t-71.5 -138.5h332zM283 591l171 109l20 -35l-174 -102z" />
    <glyph glyph-name="ebreve" unicode="&#x115;" horiz-adv-x="521" 
d="M143.5 13q-46.5 25 -72 70.5t-25.5 103.5q0 86 34 156.5t93.5 111t131.5 40.5q79 0 128 -52.5t49 -138.5q0 -38 -8 -74h-378q-3 -25 -2 -47q2 -70 46.5 -113.5t114.5 -43.5q71 0 147 45l17 -34q-87 -49 -170 -49q-59 0 -105.5 25zM434 264q3 21 3 43q-1 68 -38 108.5
t-98 40.5q-72 0 -127.5 -53.5t-71.5 -138.5h332zM245.5 588.5q-33.5 29.5 -33.5 77.5q0 11 2 25h34q-1 -6 -1 -17q0 -36 23.5 -57t63.5 -21q44 0 77 26t42 69h35q-10 -60 -53 -96t-103 -36q-53 0 -86.5 29.5z" />
    <glyph glyph-name="ecaron" unicode="&#x11b;" horiz-adv-x="521" 
d="M143.5 13q-46.5 25 -72 70.5t-25.5 103.5q0 86 34 156.5t93.5 111t131.5 40.5q79 0 128 -52.5t49 -138.5q0 -38 -8 -74h-378q-3 -25 -2 -47q2 -70 46.5 -113.5t114.5 -43.5q71 0 147 45l17 -34q-87 -49 -170 -49q-59 0 -105.5 25zM434 264q3 21 3 43q-1 68 -38 108.5
t-98 40.5q-72 0 -127.5 -53.5t-71.5 -138.5h332zM213 687l25 22l94 -105l137 106l19 -27l-142 -116h-33z" />
    <glyph glyph-name="ecircumflex" unicode="&#xea;" horiz-adv-x="521" 
d="M143.5 13q-46.5 25 -72 70.5t-25.5 103.5q0 86 34 156.5t93.5 111t131.5 40.5q79 0 128 -52.5t49 -138.5q0 -38 -8 -74h-378q-3 -25 -2 -47q2 -70 46.5 -113.5t114.5 -43.5q71 0 147 45l17 -34q-87 -49 -170 -49q-59 0 -105.5 25zM434 264q3 21 3 43q-1 68 -38 108.5
t-98 40.5q-72 0 -127.5 -53.5t-71.5 -138.5h332zM189 591l143 116h33l100 -120l-25 -22l-95 105l-136 -106z" />
    <glyph glyph-name="edieresis" unicode="&#xeb;" horiz-adv-x="521" 
d="M143.5 13q-46.5 25 -72 70.5t-25.5 103.5q0 86 34 156.5t93.5 111t131.5 40.5q79 0 128 -52.5t49 -138.5q0 -38 -8 -74h-378q-3 -25 -2 -47q2 -70 46.5 -113.5t114.5 -43.5q71 0 147 45l17 -34q-87 -49 -170 -49q-59 0 -105.5 25zM434 264q3 21 3 43q-1 68 -38 108.5
t-98 40.5q-72 0 -127.5 -53.5t-71.5 -138.5h332zM209 610.5q-8 8.5 -8 21.5q0 17 11.5 28.5t28.5 11.5q13 0 21.5 -8t8.5 -22q0 -17 -11.5 -28.5t-28.5 -11.5q-14 0 -22 8.5zM409.5 610.5q-8.5 8.5 -8.5 21.5q0 17 12 28.5t29 11.5q13 0 21.5 -8.5t8.5 -21.5
q0 -17 -11.5 -28.5t-28.5 -11.5q-14 0 -22.5 8.5z" />
    <glyph glyph-name="edotaccent" unicode="&#x117;" horiz-adv-x="521" 
d="M143.5 13q-46.5 25 -72 70.5t-25.5 103.5q0 86 34 156.5t93.5 111t131.5 40.5q79 0 128 -52.5t49 -138.5q0 -38 -8 -74h-378q-3 -25 -2 -47q2 -70 46.5 -113.5t114.5 -43.5q71 0 147 45l17 -34q-87 -49 -170 -49q-59 0 -105.5 25zM434 264q3 21 3 43q-1 68 -38 108.5
t-98 40.5q-72 0 -127.5 -53.5t-71.5 -138.5h332zM311 609q-9 9 -9 23q0 18 12.5 30t29.5 12q14 0 23 -9t9 -23q0 -17 -12 -29.5t-30 -12.5q-14 0 -23 9z" />
    <glyph glyph-name="egrave" unicode="&#xe8;" horiz-adv-x="521" 
d="M143.5 13q-46.5 25 -72 70.5t-25.5 103.5q0 86 34 156.5t93.5 111t131.5 40.5q79 0 128 -52.5t49 -138.5q0 -38 -8 -74h-378q-3 -25 -2 -47q2 -70 46.5 -113.5t114.5 -43.5q71 0 147 45l17 -34q-87 -49 -170 -49q-59 0 -105.5 25zM434 264q3 21 3 43q-1 68 -38 108.5
t-98 40.5q-72 0 -127.5 -53.5t-71.5 -138.5h332zM212 668l24 32l151 -109l-20 -28z" />
    <glyph glyph-name="emacron" unicode="&#x113;" horiz-adv-x="521" 
d="M143.5 13q-46.5 25 -72 70.5t-25.5 103.5q0 86 34 156.5t93.5 111t131.5 40.5q79 0 128 -52.5t49 -138.5q0 -38 -8 -74h-378q-3 -25 -2 -47q2 -70 46.5 -113.5t114.5 -43.5q71 0 147 45l17 -34q-87 -49 -170 -49q-59 0 -105.5 25zM434 264q3 21 3 43q-1 68 -38 108.5
t-98 40.5q-72 0 -127.5 -53.5t-71.5 -138.5h332zM201 655h284l-7 -36h-283z" />
    <glyph glyph-name="eogonek" unicode="&#x119;" horiz-adv-x="521" 
d="M266.5 -199q-21.5 21 -21.5 55q0 33 22.5 71t62.5 73q-40 -12 -81 -12q-59 0 -105.5 25t-72 70.5t-25.5 103.5q0 86 34 156.5t93.5 111t131.5 40.5q79 0 128 -52.5t49 -138.5q0 -38 -8 -74h-378q-3 -25 -2 -47q2 -70 46.5 -113.5t114.5 -43.5q71 0 147 45l17 -34
q-60 -38 -97 -86.5t-37 -86.5q0 -23 13 -37t35 -14q23 0 42 8l8 -31q-30 -10 -60 -10q-35 0 -56.5 21zM434 264q3 21 3 43q-1 68 -38 108.5t-98 40.5q-72 0 -127.5 -53.5t-71.5 -138.5h332z" />
    <glyph glyph-name="f" unicode="f" horiz-adv-x="361" 
d="M171 444h-107l7 39h107l20 115q10 53 47.5 85.5t91.5 32.5q42 0 100 -22l-15 -38q-48 19 -81 19q-37 0 -63 -22t-33 -60l-19 -110h148l-7 -39h-149l-77 -444h-48z" />
    <glyph glyph-name="g" unicode="g" 
d="M101.5 -208.5q-47.5 11.5 -93.5 33.5l16 38q43 -21 85.5 -32t77.5 -11q73 0 123 37.5t62 106.5l20 116q-31 -44 -75 -68t-95 -24q-79 0 -127.5 52.5t-48.5 138.5q0 88 32 160.5t89 114t127 41.5q56 0 97.5 -30t55.5 -81l23 99h41l-91 -519q-16 -87 -77.5 -135.5
t-153.5 -48.5q-40 0 -87.5 11.5zM350.5 72.5q49.5 43.5 60.5 112.5l16 92q5 23 5 40q0 61 -37 99t-95 38t-105 -35.5t-73.5 -97.5t-26.5 -138q0 -69 38.5 -111.5t101.5 -42.5q66 0 115.5 43.5z" />
    <glyph glyph-name="gbreve" unicode="&#x11f;" 
d="M101.5 -208.5q-47.5 11.5 -93.5 33.5l16 38q43 -21 85.5 -32t77.5 -11q73 0 123 37.5t62 106.5l20 116q-31 -44 -75 -68t-95 -24q-79 0 -127.5 52.5t-48.5 138.5q0 88 32 160.5t89 114t127 41.5q56 0 97.5 -30t55.5 -81l23 99h41l-91 -519q-16 -87 -77.5 -135.5
t-153.5 -48.5q-40 0 -87.5 11.5zM350.5 72.5q49.5 43.5 60.5 112.5l16 92q5 23 5 40q0 61 -37 99t-95 38t-105 -35.5t-73.5 -97.5t-26.5 -138q0 -69 38.5 -111.5t101.5 -42.5q66 0 115.5 43.5zM250.5 588.5q-33.5 29.5 -33.5 77.5q0 11 2 25h34q-1 -6 -1 -17q0 -36 23.5 -57
t63.5 -21q44 0 77 26t42 69h35q-10 -60 -53 -96t-103 -36q-53 0 -86.5 29.5z" />
    <glyph glyph-name="gcircumflex" unicode="&#x11d;" 
d="M101.5 -208.5q-47.5 11.5 -93.5 33.5l16 38q43 -21 85.5 -32t77.5 -11q73 0 123 37.5t62 106.5l20 116q-31 -44 -75 -68t-95 -24q-79 0 -127.5 52.5t-48.5 138.5q0 88 32 160.5t89 114t127 41.5q56 0 97.5 -30t55.5 -81l23 99h41l-91 -519q-16 -87 -77.5 -135.5
t-153.5 -48.5q-40 0 -87.5 11.5zM350.5 72.5q49.5 43.5 60.5 112.5l16 92q5 23 5 40q0 61 -37 99t-95 38t-105 -35.5t-73.5 -97.5t-26.5 -138q0 -69 38.5 -111.5t101.5 -42.5q66 0 115.5 43.5zM194 591l143 116h33l100 -120l-25 -22l-95 105l-136 -106z" />
    <glyph glyph-name="gcommaaccent" unicode="&#x123;" 
d="M310.5 579.5q-9.5 11.5 -9.5 31.5q0 41 30.5 83t80.5 71l14 -21q-74 -48 -84 -110q14 2 24 -5.5t10 -20.5q0 -17 -12 -28.5t-29 -11.5q-15 0 -24.5 11.5zM101.5 -208.5q-47.5 11.5 -93.5 33.5l16 38q43 -21 85.5 -32t77.5 -11q73 0 123 37.5t62 106.5l20 116
q-31 -44 -75 -68t-95 -24q-79 0 -127.5 52.5t-48.5 138.5q0 88 32 160.5t89 114t127 41.5q56 0 97.5 -30t55.5 -81l23 99h41l-91 -519q-16 -87 -77.5 -135.5t-153.5 -48.5q-40 0 -87.5 11.5zM350.5 72.5q49.5 43.5 60.5 112.5l16 92q5 23 5 40q0 61 -37 99t-95 38
t-105 -35.5t-73.5 -97.5t-26.5 -138q0 -69 38.5 -111.5t101.5 -42.5q66 0 115.5 43.5z" />
    <glyph glyph-name="gdotaccent" unicode="&#x121;" 
d="M101.5 -208.5q-47.5 11.5 -93.5 33.5l16 38q43 -21 85.5 -32t77.5 -11q73 0 123 37.5t62 106.5l20 116q-31 -44 -75 -68t-95 -24q-79 0 -127.5 52.5t-48.5 138.5q0 88 32 160.5t89 114t127 41.5q56 0 97.5 -30t55.5 -81l23 99h41l-91 -519q-16 -87 -77.5 -135.5
t-153.5 -48.5q-40 0 -87.5 11.5zM350.5 72.5q49.5 43.5 60.5 112.5l16 92q5 23 5 40q0 61 -37 99t-95 38t-105 -35.5t-73.5 -97.5t-26.5 -138q0 -69 38.5 -111.5t101.5 -42.5q66 0 115.5 43.5zM316 609q-9 9 -9 23q0 18 12.5 30t29.5 12q14 0 23 -9t9 -23q0 -17 -12 -29.5
t-30 -12.5q-14 0 -23 9z" />
    <glyph glyph-name="h" unicode="h" 
d="M169 704h48l-55 -311q29 47 76.5 74.5t100.5 27.5q68 0 110.5 -40t42.5 -104q0 -23 -5 -53l-53 -298h-48l53 296q5 25 5 46q0 51 -33 81.5t-86 30.5q-67 0 -118 -47.5t-64 -121.5l-50 -285h-48z" />
    <glyph glyph-name="hbar" unicode="&#x127;" 
d="M147 580h-74l6 37h74l16 87h48l-16 -87h184l-7 -37h-183l-33 -187q29 47 76.5 74.5t100.5 27.5q68 0 110.5 -40t42.5 -104q0 -23 -5 -53l-53 -298h-48l52 296q5 25 5 46q0 51 -32.5 81.5t-85.5 30.5q-67 0 -118 -47.5t-64 -121.5l-50 -285h-48z" />
    <glyph glyph-name="hcircumflex" unicode="&#x125;" 
d="M169 704h48l-55 -311q29 47 76.5 74.5t100.5 27.5q68 0 110.5 -40t42.5 -104q0 -23 -5 -53l-53 -298h-48l53 296q5 25 5 46q0 51 -33 81.5t-86 30.5q-67 0 -118 -47.5t-64 -121.5l-50 -285h-48zM57 764l143 116h33l100 -120l-25 -22l-95 105l-136 -106z" />
    <glyph glyph-name="i" unicode="i" horiz-adv-x="222" 
d="M150 609q-9 9 -9 23q0 18 12.5 30.5t30.5 12.5q14 0 23 -9.5t9 -23.5q0 -18 -12.5 -30t-30.5 -12q-14 0 -23 9zM130 483h48l-85 -483h-48z" />
    <glyph glyph-name="dotlessi" unicode="&#x131;" horiz-adv-x="222" 
d="M130 483h48l-85 -483h-48z" />
    <glyph glyph-name="iacute" unicode="&#xed;" horiz-adv-x="222" 
d="M130 483h48l-85 -483h-48zM122 591l171 109l20 -35l-174 -102z" />
    <glyph glyph-name="ibreve" unicode="&#x12d;" horiz-adv-x="222" 
d="M130 483h48l-85 -483h-48zM84.5 588.5q-33.5 29.5 -33.5 77.5q0 11 2 25h34q-1 -6 -1 -17q0 -36 23.5 -57t63.5 -21q44 0 77 26t42 69h35q-10 -60 -53 -96t-103 -36q-53 0 -86.5 29.5z" />
    <glyph glyph-name="icircumflex" unicode="&#xee;" horiz-adv-x="222" 
d="M130 483h48l-85 -483h-48zM28 591l143 116h33l100 -120l-25 -22l-95 105l-136 -106z" />
    <glyph glyph-name="idieresis" unicode="&#xef;" horiz-adv-x="222" 
d="M130 483h48l-85 -483h-48zM48 610.5q-8 8.5 -8 21.5q0 17 11.5 28.5t28.5 11.5q13 0 21.5 -8t8.5 -22q0 -17 -11.5 -28.5t-28.5 -11.5q-14 0 -22 8.5zM248.5 610.5q-8.5 8.5 -8.5 21.5q0 17 12 28.5t29 11.5q13 0 21.5 -8.5t8.5 -21.5q0 -17 -11.5 -28.5t-28.5 -11.5
q-14 0 -22.5 8.5z" />
    <glyph glyph-name="i.loclTRK" horiz-adv-x="222" 
d="M130 483h48l-85 -483h-48zM150 609q-9 9 -9 23q0 18 12.5 30t29.5 12q14 0 23 -9t9 -23q0 -17 -12 -29.5t-30 -12.5q-14 0 -23 9z" />
    <glyph glyph-name="igrave" unicode="&#xec;" horiz-adv-x="222" 
d="M130 483h48l-85 -483h-48zM51 668l24 32l151 -109l-20 -28z" />
    <glyph glyph-name="ij" unicode="&#x133;" horiz-adv-x="452" 
d="M150 609q-9 9 -9 23q0 18 12.5 30.5t30.5 12.5q14 0 23 -9.5t9 -23.5q0 -18 -12.5 -30t-30.5 -12q-14 0 -23 9zM130 483h48l-85 -483h-48zM380 609q-9 9 -9 23q0 18 12.5 30.5t30.5 12.5q14 0 23 -9.5t9 -23.5q0 -18 -12.5 -30t-30.5 -12q-14 0 -23 9zM66 -199l15 37
q51 -17 81 -17q37 0 63 22t33 60l102 580h48l-103 -585q-10 -53 -47.5 -85.5t-91.5 -32.5q-42 0 -100 21z" />
    <glyph glyph-name="imacron" unicode="&#x12b;" horiz-adv-x="222" 
d="M130 483h48l-85 -483h-48zM40 655h284l-7 -36h-283z" />
    <glyph glyph-name="iogonek" unicode="&#x12f;" horiz-adv-x="222" 
d="M150 609q-9 9 -9 23q0 18 12.5 30.5t30.5 12.5q14 0 23 -9.5t9 -23.5q0 -18 -12.5 -30t-30.5 -12q-14 0 -23 9zM-46.5 -201q-20.5 19 -20.5 51q0 36 29 75t83 75l85 483h48l-85 -483q-58 -38 -89.5 -75t-31.5 -68q0 -20 13 -32t34 -12q22 0 43 8l8 -31q-32 -10 -62 -10
q-34 0 -54.5 19z" />
    <glyph glyph-name="itilde" unicode="&#x129;" horiz-adv-x="222" 
d="M130 483h48l-85 -483h-48zM35 611q11 29 33 46.5t49 17.5q17 0 31 -5t37 -16q18 -9 30.5 -13.5t25.5 -4.5q16 0 29.5 10.5t20.5 28.5l32 -12q-12 -28 -34 -45.5t-49 -17.5q-17 0 -32.5 5t-34.5 15q-21 10 -32 14t-24 4q-17 0 -30.5 -10t-20.5 -28z" />
    <glyph glyph-name="j" unicode="j" horiz-adv-x="230" 
d="M158 609q-9 9 -9 23q0 18 12.5 30.5t30.5 12.5q14 0 23 -9.5t9 -23.5q0 -18 -12.5 -30t-30.5 -12q-14 0 -23 9zM-156 -199l15 37q51 -17 81 -17q37 0 63 22t33 60l102 580h48l-103 -585q-10 -53 -47.5 -85.5t-91.5 -32.5q-42 0 -100 21z" />
    <glyph glyph-name="uni0237" unicode="&#x237;" horiz-adv-x="230" 
d="M-156 -199l15 37q51 -17 81 -17q37 0 63 22t33 60l102 580h48l-103 -585q-10 -53 -47.5 -85.5t-91.5 -32.5q-42 0 -100 21z" />
    <glyph glyph-name="jacute" horiz-adv-x="230" 
d="M-156 -199l15 37q51 -17 81 -17q37 0 63 22t33 60l102 580h48l-103 -585q-10 -53 -47.5 -85.5t-91.5 -32.5q-42 0 -100 21zM130 591l171 109l20 -35l-174 -102z" />
    <glyph glyph-name="jcircumflex" unicode="&#x135;" horiz-adv-x="230" 
d="M-156 -199l15 37q51 -17 81 -17q37 0 63 22t33 60l102 580h48l-103 -585q-10 -53 -47.5 -85.5t-91.5 -32.5q-42 0 -100 21zM36 591l143 116h33l100 -120l-25 -22l-95 105l-136 -106z" />
    <glyph glyph-name="k" unicode="k" horiz-adv-x="486" 
d="M169 704h46l-83 -476l295 255h60l-262 -226l184 -257h-54l-164 230l-69 -60l-31 -170h-46z" />
    <glyph glyph-name="kcommaaccent" unicode="&#x137;" horiz-adv-x="486" 
d="M169 704h46l-83 -476l295 255h60l-262 -226l184 -257h-54l-164 230l-69 -60l-31 -170h-46zM95 -261q74 48 84 110q-14 -3 -24 4.5t-10 21.5q0 17 12 28.5t29 11.5q15 0 24 -11.5t9 -31.5q0 -41 -30 -83t-80 -71z" />
    <glyph glyph-name="kgreenlandic" unicode="&#x138;" horiz-adv-x="486" 
d="M130 483h46l-44 -255l295 255h60l-262 -226l184 -257h-54l-164 230l-69 -60l-31 -170h-46z" />
    <glyph glyph-name="l" unicode="l" horiz-adv-x="270" 
d="M84.5 11q-25.5 23 -25.5 61q0 16 3 32l107 600h48l-106 -598q-3 -15 -3 -27q0 -24 15 -37t41 -13q11 0 41 5l4 -39q-33 -7 -57 -7q-42 0 -67.5 23z" />
    <glyph glyph-name="lacute" unicode="&#x13a;" horiz-adv-x="270" 
d="M84.5 11q-25.5 23 -25.5 61q0 16 3 32l107 600h48l-106 -598q-3 -15 -3 -27q0 -24 15 -37t41 -13q11 0 41 5l4 -39q-33 -7 -57 -7q-42 0 -67.5 23zM162 812l171 109l20 -35l-174 -102z" />
    <glyph glyph-name="lcaron" unicode="&#x13e;" horiz-adv-x="268" 
d="M276 566l88 163l36 -16l-93 -161zM84.5 11q-25.5 23 -25.5 61q0 16 3 32l107 600h48l-106 -598q-3 -15 -3 -27q0 -24 15 -37t41 -13q11 0 41 5l4 -39q-33 -7 -57 -7q-42 0 -67.5 23z" />
    <glyph glyph-name="lcommaaccent" unicode="&#x13c;" horiz-adv-x="270" 
d="M84.5 11q-25.5 23 -25.5 61q0 16 3 32l107 600h48l-106 -598q-3 -15 -3 -27q0 -24 15 -37t41 -13q11 0 41 5l4 -39q-33 -7 -57 -7q-42 0 -67.5 23zM16 -261q74 48 84 110q-14 -3 -24 4.5t-10 21.5q0 17 12 28.5t29 11.5q15 0 24 -11.5t9 -31.5q0 -41 -30 -83t-80 -71z
" />
    <glyph glyph-name="ldot" unicode="&#x140;" horiz-adv-x="317" 
d="M259 316q-9 9 -9 23q0 18 12.5 30t29.5 12q14 0 23 -9t9 -23q0 -17 -12 -29.5t-30 -12.5q-14 0 -23 9zM84.5 11q-25.5 23 -25.5 61q0 16 3 32l107 600h48l-106 -598q-3 -15 -3 -27q0 -24 15 -37t41 -13q11 0 41 5l4 -39q-33 -7 -57 -7q-42 0 -67.5 23z" />
    <glyph glyph-name="lslash" unicode="&#x142;" horiz-adv-x="302" 
d="M92.5 11q-25.5 23 -25.5 61q0 16 3 32l40 219l-103 -48l-13 34l123 57l60 338h48l-57 -315l121 56l13 -34l-141 -65l-42 -240q-3 -15 -3 -27q0 -24 15 -37t41 -13q11 0 41 5l4 -39q-33 -7 -57 -7q-42 0 -67.5 23z" />
    <glyph glyph-name="m" unicode="m" horiz-adv-x="865" 
d="M130 483h37l-10 -90q32 49 77 75.5t97 26.5q57 0 95.5 -31.5t45.5 -82.5q31 53 80 83.5t104 30.5q65 0 105.5 -38t40.5 -99q0 -27 -4 -48l-55 -310h-48l54 308q4 19 4 42q0 47 -30.5 75.5t-80.5 28.5q-63 0 -111.5 -46t-61.5 -118l-51 -290h-48l54 308q4 19 4 42
q0 47 -30.5 75.5t-80.5 28.5q-63 0 -111.5 -46t-61.5 -118l-51 -290h-48z" />
    <glyph glyph-name="n" unicode="n" 
d="M130 483h37l-10 -94q30 49 79 77.5t103 28.5q68 0 110.5 -40t42.5 -104q0 -23 -5 -53l-53 -298h-48l53 296q5 25 5 46q0 51 -33 81.5t-86 30.5q-67 0 -118 -47.5t-64 -121.5l-50 -285h-48z" />
    <glyph glyph-name="nacute" unicode="&#x144;" 
d="M130 483h37l-10 -94q30 49 79 77.5t103 28.5q68 0 110.5 -40t42.5 -104q0 -23 -5 -53l-53 -298h-48l53 296q5 25 5 46q0 51 -33 81.5t-86 30.5q-67 0 -118 -47.5t-64 -121.5l-50 -285h-48zM299 591l171 109l20 -35l-174 -102z" />
    <glyph glyph-name="ncaron" unicode="&#x148;" 
d="M130 483h37l-10 -94q30 49 79 77.5t103 28.5q68 0 110.5 -40t42.5 -104q0 -23 -5 -53l-53 -298h-48l53 296q5 25 5 46q0 51 -33 81.5t-86 30.5q-67 0 -118 -47.5t-64 -121.5l-50 -285h-48zM229 687l25 22l94 -105l137 106l19 -27l-142 -116h-33z" />
    <glyph glyph-name="ncommaaccent" unicode="&#x146;" 
d="M130 483h37l-10 -94q30 49 79 77.5t103 28.5q68 0 110.5 -40t42.5 -104q0 -23 -5 -53l-53 -298h-48l53 296q5 25 5 46q0 51 -33 81.5t-86 30.5q-67 0 -118 -47.5t-64 -121.5l-50 -285h-48zM134 -261q74 48 84 110q-14 -3 -24 4.5t-10 21.5q0 17 12 28.5t29 11.5
q15 0 24 -11.5t9 -31.5q0 -41 -30 -83t-80 -71z" />
    <glyph glyph-name="eng" unicode="&#x14b;" 
d="M177 -199l15 37q51 -17 81 -17q37 0 63 22t33 60l69 393q5 25 5 46q0 51 -32.5 81.5t-85.5 30.5q-67 0 -118 -47.5t-64 -121.5l-50 -285h-48l85 483h37l-10 -94q30 49 79 77.5t103 28.5q68 0 110.5 -40t42.5 -104q0 -23 -5 -53l-71 -400q-10 -53 -47.5 -85.5t-91.5 -32.5
q-40 0 -100 21z" />
    <glyph glyph-name="ntilde" unicode="&#xf1;" 
d="M130 483h37l-10 -94q30 49 79 77.5t103 28.5q68 0 110.5 -40t42.5 -104q0 -23 -5 -53l-53 -298h-48l53 296q5 25 5 46q0 51 -33 81.5t-86 30.5q-67 0 -118 -47.5t-64 -121.5l-50 -285h-48zM212 611q11 29 33 46.5t49 17.5q17 0 31 -5t37 -16q18 -9 30.5 -13.5t25.5 -4.5
q16 0 29.5 10.5t20.5 28.5l32 -12q-12 -28 -34 -45.5t-49 -17.5q-17 0 -32.5 5t-34.5 15q-21 10 -32 14t-24 4q-17 0 -30.5 -10t-20.5 -28z" />
    <glyph glyph-name="o" unicode="o" 
d="M139.5 13q-44.5 25 -69 70.5t-24.5 103.5q0 87 34.5 157.5t96 110.5t137.5 40q57 0 101.5 -25t69 -70.5t24.5 -103.5q0 -87 -34.5 -157.5t-95.5 -110.5t-137 -40q-58 0 -102.5 25zM356 62.5q49 34.5 77 95t28 135.5q0 73 -41.5 117.5t-109.5 44.5q-61 0 -110 -34.5
t-77 -95t-28 -135.5q0 -73 41.5 -117.5t108.5 -44.5q62 0 111 34.5z" />
    <glyph glyph-name="oacute" unicode="&#xf3;" 
d="M139.5 13q-44.5 25 -69 70.5t-24.5 103.5q0 87 34.5 157.5t96 110.5t137.5 40q57 0 101.5 -25t69 -70.5t24.5 -103.5q0 -87 -34.5 -157.5t-95.5 -110.5t-137 -40q-58 0 -102.5 25zM356 62.5q49 34.5 77 95t28 135.5q0 73 -41.5 117.5t-109.5 44.5q-61 0 -110 -34.5
t-77 -95t-28 -135.5q0 -73 41.5 -117.5t108.5 -44.5q62 0 111 34.5zM288 591l171 109l20 -35l-174 -102z" />
    <glyph glyph-name="obreve" unicode="&#x14f;" 
d="M139.5 13q-44.5 25 -69 70.5t-24.5 103.5q0 87 34.5 157.5t96 110.5t137.5 40q57 0 101.5 -25t69 -70.5t24.5 -103.5q0 -87 -34.5 -157.5t-95.5 -110.5t-137 -40q-58 0 -102.5 25zM356 62.5q49 34.5 77 95t28 135.5q0 73 -41.5 117.5t-109.5 44.5q-61 0 -110 -34.5
t-77 -95t-28 -135.5q0 -73 41.5 -117.5t108.5 -44.5q62 0 111 34.5zM250.5 588.5q-33.5 29.5 -33.5 77.5q0 11 2 25h34q-1 -6 -1 -17q0 -36 23.5 -57t63.5 -21q44 0 77 26t42 69h35q-10 -60 -53 -96t-103 -36q-53 0 -86.5 29.5z" />
    <glyph glyph-name="ocircumflex" unicode="&#xf4;" 
d="M139.5 13q-44.5 25 -69 70.5t-24.5 103.5q0 87 34.5 157.5t96 110.5t137.5 40q57 0 101.5 -25t69 -70.5t24.5 -103.5q0 -87 -34.5 -157.5t-95.5 -110.5t-137 -40q-58 0 -102.5 25zM356 62.5q49 34.5 77 95t28 135.5q0 73 -41.5 117.5t-109.5 44.5q-61 0 -110 -34.5
t-77 -95t-28 -135.5q0 -73 41.5 -117.5t108.5 -44.5q62 0 111 34.5zM194 591l143 116h33l100 -120l-25 -22l-95 105l-136 -106z" />
    <glyph glyph-name="odieresis" unicode="&#xf6;" 
d="M139.5 13q-44.5 25 -69 70.5t-24.5 103.5q0 87 34.5 157.5t96 110.5t137.5 40q57 0 101.5 -25t69 -70.5t24.5 -103.5q0 -87 -34.5 -157.5t-95.5 -110.5t-137 -40q-58 0 -102.5 25zM356 62.5q49 34.5 77 95t28 135.5q0 73 -41.5 117.5t-109.5 44.5q-61 0 -110 -34.5
t-77 -95t-28 -135.5q0 -73 41.5 -117.5t108.5 -44.5q62 0 111 34.5zM214 610.5q-8 8.5 -8 21.5q0 17 11.5 28.5t28.5 11.5q13 0 21.5 -8t8.5 -22q0 -17 -11.5 -28.5t-28.5 -11.5q-14 0 -22 8.5zM414.5 610.5q-8.5 8.5 -8.5 21.5q0 17 12 28.5t29 11.5q13 0 21.5 -8.5
t8.5 -21.5q0 -17 -11.5 -28.5t-28.5 -11.5q-14 0 -22.5 8.5z" />
    <glyph glyph-name="ograve" unicode="&#xf2;" 
d="M139.5 13q-44.5 25 -69 70.5t-24.5 103.5q0 87 34.5 157.5t96 110.5t137.5 40q57 0 101.5 -25t69 -70.5t24.5 -103.5q0 -87 -34.5 -157.5t-95.5 -110.5t-137 -40q-58 0 -102.5 25zM356 62.5q49 34.5 77 95t28 135.5q0 73 -41.5 117.5t-109.5 44.5q-61 0 -110 -34.5
t-77 -95t-28 -135.5q0 -73 41.5 -117.5t108.5 -44.5q62 0 111 34.5zM217 668l24 32l151 -109l-20 -28z" />
    <glyph glyph-name="ohungarumlaut" unicode="&#x151;" 
d="M139.5 13q-44.5 25 -69 70.5t-24.5 103.5q0 87 34.5 157.5t96 110.5t137.5 40q57 0 101.5 -25t69 -70.5t24.5 -103.5q0 -87 -34.5 -157.5t-95.5 -110.5t-137 -40q-58 0 -102.5 25zM356 62.5q49 34.5 77 95t28 135.5q0 73 -41.5 117.5t-109.5 44.5q-61 0 -110 -34.5
t-77 -95t-28 -135.5q0 -73 41.5 -117.5t108.5 -44.5q62 0 111 34.5zM212 589l152 134l26 -31l-156 -130zM390 589l152 134l26 -31l-156 -130z" />
    <glyph glyph-name="omacron" unicode="&#x14d;" 
d="M139.5 13q-44.5 25 -69 70.5t-24.5 103.5q0 87 34.5 157.5t96 110.5t137.5 40q57 0 101.5 -25t69 -70.5t24.5 -103.5q0 -87 -34.5 -157.5t-95.5 -110.5t-137 -40q-58 0 -102.5 25zM356 62.5q49 34.5 77 95t28 135.5q0 73 -41.5 117.5t-109.5 44.5q-61 0 -110 -34.5
t-77 -95t-28 -135.5q0 -73 41.5 -117.5t108.5 -44.5q62 0 111 34.5zM206 655h284l-7 -36h-283z" />
    <glyph glyph-name="oslash" unicode="&#xf8;" 
d="M110 38l-38 -42h-41l56 61q-41 54 -41 130q0 87 34.5 157.5t96 110.5t137.5 40q78 0 131 -50l39 42h41l-58 -62q42 -53 42 -129q0 -87 -34.5 -157.5t-95.5 -110.5t-137 -40q-80 0 -132 50zM416 413q-40 43 -106 43q-62 0 -112 -34.5t-78 -95t-28 -136.5q0 -57 28 -97z
M357.5 60.5q49.5 34.5 78 95.5t28.5 137q0 55 -29 97l-296 -321q40 -43 106 -43q63 0 112.5 34.5z" />
    <glyph glyph-name="oslashacute" unicode="&#x1ff;" 
d="M110 38l-38 -42h-41l56 61q-41 54 -41 130q0 87 34.5 157.5t96 110.5t137.5 40q78 0 131 -50l39 42h41l-58 -62q42 -53 42 -129q0 -87 -34.5 -157.5t-95.5 -110.5t-137 -40q-80 0 -132 50zM416 413q-40 43 -106 43q-62 0 -112 -34.5t-78 -95t-28 -136.5q0 -57 28 -97z
M357.5 60.5q49.5 34.5 78 95.5t28.5 137q0 55 -29 97l-296 -321q40 -43 106 -43q63 0 112.5 34.5zM288 591l171 109l20 -35l-174 -102z" />
    <glyph glyph-name="otilde" unicode="&#xf5;" 
d="M139.5 13q-44.5 25 -69 70.5t-24.5 103.5q0 87 34.5 157.5t96 110.5t137.5 40q57 0 101.5 -25t69 -70.5t24.5 -103.5q0 -87 -34.5 -157.5t-95.5 -110.5t-137 -40q-58 0 -102.5 25zM356 62.5q49 34.5 77 95t28 135.5q0 73 -41.5 117.5t-109.5 44.5q-61 0 -110 -34.5
t-77 -95t-28 -135.5q0 -73 41.5 -117.5t108.5 -44.5q62 0 111 34.5zM201 611q11 29 33 46.5t49 17.5q17 0 31 -5t37 -16q18 -9 30.5 -13.5t25.5 -4.5q16 0 29.5 10.5t20.5 28.5l32 -12q-12 -28 -34 -45.5t-49 -17.5q-17 0 -32.5 5t-34.5 15q-21 10 -32 14t-24 4
q-17 0 -30.5 -10t-20.5 -28z" />
    <glyph glyph-name="oe" unicode="&#x153;" horiz-adv-x="928" 
d="M139.5 13q-44.5 25 -69 70.5t-24.5 103.5q0 87 34.5 157.5t96 110.5t137.5 40q72 0 121 -42t60 -111q31 70 89 111.5t128 41.5q52 0 92.5 -24t63 -67.5t22.5 -99.5q0 -33 -9 -74h-377q-3 -15 -3 -47q1 -70 46 -113.5t115 -43.5q71 0 147 45l18 -34q-89 -49 -171 -49
q-75 0 -126 42t-63 111q-32 -71 -91 -112t-134 -41q-58 0 -102.5 25zM841 264q3 14 3 43q-1 68 -37.5 108.5t-97.5 40.5q-73 0 -128 -53t-72 -139h332zM356 62.5q49 34.5 77 95t28 135.5q0 73 -41.5 117.5t-109.5 44.5q-61 0 -110 -34.5t-77 -95t-28 -135.5
q0 -73 41.5 -117.5t108.5 -44.5q62 0 111 34.5z" />
    <glyph glyph-name="p" unicode="p" 
d="M130 483h37l-8 -83q33 46 78 70.5t97 24.5q79 0 127 -52.5t48 -138.5q0 -88 -32 -160.5t-88.5 -114t-126.5 -41.5q-56 0 -97.5 29.5t-55.5 80.5l-53 -306h-48zM361 64.5q47 35.5 73.5 97.5t26.5 138q0 69 -39 111.5t-101 42.5q-65 0 -115 -44t-62 -112l-16 -92
q-4 -28 -4 -41q0 -60 37 -98t95 -38t105 35.5z" />
    <glyph glyph-name="thorn" unicode="&#xfe;" 
d="M169 704h46l-51 -301q31 44 75.5 68t94.5 24q79 0 127 -52.5t48 -138.5q0 -88 -32 -160.5t-88.5 -114t-126.5 -41.5q-56 0 -97.5 29.5t-55.5 80.5l-53 -306h-48zM361 64.5q47 35.5 73.5 97.5t26.5 138q0 69 -39 111.5t-101 42.5q-65 0 -115 -44t-62 -112l-16 -92
q-4 -28 -4 -41q0 -60 37 -98t95 -38t105 35.5z" />
    <glyph glyph-name="q" unicode="q" 
d="M392 80q-31 -44 -75 -68t-95 -24q-79 0 -127.5 52.5t-48.5 138.5q0 88 32 160.5t89 114t127 41.5q56 0 97.5 -30t55.5 -81l23 99h41l-122 -691h-48zM350.5 72.5q49.5 43.5 60.5 112.5l16 92q5 23 5 40q0 61 -37 99t-95 38t-105 -35.5t-73.5 -97.5t-26.5 -138
q0 -69 38.5 -111.5t101.5 -42.5q66 0 115.5 43.5z" />
    <glyph glyph-name="r" unicode="r" horiz-adv-x="372" 
d="M130 483h37l-10 -89q28 47 70 72t93 25q38 0 71 -13l-14 -40q-30 12 -64 12q-65 0 -111.5 -45t-59.5 -121l-49 -284h-48z" />
    <glyph glyph-name="racute" unicode="&#x155;" horiz-adv-x="372" 
d="M130 483h37l-10 -89q28 47 70 72t93 25q38 0 71 -13l-14 -40q-30 12 -64 12q-65 0 -111.5 -45t-59.5 -121l-49 -284h-48zM215 591l171 109l20 -35l-174 -102z" />
    <glyph glyph-name="rcaron" unicode="&#x159;" horiz-adv-x="372" 
d="M130 483h37l-10 -89q28 47 70 72t93 25q38 0 71 -13l-14 -40q-30 12 -64 12q-65 0 -111.5 -45t-59.5 -121l-49 -284h-48zM145 687l25 22l94 -105l137 106l19 -27l-142 -116h-33z" />
    <glyph glyph-name="rcommaaccent" unicode="&#x157;" horiz-adv-x="372" 
d="M130 483h37l-10 -89q28 47 70 72t93 25q38 0 71 -13l-14 -40q-30 12 -64 12q-65 0 -111.5 -45t-59.5 -121l-49 -284h-48zM-37 -261q74 48 84 110q-14 -3 -24 4.5t-10 21.5q0 17 12 28.5t29 11.5q15 0 24 -11.5t9 -31.5q0 -41 -30 -83t-80 -71z" />
    <glyph glyph-name="s" unicode="s" horiz-adv-x="433" 
d="M103.5 0q-47.5 12 -90.5 33l18 36q87 -42 161 -42q54 0 87 27.5t33 72.5q0 26 -14.5 44.5t-35.5 30t-58 26.5q-42 18 -67 32t-42.5 38t-17.5 60q0 39 20.5 70t57.5 49t84 18q78 0 164 -39l-18 -37q-76 37 -145 37q-52 0 -84 -27t-32 -69q0 -36 26 -56t80 -41
q43 -18 68 -32.5t43 -39t18 -62.5q0 -62 -46 -101.5t-120 -39.5q-42 0 -89.5 12z" />
    <glyph glyph-name="sacute" unicode="&#x15b;" horiz-adv-x="433" 
d="M103.5 0q-47.5 12 -90.5 33l18 36q87 -42 161 -42q54 0 87 27.5t33 72.5q0 26 -14.5 44.5t-35.5 30t-58 26.5q-42 18 -67 32t-42.5 38t-17.5 60q0 39 20.5 70t57.5 49t84 18q78 0 164 -39l-18 -37q-76 37 -145 37q-52 0 -84 -27t-32 -69q0 -36 26 -56t80 -41
q43 -18 68 -32.5t43 -39t18 -62.5q0 -62 -46 -101.5t-120 -39.5q-42 0 -89.5 12zM219 591l171 109l20 -35l-174 -102z" />
    <glyph glyph-name="scaron" unicode="&#x161;" horiz-adv-x="433" 
d="M103.5 0q-47.5 12 -90.5 33l18 36q87 -42 161 -42q54 0 87 27.5t33 72.5q0 26 -14.5 44.5t-35.5 30t-58 26.5q-42 18 -67 32t-42.5 38t-17.5 60q0 39 20.5 70t57.5 49t84 18q78 0 164 -39l-18 -37q-76 37 -145 37q-52 0 -84 -27t-32 -69q0 -36 26 -56t80 -41
q43 -18 68 -32.5t43 -39t18 -62.5q0 -62 -46 -101.5t-120 -39.5q-42 0 -89.5 12zM149 687l25 22l94 -105l137 106l19 -27l-142 -116h-33z" />
    <glyph glyph-name="scedilla" unicode="&#x15f;" horiz-adv-x="433" 
d="M156 429q-32 -27 -32 -69q0 -36 26 -56t80 -41q43 -18 68 -32.5t43 -39t18 -62.5q0 -61 -44.5 -100.5t-116.5 -40.5l-18 -53q29 -5 45.5 -23.5t16.5 -46.5q0 -37 -29.5 -61t-75.5 -24q-41 0 -90 22l14 30q40 -19 74 -19q29 0 48 15t19 38q0 20 -17 33t-42 13h-7l26 78
q-76 6 -149 43l18 36q87 -42 161 -42q54 0 87 27.5t33 72.5q0 26 -14.5 44.5t-35.5 30t-58 26.5q-42 18 -67 32t-42.5 38t-17.5 60q0 39 20.5 70t57.5 49t84 18q78 0 164 -39l-18 -37q-76 37 -145 37q-52 0 -84 -27z" />
    <glyph glyph-name="scircumflex" unicode="&#x15d;" horiz-adv-x="433" 
d="M103.5 0q-47.5 12 -90.5 33l18 36q87 -42 161 -42q54 0 87 27.5t33 72.5q0 26 -14.5 44.5t-35.5 30t-58 26.5q-42 18 -67 32t-42.5 38t-17.5 60q0 39 20.5 70t57.5 49t84 18q78 0 164 -39l-18 -37q-76 37 -145 37q-52 0 -84 -27t-32 -69q0 -36 26 -56t80 -41
q43 -18 68 -32.5t43 -39t18 -62.5q0 -62 -46 -101.5t-120 -39.5q-42 0 -89.5 12zM125 591l143 116h33l100 -120l-25 -22l-95 105l-136 -106z" />
    <glyph glyph-name="scommaaccent" unicode="&#x219;" horiz-adv-x="433" 
d="M103.5 0q-47.5 12 -90.5 33l18 36q87 -42 161 -42q54 0 87 27.5t33 72.5q0 26 -14.5 44.5t-35.5 30t-58 26.5q-42 18 -67 32t-42.5 38t-17.5 60q0 39 20.5 70t57.5 49t84 18q78 0 164 -39l-18 -37q-76 37 -145 37q-52 0 -84 -27t-32 -69q0 -36 26 -56t80 -41
q43 -18 68 -32.5t43 -39t18 -62.5q0 -62 -46 -101.5t-120 -39.5q-42 0 -89.5 12zM67 -261q74 48 84 110q-14 -3 -24 4.5t-10 21.5q0 17 12 28.5t29 11.5q15 0 24 -11.5t9 -31.5q0 -41 -30 -83t-80 -71z" />
    <glyph glyph-name="germandbls" unicode="&#xdf;" horiz-adv-x="596" 
d="M216 25l18 37q63 -35 130 -35q52 0 86 26.5t34 67.5q0 34 -19 53.5t-57 42.5q-29 18 -46 31.5t-29 35t-12 52.5q0 33 17 60t51 61q34 35 50.5 60t16.5 57q0 48 -31.5 75.5t-88.5 27.5q-59 0 -99 -35.5t-50 -98.5l-96 -543h-46l96 548q14 78 66.5 123t130.5 45
q77 0 121.5 -37.5t44.5 -101.5q0 -39 -18 -67t-54 -65q-30 -30 -45.5 -53t-15.5 -50q0 -33 17.5 -52.5t55.5 -43.5q28 -17 45.5 -31.5t29.5 -37t12 -55.5q0 -38 -21.5 -68.5t-60 -48t-86.5 -17.5q-76 0 -147 37z" />
    <glyph glyph-name="t" unicode="t" horiz-adv-x="393" 
d="M144 17.5q-32 29.5 -32 77.5q0 12 4 36l55 313h-107l7 39h107l25 144h48l-25 -144h164l-7 -39h-165l-54 -311q-4 -22 -4 -32q0 -32 22.5 -52t57.5 -20q34 0 68 7l5 -39q-39 -9 -85 -9q-52 0 -84 29.5z" />
    <glyph glyph-name="tbar" unicode="&#x167;" horiz-adv-x="393" 
d="M144 17.5q-32 29.5 -32 77.5q0 12 4 36l16 98h-98l7 36h98l32 179h-107l7 39h107l25 144h48l-25 -144h164l-7 -39h-165l-31 -179h148l-6 -36h-149l-16 -98q-4 -20 -4 -31q0 -32 22 -51.5t58 -19.5q34 0 68 7l5 -39q-39 -9 -85 -9q-52 0 -84 29.5z" />
    <glyph glyph-name="tcaron" unicode="&#x165;" horiz-adv-x="393" 
d="M316 566l88 163l36 -16l-93 -161zM144 17.5q-32 29.5 -32 77.5q0 12 4 36l55 313h-107l7 39h107l25 144h48l-25 -144h164l-7 -39h-165l-54 -311q-4 -22 -4 -32q0 -32 22.5 -52t57.5 -20q34 0 68 7l5 -39q-39 -9 -85 -9q-52 0 -84 29.5z" />
    <glyph glyph-name="uni0163" unicode="&#x163;" horiz-adv-x="393" 
d="M144 17.5q-32 29.5 -32 77.5q0 12 4 36l55 313h-107l7 39h107l25 144h48l-25 -144h164l-7 -39h-165l-54 -311q-4 -22 -4 -32q0 -32 22.5 -52t57.5 -20q34 0 68 7l5 -39q-39 -9 -85 -9q-52 0 -84 29.5zM87 -261q74 48 84 110q-14 -3 -24 4.5t-10 21.5q0 17 12 28.5
t29 11.5q15 0 24 -11.5t9 -31.5q0 -41 -30 -83t-80 -71z" />
    <glyph glyph-name="uni021B" unicode="&#x21b;" horiz-adv-x="393" 
d="M144 17.5q-32 29.5 -32 77.5q0 12 4 36l55 313h-107l7 39h107l25 144h48l-25 -144h164l-7 -39h-165l-54 -311q-4 -22 -4 -32q0 -32 22.5 -52t57.5 -20q34 0 68 7l5 -39q-39 -9 -85 -9q-52 0 -84 29.5zM87 -261q74 48 84 110q-14 -3 -24 4.5t-10 21.5q0 17 12 28.5
t29 11.5q15 0 24 -11.5t9 -31.5q0 -41 -30 -83t-80 -71z" />
    <glyph glyph-name="u" unicode="u" 
d="M106 28q-42 40 -42 104q0 23 5 53l53 298h48l-53 -296q-4 -32 -4 -46q0 -51 32.5 -81.5t85.5 -30.5q67 0 117.5 47.5t63.5 121.5l51 285h48l-85 -483h-38l11 94q-30 -49 -79 -77.5t-104 -28.5q-68 0 -110 40z" />
    <glyph glyph-name="uacute" unicode="&#xfa;" 
d="M106 28q-42 40 -42 104q0 23 5 53l53 298h48l-53 -296q-4 -32 -4 -46q0 -51 32.5 -81.5t85.5 -30.5q67 0 117.5 47.5t63.5 121.5l51 285h48l-85 -483h-38l11 94q-30 -49 -79 -77.5t-104 -28.5q-68 0 -110 40zM289 591l171 109l20 -35l-174 -102z" />
    <glyph glyph-name="ubreve" unicode="&#x16d;" 
d="M106 28q-42 40 -42 104q0 23 5 53l53 298h48l-53 -296q-4 -32 -4 -46q0 -51 32.5 -81.5t85.5 -30.5q67 0 117.5 47.5t63.5 121.5l51 285h48l-85 -483h-38l11 94q-30 -49 -79 -77.5t-104 -28.5q-68 0 -110 40zM251.5 588.5q-33.5 29.5 -33.5 77.5q0 11 2 25h34
q-1 -6 -1 -17q0 -36 23.5 -57t63.5 -21q44 0 77 26t42 69h35q-10 -60 -53 -96t-103 -36q-53 0 -86.5 29.5z" />
    <glyph glyph-name="ucircumflex" unicode="&#xfb;" 
d="M106 28q-42 40 -42 104q0 23 5 53l53 298h48l-53 -296q-4 -32 -4 -46q0 -51 32.5 -81.5t85.5 -30.5q67 0 117.5 47.5t63.5 121.5l51 285h48l-85 -483h-38l11 94q-30 -49 -79 -77.5t-104 -28.5q-68 0 -110 40zM195 591l143 116h33l100 -120l-25 -22l-95 105l-136 -106z
" />
    <glyph glyph-name="udieresis" unicode="&#xfc;" 
d="M106 28q-42 40 -42 104q0 23 5 53l53 298h48l-53 -296q-4 -32 -4 -46q0 -51 32.5 -81.5t85.5 -30.5q67 0 117.5 47.5t63.5 121.5l51 285h48l-85 -483h-38l11 94q-30 -49 -79 -77.5t-104 -28.5q-68 0 -110 40zM215 610.5q-8 8.5 -8 21.5q0 17 11.5 28.5t28.5 11.5
q13 0 21.5 -8t8.5 -22q0 -17 -11.5 -28.5t-28.5 -11.5q-14 0 -22 8.5zM415.5 610.5q-8.5 8.5 -8.5 21.5q0 17 12 28.5t29 11.5q13 0 21.5 -8.5t8.5 -21.5q0 -17 -11.5 -28.5t-28.5 -11.5q-14 0 -22.5 8.5z" />
    <glyph glyph-name="ugrave" unicode="&#xf9;" 
d="M106 28q-42 40 -42 104q0 23 5 53l53 298h48l-53 -296q-4 -32 -4 -46q0 -51 32.5 -81.5t85.5 -30.5q67 0 117.5 47.5t63.5 121.5l51 285h48l-85 -483h-38l11 94q-30 -49 -79 -77.5t-104 -28.5q-68 0 -110 40zM218 668l24 32l151 -109l-20 -28z" />
    <glyph glyph-name="uhungarumlaut" unicode="&#x171;" 
d="M106 28q-42 40 -42 104q0 23 5 53l53 298h48l-53 -296q-4 -32 -4 -46q0 -51 32.5 -81.5t85.5 -30.5q67 0 117.5 47.5t63.5 121.5l51 285h48l-85 -483h-38l11 94q-30 -49 -79 -77.5t-104 -28.5q-68 0 -110 40zM213 589l152 134l26 -31l-156 -130zM391 589l152 134l26 -31
l-156 -130z" />
    <glyph glyph-name="umacron" unicode="&#x16b;" 
d="M106 28q-42 40 -42 104q0 23 5 53l53 298h48l-53 -296q-4 -32 -4 -46q0 -51 32.5 -81.5t85.5 -30.5q67 0 117.5 47.5t63.5 121.5l51 285h48l-85 -483h-38l11 94q-30 -49 -79 -77.5t-104 -28.5q-68 0 -110 40zM207 655h284l-7 -36h-283z" />
    <glyph glyph-name="uogonek" unicode="&#x173;" horiz-adv-x="572" 
d="M286.5 -201q-20.5 19 -20.5 51q0 37 32 78t90 78l11 88q-30 -49 -79 -77.5t-104 -28.5q-68 0 -110 40t-42 104q0 23 5 53l53 298h48l-53 -296q-4 -32 -4 -46q0 -51 32.5 -81.5t85.5 -30.5q67 0 117.5 47.5t63.5 121.5l51 285h48l-85 -483q-58 -38 -89.5 -75t-31.5 -68
q0 -20 13 -32t34 -12q22 0 43 8l8 -31q-32 -10 -62 -10q-34 0 -54.5 19z" />
    <glyph glyph-name="uring" unicode="&#x16f;" 
d="M106 28q-42 40 -42 104q0 23 5 53l53 298h48l-53 -296q-4 -32 -4 -46q0 -51 32.5 -81.5t85.5 -30.5q67 0 117.5 47.5t63.5 121.5l51 285h48l-85 -483h-38l11 94q-30 -49 -79 -77.5t-104 -28.5q-68 0 -110 40zM273.5 567q-22.5 22 -22.5 57q0 44 31 74.5t77 30.5
q35 0 57.5 -22t22.5 -56q0 -45 -31 -75.5t-76 -30.5q-36 0 -58.5 22zM388.5 593.5q21.5 21.5 21.5 53.5q0 25 -15 40t-40 15q-31 0 -52.5 -21.5t-21.5 -53.5q0 -25 14.5 -40t39.5 -15q32 0 53.5 21.5z" />
    <glyph glyph-name="utilde" unicode="&#x169;" 
d="M106 28q-42 40 -42 104q0 23 5 53l53 298h48l-53 -296q-4 -32 -4 -46q0 -51 32.5 -81.5t85.5 -30.5q67 0 117.5 47.5t63.5 121.5l51 285h48l-85 -483h-38l11 94q-30 -49 -79 -77.5t-104 -28.5q-68 0 -110 40zM202 611q11 29 33 46.5t49 17.5q17 0 31 -5t37 -16
q18 -9 30.5 -13.5t25.5 -4.5q16 0 29.5 10.5t20.5 28.5l32 -12q-12 -28 -34 -45.5t-49 -17.5q-17 0 -32.5 5t-34.5 15q-21 10 -32 14t-24 4q-17 0 -30.5 -10t-20.5 -28z" />
    <glyph glyph-name="v" unicode="v" horiz-adv-x="500" 
d="M73 483h47l96 -423l244 423h51l-281 -483h-45z" />
    <glyph glyph-name="w" unicode="w" horiz-adv-x="756" 
d="M81 483h46l61 -420l207 420h45l62 -420l207 420h50l-243 -483h-47l-61 420l-207 -420h-45z" />
    <glyph glyph-name="wacute" unicode="&#x1e83;" horiz-adv-x="756" 
d="M81 483h46l61 -420l207 420h45l62 -420l207 420h50l-243 -483h-47l-61 420l-207 -420h-45zM381 591l171 109l20 -35l-174 -102z" />
    <glyph glyph-name="wcircumflex" unicode="&#x175;" horiz-adv-x="756" 
d="M81 483h46l61 -420l207 420h45l62 -420l207 420h50l-243 -483h-47l-61 420l-207 -420h-45zM287 591l143 116h33l100 -120l-25 -22l-95 105l-136 -106z" />
    <glyph glyph-name="wdieresis" unicode="&#x1e85;" horiz-adv-x="756" 
d="M81 483h46l61 -420l207 420h45l62 -420l207 420h50l-243 -483h-47l-61 420l-207 -420h-45zM307 610.5q-8 8.5 -8 21.5q0 17 11.5 28.5t28.5 11.5q13 0 21.5 -8t8.5 -22q0 -17 -11.5 -28.5t-28.5 -11.5q-14 0 -22 8.5zM507.5 610.5q-8.5 8.5 -8.5 21.5q0 17 12 28.5
t29 11.5q13 0 21.5 -8.5t8.5 -21.5q0 -17 -11.5 -28.5t-28.5 -11.5q-14 0 -22.5 8.5z" />
    <glyph glyph-name="wgrave" unicode="&#x1e81;" horiz-adv-x="756" 
d="M81 483h46l61 -420l207 420h45l62 -420l207 420h50l-243 -483h-47l-61 420l-207 -420h-45zM310 668l24 32l151 -109l-20 -28z" />
    <glyph glyph-name="x" unicode="x" horiz-adv-x="500" 
d="M222 250l-135 233h52l117 -204l186 204h56l-218 -238l141 -245h-53l-122 215l-196 -215h-57z" />
    <glyph glyph-name="y" unicode="y" horiz-adv-x="500" 
d="M-38 -211l11 40q26 -8 48 -8q33 0 60 22.5t57 74.5l49 87l-114 478h47l98 -423l242 423h51l-333 -578q-39 -67 -75 -96t-81 -29q-29 0 -60 9z" />
    <glyph glyph-name="yacute" unicode="&#xfd;" horiz-adv-x="500" 
d="M-38 -211l11 40q26 -8 48 -8q33 0 60 22.5t57 74.5l49 87l-114 478h47l98 -423l242 423h51l-333 -578q-39 -67 -75 -96t-81 -29q-29 0 -60 9zM253 591l171 109l20 -35l-174 -102z" />
    <glyph glyph-name="ycircumflex" unicode="&#x177;" horiz-adv-x="500" 
d="M-38 -211l11 40q26 -8 48 -8q33 0 60 22.5t57 74.5l49 87l-114 478h47l98 -423l242 423h51l-333 -578q-39 -67 -75 -96t-81 -29q-29 0 -60 9zM159 591l143 116h33l100 -120l-25 -22l-95 105l-136 -106z" />
    <glyph glyph-name="ydieresis" unicode="&#xff;" horiz-adv-x="500" 
d="M-38 -211l11 40q26 -8 48 -8q33 0 60 22.5t57 74.5l49 87l-114 478h47l98 -423l242 423h51l-333 -578q-39 -67 -75 -96t-81 -29q-29 0 -60 9zM179 610.5q-8 8.5 -8 21.5q0 17 11.5 28.5t28.5 11.5q13 0 21.5 -8t8.5 -22q0 -17 -11.5 -28.5t-28.5 -11.5q-14 0 -22 8.5z
M379.5 610.5q-8.5 8.5 -8.5 21.5q0 17 12 28.5t29 11.5q13 0 21.5 -8.5t8.5 -21.5q0 -17 -11.5 -28.5t-28.5 -11.5q-14 0 -22.5 8.5z" />
    <glyph glyph-name="ygrave" unicode="&#x1ef3;" horiz-adv-x="500" 
d="M-38 -211l11 40q26 -8 48 -8q33 0 60 22.5t57 74.5l49 87l-114 478h47l98 -423l242 423h51l-333 -578q-39 -67 -75 -96t-81 -29q-29 0 -60 9zM182 668l24 32l151 -109l-20 -28z" />
    <glyph glyph-name="z" unicode="z" horiz-adv-x="465" 
d="M13 30l364 414h-284l8 39h348l-5 -30l-364 -414h299l-7 -39h-364z" />
    <glyph glyph-name="zacute" unicode="&#x17a;" horiz-adv-x="465" 
d="M13 30l364 414h-284l8 39h348l-5 -30l-364 -414h299l-7 -39h-364zM243 591l171 109l20 -35l-174 -102z" />
    <glyph glyph-name="zcaron" unicode="&#x17e;" horiz-adv-x="465" 
d="M13 30l364 414h-284l8 39h348l-5 -30l-364 -414h299l-7 -39h-364zM173 687l25 22l94 -105l137 106l19 -27l-142 -116h-33z" />
    <glyph glyph-name="zdotaccent" unicode="&#x17c;" horiz-adv-x="465" 
d="M13 30l364 414h-284l8 39h348l-5 -30l-364 -414h299l-7 -39h-364zM271 609q-9 9 -9 23q0 18 12.5 30t29.5 12q14 0 23 -9t9 -23q0 -17 -12 -29.5t-30 -12.5q-14 0 -23 9z" />
    <glyph glyph-name="germandbls.calt" horiz-adv-x="767" 
d="M243 45l23 37q82 -53 161 -53q54 0 98.5 23.5t70 63.5t25.5 88q0 65 -43.5 108t-117.5 43h-16l-4 29l223 247h-437l-111 -631h-47l118 672h544l-5 -32l-225 -251q77 -4 123 -55.5t46 -126.5q0 -59 -32 -109.5t-87 -80t-123 -29.5q-94 0 -184 57z" />
    <glyph glyph-name="cacute.loclPLK" horiz-adv-x="478" 
d="M142 13q-45 25 -70.5 70.5t-25.5 103.5q0 86 35 156.5t96.5 111t138.5 40.5q84 0 154 -48l-24 -35q-61 42 -129 42q-63 0 -114 -34.5t-79.5 -94.5t-28.5 -134q0 -72 44 -117t113 -45q70 0 137 40l17 -35q-79 -46 -162 -46q-57 0 -102 25zM299 569l71 136l36 -20l-77 -133
z" />
    <glyph glyph-name="nacute.loclPLK" 
d="M130 483h37l-10 -94q30 49 79 77.5t103 28.5q68 0 110.5 -40t42.5 -104q0 -23 -5 -53l-53 -298h-48l53 296q5 25 5 46q0 51 -33 81.5t-86 30.5q-67 0 -118 -47.5t-64 -121.5l-50 -285h-48zM317 569l71 136l36 -20l-77 -133z" />
    <glyph glyph-name="oacute.loclPLK" 
d="M139.5 13q-44.5 25 -69 70.5t-24.5 103.5q0 87 34.5 157.5t96 110.5t137.5 40q57 0 101.5 -25t69 -70.5t24.5 -103.5q0 -87 -34.5 -157.5t-95.5 -110.5t-137 -40q-58 0 -102.5 25zM356 62.5q49 34.5 77 95t28 135.5q0 73 -41.5 117.5t-109.5 44.5q-61 0 -110 -34.5
t-77 -95t-28 -135.5q0 -73 41.5 -117.5t108.5 -44.5q62 0 111 34.5zM306 569l71 136l36 -20l-77 -133z" />
    <glyph glyph-name="sacute.loclPLK" horiz-adv-x="433" 
d="M103.5 0q-47.5 12 -90.5 33l18 36q87 -42 161 -42q54 0 87 27.5t33 72.5q0 26 -14.5 44.5t-35.5 30t-58 26.5q-42 18 -67 32t-42.5 38t-17.5 60q0 39 20.5 70t57.5 49t84 18q78 0 164 -39l-18 -37q-76 37 -145 37q-52 0 -84 -27t-32 -69q0 -36 26 -56t80 -41
q43 -18 68 -32.5t43 -39t18 -62.5q0 -62 -46 -101.5t-120 -39.5q-42 0 -89.5 12zM237 569l71 136l36 -20l-77 -133z" />
    <glyph glyph-name="zacute.loclPLK" horiz-adv-x="465" 
d="M13 30l364 414h-284l8 39h348l-5 -30l-364 -414h299l-7 -39h-364zM261 569l71 136l36 -20l-77 -133z" />
    <glyph glyph-name="ordfeminine" unicode="&#xaa;" horiz-adv-x="374" 
d="M109 379q-31 35 -31 93q0 52 25 100.5t68.5 78.5t93.5 30q39 0 65 -18.5t35 -49.5l16 60h26l-68 -321h-26l9 61q-24 -33 -57.5 -51t-70.5 -18q-54 0 -85 35zM286.5 406q35.5 33 46.5 83l10 47q3 17 3 29q0 40 -22 63.5t-60 23.5q-40 0 -73.5 -26t-53 -67.5t-19.5 -85.5
q0 -46 22.5 -73t63.5 -27q47 0 82.5 33zM38 270h311l-6 -31h-311z" />
    <glyph glyph-name="ordmasculine" unicode="&#xba;" horiz-adv-x="391" 
d="M124 380.5q-37 36.5 -37 96.5q0 58 23 104.5t64 73t93 26.5q59 0 96 -36.5t37 -95.5q0 -58 -23 -105t-64 -73.5t-93 -26.5q-59 0 -96 36.5zM293.5 398q31.5 22 49 61t17.5 87q0 46 -26.5 75t-69.5 29q-39 0 -70.5 -22t-49 -61t-17.5 -87q0 -47 26.5 -75.5t69.5 -28.5
q39 0 70.5 22zM54 270h301l-5 -31h-302z" />
    <glyph glyph-name="uni0394" unicode="&#x394;" horiz-adv-x="655" 
d="M2 30l378 642h47l152 -643l-5 -29h-577zM530 41l-134 574l-339 -574h473z" />
    <glyph glyph-name="uni03A9" unicode="&#x3a9;" horiz-adv-x="753" 
d="M22 41h192q-58 48 -91.5 117.5t-33.5 144.5q0 111 44.5 197.5t123 135t177.5 48.5q79 0 141.5 -32t98 -91t35.5 -138q0 -121 -64 -220.5t-180 -161.5h193l-6 -41h-259l6 35q126 64 193.5 163t67.5 219q0 68 -29.5 119.5t-81.5 79t-118 27.5q-83 0 -150 -44t-105 -122
t-38 -177q0 -74 35.5 -144t98.5 -121l-6 -35h-251z" />
    <glyph glyph-name="uni03BC" unicode="&#x3bc;" horiz-adv-x="580" 
d="M130 483h48l-52 -296q-4 -32 -4 -46q0 -51 32 -81.5t85 -30.5q67 0 118 47.5t64 121.5l50 285h48l-70 -398q-2 -12 -2 -19q0 -37 40 -37q6 0 27 3l4 -39q-20 -5 -40 -5q-33 0 -54.5 19.5t-21.5 49.5q0 9 4 31q-30 -46 -77 -73t-96 -27q-47 0 -81.5 20.5t-47.5 55.5
l-48 -272h-48z" />
    <glyph glyph-name="pi" unicode="&#x3c0;" horiz-adv-x="620" 
d="M418.5 9q-22.5 21 -22.5 55q0 11 3 26l62 354h-248l-78 -444h-46l78 444h-103l7 39h546l-7 -39h-103l-61 -351q-3 -13 -3 -23q0 -19 12.5 -30t34.5 -11q18 0 33 4l3 -39q-26 -6 -49 -6q-36 0 -58.5 21z" />
    <glyph glyph-name="zero" unicode="0" horiz-adv-x="576" 
d="M108.5 52.5q-50.5 64.5 -50.5 179.5q0 126 38.5 229.5t106.5 163t152 59.5q95 0 145.5 -64.5t50.5 -179.5q0 -126 -38 -229.5t-106 -163t-153 -59.5q-95 0 -145.5 64.5zM384.5 83q56.5 54 89 148t32.5 207q0 97 -39.5 151t-114.5 54q-71 0 -127.5 -54t-88.5 -148
t-32 -207q0 -98 39 -151.5t114 -53.5q71 0 127.5 54z" />
    <glyph glyph-name="one" unicode="1" horiz-adv-x="576" 
d="M385 621l-203 -108l-17 36l234 123h43l-118 -672h-48z" />
    <glyph glyph-name="two" unicode="2" horiz-adv-x="576" 
d="M23 34l328 275q57 48 88 97.5t31 95.5q0 65 -38.5 102.5t-106.5 37.5q-74 0 -172 -52l-17 37q107 57 200 57q84 0 133 -47.5t49 -128.5q0 -55 -33.5 -112.5t-97.5 -109.5l-294 -245h351l-7 -41h-420z" />
    <glyph glyph-name="three" unicode="3" horiz-adv-x="576" 
d="M136 2.5q-55 14.5 -108 42.5l20 37q101 -53 191 -53q50 0 91 21t65 57t24 81q0 63 -46 100t-125 37h-33l7 38h38q58 0 104.5 20t73 56t26.5 80q0 56 -38 90t-99 34q-82 0 -168 -34l-13 38q102 37 191 37q79 0 127 -44t48 -115q0 -69 -47 -118.5t-118 -64.5
q56 -12 88.5 -53.5t32.5 -101.5q0 -56 -30 -101.5t-82 -71.5t-115 -26q-50 0 -105 14.5z" />
    <glyph glyph-name="four" unicode="4" horiz-adv-x="576" 
d="M358 167h-335l6 37l418 468h45l-83 -466h112l-7 -39h-111l-29 -167h-45zM365 206l70 399l-355 -399h285z" />
    <glyph glyph-name="five" unicode="5" horiz-adv-x="576" 
d="M136.5 5q-51.5 17 -98.5 48l22 37q42 -29 88 -45t90 -16q56 0 102 23.5t72 65t26 92.5q0 69 -47.5 108.5t-130.5 39.5q-62 0 -128 -11l56 325h357l-7 -41h-313l-42 -242q45 6 92 6q97 0 153.5 -49t56.5 -134q0 -63 -32.5 -114t-89 -80.5t-125.5 -29.5q-50 0 -101.5 17z
" />
    <glyph glyph-name="six" unicode="6" horiz-adv-x="576" 
d="M129.5 49q-53.5 61 -53.5 171q0 129 43 235t117 167.5t165 61.5q80 0 160 -46l-20 -36q-70 42 -142 42q-68 0 -125.5 -43t-96 -121.5t-49.5 -180.5q33 59 87.5 91.5t122.5 32.5q53 0 94.5 -23t65 -65.5t23.5 -98.5q0 -68 -32.5 -125t-88 -90t-121.5 -33q-96 0 -149.5 61z
M378.5 55q44.5 27 70.5 74t26 103q0 69 -40.5 110t-107.5 41q-56 0 -102.5 -26t-73.5 -69t-27 -93q0 -75 43.5 -121t113.5 -46q53 0 97.5 27z" />
    <glyph glyph-name="seven" unicode="7" horiz-adv-x="576" 
d="M495 631h-354l7 41h408l-6 -36l-386 -636h-54z" />
    <glyph glyph-name="eight" unicode="8" horiz-adv-x="576" 
d="M104 32q-56 44 -56 120q0 72 51.5 122.5t146.5 71.5q-56 13 -88.5 54.5t-32.5 95.5q0 53 29.5 96t82 67.5t117.5 24.5q87 0 139 -42.5t52 -113.5q0 -70 -47.5 -119.5t-132.5 -66.5q66 -19 101 -60t35 -98q0 -55 -32 -100t-88 -70.5t-125 -25.5q-96 0 -152 44zM448 416
q50 43 50 107q0 56 -40 89t-107 33q-51 0 -92 -19.5t-64.5 -53.5t-23.5 -76q0 -51 36 -86t102 -47q89 10 139 53zM358 47.5q44 20.5 69.5 56.5t25.5 80q0 54 -38.5 89.5t-112.5 51.5q-97 -14 -151 -59t-54 -111q0 -59 43.5 -93.5t118.5 -34.5q55 0 99 20.5z" />
    <glyph glyph-name="nine" unicode="9" horiz-adv-x="576" 
d="M53 34l20 36q70 -42 142 -42q68 0 125.5 43t96 121.5t49.5 180.5q-33 -59 -88 -91.5t-123 -32.5q-81 0 -131.5 51.5t-50.5 135.5q0 68 32.5 125t88 90t121.5 33q96 0 149.5 -61t53.5 -171q0 -129 -43 -235t-117 -167.5t-165 -61.5q-80 0 -160 46zM389 315q47 26 74 69
t27 93q0 75 -43.5 121t-113.5 46q-53 0 -97.5 -27t-70.5 -74t-26 -103q0 -69 40.5 -110t106.5 -41q56 0 103 26z" />
    <glyph glyph-name="zero.lf" horiz-adv-x="646" 
d="M135.5 53.5q-53.5 65.5 -53.5 181.5q0 125 39.5 228t110 162t158.5 59q100 0 153.5 -65.5t53.5 -181.5q0 -125 -39.5 -228t-110 -162t-158.5 -59q-100 0 -153.5 65.5zM423.5 82q58.5 54 91.5 146.5t33 205.5q0 100 -41 155t-120 55q-73 0 -131.5 -54t-91.5 -146.5
t-33 -205.5q0 -100 41 -155t120 -55q73 0 131.5 54z" />
    <glyph glyph-name="one.lf" horiz-adv-x="393" 
d="M293 621l-203 -108l-17 36l234 123h43l-118 -672h-48z" />
    <glyph glyph-name="two.lf" horiz-adv-x="515" 
d="M-8 34l328 275q57 48 88 97.5t31 95.5q0 65 -38.5 102.5t-106.5 37.5q-74 0 -172 -52l-17 37q106 57 200 57q84 0 133 -47.5t49 -128.5q0 -55 -33.5 -112.5t-97.5 -109.5l-294 -245h351l-7 -41h-420z" />
    <glyph glyph-name="three.lf" horiz-adv-x="515" 
d="M105 2.5q-55 14.5 -108 42.5l20 37q101 -53 191 -53q50 0 91 21t65 57t24 81q0 63 -46 100t-125 37h-33l7 38h38q58 0 104.5 20t73 56t26.5 80q0 56 -38 90t-99 34q-82 0 -168 -34l-13 38q102 37 191 37q79 0 127 -44t48 -115q0 -69 -47 -118.5t-118 -64.5
q56 -12 88.5 -53.5t32.5 -101.5q0 -56 -30 -101.5t-82 -71.5t-115 -26q-50 0 -105 14.5z" />
    <glyph glyph-name="four.lf" horiz-adv-x="566" 
d="M353 167h-335l6 37l418 468h45l-83 -466h112l-7 -39h-111l-29 -167h-45zM360 206l70 399l-355 -399h285z" />
    <glyph glyph-name="five.lf" horiz-adv-x="515" 
d="M105.5 5q-51.5 17 -98.5 48l22 37q42 -29 88 -45t90 -16q56 0 102 23.5t72 65t26 92.5q0 69 -47.5 108.5t-130.5 39.5q-62 0 -128 -11l56 325h357l-7 -41h-313l-42 -242q45 6 92 6q97 0 153.5 -49t56.5 -134q0 -63 -32.5 -114t-89 -80.5t-125.5 -29.5q-50 0 -101.5 17z
" />
    <glyph glyph-name="six.lf" horiz-adv-x="582" 
d="M132.5 49q-53.5 61 -53.5 171q0 129 43 235t117 167.5t165 61.5q80 0 160 -46l-20 -36q-70 42 -142 42q-68 0 -125.5 -43t-96 -121.5t-49.5 -180.5q33 59 87.5 91.5t122.5 32.5q53 0 94.5 -23t65 -65.5t23.5 -98.5q0 -68 -32.5 -125t-88 -90t-121.5 -33q-96 0 -149.5 61z
M381.5 55q44.5 27 70.5 74t26 103q0 69 -40.5 110t-107.5 41q-56 0 -102.5 -26t-73.5 -69t-27 -93q0 -75 43.5 -121t113.5 -46q53 0 97.5 27z" />
    <glyph glyph-name="seven.lf" horiz-adv-x="470" 
d="M442 631h-354l7 41h408l-6 -36l-386 -636h-54z" />
    <glyph glyph-name="eight.lf" horiz-adv-x="582" 
d="M107 32q-56 44 -56 120q0 72 51.5 122.5t146.5 71.5q-56 13 -88.5 54.5t-32.5 95.5q0 53 29.5 96t82 67.5t117.5 24.5q87 0 139 -42.5t52 -113.5q0 -70 -47.5 -119.5t-132.5 -66.5q66 -19 101 -60t35 -98q0 -55 -32 -100t-88 -70.5t-125 -25.5q-96 0 -152 44zM451 416
q50 43 50 107q0 56 -40 89t-107 33q-51 0 -92 -19.5t-64.5 -53.5t-23.5 -76q0 -51 36 -86t102 -47q89 10 139 53zM361 47.5q44 20.5 69.5 56.5t25.5 80q0 54 -38.5 89.5t-112.5 51.5q-97 -14 -151 -59t-54 -111q0 -59 43.5 -93.5t118.5 -34.5q55 0 99 20.5z" />
    <glyph glyph-name="nine.lf" horiz-adv-x="582" 
d="M56 34l20 36q70 -42 142 -42q68 0 125.5 43t96 121.5t49.5 180.5q-33 -59 -88 -91.5t-123 -32.5q-81 0 -131.5 51.5t-50.5 135.5q0 68 32.5 125t88 90t121.5 33q96 0 149.5 -61t53.5 -171q0 -129 -43 -235t-117 -167.5t-165 -61.5q-80 0 -160 46zM392 315q47 26 74 69
t27 93q0 75 -43.5 121t-113.5 46q-53 0 -97.5 -27t-70.5 -74t-26 -103q0 -69 40.5 -110t106.5 -41q56 0 103 26z" />
    <glyph glyph-name="uni00B9" unicode="&#xb9;" horiz-adv-x="266" 
d="M238 760l-121 -65l-13 28l146 77h33l-73 -416h-37z" />
    <glyph glyph-name="uni00B2" unicode="&#xb2;" horiz-adv-x="340" 
d="M55 410l198 168q72 61 72 115q0 38 -22 59.5t-62 21.5q-41 0 -105 -31l-13 30q67 35 126 35q53 0 83.5 -30t30.5 -81q0 -68 -81 -138l-169 -142h208l-6 -33h-264z" />
    <glyph glyph-name="uni00B3" unicode="&#xb3;" horiz-adv-x="340" 
d="M58 412l15 29q66 -33 117 -33q45 0 75.5 26.5t30.5 66.5q0 37 -27 59t-74 22h-21l5 30h25q53 0 86.5 26t33.5 66q0 33 -22.5 52.5t-58.5 19.5q-46 0 -102 -21l-10 29q70 24 119 24q50 0 81 -28t31 -72q0 -42 -28.5 -72.5t-71.5 -39.5q34 -8 53.5 -33.5t19.5 -62.5
q0 -53 -41 -88.5t-101 -35.5q-65 0 -135 36z" />
    <glyph glyph-name="fraction" unicode="&#x2044;" horiz-adv-x="192" 
d="M400 672h47l-622 -672h-46z" />
    <glyph glyph-name="uni215F" unicode="&#x215f;" horiz-adv-x="576" 
d="M274 632l-121 -65l-13 28l146 77h33l-73 -416h-37zM784 672h47l-622 -672h-46z" />
    <glyph glyph-name="onehalf" unicode="&#xbd;" horiz-adv-x="960" 
d="M274 632l-121 -65l-13 28l146 77h33l-73 -416h-37zM784 672h47l-622 -672h-46zM585 26l198 168q72 61 72 115q0 38 -22 59.5t-62 21.5q-41 0 -105 -31l-13 30q67 35 126 35q53 0 83.5 -30t30.5 -81q0 -68 -81 -138l-169 -142h208l-6 -33h-264z" />
    <glyph glyph-name="uni2153" unicode="&#x2153;" horiz-adv-x="960" 
d="M274 632l-121 -65l-13 28l146 77h33l-73 -416h-37zM784 672h47l-622 -672h-46zM588 28l15 29q66 -33 117 -33q45 0 75.5 26.5t30.5 66.5q0 37 -27 59t-74 22h-21l5 30h25q53 0 86.5 26t33.5 66q0 33 -22.5 52.5t-58.5 19.5q-47 0 -102 -21l-10 29q70 24 119 24
q50 0 81 -28t31 -72q0 -42 -28.5 -72.5t-71.5 -39.5q34 -8 53.5 -33.5t19.5 -62.5q0 -53 -41 -88.5t-101 -35.5q-65 0 -135 36z" />
    <glyph glyph-name="uni2154" unicode="&#x2154;" horiz-adv-x="960" 
d="M54 282l198 168q72 61 72 115q0 38 -22 59.5t-62 21.5q-41 0 -105 -31l-13 30q67 35 126 35q53 0 83.5 -30t30.5 -81q0 -68 -81 -138l-169 -142h208l-6 -33h-264zM784 672h47l-622 -672h-46zM588 28l15 29q66 -33 117 -33q45 0 75.5 26.5t30.5 66.5q0 37 -27 59t-74 22
h-21l5 30h25q53 0 86.5 26t33.5 66q0 33 -22.5 52.5t-58.5 19.5q-47 0 -102 -21l-10 29q70 24 119 24q50 0 81 -28t31 -72q0 -42 -28.5 -72.5t-71.5 -39.5q34 -8 53.5 -33.5t19.5 -62.5q0 -53 -41 -88.5t-101 -35.5q-65 0 -135 36z" />
    <glyph glyph-name="onequarter" unicode="&#xbc;" horiz-adv-x="960" 
d="M274 632l-121 -65l-13 28l146 77h33l-73 -416h-37zM784 672h47l-622 -672h-46zM773 100h-207l5 30l256 286h36l-51 -285h66l-4 -31h-67l-17 -100h-35zM777 131l43 236l-210 -236h167z" />
    <glyph glyph-name="threequarters" unicode="&#xbe;" horiz-adv-x="960" 
d="M57 284l15 29q66 -33 117 -33q45 0 75.5 26.5t30.5 66.5q0 37 -27 59t-74 22h-21l5 30h25q53 0 86.5 26t33.5 66q0 33 -22.5 52.5t-58.5 19.5q-46 0 -102 -21l-10 29q70 24 119 24q50 0 81 -28t31 -72q0 -42 -28.5 -72.5t-71.5 -39.5q34 -8 53.5 -33.5t19.5 -62.5
q0 -53 -41 -88.5t-101 -35.5q-65 0 -135 36zM784 672h47l-622 -672h-46zM773 100h-207l5 30l256 286h36l-51 -285h66l-4 -31h-67l-17 -100h-35zM777 131l43 236l-210 -236h167z" />
    <glyph glyph-name="uni2155" unicode="&#x2155;" horiz-adv-x="960" 
d="M274 632l-121 -65l-13 28l146 77h33l-73 -416h-37zM784 672h47l-622 -672h-46zM594 33l18 28q53 -36 107 -36q51 0 85 29.5t34 75.5q0 42 -28 64.5t-77 22.5q-36 0 -81 -6l36 205h224l-6 -32h-189l-24 -140q8 1 21 2t31 1q60 0 95 -31t35 -84q0 -39 -20.5 -71
t-56.5 -50.5t-79 -18.5q-61 0 -125 41z" />
    <glyph glyph-name="uni2156" unicode="&#x2156;" horiz-adv-x="960" 
d="M54 282l198 168q72 61 72 115q0 38 -22 59.5t-62 21.5q-41 0 -105 -31l-13 30q67 35 126 35q53 0 83.5 -30t30.5 -81q0 -68 -81 -138l-169 -142h208l-6 -33h-264zM784 672h47l-622 -672h-46zM594 33l18 28q53 -36 107 -36q51 0 85 29.5t34 75.5q0 42 -28 64.5t-77 22.5
q-36 0 -81 -6l36 205h224l-6 -32h-189l-24 -140q8 1 21 2t31 1q60 0 95 -31t35 -84q0 -39 -20.5 -71t-56.5 -50.5t-79 -18.5q-61 0 -125 41z" />
    <glyph glyph-name="uni2157" unicode="&#x2157;" horiz-adv-x="960" 
d="M57 284l15 29q66 -33 117 -33q45 0 75.5 26.5t30.5 66.5q0 37 -27 59t-74 22h-21l5 30h25q53 0 86.5 26t33.5 66q0 33 -22.5 52.5t-58.5 19.5q-46 0 -102 -21l-10 29q70 24 119 24q50 0 81 -28t31 -72q0 -42 -28.5 -72.5t-71.5 -39.5q34 -8 53.5 -33.5t19.5 -62.5
q0 -53 -41 -88.5t-101 -35.5q-65 0 -135 36zM784 672h47l-622 -672h-46zM594 33l18 28q53 -36 107 -36q51 0 85 29.5t34 75.5q0 42 -28 64.5t-77 22.5q-36 0 -81 -6l36 205h224l-6 -32h-189l-24 -140q8 1 21 2t31 1q60 0 95 -31t35 -84q0 -39 -20.5 -71t-56.5 -50.5
t-79 -18.5q-61 0 -125 41z" />
    <glyph glyph-name="uni2158" unicode="&#x2158;" horiz-adv-x="960" 
d="M262 356h-207l5 30l256 286h36l-51 -285h66l-4 -31h-67l-17 -100h-35zM784 672h47l-622 -672h-46zM266 387l43 236l-210 -236h167zM594 33l18 28q53 -36 107 -36q51 0 85 29.5t34 75.5q0 42 -28 64.5t-77 22.5q-36 0 -81 -6l36 205h224l-6 -32h-189l-24 -140q8 1 21 2
t31 1q60 0 95 -31t35 -84q0 -39 -20.5 -71t-56.5 -50.5t-79 -18.5q-61 0 -125 41z" />
    <glyph glyph-name="uni2159" unicode="&#x2159;" horiz-adv-x="960" 
d="M274 632l-121 -65l-13 28l146 77h33l-73 -416h-37zM784 672h47l-622 -672h-46zM652.5 30.5q-34.5 38.5 -34.5 106.5q0 80 27 145.5t73.5 103.5t103.5 38q52 0 101 -30l-16 -28q-41 26 -86 26q-40 0 -74.5 -24.5t-58 -69t-29.5 -103.5q20 33 52.5 51t72.5 18
q51 0 82.5 -32t31.5 -85q0 -42 -20 -77.5t-55 -56.5t-76 -21q-60 0 -94.5 38.5zM829.5 58.5q33.5 34.5 33.5 85.5q0 41 -24 64.5t-63 23.5q-51 0 -86.5 -32t-35.5 -77q0 -44 26 -71.5t68 -27.5q48 0 81.5 34.5z" />
    <glyph glyph-name="uni215A" unicode="&#x215a;" horiz-adv-x="960" 
d="M63 289l18 28q53 -36 107 -36q51 0 85 29.5t34 75.5q0 42 -28 64.5t-77 22.5q-36 0 -81 -6l36 205h224l-6 -32h-189l-24 -140q8 1 21 2t31 1q60 0 95 -31t35 -84q0 -39 -20.5 -71t-56.5 -50.5t-79 -18.5q-61 0 -125 41zM784 672h47l-622 -672h-46zM652.5 30.5
q-34.5 38.5 -34.5 106.5q0 80 27 145.5t73.5 103.5t103.5 38q52 0 101 -30l-16 -28q-41 26 -86 26q-40 0 -74.5 -24.5t-58 -69t-29.5 -103.5q20 33 52.5 51t72.5 18q51 0 82.5 -32t31.5 -85q0 -42 -20 -77.5t-55 -56.5t-76 -21q-60 0 -94.5 38.5zM829.5 58.5
q33.5 34.5 33.5 85.5q0 41 -24 64.5t-63 23.5q-51 0 -86.5 -32t-35.5 -77q0 -44 26 -71.5t68 -27.5q48 0 81.5 34.5z" />
    <glyph glyph-name="oneeighth" unicode="&#x215b;" horiz-adv-x="960" 
d="M274 632l-121 -65l-13 28l146 77h33l-73 -416h-37zM784 672h47l-622 -672h-46zM636.5 20q-35.5 28 -35.5 75q0 44 31 75t89 45q-33 8 -53 33t-20 58q0 51 41 84.5t104 33.5q55 0 88 -27t33 -71q0 -43 -29 -73.5t-79 -41.5q39 -11 59.5 -36t20.5 -60q0 -53 -43.5 -88
t-110.5 -35q-60 0 -95.5 28zM848.5 259q29.5 25 29.5 63q0 34 -23.5 53t-64.5 19q-46 0 -76.5 -25t-30.5 -63q0 -30 22 -50.5t61 -28.5q53 7 82.5 32zM817.5 48.5q32.5 26.5 32.5 66.5q0 64 -89 84q-58 -9 -90.5 -35t-32.5 -65q0 -36 26 -56.5t71 -20.5q50 0 82.5 26.5z" />
    <glyph glyph-name="threeeighths" unicode="&#x215c;" horiz-adv-x="960" 
d="M57 284l15 29q66 -33 117 -33q45 0 75.5 26.5t30.5 66.5q0 37 -27 59t-74 22h-21l5 30h25q53 0 86.5 26t33.5 66q0 33 -22.5 52.5t-58.5 19.5q-46 0 -102 -21l-10 29q70 24 119 24q50 0 81 -28t31 -72q0 -42 -28.5 -72.5t-71.5 -39.5q34 -8 53.5 -33.5t19.5 -62.5
q0 -53 -41 -88.5t-101 -35.5q-65 0 -135 36zM784 672h47l-622 -672h-46zM636.5 20q-35.5 28 -35.5 75q0 44 31 75t89 45q-33 8 -53 33t-20 58q0 51 41 84.5t104 33.5q55 0 88 -27t33 -71q0 -43 -29 -73.5t-79 -41.5q39 -11 59.5 -36t20.5 -60q0 -53 -43.5 -88t-110.5 -35
q-60 0 -95.5 28zM848.5 259q29.5 25 29.5 63q0 34 -23.5 53t-64.5 19q-46 0 -76.5 -25t-30.5 -63q0 -30 22 -50.5t61 -28.5q53 7 82.5 32zM817.5 48.5q32.5 26.5 32.5 66.5q0 64 -89 84q-58 -9 -90.5 -35t-32.5 -65q0 -36 26 -56.5t71 -20.5q50 0 82.5 26.5z" />
    <glyph glyph-name="fiveeighths" unicode="&#x215d;" horiz-adv-x="960" 
d="M63 289l18 28q53 -36 107 -36q51 0 85 29.5t34 75.5q0 42 -28 64.5t-77 22.5q-36 0 -81 -6l36 205h224l-6 -32h-189l-24 -140q8 1 21 2t31 1q60 0 95 -31t35 -84q0 -39 -20.5 -71t-56.5 -50.5t-79 -18.5q-61 0 -125 41zM784 672h47l-622 -672h-46zM636.5 20
q-35.5 28 -35.5 75q0 44 31 75t89 45q-33 8 -53 33t-20 58q0 51 41 84.5t104 33.5q55 0 88 -27t33 -71q0 -43 -29 -73.5t-79 -41.5q39 -11 59.5 -36t20.5 -60q0 -53 -43.5 -88t-110.5 -35q-60 0 -95.5 28zM848.5 259q29.5 25 29.5 63q0 34 -23.5 53t-64.5 19
q-46 0 -76.5 -25t-30.5 -63q0 -30 22 -50.5t61 -28.5q53 7 82.5 32zM817.5 48.5q32.5 26.5 32.5 66.5q0 64 -89 84q-58 -9 -90.5 -35t-32.5 -65q0 -36 26 -56.5t71 -20.5q50 0 82.5 26.5z" />
    <glyph glyph-name="seveneighths" unicode="&#x215e;" horiz-adv-x="960" 
d="M381 639h-214l6 33h257l-6 -28l-235 -388h-42zM784 672h47l-622 -672h-46zM636.5 20q-35.5 28 -35.5 75q0 44 31 75t89 45q-33 8 -53 33t-20 58q0 51 41 84.5t104 33.5q55 0 88 -27t33 -71q0 -43 -29 -73.5t-79 -41.5q39 -11 59.5 -36t20.5 -60q0 -53 -43.5 -88
t-110.5 -35q-60 0 -95.5 28zM848.5 259q29.5 25 29.5 63q0 34 -23.5 53t-64.5 19q-46 0 -76.5 -25t-30.5 -63q0 -30 22 -50.5t61 -28.5q53 7 82.5 32zM817.5 48.5q32.5 26.5 32.5 66.5q0 64 -89 84q-58 -9 -90.5 -35t-32.5 -65q0 -36 26 -56.5t71 -20.5q50 0 82.5 26.5z" />
    <glyph glyph-name="asterisk" unicode="*" horiz-adv-x="486" 
d="M274 446l-140 -102l-21 29l141 101l-141 102l21 29l140 -102l54 165l34 -11l-53 -165h173v-36h-173l53 -164l-34 -11z" />
    <glyph glyph-name="backslash" unicode="\" horiz-adv-x="384" 
d="M101 704h42l155 -834h-42z" />
    <glyph glyph-name="periodcentered" unicode="&#xb7;" horiz-adv-x="236" 
d="M87.5 217q-9.5 10 -9.5 25q0 19 13 32t32 13q15 0 25 -9.5t10 -24.5q0 -19 -13 -32.5t-32 -13.5q-16 0 -25.5 10z" />
    <glyph glyph-name="bullet" unicode="&#x2022;" horiz-adv-x="480" 
d="M176 163.5q-33 19.5 -52.5 52.5t-19.5 72t19.5 72t52.5 52.5t72 19.5t72 -19.5t52.5 -52.5t19.5 -72t-19.5 -72t-52.5 -52.5t-72 -19.5t-72 19.5z" />
    <glyph glyph-name="colon" unicode=":" horiz-adv-x="252" 
d="M57.5 1q-9.5 10 -9.5 25q0 19 13 32t32 13q15 0 25 -9.5t10 -24.5q0 -19 -13 -32.5t-32 -13.5q-16 0 -25.5 10zM133.5 421q-9.5 10 -9.5 25q0 19 13 32t32 13q15 0 25 -9.5t10 -24.5q0 -19 -13 -32.5t-32 -13.5q-16 0 -25.5 10z" />
    <glyph glyph-name="comma" unicode="," horiz-adv-x="236" 
d="M-19 -137q88 56 97 131q-16 -2 -27 7t-11 25q0 19 13 32t32 13q18 0 28 -12.5t10 -33.5q0 -52 -34.5 -102.5t-92.5 -82.5z" />
    <glyph glyph-name="ellipsis" unicode="&#x2026;" horiz-adv-x="960" 
d="M92.5 1q-9.5 10 -9.5 25q0 19 13 32t32 13q15 0 25 -9.5t10 -24.5q0 -19 -13 -32.5t-32 -13.5q-16 0 -25.5 10zM412.5 1q-9.5 10 -9.5 25q0 19 13 32t32 13q15 0 25 -9.5t10 -24.5q0 -19 -13 -32.5t-32 -13.5q-16 0 -25.5 10zM732.5 1q-9.5 10 -9.5 25q0 19 13 32t32 13
q15 0 25 -9.5t10 -24.5q0 -19 -13 -32.5t-32 -13.5q-16 0 -25.5 10z" />
    <glyph glyph-name="exclam" unicode="!" horiz-adv-x="252" 
d="M174 672h49l-87 -471h-40zM57.5 1q-9.5 10 -9.5 25q0 19 13 32t32 13q15 0 25 -9.5t10 -24.5q0 -19 -13 -32.5t-32 -13.5q-16 0 -25.5 10z" />
    <glyph glyph-name="exclamdown" unicode="&#xa1;" horiz-adv-x="252" 
d="M126.5 421.5q-9.5 9.5 -9.5 24.5q0 19 13 32.5t32 13.5q15 0 25 -10t10 -25q0 -19 -13.5 -32t-32.5 -13q-15 0 -24.5 9.5zM108 282h41l-78 -471h-50z" />
    <glyph glyph-name="numbersign" unicode="#" horiz-adv-x="646" 
d="M496 440l-36 -208h118l-7 -38h-118l-34 -194h-40l34 194h-206l-34 -194h-40l34 194h-118l7 38h118l36 208h-118l7 38h118l34 194h40l-34 -194h206l34 194h40l-34 -194h118l-7 -38h-118zM456 440h-206l-36 -208h206z" />
    <glyph glyph-name="period" unicode="." horiz-adv-x="236" 
d="M49.5 1q-9.5 10 -9.5 25q0 19 13 32t32 13q15 0 25 -9.5t10 -24.5q0 -19 -13 -32.5t-32 -13.5q-16 0 -25.5 10z" />
    <glyph glyph-name="question" unicode="?" horiz-adv-x="454" 
d="M181 216q7 38 32.5 68t76.5 75q55 47 82.5 81.5t27.5 78.5q0 55 -34 89t-90 34q-39 0 -76.5 -12t-79.5 -37l-19 37q88 54 183 54q74 0 119.5 -44t45.5 -115q0 -40 -17.5 -74t-43 -59t-66.5 -60q-46 -38 -69.5 -64.5t-30.5 -57.5l-2 -9h-41zM148.5 0q-8.5 9 -8.5 23
q0 19 12 31t30 12q15 0 24 -8.5t9 -23.5q0 -18 -12.5 -30.5t-30.5 -12.5q-15 0 -23.5 9z" />
    <glyph glyph-name="questiondown" unicode="&#xbf;" horiz-adv-x="390" 
d="M239.5 425q-8.5 9 -8.5 24q0 18 12.5 30.5t30.5 12.5q15 0 23.5 -9t8.5 -24q0 -18 -12.5 -30.5t-30.5 -12.5q-15 0 -23.5 9zM42 -157q-46 44 -46 115q0 40 17.5 74t43 59t66.5 60q47 39 70.5 65t30.5 57l2 9h41l-3 -15q-6 -39 -33 -70.5t-77 -73.5q-55 -48 -82 -82
t-27 -77q0 -55 34.5 -89t90.5 -34q76 0 156 49l18 -37q-87 -54 -182 -54q-74 0 -120 44z" />
    <glyph glyph-name="quotedbl" unicode="&#x22;" horiz-adv-x="378" 
d="M154 672h47l-41 -206h-38zM328 672h47l-41 -206h-38z" />
    <glyph glyph-name="quotesingle" unicode="'" horiz-adv-x="204" 
d="M154 672h47l-41 -206h-38z" />
    <glyph glyph-name="semicolon" unicode=";" horiz-adv-x="252" 
d="M-11 -137q88 56 97 131q-16 -2 -27 7t-11 25q0 19 13 32t32 13q18 0 28 -12.5t10 -33.5q0 -52 -34.5 -102.5t-92.5 -82.5zM133.5 421q-9.5 10 -9.5 25q0 19 13 32t32 13q15 0 25 -9.5t10 -24.5q0 -19 -13 -32.5t-32 -13.5q-16 0 -25.5 10z" />
    <glyph glyph-name="slash" unicode="/" horiz-adv-x="384" 
d="M397 704h44l-447 -834h-44z" />
    <glyph glyph-name="underscore" unicode="_" horiz-adv-x="480" 
d="M-61 -108h480l-8 -40h-480z" />
    <glyph glyph-name="braceleft" unicode="{" horiz-adv-x="329" 
d="M117.5 -101q-33.5 30 -33.5 77q0 25 7 49.5t20 57.5t19.5 57t6.5 47q0 35 -21 58t-54 23h-18l7 40h14q41 0 71 22.5t37 62.5q5 28 5 66.5v46.5q0 54 6 84q10 54 51.5 85.5t101.5 31.5h31l-7 -41h-22q-42 0 -73 -23.5t-39 -63.5q-6 -28 -6 -84v-37q0 -49 -3 -69
q-12 -79 -93 -103q57 -22 57 -94q0 -24 -6.5 -47.5t-19.5 -58.5q-12 -35 -18 -56.5t-6 -43.5q0 -34 22 -55t62 -21h12l-7 -41h-15q-55 0 -88.5 30z" />
    <glyph glyph-name="braceright" unicode="}" horiz-adv-x="329" 
d="M-16 -90h22q42 0 72.5 23t39.5 64q6 28 6 84v37q0 49 3 69q12 79 92 103q-28 11 -42 35t-14 59q0 24 6.5 47.5t19.5 58.5q12 35 18 56.5t6 43.5q0 34 -22 55t-62 21h-12l7 41h15q55 0 88.5 -30t33.5 -77q0 -25 -7 -49.5t-20 -57.5t-19.5 -57t-6.5 -47q0 -35 21 -58
t54 -23h18l-7 -40h-14q-41 0 -71 -22.5t-37 -62.5q-5 -28 -5 -66.5v-46.5q0 -54 -6 -84q-10 -54 -51.5 -85.5t-101.5 -31.5h-32z" />
    <glyph glyph-name="bracketleft" unicode="[" horiz-adv-x="329" 
d="M199 707h170l-8 -41h-125l-132 -756h125l-7 -41h-170z" />
    <glyph glyph-name="bracketright" unicode="]" horiz-adv-x="329" 
d="M-16 -90h126l132 756h-125l7 41h170l-147 -838h-170z" />
    <glyph glyph-name="parenleft" unicode="(" horiz-adv-x="329" 
d="M89 190q0 153 63 290t181 242l31 -26q-110 -98 -170 -231t-60 -279q0 -87 23 -165t67 -142l-36 -23q-99 141 -99 334z" />
    <glyph glyph-name="parenright" unicode=")" horiz-adv-x="329" 
d="M-18 -117q110 97 170 230t60 279q0 87 -23 165t-67 142l36 23q99 -139 99 -333q0 -154 -63 -291t-180 -242z" />
    <glyph glyph-name="emdash" unicode="&#x2014;" horiz-adv-x="960" 
d="M34 267h902l-7 -39h-902z" />
    <glyph glyph-name="endash" unicode="&#x2013;" horiz-adv-x="480" 
d="M34 267h422l-7 -39h-422z" />
    <glyph glyph-name="hyphen" unicode="-" horiz-adv-x="320" 
d="M34 267h262l-7 -39h-262z" />
    <glyph glyph-name="uni00AD" unicode="&#xad;" horiz-adv-x="320" 
d="M34 267h262l-7 -39h-262z" />
    <glyph glyph-name="guillemotleft" unicode="&#xab;" horiz-adv-x="509" 
d="M29 235l5 27l235 218l26 -27l-216 -209l141 -207l-32 -21zM238 235l5 27l235 218l26 -27l-216 -209l141 -207l-32 -21z" />
    <glyph glyph-name="guillemotright" unicode="&#xbb;" horiz-adv-x="509" 
d="M7 41l216 210l-142 207l32 21l159 -219l-4 -27l-235 -218zM216 41l216 210l-142 207l32 21l159 -219l-4 -27l-235 -218z" />
    <glyph glyph-name="guilsinglleft" unicode="&#x2039;" horiz-adv-x="300" 
d="M29 235l5 27l235 218l26 -27l-216 -209l141 -207l-32 -21z" />
    <glyph glyph-name="guilsinglright" unicode="&#x203a;" horiz-adv-x="300" 
d="M7 41l216 210l-142 207l32 21l159 -219l-4 -27l-235 -218z" />
    <glyph glyph-name="quotedblbase" unicode="&#x201e;" horiz-adv-x="413" 
d="M-19 -137q88 56 97 131q-16 -2 -27 7t-11 25q0 19 13 32t32 13q18 0 28 -12.5t10 -33.5q0 -52 -34.5 -102.5t-92.5 -82.5zM158 -137q88 56 97 131q-16 -2 -27 7t-11 25q0 19 13 32t32 13q18 0 28 -12.5t10 -33.5q0 -52 -34.5 -102.5t-92.5 -82.5z" />
    <glyph glyph-name="quotedblleft" unicode="&#x201c;" horiz-adv-x="413" 
d="M130 463.5q-10 12.5 -10 34.5q0 52 34 102t93 82l15 -23q-88 -56 -97 -131q16 2 27 -7t11 -25q0 -19 -13 -32t-32 -13q-18 0 -28 12.5zM307 463.5q-10 12.5 -10 34.5q0 52 34 102t93 82l15 -23q-88 -56 -97 -131q16 2 27 -7t11 -25q0 -19 -13 -32t-32 -13q-18 0 -28 12.5
z" />
    <glyph glyph-name="quotedblright" unicode="&#x201d;" horiz-adv-x="413" 
d="M88 473q88 56 97 131q-16 -2 -27 7t-11 25q0 19 13 32t32 13q18 0 28 -12.5t10 -33.5q0 -52 -34.5 -102.5t-92.5 -82.5zM265 473q88 56 97 131q-16 -2 -27 7t-11 25q0 19 13 32t32 13q18 0 28 -12.5t10 -33.5q0 -52 -34.5 -102.5t-92.5 -82.5z" />
    <glyph glyph-name="quoteleft" unicode="&#x2018;" horiz-adv-x="236" 
d="M130 463.5q-10 12.5 -10 34.5q0 52 34 102t93 82l15 -23q-88 -56 -97 -131q16 2 27 -7t11 -25q0 -19 -13 -32t-32 -13q-18 0 -28 12.5z" />
    <glyph glyph-name="quoteright" unicode="&#x2019;" horiz-adv-x="236" 
d="M88 473q88 56 97 131q-16 -2 -27 7t-11 25q0 19 13 32t32 13q18 0 28 -12.5t10 -33.5q0 -52 -34.5 -102.5t-92.5 -82.5z" />
    <glyph glyph-name="quotesinglbase" unicode="&#x201a;" horiz-adv-x="236" 
d="M-19 -137q88 56 97 131q-16 -2 -27 7t-11 25q0 19 13 32t32 13q18 0 28 -12.5t10 -33.5q0 -52 -34.5 -102.5t-92.5 -82.5z" />
    <glyph glyph-name="uni2003" unicode="&#x2003;" horiz-adv-x="960" 
 />
    <glyph glyph-name="uni2002" unicode="&#x2002;" horiz-adv-x="480" 
 />
    <glyph glyph-name="uni200A" unicode="&#x200a;" horiz-adv-x="60" 
 />
    <glyph glyph-name="uni00A0" unicode="&#xa0;" horiz-adv-x="240" 
 />
    <glyph glyph-name="uni2009" unicode="&#x2009;" horiz-adv-x="192" 
 />
    <glyph glyph-name="cent" unicode="&#xa2;" horiz-adv-x="576" 
d="M271 86q-73 8 -119 62t-46 133q0 84 32.5 153t90.5 109.5t131 43.5l26 149h40l-26 -149q69 -6 128 -46l-23 -34q-52 36 -112 41l-75 -425q66 1 130 40l18 -34q-74 -43 -155 -46l-26 -147h-40zM353 548q-57 -6 -102.5 -42t-71 -94t-25.5 -127q0 -62 34 -105t90 -54z" />
    <glyph glyph-name="currency" unicode="&#xa4;" horiz-adv-x="576" 
d="M81 143l82 82q-37 45 -37 111t36 111l-81 82l30 29l81 -82q43 38 112 38q67 0 111 -38l82 82l29 -29l-82 -82q38 -46 38 -111t-38 -111l82 -82l-29 -29l-82 81q-45 -36 -111 -36q-67 0 -112 36l-81 -81zM404 236.5q39 38.5 39 99.5t-39 100t-100 39t-100 -39t-39 -100
t39 -99.5t100 -38.5t100 38.5z" />
    <glyph glyph-name="dollar" unicode="$" horiz-adv-x="576" 
d="M231 38q-43 3 -82 15.5t-84 35.5l17 38q81 -40 157 -48l43 247q-45 18 -74 35.5t-48.5 45t-19.5 68.5q0 72 54.5 114.5t142.5 45.5l29 165h40l-29 -166q74 -5 155 -44l-17 -38q-72 34 -145 42l-43 -239q46 -18 76 -35.5t50 -46.5t20 -72q0 -75 -55.5 -118t-146.5 -46
l-29 -165h-40zM330 595q-63 -1 -102 -34.5t-39 -83.5q0 -39 25.5 -62t75.5 -45zM384.5 111.5q40.5 32.5 40.5 87.5q0 41 -27 65t-78 47l-42 -234q66 2 106.5 34.5z" />
    <glyph glyph-name="Euro" unicode="&#x20ac;" horiz-adv-x="576" 
d="M231.5 20.5q-51.5 32.5 -81.5 93t-32 141.5h-79l6 34h73q2 59 15 110h-69l6 34h72q36 115 117 183t187 68q44 0 88.5 -13.5t84.5 -39.5l-21 -35q-72 48 -152 48q-89 0 -156 -56.5t-99 -154.5h275l-6 -34h-281q-14 -53 -14 -110h276l-6 -34h-269q4 -106 55.5 -166.5
t135.5 -60.5q77 0 143 33l15 -36q-73 -37 -165 -37q-67 0 -118.5 32.5z" />
    <glyph glyph-name="florin" unicode="&#x192;" horiz-adv-x="576" 
d="M62 7l14 38q40 -16 71 -16q33 0 56 19t28 50l50 285h-105l7 39h105l27 157q9 49 43 77t83 28q40 0 92 -19l-15 -38q-38 16 -70 16q-33 0 -56 -19t-28 -50l-27 -152h133l-8 -39h-132l-51 -290q-8 -48 -42.5 -76.5t-82.5 -28.5q-41 0 -92 19z" />
    <glyph glyph-name="sterling" unicode="&#xa3;" horiz-adv-x="576" 
d="M39 40h106l51 284h-90l7 40h90l28 162q13 73 64.5 115.5t127.5 42.5q64 0 155 -41l-19 -37q-79 37 -133 37q-58 0 -97 -32.5t-49 -88.5l-28 -158h198l-7 -40h-198l-50 -284h288l-8 -40h-443z" />
    <glyph glyph-name="yen" unicode="&#xa5;" horiz-adv-x="576" 
d="M250 168h-173l7 36h173l19 111h-173l6 36h163l-162 321h53l146 -301l238 301h57l-260 -321h161l-7 -36h-173l-19 -111h173l-6 -36h-173l-30 -168h-49z" />
    <glyph glyph-name="cent.lf" horiz-adv-x="534" 
d="M250 86q-73 8 -119 62t-46 133q0 84 32.5 153t90.5 109.5t131 43.5l26 149h40l-26 -149q69 -6 128 -46l-23 -34q-52 36 -112 41l-75 -425q66 1 130 40l18 -34q-74 -43 -155 -46l-26 -147h-40zM332 548q-57 -6 -102.5 -42t-71 -94t-25.5 -127q0 -62 34 -105t90 -54z" />
    <glyph glyph-name="dollar.lf" horiz-adv-x="503" 
d="M195 38q-43 3 -82 15.5t-84 35.5l17 38q81 -40 157 -48l43 247q-45 18 -74 35.5t-48.5 45t-19.5 68.5q0 72 54.5 114.5t142.5 45.5l29 165h40l-29 -166q74 -5 155 -44l-17 -38q-72 34 -145 42l-43 -239q46 -18 76 -35.5t50 -46.5t20 -72q0 -75 -55.5 -118t-146.5 -46
l-29 -165h-40zM294 595q-63 -1 -102 -34.5t-39 -83.5q0 -39 25.5 -62t75.5 -45zM348.5 111.5q40.5 32.5 40.5 87.5q0 41 -27 65t-78 47l-42 -234q66 2 106.5 34.5z" />
    <glyph glyph-name="Euro.lf" horiz-adv-x="563" 
d="M224.5 20.5q-51.5 32.5 -81.5 93t-32 141.5h-79l6 34h73q2 59 15 110h-69l6 34h72q36 115 117 183t187 68q44 0 88.5 -13.5t84.5 -39.5l-21 -35q-72 48 -152 48q-89 0 -156 -56.5t-99 -154.5h275l-6 -34h-281q-14 -53 -14 -110h276l-6 -34h-269q4 -106 55.5 -166.5
t135.5 -60.5q77 0 143 33l15 -36q-73 -37 -165 -37q-67 0 -118.5 32.5z" />
    <glyph glyph-name="sterling.lf" horiz-adv-x="563" 
d="M32 40h106l51 284h-90l7 40h90l28 162q13 73 64.5 115.5t127.5 42.5q64 0 155 -41l-19 -37q-79 37 -133 37q-58 0 -97 -32.5t-49 -88.5l-28 -158h198l-7 -40h-198l-50 -284h288l-8 -40h-443z" />
    <glyph glyph-name="yen.lf" horiz-adv-x="572" 
d="M248 168h-173l7 36h173l19 111h-173l6 36h163l-162 321h53l146 -301l238 301h57l-260 -321h161l-7 -36h-173l-19 -111h173l-6 -36h-173l-30 -168h-49z" />
    <glyph glyph-name="dotmath" unicode="&#x22c5;" horiz-adv-x="236" 
d="M87.5 217q-9.5 10 -9.5 25q0 19 13 32t32 13q15 0 25 -9.5t10 -24.5q0 -19 -13 -32.5t-32 -13.5q-16 0 -25.5 10z" />
    <glyph glyph-name="plus" unicode="+" horiz-adv-x="576" 
d="M275 267h-222v42h222v222h42v-222h222v-42h-222v-222h-42v222z" />
    <glyph glyph-name="minus" unicode="&#x2212;" horiz-adv-x="576" 
d="M53 309h486v-42h-486v42z" />
    <glyph glyph-name="multiply" unicode="&#xd7;" horiz-adv-x="576" 
d="M77 99l189 189l-189 189l30 29l189 -189l188 189l30 -29l-189 -189l189 -189l-30 -29l-188 189l-189 -189z" />
    <glyph glyph-name="divide" unicode="&#xf7;" horiz-adv-x="576" 
d="M272.5 457q-8.5 9 -8.5 23t8.5 23t23.5 9q14 0 23 -8.5t9 -23.5q0 -14 -9 -23t-23 -9q-15 0 -23.5 9zM66 308h459v-40h-459v40zM272.5 73q-8.5 9 -8.5 23t8.5 23t23.5 9q14 0 23 -9t9 -23t-9 -23t-23 -9q-15 0 -23.5 9z" />
    <glyph glyph-name="equal" unicode="=" horiz-adv-x="576" 
d="M53 411h486v-42h-486v42zM53 207h486v-42h-486v42z" />
    <glyph glyph-name="notequal" unicode="&#x2260;" horiz-adv-x="576" 
d="M146 35l65 132h-145v42h166l80 158h-246v42h267l75 151l37 -19l-66 -132h146v-42h-167l-79 -158h246v-42h-267l-74 -150z" />
    <glyph glyph-name="greater" unicode="&#x3e;" horiz-adv-x="576" 
d="M48 92l433 196l-433 196l18 40l473 -215v-42l-473 -215z" />
    <glyph glyph-name="less" unicode="&#x3c;" horiz-adv-x="576" 
d="M53 267v42l473 215l17 -40l-433 -196l433 -196l-17 -40z" />
    <glyph glyph-name="greaterequal" unicode="&#x2265;" horiz-adv-x="576" 
d="M61 167l407 189l-407 190l18 39l446 -208v-42l-446 -208zM66 42h459v-42h-459v42z" />
    <glyph glyph-name="lessequal" unicode="&#x2264;" horiz-adv-x="576" 
d="M66 335v42l447 208l17 -39l-407 -190l407 -189l-17 -40zM66 42h459v-42h-459v42z" />
    <glyph glyph-name="plusminus" unicode="&#xb1;" horiz-adv-x="576" 
d="M275 335h-222v42h222v222h42v-222h222v-42h-222v-222h-42v222zM53 42h486v-42h-486v42z" />
    <glyph glyph-name="approxequal" unicode="&#x2248;" horiz-adv-x="576" 
d="M345 351q-22 6 -54 19q-28 11 -48.5 17t-45.5 6q-32 0 -59 -11t-54 -34l-24 34q61 53 137 53q28 0 51.5 -6.5t51.5 -18.5q32 -12 51 -17.5t44 -5.5q32 0 59 11t53 34l24 -35q-61 -52 -136 -52q-28 0 -50 6zM345 147q-22 6 -54 19q-28 11 -48.5 17t-45.5 6q-33 0 -60 -11
t-53 -34l-24 35q61 52 137 52q28 0 51.5 -6.5t51.5 -18.5q32 -12 51 -17.5t44 -5.5q32 0 58.5 11t53.5 34l24 -34q-61 -53 -136 -53q-28 0 -50 6z" />
    <glyph glyph-name="logicalnot" unicode="&#xac;" horiz-adv-x="576" 
d="M496 267h-443v42h486v-264h-43v222z" />
    <glyph glyph-name="asciitilde" unicode="~" horiz-adv-x="576" 
d="M345 249q-22 6 -54 19q-28 11 -48.5 17t-45.5 6q-33 0 -60 -11t-53 -34l-24 34q61 53 137 53q28 0 51.5 -6.5t51.5 -18.5q32 -12 51 -17.5t44 -5.5q32 0 59 11t53 34l24 -34q-61 -53 -136 -53q-28 0 -50 6z" />
    <glyph glyph-name="infinity" unicode="&#x221e;" horiz-adv-x="761" 
d="M85.5 146.5q-38.5 42.5 -38.5 109.5q0 60 24 109.5t66.5 78t94.5 28.5q54 0 92 -35t68 -112q51 77 97.5 112t100.5 35q62 0 100.5 -42.5t38.5 -109.5q0 -60 -24 -109.5t-66.5 -78t-94.5 -28.5q-54 0 -92 35t-68 112q-51 -77 -97.5 -112t-100.5 -35q-62 0 -100.5 42.5z
M277.5 179.5q40.5 35.5 87.5 110.5q-26 76 -56.5 109t-75.5 33q-39 0 -71.5 -22.5t-51 -62t-18.5 -87.5q0 -53 28 -84.5t74 -31.5q43 0 83.5 35.5zM614.5 166.5q32.5 22.5 51 62t18.5 87.5q0 53 -28 84.5t-74 31.5q-43 0 -83.5 -35.5t-87.5 -110.5q26 -76 56.5 -109
t75.5 -33q39 0 71.5 22.5z" />
    <glyph glyph-name="integral" unicode="&#x222b;" horiz-adv-x="393" 
d="M16 -205l14 39q31 -13 58 -13q49 0 79.5 42.5t30.5 114.5q0 55 -6 113.5t-18 150.5q-12 86 -18.5 150.5t-6.5 123.5q0 91 43 145.5t112 54.5q39 0 76 -15l-14 -39q-31 13 -58 13q-49 0 -79.5 -42.5t-30.5 -114.5q0 -55 6 -113.5t18 -150.5q12 -86 18.5 -150.5t6.5 -123.5
q0 -91 -43 -145.5t-112 -54.5q-38 0 -76 15z" />
    <glyph glyph-name="uni2126" unicode="&#x2126;" horiz-adv-x="753" 
d="M22 41h192q-58 48 -91.5 117.5t-33.5 144.5q0 111 44.5 197.5t123 135t177.5 48.5q79 0 141.5 -32t98 -91t35.5 -138q0 -121 -64 -220.5t-180 -161.5h193l-6 -41h-259l6 35q126 64 193.5 163t67.5 219q0 68 -29.5 119.5t-81.5 79t-118 27.5q-83 0 -150 -44t-105 -122
t-38 -177q0 -74 35.5 -144t98.5 -121l-6 -35h-251z" />
    <glyph glyph-name="uni2206" unicode="&#x2206;" horiz-adv-x="655" 
d="M2 30l378 642h47l152 -643l-5 -29h-577zM530 41l-134 574l-339 -574h473z" />
    <glyph glyph-name="product" unicode="&#x220f;" horiz-adv-x="777" 
d="M192 704h556l-161 -912h-49l154 871h-459l-153 -871h-49z" />
    <glyph glyph-name="summation" unicode="&#x2211;" horiz-adv-x="627" 
d="M-25 -178l416 437l-251 411l6 34h519l-7 -41h-457l239 -394l-4 -27l-390 -409h481l-7 -41h-550z" />
    <glyph glyph-name="radical" unicode="&#x221a;" horiz-adv-x="652" 
d="M187 151l-170 -54l-12 40l209 67l120 -352l250 858l41 -11l-265 -907h-50z" />
    <glyph glyph-name="partialdiff" unicode="&#x2202;" 
d="M99.5 43.5q-52.5 55.5 -52.5 146.5q0 86 33 155.5t91 109.5t129 40q67 0 114 -36.5t59 -96.5q7 52 5 106q-2 83 -40 145.5t-120 62.5q-62 0 -129 -30l-14 37q78 33 147 33q73 0 118 -37t65 -94.5t20 -122.5q0 -153 -38 -259.5t-103 -160.5t-147 -54q-85 0 -137.5 55.5z
M350 66.5q48 37.5 76 101t28 137.5q0 66 -41.5 107.5t-107.5 41.5q-60 0 -108.5 -34t-76 -94t-27.5 -133t42 -118.5t108 -45.5q59 0 107 37.5z" />
    <glyph glyph-name="uni00B5" unicode="&#xb5;" horiz-adv-x="580" 
d="M130 483h48l-52 -296q-4 -32 -4 -46q0 -51 32 -81.5t85 -30.5q67 0 118 47.5t64 121.5l50 285h48l-70 -398q-2 -12 -2 -19q0 -37 40 -37q6 0 27 3l4 -39q-20 -5 -40 -5q-33 0 -54.5 19.5t-21.5 49.5q0 9 4 31q-30 -46 -77 -73t-96 -27q-47 0 -81.5 20.5t-47.5 55.5
l-48 -272h-48z" />
    <glyph glyph-name="percent" unicode="%" horiz-adv-x="864" 
d="M130 363q-38 39 -38 102q0 62 24.5 112t67.5 78.5t97 28.5q61 0 99 -39t38 -102q0 -62 -24.5 -112t-67.5 -78.5t-97 -28.5q-61 0 -99 39zM735 672h47l-620 -672h-46zM308 381q34 24 53 66t19 94q0 49 -28 79.5t-73 30.5q-42 0 -76 -24t-53 -66t-19 -94q0 -50 27.5 -80
t73.5 -30q42 0 76 24zM517 27q-38 39 -38 102q0 62 24.5 112t67.5 78.5t97 28.5q61 0 99 -39t38 -102q0 -62 -24 -112t-67 -78.5t-97 -28.5q-62 0 -100 39zM695 45q34 24 53 66t19 94q0 49 -28 79.5t-73 30.5q-42 0 -76 -24t-53 -66t-19 -94q0 -50 27.5 -80t73.5 -30
q42 0 76 24z" />
    <glyph glyph-name="perthousand" unicode="&#x2030;" horiz-adv-x="1241" 
d="M130 363q-38 39 -38 102q0 62 24.5 112t67.5 78.5t97 28.5q61 0 99 -39t38 -102q0 -62 -24.5 -112t-67.5 -78.5t-97 -28.5q-61 0 -99 39zM735 672h47l-620 -672h-46zM308 381q34 24 53 66t19 94q0 49 -28 79.5t-73 30.5q-42 0 -76 -24t-53 -66t-19 -94q0 -50 27.5 -80
t73.5 -30q42 0 76 24zM517 27q-38 39 -38 102q0 62 24.5 112t67.5 78.5t97 28.5q61 0 99 -39t38 -102q0 -62 -24 -112t-67 -78.5t-97 -28.5q-62 0 -100 39zM894 27q-38 39 -38 102q0 62 24.5 112t67.5 78.5t97 28.5q61 0 99 -39t38 -102q0 -62 -24.5 -112t-67.5 -78.5
t-97 -28.5q-61 0 -99 39zM695 45q34 24 53 66t19 94q0 49 -28 79.5t-73 30.5q-42 0 -76 -24t-53 -66t-19 -94q0 -50 27.5 -80t73.5 -30q42 0 76 24zM1071 45q34 24 53 66t19 94q0 50 -27.5 80t-73.5 30q-42 0 -76 -24t-53 -66t-19 -94q0 -49 28 -79.5t73 -30.5q42 0 76 24z
" />
    <glyph glyph-name="arrowup" unicode="&#x2191;" horiz-adv-x="960" 
d="M466 654l-259 -264l-32 33l313 313l313 -313l-32 -33l-259 264v-814h-44v814z" />
    <glyph glyph-name="arrowright" unicode="&#x2192;" horiz-adv-x="960" 
d="M590 7l264 259h-814v44h814l-264 259l33 32l313 -313l-313 -313z" />
    <glyph glyph-name="arrowdown" unicode="&#x2193;" horiz-adv-x="960" 
d="M175 153l32 33l259 -264v814h44v-814l259 264l32 -33l-313 -313z" />
    <glyph glyph-name="arrowleft" unicode="&#x2190;" horiz-adv-x="960" 
d="M39 288l313 313l33 -32l-263 -259h813v-44h-813l263 -259l-33 -32z" />
    <glyph glyph-name="lozenge" unicode="&#x25ca;" horiz-adv-x="576" 
d="M69 336l215 336h42l214 -336l-214 -336h-42zM490 336l-185 290l-186 -290l186 -292z" />
    <glyph glyph-name="uniF8FF" unicode="&#xf8ff;" horiz-adv-x="591" 
d="M100 659h391v-65h-326v-529h73v-65h-138v659zM230 267h196v66h-196v195h261v-65h-196v-65h196v-196h-261v65z" />
    <glyph glyph-name="at" unicode="@" horiz-adv-x="950" 
d="M229.5 -159.5q-85.5 44.5 -132 126t-46.5 189.5q0 150 64 271.5t177.5 190.5t253.5 69q108 0 189.5 -41.5t125.5 -117.5t44 -177q0 -91 -29 -166t-78.5 -118.5t-110.5 -43.5q-44 0 -70 23.5t-31 58.5q-27 -39 -67 -60.5t-87 -21.5q-69 0 -111.5 45t-42.5 119q0 77 28 139
t76.5 97.5t109.5 35.5q47 0 82 -24.5t48 -67.5l21 82h40l-54 -306q-2 -12 -2 -20q0 -29 18.5 -45.5t48.5 -16.5q46 0 85 37.5t62 103t23 144.5q0 92 -39 160t-111.5 105t-170.5 37q-127 0 -230 -63.5t-162 -175t-59 -250.5q0 -98 41.5 -171.5t118 -113.5t179.5 -40
q62 0 127.5 17t123.5 48l15 -34q-64 -34 -133 -51.5t-136 -17.5q-113 0 -198.5 44.5zM540 98.5q41 35.5 51 94.5l14 81q4 20 4 33q0 50 -31 81.5t-80 31.5t-88 -30t-61.5 -82t-22.5 -116q0 -58 32.5 -93.5t84.5 -35.5q56 0 97 35.5z" />
    <glyph glyph-name="ampersand" unicode="&#x26;" horiz-adv-x="617" 
d="M85.5 34q-50.5 46 -50.5 119q0 68 52 129t145 102q-61 77 -61 142q0 45 21.5 81t60 56.5t86.5 20.5q59 0 94.5 -31.5t35.5 -85.5q0 -107 -177 -193l157 -215q55 80 69 164h42q-19 -104 -87 -197l93 -126h-53l-72 97q-50 -52 -108.5 -80.5t-112.5 -28.5q-84 0 -134.5 46z
M426 563q0 38 -24 60t-66 22q-52 0 -86.5 -33.5t-34.5 -84.5q0 -56 55 -125q156 74 156 161zM324 54q51 27 95 75l-165 225q-82 -36 -127.5 -87.5t-45.5 -107.5q0 -59 39.5 -95.5t106.5 -36.5q46 0 97 27z" />
    <glyph glyph-name="paragraph" unicode="&#xb6;" horiz-adv-x="564" 
d="M480 630h-109l-63 -356h-30q-88 0 -140 47.5t-52 127.5q0 62 33 113t89.5 80.5t125.5 29.5h195l-146 -832h-43z" />
    <glyph glyph-name="section" unicode="&#xa7;" horiz-adv-x="513" 
d="M96 -158.5q-55 13.5 -106 39.5l17 38q103 -50 192 -50q67 0 109 33.5t42 88.5q0 32 -17.5 54.5t-43.5 36.5t-71 33q-49 20 -80 37t-52 46t-21 72q0 52 32 91.5t86 55.5q-56 40 -56 106q0 46 24.5 82.5t68.5 57.5t100 21q100 0 199 -46l-18 -39q-94 44 -180 44
q-64 0 -104.5 -33.5t-40.5 -84.5q0 -31 17 -52.5t43 -35.5t69 -31q51 -21 81.5 -38.5t52 -47t21.5 -74.5q0 -53 -31 -92.5t-83 -56.5q52 -40 52 -104q0 -48 -25 -85.5t-70 -58.5t-102 -21q-50 0 -105 13.5zM382.5 165.5q28.5 31.5 28.5 76.5q0 34 -17.5 57t-43.5 37t-69 32
q-30 11 -56 24q-50 -9 -80.5 -41.5t-30.5 -76.5q0 -33 17.5 -55.5t43 -36.5t69.5 -32q39 -15 62 -27q48 11 76.5 42.5z" />
    <glyph glyph-name="copyright" unicode="&#xa9;" horiz-adv-x="832" 
d="M241.5 15q-83.5 47 -130.5 130.5t-47 190.5t47 190.5t130.5 130.5t190.5 47t190.5 -47t130.5 -130.5t47 -190.5t-47 -190.5t-130.5 -130.5t-190.5 -47t-190.5 47zM607 41q77 43 120 120t43 175t-43 175t-120 120t-175 43t-175 -43t-120 -120t-43 -175t43 -175t120 -120
t175 -43t175 43zM339 147.5q-46 27.5 -71.5 76.5t-25.5 112t25.5 112t71.5 76.5t105 27.5q71 0 137 -45l-19 -28q-54 39 -114 39q-74 0 -120 -50.5t-46 -131.5t46 -131.5t120 -50.5q60 0 114 39l19 -28q-66 -45 -137 -45q-59 0 -105 27.5z" />
    <glyph glyph-name="registered" unicode="&#xae;" horiz-adv-x="832" 
d="M241.5 15q-83.5 47 -130.5 130.5t-47 190.5t47 190.5t130.5 130.5t190.5 47t190.5 -47t130.5 -130.5t47 -190.5t-47 -190.5t-130.5 -130.5t-190.5 -47t-190.5 47zM607 41q77 43 120 120t43 175t-43 175t-120 120t-175 43t-175 -43t-120 -120t-43 -175t43 -175t120 -120
t175 -43t175 43zM302 544h153q57 0 94.5 -34t37.5 -88q0 -48 -30 -81t-78 -38l122 -175h-44l-115 171h-103v-171h-37v416zM451 330q44 0 71 25t27 66q0 40 -27 65.5t-71 25.5h-112v-182h112z" />
    <glyph glyph-name="uni2117" unicode="&#x2117;" horiz-adv-x="832" 
d="M241.5 15q-83.5 47 -130.5 130.5t-47 190.5t47 190.5t130.5 130.5t190.5 47t190.5 -47t130.5 -130.5t47 -190.5t-47 -190.5t-130.5 -130.5t-190.5 -47t-190.5 47zM607 41q77 43 120 120t43 175t-43 175t-120 120t-175 43t-175 -43t-120 -120t-43 -175t43 -175t120 -120
t175 -43t175 43zM311 544h152q60 0 98 -35.5t38 -93.5q0 -57 -38 -92.5t-98 -35.5h-115v-159h-37v416zM460 319q45 0 73.5 26.5t28.5 69.5t-28.5 70t-73.5 27h-112v-193h112z" />
    <glyph glyph-name="trademark" unicode="&#x2122;" horiz-adv-x="935" 
d="M215 639h-149v33h337v-33h-149v-383h-39v383zM505 672h39l158 -214l158 214h39v-416h-36v362l-149 -202h-24l-149 202v-362h-36v416z" />
    <glyph glyph-name="uni2105" unicode="&#x2105;" horiz-adv-x="830" 
d="M111 11l622 674l25 -24l-622 -674zM124 380q-38 37 -38 96q0 57 23.5 104t64.5 73.5t93 26.5q57 0 105 -33l-19 -28q-40 28 -85 28q-40 0 -72.5 -22t-51 -60t-18.5 -85q0 -46 28.5 -75t72.5 -29q46 0 89 26l14 -28q-50 -31 -109 -31t-97 37zM500.5 28.5
q-36.5 36.5 -36.5 96.5q0 58 23 104.5t64 73t93 26.5q59 0 95.5 -36.5t36.5 -95.5q0 -58 -23 -105t-64 -73.5t-93 -26.5q-59 0 -95.5 36.5zM669.5 46q31.5 22 49.5 61t18 87q0 46 -27 75t-70 29q-39 0 -70 -22t-49 -61t-18 -87q0 -47 26.5 -75.5t69.5 -28.5q39 0 70.5 22z
" />
    <glyph glyph-name="degree" unicode="&#xb0;" horiz-adv-x="326" 
d="M135.5 483.5q-26.5 26.5 -26.5 69.5q0 55 36.5 91.5t91.5 36.5q43 0 69.5 -26.5t26.5 -69.5q0 -55 -36.5 -91.5t-91.5 -36.5q-43 0 -69.5 26.5zM275.5 514.5q26.5 26.5 26.5 65.5q0 32 -19 51t-50 19q-39 0 -66 -27t-27 -66q0 -31 19 -50t50 -19q40 0 66.5 26.5z" />
    <glyph glyph-name="bar" unicode="|" horiz-adv-x="240" 
d="M99 736h42v-960h-42v960z" />
    <glyph glyph-name="brokenbar" unicode="&#xa6;" horiz-adv-x="240" 
d="M99 688h42v-384h-42v384zM99 208h42v-384h-42v384z" />
    <glyph glyph-name="dagger" unicode="&#x2020;" horiz-adv-x="486" 
d="M261 455h-178l7 39h178l31 178h39l-31 -178h178l-7 -39h-178l-80 -455h-39z" />
    <glyph glyph-name="uni2113" unicode="&#x2113;" horiz-adv-x="366" 
d="M96 17.5q-32 29.5 -32 77.5q0 12 4 36l79 443q11 66 48 104t92 38q48 0 78 -32t30 -83q0 -92 -70 -183t-189 -153l-23 -132q-4 -22 -4 -33q0 -32 22.5 -51.5t58.5 -19.5q34 0 69 7l4 -39q-37 -9 -83 -9q-52 0 -84 29.5zM299.5 443q56.5 75 56.5 151q0 37 -18.5 59
t-50.5 22q-37 0 -62.5 -27.5t-33.5 -76.5l-46 -258q98 55 154.5 130z" />
    <glyph glyph-name="daggerdbl" unicode="&#x2021;" horiz-adv-x="486" 
d="M212 178h-178l7 39h178l42 238h-178l7 39h178l31 178h39l-31 -178h178l-7 -39h-178l-42 -238h178l-7 -39h-178l-31 -178h-39z" />
    <glyph glyph-name="estimated" unicode="&#x212e;" horiz-adv-x="960" 
d="M303.5 31.5q-88.5 47.5 -140 128.5t-51.5 176t51.5 176t140 128.5t192.5 47.5t192.5 -47.5t140 -128.5t51.5 -176q0 -11 -1 -16h-623v-196q44 -51 106.5 -79.5t133.5 -28.5q72 0 135 29.5t108 82.5h66q-54 -67 -135 -105.5t-174 -38.5q-104 0 -192.5 47.5zM736 352v196
q-45 51 -107.5 79.5t-132.5 28.5q-71 0 -133.5 -28.5t-106.5 -79.5v-196h480z" />
    <glyph glyph-name="uni2116" unicode="&#x2116;" horiz-adv-x="1127" 
d="M859.5 380.5q-36.5 36.5 -36.5 96.5q0 58 23 104.5t64 73t93 26.5q59 0 95.5 -36.5t36.5 -95.5q0 -58 -23 -105t-64 -73.5t-93 -26.5q-59 0 -95.5 36.5zM186 672h47l316 -600l106 600h46l-118 -672h-47l-316 600l-106 -600h-46zM1028.5 398q31.5 22 49.5 61t18 87
q0 46 -27 75t-70 29q-39 0 -70 -22t-49 -61t-18 -87q0 -47 26.5 -75.5t69.5 -28.5q39 0 70.5 22zM789 270h301l-5 -31h-301z" />
    <glyph glyph-name="asciicircum" unicode="^" horiz-adv-x="576" 
d="M96 222l208 450h42l208 -450l-40 -16l-189 409l-190 -409z" />
    <glyph glyph-name="uni2120" unicode="&#x2120;" horiz-adv-x="921" 
d="M83 280l12 31q69 -30 131 -30q49 0 78 21.5t29 57.5q0 27 -15 43.5t-37 26t-60 20.5q-45 14 -71 25.5t-44.5 34.5t-18.5 61q0 48 39 78.5t102 30.5t132 -28l-12 -31q-66 26 -118 26q-47 0 -75.5 -21.5t-28.5 -54.5q0 -26 14.5 -42t36.5 -25.5t60 -20.5q44 -13 70.5 -25
t45.5 -35.5t19 -62.5q0 -50 -39.5 -81t-104.5 -31q-73 0 -145 32zM491 672h39l158 -214l158 214h40v-416h-37v362l-149 -202h-24l-149 202v-362h-36v416z" />
    <glyph glyph-name="uni0308" unicode="&#x308;" horiz-adv-x="0" 
d="M-180 610.5q-8 8.5 -8 21.5q0 17 11.5 28.5t28.5 11.5q13 0 21.5 -8t8.5 -22q0 -17 -11.5 -28.5t-28.5 -11.5q-14 0 -22 8.5zM20.5 610.5q-8.5 8.5 -8.5 21.5q0 17 12 28.5t29 11.5q13 0 21.5 -8.5t8.5 -21.5q0 -17 -11.5 -28.5t-28.5 -11.5q-14 0 -22.5 8.5z" />
    <glyph glyph-name="uni0307" unicode="&#x307;" horiz-adv-x="0" 
d="M-81 609q-9 9 -9 23q0 18 12.5 30t29.5 12q14 0 23 -9t9 -23q0 -17 -12 -29.5t-30 -12.5q-14 0 -23 9z" />
    <glyph glyph-name="gravecomb" unicode="&#x300;" horiz-adv-x="0" 
d="M-180 668l24 32l151 -109l-20 -28z" />
    <glyph glyph-name="acutecomb" unicode="&#x301;" horiz-adv-x="0" 
d="M-109 591l171 109l20 -35l-174 -102z" />
    <glyph glyph-name="uni030B" unicode="&#x30b;" horiz-adv-x="0" 
d="M-185 589l152 134l26 -31l-156 -130zM-7 589l152 134l26 -31l-156 -130z" />
    <glyph glyph-name="uni0302" unicode="&#x302;" horiz-adv-x="0" 
d="M-203 591l143 116h33l100 -120l-25 -22l-95 105l-136 -106z" />
    <glyph glyph-name="uni030C" unicode="&#x30c;" horiz-adv-x="0" 
d="M-179 687l25 22l94 -105l137 106l19 -27l-142 -116h-33z" />
    <glyph glyph-name="uni0306" unicode="&#x306;" horiz-adv-x="0" 
d="M-146.5 588.5q-33.5 29.5 -33.5 77.5q0 11 2 25h34q-1 -6 -1 -17q0 -36 23.5 -57t63.5 -21q44 0 77 26t42 69h35q-10 -60 -53 -96t-103 -36q-53 0 -86.5 29.5z" />
    <glyph glyph-name="uni030A" unicode="&#x30a;" horiz-adv-x="0" 
d="M-124.5 567q-22.5 22 -22.5 57q0 44 31 74.5t77 30.5q35 0 57.5 -22t22.5 -56q0 -45 -31 -75.5t-76 -30.5q-36 0 -58.5 22zM-9.5 593.5q21.5 21.5 21.5 53.5q0 25 -15 40t-40 15q-31 0 -52.5 -21.5t-21.5 -53.5q0 -25 14.5 -40t39.5 -15q32 0 53.5 21.5z" />
    <glyph glyph-name="tildecomb" unicode="&#x303;" horiz-adv-x="0" 
d="M-196 611q11 29 33 46.5t49 17.5q17 0 31 -5t37 -16q18 -9 30.5 -13.5t25.5 -4.5q16 0 29.5 10.5t20.5 28.5l32 -12q-12 -28 -34 -45.5t-49 -17.5q-17 0 -32.5 5t-34.5 15q-21 10 -32 14t-24 4q-17 0 -30.5 -10t-20.5 -28z" />
    <glyph glyph-name="uni0304" unicode="&#x304;" horiz-adv-x="0" 
d="M-191 655h284l-7 -36h-283z" />
    <glyph glyph-name="uni0326" unicode="&#x326;" horiz-adv-x="0" 
d="M-268 -261q74 48 84 110q-14 -3 -24 4.5t-10 21.5q0 17 12 28.5t29 11.5q15 0 24 -11.5t9 -31.5q0 -41 -30 -83t-80 -71z" />
    <glyph glyph-name="uni0327" unicode="&#x327;" horiz-adv-x="0" 
d="M-291 -198l14 30q40 -19 74 -19q29 0 48 15t19 38q0 20 -17 33t-42 13h-7l30 88h36l-22 -65q29 -5 45.5 -23.5t16.5 -46.5q0 -37 -29.5 -61t-75.5 -24q-41 0 -90 22z" />
    <glyph glyph-name="uni0328" unicode="&#x328;" horiz-adv-x="0" 
d="M-277.5 -201q-20.5 19 -20.5 51q0 39 34 81t97 80l29 -11q-58 -38 -89.5 -75t-31.5 -68q0 -20 13 -32t34 -12q22 0 43 8l8 -31q-32 -10 -62 -10q-34 0 -54.5 19z" />
    <glyph glyph-name="uni0308.case" horiz-adv-x="0" 
d="M-147 799.5q-8 8.5 -8 21.5q0 17 11.5 28.5t28.5 11.5q13 0 21.5 -8t8.5 -22q0 -17 -11.5 -28.5t-28.5 -11.5q-14 0 -22 8.5zM53.5 799.5q-8.5 8.5 -8.5 21.5q0 17 12 28.5t29 11.5q13 0 21.5 -8.5t8.5 -21.5q0 -17 -11.5 -28.5t-28.5 -11.5q-14 0 -22.5 8.5z" />
    <glyph glyph-name="uni0307.case" horiz-adv-x="0" 
d="M-48 798q-9 9 -9 23q0 18 12.5 30t29.5 12q14 0 23 -9t9 -23q0 -17 -12 -29.5t-30 -12.5q-14 0 -23 9z" />
    <glyph glyph-name="gravecomb.case" horiz-adv-x="0" 
d="M-147 857l24 32l151 -109l-20 -28z" />
    <glyph glyph-name="acutecomb.case" horiz-adv-x="0" 
d="M-76 780l171 109l20 -35l-174 -102z" />
    <glyph glyph-name="uni030B.case" horiz-adv-x="0" 
d="M-152 778l152 134l26 -31l-156 -130zM26 778l152 134l26 -31l-156 -130z" />
    <glyph glyph-name="uni0302.case" horiz-adv-x="0" 
d="M-170 780l143 116h33l100 -120l-25 -22l-95 105l-136 -106z" />
    <glyph glyph-name="uni030C.case" horiz-adv-x="0" 
d="M-146 876l25 22l94 -105l137 106l19 -27l-142 -116h-33z" />
    <glyph glyph-name="uni0306.case" horiz-adv-x="0" 
d="M-113.5 777.5q-33.5 29.5 -33.5 77.5q0 11 2 25h34q-1 -6 -1 -17q0 -36 23.5 -57t63.5 -21q44 0 77 26t42 69h35q-10 -60 -53 -96t-103 -36q-53 0 -86.5 29.5z" />
    <glyph glyph-name="uni030A.case" horiz-adv-x="0" 
d="M-91.5 756q-22.5 22 -22.5 57q0 44 31 74.5t77 30.5q35 0 57.5 -22t22.5 -56q0 -45 -31 -75.5t-76 -30.5q-36 0 -58.5 22zM23.5 782.5q21.5 21.5 21.5 53.5q0 25 -15 40t-40 15q-31 0 -52.5 -21.5t-21.5 -53.5q0 -25 14.5 -40t39.5 -15q32 0 53.5 21.5z" />
    <glyph glyph-name="tildecomb.case" horiz-adv-x="0" 
d="M-163 800q11 29 33 46.5t49 17.5q17 0 31 -5t37 -16q18 -9 30.5 -13.5t25.5 -4.5q16 0 29.5 10.5t20.5 28.5l32 -12q-12 -28 -34 -45.5t-49 -17.5q-17 0 -32.5 5t-34.5 15q-21 10 -32 14t-24 4q-17 0 -30.5 -10t-20.5 -28z" />
    <glyph glyph-name="uni0304.case" horiz-adv-x="0" 
d="M-158 844h284l-7 -36h-283z" />
    <glyph glyph-name="acutecomb.loclPLK" horiz-adv-x="0" 
d="M-87 569l71 136l36 -20l-77 -133z" />
    <glyph glyph-name="acutecomb.case.loclPLK" horiz-adv-x="0" 
d="M-46 764l71 136l36 -20l-77 -133z" />
    <glyph glyph-name="acute" unicode="&#xb4;" horiz-adv-x="240" 
d="M131 591l171 109l20 -35l-174 -102z" />
    <glyph glyph-name="breve" unicode="&#x2d8;" horiz-adv-x="240" 
d="M93.5 588.5q-33.5 29.5 -33.5 77.5q0 11 2 25h34q-1 -6 -1 -17q0 -36 23.5 -57t63.5 -21q44 0 77 26t42 69h35q-10 -60 -53 -96t-103 -36q-53 0 -86.5 29.5z" />
    <glyph glyph-name="caron" unicode="&#x2c7;" horiz-adv-x="240" 
d="M61 687l25 22l94 -105l137 106l19 -27l-142 -116h-33z" />
    <glyph glyph-name="cedilla" unicode="&#xb8;" horiz-adv-x="240" 
d="M-51 -198l14 30q40 -19 74 -19q29 0 48 15t19 38q0 20 -17 33t-42 13h-7l30 88h36l-22 -65q29 -5 45.5 -23.5t16.5 -46.5q0 -37 -29.5 -61t-75.5 -24q-41 0 -90 22z" />
    <glyph glyph-name="circumflex" unicode="&#x2c6;" horiz-adv-x="240" 
d="M37 591l143 116h33l100 -120l-25 -22l-95 105l-136 -106z" />
    <glyph glyph-name="dieresis" unicode="&#xa8;" horiz-adv-x="240" 
d="M60.5 610.5q-8.5 8.5 -8.5 21.5q0 17 11.5 28.5t28.5 11.5q14 0 22 -8t8 -22q0 -17 -11.5 -28.5t-28.5 -11.5q-13 0 -21.5 8.5zM260.5 610.5q-8.5 8.5 -8.5 21.5q0 17 12 28.5t29 11.5q13 0 21.5 -8.5t8.5 -21.5q0 -17 -11.5 -28.5t-28.5 -11.5q-14 0 -22.5 8.5z" />
    <glyph glyph-name="dotaccent" unicode="&#x2d9;" horiz-adv-x="240" 
d="M159 609q-9 9 -9 23q0 18 12.5 30t29.5 12q14 0 23 -9t9 -23q0 -17 -12 -29.5t-30 -12.5q-14 0 -23 9z" />
    <glyph glyph-name="grave" unicode="`" horiz-adv-x="240" 
d="M60 668l24 32l151 -109l-20 -28z" />
    <glyph glyph-name="hungarumlaut" unicode="&#x2dd;" horiz-adv-x="240" 
d="M55 589l152 134l26 -31l-156 -130zM233 589l152 134l26 -31l-156 -130z" />
    <glyph glyph-name="macron" unicode="&#xaf;" horiz-adv-x="240" 
d="M49 655h284l-7 -36h-283z" />
    <glyph glyph-name="ogonek" unicode="&#x2db;" horiz-adv-x="240" 
d="M-37.5 -201q-20.5 19 -20.5 51q0 39 34 81t97 80l29 -11q-58 -38 -89.5 -75t-31.5 -68q0 -20 13 -32t34 -12q22 0 43 8l8 -31q-32 -10 -62 -10q-34 0 -54.5 19z" />
    <glyph glyph-name="ring" unicode="&#x2da;" horiz-adv-x="240" 
d="M115.5 567q-22.5 22 -22.5 57q0 44 31 74.5t77 30.5q35 0 57.5 -22t22.5 -56q0 -45 -31 -75.5t-76 -30.5q-36 0 -58.5 22zM230.5 593.5q21.5 21.5 21.5 53.5q0 25 -15 40t-40 15q-31 0 -52.5 -21.5t-21.5 -53.5q0 -25 14.5 -40t39.5 -15q32 0 53.5 21.5z" />
    <glyph glyph-name="tilde" unicode="&#x2dc;" horiz-adv-x="240" 
d="M44 611q11 29 33 46.5t49 17.5q17 0 31 -5t37 -16q18 -9 30.5 -13.5t25.5 -4.5q16 0 29.5 10.5t20.5 28.5l32 -12q-12 -28 -34 -45.5t-49 -17.5q-17 0 -32.5 5t-34.5 15q-21 10 -32 14t-24 4q-17 0 -30.5 -10t-20.5 -28z" />
    <glyph glyph-name="acute.case" horiz-adv-x="240" 
d="M164 780l171 109l20 -35l-174 -102z" />
    <glyph glyph-name="breve.case" horiz-adv-x="240" 
d="M126.5 777.5q-33.5 29.5 -33.5 77.5q0 11 2 25h34q-1 -6 -1 -17q0 -36 23.5 -57t63.5 -21q44 0 77 26t42 69h35q-10 -60 -53 -96t-103 -36q-53 0 -86.5 29.5z" />
    <glyph glyph-name="caron.case" horiz-adv-x="240" 
d="M94 876l25 22l94 -105l137 106l19 -27l-142 -116h-33z" />
    <glyph glyph-name="circumflex.case" horiz-adv-x="240" 
d="M70 780l143 116h33l100 -120l-25 -22l-95 105l-136 -106z" />
    <glyph glyph-name="dieresis.case" horiz-adv-x="240" 
d="M93 799.5q-8 8.5 -8 21.5q0 17 11.5 28.5t28.5 11.5q13 0 21.5 -8t8.5 -22q0 -17 -11.5 -28.5t-28.5 -11.5q-14 0 -22 8.5zM293.5 799.5q-8.5 8.5 -8.5 21.5q0 17 12 28.5t29 11.5q13 0 21.5 -8.5t8.5 -21.5q0 -17 -11.5 -28.5t-28.5 -11.5q-14 0 -22.5 8.5z" />
    <glyph glyph-name="dotaccent.case" horiz-adv-x="240" 
d="M192 798q-9 9 -9 23q0 18 12.5 30t29.5 12q14 0 23 -9t9 -23q0 -17 -12 -29.5t-30 -12.5q-14 0 -23 9z" />
    <glyph glyph-name="grave.case" horiz-adv-x="240" 
d="M93 857l24 32l151 -109l-20 -28z" />
    <glyph glyph-name="hungarumlaut.case" horiz-adv-x="240" 
d="M88 778l152 134l26 -31l-156 -130zM266 778l152 134l26 -31l-156 -130z" />
    <glyph glyph-name="macron.case" horiz-adv-x="240" 
d="M82 844h284l-7 -36h-283z" />
    <glyph glyph-name="ring.case" horiz-adv-x="240" 
d="M148.5 756q-22.5 22 -22.5 57q0 44 31 74.5t77 30.5q35 0 57.5 -22t22.5 -56q0 -45 -31 -75.5t-76 -30.5q-36 0 -58.5 22zM263.5 782.5q21.5 21.5 21.5 53.5q0 25 -15 40t-40 15q-31 0 -52.5 -21.5t-21.5 -53.5q0 -25 14.5 -40t39.5 -15q32 0 53.5 21.5z" />
    <glyph glyph-name="tilde.case" horiz-adv-x="240" 
d="M77 800q11 29 33 46.5t49 17.5q17 0 31 -5t37 -16q18 -9 30.5 -13.5t25.5 -4.5q16 0 29.5 10.5t20.5 28.5l32 -12q-12 -28 -34 -45.5t-49 -17.5q-17 0 -32.5 5t-34.5 15q-21 10 -32 14t-24 4q-17 0 -30.5 -10t-20.5 -28z" />
	g2="cent.lf"
	k="16" />
  </font>
</defs>
</svg>
