<?xml version="1.0" standalone="no"?>
<!DOCTYPE svg PUBLIC "-//W3C//DTD SVG 1.1//EN" "http://www.w3.org/Graphics/SVG/1.1/DTD/svg11.dtd" >
<svg xmlns="http://www.w3.org/2000/svg">
<metadata>
FS Thrive Elliot is a licensed version of FS Elliot Copyright (c) 2015 by Fontsmith Ltd for Alight. All rights reserved. This font may not be altered in any way without prior permission of Fontsmith Ltd.
</metadata>
<defs>
<font id="FSThriveElliotWeb-BoldItalic" horiz-adv-x="585" >
  <font-face 
    font-family="FS Thrive Elliot Web Bold It"
    font-weight="700"
    font-style="italic"
    font-stretch="normal"
    units-per-em="1000"
    panose-1="2 6 4 3 3 2 2 9 2 4"
    ascent="800"
    descent="-200"
    x-height="490"
    cap-height="672"
    bbox="-314 -308 1250 946"
    underline-thickness="98"
    underline-position="-2"
    slope="-10"
    unicode-range="U+000D-FB04"
  />
<missing-glyph horiz-adv-x="500" 
d="M28 672h476v-672h-476v672zM428 624h-324l162 -244zM238 336l-162 244v-488zM456 580l-162 -244l162 -244v488zM428 48l-162 244l-162 -244h324z" />
    <glyph glyph-name="fi" unicode="fi" horiz-adv-x="620" 
d="M140 393h-92l17 97h92l11 61q14 77 71.5 121t142.5 44q77 0 183 -44l-42 -92q-40 17 -71.5 26.5t-59.5 9.5q-38 0 -65 -20.5t-33 -54.5l-9 -51h312l-86 -490h-128l69 393h-184l-70 -393h-128z" />
    <glyph glyph-name="fl" unicode="fl" horiz-adv-x="668" 
d="M438.5 19.5q-34.5 31.5 -34.5 83.5q0 18 3 37l82 460q-59 16 -99 16q-38 0 -64 -20.5t-32 -54.5l-9 -51h119l-18 -97h-119l-69 -393h-128l69 393h-92l18 97h92l11 61q14 78 71.5 121.5t147.5 43.5q51 0 109.5 -11t132.5 -31l-93 -528l-2 -20q0 -17 10.5 -26.5t28.5 -9.5
q9 0 39 5l6 -98q-54 -9 -87 -9q-58 0 -92.5 31.5z" />
    <glyph glyph-name="f_b.liga" unicode="fb" horiz-adv-x="946" 
d="M574 8.5q-37 20.5 -57 57.5l-27 -66h-107l106 600q-59 16 -99 16q-38 0 -64 -20.5t-32 -54.5l-9 -51h119l-18 -97h-119l-69 -393h-128l69 393h-92l18 97h92l11 61q14 78 71.5 121.5t147.5 43.5q51 0 109.5 -11t132.5 -31l-41 -233q27 30 63 45.5t78 15.5q85 0 135 -53.5
t50 -144.5q0 -90 -33 -162t-92 -113t-132 -41q-46 0 -83 20.5zM712.5 118q33.5 25 52 70t18.5 101q0 48 -28 78t-72 30q-46 0 -81 -31t-44 -82l-11 -64q-3 -15 -3 -31q0 -43 26 -69.5t67 -26.5q42 0 75.5 25z" />
    <glyph glyph-name="f_f.liga" unicode="ff" horiz-adv-x="711" 
d="M139 393h-92l18 97h92l14 82q12 66 60.5 105t118.5 39q49 0 120 -23l-38 -95q-43 16 -67 16q-26 0 -45 -16.5t-24 -42.5l-11 -65h200l15 82q12 66 60.5 105t118.5 39q50 0 119 -23l-37 -95q-43 16 -67 16q-26 0 -45 -16.5t-24 -42.5l-12 -65h120l-18 -97h-119l-69 -393
h-128l69 393h-201l-69 -393h-128z" />
    <glyph glyph-name="f_f_b.liga" unicode="ffb" horiz-adv-x="1274" 
d="M902.5 8.5q-37.5 20.5 -56.5 57.5l-28 -66h-106l106 600q-59 16 -99 16q-39 0 -64.5 -20.5t-31.5 -54.5l-10 -51h120l-18 -97h-119l-69 -393h-128l69 393h-201l-69 -393h-128l69 393h-92l18 97h92l14 82q12 66 60.5 105t118.5 39q49 0 120 -23l-38 -95q-43 16 -67 16
q-26 0 -45 -16.5t-24 -42.5l-11 -65h200l12 61q14 78 71 121.5t148 43.5q50 0 108.5 -11t133.5 -31l-41 -233q27 30 63 45.5t78 15.5q85 0 134.5 -53.5t49.5 -144.5q0 -90 -33 -162t-91.5 -113t-131.5 -41q-46 0 -83.5 20.5zM1040.5 118q33.5 25 52.5 70t19 101q0 48 -28 78
t-72 30q-46 0 -81 -31t-44 -82l-11 -64q-3 -15 -3 -31q0 -43 25.5 -69.5t66.5 -26.5q42 0 75.5 25z" />
    <glyph glyph-name="f_f_h.liga" unicode="ffh" horiz-adv-x="1274" 
d="M139 393h-92l18 97h92l14 82q12 66 60.5 105t118.5 39q49 0 120 -23l-38 -95q-43 16 -67 16q-26 0 -45 -16.5t-24 -42.5l-11 -65h200l12 61q14 78 71 121.5t148 43.5q50 0 108.5 -11t133.5 -31l-42 -238q29 31 68.5 48.5t82.5 17.5q72 0 117.5 -43t45.5 -112
q0 -25 -5 -55l-52 -292h-128l51 285q3 15 3 33q0 36 -22.5 57.5t-60.5 21.5q-48 0 -83 -33t-44 -86l-49 -278h-128l106 600q-59 16 -99 16q-39 0 -64.5 -20.5t-31.5 -54.5l-10 -51h120l-18 -97h-119l-69 -393h-128l69 393h-201l-69 -393h-128z" />
    <glyph glyph-name="f_f_i.liga" unicode="ffi" horiz-adv-x="948" 
d="M139 393h-92l18 97h92l14 82q12 66 60.5 105t118.5 39q49 0 120 -23l-38 -95q-43 16 -67 16q-26 0 -45 -16.5t-24 -42.5l-11 -65h200l12 61q14 77 71.5 121t142.5 44q78 0 182 -44l-41 -92q-40 17 -71.5 26.5t-59.5 9.5q-38 0 -65 -20.5t-33 -54.5l-10 -51h313l-86 -490
h-128l69 393h-185l-69 -393h-128l69 393h-201l-69 -393h-128z" />
    <glyph glyph-name="f_f_j.liga" unicode="ffj" horiz-adv-x="948" 
d="M528 -197l37 94q45 -15 67 -15q26 0 45 16.5t24 42.5l80 452h-185l-69 -393h-128l69 393h-201l-69 -393h-128l69 393h-92l18 97h92l14 82q12 66 60.5 105t118.5 39q49 0 120 -23l-38 -95q-43 16 -67 16q-26 0 -45 -16.5t-24 -42.5l-11 -65h200l12 61q14 77 71.5 121
t142.5 44q78 0 182 -44l-41 -92q-40 17 -71.5 26.5t-59.5 9.5q-38 0 -65 -20.5t-33 -54.5l-10 -51h313l-100 -566q-12 -66 -60 -105t-118 -39q-51 0 -120 23z" />
    <glyph glyph-name="f_f_k.liga" unicode="ffk" horiz-adv-x="1213" 
d="M139 393h-92l18 97h92l14 82q12 66 60.5 105t118.5 39q49 0 120 -23l-38 -95q-43 16 -67 16q-26 0 -45 -16.5t-24 -42.5l-11 -65h200l12 61q14 78 71 121.5t148 43.5q50 0 108 -11t129 -31l-68 -386l219 202h146l-249 -229l166 -261h-140l-117 191l-50 -45l-26 -146h-122
l106 600q-59 16 -99 16q-39 0 -64.5 -20.5t-31.5 -54.5l-10 -51h120l-18 -97h-119l-69 -393h-128l69 393h-201l-69 -393h-128z" />
    <glyph glyph-name="f_f_l.liga" unicode="ffl" horiz-adv-x="996" 
d="M767.5 19.5q-34.5 31.5 -34.5 83.5q0 18 3 37l82 460q-59 16 -99 16q-39 0 -64.5 -20.5t-31.5 -54.5l-10 -51h120l-18 -97h-119l-69 -393h-128l69 393h-201l-69 -393h-128l69 393h-92l18 97h92l14 82q12 66 60.5 105t118.5 39q49 0 120 -23l-38 -95q-43 16 -67 16
q-26 0 -45 -16.5t-24 -42.5l-11 -65h200l12 61q14 78 71 121.5t148 43.5q50 0 108.5 -11t133.5 -31l-93 -528q-3 -10 -3 -20q0 -17 11 -26.5t29 -9.5q9 0 39 5l6 -98q-54 -9 -87 -9q-58 0 -92.5 31.5z" />
    <glyph glyph-name="f_h.liga" unicode="fh" horiz-adv-x="945" 
d="M139 393h-92l18 97h92l11 61q14 78 71.5 121.5t147.5 43.5q51 0 109.5 -11t132.5 -31l-41 -238q29 32 68 49t82 17q72 0 117.5 -43t45.5 -112q0 -25 -5 -55l-51 -292h-128l50 285q3 15 3 33q0 37 -22.5 58t-60.5 21q-48 0 -83 -33t-44 -86l-49 -278h-128l106 600
q-59 16 -99 16q-38 0 -64 -20.5t-32 -54.5l-9 -51h119l-18 -97h-119l-69 -393h-128z" />
    <glyph glyph-name="f_j.liga" unicode="fj" horiz-adv-x="619" 
d="M198 -197l38 94q43 -15 67 -15q26 0 44.5 16.5t23.5 42.5l80 452h-184l-70 -393h-128l70 393h-92l17 97h92l11 61q14 77 71.5 121t142.5 44q77 0 183 -44l-42 -92q-40 17 -71.5 26.5t-59.5 9.5q-38 0 -65 -20.5t-33 -54.5l-9 -51h312l-100 -566q-11 -66 -59.5 -105
t-118.5 -39q-49 0 -120 23z" />
    <glyph glyph-name="f_k.liga" unicode="fk" horiz-adv-x="884" 
d="M139 393h-92l18 97h92l11 61q14 78 71.5 121.5t147.5 43.5q51 0 108.5 -11t128.5 -31l-68 -386l219 202h147l-250 -229l166 -261h-139l-118 191l-50 -45l-25 -146h-123l106 600q-59 16 -99 16q-38 0 -64 -20.5t-32 -54.5l-9 -51h119l-18 -97h-119l-69 -393h-128z" />
    <glyph glyph-name=".notdef" horiz-adv-x="500" 
d="M28 672h476v-672h-476v672zM428 624h-324l162 -244zM238 336l-162 244v-488zM456 580l-162 -244l162 -244v488zM428 48l-162 244l-162 -244h324z" />
    <glyph glyph-name=".null" horiz-adv-x="0" 
 />
    <glyph glyph-name="nonmarkingreturn" unicode="&#xd;" horiz-adv-x="240" 
 />
    <glyph glyph-name="space" unicode=" " horiz-adv-x="240" 
 />
    <glyph glyph-name="A" unicode="A" horiz-adv-x="673" 
d="M351 672h123l154 -672h-126l-34 160h-283l-90 -160h-136zM450 257l-57 274l-155 -274h212z" />
    <glyph glyph-name="Aacute" unicode="&#xc1;" horiz-adv-x="673" 
d="M351 672h123l154 -672h-126l-34 160h-283l-90 -160h-136zM450 257l-57 274l-155 -274h212zM346 787l193 127l52 -85l-203 -112z" />
    <glyph glyph-name="Abreve" unicode="&#x102;" horiz-adv-x="673" 
d="M351 672h123l154 -672h-126l-34 160h-283l-90 -160h-136zM450 257l-57 274l-155 -274h212zM317.5 755.5q-39.5 36.5 -39.5 95.5q0 13 2 29h80q-1 -5 -1 -13q0 -28 18.5 -44t49.5 -16q36 0 62 20t33 53h85q-13 -74 -63.5 -117.5t-123.5 -43.5q-63 0 -102.5 36.5z" />
    <glyph glyph-name="uni01CD" unicode="&#x1cd;" horiz-adv-x="673" 
d="M351 672h123l154 -672h-126l-34 160h-283l-90 -160h-136zM450 257l-57 274l-155 -274h212zM277 850l60 55l90 -90l128 93l46 -67l-143 -114h-77z" />
    <glyph glyph-name="Acircumflex" unicode="&#xc2;" horiz-adv-x="673" 
d="M351 672h123l154 -672h-126l-34 160h-283l-90 -160h-136zM450 257l-57 274l-155 -274h212zM257 782l144 114h77l104 -122l-60 -55l-91 90l-127 -93z" />
    <glyph glyph-name="Adieresis" unicode="&#xc4;" horiz-adv-x="673" 
d="M351 672h123l154 -672h-126l-34 160h-283l-90 -160h-136zM450 257l-57 274l-155 -274h212zM264.5 759.5q-16.5 16.5 -16.5 42.5q0 33 23 56t56 23q26 0 42.5 -16.5t16.5 -42.5q0 -34 -22.5 -56.5t-56.5 -22.5q-26 0 -42.5 16.5zM487.5 759.5q-16.5 16.5 -16.5 42.5
q0 33 22.5 56t56.5 23q26 0 42.5 -16.5t16.5 -42.5q0 -34 -23 -56.5t-56 -22.5q-26 0 -42.5 16.5z" />
    <glyph glyph-name="Agrave" unicode="&#xc0;" horiz-adv-x="673" 
d="M351 672h123l154 -672h-126l-34 160h-283l-90 -160h-136zM450 257l-57 274l-155 -274h212zM279 834l57 79l176 -126l-51 -70z" />
    <glyph glyph-name="Amacron" unicode="&#x100;" horiz-adv-x="673" 
d="M351 672h123l154 -672h-126l-34 160h-283l-90 -160h-136zM450 257l-57 274l-155 -274h212zM281 855h313l-16 -87h-312z" />
    <glyph glyph-name="Aogonek" unicode="&#x104;" horiz-adv-x="673" 
d="M455 -207q-27 24 -27 63q0 37 27 74.5t77 69.5h-30l-34 160h-283l-90 -160h-136l392 672h123l154 -672q-48 -31 -74.5 -62t-26.5 -57q0 -16 10.5 -25.5t26.5 -9.5q14 0 32 4l13 -70q-41 -11 -82 -11q-45 0 -72 24zM450 257l-57 274l-155 -274h212z" />
    <glyph glyph-name="Aring" unicode="&#xc5;" horiz-adv-x="673" 
d="M351 672h123l154 -672h-126l-34 160h-283l-90 -160h-136zM450 257l-57 274l-155 -274h212zM346.5 733.5q-25.5 24.5 -25.5 63.5q0 50 36 84t88 34q41 0 67 -24.5t26 -63.5q0 -50 -35.5 -84t-88.5 -34q-42 0 -67.5 24.5zM460.5 780.5q15.5 15.5 15.5 38.5q0 18 -11 28.5
t-28 10.5q-23 0 -38.5 -15t-15.5 -38q0 -18 11 -29t28 -11q23 0 38.5 15.5z" />
    <glyph glyph-name="Atilde" unicode="&#xc3;" horiz-adv-x="673" 
d="M351 672h123l154 -672h-126l-34 160h-283l-90 -160h-136zM450 257l-57 274l-155 -274h212zM255 775q14 45 45.5 71.5t72.5 26.5q20 0 34.5 -5t34.5 -15q15 -8 25 -11.5t21 -3.5q14 0 26 9.5t18 25.5l73 -24q-15 -45 -46.5 -71.5t-72.5 -26.5q-19 0 -33 5t-36 15
q-15 8 -25 11.5t-21 3.5q-14 0 -25.5 -9.5t-18.5 -25.5z" />
    <glyph glyph-name="AE" unicode="&#xc6;" horiz-adv-x="964" 
d="M466 672h513l-17 -100h-317l-32 -179h285l-17 -98h-285l-34 -195h333l-18 -100h-461l28 160h-232l-125 -160h-160zM461 257l53 297l-232 -297h179z" />
    <glyph glyph-name="AEacute" unicode="&#x1fc;" horiz-adv-x="964" 
d="M466 672h513l-17 -100h-317l-32 -179h285l-17 -98h-285l-34 -195h333l-18 -100h-461l28 160h-232l-125 -160h-160zM461 257l53 297l-232 -297h179zM585 787l193 127l52 -85l-203 -112z" />
    <glyph glyph-name="B" unicode="B" horiz-adv-x="652" 
d="M159 672h277q90 0 139.5 -43t49.5 -118q0 -56 -29 -100.5t-80 -63.5q36 -16 57.5 -54t21.5 -89q0 -58 -31.5 -104.5t-86 -73t-121.5 -26.5h-315zM382 388q50 0 82 29.5t32 75.5q0 38 -23.5 60t-65.5 22h-137l-33 -187h145zM341 97q54 0 89 32.5t35 83.5q0 40 -25 63.5
t-71 23.5h-147l-35 -203h154z" />
    <glyph glyph-name="C" unicode="C" horiz-adv-x="642" 
d="M192.5 22q-67.5 34 -105.5 96t-38 143q0 120 50 216.5t139.5 151.5t201.5 55q61 0 120.5 -18.5t111.5 -54.5l-62 -91q-83 58 -167 58q-76 0 -134.5 -39t-91 -108t-32.5 -155q0 -82 52 -132t135 -50q84 0 174 53l42 -91q-55 -34 -117 -51t-125 -17q-86 0 -153.5 34z" />
    <glyph glyph-name="Cacute" unicode="&#x106;" horiz-adv-x="642" 
d="M192.5 22q-67.5 34 -105.5 96t-38 143q0 120 50 216.5t139.5 151.5t201.5 55q61 0 120.5 -18.5t111.5 -54.5l-62 -91q-83 58 -167 58q-76 0 -134.5 -39t-91 -108t-32.5 -155q0 -82 52 -132t135 -50q84 0 174 53l42 -91q-55 -34 -117 -51t-125 -17q-86 0 -153.5 34z
M384 787l193 127l52 -85l-203 -112z" />
    <glyph glyph-name="Ccaron" unicode="&#x10c;" horiz-adv-x="642" 
d="M192.5 22q-67.5 34 -105.5 96t-38 143q0 120 50 216.5t139.5 151.5t201.5 55q61 0 120.5 -18.5t111.5 -54.5l-62 -91q-83 58 -167 58q-76 0 -134.5 -39t-91 -108t-32.5 -155q0 -82 52 -132t135 -50q84 0 174 53l42 -91q-55 -34 -117 -51t-125 -17q-86 0 -153.5 34z
M315 850l60 55l90 -90l128 93l46 -67l-143 -114h-77z" />
    <glyph glyph-name="Ccedilla" unicode="&#xc7;" horiz-adv-x="642" 
d="M308.5 539q-58.5 -39 -91 -108t-32.5 -155q0 -82 52 -132t135 -50q84 0 174 53l42 -91q-99 -61 -215 -67l-10 -33q26 -8 41 -29t15 -49q0 -46 -39 -77.5t-98 -31.5q-51 0 -107 24l29 69q38 -16 68 -16q20 0 32.5 10t12.5 24t-13 23t-34 9h-10l27 80q-107 17 -172.5 89
t-65.5 180q0 120 50 216.5t139.5 151.5t201.5 55q61 0 120.5 -18.5t111.5 -54.5l-62 -91q-83 58 -167 58q-76 0 -134.5 -39z" />
    <glyph glyph-name="Ccircumflex" unicode="&#x108;" horiz-adv-x="642" 
d="M192.5 22q-67.5 34 -105.5 96t-38 143q0 120 50 216.5t139.5 151.5t201.5 55q61 0 120.5 -18.5t111.5 -54.5l-62 -91q-83 58 -167 58q-76 0 -134.5 -39t-91 -108t-32.5 -155q0 -82 52 -132t135 -50q84 0 174 53l42 -91q-55 -34 -117 -51t-125 -17q-86 0 -153.5 34z
M295 782l144 114h77l104 -122l-60 -55l-91 90l-127 -93z" />
    <glyph glyph-name="Cdotaccent" unicode="&#x10a;" horiz-adv-x="642" 
d="M192.5 22q-67.5 34 -105.5 96t-38 143q0 120 50 216.5t139.5 151.5t201.5 55q61 0 120.5 -18.5t111.5 -54.5l-62 -91q-83 58 -167 58q-76 0 -134.5 -39t-91 -108t-32.5 -155q0 -82 52 -132t135 -50q84 0 174 53l42 -91q-55 -34 -117 -51t-125 -17q-86 0 -153.5 34z
M409.5 755.5q-17.5 17.5 -17.5 45.5q0 36 24.5 60.5t60.5 24.5q29 0 46.5 -17.5t17.5 -46.5q0 -35 -24.5 -59.5t-60.5 -24.5q-29 0 -46.5 17.5z" />
    <glyph glyph-name="D" unicode="D" horiz-adv-x="713" 
d="M159 672h233q93 0 161.5 -33.5t105.5 -96t37 -146.5q0 -117 -49.5 -206.5t-138.5 -139.5t-204 -50h-263zM302 102q75 0 133.5 36t91.5 101t33 147q0 85 -52.5 134.5t-143.5 49.5h-90l-82 -468h110z" />
    <glyph glyph-name="Eth" unicode="&#xd0;" horiz-adv-x="729" 
d="M108 295h-78l18 98h78l49 279h225q95 0 165.5 -33t108.5 -95t38 -145q0 -115 -50.5 -206t-140.5 -142t-204 -51h-260zM315 102q76 0 135 36t92.5 101t33.5 147q0 87 -52.5 135.5t-146.5 48.5h-87l-31 -177h141l-17 -98h-141l-35 -193h108z" />
    <glyph glyph-name="Dcaron" unicode="&#x10e;" horiz-adv-x="713" 
d="M159 672h233q93 0 161.5 -33.5t105.5 -96t37 -146.5q0 -117 -49.5 -206.5t-138.5 -139.5t-204 -50h-263zM302 102q75 0 133.5 36t91.5 101t33 147q0 85 -52.5 134.5t-143.5 49.5h-90l-82 -468h110zM254 850l60 55l90 -90l128 93l46 -67l-143 -114h-77z" />
    <glyph glyph-name="Dcroat" unicode="&#x110;" horiz-adv-x="729" 
d="M108 295h-78l18 98h78l49 279h225q95 0 165.5 -33t108.5 -95t38 -145q0 -115 -50.5 -206t-140.5 -142t-204 -51h-260zM315 102q76 0 135 36t92.5 101t33.5 147q0 87 -52.5 135.5t-146.5 48.5h-87l-31 -177h141l-17 -98h-141l-35 -193h108z" />
    <glyph glyph-name="E" unicode="E" horiz-adv-x="594" 
d="M159 672h450l-17 -100h-317l-32 -179h285l-17 -98h-285l-34 -195h333l-18 -100h-466z" />
    <glyph glyph-name="Eacute" unicode="&#xc9;" horiz-adv-x="594" 
d="M159 672h450l-17 -100h-317l-32 -179h285l-17 -98h-285l-34 -195h333l-18 -100h-466zM320 787l193 127l52 -85l-203 -112z" />
    <glyph glyph-name="Ebreve" unicode="&#x114;" horiz-adv-x="594" 
d="M159 672h450l-17 -100h-317l-32 -179h285l-17 -98h-285l-34 -195h333l-18 -100h-466zM291.5 755.5q-39.5 36.5 -39.5 95.5q0 13 2 29h80q-1 -5 -1 -13q0 -28 18.5 -44t49.5 -16q36 0 62 20t33 53h85q-13 -74 -63.5 -117.5t-123.5 -43.5q-63 0 -102.5 36.5z" />
    <glyph glyph-name="Ecaron" unicode="&#x11a;" horiz-adv-x="594" 
d="M159 672h450l-17 -100h-317l-32 -179h285l-17 -98h-285l-34 -195h333l-18 -100h-466zM251 850l60 55l90 -90l128 93l46 -67l-143 -114h-77z" />
    <glyph glyph-name="Ecircumflex" unicode="&#xca;" horiz-adv-x="594" 
d="M159 672h450l-17 -100h-317l-32 -179h285l-17 -98h-285l-34 -195h333l-18 -100h-466zM231 782l144 114h77l104 -122l-60 -55l-91 90l-127 -93z" />
    <glyph glyph-name="Edieresis" unicode="&#xcb;" horiz-adv-x="594" 
d="M159 672h450l-17 -100h-317l-32 -179h285l-17 -98h-285l-34 -195h333l-18 -100h-466zM238.5 759.5q-16.5 16.5 -16.5 42.5q0 33 23 56t56 23q26 0 42.5 -16.5t16.5 -42.5q0 -34 -22.5 -56.5t-56.5 -22.5q-26 0 -42.5 16.5zM461.5 759.5q-16.5 16.5 -16.5 42.5
q0 33 22.5 56t56.5 23q26 0 42.5 -16.5t16.5 -42.5q0 -34 -23 -56.5t-56 -22.5q-26 0 -42.5 16.5z" />
    <glyph glyph-name="Edotaccent" unicode="&#x116;" horiz-adv-x="594" 
d="M159 672h450l-17 -100h-317l-32 -179h285l-17 -98h-285l-34 -195h333l-18 -100h-466zM345.5 755.5q-17.5 17.5 -17.5 45.5q0 36 24.5 60.5t60.5 24.5q29 0 46.5 -17.5t17.5 -46.5q0 -35 -24.5 -59.5t-60.5 -24.5q-29 0 -46.5 17.5z" />
    <glyph glyph-name="Egrave" unicode="&#xc8;" horiz-adv-x="594" 
d="M159 672h450l-17 -100h-317l-32 -179h285l-17 -98h-285l-34 -195h333l-18 -100h-466zM253 834l57 79l176 -126l-51 -70z" />
    <glyph glyph-name="Emacron" unicode="&#x112;" horiz-adv-x="594" 
d="M159 672h450l-17 -100h-317l-32 -179h285l-17 -98h-285l-34 -195h333l-18 -100h-466zM255 855h313l-16 -87h-312z" />
    <glyph glyph-name="Eogonek" unicode="&#x118;" horiz-adv-x="594" 
d="M334 -207q-27 24 -27 63q0 37 27 74.5t77 69.5h-370l118 672h450l-17 -100h-317l-32 -179h285l-17 -98h-285l-34 -195h333l-18 -100q-48 -31 -74.5 -62t-26.5 -57q0 -16 10.5 -25.5t26.5 -9.5q14 0 32 4l13 -70q-41 -11 -82 -11q-45 0 -72 24z" />
    <glyph glyph-name="F" unicode="F" horiz-adv-x="578" 
d="M159 672h450l-18 -102h-317l-35 -201h285l-18 -103h-285l-47 -266h-133z" />
    <glyph glyph-name="G" unicode="G" horiz-adv-x="697" 
d="M196.5 22.5q-70.5 34.5 -109 97t-38.5 144.5q0 119 51 215t141 150.5t203 54.5q125 0 243 -66l-56 -91q-100 55 -184 55q-78 0 -139 -39t-94.5 -108.5t-33.5 -156.5q0 -85 55.5 -137t145.5 -52q57 0 110 21l29 163h-143l17 98h266l-59 -333q-117 -50 -241 -50
q-93 0 -163.5 34.5z" />
    <glyph glyph-name="Gbreve" unicode="&#x11e;" horiz-adv-x="697" 
d="M196.5 22.5q-70.5 34.5 -109 97t-38.5 144.5q0 119 51 215t141 150.5t203 54.5q125 0 243 -66l-56 -91q-100 55 -184 55q-78 0 -139 -39t-94.5 -108.5t-33.5 -156.5q0 -85 55.5 -137t145.5 -52q57 0 110 21l29 163h-143l17 98h266l-59 -333q-117 -50 -241 -50
q-93 0 -163.5 34.5zM363.5 755.5q-39.5 36.5 -39.5 95.5q0 13 2 29h80q-1 -5 -1 -13q0 -28 18.5 -44t49.5 -16q36 0 62 20t33 53h85q-13 -74 -63.5 -117.5t-123.5 -43.5q-63 0 -102.5 36.5z" />
    <glyph glyph-name="Gcircumflex" unicode="&#x11c;" horiz-adv-x="697" 
d="M196.5 22.5q-70.5 34.5 -109 97t-38.5 144.5q0 119 51 215t141 150.5t203 54.5q125 0 243 -66l-56 -91q-100 55 -184 55q-78 0 -139 -39t-94.5 -108.5t-33.5 -156.5q0 -85 55.5 -137t145.5 -52q57 0 110 21l29 163h-143l17 98h266l-59 -333q-117 -50 -241 -50
q-93 0 -163.5 34.5zM303 782l144 114h77l104 -122l-60 -55l-91 90l-127 -93z" />
    <glyph glyph-name="Gcommaaccent" unicode="&#x122;" horiz-adv-x="697" 
d="M196.5 22.5q-70.5 34.5 -109 97t-38.5 144.5q0 119 51 215t141 150.5t203 54.5q125 0 243 -66l-56 -91q-100 55 -184 55q-78 0 -139 -39t-94.5 -108.5t-33.5 -156.5q0 -85 55.5 -137t145.5 -52q57 0 110 21l29 163h-143l17 98h266l-59 -333q-117 -50 -241 -50
q-93 0 -163.5 34.5zM219 -263q57 39 74 84q-21 0 -34 13.5t-13 35.5q0 34 22.5 56.5t56.5 22.5q28 0 44.5 -19.5t16.5 -51.5q0 -49 -37 -99.5t-101 -86.5z" />
    <glyph glyph-name="Gdotaccent" unicode="&#x120;" horiz-adv-x="697" 
d="M196.5 22.5q-70.5 34.5 -109 97t-38.5 144.5q0 119 51 215t141 150.5t203 54.5q125 0 243 -66l-56 -91q-100 55 -184 55q-78 0 -139 -39t-94.5 -108.5t-33.5 -156.5q0 -85 55.5 -137t145.5 -52q57 0 110 21l29 163h-143l17 98h266l-59 -333q-117 -50 -241 -50
q-93 0 -163.5 34.5zM417.5 755.5q-17.5 17.5 -17.5 45.5q0 36 24.5 60.5t60.5 24.5q29 0 46.5 -17.5t17.5 -46.5q0 -35 -24.5 -59.5t-60.5 -24.5q-29 0 -46.5 17.5z" />
    <glyph glyph-name="H" unicode="H" horiz-adv-x="753" 
d="M159 672h133l-48 -277h318l49 277h133l-118 -672h-133l51 293h-318l-52 -293h-133z" />
    <glyph glyph-name="Hbar" unicode="&#x126;" horiz-adv-x="753" 
d="M129 503h-62l15 88h63l14 81h133l-14 -81h318l15 81h133l-14 -81h62l-16 -88h-62l-88 -503h-133l51 293h-318l-52 -293h-133zM562 395l19 108h-319l-18 -108h318z" />
    <glyph glyph-name="Hcircumflex" unicode="&#x124;" horiz-adv-x="753" 
d="M159 672h133l-48 -277h318l49 277h133l-118 -672h-133l51 293h-318l-52 -293h-133zM301 782l144 114h77l104 -122l-60 -55l-91 90l-127 -93z" />
    <glyph glyph-name="I" unicode="I" horiz-adv-x="302" 
d="M159 672h133l-118 -672h-133z" />
    <glyph glyph-name="IJ" unicode="&#x132;" horiz-adv-x="754" 
d="M159 672h133l-118 -672h-133zM281 19l38 98q58 -21 100 -21q43 0 72 25.5t37 67.5l84 483h133l-88 -500q-15 -85 -74.5 -134.5t-148.5 -49.5q-69 0 -153 31z" />
    <glyph glyph-name="Iacute" unicode="&#xcd;" horiz-adv-x="302" 
d="M159 672h133l-118 -672h-133zM164 787l193 127l52 -85l-203 -112z" />
    <glyph glyph-name="Ibreve" unicode="&#x12c;" horiz-adv-x="302" 
d="M159 672h133l-118 -672h-133zM135.5 755.5q-39.5 36.5 -39.5 95.5q0 13 2 29h80q-1 -5 -1 -13q0 -28 18.5 -44t49.5 -16q36 0 62 20t33 53h85q-13 -74 -63.5 -117.5t-123.5 -43.5q-63 0 -102.5 36.5z" />
    <glyph glyph-name="Icircumflex" unicode="&#xce;" horiz-adv-x="302" 
d="M159 672h133l-118 -672h-133zM75 782l144 114h77l104 -122l-60 -55l-91 90l-127 -93z" />
    <glyph glyph-name="Idieresis" unicode="&#xcf;" horiz-adv-x="302" 
d="M159 672h133l-118 -672h-133zM82.5 759.5q-16.5 16.5 -16.5 42.5q0 33 23 56t56 23q26 0 42.5 -16.5t16.5 -42.5q0 -34 -22.5 -56.5t-56.5 -22.5q-26 0 -42.5 16.5zM305.5 759.5q-16.5 16.5 -16.5 42.5q0 33 22.5 56t56.5 23q26 0 42.5 -16.5t16.5 -42.5q0 -34 -23 -56.5
t-56 -22.5q-26 0 -42.5 16.5z" />
    <glyph glyph-name="Idotaccent" unicode="&#x130;" horiz-adv-x="302" 
d="M159 672h133l-118 -672h-133zM189.5 755.5q-17.5 17.5 -17.5 45.5q0 36 24.5 60.5t60.5 24.5q29 0 46.5 -17.5t17.5 -46.5q0 -35 -24.5 -59.5t-60.5 -24.5q-29 0 -46.5 17.5z" />
    <glyph glyph-name="Igrave" unicode="&#xcc;" horiz-adv-x="302" 
d="M159 672h133l-118 -672h-133zM97 834l57 79l176 -126l-51 -70z" />
    <glyph glyph-name="Imacron" unicode="&#x12a;" horiz-adv-x="302" 
d="M159 672h133l-118 -672h-133zM99 855h313l-16 -87h-312z" />
    <glyph glyph-name="Iogonek" unicode="&#x12e;" horiz-adv-x="302" 
d="M1 -207q-27 24 -27 63q0 37 27 74.5t77 69.5h-37l118 672h133l-118 -672q-48 -31 -74.5 -62t-26.5 -57q0 -16 10.5 -25.5t26.5 -9.5q14 0 32 4l13 -70q-41 -11 -82 -11q-45 0 -72 24z" />
    <glyph glyph-name="Itilde" unicode="&#x128;" horiz-adv-x="302" 
d="M159 672h133l-118 -672h-133zM73 775q14 45 45.5 71.5t72.5 26.5q20 0 34.5 -5t34.5 -15q15 -8 25 -11.5t21 -3.5q14 0 26 9.5t18 25.5l73 -24q-15 -45 -46.5 -71.5t-72.5 -26.5q-19 0 -33 5t-36 15q-15 8 -25 11.5t-21 3.5q-14 0 -25.5 -9.5t-18.5 -25.5z" />
    <glyph glyph-name="J" unicode="J" horiz-adv-x="452" 
d="M-21 19l38 98q58 -21 100 -21q43 0 72 25.5t37 67.5l84 483h133l-88 -500q-15 -85 -74.5 -134.5t-148.5 -49.5q-69 0 -153 31z" />
    <glyph glyph-name="Jacute" horiz-adv-x="452" 
d="M-21 19l38 98q58 -21 100 -21q43 0 72 25.5t37 67.5l84 483h133l-88 -500q-15 -85 -74.5 -134.5t-148.5 -49.5q-69 0 -153 31zM315 787l193 127l52 -85l-203 -112z" />
    <glyph glyph-name="Jcircumflex" unicode="&#x134;" horiz-adv-x="452" 
d="M-21 19l38 98q58 -21 100 -21q43 0 72 25.5t37 67.5l84 483h133l-88 -500q-15 -85 -74.5 -134.5t-148.5 -49.5q-69 0 -153 31zM226 782l144 114h77l104 -122l-60 -55l-91 90l-127 -93z" />
    <glyph glyph-name="K" unicode="K" horiz-adv-x="673" 
d="M159 672h128l-54 -306l344 306h156l-349 -312l240 -360h-147l-188 286l-81 -71l-38 -215h-129z" />
    <glyph glyph-name="Kcommaaccent" unicode="&#x136;" horiz-adv-x="673" 
d="M159 672h128l-54 -306l344 306h156l-349 -312l240 -360h-147l-188 286l-81 -71l-38 -215h-129zM185 -263q57 39 74 84q-21 0 -34 13.5t-13 35.5q0 34 22.5 56.5t56.5 22.5q28 0 44.5 -19.5t16.5 -51.5q0 -49 -37 -99.5t-101 -86.5z" />
    <glyph glyph-name="L" unicode="L" horiz-adv-x="530" 
d="M159 672h133l-100 -570h291l-18 -102h-424z" />
    <glyph glyph-name="Lacute" unicode="&#x139;" horiz-adv-x="530" 
d="M159 672h133l-100 -570h291l-18 -102h-424zM165 787l193 127l52 -85l-203 -112z" />
    <glyph glyph-name="Lcaron" unicode="&#x13d;" horiz-adv-x="530" 
d="M331 535l89 179l89 -39l-101 -175zM159 672h133l-100 -570h291l-18 -102h-424z" />
    <glyph glyph-name="Lcommaaccent" unicode="&#x13b;" horiz-adv-x="530" 
d="M159 672h133l-100 -570h291l-18 -102h-424zM138 -263q57 39 74 84q-21 0 -34 13.5t-13 35.5q0 34 22.5 56.5t56.5 22.5q28 0 44.5 -19.5t16.5 -51.5q0 -49 -37 -99.5t-101 -86.5z" />
    <glyph glyph-name="Ldot" unicode="&#x13f;" horiz-adv-x="546" 
d="M159 672h133l-100 -570h291l-18 -102h-424zM387.5 300.5q-17.5 17.5 -17.5 45.5q0 36 24.5 60.5t60.5 24.5q29 0 46.5 -17.5t17.5 -46.5q0 -35 -24.5 -59.5t-60.5 -24.5q-29 0 -46.5 17.5z" />
    <glyph glyph-name="Lslash" unicode="&#x141;" horiz-adv-x="546" 
d="M102 254l-58 -25l-30 82l105 47l56 314h133l-44 -250l119 53l30 -82l-167 -75l-38 -216h291l-18 -102h-424z" />
    <glyph glyph-name="M" unicode="M" horiz-adv-x="841" 
d="M159 672h121l154 -302l260 302h138l-118 -672h-123l87 492l-227 -261h-71l-131 256l-85 -487h-123z" />
    <glyph glyph-name="N" unicode="N" horiz-adv-x="753" 
d="M159 672h126l251 -484l85 484h123l-118 -672h-126l-251 484l-85 -484h-123z" />
    <glyph glyph-name="Nacute" unicode="&#x143;" horiz-adv-x="753" 
d="M159 672h126l251 -484l85 484h123l-118 -672h-126l-251 484l-85 -484h-123zM390 787l193 127l52 -85l-203 -112z" />
    <glyph glyph-name="Ncaron" unicode="&#x147;" horiz-adv-x="753" 
d="M159 672h126l251 -484l85 484h123l-118 -672h-126l-251 484l-85 -484h-123zM321 850l60 55l90 -90l128 93l46 -67l-143 -114h-77z" />
    <glyph glyph-name="Ncommaaccent" unicode="&#x145;" horiz-adv-x="753" 
d="M159 672h126l251 -484l85 484h123l-118 -672h-126l-251 484l-85 -484h-123zM218 -263q57 39 74 84q-21 0 -34 13.5t-13 35.5q0 34 22.5 56.5t56.5 22.5q28 0 44.5 -19.5t16.5 -51.5q0 -49 -37 -99.5t-101 -86.5z" />
    <glyph glyph-name="Eng" unicode="&#x14a;" horiz-adv-x="753" 
d="M243 -189l38 98q58 -21 103 -21q43 0 72 22.5t37 60.5l6 31l-250 482l-85 -484h-123l118 672h126l251 -484l85 484h123l-118 -672l-7 -36q-15 -85 -74.5 -134.5t-148.5 -49.5q-69 0 -153 31z" />
    <glyph glyph-name="Ntilde" unicode="&#xd1;" horiz-adv-x="753" 
d="M159 672h126l251 -484l85 484h123l-118 -672h-126l-251 484l-85 -484h-123zM299 775q14 45 45.5 71.5t72.5 26.5q20 0 34.5 -5t34.5 -15q15 -8 25 -11.5t21 -3.5q14 0 26 9.5t18 25.5l73 -24q-15 -45 -46.5 -71.5t-72.5 -26.5q-19 0 -33 5t-36 15q-15 8 -25 11.5t-21 3.5
q-14 0 -25.5 -9.5t-18.5 -25.5z" />
    <glyph glyph-name="O" unicode="O" horiz-adv-x="753" 
d="M190 21.5q-67 33.5 -104 95.5t-37 144q0 121 50.5 217.5t139.5 151t201 54.5q88 0 155 -33.5t104 -95.5t37 -144q0 -121 -50.5 -217.5t-140 -151t-201.5 -54.5q-87 0 -154 33.5zM480.5 132.5q55.5 39.5 87.5 109.5t32 156q0 83 -47 132t-125 49q-68 0 -123.5 -39.5
t-87.5 -109.5t-32 -156q0 -83 47 -132t125 -49q68 0 123.5 39.5z" />
    <glyph glyph-name="Oacute" unicode="&#xd3;" horiz-adv-x="753" 
d="M190 21.5q-67 33.5 -104 95.5t-37 144q0 121 50.5 217.5t139.5 151t201 54.5q88 0 155 -33.5t104 -95.5t37 -144q0 -121 -50.5 -217.5t-140 -151t-201.5 -54.5q-87 0 -154 33.5zM480.5 132.5q55.5 39.5 87.5 109.5t32 156q0 83 -47 132t-125 49q-68 0 -123.5 -39.5
t-87.5 -109.5t-32 -156q0 -83 47 -132t125 -49q68 0 123.5 39.5zM390 787l193 127l52 -85l-203 -112z" />
    <glyph glyph-name="Obreve" unicode="&#x14e;" horiz-adv-x="753" 
d="M190 21.5q-67 33.5 -104 95.5t-37 144q0 121 50.5 217.5t139.5 151t201 54.5q88 0 155 -33.5t104 -95.5t37 -144q0 -121 -50.5 -217.5t-140 -151t-201.5 -54.5q-87 0 -154 33.5zM480.5 132.5q55.5 39.5 87.5 109.5t32 156q0 83 -47 132t-125 49q-68 0 -123.5 -39.5
t-87.5 -109.5t-32 -156q0 -83 47 -132t125 -49q68 0 123.5 39.5zM361.5 755.5q-39.5 36.5 -39.5 95.5q0 13 2 29h80q-1 -5 -1 -13q0 -28 18.5 -44t49.5 -16q36 0 62 20t33 53h85q-13 -74 -63.5 -117.5t-123.5 -43.5q-63 0 -102.5 36.5z" />
    <glyph glyph-name="Ocircumflex" unicode="&#xd4;" horiz-adv-x="753" 
d="M190 21.5q-67 33.5 -104 95.5t-37 144q0 121 50.5 217.5t139.5 151t201 54.5q88 0 155 -33.5t104 -95.5t37 -144q0 -121 -50.5 -217.5t-140 -151t-201.5 -54.5q-87 0 -154 33.5zM480.5 132.5q55.5 39.5 87.5 109.5t32 156q0 83 -47 132t-125 49q-68 0 -123.5 -39.5
t-87.5 -109.5t-32 -156q0 -83 47 -132t125 -49q68 0 123.5 39.5zM301 782l144 114h77l104 -122l-60 -55l-91 90l-127 -93z" />
    <glyph glyph-name="Odieresis" unicode="&#xd6;" horiz-adv-x="753" 
d="M190 21.5q-67 33.5 -104 95.5t-37 144q0 121 50.5 217.5t139.5 151t201 54.5q88 0 155 -33.5t104 -95.5t37 -144q0 -121 -50.5 -217.5t-140 -151t-201.5 -54.5q-87 0 -154 33.5zM480.5 132.5q55.5 39.5 87.5 109.5t32 156q0 83 -47 132t-125 49q-68 0 -123.5 -39.5
t-87.5 -109.5t-32 -156q0 -83 47 -132t125 -49q68 0 123.5 39.5zM308.5 759.5q-16.5 16.5 -16.5 42.5q0 33 23 56t56 23q26 0 42.5 -16.5t16.5 -42.5q0 -34 -22.5 -56.5t-56.5 -22.5q-26 0 -42.5 16.5zM531.5 759.5q-16.5 16.5 -16.5 42.5q0 33 22.5 56t56.5 23
q26 0 42.5 -16.5t16.5 -42.5q0 -34 -23 -56.5t-56 -22.5q-26 0 -42.5 16.5z" />
    <glyph glyph-name="Ograve" unicode="&#xd2;" horiz-adv-x="753" 
d="M190 21.5q-67 33.5 -104 95.5t-37 144q0 121 50.5 217.5t139.5 151t201 54.5q88 0 155 -33.5t104 -95.5t37 -144q0 -121 -50.5 -217.5t-140 -151t-201.5 -54.5q-87 0 -154 33.5zM480.5 132.5q55.5 39.5 87.5 109.5t32 156q0 83 -47 132t-125 49q-68 0 -123.5 -39.5
t-87.5 -109.5t-32 -156q0 -83 47 -132t125 -49q68 0 123.5 39.5zM323 834l57 79l176 -126l-51 -70z" />
    <glyph glyph-name="Ohungarumlaut" unicode="&#x150;" horiz-adv-x="753" 
d="M190 21.5q-67 33.5 -104 95.5t-37 144q0 121 50.5 217.5t139.5 151t201 54.5q88 0 155 -33.5t104 -95.5t37 -144q0 -121 -50.5 -217.5t-140 -151t-201.5 -54.5q-87 0 -154 33.5zM480.5 132.5q55.5 39.5 87.5 109.5t32 156q0 83 -47 132t-125 49q-68 0 -123.5 -39.5
t-87.5 -109.5t-32 -156q0 -83 47 -132t125 -49q68 0 123.5 39.5zM286 785l172 154l64 -76l-181 -145zM507 785l172 154l64 -76l-181 -145z" />
    <glyph glyph-name="Omacron" unicode="&#x14c;" horiz-adv-x="753" 
d="M190 21.5q-67 33.5 -104 95.5t-37 144q0 121 50.5 217.5t139.5 151t201 54.5q88 0 155 -33.5t104 -95.5t37 -144q0 -121 -50.5 -217.5t-140 -151t-201.5 -54.5q-87 0 -154 33.5zM480.5 132.5q55.5 39.5 87.5 109.5t32 156q0 83 -47 132t-125 49q-68 0 -123.5 -39.5
t-87.5 -109.5t-32 -156q0 -83 47 -132t125 -49q68 0 123.5 39.5zM325 855h313l-16 -87h-312z" />
    <glyph glyph-name="Oslash" unicode="&#xd8;" horiz-adv-x="753" 
d="M169 37l-39 -42h-106l84 90q-59 70 -59 176q0 121 50.5 217.5t139.5 151t201 54.5q103 0 175 -50l40 43h105l-84 -90q60 -73 60 -176q0 -121 -50.5 -217.5t-140 -151t-201.5 -54.5q-102 0 -175 49zM537 548q-45 36 -109 36q-72 0 -130 -40.5t-90.5 -111t-32.5 -158.5
q0 -53 22 -92zM487 129q58 40 90.5 110.5t32.5 158.5q0 54 -23 92l-339 -366q43 -35 109 -35q72 0 130 40z" />
    <glyph glyph-name="Oslashacute" unicode="&#x1fe;" horiz-adv-x="753" 
d="M169 37l-39 -42h-106l84 90q-59 70 -59 176q0 121 50.5 217.5t139.5 151t201 54.5q103 0 175 -50l40 43h105l-84 -90q60 -73 60 -176q0 -121 -50.5 -217.5t-140 -151t-201.5 -54.5q-102 0 -175 49zM537 548q-45 36 -109 36q-72 0 -130 -40.5t-90.5 -111t-32.5 -158.5
q0 -53 22 -92zM487 129q58 40 90.5 110.5t32.5 158.5q0 54 -23 92l-339 -366q43 -35 109 -35q72 0 130 40zM390 787l193 127l52 -85l-203 -112z" />
    <glyph glyph-name="Otilde" unicode="&#xd5;" horiz-adv-x="753" 
d="M190 21.5q-67 33.5 -104 95.5t-37 144q0 121 50.5 217.5t139.5 151t201 54.5q88 0 155 -33.5t104 -95.5t37 -144q0 -121 -50.5 -217.5t-140 -151t-201.5 -54.5q-87 0 -154 33.5zM480.5 132.5q55.5 39.5 87.5 109.5t32 156q0 83 -47 132t-125 49q-68 0 -123.5 -39.5
t-87.5 -109.5t-32 -156q0 -83 47 -132t125 -49q68 0 123.5 39.5zM299 775q14 45 45.5 71.5t72.5 26.5q20 0 34.5 -5t34.5 -15q15 -8 25 -11.5t21 -3.5q14 0 26 9.5t18 25.5l73 -24q-15 -45 -46.5 -71.5t-72.5 -26.5q-19 0 -33 5t-36 15q-15 8 -25 11.5t-21 3.5
q-14 0 -25.5 -9.5t-18.5 -25.5z" />
    <glyph glyph-name="OE" unicode="&#x152;" horiz-adv-x="992" 
d="M192.5 33.5q-68.5 33.5 -105 96t-36.5 146.5q0 117 49.5 207t138 139.5t203.5 49.5h565l-18 -100h-317l-31 -179h285l-17 -98h-285l-34 -195h333l-18 -100h-551q-93 0 -161.5 33.5zM457 102l82 468h-95q-75 0 -133.5 -36t-91.5 -101t-33 -147q0 -85 52.5 -134.5
t143.5 -49.5h75z" />
    <glyph glyph-name="P" unicode="P" horiz-adv-x="620" 
d="M159 672h257q94 0 151.5 -53.5t57.5 -142.5q0 -70 -35 -126t-96 -88.5t-136 -32.5h-149l-40 -229h-128zM348 332q65 0 106 37t41 96q0 48 -31 76.5t-84 28.5h-111l-42 -238h121z" />
    <glyph glyph-name="Thorn" unicode="&#xde;" horiz-adv-x="620" 
d="M159 672h128l-19 -107h129q96 0 153 -53t57 -143q0 -69 -35 -125.5t-96.5 -88.5t-136.5 -32h-148l-22 -123h-128zM329 225q66 0 106.5 37.5t40.5 96.5q0 48 -30.5 76t-83.5 28h-112l-41 -238h120z" />
    <glyph glyph-name="Q" unicode="Q" horiz-adv-x="753" 
d="M449 4q-53 -16 -105 -16q-87 0 -154 33.5t-104 95.5t-37 144q0 121 50.5 217.5t139.5 151t201 54.5q88 0 155 -33.5t104 -95.5t37 -144q0 -120 -49.5 -215.5t-134.5 -148.5l133 -107l-70 -78zM480.5 132.5q55.5 39.5 87.5 109.5t32 156q0 83 -47 132t-125 49
q-68 0 -123.5 -39.5t-87.5 -109.5t-32 -156q0 -83 47 -132t125 -49q68 0 123.5 39.5z" />
    <glyph glyph-name="R" unicode="R" horiz-adv-x="652" 
d="M159 672h272q90 0 145 -51.5t55 -136.5t-51 -146.5t-134 -79.5l130 -258h-134l-119 245h-111l-43 -245h-128zM363 348q61 0 99 35t38 90q0 45 -28 71t-77 26h-126l-39 -222h133z" />
    <glyph glyph-name="Racute" unicode="&#x154;" horiz-adv-x="652" 
d="M159 672h272q90 0 145 -51.5t55 -136.5t-51 -146.5t-134 -79.5l130 -258h-134l-119 245h-111l-43 -245h-128zM363 348q61 0 99 35t38 90q0 45 -28 71t-77 26h-126l-39 -222h133zM318 787l193 127l52 -85l-203 -112z" />
    <glyph glyph-name="Rcaron" unicode="&#x158;" horiz-adv-x="652" 
d="M159 672h272q90 0 145 -51.5t55 -136.5t-51 -146.5t-134 -79.5l130 -258h-134l-119 245h-111l-43 -245h-128zM363 348q61 0 99 35t38 90q0 45 -28 71t-77 26h-126l-39 -222h133zM249 850l60 55l90 -90l128 93l46 -67l-143 -114h-77z" />
    <glyph glyph-name="Rcommaaccent" unicode="&#x156;" horiz-adv-x="652" 
d="M159 672h272q90 0 145 -51.5t55 -136.5t-51 -146.5t-134 -79.5l130 -258h-134l-119 245h-111l-43 -245h-128zM363 348q61 0 99 35t38 90q0 45 -28 71t-77 26h-126l-39 -222h133zM175 -263q57 39 74 84q-21 0 -34 13.5t-13 35.5q0 34 22.5 56.5t56.5 22.5q28 0 44.5 -19.5
t16.5 -51.5q0 -49 -37 -99.5t-101 -86.5z" />
    <glyph glyph-name="S" unicode="S" horiz-adv-x="580" 
d="M140 4q-70 16 -132 47l44 99q57 -28 114 -42.5t103 -14.5q59 0 94.5 26.5t35.5 69.5q0 37 -30.5 58t-94.5 45q-59 23 -95 42.5t-62 55t-26 89.5q0 58 32 105t89 73.5t128 26.5q59 0 123 -14t126 -41l-43 -100q-114 50 -201 50q-56 0 -91 -25.5t-35 -66.5q0 -35 30 -55
t92 -43q60 -23 96.5 -43t63 -56t26.5 -93q0 -61 -32 -108.5t-89.5 -74t-131.5 -26.5q-64 0 -134 16z" />
    <glyph glyph-name="Sacute" unicode="&#x15a;" horiz-adv-x="580" 
d="M140 4q-70 16 -132 47l44 99q57 -28 114 -42.5t103 -14.5q59 0 94.5 26.5t35.5 69.5q0 37 -30.5 58t-94.5 45q-59 23 -95 42.5t-62 55t-26 89.5q0 58 32 105t89 73.5t128 26.5q59 0 123 -14t126 -41l-43 -100q-114 50 -201 50q-56 0 -91 -25.5t-35 -66.5q0 -35 30 -55
t92 -43q60 -23 96.5 -43t63 -56t26.5 -93q0 -61 -32 -108.5t-89.5 -74t-131.5 -26.5q-64 0 -134 16zM305 787l193 127l52 -85l-203 -112z" />
    <glyph glyph-name="Scaron" unicode="&#x160;" horiz-adv-x="580" 
d="M140 4q-70 16 -132 47l44 99q57 -28 114 -42.5t103 -14.5q59 0 94.5 26.5t35.5 69.5q0 37 -30.5 58t-94.5 45q-59 23 -95 42.5t-62 55t-26 89.5q0 58 32 105t89 73.5t128 26.5q59 0 123 -14t126 -41l-43 -100q-114 50 -201 50q-56 0 -91 -25.5t-35 -66.5q0 -35 30 -55
t92 -43q60 -23 96.5 -43t63 -56t26.5 -93q0 -61 -32 -108.5t-89.5 -74t-131.5 -26.5q-64 0 -134 16zM236 850l60 55l90 -90l128 93l46 -67l-143 -114h-77z" />
    <glyph glyph-name="Scedilla" unicode="&#x15e;" horiz-adv-x="580" 
d="M254 553.5q-35 -25.5 -35 -66.5q0 -35 30 -55t92 -43q60 -23 96.5 -43t63 -56t26.5 -93q0 -58 -29.5 -104t-82.5 -73.5t-121 -30.5l-10 -33q26 -8 41 -29t15 -49q0 -46 -39 -77.5t-98 -31.5q-51 0 -107 24l29 69q38 -16 68 -16q20 0 32.5 10t12.5 24t-13 23t-34 9h-10
l27 80q-109 13 -200 59l44 99q57 -28 114 -42.5t103 -14.5q59 0 94.5 26.5t35.5 69.5q0 37 -30.5 58t-94.5 45q-59 23 -95 42.5t-62 55t-26 89.5q0 58 32 105t89 73.5t128 26.5q59 0 123 -14t126 -41l-43 -100q-114 50 -201 50q-56 0 -91 -25.5z" />
    <glyph glyph-name="Scircumflex" unicode="&#x15c;" horiz-adv-x="580" 
d="M140 4q-70 16 -132 47l44 99q57 -28 114 -42.5t103 -14.5q59 0 94.5 26.5t35.5 69.5q0 37 -30.5 58t-94.5 45q-59 23 -95 42.5t-62 55t-26 89.5q0 58 32 105t89 73.5t128 26.5q59 0 123 -14t126 -41l-43 -100q-114 50 -201 50q-56 0 -91 -25.5t-35 -66.5q0 -35 30 -55
t92 -43q60 -23 96.5 -43t63 -56t26.5 -93q0 -61 -32 -108.5t-89.5 -74t-131.5 -26.5q-64 0 -134 16zM216 782l144 114h77l104 -122l-60 -55l-91 90l-127 -93z" />
    <glyph glyph-name="Scommaaccent" unicode="&#x218;" horiz-adv-x="580" 
d="M140 4q-70 16 -132 47l44 99q57 -28 114 -42.5t103 -14.5q59 0 94.5 26.5t35.5 69.5q0 37 -30.5 58t-94.5 45q-59 23 -95 42.5t-62 55t-26 89.5q0 58 32 105t89 73.5t128 26.5q59 0 123 -14t126 -41l-43 -100q-114 50 -201 50q-56 0 -91 -25.5t-35 -66.5q0 -35 30 -55
t92 -43q60 -23 96.5 -43t63 -56t26.5 -93q0 -61 -32 -108.5t-89.5 -74t-131.5 -26.5q-64 0 -134 16zM121 -263q57 39 74 84q-21 0 -34 13.5t-13 35.5q0 34 22.5 56.5t56.5 22.5q28 0 44.5 -19.5t16.5 -51.5q0 -49 -37 -99.5t-101 -86.5z" />
    <glyph glyph-name="uni1E9E" unicode="&#x1e9e;" horiz-adv-x="785" 
d="M246 49l57 92q74 -48 138 -48q58 0 97 35.5t39 86.5q0 47 -32 77t-87 30h-18l-11 66l165 182h-325l-100 -570h-128l118 672h607l-14 -81l-171 -189q57 -17 91.5 -64.5t34.5 -112.5t-35 -119.5t-96.5 -86t-136.5 -31.5q-100 0 -193 61z" />
    <glyph glyph-name="T" unicode="T" horiz-adv-x="594" 
d="M287 570h-209l19 102h550l-18 -102h-209l-100 -570h-133z" />
    <glyph glyph-name="Tbar" unicode="&#x166;" horiz-adv-x="594" 
d="M234 269h-122l17 97h122l36 204h-209l19 102h550l-18 -102h-209l-36 -204h124l-17 -97h-124l-47 -269h-133z" />
    <glyph glyph-name="Tcaron" unicode="&#x164;" horiz-adv-x="594" 
d="M287 570h-209l19 102h550l-18 -102h-209l-100 -570h-133zM241 850l60 55l90 -90l128 93l46 -67l-143 -114h-77z" />
    <glyph glyph-name="uni0162" unicode="&#x162;" horiz-adv-x="594" 
d="M287 570h-209l19 102h550l-18 -102h-209l-100 -570h-133zM138 -263q57 39 74 84q-21 0 -34 13.5t-13 35.5q0 34 22.5 56.5t56.5 22.5q28 0 44.5 -19.5t16.5 -51.5q0 -49 -37 -99.5t-101 -86.5z" />
    <glyph glyph-name="uni021A" unicode="&#x21a;" horiz-adv-x="594" 
d="M287 570h-209l19 102h550l-18 -102h-209l-100 -570h-133zM138 -263q57 39 74 84q-21 0 -34 13.5t-13 35.5q0 34 22.5 56.5t56.5 22.5q28 0 44.5 -19.5t16.5 -51.5q0 -49 -37 -99.5t-101 -86.5z" />
    <glyph glyph-name="U" unicode="U" horiz-adv-x="753" 
d="M206 16.5q-61 28.5 -95.5 80t-34.5 118.5q0 24 5 56l70 401h133l-70 -401q-4 -19 -4 -42q0 -61 40 -98.5t106 -37.5q74 0 125 44t64 118l74 417h133l-76 -427q-21 -120 -110.5 -188.5t-220.5 -68.5q-78 0 -139 28.5z" />
    <glyph glyph-name="Uacute" unicode="&#xda;" horiz-adv-x="753" 
d="M206 16.5q-61 28.5 -95.5 80t-34.5 118.5q0 24 5 56l70 401h133l-70 -401q-4 -19 -4 -42q0 -61 40 -98.5t106 -37.5q74 0 125 44t64 118l74 417h133l-76 -427q-21 -120 -110.5 -188.5t-220.5 -68.5q-78 0 -139 28.5zM390 787l193 127l52 -85l-203 -112z" />
    <glyph glyph-name="Ubreve" unicode="&#x16c;" horiz-adv-x="753" 
d="M206 16.5q-61 28.5 -95.5 80t-34.5 118.5q0 24 5 56l70 401h133l-70 -401q-4 -19 -4 -42q0 -61 40 -98.5t106 -37.5q74 0 125 44t64 118l74 417h133l-76 -427q-21 -120 -110.5 -188.5t-220.5 -68.5q-78 0 -139 28.5zM361.5 755.5q-39.5 36.5 -39.5 95.5q0 13 2 29h80
q-1 -5 -1 -13q0 -28 18.5 -44t49.5 -16q36 0 62 20t33 53h85q-13 -74 -63.5 -117.5t-123.5 -43.5q-63 0 -102.5 36.5z" />
    <glyph glyph-name="Ucircumflex" unicode="&#xdb;" horiz-adv-x="753" 
d="M206 16.5q-61 28.5 -95.5 80t-34.5 118.5q0 24 5 56l70 401h133l-70 -401q-4 -19 -4 -42q0 -61 40 -98.5t106 -37.5q74 0 125 44t64 118l74 417h133l-76 -427q-21 -120 -110.5 -188.5t-220.5 -68.5q-78 0 -139 28.5zM301 782l144 114h77l104 -122l-60 -55l-91 90
l-127 -93z" />
    <glyph glyph-name="Udieresis" unicode="&#xdc;" horiz-adv-x="753" 
d="M206 16.5q-61 28.5 -95.5 80t-34.5 118.5q0 24 5 56l70 401h133l-70 -401q-4 -19 -4 -42q0 -61 40 -98.5t106 -37.5q74 0 125 44t64 118l74 417h133l-76 -427q-21 -120 -110.5 -188.5t-220.5 -68.5q-78 0 -139 28.5zM308.5 759.5q-16.5 16.5 -16.5 42.5q0 33 23 56t56 23
q26 0 42.5 -16.5t16.5 -42.5q0 -34 -22.5 -56.5t-56.5 -22.5q-26 0 -42.5 16.5zM531.5 759.5q-16.5 16.5 -16.5 42.5q0 33 22.5 56t56.5 23q26 0 42.5 -16.5t16.5 -42.5q0 -34 -23 -56.5t-56 -22.5q-26 0 -42.5 16.5z" />
    <glyph glyph-name="Ugrave" unicode="&#xd9;" horiz-adv-x="753" 
d="M206 16.5q-61 28.5 -95.5 80t-34.5 118.5q0 24 5 56l70 401h133l-70 -401q-4 -19 -4 -42q0 -61 40 -98.5t106 -37.5q74 0 125 44t64 118l74 417h133l-76 -427q-21 -120 -110.5 -188.5t-220.5 -68.5q-78 0 -139 28.5zM323 834l57 79l176 -126l-51 -70z" />
    <glyph glyph-name="Uhungarumlaut" unicode="&#x170;" horiz-adv-x="753" 
d="M206 16.5q-61 28.5 -95.5 80t-34.5 118.5q0 24 5 56l70 401h133l-70 -401q-4 -19 -4 -42q0 -61 40 -98.5t106 -37.5q74 0 125 44t64 118l74 417h133l-76 -427q-21 -120 -110.5 -188.5t-220.5 -68.5q-78 0 -139 28.5zM286 785l172 154l64 -76l-181 -145zM507 785l172 154
l64 -76l-181 -145z" />
    <glyph glyph-name="Umacron" unicode="&#x16a;" horiz-adv-x="753" 
d="M206 16.5q-61 28.5 -95.5 80t-34.5 118.5q0 24 5 56l70 401h133l-70 -401q-4 -19 -4 -42q0 -61 40 -98.5t106 -37.5q74 0 125 44t64 118l74 417h133l-76 -427q-21 -120 -110.5 -188.5t-220.5 -68.5q-78 0 -139 28.5zM325 855h313l-16 -87h-312z" />
    <glyph glyph-name="Uogonek" unicode="&#x172;" horiz-adv-x="753" 
d="M254.5 -208q-27.5 23 -27.5 61q0 35 29.5 72.5t77.5 65.5q-21 -2 -45 3q-95 14 -154 73t-59 148q0 24 5 56l70 401h133l-70 -401q-4 -19 -4 -42q0 -61 40 -98.5t106 -37.5q74 0 125 44t64 118l74 417h133l-76 -427q-15 -84 -64 -141t-137 -97q-74 -35 -111.5 -68
t-37.5 -58q0 -16 10.5 -25.5t26.5 -9.5q13 0 33 4l12 -70q-41 -11 -82 -11q-44 0 -71.5 23z" />
    <glyph glyph-name="Uring" unicode="&#x16e;" horiz-adv-x="753" 
d="M206 16.5q-61 28.5 -95.5 80t-34.5 118.5q0 24 5 56l70 401h133l-70 -401q-4 -19 -4 -42q0 -61 40 -98.5t106 -37.5q74 0 125 44t64 118l74 417h133l-76 -427q-21 -120 -110.5 -188.5t-220.5 -68.5q-78 0 -139 28.5zM390.5 733.5q-25.5 24.5 -25.5 63.5q0 50 36 84t88 34
q41 0 67 -24.5t26 -63.5q0 -50 -35.5 -84t-88.5 -34q-42 0 -67.5 24.5zM504.5 780.5q15.5 15.5 15.5 38.5q0 18 -11 28.5t-28 10.5q-23 0 -38.5 -15t-15.5 -38q0 -18 11 -29t28 -11q23 0 38.5 15.5z" />
    <glyph glyph-name="Utilde" unicode="&#x168;" horiz-adv-x="753" 
d="M206 16.5q-61 28.5 -95.5 80t-34.5 118.5q0 24 5 56l70 401h133l-70 -401q-4 -19 -4 -42q0 -61 40 -98.5t106 -37.5q74 0 125 44t64 118l74 417h133l-76 -427q-21 -120 -110.5 -188.5t-220.5 -68.5q-78 0 -139 28.5zM299 775q14 45 45.5 71.5t72.5 26.5q20 0 34.5 -5
t34.5 -15q15 -8 25 -11.5t21 -3.5q14 0 26 9.5t18 25.5l73 -24q-15 -45 -46.5 -71.5t-72.5 -26.5q-19 0 -33 5t-36 15q-15 8 -25 11.5t-21 3.5q-14 0 -25.5 -9.5t-18.5 -25.5z" />
    <glyph glyph-name="V" unicode="V" horiz-adv-x="673" 
d="M79 672h130l107 -516l290 516h142l-393 -672h-123z" />
    <glyph glyph-name="W" unicode="W" horiz-adv-x="1001" 
d="M91 672h124l61 -510l236 510h120l62 -510l236 510h134l-331 -672h-124l-62 510l-236 -510h-123z" />
    <glyph glyph-name="Wacute" unicode="&#x1e82;" horiz-adv-x="1001" 
d="M91 672h124l61 -510l236 510h120l62 -510l236 510h134l-331 -672h-124l-62 510l-236 -510h-123zM514 787l193 127l52 -85l-203 -112z" />
    <glyph glyph-name="Wcircumflex" unicode="&#x174;" horiz-adv-x="1001" 
d="M91 672h124l61 -510l236 510h120l62 -510l236 510h134l-331 -672h-124l-62 510l-236 -510h-123zM425 782l144 114h77l104 -122l-60 -55l-91 90l-127 -93z" />
    <glyph glyph-name="Wdieresis" unicode="&#x1e84;" horiz-adv-x="1001" 
d="M91 672h124l61 -510l236 510h120l62 -510l236 510h134l-331 -672h-124l-62 510l-236 -510h-123zM432.5 759.5q-16.5 16.5 -16.5 42.5q0 33 23 56t56 23q26 0 42.5 -16.5t16.5 -42.5q0 -34 -22.5 -56.5t-56.5 -22.5q-26 0 -42.5 16.5zM655.5 759.5q-16.5 16.5 -16.5 42.5
q0 33 22.5 56t56.5 23q26 0 42.5 -16.5t16.5 -42.5q0 -34 -23 -56.5t-56 -22.5q-26 0 -42.5 16.5z" />
    <glyph glyph-name="Wgrave" unicode="&#x1e80;" horiz-adv-x="1001" 
d="M91 672h124l61 -510l236 510h120l62 -510l236 510h134l-331 -672h-124l-62 510l-236 -510h-123zM447 834l57 79l176 -126l-51 -70z" />
    <glyph glyph-name="X" unicode="X" horiz-adv-x="673" 
d="M275 350l-178 322h142l129 -245l213 245h151l-296 -334l188 -338h-143l-138 261l-226 -261h-153z" />
    <glyph glyph-name="Y" unicode="Y" horiz-adv-x="609" 
d="M243 278l-179 394h139l124 -280l203 280h150l-305 -403l-47 -269h-133z" />
    <glyph glyph-name="Yacute" unicode="&#xdd;" horiz-adv-x="609" 
d="M243 278l-179 394h139l124 -280l203 280h150l-305 -403l-47 -269h-133zM311 787l193 127l52 -85l-203 -112z" />
    <glyph glyph-name="Ycircumflex" unicode="&#x176;" horiz-adv-x="609" 
d="M243 278l-179 394h139l124 -280l203 280h150l-305 -403l-47 -269h-133zM222 782l144 114h77l104 -122l-60 -55l-91 90l-127 -93z" />
    <glyph glyph-name="Ydieresis" unicode="&#x178;" horiz-adv-x="609" 
d="M243 278l-179 394h139l124 -280l203 280h150l-305 -403l-47 -269h-133zM229.5 759.5q-16.5 16.5 -16.5 42.5q0 33 23 56t56 23q26 0 42.5 -16.5t16.5 -42.5q0 -34 -22.5 -56.5t-56.5 -22.5q-26 0 -42.5 16.5zM452.5 759.5q-16.5 16.5 -16.5 42.5q0 33 22.5 56t56.5 23
q26 0 42.5 -16.5t16.5 -42.5q0 -34 -23 -56.5t-56 -22.5q-26 0 -42.5 16.5z" />
    <glyph glyph-name="Ygrave" unicode="&#x1ef2;" horiz-adv-x="609" 
d="M243 278l-179 394h139l124 -280l203 280h150l-305 -403l-47 -269h-133zM244 834l57 79l176 -126l-51 -70z" />
    <glyph glyph-name="Z" unicode="Z" horiz-adv-x="628" 
d="M12 79l444 491h-346l18 102h522l-14 -79l-445 -491h371l-18 -102h-546z" />
    <glyph glyph-name="Zacute" unicode="&#x179;" horiz-adv-x="628" 
d="M12 79l444 491h-346l18 102h522l-14 -79l-445 -491h371l-18 -102h-546zM329 787l193 127l52 -85l-203 -112z" />
    <glyph glyph-name="Zcaron" unicode="&#x17d;" horiz-adv-x="628" 
d="M12 79l444 491h-346l18 102h522l-14 -79l-445 -491h371l-18 -102h-546zM260 850l60 55l90 -90l128 93l46 -67l-143 -114h-77z" />
    <glyph glyph-name="Zdotaccent" unicode="&#x17b;" horiz-adv-x="628" 
d="M12 79l444 491h-346l18 102h522l-14 -79l-445 -491h371l-18 -102h-546zM354.5 755.5q-17.5 17.5 -17.5 45.5q0 36 24.5 60.5t60.5 24.5q29 0 46.5 -17.5t17.5 -46.5q0 -35 -24.5 -59.5t-60.5 -24.5q-29 0 -46.5 17.5z" />
    <glyph glyph-name="Cacute.loclPLK" horiz-adv-x="642" 
d="M192.5 22q-67.5 34 -105.5 96t-38 143q0 120 50 216.5t139.5 151.5t201.5 55q61 0 120.5 -18.5t111.5 -54.5l-62 -91q-83 58 -167 58q-76 0 -134.5 -39t-91 -108t-32.5 -155q0 -82 52 -132t135 -50q84 0 174 53l42 -91q-55 -34 -117 -51t-125 -17q-86 0 -153.5 34z
M365 752l78 164l92 -41l-89 -158z" />
    <glyph glyph-name="Nacute.loclPLK" horiz-adv-x="753" 
d="M159 672h126l251 -484l85 484h123l-118 -672h-126l-251 484l-85 -484h-123zM371 752l78 164l92 -41l-89 -158z" />
    <glyph glyph-name="Oacute.loclPLK" horiz-adv-x="753" 
d="M190 21.5q-67 33.5 -104 95.5t-37 144q0 121 50.5 217.5t139.5 151t201 54.5q88 0 155 -33.5t104 -95.5t37 -144q0 -121 -50.5 -217.5t-140 -151t-201.5 -54.5q-87 0 -154 33.5zM480.5 132.5q55.5 39.5 87.5 109.5t32 156q0 83 -47 132t-125 49q-68 0 -123.5 -39.5
t-87.5 -109.5t-32 -156q0 -83 47 -132t125 -49q68 0 123.5 39.5zM371 752l78 164l92 -41l-89 -158z" />
    <glyph glyph-name="Sacute.loclPLK" horiz-adv-x="580" 
d="M140 4q-70 16 -132 47l44 99q57 -28 114 -42.5t103 -14.5q59 0 94.5 26.5t35.5 69.5q0 37 -30.5 58t-94.5 45q-59 23 -95 42.5t-62 55t-26 89.5q0 58 32 105t89 73.5t128 26.5q59 0 123 -14t126 -41l-43 -100q-114 50 -201 50q-56 0 -91 -25.5t-35 -66.5q0 -35 30 -55
t92 -43q60 -23 96.5 -43t63 -56t26.5 -93q0 -61 -32 -108.5t-89.5 -74t-131.5 -26.5q-64 0 -134 16zM286 752l78 164l92 -41l-89 -158z" />
    <glyph glyph-name="Zacute.loclPLK" horiz-adv-x="628" 
d="M12 79l444 491h-346l18 102h522l-14 -79l-445 -491h371l-18 -102h-546zM310 752l78 164l92 -41l-89 -158z" />
    <glyph glyph-name="a" unicode="a" 
d="M82 41.5q-50 53.5 -50 144.5q0 90 33 162t91.5 113t131.5 41q45 0 83 -19.5t58 -51.5l26 59h107l-86 -490h-97l-5 59q-31 -34 -72 -52.5t-86 -18.5q-84 0 -134 53.5zM343 124q35 31 44 83l11 63q3 15 3 31q0 43 -25.5 69.5t-66.5 26.5q-42 0 -75.5 -25t-52.5 -70
t-19 -101q0 -48 28 -78t72 -30q46 0 81 31z" />
    <glyph glyph-name="aacute" unicode="&#xe1;" 
d="M82 41.5q-50 53.5 -50 144.5q0 90 33 162t91.5 113t131.5 41q45 0 83 -19.5t58 -51.5l26 59h107l-86 -490h-97l-5 59q-31 -34 -72 -52.5t-86 -18.5q-84 0 -134 53.5zM343 124q35 31 44 83l11 63q3 15 3 31q0 43 -25.5 69.5t-66.5 26.5q-42 0 -75.5 -25t-52.5 -70
t-19 -101q0 -48 28 -78t72 -30q46 0 81 31zM230 605l193 127l52 -85l-203 -112z" />
    <glyph glyph-name="abreve" unicode="&#x103;" 
d="M82 41.5q-50 53.5 -50 144.5q0 90 33 162t91.5 113t131.5 41q45 0 83 -19.5t58 -51.5l26 59h107l-86 -490h-97l-5 59q-31 -34 -72 -52.5t-86 -18.5q-84 0 -134 53.5zM343 124q35 31 44 83l11 63q3 15 3 31q0 43 -25.5 69.5t-66.5 26.5q-42 0 -75.5 -25t-52.5 -70
t-19 -101q0 -48 28 -78t72 -30q46 0 81 31zM200.5 573.5q-39.5 36.5 -39.5 95.5q0 13 2 29h80q-1 -5 -1 -13q0 -28 18.5 -44t49.5 -16q36 0 62 20t33 53h85q-13 -74 -63.5 -117.5t-123.5 -43.5q-63 0 -102.5 36.5z" />
    <glyph glyph-name="uni01CE" unicode="&#x1ce;" 
d="M82 41.5q-50 53.5 -50 144.5q0 90 33 162t91.5 113t131.5 41q45 0 83 -19.5t58 -51.5l26 59h107l-86 -490h-97l-5 59q-31 -34 -72 -52.5t-86 -18.5q-84 0 -134 53.5zM343 124q35 31 44 83l11 63q3 15 3 31q0 43 -25.5 69.5t-66.5 26.5q-42 0 -75.5 -25t-52.5 -70
t-19 -101q0 -48 28 -78t72 -30q46 0 81 31zM160 668l60 55l90 -90l128 93l46 -67l-143 -114h-77z" />
    <glyph glyph-name="acircumflex" unicode="&#xe2;" 
d="M82 41.5q-50 53.5 -50 144.5q0 90 33 162t91.5 113t131.5 41q45 0 83 -19.5t58 -51.5l26 59h107l-86 -490h-97l-5 59q-31 -34 -72 -52.5t-86 -18.5q-84 0 -134 53.5zM343 124q35 31 44 83l11 63q3 15 3 31q0 43 -25.5 69.5t-66.5 26.5q-42 0 -75.5 -25t-52.5 -70
t-19 -101q0 -48 28 -78t72 -30q46 0 81 31zM140 600l144 114h77l104 -122l-60 -55l-91 90l-127 -93z" />
    <glyph glyph-name="adieresis" unicode="&#xe4;" 
d="M82 41.5q-50 53.5 -50 144.5q0 90 33 162t91.5 113t131.5 41q45 0 83 -19.5t58 -51.5l26 59h107l-86 -490h-97l-5 59q-31 -34 -72 -52.5t-86 -18.5q-84 0 -134 53.5zM343 124q35 31 44 83l11 63q3 15 3 31q0 43 -25.5 69.5t-66.5 26.5q-42 0 -75.5 -25t-52.5 -70
t-19 -101q0 -48 28 -78t72 -30q46 0 81 31zM148.5 577.5q-16.5 16.5 -16.5 42.5q0 33 23 56t56 23q26 0 42.5 -16.5t16.5 -42.5q0 -34 -22.5 -56.5t-56.5 -22.5q-26 0 -42.5 16.5zM371.5 577.5q-16.5 16.5 -16.5 42.5q0 33 22.5 56t56.5 23q26 0 42.5 -16.5t16.5 -42.5
q0 -34 -23 -56.5t-56 -22.5q-26 0 -42.5 16.5z" />
    <glyph glyph-name="agrave" unicode="&#xe0;" 
d="M82 41.5q-50 53.5 -50 144.5q0 90 33 162t91.5 113t131.5 41q45 0 83 -19.5t58 -51.5l26 59h107l-86 -490h-97l-5 59q-31 -34 -72 -52.5t-86 -18.5q-84 0 -134 53.5zM343 124q35 31 44 83l11 63q3 15 3 31q0 43 -25.5 69.5t-66.5 26.5q-42 0 -75.5 -25t-52.5 -70
t-19 -101q0 -48 28 -78t72 -30q46 0 81 31zM163 652l57 79l176 -126l-51 -70z" />
    <glyph glyph-name="amacron" unicode="&#x101;" 
d="M82 41.5q-50 53.5 -50 144.5q0 90 33 162t91.5 113t131.5 41q45 0 83 -19.5t58 -51.5l26 59h107l-86 -490h-97l-5 59q-31 -34 -72 -52.5t-86 -18.5q-84 0 -134 53.5zM343 124q35 31 44 83l11 63q3 15 3 31q0 43 -25.5 69.5t-66.5 26.5q-42 0 -75.5 -25t-52.5 -70
t-19 -101q0 -48 28 -78t72 -30q46 0 81 31zM164 673h313l-16 -87h-312z" />
    <glyph glyph-name="aogonek" unicode="&#x105;" 
d="M303 -207q-27 24 -27 63q0 37 27.5 74.5t76.5 69.5l-6 59q-31 -34 -72 -52.5t-86 -18.5q-84 0 -134 53.5t-50 144.5q0 90 33 162t91.5 113t131.5 41q45 0 83 -19.5t58 -51.5l26 59h107l-86 -490q-48 -31 -74.5 -62t-26.5 -57q0 -16 10.5 -25.5t26.5 -9.5q14 0 32 4
l13 -70q-41 -11 -82 -11q-45 0 -72 24zM343 124q35 31 44 83l11 63q3 15 3 31q0 43 -25.5 69.5t-66.5 26.5q-42 0 -75.5 -25t-52.5 -70t-19 -101q0 -48 28 -78t72 -30q46 0 81 31z" />
    <glyph glyph-name="aring" unicode="&#xe5;" 
d="M82 41.5q-50 53.5 -50 144.5q0 90 33 162t91.5 113t131.5 41q45 0 83 -19.5t58 -51.5l26 59h107l-86 -490h-97l-5 59q-31 -34 -72 -52.5t-86 -18.5q-84 0 -134 53.5zM343 124q35 31 44 83l11 63q3 15 3 31q0 43 -25.5 69.5t-66.5 26.5q-42 0 -75.5 -25t-52.5 -70
t-19 -101q0 -48 28 -78t72 -30q46 0 81 31zM229.5 551.5q-25.5 24.5 -25.5 63.5q0 50 36 84t88 34q41 0 67 -24.5t26 -63.5q0 -50 -35.5 -84t-88.5 -34q-42 0 -67.5 24.5zM343.5 598.5q15.5 15.5 15.5 38.5q0 18 -11 28.5t-28 10.5q-23 0 -38.5 -15t-15.5 -38q0 -18 11 -29
t28 -11q23 0 38.5 15.5z" />
    <glyph glyph-name="atilde" unicode="&#xe3;" 
d="M82 41.5q-50 53.5 -50 144.5q0 90 33 162t91.5 113t131.5 41q45 0 83 -19.5t58 -51.5l26 59h107l-86 -490h-97l-5 59q-31 -34 -72 -52.5t-86 -18.5q-84 0 -134 53.5zM343 124q35 31 44 83l11 63q3 15 3 31q0 43 -25.5 69.5t-66.5 26.5q-42 0 -75.5 -25t-52.5 -70
t-19 -101q0 -48 28 -78t72 -30q46 0 81 31zM138 593q14 45 45.5 71.5t72.5 26.5q20 0 34.5 -5t34.5 -15q16 -8 25.5 -11.5t20.5 -3.5q14 0 26 9.5t18 25.5l73 -24q-15 -45 -46.5 -71.5t-72.5 -26.5q-19 0 -33 5t-36 15q-15 8 -25 11.5t-21 3.5q-14 0 -25.5 -9.5t-18.5 -25.5
z" />
    <glyph glyph-name="ae" unicode="&#xe6;" horiz-adv-x="848" 
d="M99.5 6.5q-38.5 18.5 -60.5 51t-22 72.5q0 80 64.5 127.5t173.5 47.5q53 0 103 -10l4 24q2 10 2 18q0 31 -24 50.5t-65 19.5q-70 0 -154 -28l-22 90q110 33 201 33q53 0 91.5 -17t57.5 -49q34 32 78.5 49t95.5 17q58 0 103.5 -25.5t71.5 -70.5t26 -102q0 -45 -12 -93
h-349v-8q0 -15 1 -22q5 -44 39.5 -71t84.5 -27q63 0 135 42l40 -84q-101 -53 -196 -53q-64 0 -113 25.5t-75 71.5q-31 -46 -81.5 -71.5t-111.5 -25.5q-48 0 -86.5 18.5zM704 288q1 9 1 28q-2 41 -28 66t-66 25q-48 0 -85.5 -33t-51.5 -86h230zM297.5 108q33.5 30 41.5 79
l6 34q-40 10 -84 10q-55 0 -88 -23t-33 -61q0 -32 21 -50.5t57 -18.5q46 0 79.5 30z" />
    <glyph glyph-name="aeacute" unicode="&#x1fd;" horiz-adv-x="848" 
d="M99.5 6.5q-38.5 18.5 -60.5 51t-22 72.5q0 80 64.5 127.5t173.5 47.5q53 0 103 -10l4 24q2 10 2 18q0 31 -24 50.5t-65 19.5q-70 0 -154 -28l-22 90q110 33 201 33q53 0 91.5 -17t57.5 -49q34 32 78.5 49t95.5 17q58 0 103.5 -25.5t71.5 -70.5t26 -102q0 -45 -12 -93
h-349v-8q0 -15 1 -22q5 -44 39.5 -71t84.5 -27q63 0 135 42l40 -84q-101 -53 -196 -53q-64 0 -113 25.5t-75 71.5q-31 -46 -81.5 -71.5t-111.5 -25.5q-48 0 -86.5 18.5zM704 288q1 9 1 28q-2 41 -28 66t-66 25q-48 0 -85.5 -33t-51.5 -86h230zM297.5 108q33.5 30 41.5 79
l6 34q-40 10 -84 10q-55 0 -88 -23t-33 -61q0 -32 21 -50.5t57 -18.5q46 0 79.5 30zM406 605l193 127l52 -85l-203 -112z" />
    <glyph glyph-name="b" unicode="b" 
d="M213 8.5q-37 20.5 -56 57.5l-28 -66h-107l124 704h128l-46 -263q27 30 63 45.5t77 15.5q85 0 135 -53.5t50 -144.5q0 -90 -33 -162t-92 -113t-132 -41q-46 0 -83 20.5zM351.5 118q33.5 25 52.5 70t19 101q0 48 -28 78t-72 30q-46 0 -81.5 -31t-44.5 -82l-11 -64
q-1 -5 -2 -12.5t-1 -18.5q0 -43 26 -69.5t67 -26.5q42 0 75.5 25z" />
    <glyph glyph-name="c" unicode="c" horiz-adv-x="492" 
d="M139.5 14q-50.5 26 -79 73t-28.5 107q0 87 38 157.5t105 110.5t151 40q92 0 178 -53l-59 -89q-61 40 -116 40q-48 0 -86 -25t-59.5 -69.5t-21.5 -98.5q0 -52 33.5 -84.5t86.5 -32.5q58 0 122 38l39 -88q-92 -52 -188 -52q-65 0 -115.5 26z" />
    <glyph glyph-name="cacute" unicode="&#x107;" horiz-adv-x="492" 
d="M139.5 14q-50.5 26 -79 73t-28.5 107q0 87 38 157.5t105 110.5t151 40q92 0 178 -53l-59 -89q-61 40 -116 40q-48 0 -86 -25t-59.5 -69.5t-21.5 -98.5q0 -52 33.5 -84.5t86.5 -32.5q58 0 122 38l39 -88q-92 -52 -188 -52q-65 0 -115.5 26zM261 605l193 127l52 -85
l-203 -112z" />
    <glyph glyph-name="ccaron" unicode="&#x10d;" horiz-adv-x="492" 
d="M139.5 14q-50.5 26 -79 73t-28.5 107q0 87 38 157.5t105 110.5t151 40q92 0 178 -53l-59 -89q-61 40 -116 40q-48 0 -86 -25t-59.5 -69.5t-21.5 -98.5q0 -52 33.5 -84.5t86.5 -32.5q58 0 122 38l39 -88q-92 -52 -188 -52q-65 0 -115.5 26zM191 668l60 55l90 -90l128 93
l46 -67l-143 -114h-77z" />
    <glyph glyph-name="ccedilla" unicode="&#xe7;" horiz-adv-x="492" 
d="M243 375q-38 -25 -59.5 -69.5t-21.5 -98.5q0 -52 33.5 -84.5t86.5 -32.5q58 0 122 38l39 -88q-79 -45 -160 -51l-11 -33q26 -8 41 -29t15 -49q0 -46 -39 -77.5t-98 -31.5q-51 0 -107 24l29 69q38 -16 68 -16q20 0 32.5 9.5t12.5 24.5q0 14 -13 23t-34 9h-10l28 82
q-75 16 -120 69.5t-45 130.5q0 87 38 157.5t105 110.5t151 40q92 0 178 -53l-59 -89q-61 40 -116 40q-48 0 -86 -25z" />
    <glyph glyph-name="ccircumflex" unicode="&#x109;" horiz-adv-x="492" 
d="M139.5 14q-50.5 26 -79 73t-28.5 107q0 87 38 157.5t105 110.5t151 40q92 0 178 -53l-59 -89q-61 40 -116 40q-48 0 -86 -25t-59.5 -69.5t-21.5 -98.5q0 -52 33.5 -84.5t86.5 -32.5q58 0 122 38l39 -88q-92 -52 -188 -52q-65 0 -115.5 26zM171 600l144 114h77l104 -122
l-60 -55l-91 90l-127 -93z" />
    <glyph glyph-name="cdotaccent" unicode="&#x10b;" horiz-adv-x="492" 
d="M139.5 14q-50.5 26 -79 73t-28.5 107q0 87 38 157.5t105 110.5t151 40q92 0 178 -53l-59 -89q-61 40 -116 40q-48 0 -86 -25t-59.5 -69.5t-21.5 -98.5q0 -52 33.5 -84.5t86.5 -32.5q58 0 122 38l39 -88q-92 -52 -188 -52q-65 0 -115.5 26zM286.5 573.5
q-17.5 17.5 -17.5 45.5q0 36 24.5 60.5t60.5 24.5q28 0 46 -17.5t18 -46.5q0 -35 -24.5 -59.5t-60.5 -24.5q-29 0 -46.5 17.5z" />
    <glyph glyph-name="d" unicode="d" 
d="M82 41.5q-50 53.5 -50 144.5q0 90 33 162t91.5 113t131.5 41q45 0 80.5 -19t55.5 -54l48 275h128l-124 -704h-97l-5 59q-32 -35 -72.5 -53t-85.5 -18q-84 0 -134 53.5zM343 124q35 31 44 83l11 63q3 15 3 31q0 43 -25.5 69.5t-66.5 26.5q-42 0 -75.5 -25t-52.5 -70
t-19 -101q0 -48 28 -78t72 -30q46 0 81 31z" />
    <glyph glyph-name="eth" unicode="&#xf0;" 
d="M134 14.5q-49 26.5 -75.5 71.5t-26.5 101q0 86 35 154.5t97 107t141 38.5q70 0 116 -44q-16 81 -72 134l-137 -59l-26 67l88 38q-32 19 -55 28l33 81q78 -21 135 -61l116 51l26 -67l-83 -36q52 -56 79 -131.5t27 -165.5q0 -97 -39.5 -173t-109 -118.5t-157.5 -42.5
q-63 0 -112 26.5zM340 108.5q35 25.5 55 70t20 99.5q0 51 -29 82.5t-78 31.5q-43 0 -78.5 -25.5t-55.5 -70.5t-20 -99q0 -51 29 -82.5t78 -31.5q44 0 79 25.5z" />
    <glyph glyph-name="dcaron" unicode="&#x10f;" horiz-adv-x="679" 
d="M615 567l89 179l89 -39l-101 -175zM82 41.5q-50 53.5 -50 144.5q0 90 33 162t91.5 113t131.5 41q45 0 80.5 -19t55.5 -54l48 275h128l-124 -704h-97l-5 59q-32 -35 -72.5 -53t-85.5 -18q-84 0 -134 53.5zM343 124q35 31 44 83l11 63q3 15 3 31q0 43 -25.5 69.5
t-66.5 26.5q-42 0 -75.5 -25t-52.5 -70t-19 -101q0 -48 28 -78t72 -30q46 0 81 31z" />
    <glyph glyph-name="dcroat" unicode="&#x111;" horiz-adv-x="587" 
d="M82 41.5q-50 53.5 -50 144.5q0 90 33 162t91.5 113t131.5 41q45 0 80.5 -19t55.5 -54l21 122h-161l15 88h161l12 65h128l-12 -65h60l-15 -88h-60l-97 -551h-97l-5 59q-32 -35 -72.5 -53t-85.5 -18q-84 0 -134 53.5zM343 124q35 31 44 83l11 63q3 15 3 31q0 43 -25.5 69.5
t-66.5 26.5q-42 0 -75.5 -25t-52.5 -70t-19 -101q0 -48 28 -78t72 -30q46 0 81 31z" />
    <glyph glyph-name="e" unicode="e" horiz-adv-x="543" 
d="M141 14q-52 26 -80.5 72.5t-28.5 107.5q0 88 37 158.5t102 110t147 39.5q58 0 103.5 -25.5t71.5 -70.5t26 -102q0 -47 -13 -93h-349v-8q0 -15 1 -22q6 -44 40 -71t84 -27q64 0 136 42l39 -84q-100 -53 -195 -53q-69 0 -121 26zM398 288q2 19 1 28q-2 41 -27.5 66
t-66.5 25q-47 0 -85.5 -33t-51.5 -86h230z" />
    <glyph glyph-name="eacute" unicode="&#xe9;" horiz-adv-x="543" 
d="M141 14q-52 26 -80.5 72.5t-28.5 107.5q0 88 37 158.5t102 110t147 39.5q58 0 103.5 -25.5t71.5 -70.5t26 -102q0 -47 -13 -93h-349v-8q0 -15 1 -22q6 -44 40 -71t84 -27q64 0 136 42l39 -84q-100 -53 -195 -53q-69 0 -121 26zM398 288q2 19 1 28q-2 41 -27.5 66
t-66.5 25q-47 0 -85.5 -33t-51.5 -86h230zM266 605l193 127l52 -85l-203 -112z" />
    <glyph glyph-name="ebreve" unicode="&#x115;" horiz-adv-x="543" 
d="M141 14q-52 26 -80.5 72.5t-28.5 107.5q0 88 37 158.5t102 110t147 39.5q58 0 103.5 -25.5t71.5 -70.5t26 -102q0 -47 -13 -93h-349v-8q0 -15 1 -22q6 -44 40 -71t84 -27q64 0 136 42l39 -84q-100 -53 -195 -53q-69 0 -121 26zM398 288q2 19 1 28q-2 41 -27.5 66
t-66.5 25q-47 0 -85.5 -33t-51.5 -86h230zM236.5 573.5q-39.5 36.5 -39.5 95.5q0 13 2 29h80q-1 -5 -1 -13q0 -28 18.5 -44t49.5 -16q36 0 62 20t33 53h85q-13 -74 -63.5 -117.5t-123.5 -43.5q-63 0 -102.5 36.5z" />
    <glyph glyph-name="ecaron" unicode="&#x11b;" horiz-adv-x="543" 
d="M141 14q-52 26 -80.5 72.5t-28.5 107.5q0 88 37 158.5t102 110t147 39.5q58 0 103.5 -25.5t71.5 -70.5t26 -102q0 -47 -13 -93h-349v-8q0 -15 1 -22q6 -44 40 -71t84 -27q64 0 136 42l39 -84q-100 -53 -195 -53q-69 0 -121 26zM398 288q2 19 1 28q-2 41 -27.5 66
t-66.5 25q-47 0 -85.5 -33t-51.5 -86h230zM196 668l60 55l90 -90l128 93l46 -67l-143 -114h-77z" />
    <glyph glyph-name="ecircumflex" unicode="&#xea;" horiz-adv-x="543" 
d="M141 14q-52 26 -80.5 72.5t-28.5 107.5q0 88 37 158.5t102 110t147 39.5q58 0 103.5 -25.5t71.5 -70.5t26 -102q0 -47 -13 -93h-349v-8q0 -15 1 -22q6 -44 40 -71t84 -27q64 0 136 42l39 -84q-100 -53 -195 -53q-69 0 -121 26zM398 288q2 19 1 28q-2 41 -27.5 66
t-66.5 25q-47 0 -85.5 -33t-51.5 -86h230zM176 600l144 114h77l104 -122l-60 -55l-91 90l-127 -93z" />
    <glyph glyph-name="edieresis" unicode="&#xeb;" horiz-adv-x="543" 
d="M141 14q-52 26 -80.5 72.5t-28.5 107.5q0 88 37 158.5t102 110t147 39.5q58 0 103.5 -25.5t71.5 -70.5t26 -102q0 -47 -13 -93h-349v-8q0 -15 1 -22q6 -44 40 -71t84 -27q64 0 136 42l39 -84q-100 -53 -195 -53q-69 0 -121 26zM398 288q2 19 1 28q-2 41 -27.5 66
t-66.5 25q-47 0 -85.5 -33t-51.5 -86h230zM184.5 577.5q-16.5 16.5 -16.5 42.5q0 33 23 56t56 23q26 0 42.5 -16.5t16.5 -42.5q0 -34 -22.5 -56.5t-56.5 -22.5q-26 0 -42.5 16.5zM407.5 577.5q-16.5 16.5 -16.5 42.5q0 33 22.5 56t56.5 23q26 0 42.5 -16.5t16.5 -42.5
q0 -34 -23 -56.5t-56 -22.5q-26 0 -42.5 16.5z" />
    <glyph glyph-name="edotaccent" unicode="&#x117;" horiz-adv-x="543" 
d="M141 14q-52 26 -80.5 72.5t-28.5 107.5q0 88 37 158.5t102 110t147 39.5q58 0 103.5 -25.5t71.5 -70.5t26 -102q0 -47 -13 -93h-349v-8q0 -15 1 -22q6 -44 40 -71t84 -27q64 0 136 42l39 -84q-100 -53 -195 -53q-69 0 -121 26zM398 288q2 19 1 28q-2 41 -27.5 66
t-66.5 25q-47 0 -85.5 -33t-51.5 -86h230zM291.5 573.5q-17.5 17.5 -17.5 45.5q0 36 24.5 60.5t60.5 24.5q28 0 46 -17.5t18 -46.5q0 -35 -24.5 -59.5t-60.5 -24.5q-29 0 -46.5 17.5z" />
    <glyph glyph-name="egrave" unicode="&#xe8;" horiz-adv-x="543" 
d="M141 14q-52 26 -80.5 72.5t-28.5 107.5q0 88 37 158.5t102 110t147 39.5q58 0 103.5 -25.5t71.5 -70.5t26 -102q0 -47 -13 -93h-349v-8q0 -15 1 -22q6 -44 40 -71t84 -27q64 0 136 42l39 -84q-100 -53 -195 -53q-69 0 -121 26zM398 288q2 19 1 28q-2 41 -27.5 66
t-66.5 25q-47 0 -85.5 -33t-51.5 -86h230zM199 652l57 79l176 -126l-51 -70z" />
    <glyph glyph-name="emacron" unicode="&#x113;" horiz-adv-x="543" 
d="M141 14q-52 26 -80.5 72.5t-28.5 107.5q0 88 37 158.5t102 110t147 39.5q58 0 103.5 -25.5t71.5 -70.5t26 -102q0 -47 -13 -93h-349v-8q0 -15 1 -22q6 -44 40 -71t84 -27q64 0 136 42l39 -84q-100 -53 -195 -53q-69 0 -121 26zM398 288q2 19 1 28q-2 41 -27.5 66
t-66.5 25q-47 0 -85.5 -33t-51.5 -86h230zM200 673h313l-16 -87h-312z" />
    <glyph glyph-name="eogonek" unicode="&#x119;" horiz-adv-x="543" 
d="M271 -206q-28 25 -28 66q0 34 22 69t61 65q-33 -6 -64 -6q-69 0 -121 26t-80.5 72.5t-28.5 107.5q0 88 37 158.5t102 110t147 39.5q58 0 103.5 -25.5t71.5 -70.5t26 -102q0 -47 -13 -93h-349v-8q0 -15 1 -22q6 -44 40 -71t84 -27q64 0 136 42l39 -84q-52 -37 -83 -79
t-31 -74q0 -19 10.5 -30.5t27.5 -11.5q13 0 31 4l13 -70q-41 -11 -80 -11q-46 0 -74 25zM398 288q2 19 1 28q-2 41 -27.5 66t-66.5 25q-47 0 -85.5 -33t-51.5 -86h230z" />
    <glyph glyph-name="f" unicode="f" horiz-adv-x="383" 
d="M139 393h-92l18 97h92l14 82q12 66 60.5 105t118.5 39q49 0 120 -23l-38 -95q-43 16 -67 16q-26 0 -45 -16.5t-24 -42.5l-11 -65h119l-18 -97h-119l-69 -393h-128z" />
    <glyph glyph-name="g" unicode="g" 
d="M101 -207.5q-57 12.5 -109 36.5l43 95q43 -21 87 -32.5t79 -11.5q58 0 97.5 30t49.5 84l9 55q-27 -30 -63 -45.5t-78 -15.5q-84 0 -134 53.5t-50 144.5q0 90 33 162t91.5 113t131.5 41q46 0 83.5 -20.5t56.5 -57.5l28 66h107l-88 -497q-18 -100 -90 -156.5t-179 -56.5
q-48 0 -105 12.5zM343.5 124q34.5 31 43.5 83l11 63q3 15 3 31q0 43 -25.5 69.5t-66.5 26.5q-42 0 -75.5 -25t-52.5 -70t-19 -101q0 -48 28 -78t72 -30q47 0 81.5 31z" />
    <glyph glyph-name="gbreve" unicode="&#x11f;" 
d="M101 -207.5q-57 12.5 -109 36.5l43 95q43 -21 87 -32.5t79 -11.5q58 0 97.5 30t49.5 84l9 55q-27 -30 -63 -45.5t-78 -15.5q-84 0 -134 53.5t-50 144.5q0 90 33 162t91.5 113t131.5 41q46 0 83.5 -20.5t56.5 -57.5l28 66h107l-88 -497q-18 -100 -90 -156.5t-179 -56.5
q-48 0 -105 12.5zM343.5 124q34.5 31 43.5 83l11 63q3 15 3 31q0 43 -25.5 69.5t-66.5 26.5q-42 0 -75.5 -25t-52.5 -70t-19 -101q0 -48 28 -78t72 -30q47 0 81.5 31zM245.5 573.5q-39.5 36.5 -39.5 95.5q0 13 2 29h80q-1 -5 -1 -13q0 -28 18.5 -44t49.5 -16q36 0 62 20
t33 53h85q-13 -74 -63.5 -117.5t-123.5 -43.5q-63 0 -102.5 36.5z" />
    <glyph glyph-name="gcircumflex" unicode="&#x11d;" 
d="M101 -207.5q-57 12.5 -109 36.5l43 95q43 -21 87 -32.5t79 -11.5q58 0 97.5 30t49.5 84l9 55q-27 -30 -63 -45.5t-78 -15.5q-84 0 -134 53.5t-50 144.5q0 90 33 162t91.5 113t131.5 41q46 0 83.5 -20.5t56.5 -57.5l28 66h107l-88 -497q-18 -100 -90 -156.5t-179 -56.5
q-48 0 -105 12.5zM343.5 124q34.5 31 43.5 83l11 63q3 15 3 31q0 43 -25.5 69.5t-66.5 26.5q-42 0 -75.5 -25t-52.5 -70t-19 -101q0 -48 28 -78t72 -30q47 0 81.5 31zM185 600l144 114h77l104 -122l-60 -55l-91 90l-127 -93z" />
    <glyph glyph-name="gcommaaccent" unicode="&#x123;" 
d="M300 560.5q-17 19.5 -17 51.5q0 49 37 99t101 87l30 -45q-58 -39 -74 -84q20 0 33.5 -13.5t13.5 -35.5q0 -34 -22.5 -56.5t-56.5 -22.5q-28 0 -45 19.5zM101 -207.5q-57 12.5 -109 36.5l43 95q43 -21 87 -32.5t79 -11.5q58 0 97.5 30t49.5 84l9 55q-27 -30 -63 -45.5
t-78 -15.5q-84 0 -134 53.5t-50 144.5q0 90 33 162t91.5 113t131.5 41q46 0 83.5 -20.5t56.5 -57.5l28 66h107l-88 -497q-18 -100 -90 -156.5t-179 -56.5q-48 0 -105 12.5zM343.5 124q34.5 31 43.5 83l11 63q3 15 3 31q0 43 -25.5 69.5t-66.5 26.5q-42 0 -75.5 -25
t-52.5 -70t-19 -101q0 -48 28 -78t72 -30q47 0 81.5 31z" />
    <glyph glyph-name="gdotaccent" unicode="&#x121;" 
d="M101 -207.5q-57 12.5 -109 36.5l43 95q43 -21 87 -32.5t79 -11.5q58 0 97.5 30t49.5 84l9 55q-27 -30 -63 -45.5t-78 -15.5q-84 0 -134 53.5t-50 144.5q0 90 33 162t91.5 113t131.5 41q46 0 83.5 -20.5t56.5 -57.5l28 66h107l-88 -497q-18 -100 -90 -156.5t-179 -56.5
q-48 0 -105 12.5zM343.5 124q34.5 31 43.5 83l11 63q3 15 3 31q0 43 -25.5 69.5t-66.5 26.5q-42 0 -75.5 -25t-52.5 -70t-19 -101q0 -48 28 -78t72 -30q47 0 81.5 31zM300.5 573.5q-17.5 17.5 -17.5 45.5q0 36 24.5 60.5t60.5 24.5q28 0 46 -17.5t18 -46.5
q0 -35 -24.5 -59.5t-60.5 -24.5q-29 0 -46.5 17.5z" />
    <glyph glyph-name="h" unicode="h" 
d="M146 704h128l-47 -268q29 31 68.5 48.5t81.5 17.5q73 0 118.5 -43t45.5 -112q0 -25 -5 -55l-52 -292h-128l50 285q4 20 4 33q0 36 -22.5 57.5t-60.5 21.5q-48 0 -83.5 -33t-44.5 -86l-49 -278h-128z" />
    <glyph glyph-name="hbar" unicode="&#x127;" 
d="M119 551h-59l15 88h59l12 65h128l-12 -65h162l-15 -88h-162l-20 -115q29 31 68.5 48.5t81.5 17.5q73 0 118.5 -43t45.5 -112q0 -25 -5 -55l-52 -292h-128l50 285q4 20 4 33q0 36 -22.5 57.5t-60.5 21.5q-48 0 -83.5 -33t-44.5 -86l-49 -278h-128z" />
    <glyph glyph-name="hcircumflex" unicode="&#x125;" 
d="M146 704h128l-47 -268q29 31 68.5 48.5t81.5 17.5q73 0 118.5 -43t45.5 -112q0 -25 -5 -55l-52 -292h-128l50 285q4 20 4 33q0 36 -22.5 57.5t-60.5 21.5q-48 0 -83.5 -33t-44.5 -86l-49 -278h-128zM60 814l144 114h77l104 -122l-60 -55l-91 90l-127 -93z" />
    <glyph glyph-name="i" unicode="i" horiz-adv-x="259" 
d="M136.5 571.5q-18.5 18.5 -18.5 47.5q0 37 25.5 62.5t62.5 25.5q29 0 47.5 -18.5t18.5 -47.5q0 -37 -25.5 -62.5t-62.5 -25.5q-29 0 -47.5 18.5zM109 490h128l-87 -490h-128z" />
    <glyph glyph-name="dotlessi" unicode="&#x131;" horiz-adv-x="259" 
d="M109 490h128l-87 -490h-128z" />
    <glyph glyph-name="iacute" unicode="&#xed;" horiz-adv-x="259" 
d="M109 490h128l-87 -490h-128zM112 605l193 127l52 -85l-203 -112z" />
    <glyph glyph-name="ibreve" unicode="&#x12d;" horiz-adv-x="259" 
d="M109 490h128l-87 -490h-128zM82.5 573.5q-39.5 36.5 -39.5 95.5q0 13 2 29h80q-1 -5 -1 -13q0 -28 18.5 -44t49.5 -16q36 0 62 20t33 53h85q-13 -74 -63.5 -117.5t-123.5 -43.5q-63 0 -102.5 36.5z" />
    <glyph glyph-name="icircumflex" unicode="&#xee;" horiz-adv-x="259" 
d="M109 490h128l-87 -490h-128zM22 600l144 114h77l104 -122l-60 -55l-91 90l-127 -93z" />
    <glyph glyph-name="idieresis" unicode="&#xef;" horiz-adv-x="259" 
d="M109 490h128l-87 -490h-128zM30.5 577.5q-16.5 16.5 -16.5 42.5q0 33 23 56t56 23q26 0 42.5 -16.5t16.5 -42.5q0 -34 -22.5 -56.5t-56.5 -22.5q-26 0 -42.5 16.5zM253.5 577.5q-16.5 16.5 -16.5 42.5q0 33 22.5 56t56.5 23q26 0 42.5 -16.5t16.5 -42.5q0 -34 -23 -56.5
t-56 -22.5q-26 0 -42.5 16.5z" />
    <glyph glyph-name="i.loclTRK" horiz-adv-x="259" 
d="M109 490h128l-87 -490h-128zM137.5 573.5q-17.5 17.5 -17.5 45.5q0 36 24.5 60.5t60.5 24.5q28 0 46 -17.5t18 -46.5q0 -35 -24.5 -59.5t-60.5 -24.5q-29 0 -46.5 17.5z" />
    <glyph glyph-name="igrave" unicode="&#xec;" horiz-adv-x="259" 
d="M109 490h128l-87 -490h-128zM45 652l57 79l176 -126l-51 -70z" />
    <glyph glyph-name="ij" unicode="&#x133;" horiz-adv-x="526" 
d="M136.5 571.5q-18.5 18.5 -18.5 47.5q0 37 25.5 62.5t62.5 25.5q29 0 47.5 -18.5t18.5 -47.5q0 -37 -25.5 -62.5t-62.5 -25.5q-29 0 -47.5 18.5zM109 490h128l-87 -490h-128zM403.5 571.5q-18.5 18.5 -18.5 47.5q0 37 25.5 62.5t62.5 25.5q29 0 47.5 -18.5t18.5 -47.5
q0 -37 -25.5 -62.5t-62.5 -25.5q-29 0 -47.5 18.5zM105 -197l38 94q45 -15 67 -15q26 0 45 16.5t24 42.5l97 549h128l-101 -566q-11 -66 -59.5 -105t-118.5 -39q-49 0 -120 23z" />
    <glyph glyph-name="imacron" unicode="&#x12b;" horiz-adv-x="259" 
d="M109 490h128l-87 -490h-128zM46 673h313l-16 -87h-312z" />
    <glyph glyph-name="iogonek" unicode="&#x12f;" horiz-adv-x="259" 
d="M136.5 571.5q-18.5 18.5 -18.5 47.5q0 37 25.5 62.5t62.5 25.5q29 0 47.5 -18.5t18.5 -47.5q0 -37 -25.5 -62.5t-62.5 -25.5q-29 0 -47.5 18.5zM-23 -207q-27 24 -27 63q0 37 27.5 74.5t76.5 69.5h-32l87 490h128l-87 -490q-48 -31 -74.5 -62t-26.5 -57q0 -16 10.5 -25.5
t26.5 -9.5q14 0 32 4l13 -70q-41 -11 -82 -11q-45 0 -72 24z" />
    <glyph glyph-name="itilde" unicode="&#x129;" horiz-adv-x="259" 
d="M109 490h128l-87 -490h-128zM20 593q14 45 45.5 71.5t72.5 26.5q20 0 34.5 -5t34.5 -15q16 -8 25.5 -11.5t20.5 -3.5q14 0 26 9.5t18 25.5l73 -24q-15 -45 -46.5 -71.5t-72.5 -26.5q-19 0 -33 5t-36 15q-15 8 -25 11.5t-21 3.5q-14 0 -25.5 -9.5t-18.5 -25.5z" />
    <glyph glyph-name="j" unicode="j" horiz-adv-x="267" 
d="M144.5 571.5q-18.5 18.5 -18.5 47.5q0 37 25.5 62.5t62.5 25.5q29 0 47.5 -18.5t18.5 -47.5q0 -37 -25.5 -62.5t-62.5 -25.5q-29 0 -47.5 18.5zM-154 -197l38 94q45 -15 67 -15q26 0 45 16.5t24 42.5l97 549h128l-101 -566q-11 -66 -59.5 -105t-118.5 -39q-49 0 -120 23z
" />
    <glyph glyph-name="uni0237" unicode="&#x237;" horiz-adv-x="267" 
d="M-154 -197l38 94q45 -15 67 -15q26 0 45 16.5t24 42.5l97 549h128l-101 -566q-11 -66 -59.5 -105t-118.5 -39q-49 0 -120 23z" />
    <glyph glyph-name="jacute" horiz-adv-x="267" 
d="M-154 -197l38 94q45 -15 67 -15q26 0 45 16.5t24 42.5l97 549h128l-101 -566q-11 -66 -59.5 -105t-118.5 -39q-49 0 -120 23zM120 605l193 127l52 -85l-203 -112z" />
    <glyph glyph-name="jcircumflex" unicode="&#x135;" horiz-adv-x="267" 
d="M-154 -197l38 94q45 -15 67 -15q26 0 45 16.5t24 42.5l97 549h128l-101 -566q-11 -66 -59.5 -105t-118.5 -39q-49 0 -120 23zM30 600l144 114h77l104 -122l-60 -55l-91 90l-127 -93z" />
    <glyph glyph-name="k" unicode="k" horiz-adv-x="523" 
d="M146 704h123l-73 -416l218 202h147l-250 -229l166 -261h-139l-118 191l-49 -45l-26 -146h-123z" />
    <glyph glyph-name="kcommaaccent" unicode="&#x137;" horiz-adv-x="523" 
d="M146 704h123l-73 -416l218 202h147l-250 -229l166 -261h-139l-118 191l-49 -45l-26 -146h-123zM102 -263q57 39 74 84q-21 0 -34 13.5t-13 35.5q0 34 22.5 56.5t56.5 22.5q28 0 44.5 -19.5t16.5 -51.5q0 -49 -37 -99.5t-101 -86.5z" />
    <glyph glyph-name="kgreenlandic" unicode="&#x138;" horiz-adv-x="523" 
d="M109 490h123l-36 -202l218 202h146l-249 -229l166 -261h-139l-118 191l-49 -45l-26 -146h-123z" />
    <glyph glyph-name="l" unicode="l" horiz-adv-x="307" 
d="M78 19.5q-35 31.5 -35 83.5q0 18 3 37l100 564h128l-99 -558l-2 -20q0 -17 11 -26.5t29 -9.5q8 0 38 5l6 -98q-52 -9 -86 -9q-58 0 -93 31.5z" />
    <glyph glyph-name="lacute" unicode="&#x13a;" horiz-adv-x="307" 
d="M78 19.5q-35 31.5 -35 83.5q0 18 3 37l100 564h128l-99 -558l-2 -20q0 -17 11 -26.5t29 -9.5q8 0 38 5l6 -98q-52 -9 -86 -9q-58 0 -93 31.5zM150 819l193 127l52 -85l-203 -112z" />
    <glyph glyph-name="lcaron" unicode="&#x13e;" horiz-adv-x="297" 
d="M297 567l89 179l89 -39l-101 -175zM78 19.5q-35 31.5 -35 83.5q0 18 3 37l100 564h128l-99 -558l-2 -20q0 -17 11 -26.5t29 -9.5q8 0 38 5l6 -98q-52 -9 -86 -9q-58 0 -93 31.5z" />
    <glyph glyph-name="lcommaaccent" unicode="&#x13c;" horiz-adv-x="307" 
d="M78 19.5q-35 31.5 -35 83.5q0 18 3 37l100 564h128l-99 -558l-2 -20q0 -17 11 -26.5t29 -9.5q8 0 38 5l6 -98q-52 -9 -86 -9q-58 0 -93 31.5zM16 -263q57 39 74 84q-21 0 -34 13.5t-13 35.5q0 34 22.5 56.5t56.5 22.5q28 0 44.5 -19.5t16.5 -51.5q0 -49 -37 -99.5
t-101 -86.5z" />
    <glyph glyph-name="ldot" unicode="&#x140;" horiz-adv-x="390" 
d="M284.5 287.5q-17.5 17.5 -17.5 45.5q0 36 24.5 60.5t60.5 24.5q29 0 46.5 -17.5t17.5 -46.5q0 -35 -24.5 -59.5t-60.5 -24.5q-29 0 -46.5 17.5zM78 19.5q-35 31.5 -35 83.5q0 18 3 37l100 564h128l-99 -558l-2 -20q0 -17 11 -26.5t29 -9.5q8 0 38 5l6 -98q-52 -9 -86 -9
q-58 0 -93 31.5z" />
    <glyph glyph-name="lslash" unicode="&#x142;" horiz-adv-x="339" 
d="M86 19.5q-35 31.5 -35 83.5q0 18 3 37l24 134l-67 -31l-30 82l115 52l58 327h128l-47 -266l85 39l30 -82l-133 -60l-34 -189l-2 -20q0 -17 11 -26.5t29 -9.5q8 0 38 5l6 -98q-52 -9 -86 -9q-58 0 -93 31.5z" />
    <glyph glyph-name="m" unicode="m" horiz-adv-x="887" 
d="M109 490h96l5 -64q31 37 72 56.5t87 19.5q51 0 88 -23.5t52 -64.5q31 40 79 64t99 24q69 0 113 -42t44 -108q0 -24 -4 -48l-54 -304h-128l52 297q3 14 3 29q0 33 -21 52t-55 19q-44 0 -77 -31.5t-42 -81.5l-50 -284h-128l52 297q3 14 3 29q0 33 -20.5 52t-55.5 19
q-44 0 -76.5 -31t-42.5 -82l-50 -284h-128z" />
    <glyph glyph-name="n" unicode="n" 
d="M109 490h96l5 -68q31 38 75 59t92 21q73 0 118.5 -43t45.5 -112q0 -25 -5 -55l-52 -292h-128l50 285q4 20 4 33q0 36 -22.5 57.5t-60.5 21.5q-48 0 -83.5 -33t-44.5 -86l-49 -278h-128z" />
    <glyph glyph-name="nacute" unicode="&#x144;" 
d="M109 490h96l5 -68q31 38 75 59t92 21q73 0 118.5 -43t45.5 -112q0 -25 -5 -55l-52 -292h-128l50 285q4 20 4 33q0 36 -22.5 57.5t-60.5 21.5q-48 0 -83.5 -33t-44.5 -86l-49 -278h-128zM295 605l193 127l52 -85l-203 -112z" />
    <glyph glyph-name="ncaron" unicode="&#x148;" 
d="M109 490h96l5 -68q31 38 75 59t92 21q73 0 118.5 -43t45.5 -112q0 -25 -5 -55l-52 -292h-128l50 285q4 20 4 33q0 36 -22.5 57.5t-60.5 21.5q-48 0 -83.5 -33t-44.5 -86l-49 -278h-128zM225 668l60 55l90 -90l128 93l46 -67l-143 -114h-77z" />
    <glyph glyph-name="ncommaaccent" unicode="&#x146;" 
d="M109 490h96l5 -68q31 38 75 59t92 21q73 0 118.5 -43t45.5 -112q0 -25 -5 -55l-52 -292h-128l50 285q4 20 4 33q0 36 -22.5 57.5t-60.5 21.5q-48 0 -83.5 -33t-44.5 -86l-49 -278h-128zM137 -263q57 39 74 84q-21 0 -34 13.5t-13 35.5q0 34 22.5 56.5t56.5 22.5
q28 0 44.5 -19.5t16.5 -51.5q0 -49 -37 -99.5t-101 -86.5z" />
    <glyph glyph-name="eng" unicode="&#x14b;" 
d="M172 -197l38 94q45 -15 67 -15q26 0 45 16.5t24 43.5l60 343q4 20 4 33q0 36 -22.5 57.5t-60.5 21.5q-48 0 -83.5 -33t-44.5 -86l-49 -278h-128l87 490h96l5 -68q31 38 75 59t92 21q73 0 118.5 -43t45.5 -112q0 -25 -5 -55l-66 -368q-11 -66 -59.5 -105t-118.5 -39
q-49 0 -120 23z" />
    <glyph glyph-name="ntilde" unicode="&#xf1;" 
d="M109 490h96l5 -68q31 38 75 59t92 21q73 0 118.5 -43t45.5 -112q0 -25 -5 -55l-52 -292h-128l50 285q4 20 4 33q0 36 -22.5 57.5t-60.5 21.5q-48 0 -83.5 -33t-44.5 -86l-49 -278h-128zM203 593q14 45 45.5 71.5t72.5 26.5q20 0 34.5 -5t34.5 -15q16 -8 25.5 -11.5
t20.5 -3.5q14 0 26 9.5t18 25.5l73 -24q-15 -45 -46.5 -71.5t-72.5 -26.5q-19 0 -33 5t-36 15q-15 8 -25 11.5t-21 3.5q-14 0 -25.5 -9.5t-18.5 -25.5z" />
    <glyph glyph-name="o" unicode="o" 
d="M138.5 14q-50.5 26 -78.5 72.5t-28 107.5q0 88 38 158t105.5 110t152.5 40q67 0 118 -25.5t79 -72.5t28 -108q0 -88 -38 -158t-105.5 -110t-153.5 -40q-67 0 -117.5 26zM347.5 114q35.5 26 55.5 71t20 101q0 53 -29 84.5t-78 31.5q-43 0 -78.5 -26t-55.5 -71t-20 -101
q0 -53 29 -84.5t78 -31.5q43 0 78.5 26z" />
    <glyph glyph-name="oacute" unicode="&#xf3;" 
d="M138.5 14q-50.5 26 -78.5 72.5t-28 107.5q0 88 38 158t105.5 110t152.5 40q67 0 118 -25.5t79 -72.5t28 -108q0 -88 -38 -158t-105.5 -110t-153.5 -40q-67 0 -117.5 26zM347.5 114q35.5 26 55.5 71t20 101q0 53 -29 84.5t-78 31.5q-43 0 -78.5 -26t-55.5 -71t-20 -101
q0 -53 29 -84.5t78 -31.5q43 0 78.5 26zM275 605l193 127l52 -85l-203 -112z" />
    <glyph glyph-name="obreve" unicode="&#x14f;" 
d="M138.5 14q-50.5 26 -78.5 72.5t-28 107.5q0 88 38 158t105.5 110t152.5 40q67 0 118 -25.5t79 -72.5t28 -108q0 -88 -38 -158t-105.5 -110t-153.5 -40q-67 0 -117.5 26zM347.5 114q35.5 26 55.5 71t20 101q0 53 -29 84.5t-78 31.5q-43 0 -78.5 -26t-55.5 -71t-20 -101
q0 -53 29 -84.5t78 -31.5q43 0 78.5 26zM245.5 573.5q-39.5 36.5 -39.5 95.5q0 13 2 29h80q-1 -5 -1 -13q0 -28 18.5 -44t49.5 -16q36 0 62 20t33 53h85q-13 -74 -63.5 -117.5t-123.5 -43.5q-63 0 -102.5 36.5z" />
    <glyph glyph-name="ocircumflex" unicode="&#xf4;" 
d="M138.5 14q-50.5 26 -78.5 72.5t-28 107.5q0 88 38 158t105.5 110t152.5 40q67 0 118 -25.5t79 -72.5t28 -108q0 -88 -38 -158t-105.5 -110t-153.5 -40q-67 0 -117.5 26zM347.5 114q35.5 26 55.5 71t20 101q0 53 -29 84.5t-78 31.5q-43 0 -78.5 -26t-55.5 -71t-20 -101
q0 -53 29 -84.5t78 -31.5q43 0 78.5 26zM185 600l144 114h77l104 -122l-60 -55l-91 90l-127 -93z" />
    <glyph glyph-name="odieresis" unicode="&#xf6;" 
d="M138.5 14q-50.5 26 -78.5 72.5t-28 107.5q0 88 38 158t105.5 110t152.5 40q67 0 118 -25.5t79 -72.5t28 -108q0 -88 -38 -158t-105.5 -110t-153.5 -40q-67 0 -117.5 26zM347.5 114q35.5 26 55.5 71t20 101q0 53 -29 84.5t-78 31.5q-43 0 -78.5 -26t-55.5 -71t-20 -101
q0 -53 29 -84.5t78 -31.5q43 0 78.5 26zM193.5 577.5q-16.5 16.5 -16.5 42.5q0 33 23 56t56 23q26 0 42.5 -16.5t16.5 -42.5q0 -34 -22.5 -56.5t-56.5 -22.5q-26 0 -42.5 16.5zM416.5 577.5q-16.5 16.5 -16.5 42.5q0 33 22.5 56t56.5 23q26 0 42.5 -16.5t16.5 -42.5
q0 -34 -23 -56.5t-56 -22.5q-26 0 -42.5 16.5z" />
    <glyph glyph-name="ograve" unicode="&#xf2;" 
d="M138.5 14q-50.5 26 -78.5 72.5t-28 107.5q0 88 38 158t105.5 110t152.5 40q67 0 118 -25.5t79 -72.5t28 -108q0 -88 -38 -158t-105.5 -110t-153.5 -40q-67 0 -117.5 26zM347.5 114q35.5 26 55.5 71t20 101q0 53 -29 84.5t-78 31.5q-43 0 -78.5 -26t-55.5 -71t-20 -101
q0 -53 29 -84.5t78 -31.5q43 0 78.5 26zM208 652l57 79l176 -126l-51 -70z" />
    <glyph glyph-name="ohungarumlaut" unicode="&#x151;" 
d="M138.5 14q-50.5 26 -78.5 72.5t-28 107.5q0 88 38 158t105.5 110t152.5 40q67 0 118 -25.5t79 -72.5t28 -108q0 -88 -38 -158t-105.5 -110t-153.5 -40q-67 0 -117.5 26zM347.5 114q35.5 26 55.5 71t20 101q0 53 -29 84.5t-78 31.5q-43 0 -78.5 -26t-55.5 -71t-20 -101
q0 -53 29 -84.5t78 -31.5q43 0 78.5 26zM170 603l172 154l64 -76l-181 -145zM391 603l172 154l64 -76l-181 -145z" />
    <glyph glyph-name="omacron" unicode="&#x14d;" 
d="M138.5 14q-50.5 26 -78.5 72.5t-28 107.5q0 88 38 158t105.5 110t152.5 40q67 0 118 -25.5t79 -72.5t28 -108q0 -88 -38 -158t-105.5 -110t-153.5 -40q-67 0 -117.5 26zM347.5 114q35.5 26 55.5 71t20 101q0 53 -29 84.5t-78 31.5q-43 0 -78.5 -26t-55.5 -71t-20 -101
q0 -53 29 -84.5t78 -31.5q43 0 78.5 26zM209 673h313l-16 -87h-312z" />
    <glyph glyph-name="oslash" unicode="&#xf8;" 
d="M78 60q-46 54 -46 134q0 88 38 158t105.5 110t152.5 40q70 0 125 -34l32 34h88l-67 -72q47 -55 47 -134q0 -88 -38 -158t-105.5 -110t-153.5 -40q-74 0 -125 34l-32 -34h-88zM378 386q-26 21 -62 21q-47 0 -84.5 -26.5t-58.5 -73t-21 -103.5q0 -29 12 -50zM353.5 109.5
q37.5 26.5 58.5 73t21 103.5q0 28 -14 50l-214 -233q26 -20 64 -20q47 0 84.5 26.5z" />
    <glyph glyph-name="oslashacute" unicode="&#x1ff;" 
d="M78 60q-46 54 -46 134q0 88 38 158t105.5 110t152.5 40q70 0 125 -34l32 34h88l-67 -72q47 -55 47 -134q0 -88 -38 -158t-105.5 -110t-153.5 -40q-74 0 -125 34l-32 -34h-88zM378 386q-26 21 -62 21q-47 0 -84.5 -26.5t-58.5 -73t-21 -103.5q0 -29 12 -50zM353.5 109.5
q37.5 26.5 58.5 73t21 103.5q0 28 -14 50l-214 -233q26 -20 64 -20q47 0 84.5 26.5zM275 605l193 127l52 -85l-203 -112z" />
    <glyph glyph-name="otilde" unicode="&#xf5;" 
d="M138.5 14q-50.5 26 -78.5 72.5t-28 107.5q0 88 38 158t105.5 110t152.5 40q67 0 118 -25.5t79 -72.5t28 -108q0 -88 -38 -158t-105.5 -110t-153.5 -40q-67 0 -117.5 26zM347.5 114q35.5 26 55.5 71t20 101q0 53 -29 84.5t-78 31.5q-43 0 -78.5 -26t-55.5 -71t-20 -101
q0 -53 29 -84.5t78 -31.5q43 0 78.5 26zM183 593q14 45 45.5 71.5t72.5 26.5q20 0 34.5 -5t34.5 -15q16 -8 25.5 -11.5t20.5 -3.5q14 0 26 9.5t18 25.5l73 -24q-15 -45 -46.5 -71.5t-72.5 -26.5q-19 0 -33 5t-36 15q-15 8 -25 11.5t-21 3.5q-14 0 -25.5 -9.5t-18.5 -25.5z
" />
    <glyph glyph-name="oe" unicode="&#x153;" horiz-adv-x="928" 
d="M138.5 14q-50.5 26 -78.5 72.5t-28 107.5q0 88 38 158t105.5 110t152.5 40q62 0 108.5 -26t69.5 -72q35 46 86 72t111 26q58 0 103.5 -25.5t71.5 -70.5t26 -102q0 -45 -12 -93h-349v-8q0 -15 1 -22q5 -44 39.5 -71t84.5 -27q63 0 135 42l40 -84q-101 -53 -196 -53
q-64 0 -112 26.5t-72 72.5q-36 -47 -89.5 -73t-117.5 -26q-67 0 -117.5 26zM784 288q1 9 1 28q-2 41 -28 66t-66 25q-48 0 -85.5 -33t-51.5 -86h230zM347.5 114q35.5 26 55.5 71t20 101q0 53 -29 84.5t-78 31.5q-43 0 -78.5 -26t-55.5 -71t-20 -101q0 -53 29 -84.5t78 -31.5
q43 0 78.5 26z" />
    <glyph glyph-name="p" unicode="p" 
d="M109 490h96l6 -59q32 35 72.5 53t84.5 18q85 0 135 -53.5t50 -144.5q0 -90 -33 -162t-92 -113t-132 -41q-44 0 -80 19.5t-55 53.5l-47 -269h-128zM351.5 118q33.5 25 52.5 70t19 101q0 48 -28 78t-72 30q-46 0 -81.5 -31t-44.5 -82l-11 -64q-1 -5 -2 -12.5t-1 -18.5
q0 -43 26 -69.5t67 -26.5q42 0 75.5 25z" />
    <glyph glyph-name="thorn" unicode="&#xfe;" 
d="M146 704h127l-45 -263q27 30 63 45.5t77 15.5q85 0 135 -53.5t50 -144.5q0 -90 -33 -162t-92 -113t-132 -41q-44 0 -80 19.5t-55 53.5l-47 -269h-128zM351.5 118q33.5 25 52.5 70t19 101q0 48 -28 78t-72 30q-46 0 -81.5 -31t-44.5 -82l-11 -64q-1 -5 -2 -12.5t-1 -18.5
q0 -43 26 -69.5t67 -26.5q42 0 75.5 25z" />
    <glyph glyph-name="q" unicode="q" 
d="M357 49q-27 -30 -63 -45.5t-78 -15.5q-84 0 -134 53.5t-50 144.5q0 90 33 162t91.5 113t131.5 41q46 0 83.5 -20.5t56.5 -57.5l28 66h107l-123 -698h-128zM343.5 124q34.5 31 43.5 83l11 63q3 15 3 31q0 43 -25.5 69.5t-66.5 26.5q-42 0 -75.5 -25t-52.5 -70t-19 -101
q0 -48 28 -78t72 -30q47 0 81.5 31z" />
    <glyph glyph-name="r" unicode="r" horiz-adv-x="401" 
d="M109 490h96l4 -70q28 38 67 58t84 20q34 0 69 -11l-33 -101q-32 10 -61 10q-52 0 -89.5 -33.5t-47.5 -89.5l-48 -273h-128z" />
    <glyph glyph-name="racute" unicode="&#x155;" horiz-adv-x="401" 
d="M109 490h96l4 -70q28 38 67 58t84 20q34 0 69 -11l-33 -101q-32 10 -61 10q-52 0 -89.5 -33.5t-47.5 -89.5l-48 -273h-128zM198 605l193 127l52 -85l-203 -112z" />
    <glyph glyph-name="rcaron" unicode="&#x159;" horiz-adv-x="401" 
d="M109 490h96l4 -70q28 38 67 58t84 20q34 0 69 -11l-33 -101q-32 10 -61 10q-52 0 -89.5 -33.5t-47.5 -89.5l-48 -273h-128zM128 668l60 55l90 -90l128 93l46 -67l-143 -114h-77z" />
    <glyph glyph-name="rcommaaccent" unicode="&#x157;" horiz-adv-x="401" 
d="M109 490h96l4 -70q28 38 67 58t84 20q34 0 69 -11l-33 -101q-32 10 -61 10q-52 0 -89.5 -33.5t-47.5 -89.5l-48 -273h-128zM-30 -263q57 39 74 84q-21 0 -34 13.5t-13 35.5q0 34 22.5 56.5t56.5 22.5q28 0 44.5 -19.5t16.5 -51.5q0 -49 -37 -99.5t-101 -86.5z" />
    <glyph glyph-name="s" unicode="s" horiz-adv-x="455" 
d="M99.5 0q-52.5 12 -99.5 35l43 92q94 -42 153 -42q34 0 55 16t21 42q0 22 -19.5 35t-61.5 28t-68 29t-45 40.5t-19 68.5q0 45 25 81t69 56.5t99 20.5q88 0 184 -42l-43 -93q-81 38 -137 38q-32 0 -52 -15t-20 -39q0 -21 18 -32t59 -26q43 -15 70 -29.5t46.5 -41.5
t19.5 -71q0 -47 -25 -84t-70 -58t-102 -21q-48 0 -100.5 12z" />
    <glyph glyph-name="sacute" unicode="&#x15b;" horiz-adv-x="455" 
d="M99.5 0q-52.5 12 -99.5 35l43 92q94 -42 153 -42q34 0 55 16t21 42q0 22 -19.5 35t-61.5 28t-68 29t-45 40.5t-19 68.5q0 45 25 81t69 56.5t99 20.5q88 0 184 -42l-43 -93q-81 38 -137 38q-32 0 -52 -15t-20 -39q0 -21 18 -32t59 -26q43 -15 70 -29.5t46.5 -41.5
t19.5 -71q0 -47 -25 -84t-70 -58t-102 -21q-48 0 -100.5 12zM202 605l193 127l52 -85l-203 -112z" />
    <glyph glyph-name="scaron" unicode="&#x161;" horiz-adv-x="455" 
d="M99.5 0q-52.5 12 -99.5 35l43 92q94 -42 153 -42q34 0 55 16t21 42q0 22 -19.5 35t-61.5 28t-68 29t-45 40.5t-19 68.5q0 45 25 81t69 56.5t99 20.5q88 0 184 -42l-43 -93q-81 38 -137 38q-32 0 -52 -15t-20 -39q0 -21 18 -32t59 -26q43 -15 70 -29.5t46.5 -41.5
t19.5 -71q0 -47 -25 -84t-70 -58t-102 -21q-48 0 -100.5 12zM132 668l60 55l90 -90l128 93l46 -67l-143 -114h-77z" />
    <glyph glyph-name="scedilla" unicode="&#x15f;" horiz-adv-x="455" 
d="M202 319q18 -11 59 -26q43 -15 70 -29.5t46.5 -41.5t19.5 -71q0 -62 -42.5 -105.5t-112.5 -54.5l-11 -35q26 -8 41 -29t15 -49q0 -46 -39 -77.5t-98 -31.5q-52 0 -107 24l29 69q38 -16 68 -16q20 0 32.5 9.5t12.5 24.5q0 14 -13 23t-34 9h-10l27 79q-80 8 -155 44l43 92
q94 -42 153 -42q34 0 55 16t21 42q0 22 -19.5 35t-61.5 28t-68 29t-45 40.5t-19 68.5q0 45 25 81t69 56.5t99 20.5q88 0 184 -42l-43 -93q-81 38 -137 38q-32 0 -52 -15t-20 -39q0 -21 18 -32z" />
    <glyph glyph-name="scircumflex" unicode="&#x15d;" horiz-adv-x="455" 
d="M99.5 0q-52.5 12 -99.5 35l43 92q94 -42 153 -42q34 0 55 16t21 42q0 22 -19.5 35t-61.5 28t-68 29t-45 40.5t-19 68.5q0 45 25 81t69 56.5t99 20.5q88 0 184 -42l-43 -93q-81 38 -137 38q-32 0 -52 -15t-20 -39q0 -21 18 -32t59 -26q43 -15 70 -29.5t46.5 -41.5
t19.5 -71q0 -47 -25 -84t-70 -58t-102 -21q-48 0 -100.5 12zM112 600l144 114h77l104 -122l-60 -55l-91 90l-127 -93z" />
    <glyph glyph-name="scommaaccent" unicode="&#x219;" horiz-adv-x="455" 
d="M99.5 0q-52.5 12 -99.5 35l43 92q94 -42 153 -42q34 0 55 16t21 42q0 22 -19.5 35t-61.5 28t-68 29t-45 40.5t-19 68.5q0 45 25 81t69 56.5t99 20.5q88 0 184 -42l-43 -93q-81 38 -137 38q-32 0 -52 -15t-20 -39q0 -21 18 -32t59 -26q43 -15 70 -29.5t46.5 -41.5
t19.5 -71q0 -47 -25 -84t-70 -58t-102 -21q-48 0 -100.5 12zM68 -263q57 39 74 84q-21 0 -34 13.5t-13 35.5q0 34 22.5 56.5t56.5 22.5q28 0 44.5 -19.5t16.5 -51.5q0 -49 -37 -99.5t-101 -86.5z" />
    <glyph glyph-name="germandbls" unicode="&#xdf;" horiz-adv-x="625" 
d="M214 29l42 92q66 -36 122 -36q34 0 55.5 16t21.5 42q0 21 -14 34.5t-44 32.5q-28 17 -45.5 31t-30 37.5t-12.5 57.5q0 30 14.5 54.5t43.5 58.5q27 31 40 52.5t13 46.5q0 33 -21 52t-59 19q-42 0 -69 -25t-35 -73l-91 -521h-123l95 539q14 81 75.5 129t155.5 48
q91 0 145.5 -43t54.5 -114q0 -38 -16 -65.5t-47 -62.5q-23 -26 -33 -41.5t-10 -33.5q0 -23 13 -38t42 -36q39 -28 60 -56t21 -78q0 -46 -25.5 -82.5t-71 -57t-104.5 -20.5q-82 0 -163 41z" />
    <glyph glyph-name="t" unicode="t" horiz-adv-x="415" 
d="M134 25q-40 37 -40 97q0 11 4 37l41 234h-92l18 97h92l24 144h128l-24 -144h135l-18 -97h-135l-40 -227q-3 -12 -3 -23q0 -23 15.5 -38t40.5 -15q17 0 59 6l9 -97q-52 -11 -109 -11q-65 0 -105 37z" />
    <glyph glyph-name="tbar" unicode="&#x167;" horiz-adv-x="415" 
d="M134 25q-40 37 -40 97q0 11 4 37l7 46h-84l16 87h84l18 101h-92l18 97h92l24 144h128l-24 -144h135l-18 -97h-135l-19 -101h120l-15 -87h-120l-8 -46q0 -5 -1 -9t-1 -9q0 -23 16 -37t41 -14q17 0 59 6l9 -97q-52 -11 -109 -11q-65 0 -105 37z" />
    <glyph glyph-name="tcaron" unicode="&#x165;" horiz-adv-x="415" 
d="M337 567l89 179l89 -39l-101 -175zM134 25q-40 37 -40 97q0 11 4 37l41 234h-92l18 97h92l24 144h128l-24 -144h135l-18 -97h-135l-40 -227q-3 -12 -3 -23q0 -23 15.5 -38t40.5 -15q17 0 59 6l9 -97q-52 -11 -109 -11q-65 0 -105 37z" />
    <glyph glyph-name="uni0163" unicode="&#x163;" horiz-adv-x="415" 
d="M134 25q-40 37 -40 97q0 11 4 37l41 234h-92l18 97h92l24 144h128l-24 -144h135l-18 -97h-135l-40 -227q-3 -12 -3 -23q0 -23 15.5 -38t40.5 -15q17 0 59 6l9 -97q-52 -11 -109 -11q-65 0 -105 37zM83 -263q57 39 74 84q-21 0 -34 13.5t-13 35.5q0 34 22.5 56.5
t56.5 22.5q28 0 44.5 -19.5t16.5 -51.5q0 -49 -37 -99.5t-101 -86.5z" />
    <glyph glyph-name="uni021B" unicode="&#x21b;" horiz-adv-x="415" 
d="M134 25q-40 37 -40 97q0 11 4 37l41 234h-92l18 97h92l24 144h128l-24 -144h135l-18 -97h-135l-40 -227q-3 -12 -3 -23q0 -23 15.5 -38t40.5 -15q17 0 59 6l9 -97q-52 -11 -109 -11q-65 0 -105 37zM83 -263q57 39 74 84q-21 0 -34 13.5t-13 35.5q0 34 22.5 56.5
t56.5 22.5q28 0 44.5 -19.5t16.5 -51.5q0 -49 -37 -99.5t-101 -86.5z" />
    <glyph glyph-name="u" unicode="u" 
d="M89.5 31.5q-45.5 43.5 -45.5 111.5q0 25 5 55l52 292h128l-51 -285q-3 -15 -3 -32q0 -37 22.5 -58.5t60.5 -21.5q48 0 83 33t44 86l50 278h128l-87 -490h-97l-4 68q-31 -38 -75 -59t-93 -21q-72 0 -117.5 43.5z" />
    <glyph glyph-name="uacute" unicode="&#xfa;" 
d="M89.5 31.5q-45.5 43.5 -45.5 111.5q0 25 5 55l52 292h128l-51 -285q-3 -15 -3 -32q0 -37 22.5 -58.5t60.5 -21.5q48 0 83 33t44 86l50 278h128l-87 -490h-97l-4 68q-31 -38 -75 -59t-93 -21q-72 0 -117.5 43.5zM275 605l193 127l52 -85l-203 -112z" />
    <glyph glyph-name="ubreve" unicode="&#x16d;" 
d="M89.5 31.5q-45.5 43.5 -45.5 111.5q0 25 5 55l52 292h128l-51 -285q-3 -15 -3 -32q0 -37 22.5 -58.5t60.5 -21.5q48 0 83 33t44 86l50 278h128l-87 -490h-97l-4 68q-31 -38 -75 -59t-93 -21q-72 0 -117.5 43.5zM245.5 573.5q-39.5 36.5 -39.5 95.5q0 13 2 29h80
q-1 -5 -1 -13q0 -28 18.5 -44t49.5 -16q36 0 62 20t33 53h85q-13 -74 -63.5 -117.5t-123.5 -43.5q-63 0 -102.5 36.5z" />
    <glyph glyph-name="ucircumflex" unicode="&#xfb;" 
d="M89.5 31.5q-45.5 43.5 -45.5 111.5q0 25 5 55l52 292h128l-51 -285q-3 -15 -3 -32q0 -37 22.5 -58.5t60.5 -21.5q48 0 83 33t44 86l50 278h128l-87 -490h-97l-4 68q-31 -38 -75 -59t-93 -21q-72 0 -117.5 43.5zM185 600l144 114h77l104 -122l-60 -55l-91 90l-127 -93z
" />
    <glyph glyph-name="udieresis" unicode="&#xfc;" 
d="M89.5 31.5q-45.5 43.5 -45.5 111.5q0 25 5 55l52 292h128l-51 -285q-3 -15 -3 -32q0 -37 22.5 -58.5t60.5 -21.5q48 0 83 33t44 86l50 278h128l-87 -490h-97l-4 68q-31 -38 -75 -59t-93 -21q-72 0 -117.5 43.5zM193.5 577.5q-16.5 16.5 -16.5 42.5q0 33 23 56t56 23
q26 0 42.5 -16.5t16.5 -42.5q0 -34 -22.5 -56.5t-56.5 -22.5q-26 0 -42.5 16.5zM416.5 577.5q-16.5 16.5 -16.5 42.5q0 33 22.5 56t56.5 23q26 0 42.5 -16.5t16.5 -42.5q0 -34 -23 -56.5t-56 -22.5q-26 0 -42.5 16.5z" />
    <glyph glyph-name="ugrave" unicode="&#xf9;" 
d="M89.5 31.5q-45.5 43.5 -45.5 111.5q0 25 5 55l52 292h128l-51 -285q-3 -15 -3 -32q0 -37 22.5 -58.5t60.5 -21.5q48 0 83 33t44 86l50 278h128l-87 -490h-97l-4 68q-31 -38 -75 -59t-93 -21q-72 0 -117.5 43.5zM208 652l57 79l176 -126l-51 -70z" />
    <glyph glyph-name="uhungarumlaut" unicode="&#x171;" 
d="M89.5 31.5q-45.5 43.5 -45.5 111.5q0 25 5 55l52 292h128l-51 -285q-3 -15 -3 -32q0 -37 22.5 -58.5t60.5 -21.5q48 0 83 33t44 86l50 278h128l-87 -490h-97l-4 68q-31 -38 -75 -59t-93 -21q-72 0 -117.5 43.5zM170 603l172 154l64 -76l-181 -145zM391 603l172 154
l64 -76l-181 -145z" />
    <glyph glyph-name="umacron" unicode="&#x16b;" 
d="M89.5 31.5q-45.5 43.5 -45.5 111.5q0 25 5 55l52 292h128l-51 -285q-3 -15 -3 -32q0 -37 22.5 -58.5t60.5 -21.5q48 0 83 33t44 86l50 278h128l-87 -490h-97l-4 68q-31 -38 -75 -59t-93 -21q-72 0 -117.5 43.5zM209 673h313l-16 -87h-312z" />
    <glyph glyph-name="uogonek" unicode="&#x173;" horiz-adv-x="601" 
d="M303 -207q-27 24 -27 63q0 37 27 74.5t77 69.5l-5 68q-31 -38 -75 -59t-93 -21q-72 0 -117.5 43.5t-45.5 111.5q0 25 5 55l52 292h128l-51 -285q-3 -15 -3 -32q0 -37 22.5 -58.5t60.5 -21.5q48 0 83 33t44 86l50 278h128l-87 -490q-48 -31 -74.5 -62t-26.5 -57
q0 -16 10.5 -25.5t26.5 -9.5q14 0 32 4l13 -70q-41 -11 -82 -11q-45 0 -72 24z" />
    <glyph glyph-name="uring" unicode="&#x16f;" 
d="M89.5 31.5q-45.5 43.5 -45.5 111.5q0 25 5 55l52 292h128l-51 -285q-3 -15 -3 -32q0 -37 22.5 -58.5t60.5 -21.5q48 0 83 33t44 86l50 278h128l-87 -490h-97l-4 68q-31 -38 -75 -59t-93 -21q-72 0 -117.5 43.5zM274.5 551.5q-25.5 24.5 -25.5 63.5q0 50 36 84t88 34
q41 0 67 -24.5t26 -63.5q0 -50 -35.5 -84t-88.5 -34q-42 0 -67.5 24.5zM388.5 598.5q15.5 15.5 15.5 38.5q0 18 -11 28.5t-28 10.5q-23 0 -38.5 -15t-15.5 -38q0 -18 11 -29t28 -11q23 0 38.5 15.5z" />
    <glyph glyph-name="utilde" unicode="&#x169;" 
d="M89.5 31.5q-45.5 43.5 -45.5 111.5q0 25 5 55l52 292h128l-51 -285q-3 -15 -3 -32q0 -37 22.5 -58.5t60.5 -21.5q48 0 83 33t44 86l50 278h128l-87 -490h-97l-4 68q-31 -38 -75 -59t-93 -21q-72 0 -117.5 43.5zM183 593q14 45 45.5 71.5t72.5 26.5q20 0 34.5 -5t34.5 -15
q16 -8 25.5 -11.5t20.5 -3.5q14 0 26 9.5t18 25.5l73 -24q-15 -45 -46.5 -71.5t-72.5 -26.5q-19 0 -33 5t-36 15q-15 8 -25 11.5t-21 3.5q-14 0 -25.5 -9.5t-18.5 -25.5z" />
    <glyph glyph-name="v" unicode="v" horiz-adv-x="529" 
d="M50 490h126l67 -339l186 339h136l-285 -490h-118z" />
    <glyph glyph-name="w" unicode="w" horiz-adv-x="785" 
d="M58 490h121l40 -333l153 333h115l39 -333l155 333h132l-249 -490h-119l-39 333l-153 -333h-116z" />
    <glyph glyph-name="wacute" unicode="&#x1e83;" horiz-adv-x="785" 
d="M58 490h121l40 -333l153 333h115l39 -333l155 333h132l-249 -490h-119l-39 333l-153 -333h-116zM367 605l193 127l52 -85l-203 -112z" />
    <glyph glyph-name="wcircumflex" unicode="&#x175;" horiz-adv-x="785" 
d="M58 490h121l40 -333l153 333h115l39 -333l155 333h132l-249 -490h-119l-39 333l-153 -333h-116zM277 600l144 114h77l104 -122l-60 -55l-91 90l-127 -93z" />
    <glyph glyph-name="wdieresis" unicode="&#x1e85;" horiz-adv-x="785" 
d="M58 490h121l40 -333l153 333h115l39 -333l155 333h132l-249 -490h-119l-39 333l-153 -333h-116zM285.5 577.5q-16.5 16.5 -16.5 42.5q0 33 23 56t56 23q26 0 42.5 -16.5t16.5 -42.5q0 -34 -22.5 -56.5t-56.5 -22.5q-26 0 -42.5 16.5zM508.5 577.5q-16.5 16.5 -16.5 42.5
q0 33 22.5 56t56.5 23q26 0 42.5 -16.5t16.5 -42.5q0 -34 -23 -56.5t-56 -22.5q-26 0 -42.5 16.5z" />
    <glyph glyph-name="wgrave" unicode="&#x1e81;" horiz-adv-x="785" 
d="M58 490h121l40 -333l153 333h115l39 -333l155 333h132l-249 -490h-119l-39 333l-153 -333h-116zM300 652l57 79l176 -126l-51 -70z" />
    <glyph glyph-name="x" unicode="x" horiz-adv-x="529" 
d="M189 256l-129 234h135l82 -159l139 159h143l-216 -243l135 -247h-137l-86 171l-148 -171h-146z" />
    <glyph glyph-name="y" unicode="y" horiz-adv-x="529" 
d="M-37 -209l24 99q27 -8 51 -8q29 0 52 17.5t45 55.5l29 52l-114 483h126l68 -339l185 339h136l-324 -563q-43 -76 -91.5 -111.5t-108.5 -35.5q-41 0 -78 11z" />
    <glyph glyph-name="yacute" unicode="&#xfd;" horiz-adv-x="529" 
d="M-37 -209l24 99q27 -8 51 -8q29 0 52 17.5t45 55.5l29 52l-114 483h126l68 -339l185 339h136l-324 -563q-43 -76 -91.5 -111.5t-108.5 -35.5q-41 0 -78 11zM239 605l193 127l52 -85l-203 -112z" />
    <glyph glyph-name="ycircumflex" unicode="&#x177;" horiz-adv-x="529" 
d="M-37 -209l24 99q27 -8 51 -8q29 0 52 17.5t45 55.5l29 52l-114 483h126l68 -339l185 339h136l-324 -563q-43 -76 -91.5 -111.5t-108.5 -35.5q-41 0 -78 11zM149 600l144 114h77l104 -122l-60 -55l-91 90l-127 -93z" />
    <glyph glyph-name="ydieresis" unicode="&#xff;" horiz-adv-x="529" 
d="M-37 -209l24 99q27 -8 51 -8q29 0 52 17.5t45 55.5l29 52l-114 483h126l68 -339l185 339h136l-324 -563q-43 -76 -91.5 -111.5t-108.5 -35.5q-41 0 -78 11zM157.5 577.5q-16.5 16.5 -16.5 42.5q0 33 23 56t56 23q26 0 42.5 -16.5t16.5 -42.5q0 -34 -22.5 -56.5
t-56.5 -22.5q-26 0 -42.5 16.5zM380.5 577.5q-16.5 16.5 -16.5 42.5q0 33 22.5 56t56.5 23q26 0 42.5 -16.5t16.5 -42.5q0 -34 -23 -56.5t-56 -22.5q-26 0 -42.5 16.5z" />
    <glyph glyph-name="ygrave" unicode="&#x1ef3;" horiz-adv-x="529" 
d="M-37 -209l24 99q27 -8 51 -8q29 0 52 17.5t45 55.5l29 52l-114 483h126l68 -339l185 339h136l-324 -563q-43 -76 -91.5 -111.5t-108.5 -35.5q-41 0 -78 11zM172 652l57 79l176 -126l-51 -70z" />
    <glyph glyph-name="z" unicode="z" horiz-adv-x="487" 
d="M5 76l296 317h-232l18 97h399l-13 -75l-296 -318h248l-17 -97h-416z" />
    <glyph glyph-name="zacute" unicode="&#x17a;" horiz-adv-x="487" 
d="M5 76l296 317h-232l18 97h399l-13 -75l-296 -318h248l-17 -97h-416zM226 605l193 127l52 -85l-203 -112z" />
    <glyph glyph-name="zcaron" unicode="&#x17e;" horiz-adv-x="487" 
d="M5 76l296 317h-232l18 97h399l-13 -75l-296 -318h248l-17 -97h-416zM156 668l60 55l90 -90l128 93l46 -67l-143 -114h-77z" />
    <glyph glyph-name="zdotaccent" unicode="&#x17c;" horiz-adv-x="487" 
d="M5 76l296 317h-232l18 97h399l-13 -75l-296 -318h248l-17 -97h-416zM251.5 573.5q-17.5 17.5 -17.5 45.5q0 36 24.5 60.5t60.5 24.5q28 0 46 -17.5t18 -46.5q0 -35 -24.5 -59.5t-60.5 -24.5q-29 0 -46.5 17.5z" />
    <glyph glyph-name="germandbls.calt" horiz-adv-x="785" 
d="M246 49l57 92q74 -48 138 -48q58 0 97 35.5t39 86.5q0 47 -32 77t-87 30h-18l-11 66l165 182h-325l-100 -570h-128l118 672h607l-14 -81l-171 -189q57 -17 91.5 -64.5t34.5 -112.5t-35 -119.5t-96.5 -86t-136.5 -31.5q-100 0 -193 61z" />
    <glyph glyph-name="cacute.loclPLK" horiz-adv-x="492" 
d="M139.5 14q-50.5 26 -79 73t-28.5 107q0 87 38 157.5t105 110.5t151 40q92 0 178 -53l-59 -89q-61 40 -116 40q-48 0 -86 -25t-59.5 -69.5t-21.5 -98.5q0 -52 33.5 -84.5t86.5 -32.5q58 0 122 38l39 -88q-92 -52 -188 -52q-65 0 -115.5 26zM261 570l78 164l92 -41
l-89 -158z" />
    <glyph glyph-name="nacute.loclPLK" 
d="M109 490h96l5 -68q31 38 75 59t92 21q73 0 118.5 -43t45.5 -112q0 -25 -5 -55l-52 -292h-128l50 285q4 20 4 33q0 36 -22.5 57.5t-60.5 21.5q-48 0 -83.5 -33t-44.5 -86l-49 -278h-128zM295 570l78 164l92 -41l-89 -158z" />
    <glyph glyph-name="oacute.loclPLK" 
d="M138.5 14q-50.5 26 -78.5 72.5t-28 107.5q0 88 38 158t105.5 110t152.5 40q67 0 118 -25.5t79 -72.5t28 -108q0 -88 -38 -158t-105.5 -110t-153.5 -40q-67 0 -117.5 26zM347.5 114q35.5 26 55.5 71t20 101q0 53 -29 84.5t-78 31.5q-43 0 -78.5 -26t-55.5 -71t-20 -101
q0 -53 29 -84.5t78 -31.5q43 0 78.5 26zM275 570l78 164l92 -41l-89 -158z" />
    <glyph glyph-name="sacute.loclPLK" horiz-adv-x="455" 
d="M99.5 0q-52.5 12 -99.5 35l43 92q94 -42 153 -42q34 0 55 16t21 42q0 22 -19.5 35t-61.5 28t-68 29t-45 40.5t-19 68.5q0 45 25 81t69 56.5t99 20.5q88 0 184 -42l-43 -93q-81 38 -137 38q-32 0 -52 -15t-20 -39q0 -21 18 -32t59 -26q43 -15 70 -29.5t46.5 -41.5
t19.5 -71q0 -47 -25 -84t-70 -58t-102 -21q-48 0 -100.5 12zM202 570l78 164l92 -41l-89 -158z" />
    <glyph glyph-name="zacute.loclPLK" horiz-adv-x="487" 
d="M5 76l296 317h-232l18 97h399l-13 -75l-296 -318h248l-17 -97h-416zM226 570l78 164l92 -41l-89 -158z" />
    <glyph glyph-name="ordfeminine" unicode="&#xaa;" horiz-adv-x="389" 
d="M98 381.5q-32 37.5 -32 99.5q0 55 25.5 102t68 74.5t92.5 27.5q32 0 58 -12t40 -33l19 37h67l-69 -325h-67l-3 38q-22 -22 -52.5 -34t-60.5 -12q-54 0 -86 37.5zM273 434.5q22 20.5 29 53.5l11 53q3 12 3 23q0 24 -13.5 37.5t-37.5 13.5q-30 0 -53 -19t-35.5 -49
t-12.5 -62q0 -34 15 -52.5t42 -18.5q30 0 52 20.5zM32 284h339l-12 -67h-339z" />
    <glyph glyph-name="ordmasculine" unicode="&#xba;" horiz-adv-x="410" 
d="M118 381.5q-42 37.5 -42 99.5q0 58 25.5 104.5t71 73t103.5 26.5q69 0 111 -37.5t42 -99.5q0 -58 -25.5 -104.5t-71 -73t-103.5 -26.5q-69 0 -111 37.5zM304.5 453q26.5 35 26.5 87q0 32 -17.5 51.5t-46.5 19.5q-40 0 -66.5 -35t-26.5 -87q0 -32 17 -51.5t47 -19.5
q40 0 66.5 35zM48 284h335l-12 -67h-335z" />
    <glyph glyph-name="uni0394" unicode="&#x394;" horiz-adv-x="673" 
d="M-4 78l355 594h123l143 -599l-13 -73h-621zM491 102l-98 429l-254 -429h352z" />
    <glyph glyph-name="uni03A9" unicode="&#x3a9;" horiz-adv-x="775" 
d="M17 102h148q-39 43 -61 100.5t-22 118.5q0 106 46 188.5t128 128.5t187 46q84 0 151 -33t104.5 -93t37.5 -139q0 -94 -46 -174.5t-134 -142.5h148l-18 -102h-295l15 87q95 60 146 141t51 171q0 81 -47.5 130.5t-122.5 49.5q-63 0 -113.5 -33t-79 -93t-28.5 -136
q0 -62 23.5 -122.5t65.5 -107.5l-15 -87h-287z" />
    <glyph glyph-name="uni03BC" unicode="&#x3bc;" horiz-adv-x="609" 
d="M109 490h128l-51 -285q-3 -15 -3 -32q0 -37 22.5 -58.5t60.5 -21.5q48 0 83 33t44 86l50 278h128l-63 -357q-2 -10 -2 -16q0 -13 7.5 -20t20.5 -7q6 0 20 2v-97q-35 -7 -65 -7q-42 0 -70 19t-35 52q-27 -33 -63.5 -50.5t-74.5 -17.5q-61 0 -91 34l-41 -233h-128z" />
    <glyph glyph-name="pi" unicode="&#x3c0;" horiz-adv-x="649" 
d="M405.5 17q-30.5 29 -30.5 76q0 16 3 31l48 269h-168l-69 -393h-123l69 393h-88l17 97h590l-17 -97h-88l-46 -258q-2 -14 -2 -18q0 -13 7.5 -20t20.5 -7q10 0 26 4l3 -99q-45 -7 -73 -7q-49 0 -79.5 29z" />
    <glyph glyph-name="zero" unicode="0" horiz-adv-x="576" 
d="M94.5 54.5q-56.5 66.5 -56.5 186.5q0 124 41 225.5t113 159.5t161 58q103 0 159.5 -66.5t56.5 -186.5q0 -124 -41 -225.5t-112.5 -159.5t-161.5 -58q-103 0 -159.5 66.5zM358 137.5q42 44.5 66.5 120.5t24.5 166q0 73 -28 114t-79 41t-93 -44.5t-66.5 -120.5t-24.5 -166
q0 -74 27.5 -114.5t79.5 -40.5q51 0 93 44.5z" />
    <glyph glyph-name="one" unicode="1" horiz-adv-x="576" 
d="M327 543l-164 -86l-40 89l243 126h112l-118 -672h-128z" />
    <glyph glyph-name="two" unicode="2" horiz-adv-x="576" 
d="M21 86l279 236q50 43 76.5 80.5t26.5 72.5q0 47 -28 74t-77 27q-63 0 -152 -47l-39 94q121 61 229 61q90 0 143 -51t53 -136q0 -114 -136 -228l-198 -167h274l-18 -102h-449z" />
    <glyph glyph-name="three" unicode="3" horiz-adv-x="576" 
d="M126.5 3.5q-61.5 15.5 -118.5 45.5l49 92q99 -51 178 -51q53 0 89 31.5t36 77.5q0 45 -35 72t-93 27h-41l17 92h48q64 0 105.5 30.5t41.5 76.5q0 38 -27 61.5t-71 23.5q-66 0 -159 -32l-29 93q117 41 224 41q87 0 138.5 -45t51.5 -121q0 -63 -38.5 -109.5t-102.5 -65.5
q48 -15 74 -54t26 -95q0 -57 -32.5 -104.5t-89 -74.5t-124.5 -27q-56 0 -117.5 15.5z" />
    <glyph glyph-name="four" unicode="4" horiz-adv-x="576" 
d="M321 145h-314l16 92l390 435h118l-75 -429h89l-17 -98h-89l-26 -145h-118zM338 243l48 268l-240 -268h192z" />
    <glyph glyph-name="five" unicode="5" horiz-adv-x="576" 
d="M121 6q-54 18 -104 51l56 92q38 -27 78.5 -41.5t76.5 -14.5q63 0 105.5 35.5t42.5 87.5q0 50 -38 79t-105 29q-61 0 -127 -10l63 358h390l-18 -102h-277l-27 -159q34 2 52 2q97 0 154.5 -51.5t57.5 -138.5q0 -66 -36 -119.5t-98.5 -84.5t-138.5 -31q-53 0 -107 18z" />
    <glyph glyph-name="six" unicode="6" horiz-adv-x="576" 
d="M109 52.5q-59 64.5 -59 178.5q0 129 45 232.5t124 162t178 58.5q94 0 182 -52l-51 -89q-66 41 -136 41q-74 0 -130.5 -59.5t-74.5 -158.5q30 35 71.5 54t90.5 19q55 0 98.5 -23.5t68 -66.5t24.5 -100q0 -72 -35.5 -131.5t-97 -94.5t-135.5 -35q-104 0 -163 64.5zM350 107
q32 19 50.5 52t18.5 73q0 51 -29 80t-79 29q-39 0 -71.5 -17.5t-51 -48t-18.5 -67.5q0 -53 30.5 -86.5t78.5 -33.5q39 0 71 19z" />
    <glyph glyph-name="seven" unicode="7" horiz-adv-x="576" 
d="M418 570h-307l18 102h448l-16 -92l-350 -580h-140z" />
    <glyph glyph-name="eight" unicode="8" horiz-adv-x="576" 
d="M86 35q-62 47 -62 128q0 64 42.5 112t120.5 73q-42 18 -66 54.5t-24 82.5q0 57 32.5 102.5t91 71t132.5 25.5q98 0 156.5 -45.5t58.5 -121.5q0 -61 -38.5 -108t-107.5 -69q51 -20 78.5 -58.5t27.5 -86.5q0 -59 -35 -106.5t-97.5 -74t-140.5 -26.5q-107 0 -169 47z
M409 429.5q35 29.5 35 71.5q0 39 -28 62.5t-73 23.5q-53 0 -89 -29.5t-36 -72.5q0 -72 96 -95q60 10 95 39.5zM362 116.5q39 31.5 39 78.5q0 76 -106 103q-65 -12 -103 -43.5t-39 -75.5q0 -43 30.5 -68.5t81.5 -25.5q58 0 97 31.5z" />
    <glyph glyph-name="nine" unicode="9" horiz-adv-x="576" 
d="M29 40l51 89q67 -41 137 -41q74 0 130.5 59.5t74.5 158.5q-31 -36 -72.5 -54.5t-90.5 -18.5q-55 0 -98.5 23.5t-68 66.5t-24.5 100q0 72 35.5 131.5t97 94.5t136.5 35q104 0 162.5 -64.5t58.5 -178.5q0 -129 -45 -232.5t-124 -162t-178 -58.5q-93 0 -182 52zM368.5 348.5
q32.5 17.5 51.5 47.5t19 66q0 54 -30.5 88t-79.5 34q-38 0 -70 -19t-50.5 -52t-18.5 -73q0 -51 29 -80t78 -29q39 0 71.5 17.5z" />
    <glyph glyph-name="zero.lf" horiz-adv-x="660" 
d="M123.5 55q-61.5 67 -61.5 187q0 124 43.5 225t119.5 159t171 58q111 0 172.5 -67t61.5 -187q0 -124 -43.5 -225t-119.5 -159t-171 -58q-111 0 -172.5 67zM404 132.5q44 44.5 69.5 120.5t25.5 167q0 77 -29.5 120.5t-84.5 43.5q-54 0 -98 -44.5t-69.5 -120.5t-25.5 -167
q0 -78 30 -121t84 -43t98 44.5z" />
    <glyph glyph-name="one.lf" horiz-adv-x="415" 
d="M246 543l-164 -86l-40 89l243 126h112l-118 -672h-128z" />
    <glyph glyph-name="two.lf" horiz-adv-x="513" 
d="M-6 86l279 236q50 43 76.5 80.5t26.5 72.5q0 47 -28 74t-77 27q-63 0 -152 -47l-39 94q121 61 229 61q90 0 143 -51t53 -136q0 -114 -136 -228l-198 -167h274l-18 -102h-449z" />
    <glyph glyph-name="three.lf" horiz-adv-x="522" 
d="M99.5 3.5q-61.5 15.5 -118.5 45.5l49 92q99 -51 178 -51q53 0 89 31.5t36 77.5q0 45 -35 72t-93 27h-41l17 92h48q64 0 105.5 30.5t41.5 76.5q0 38 -27 61.5t-71 23.5q-66 0 -159 -32l-29 93q117 41 224 41q87 0 138.5 -45t51.5 -121q0 -63 -38.5 -109.5t-102.5 -65.5
q48 -15 74 -54t26 -95q0 -57 -32.5 -104.5t-89 -74.5t-124.5 -27q-56 0 -117.5 15.5z" />
    <glyph glyph-name="four.lf" horiz-adv-x="580" 
d="M323 145h-314l16 92l390 435h118l-75 -429h89l-17 -98h-89l-26 -145h-118zM340 243l48 268l-240 -268h192z" />
    <glyph glyph-name="five.lf" horiz-adv-x="522" 
d="M94 6q-54 18 -104 51l56 92q38 -27 78.5 -41.5t76.5 -14.5q63 0 105.5 35.5t42.5 87.5q0 50 -38 79t-105 29q-61 0 -127 -10l63 358h390l-18 -102h-277l-27 -159q34 2 52 2q97 0 154.5 -51.5t57.5 -138.5q0 -66 -36 -119.5t-98.5 -84.5t-138.5 -31q-53 0 -107 18z" />
    <glyph glyph-name="six.lf" horiz-adv-x="596" 
d="M119 52.5q-59 64.5 -59 178.5q0 129 45 232.5t124 162t178 58.5q94 0 182 -52l-51 -89q-66 41 -136 41q-74 0 -130.5 -59.5t-74.5 -158.5q30 35 71.5 54t90.5 19q55 0 98.5 -23.5t68 -66.5t24.5 -100q0 -72 -35.5 -131.5t-97 -94.5t-135.5 -35q-104 0 -163 64.5zM360 107
q32 19 50.5 52t18.5 73q0 51 -29 80t-79 29q-39 0 -71.5 -17.5t-51 -48t-18.5 -67.5q0 -53 30.5 -86.5t78.5 -33.5q39 0 71 19z" />
    <glyph glyph-name="seven.lf" horiz-adv-x="484" 
d="M372 570h-307l18 102h448l-16 -92l-350 -580h-140z" />
    <glyph glyph-name="eight.lf" horiz-adv-x="596" 
d="M96 35q-62 47 -62 128q0 64 42.5 112t120.5 73q-42 18 -66 54.5t-24 82.5q0 57 32.5 102.5t91 71t132.5 25.5q98 0 156.5 -45.5t58.5 -121.5q0 -61 -38.5 -108t-107.5 -69q51 -20 78.5 -58.5t27.5 -86.5q0 -59 -35 -106.5t-97.5 -74t-140.5 -26.5q-107 0 -169 47z
M419 429.5q35 29.5 35 71.5q0 39 -28 62.5t-73 23.5q-53 0 -89 -29.5t-36 -72.5q0 -72 96 -95q60 10 95 39.5zM372 116.5q39 31.5 39 78.5q0 76 -106 103q-65 -12 -103 -43.5t-39 -75.5q0 -43 30.5 -68.5t81.5 -25.5q58 0 97 31.5z" />
    <glyph glyph-name="nine.lf" horiz-adv-x="596" 
d="M39 40l51 89q67 -41 137 -41q74 0 130.5 59.5t74.5 158.5q-31 -36 -72.5 -54.5t-90.5 -18.5q-55 0 -98.5 23.5t-68 66.5t-24.5 100q0 72 35.5 131.5t97 94.5t136.5 35q104 0 162.5 -64.5t58.5 -178.5q0 -129 -45 -232.5t-124 -162t-178 -58.5q-93 0 -182 52zM378.5 348.5
q32.5 17.5 51.5 47.5t19 66q0 54 -30.5 88t-79.5 34q-38 0 -70 -19t-50.5 -52t-18.5 -73q0 -51 29 -80t78 -29q39 0 71.5 17.5z" />
    <glyph glyph-name="uni00B9" unicode="&#xb9;" horiz-adv-x="280" 
d="M205 706l-94 -50l-29 65l152 79h81l-73 -416h-93z" />
    <glyph glyph-name="uni00B2" unicode="&#xb2;" horiz-adv-x="344" 
d="M56 447l165 139q31 28 46 48t15 40q0 25 -15.5 39.5t-42.5 14.5q-37 0 -90 -28l-29 70q79 38 147 38q56 0 90 -32.5t34 -85.5q0 -36 -20.5 -70.5t-64.5 -72.5l-104 -88h155l-13 -75h-284z" />
    <glyph glyph-name="uni00B3" unicode="&#xb3;" horiz-adv-x="344" 
d="M123 386q-39 10 -76 29l34 65q64 -31 108 -31q29 0 48.5 17t19.5 43q0 25 -19 40.5t-51 15.5h-27l11 64h32q36 0 59 16.5t23 42.5q0 21 -15.5 34t-39.5 13q-39 0 -96 -19l-21 66q86 26 143 26q56 0 89 -28.5t33 -76.5q0 -37 -23 -65.5t-60 -40.5q28 -10 43 -34t15 -57
q0 -36 -20.5 -66t-56.5 -47t-79 -17q-35 0 -74 10z" />
    <glyph glyph-name="fraction" unicode="&#x2044;" horiz-adv-x="192" 
d="M367 672h111l-621 -672h-111z" />
    <glyph glyph-name="uni215F" unicode="&#x215f;" horiz-adv-x="576" 
d="M234 578l-94 -50l-29 65l152 79h81l-73 -416h-93zM751 672h111l-621 -672h-111z" />
    <glyph glyph-name="onehalf" unicode="&#xbd;" horiz-adv-x="960" 
d="M234 578l-94 -50l-29 65l152 79h81l-73 -416h-93zM751 672h111l-621 -672h-111zM584 63l165 139q31 28 46 48t15 40q0 25 -15.5 39.5t-42.5 14.5q-37 0 -90 -28l-29 70q79 38 147 38q56 0 90 -32.5t34 -85.5q0 -36 -20.5 -70.5t-64.5 -72.5l-104 -88h155l-13 -75h-284z
" />
    <glyph glyph-name="uni2153" unicode="&#x2153;" horiz-adv-x="960" 
d="M234 578l-94 -50l-29 65l152 79h81l-73 -416h-93zM751 672h111l-621 -672h-111zM651 2q-39 10 -76 29l34 65q64 -31 108 -31q29 0 48.5 17t19.5 43q0 25 -19 40.5t-51 15.5h-27l11 64h32q36 0 59 16.5t23 42.5q0 21 -15.5 34t-39.5 13q-39 0 -96 -19l-21 66q86 26 143 26
q56 0 89 -28.5t33 -76.5q0 -37 -23 -65.5t-60 -40.5q28 -10 43 -34t15 -57q0 -36 -20.5 -66t-56.5 -47t-79 -17q-35 0 -74 10z" />
    <glyph glyph-name="uni2154" unicode="&#x2154;" horiz-adv-x="960" 
d="M53 319l165 139q31 28 46 48t15 40q0 25 -15.5 39.5t-42.5 14.5q-37 0 -90 -28l-29 70q79 38 147 38q56 0 90 -32.5t34 -85.5q0 -36 -20.5 -70.5t-64.5 -72.5l-104 -88h155l-13 -75h-284zM751 672h111l-621 -672h-111zM651 2q-39 10 -76 29l34 65q64 -31 108 -31
q29 0 48.5 17t19.5 43q0 25 -19 40.5t-51 15.5h-27l11 64h32q36 0 59 16.5t23 42.5q0 21 -15.5 34t-39.5 13q-39 0 -96 -19l-21 66q86 26 143 26q56 0 89 -28.5t33 -76.5q0 -37 -23 -65.5t-60 -40.5q28 -10 43 -34t15 -57q0 -36 -20.5 -66t-56.5 -47t-79 -17q-35 0 -74 10z
" />
    <glyph glyph-name="onequarter" unicode="&#xbc;" horiz-adv-x="960" 
d="M234 578l-94 -50l-29 65l152 79h81l-73 -416h-93zM751 672h111l-621 -672h-111zM749 86h-195l13 67l236 263h87l-46 -262h50l-11 -68h-51l-15 -86h-83zM760 154l30 158l-139 -158h109z" />
    <glyph glyph-name="threequarters" unicode="&#xbe;" horiz-adv-x="960" 
d="M120 258q-39 10 -76 29l34 65q64 -31 108 -31q29 0 48.5 17t19.5 43q0 25 -19 40.5t-51 15.5h-27l11 64h32q36 0 59 16.5t23 42.5q0 21 -15.5 34t-39.5 13q-39 0 -96 -19l-21 66q86 26 143 26q56 0 89 -28.5t33 -76.5q0 -37 -23 -65.5t-60 -40.5q28 -10 43 -34t15 -57
q0 -36 -20.5 -66t-56.5 -47t-79 -17q-35 0 -74 10zM751 672h111l-621 -672h-111zM749 86h-195l13 67l236 263h87l-46 -262h50l-11 -68h-51l-15 -86h-83zM760 154l30 158l-139 -158h109z" />
    <glyph glyph-name="uni2155" unicode="&#x2155;" horiz-adv-x="960" 
d="M234 578l-94 -50l-29 65l152 79h81l-73 -416h-93zM751 672h111l-621 -672h-111zM580 36l41 64q49 -33 92 -33q35 0 58.5 19t23.5 48t-21.5 45t-59.5 16q-31 0 -80 -7l41 228h247l-13 -72h-164l-15 -86q18 2 27 2q60 0 95 -32.5t35 -87.5q0 -41 -23.5 -75t-63.5 -53.5
t-87 -19.5q-67 0 -133 44z" />
    <glyph glyph-name="uni2156" unicode="&#x2156;" horiz-adv-x="960" 
d="M53 319l165 139q31 28 46 48t15 40q0 25 -15.5 39.5t-42.5 14.5q-37 0 -90 -28l-29 70q79 38 147 38q56 0 90 -32.5t34 -85.5q0 -36 -20.5 -70.5t-64.5 -72.5l-104 -88h155l-13 -75h-284zM751 672h111l-621 -672h-111zM580 36l41 64q49 -33 92 -33q35 0 58.5 19t23.5 48
t-21.5 45t-59.5 16q-31 0 -80 -7l41 228h247l-13 -72h-164l-15 -86q18 2 27 2q60 0 95 -32.5t35 -87.5q0 -41 -23.5 -75t-63.5 -53.5t-87 -19.5q-67 0 -133 44z" />
    <glyph glyph-name="uni2157" unicode="&#x2157;" horiz-adv-x="960" 
d="M120 258q-39 10 -76 29l34 65q64 -31 108 -31q29 0 48.5 17t19.5 43q0 25 -19 40.5t-51 15.5h-27l11 64h32q36 0 59 16.5t23 42.5q0 21 -15.5 34t-39.5 13q-39 0 -96 -19l-21 66q86 26 143 26q56 0 89 -28.5t33 -76.5q0 -37 -23 -65.5t-60 -40.5q28 -10 43 -34t15 -57
q0 -36 -20.5 -66t-56.5 -47t-79 -17q-35 0 -74 10zM751 672h111l-621 -672h-111zM580 36l41 64q49 -33 92 -33q35 0 58.5 19t23.5 48t-21.5 45t-59.5 16q-31 0 -80 -7l41 228h247l-13 -72h-164l-15 -86q18 2 27 2q60 0 95 -32.5t35 -87.5q0 -41 -23.5 -75t-63.5 -53.5
t-87 -19.5q-67 0 -133 44z" />
    <glyph glyph-name="uni2158" unicode="&#x2158;" horiz-adv-x="960" 
d="M238 342h-195l13 67l236 263h87l-46 -262h50l-11 -68h-51l-15 -86h-83zM751 672h111l-621 -672h-111zM249 410l30 158l-139 -158h109zM580 36l41 64q49 -33 92 -33q35 0 58.5 19t23.5 48t-21.5 45t-59.5 16q-31 0 -80 -7l41 228h247l-13 -72h-164l-15 -86q18 2 27 2
q60 0 95 -32.5t35 -87.5q0 -41 -23.5 -75t-63.5 -53.5t-87 -19.5q-67 0 -133 44z" />
    <glyph glyph-name="uni2159" unicode="&#x2159;" horiz-adv-x="960" 
d="M234 578l-94 -50l-29 65l152 79h81l-73 -416h-93zM751 672h111l-621 -672h-111zM638 33q-38 41 -38 112q0 80 28 143.5t78 99.5t113 36q60 0 116 -34l-37 -63q-43 25 -83 25q-41 0 -73.5 -31t-43.5 -82q38 36 94 36q52 0 85.5 -32.5t33.5 -85.5q0 -45 -22.5 -83t-61 -60
t-86.5 -22q-65 0 -103 41zM804 86.5q23 22.5 23 56.5q0 29 -17 45.5t-46 16.5q-34 0 -57.5 -21t-23.5 -52q0 -29 18 -48.5t46 -19.5q34 0 57 22.5z" />
    <glyph glyph-name="uni215A" unicode="&#x215a;" horiz-adv-x="960" 
d="M49 292l41 64q49 -33 92 -33q35 0 58.5 19t23.5 48t-21.5 45t-59.5 16q-31 0 -80 -7l41 228h247l-13 -72h-164l-15 -86q18 2 27 2q60 0 95 -32.5t35 -87.5q0 -41 -23.5 -75t-63.5 -53.5t-87 -19.5q-67 0 -133 44zM751 672h111l-621 -672h-111zM638 33q-38 41 -38 112
q0 80 28 143.5t78 99.5t113 36q60 0 116 -34l-37 -63q-43 25 -83 25q-41 0 -73.5 -31t-43.5 -82q38 36 94 36q52 0 85.5 -32.5t33.5 -85.5q0 -45 -22.5 -83t-61 -60t-86.5 -22q-65 0 -103 41zM804 86.5q23 22.5 23 56.5q0 29 -17 45.5t-46 16.5q-34 0 -57.5 -21t-23.5 -52
q0 -29 18 -48.5t46 -19.5q34 0 57 22.5z" />
    <glyph glyph-name="oneeighth" unicode="&#x215b;" horiz-adv-x="960" 
d="M234 578l-94 -50l-29 65l152 79h81l-73 -416h-93zM751 672h111l-621 -672h-111zM623.5 21.5q-39.5 29.5 -39.5 80.5q0 38 24.5 68.5t70.5 46.5q-24 11 -37.5 32.5t-13.5 48.5q0 56 45.5 91t118.5 35q63 0 100.5 -29t37.5 -77q0 -36 -22.5 -65t-62.5 -44
q29 -13 44.5 -35.5t15.5 -51.5q0 -57 -49 -93.5t-125 -36.5q-68 0 -107.5 29.5zM823 265.5q21 17.5 21 43.5q0 22 -17 35t-44 13q-32 0 -52 -16.5t-20 -41.5q0 -21 15 -35.5t41 -21.5q35 6 56 23.5zM796 77q22 18 22 46q0 42 -61 61q-39 -8 -61.5 -26.5t-22.5 -44.5
q0 -25 18 -39.5t48 -14.5q35 0 57 18z" />
    <glyph glyph-name="threeeighths" unicode="&#x215c;" horiz-adv-x="960" 
d="M120 258q-39 10 -76 29l34 65q64 -31 108 -31q29 0 48.5 17t19.5 43q0 25 -19 40.5t-51 15.5h-27l11 64h32q36 0 59 16.5t23 42.5q0 21 -15.5 34t-39.5 13q-39 0 -96 -19l-21 66q86 26 143 26q56 0 89 -28.5t33 -76.5q0 -37 -23 -65.5t-60 -40.5q28 -10 43 -34t15 -57
q0 -36 -20.5 -66t-56.5 -47t-79 -17q-35 0 -74 10zM751 672h111l-621 -672h-111zM623.5 21.5q-39.5 29.5 -39.5 80.5q0 38 24.5 68.5t70.5 46.5q-24 11 -37.5 32.5t-13.5 48.5q0 56 45.5 91t118.5 35q63 0 100.5 -29t37.5 -77q0 -36 -22.5 -65t-62.5 -44q29 -13 44.5 -35.5
t15.5 -51.5q0 -57 -49 -93.5t-125 -36.5q-68 0 -107.5 29.5zM823 265.5q21 17.5 21 43.5q0 22 -17 35t-44 13q-32 0 -52 -16.5t-20 -41.5q0 -21 15 -35.5t41 -21.5q35 6 56 23.5zM796 77q22 18 22 46q0 42 -61 61q-39 -8 -61.5 -26.5t-22.5 -44.5q0 -25 18 -39.5t48 -14.5
q35 0 57 18z" />
    <glyph glyph-name="fiveeighths" unicode="&#x215d;" horiz-adv-x="960" 
d="M49 292l41 64q49 -33 92 -33q35 0 58.5 19t23.5 48t-21.5 45t-59.5 16q-31 0 -80 -7l41 228h247l-13 -72h-164l-15 -86q18 2 27 2q60 0 95 -32.5t35 -87.5q0 -41 -23.5 -75t-63.5 -53.5t-87 -19.5q-67 0 -133 44zM751 672h111l-621 -672h-111zM623.5 21.5
q-39.5 29.5 -39.5 80.5q0 38 24.5 68.5t70.5 46.5q-24 11 -37.5 32.5t-13.5 48.5q0 56 45.5 91t118.5 35q63 0 100.5 -29t37.5 -77q0 -36 -22.5 -65t-62.5 -44q29 -13 44.5 -35.5t15.5 -51.5q0 -57 -49 -93.5t-125 -36.5q-68 0 -107.5 29.5zM823 265.5q21 17.5 21 43.5
q0 22 -17 35t-44 13q-32 0 -52 -16.5t-20 -41.5q0 -21 15 -35.5t41 -21.5q35 6 56 23.5zM796 77q22 18 22 46q0 42 -61 61q-39 -8 -61.5 -26.5t-22.5 -44.5q0 -25 18 -39.5t48 -14.5q35 0 57 18z" />
    <glyph glyph-name="seveneighths" unicode="&#x215e;" horiz-adv-x="960" 
d="M328 597h-182l13 75h284l-12 -67l-209 -349h-102zM751 672h111l-621 -672h-111zM623.5 21.5q-39.5 29.5 -39.5 80.5q0 38 24.5 68.5t70.5 46.5q-24 11 -37.5 32.5t-13.5 48.5q0 56 45.5 91t118.5 35q63 0 100.5 -29t37.5 -77q0 -36 -22.5 -65t-62.5 -44
q29 -13 44.5 -35.5t15.5 -51.5q0 -57 -49 -93.5t-125 -36.5q-68 0 -107.5 29.5zM823 265.5q21 17.5 21 43.5q0 22 -17 35t-44 13q-32 0 -52 -16.5t-20 -41.5q0 -21 15 -35.5t41 -21.5q35 6 56 23.5zM796 77q22 18 22 46q0 42 -61 61q-39 -8 -61.5 -26.5t-22.5 -44.5
q0 -25 18 -39.5t48 -14.5q35 0 57 18z" />
    <glyph glyph-name="asterisk" unicode="*" horiz-adv-x="500" 
d="M265 390l-123 -90l-52 70l127 90l-127 90l52 69l123 -89l48 145l82 -27l-47 -145h153v-87h-153l47 -145l-82 -27z" />
    <glyph glyph-name="backslash" unicode="\" horiz-adv-x="384" 
d="M71 704h107l148 -837h-106z" />
    <glyph glyph-name="periodcentered" unicode="&#xb7;" horiz-adv-x="265" 
d="M71 190.5q-19 19.5 -19 49.5q0 38 26.5 64.5t64.5 26.5q31 0 50 -19t19 -49q0 -39 -26.5 -65.5t-64.5 -26.5q-31 0 -50 19.5z" />
    <glyph glyph-name="bullet" unicode="&#x2022;" horiz-adv-x="480" 
d="M176 163.5q-33 19.5 -52.5 52.5t-19.5 72t19.5 72t52.5 52.5t72 19.5t72 -19.5t52.5 -52.5t19.5 -72t-19.5 -72t-52.5 -52.5t-72 -19.5t-72 19.5z" />
    <glyph glyph-name="colon" unicode=":" horiz-adv-x="281" 
d="M47 8.5q-19 19.5 -19 49.5q0 38 26.5 64.5t64.5 26.5q31 0 50 -19t19 -49q0 -39 -26.5 -65.5t-64.5 -26.5q-31 0 -50 19.5zM112 359.5q-19 19.5 -19 49.5q0 38 26.5 64.5t64.5 26.5q31 0 50 -19t19 -49q0 -39 -26.5 -65.5t-64.5 -26.5q-31 0 -50 19.5z" />
    <glyph glyph-name="comma" unicode="," horiz-adv-x="265" 
d="M-17 -110q73 48 94 105q-26 2 -41.5 19t-15.5 44q0 39 26 65t65 26q33 0 51.5 -22t18.5 -60q0 -65 -44 -126t-121 -101z" />
    <glyph glyph-name="ellipsis" unicode="&#x2026;" horiz-adv-x="960" 
d="M68 8.5q-19 19.5 -19 49.5q0 38 26.5 64.5t64.5 26.5q31 0 50 -19t19 -49q0 -39 -26.5 -65.5t-64.5 -26.5q-31 0 -50 19.5zM388 8.5q-19 19.5 -19 49.5q0 38 26.5 64.5t64.5 26.5q31 0 50 -19t19 -49q0 -39 -26.5 -65.5t-64.5 -26.5q-31 0 -50 19.5zM708 8.5
q-19 19.5 -19 49.5q0 38 26.5 64.5t64.5 26.5q31 0 50 -19t19 -49q0 -39 -26.5 -65.5t-64.5 -26.5q-31 0 -50 19.5z" />
    <glyph glyph-name="exclam" unicode="!" horiz-adv-x="281" 
d="M148 672h129l-90 -449h-107zM47 8.5q-19 19.5 -19 49.5q0 38 26.5 64.5t64.5 26.5q31 0 50 -19t19 -49q0 -39 -26.5 -65.5t-64.5 -26.5q-31 0 -50 19.5z" />
    <glyph glyph-name="exclamdown" unicode="&#xa1;" horiz-adv-x="281" 
d="M105 359.5q-19 18.5 -19 49.5q0 39 26.5 65.5t65.5 26.5q31 0 49.5 -19t18.5 -50q0 -38 -26.5 -64.5t-64.5 -26.5q-31 0 -50 18.5zM87 268h107l-68 -450h-129z" />
    <glyph glyph-name="numbersign" unicode="#" horiz-adv-x="660" 
d="M531 416l-28 -160h99l-17 -98h-99l-28 -158h-98l28 158h-146l-28 -158h-98l28 158h-99l17 98h99l28 160h-99l17 98h99l28 158h98l-28 -158h146l28 158h98l-28 -158h99l-17 -98h-99zM433 416h-146l-28 -160h146z" />
    <glyph glyph-name="period" unicode="." horiz-adv-x="265" 
d="M39 8.5q-19 19.5 -19 49.5q0 38 26.5 64.5t64.5 26.5q31 0 50 -19t19 -49q0 -39 -26.5 -65.5t-64.5 -26.5q-31 0 -50 19.5z" />
    <glyph glyph-name="question" unicode="?" horiz-adv-x="468" 
d="M159 245q7 43 32.5 74t71.5 70q40 33 59 56t19 52q0 36 -22 57.5t-59 21.5q-56 0 -131 -40l-44 93q101 55 203 55q85 0 134.5 -45.5t49.5 -120.5q0 -43 -17.5 -77.5t-42 -58.5t-63.5 -56q-38 -31 -57 -51t-24 -44l-2 -8h-110zM131 7.5q-18 18.5 -18 47.5q0 37 25.5 62.5
t62.5 25.5q29 0 47.5 -18t18.5 -48q0 -37 -25.5 -62.5t-62.5 -25.5q-30 0 -48 18.5z" />
    <glyph glyph-name="questiondown" unicode="&#xbf;" horiz-adv-x="404" 
d="M211 365q-18 18 -18 48q0 37 25.5 62.5t62.5 25.5q30 0 48 -18t18 -48q0 -37 -25.5 -62.5t-62.5 -25.5q-30 0 -48 18zM36.5 -148q-49.5 46 -49.5 120q0 44 17.5 78t41.5 58t64 56q38 30 57.5 50.5t24.5 44.5l2 9h110l-4 -23q-6 -43 -31.5 -73.5t-72.5 -70.5
q-40 -33 -59 -56t-19 -52q0 -35 22 -57t59 -22q57 0 131 40l45 -93q-101 -55 -204 -55q-85 0 -134.5 46z" />
    <glyph glyph-name="quotedbl" unicode="&#x22;" horiz-adv-x="444" 
d="M132 672h118l-53 -243h-97zM343 672h118l-53 -243h-97z" />
    <glyph glyph-name="quotesingle" unicode="'" horiz-adv-x="233" 
d="M132 672h118l-53 -243h-97z" />
    <glyph glyph-name="semicolon" unicode=";" horiz-adv-x="281" 
d="M-9 -110q73 48 94 105q-26 2 -41.5 19t-15.5 44q0 39 26 65t65 26q33 0 51.5 -22t18.5 -60q0 -65 -44 -126t-121 -101zM112 359.5q-19 19.5 -19 49.5q0 38 26.5 64.5t64.5 26.5q31 0 50 -19t19 -49q0 -39 -26.5 -65.5t-64.5 -26.5q-31 0 -50 19.5z" />
    <glyph glyph-name="slash" unicode="/" horiz-adv-x="384" 
d="M362 704h112l-444 -837h-113z" />
    <glyph glyph-name="underscore" unicode="_" horiz-adv-x="480" 
d="M-57 -79h480l-18 -98h-480z" />
    <glyph glyph-name="braceleft" unicode="{" horiz-adv-x="351" 
d="M100.5 -101q-45.5 37 -45.5 96q0 23 5.5 43.5t15.5 46.5q10 28 15 47.5t5 41.5q0 28 -16.5 45.5t-44.5 17.5h-19l18 102h12q35 0 60 18t30 49q5 28 9 88q2 49 7 82q11 63 66 100.5t137 37.5h50l-18 -102h-25q-37 0 -63.5 -20.5t-33.5 -56.5q-3 -17 -4.5 -43t-2.5 -36
q0 -40 -4 -65q-7 -41 -32 -67.5t-65 -38.5q59 -23 59 -92q0 -18 -5.5 -40t-11.5 -42q-17 -51 -17 -81q0 -31 20.5 -48.5t54.5 -17.5h16l-18 -102h-33q-76 0 -121.5 37z" />
    <glyph glyph-name="braceright" unicode="}" horiz-adv-x="351" 
d="M-22 -36h25q37 0 63.5 20.5t33.5 56.5q3 17 4.5 43t2.5 36q0 40 4 65q7 41 32 67.5t65 38.5q-59 23 -59 92q0 18 5.5 40t11.5 42q17 51 17 81q0 31 -20.5 48.5t-54.5 17.5h-16l18 102h33q76 0 121.5 -37t45.5 -96q0 -22 -5 -41.5t-15 -47.5q-10 -26 -15.5 -46.5
t-5.5 -43.5q0 -28 16.5 -45.5t44.5 -17.5h19l-18 -102h-12q-35 0 -60 -18t-31 -49q-6 -32 -8 -88q-2 -49 -7 -82q-11 -63 -66 -100.5t-137 -37.5h-50z" />
    <glyph glyph-name="bracketleft" unicode="[" horiz-adv-x="351" 
d="M170 714h236l-18 -102h-118l-114 -648h118l-18 -102h-236z" />
    <glyph glyph-name="bracketright" unicode="]" horiz-adv-x="351" 
d="M-22 -36h118l114 648h-118l18 102h236l-150 -852h-236z" />
    <glyph glyph-name="parenleft" unicode="(" horiz-adv-x="351" 
d="M67 198q0 154 64.5 295.5t185.5 254.5l83 -63q-103 -101 -159 -229.5t-56 -261.5q0 -80 20.5 -157t60.5 -144l-92 -57q-107 160 -107 362z" />
    <glyph glyph-name="parenright" unicode=")" horiz-adv-x="351" 
d="M-32 -101q102 101 158 229.5t56 260.5q0 81 -20.5 158t-60.5 144l93 57q106 -161 106 -362q0 -154 -64.5 -296t-184.5 -254z" />
    <glyph glyph-name="emdash" unicode="&#x2014;" horiz-adv-x="960" 
d="M32 300h916l-17 -98h-917z" />
    <glyph glyph-name="endash" unicode="&#x2013;" horiz-adv-x="480" 
d="M32 300h436l-17 -98h-437z" />
    <glyph glyph-name="hyphen" unicode="-" horiz-adv-x="320" 
d="M32 300h276l-17 -98h-277z" />
    <glyph glyph-name="uni00AD" unicode="&#xad;" horiz-adv-x="320" 
d="M32 300h276l-17 -98h-277z" />
    <glyph glyph-name="guillemotleft" unicode="&#xab;" horiz-adv-x="582" 
d="M22 220l11 63l235 221l66 -67l-186 -195l118 -187l-82 -55zM275 220l11 63l235 221l66 -67l-186 -195l118 -187l-82 -55z" />
    <glyph glyph-name="guillemotright" unicode="&#xbb;" horiz-adv-x="582" 
d="M-3 65l186 195l-119 187l82 55l162 -220l-11 -63l-234 -221zM250 65l186 195l-119 187l82 55l162 -220l-11 -63l-234 -221z" />
    <glyph glyph-name="guilsinglleft" unicode="&#x2039;" horiz-adv-x="329" 
d="M22 220l11 63l235 221l66 -67l-186 -195l118 -187l-82 -55z" />
    <glyph glyph-name="guilsinglright" unicode="&#x203a;" horiz-adv-x="329" 
d="M-3 65l186 195l-119 187l82 55l162 -220l-11 -63l-234 -221z" />
    <glyph glyph-name="quotedblbase" unicode="&#x201e;" horiz-adv-x="486" 
d="M-17 -110q73 48 94 105q-26 2 -41.5 19t-15.5 44q0 39 26 65t65 26q33 0 51.5 -22t18.5 -60q0 -65 -44 -126t-121 -101zM204 -110q73 48 94 105q-26 2 -41.5 19t-15.5 44q0 39 26 65t65 26q33 0 51.5 -22t18.5 -60q0 -65 -44 -126t-121 -101z" />
    <glyph glyph-name="quotedblleft" unicode="&#x201c;" horiz-adv-x="486" 
d="M108 400.5q-19 22.5 -19 60.5q0 65 44.5 126t121.5 101l33 -51q-72 -46 -94 -105q26 -2 41.5 -18.5t15.5 -44.5q0 -38 -26.5 -64.5t-64.5 -26.5q-33 0 -52 22.5zM329 400.5q-19 22.5 -19 60.5q0 65 44.5 126t121.5 101l33 -51q-72 -46 -94 -105q26 -2 41.5 -18.5
t15.5 -44.5q0 -38 -26.5 -64.5t-64.5 -26.5q-33 0 -52 22.5z" />
    <glyph glyph-name="quotedblright" unicode="&#x201d;" horiz-adv-x="486" 
d="M77 423q73 48 94 105q-26 2 -41.5 19t-15.5 44q0 39 26 65t65 26q33 0 51.5 -22t18.5 -60q0 -65 -44 -126t-121 -101zM298 423q73 48 94 105q-26 2 -41.5 19t-15.5 44q0 39 26 65t65 26q33 0 51.5 -22t18.5 -60q0 -65 -44 -126t-121 -101z" />
    <glyph glyph-name="quoteleft" unicode="&#x2018;" horiz-adv-x="265" 
d="M108 400.5q-19 22.5 -19 60.5q0 65 44.5 126t121.5 101l33 -51q-72 -46 -94 -105q26 -2 41.5 -18.5t15.5 -44.5q0 -38 -26.5 -64.5t-64.5 -26.5q-33 0 -52 22.5z" />
    <glyph glyph-name="quoteright" unicode="&#x2019;" horiz-adv-x="265" 
d="M77 423q73 48 94 105q-26 2 -41.5 19t-15.5 44q0 39 26 65t65 26q33 0 51.5 -22t18.5 -60q0 -65 -44 -126t-121 -101z" />
    <glyph glyph-name="quotesinglbase" unicode="&#x201a;" horiz-adv-x="265" 
d="M-17 -110q73 48 94 105q-26 2 -41.5 19t-15.5 44q0 39 26 65t65 26q33 0 51.5 -22t18.5 -60q0 -65 -44 -126t-121 -101z" />
    <glyph glyph-name="uni2003" unicode="&#x2003;" horiz-adv-x="960" 
 />
    <glyph glyph-name="uni2002" unicode="&#x2002;" horiz-adv-x="480" 
 />
    <glyph glyph-name="uni200A" unicode="&#x200a;" horiz-adv-x="60" 
 />
    <glyph glyph-name="uni00A0" unicode="&#xa0;" horiz-adv-x="240" 
 />
    <glyph glyph-name="uni2009" unicode="&#x2009;" horiz-adv-x="192" 
 />
    <glyph glyph-name="cent" unicode="&#xa2;" horiz-adv-x="576" 
d="M252 88q-75 13 -120 66.5t-45 130.5q0 80 32.5 146t90 107.5t130.5 49.5l26 148h104l-26 -150q58 -12 113 -47l-57 -88q-40 25 -74 35l-53 -302q44 9 86 33l39 -86q-70 -40 -143 -49l-26 -146h-104zM320 478q-47 -21 -75 -69.5t-28 -110.5q0 -34 14 -60t40 -40z" />
    <glyph glyph-name="currency" unicode="&#xa4;" horiz-adv-x="576" 
d="M47 156l78 78q-26 44 -26 102t26 101l-78 79l76 76l78 -79q44 27 102 27q55 0 101 -27l79 79l76 -76l-79 -79q26 -43 26 -101t-26 -102l79 -78l-76 -76l-79 78q-45 -25 -101 -25q-58 0 -102 25l-78 -78zM379.5 260q29.5 30 29.5 76q0 47 -29.5 76.5t-76.5 29.5
t-76.5 -29.5t-29.5 -76.5t29.5 -76.5t76.5 -29.5t76.5 30z" />
    <glyph glyph-name="dollar" unicode="$" horiz-adv-x="576" 
d="M201 42q-89 12 -159 49l42 93q72 -34 134 -43l30 166q-70 26 -108.5 57.5t-38.5 88.5q0 73 58.5 122.5t146.5 58.5l29 166h104l-30 -171q74 -9 145 -42l-43 -94q-64 27 -120 38l-28 -159q70 -25 109 -57t39 -92q0 -77 -58 -126.5t-148 -57.5l-30 -167h-104zM288 532
q-62 -13 -62 -61q0 -36 40 -59zM373 171.5q19 18.5 19 42.5q0 33 -47 56l-22 -126q31 9 50 27.5z" />
    <glyph glyph-name="Euro" unicode="&#x20ac;" horiz-adv-x="576" 
d="M224.5 18q-54.5 30 -87.5 85.5t-39 129.5h-71l14 78h58q3 38 10 66h-57l14 78h67q42 105 124.5 167t187.5 62q48 0 97 -14.5t91 -42.5l-54 -87q-65 44 -132 44q-60 0 -107 -34.5t-75 -94.5h226l-14 -78h-245q-8 -29 -10 -66h243l-13 -78h-226q9 -67 49 -106t99 -39
q65 0 126 29l36 -88q-85 -41 -187 -41q-70 0 -124.5 30z" />
    <glyph glyph-name="florin" unicode="&#x192;" horiz-adv-x="576" 
d="M42 10l35 94q33 -11 57 -11q25 0 42.5 14t21.5 37l34 195h-87l18 97h87l18 110q12 63 58.5 100.5t111.5 37.5q51 0 117 -22l-36 -94q-33 11 -57 11q-25 0 -42 -14t-22 -37l-15 -92h103l-18 -97h-103l-37 -213q-11 -63 -57.5 -100.5t-112.5 -37.5q-52 0 -116 22z" />
    <glyph glyph-name="sterling" unicode="&#xa3;" horiz-adv-x="576" 
d="M34 100h92l34 195h-75l17 98h75l19 107q14 85 76 134.5t154 49.5q79 0 175 -43l-50 -94q-69 32 -115 32q-43 0 -72 -25t-37 -69l-17 -92h172l-17 -98h-172l-34 -195h248l-18 -100h-473z" />
    <glyph glyph-name="yen" unicode="&#xa5;" horiz-adv-x="576" 
d="M201 128h-146l16 87h145l12 67h-146l15 87h119l-145 303h137l106 -258l187 258h147l-243 -303h117l-15 -87h-146l-12 -67h146l-15 -87h-146l-23 -128h-133z" />
    <glyph glyph-name="cent.lf" horiz-adv-x="540" 
d="M234 88q-75 13 -120 66.5t-45 130.5q0 80 32.5 146t90 107.5t130.5 49.5l26 148h104l-26 -150q58 -12 113 -47l-57 -88q-40 25 -74 35l-53 -302q44 9 86 33l39 -86q-70 -40 -143 -49l-26 -146h-104zM302 478q-47 -21 -75 -69.5t-28 -110.5q0 -34 14 -60t40 -40z" />
    <glyph glyph-name="dollar.lf" horiz-adv-x="530" 
d="M175 42q-89 12 -159 49l42 93q72 -34 134 -43l30 166q-70 26 -108.5 57.5t-38.5 88.5q0 73 58.5 122.5t146.5 58.5l29 166h104l-30 -171q74 -9 145 -42l-43 -94q-64 27 -120 38l-28 -159q70 -25 109 -57t39 -92q0 -77 -58 -126.5t-148 -57.5l-30 -167h-104zM262 532
q-62 -13 -62 -61q0 -36 40 -59zM347 171.5q19 18.5 19 42.5q0 33 -47 56l-22 -126q31 9 50 27.5z" />
    <glyph glyph-name="Euro.lf" horiz-adv-x="570" 
d="M221.5 18q-54.5 30 -87.5 85.5t-39 129.5h-71l14 78h58q3 38 10 66h-57l14 78h67q42 105 124.5 167t187.5 62q48 0 97 -14.5t91 -42.5l-54 -87q-65 44 -132 44q-60 0 -107 -34.5t-75 -94.5h226l-14 -78h-245q-8 -29 -10 -66h243l-13 -78h-226q9 -67 49 -106t99 -39
q65 0 126 29l36 -88q-85 -41 -187 -41q-70 0 -124.5 30z" />
    <glyph glyph-name="sterling.lf" horiz-adv-x="570" 
d="M31 100h92l34 195h-75l17 98h75l19 107q14 85 76 134.5t154 49.5q79 0 175 -43l-50 -94q-69 32 -115 32q-43 0 -72 -25t-37 -69l-17 -92h172l-17 -98h-172l-34 -195h248l-18 -100h-473z" />
    <glyph glyph-name="yen.lf" horiz-adv-x="601" 
d="M213 128h-146l16 87h145l12 67h-146l15 87h119l-145 303h137l106 -258l187 258h147l-243 -303h117l-15 -87h-146l-12 -67h146l-15 -87h-146l-23 -128h-133z" />
    <glyph glyph-name="dotmath" unicode="&#x22c5;" horiz-adv-x="265" 
d="M71 190.5q-19 19.5 -19 49.5q0 38 26.5 64.5t64.5 26.5q31 0 50 -19t19 -49q0 -39 -26.5 -65.5t-64.5 -26.5q-31 0 -50 19.5z" />
    <glyph glyph-name="plus" unicode="+" horiz-adv-x="576" 
d="M241 234h-196v108h196v196h108v-196h196v-108h-196v-196h-108v196z" />
    <glyph glyph-name="minus" unicode="&#x2212;" horiz-adv-x="576" 
d="M45 342h500v-108h-500v108z" />
    <glyph glyph-name="multiply" unicode="&#xd7;" horiz-adv-x="576" 
d="M53 122l166 166l-166 166l76 75l166 -165l165 165l76 -75l-165 -166l165 -166l-76 -75l-165 165l-166 -165z" />
    <glyph glyph-name="divide" unicode="&#xf7;" horiz-adv-x="576" 
d="M246 431q-19 19 -19 49t19 49t49 19t48.5 -18t18.5 -50q0 -30 -19 -49t-48 -19q-30 0 -49 19zM50 337h489v-98h-489v98zM246 47q-19 19 -19 49t19 49t49 19q29 0 48 -19t19 -49t-19 -49t-48 -19q-30 0 -49 19z" />
    <glyph glyph-name="equal" unicode="=" horiz-adv-x="576" 
d="M45 458h500v-107h-500v107zM45 225h500v-107h-500v107z" />
    <glyph glyph-name="notequal" unicode="&#x2260;" horiz-adv-x="576" 
d="M108 36l44 87h-102v108h155l58 114h-213v108h267l68 136l96 -47l-44 -89h102v-108h-156l-57 -114h213v-108h-267l-67 -134z" />
    <glyph glyph-name="greater" unicode="&#x3e;" horiz-adv-x="576" 
d="M34 125l366 163l-366 163l43 102l468 -211v-108l-468 -211z" />
    <glyph glyph-name="less" unicode="&#x3c;" horiz-adv-x="576" 
d="M45 234v108l468 211l43 -102l-366 -163l366 -163l-43 -102z" />
    <glyph glyph-name="greaterequal" unicode="&#x2265;" horiz-adv-x="576" 
d="M39 248l355 159l-355 160l44 102l456 -208v-108l-456 -208zM50 108h489v-108h-489v108z" />
    <glyph glyph-name="lessequal" unicode="&#x2264;" horiz-adv-x="576" 
d="M50 353v108l457 208l43 -102l-354 -160l354 -159l-43 -103zM50 108h489v-108h-489v108z" />
    <glyph glyph-name="plusminus" unicode="&#xb1;" horiz-adv-x="576" 
d="M241 353h-196v108h196v196h108v-196h196v-108h-196v-196h-108v196zM45 108h500v-108h-500v108z" />
    <glyph glyph-name="approxequal" unicode="&#x2248;" horiz-adv-x="576" 
d="M345 333.5q-25 6.5 -59 18.5q-28 11 -50 17t-47 6q-28 0 -51.5 -10t-50.5 -33l-57 91q74 59 159 59q30 0 54 -6t59 -19q30 -11 51.5 -17t47.5 -6q28 0 51.5 10t49.5 32l57 -91q-75 -58 -158 -58q-31 0 -56 6.5zM345 100.5q-25 6.5 -59 18.5q-28 11 -50 17t-47 6
q-28 0 -51.5 -10t-50.5 -32l-57 91q75 58 159 58q30 0 54 -6t59 -19q30 -11 51.5 -17t47.5 -6q28 0 51.5 10t49.5 33l57 -91q-74 -59 -158 -59q-31 0 -56 6.5z" />
    <glyph glyph-name="logicalnot" unicode="&#xac;" horiz-adv-x="576" 
d="M437 234h-392v108h500v-304h-108v196z" />
    <glyph glyph-name="asciitilde" unicode="~" horiz-adv-x="576" 
d="M345 216.5q-25 6.5 -59 18.5q-28 11 -50 17t-47 6q-28 0 -52 -9.5t-50 -32.5l-57 91q74 59 159 59q30 0 54 -6t59 -19q30 -11 51.5 -17t47.5 -6q28 0 52 10t49 32l57 -91q-74 -59 -158 -59q-31 0 -56 6.5z" />
    <glyph glyph-name="infinity" unicode="&#x221e;" horiz-adv-x="783" 
d="M112 106q-37 22 -58 61t-21 89q0 63 27 117.5t76 86.5t110 32q54 0 93 -27.5t69 -88.5q47 61 92 88.5t101 27.5q46 0 83 -22t58 -61t21 -89q0 -63 -27 -117.5t-76 -86.5t-110 -32q-54 0 -93 27.5t-69 88.5q-47 -61 -92 -88.5t-101 -27.5q-46 0 -83 22zM283.5 210
q28.5 26 59.5 81q-18 54 -38.5 77.5t-53.5 23.5q-41 0 -70.5 -35.5t-29.5 -87.5q0 -39 20 -62t52 -23t60.5 26zM615.5 219.5q29.5 35.5 29.5 87.5q0 39 -20 62t-52 23t-60.5 -26t-59.5 -81q18 -54 38.5 -77.5t53.5 -23.5q41 0 70.5 35.5z" />
    <glyph glyph-name="integral" unicode="&#x222b;" horiz-adv-x="415" 
d="M-8 -202l30 98q28 -11 55 -11q41 0 66 32.5t25 86.5q0 47 -6.5 98.5t-18.5 126.5q-14 84 -21 142t-7 116q0 67 27 119t74.5 81t106.5 29q53 0 101 -18l-30 -98q-28 11 -55 11q-41 0 -66 -32.5t-25 -86.5q0 -47 6.5 -98.5t18.5 -126.5q14 -84 21 -142t7 -116
q0 -67 -27 -119t-74.5 -81t-106.5 -29q-53 0 -101 18z" />
    <glyph glyph-name="uni2126" unicode="&#x2126;" horiz-adv-x="775" 
d="M17 102h148q-39 43 -61 100.5t-22 118.5q0 106 46 188.5t128 128.5t187 46q84 0 151 -33t104.5 -93t37.5 -139q0 -94 -46 -174.5t-134 -142.5h148l-18 -102h-295l15 87q95 60 146 141t51 171q0 81 -47.5 130.5t-122.5 49.5q-63 0 -113.5 -33t-79 -93t-28.5 -136
q0 -62 23.5 -122.5t65.5 -107.5l-15 -87h-287z" />
    <glyph glyph-name="uni2206" unicode="&#x2206;" horiz-adv-x="673" 
d="M-4 78l355 594h123l143 -599l-13 -73h-621zM491 102l-98 429l-254 -429h352z" />
    <glyph glyph-name="product" unicode="&#x220f;" horiz-adv-x="799" 
d="M165 704h630l-161 -912h-133l143 810h-364l-143 -810h-133z" />
    <glyph glyph-name="summation" unicode="&#x2211;" horiz-adv-x="634" 
d="M-36 -132l375 393l-227 359l15 84h555l-18 -102h-392l200 -316l-12 -65l-312 -327h407l-18 -102h-586z" />
    <glyph glyph-name="radical" unicode="&#x221a;" horiz-adv-x="681" 
d="M181 98l-150 -49l-33 101l253 83l97 -290l216 777l105 -27l-251 -901h-131z" />
    <glyph glyph-name="partialdiff" unicode="&#x2202;" 
d="M90.5 46.5q-57.5 58.5 -57.5 157.5q0 83 34 151.5t93 107.5t131 39q52 0 91.5 -22t60.5 -61q2 22 2 35l-1 25q-6 57 -38 97t-89 40q-60 0 -122 -29l-35 92q93 37 172 37q75 0 128.5 -34.5t81 -94t27.5 -131.5q0 -141 -42 -247t-115.5 -163.5t-166.5 -57.5
q-97 0 -154.5 58.5zM341.5 119q34.5 26 54 70.5t19.5 97.5q0 50 -30 80t-78 30q-42 0 -76.5 -24t-54.5 -66t-20 -92q0 -56 30 -89t79 -33q42 0 76.5 26z" />
    <glyph glyph-name="uni00B5" unicode="&#xb5;" horiz-adv-x="609" 
d="M109 490h128l-51 -285q-3 -15 -3 -32q0 -37 22.5 -58.5t60.5 -21.5q48 0 83 33t44 86l50 278h128l-63 -357q-2 -10 -2 -16q0 -13 7.5 -20t20.5 -7q6 0 20 2v-97q-35 -7 -65 -7q-42 0 -70 19t-35 52q-27 -33 -63.5 -50.5t-74.5 -17.5q-61 0 -91 34l-41 -233h-128z" />
    <glyph glyph-name="percent" unicode="%" horiz-adv-x="864" 
d="M120.5 363.5q-42.5 39.5 -42.5 104.5q0 61 26 110.5t72.5 77.5t106.5 28q70 0 112.5 -39.5t42.5 -104.5q0 -61 -26 -110.5t-72.5 -77.5t-106.5 -28q-70 0 -112.5 39.5zM703 672h111l-621 -672h-111zM314 437q29 38 29 96q0 34 -18.5 55t-49.5 21q-44 0 -73 -38t-29 -96
q0 -35 18.5 -55.5t49.5 -20.5q44 0 73 38zM500 27.5q-43 39.5 -43 104.5q0 61 26 110.5t72.5 77.5t106.5 28q71 0 113.5 -39.5t42.5 -104.5q0 -61 -26 -110.5t-72.5 -77.5t-106.5 -28q-70 0 -113 39.5zM694 101q29 38 29 96q0 34 -18.5 55t-49.5 21q-44 0 -73.5 -38
t-29.5 -96q0 -35 19 -55.5t50 -20.5q44 0 73 38z" />
    <glyph glyph-name="perthousand" unicode="&#x2030;" horiz-adv-x="1263" 
d="M120.5 363.5q-42.5 39.5 -42.5 104.5q0 61 26 110.5t72.5 77.5t106.5 28q70 0 112.5 -39.5t42.5 -104.5q0 -61 -26 -110.5t-72.5 -77.5t-106.5 -28q-70 0 -112.5 39.5zM703 672h111l-621 -672h-111zM314 437q29 38 29 96q0 34 -18.5 55t-49.5 21q-44 0 -73 -38t-29 -96
q0 -35 18.5 -55.5t49.5 -20.5q44 0 73 38zM500 27.5q-43 39.5 -43 104.5q0 61 26 110.5t72.5 77.5t106.5 28q71 0 113.5 -39.5t42.5 -104.5q0 -61 -26 -110.5t-72.5 -77.5t-106.5 -28q-70 0 -113 39.5zM898.5 27.5q-42.5 39.5 -42.5 104.5q0 61 26 110.5t72.5 77.5t106.5 28
q70 0 112.5 -39.5t42.5 -104.5q0 -61 -26 -110.5t-72.5 -77.5t-106.5 -28q-70 0 -112.5 39.5zM694 101q29 38 29 96q0 34 -18.5 55t-49.5 21q-44 0 -73.5 -38t-29.5 -96q0 -35 19 -55.5t50 -20.5q44 0 73 38zM1092 101q29 38 29 96q0 35 -18.5 55.5t-49.5 20.5
q-44 0 -73 -38t-29 -96q0 -34 18.5 -55t49.5 -21q44 0 73 38z" />
    <glyph glyph-name="arrowup" unicode="&#x2191;" horiz-adv-x="960" 
d="M429 517l-195 -201l-81 85l335 335l335 -335l-81 -85l-195 201v-677h-118v677z" />
    <glyph glyph-name="arrowright" unicode="&#x2192;" horiz-adv-x="960" 
d="M516 34l201 195h-677v118h677l-201 195l85 81l335 -335l-335 -335z" />
    <glyph glyph-name="arrowdown" unicode="&#x2193;" horiz-adv-x="960" 
d="M153 175l81 85l195 -201v677h118v-677l195 201l81 -85l-335 -335z" />
    <glyph glyph-name="arrowleft" unicode="&#x2190;" horiz-adv-x="960" 
d="M37 288l335 335l86 -81l-202 -195h677v-118h-677l202 -195l-86 -81z" />
    <glyph glyph-name="lozenge" unicode="&#x25ca;" horiz-adv-x="576" 
d="M39 336l211 336h108l210 -336l-210 -336h-108zM439 336l-135 218l-136 -218l136 -219z" />
    <glyph glyph-name="uniF8FF" unicode="&#xf8ff;" horiz-adv-x="591" 
d="M100 659h391v-65h-326v-529h73v-65h-138v659zM230 267h196v66h-196v195h261v-65h-196v-65h196v-196h-261v65z" />
    <glyph glyph-name="at" unicode="@" horiz-adv-x="964" 
d="M222.5 -157.5q-90.5 46.5 -140 130.5t-49.5 194q0 149 67 269.5t186 189t269 68.5q114 0 201 -43.5t134.5 -122.5t47.5 -181q0 -86 -32.5 -159.5t-89.5 -117t-126 -43.5q-43 0 -76.5 18.5t-48.5 47.5q-28 -32 -66 -49t-83 -17q-74 0 -118.5 45.5t-44.5 123.5
q0 77 28.5 137.5t78.5 95t113 34.5q36 0 66 -15t48 -43l25 48h105l-47 -272q-2 -12 -2 -20q0 -20 12.5 -31t32.5 -11q32 0 60 28.5t44 77.5t16 107q0 81 -35.5 141.5t-100.5 93t-152 32.5q-116 0 -209 -54.5t-145 -150.5t-52 -217q0 -87 37 -151.5t105.5 -99.5t161.5 -35
q119 0 240 62l38 -84q-71 -36 -145 -54.5t-144 -18.5q-119 0 -209.5 46.5zM518 149q25 23 32 63l10 56q3 24 3 25q0 32 -19.5 51.5t-50.5 19.5q-48 0 -79 -43t-31 -109q0 -39 20.5 -62.5t53.5 -23.5q36 0 61 23z" />
    <glyph glyph-name="ampersand" unicode="&#x26;" horiz-adv-x="639" 
d="M112 9.5q-45 21.5 -69.5 60t-24.5 87.5q0 67 47 124.5t131 93.5q-52 66 -52 125q0 54 26 96t73.5 65t109.5 23q74 0 119 -38t45 -101q0 -57 -43 -105.5t-128 -86.5l102 -140q39 53 51 117h105q-23 -114 -97 -198l98 -132h-135l-48 65q-47 -37 -100.5 -57t-105.5 -20
q-59 0 -104 21.5zM405 529q0 26 -17 42t-46 16q-36 0 -59.5 -23.5t-23.5 -58.5q0 -19 10 -42t28 -44q108 50 108 110zM304 100q34 15 63 41l-119 163q-52 -23 -81 -56.5t-29 -70.5q0 -40 28 -66t73 -26q31 0 65 15z" />
    <glyph glyph-name="paragraph" unicode="&#xb6;" horiz-adv-x="593" 
d="M457 564h-102l-58 -327h-20q-99 0 -155.5 51.5t-56.5 142.5q0 67 35.5 122.5t97 87t135.5 31.5h250l-146 -832h-108z" />
    <glyph glyph-name="section" unicode="&#xa7;" horiz-adv-x="535" 
d="M91 -158q-61 14 -116 41l43 98q50 -24 98 -36t86 -12q46 0 74 21t28 55q0 28 -24.5 44.5t-76.5 36.5q-50 19 -82 36.5t-54.5 48.5t-22.5 79q0 50 26.5 89.5t73.5 61.5q-39 37 -39 94q0 53 28.5 95t79 66t114.5 24q52 0 110 -12.5t111 -36.5l-43 -99q-47 21 -92 32t-81 11
q-44 0 -70 -20t-26 -52q0 -26 23.5 -41.5t73.5 -33.5q51 -19 83.5 -36.5t56 -50t23.5 -83.5q0 -50 -26 -90t-71 -63q35 -37 35 -92t-28.5 -98t-80 -67t-117.5 -24q-56 0 -117 14zM348 199.5q16 21.5 16 48.5q0 34 -24 52t-74 38l-28 12q-29 -10 -46 -32t-17 -50
q0 -34 25 -52t74 -36l31 -13q27 11 43 32.5z" />
    <glyph glyph-name="copyright" unicode="&#xa9;" horiz-adv-x="832" 
d="M241.5 15q-83.5 47 -130.5 130.5t-47 190.5t47 190.5t130.5 130.5t190.5 47t190.5 -47t130.5 -130.5t47 -190.5t-47 -190.5t-130.5 -130.5t-190.5 -47t-190.5 47zM587.5 73.5q68.5 38.5 107 107t38.5 155.5t-38.5 155.5t-107 107t-155.5 38.5t-155.5 -38.5t-107 -107
t-38.5 -155.5t38.5 -155.5t107 -107t155.5 -38.5t155.5 38.5zM331 147.5q-49 27.5 -76 77t-27 111.5t27 111.5t76 77t113 27.5q39 0 79 -12t75 -36l-40 -66q-49 34 -101 34q-58 0 -94.5 -37.5t-36.5 -98.5t36.5 -98.5t94.5 -37.5q52 0 101 34l40 -66q-35 -24 -75 -36
t-79 -12q-64 0 -113 27.5z" />
    <glyph glyph-name="registered" unicode="&#xae;" horiz-adv-x="832" 
d="M241.5 15q-83.5 47 -130.5 130.5t-47 190.5t47 190.5t130.5 130.5t190.5 47t190.5 -47t130.5 -130.5t47 -190.5t-47 -190.5t-130.5 -130.5t-190.5 -47t-190.5 47zM587.5 73.5q68.5 38.5 107 107t38.5 155.5t-38.5 155.5t-107 107t-155.5 38.5t-155.5 -38.5t-107 -107
t-38.5 -155.5t38.5 -155.5t107 -107t155.5 -38.5t155.5 38.5zM276 544h181q64 0 105 -37t41 -96q0 -46 -24.5 -79t-65.5 -43l104 -161h-102l-89 147h-60v-147h-90v416zM445 346q30 0 48.5 17t18.5 45t-18.5 45.5t-48.5 17.5h-79v-125h79z" />
    <glyph glyph-name="uni2117" unicode="&#x2117;" horiz-adv-x="832" 
d="M241.5 15q-83.5 47 -130.5 130.5t-47 190.5t47 190.5t130.5 130.5t190.5 47t190.5 -47t130.5 -130.5t47 -190.5t-47 -190.5t-130.5 -130.5t-190.5 -47t-190.5 47zM587.5 73.5q68.5 38.5 107 107t38.5 155.5t-38.5 155.5t-107 107t-155.5 38.5t-155.5 -38.5t-107 -107
t-38.5 -155.5t38.5 -155.5t107 -107t155.5 -38.5t155.5 38.5zM289 544h177q67 0 109 -39.5t42 -101.5t-42 -101t-109 -39h-87v-135h-90v416zM454 336q32 0 52 18.5t20 48.5q0 31 -20 49t-52 18h-75v-134h75z" />
    <glyph glyph-name="trademark" unicode="&#x2122;" horiz-adv-x="952" 
d="M187 597h-127v75h351v-75h-126v-341h-98v341zM491 672h94l127 -175l127 175h94v-416h-88v285l-105 -146h-56l-106 146v-285h-87v416z" />
    <glyph glyph-name="uni2105" unicode="&#x2105;" horiz-adv-x="844" 
d="M97 27l623 674l59 -56l-623 -674zM116.5 376.5q-41.5 37.5 -41.5 100.5q0 57 26 103.5t71 73t101 26.5q63 0 119 -37l-42 -65q-37 26 -75 26q-44 0 -73 -33.5t-29 -81.5q0 -33 20 -53.5t54 -20.5q39 0 77 23l29 -65q-59 -34 -127 -34t-109.5 37.5zM490 29.5
q-42 37.5 -42 99.5q0 58 25.5 104.5t71 73t103.5 26.5q69 0 110.5 -37.5t41.5 -99.5q0 -58 -25.5 -104.5t-71 -73t-103.5 -26.5q-68 0 -110 37.5zM676.5 101q26.5 35 26.5 87q0 32 -17.5 51.5t-47.5 19.5q-40 0 -66.5 -35t-26.5 -87q0 -32 17.5 -51.5t47.5 -19.5
q40 0 66.5 35z" />
    <glyph glyph-name="degree" unicode="&#xb0;" horiz-adv-x="340" 
d="M123.5 450.5q-31.5 31.5 -31.5 81.5q0 42 19.5 76.5t54 54.5t77.5 20q50 0 81.5 -31.5t31.5 -82.5q0 -42 -20 -76.5t-54.5 -54t-76.5 -19.5q-50 0 -81.5 31.5zM266 508.5q20 20.5 20 50.5q0 25 -14.5 39.5t-39.5 14.5q-30 0 -50.5 -20.5t-20.5 -50.5q0 -24 15.5 -39
t38.5 -15q31 0 51 20.5z" />
    <glyph glyph-name="bar" unicode="|" horiz-adv-x="240" 
d="M66 736h108v-960h-108v960z" />
    <glyph glyph-name="brokenbar" unicode="&#xa6;" horiz-adv-x="240" 
d="M66 688h108v-384h-108v384zM66 208h108v-384h-108v384z" />
    <glyph glyph-name="dagger" unicode="&#x2020;" horiz-adv-x="500" 
d="M230 411h-163l17 97h163l29 164h98l-29 -164h163l-17 -97h-163l-72 -411h-98z" />
    <glyph glyph-name="uni2113" unicode="&#x2113;" horiz-adv-x="403" 
d="M85.5 25q-39.5 37 -39.5 97q0 12 4 36l70 397q14 75 60 118t114 43q63 0 102.5 -37.5t39.5 -95.5q0 -91 -67 -179.5t-186 -156.5l-14 -81q-3 -12 -3 -25q0 -24 15.5 -37.5t42.5 -13.5q20 0 62 6l9 -97q-51 -11 -106 -11q-64 0 -103.5 37zM302.5 458q35.5 51 35.5 102
q0 24 -11.5 38t-30.5 14q-23 0 -38.5 -17.5t-20.5 -49.5l-33 -179q63 41 98.5 92z" />
    <glyph glyph-name="daggerdbl" unicode="&#x2021;" horiz-adv-x="500" 
d="M187 164h-164l17 97h164l26 150h-163l17 97h163l29 164h98l-29 -164h163l-17 -97h-163l-27 -150h164l-17 -97h-164l-28 -164h-98z" />
    <glyph glyph-name="estimated" unicode="&#x212e;" horiz-adv-x="960" 
d="M303.5 31.5q-88.5 47.5 -140 128.5t-51.5 176t51.5 176t140 128.5t192.5 47.5t192.5 -47.5t140 -128.5t51.5 -176q0 -11 -1 -16h-623v-196q44 -51 106.5 -79.5t133.5 -28.5q72 0 135 29.5t108 82.5h66q-54 -67 -135 -105.5t-174 -38.5q-104 0 -192.5 47.5zM736 352v196
q-45 51 -107.5 79.5t-132.5 28.5q-71 0 -133.5 -28.5t-106.5 -79.5v-196h480z" />
    <glyph glyph-name="uni2116" unicode="&#x2116;" horiz-adv-x="1164" 
d="M871.5 381.5q-41.5 37.5 -41.5 99.5q0 58 25.5 104.5t71 73t103.5 26.5q68 0 110 -37.5t42 -99.5q0 -58 -25.5 -104.5t-71 -73t-103.5 -26.5q-69 0 -110.5 37.5zM159 672h126l251 -484l85 484h123l-118 -672h-126l-251 484l-85 -484h-123zM1058 453q27 35 27 87
q0 32 -17.5 51.5t-47.5 19.5q-40 0 -66.5 -35t-26.5 -87q0 -32 17.5 -51.5t46.5 -19.5q40 0 67 35zM802 284h334l-12 -67h-334z" />
    <glyph glyph-name="asciicircum" unicode="^" horiz-adv-x="576" 
d="M59 205l208 467h108l208 -467l-102 -38l-160 360l-160 -360z" />
    <glyph glyph-name="uni2120" unicode="&#x2120;" horiz-adv-x="944" 
d="M71 282l25 71q74 -29 129 -29q33 0 52 13.5t19 36.5q0 22 -20 32.5t-63 22.5t-70.5 24t-47.5 37t-20 67q0 55 43.5 89t113.5 34t148 -30l-24 -71q-67 24 -117 24q-31 0 -49.5 -12.5t-18.5 -33.5t19 -30.5t61 -20.5q44 -12 72 -24t48.5 -38t20.5 -70q0 -56 -44 -91
t-116 -35q-82 0 -161 34zM483 672h94l127 -175l126 175h95v-416h-89v285l-105 -146h-55l-106 146v-285h-87v416z" />
    <glyph glyph-name="uni0308" unicode="&#x308;" horiz-adv-x="0" 
d="M-218.5 577.5q-16.5 16.5 -16.5 42.5q0 33 23 56t56 23q26 0 42.5 -16.5t16.5 -42.5q0 -34 -22.5 -56.5t-56.5 -22.5q-26 0 -42.5 16.5zM4.5 577.5q-16.5 16.5 -16.5 42.5q0 33 22.5 56t56.5 23q26 0 42.5 -16.5t16.5 -42.5q0 -34 -23 -56.5t-56 -22.5q-26 0 -42.5 16.5z
" />
    <glyph glyph-name="uni0307" unicode="&#x307;" horiz-adv-x="0" 
d="M-111.5 573.5q-17.5 17.5 -17.5 45.5q0 36 24.5 60.5t60.5 24.5q28 0 46 -17.5t18 -46.5q0 -35 -24.5 -59.5t-60.5 -24.5q-29 0 -46.5 17.5z" />
    <glyph glyph-name="gravecomb" unicode="&#x300;" horiz-adv-x="0" 
d="M-204 652l57 79l176 -126l-51 -70z" />
    <glyph glyph-name="acutecomb" unicode="&#x301;" horiz-adv-x="0" 
d="M-137 605l193 127l52 -85l-203 -112z" />
    <glyph glyph-name="uni030B" unicode="&#x30b;" horiz-adv-x="0" 
d="M-242 603l172 154l64 -76l-181 -145zM-21 603l172 154l64 -76l-181 -145z" />
    <glyph glyph-name="uni0302" unicode="&#x302;" horiz-adv-x="0" 
d="M-227 600l144 114h77l104 -122l-60 -55l-91 90l-127 -93z" />
    <glyph glyph-name="uni030C" unicode="&#x30c;" horiz-adv-x="0" 
d="M-207 668l60 55l90 -90l128 93l46 -67l-143 -114h-77z" />
    <glyph glyph-name="uni0306" unicode="&#x306;" horiz-adv-x="0" 
d="M-166.5 573.5q-39.5 36.5 -39.5 95.5q0 13 2 29h80q-1 -5 -1 -13q0 -28 18.5 -44t49.5 -16q36 0 62 20t33 53h85q-13 -74 -63.5 -117.5t-123.5 -43.5q-63 0 -102.5 36.5z" />
    <glyph glyph-name="uni030A" unicode="&#x30a;" horiz-adv-x="0" 
d="M-137.5 551.5q-25.5 24.5 -25.5 63.5q0 50 36 84t88 34q41 0 67 -24.5t26 -63.5q0 -50 -35.5 -84t-88.5 -34q-42 0 -67.5 24.5zM-23.5 598.5q15.5 15.5 15.5 38.5q0 18 -11 28.5t-28 10.5q-23 0 -38.5 -15t-15.5 -38q0 -18 11 -29t28 -11q23 0 38.5 15.5z" />
    <glyph glyph-name="tildecomb" unicode="&#x303;" horiz-adv-x="0" 
d="M-229 593q14 45 45.5 71.5t72.5 26.5q20 0 34.5 -5t34.5 -15q16 -8 25.5 -11.5t20.5 -3.5q14 0 26 9.5t18 25.5l73 -24q-15 -45 -46.5 -71.5t-72.5 -26.5q-19 0 -33 5t-36 15q-15 8 -25 11.5t-21 3.5q-14 0 -25.5 -9.5t-18.5 -25.5z" />
    <glyph glyph-name="uni0304" unicode="&#x304;" horiz-adv-x="0" 
d="M-203 673h313l-16 -87h-312z" />
    <glyph glyph-name="uni0326" unicode="&#x326;" horiz-adv-x="0" 
d="M-279 -263q57 39 74 84q-21 0 -34 13.5t-13 35.5q0 34 22.5 56.5t56.5 22.5q28 0 44.5 -19.5t16.5 -51.5q0 -49 -37 -99.5t-101 -86.5z" />
    <glyph glyph-name="uni0327" unicode="&#x327;" horiz-adv-x="0" 
d="M-314 -207l29 69q38 -16 68 -16q20 0 32.5 9.5t12.5 24.5q0 14 -13 23t-34 9h-10l30 88h87l-14 -44q26 -8 41 -29t15 -49q0 -46 -39 -77.5t-98 -31.5q-52 0 -107 24z" />
    <glyph glyph-name="uni0328" unicode="&#x328;" horiz-adv-x="0" 
d="M-272 -207q-27 24 -27 63q0 41 34 83t95 75l71 -14q-48 -31 -74.5 -62t-26.5 -57q0 -16 10.5 -25.5t26.5 -9.5q14 0 32 4l13 -70q-41 -11 -82 -11q-45 0 -72 24z" />
    <glyph glyph-name="uni0308.case" horiz-adv-x="0" 
d="M-180.5 759.5q-16.5 16.5 -16.5 42.5q0 33 23 56t56 23q26 0 42.5 -16.5t16.5 -42.5q0 -34 -22.5 -56.5t-56.5 -22.5q-26 0 -42.5 16.5zM42.5 759.5q-16.5 16.5 -16.5 42.5q0 33 22.5 56t56.5 23q26 0 42.5 -16.5t16.5 -42.5q0 -34 -23 -56.5t-56 -22.5q-26 0 -42.5 16.5
z" />
    <glyph glyph-name="uni0307.case" horiz-adv-x="0" 
d="M-73.5 755.5q-17.5 17.5 -17.5 45.5q0 36 24.5 60.5t60.5 24.5q29 0 46.5 -17.5t17.5 -46.5q0 -35 -24.5 -59.5t-60.5 -24.5q-29 0 -46.5 17.5z" />
    <glyph glyph-name="gravecomb.case" horiz-adv-x="0" 
d="M-166 834l57 79l176 -126l-51 -70z" />
    <glyph glyph-name="acutecomb.case" horiz-adv-x="0" 
d="M-99 787l193 127l52 -85l-203 -112z" />
    <glyph glyph-name="uni030B.case" horiz-adv-x="0" 
d="M-203 785l172 154l64 -76l-181 -145zM18 785l172 154l64 -76l-181 -145z" />
    <glyph glyph-name="uni0302.case" horiz-adv-x="0" 
d="M-188 782l144 114h77l104 -122l-60 -55l-91 90l-127 -93z" />
    <glyph glyph-name="uni030C.case" horiz-adv-x="0" 
d="M-168 850l60 55l90 -90l128 93l46 -67l-143 -114h-77z" />
    <glyph glyph-name="uni0306.case" horiz-adv-x="0" 
d="M-127.5 755.5q-39.5 36.5 -39.5 95.5q0 13 2 29h80q-1 -5 -1 -13q0 -28 18.5 -44t49.5 -16q36 0 62 20t33 53h85q-13 -74 -63.5 -117.5t-123.5 -43.5q-63 0 -102.5 36.5z" />
    <glyph glyph-name="uni030A.case" horiz-adv-x="0" 
d="M-98.5 733.5q-25.5 24.5 -25.5 63.5q0 50 36 84t88 34q41 0 67 -24.5t26 -63.5q0 -50 -35.5 -84t-88.5 -34q-42 0 -67.5 24.5zM15.5 780.5q15.5 15.5 15.5 38.5q0 18 -11 28.5t-28 10.5q-23 0 -38.5 -15t-15.5 -38q0 -18 11 -29t28 -11q23 0 38.5 15.5z" />
    <glyph glyph-name="tildecomb.case" horiz-adv-x="0" 
d="M-190 775q14 45 45.5 71.5t72.5 26.5q20 0 34.5 -5t34.5 -15q15 -8 25 -11.5t21 -3.5q14 0 26 9.5t18 25.5l73 -24q-15 -45 -46.5 -71.5t-72.5 -26.5q-19 0 -33 5t-36 15q-15 8 -25 11.5t-21 3.5q-14 0 -25.5 -9.5t-18.5 -25.5z" />
    <glyph glyph-name="uni0304.case" horiz-adv-x="0" 
d="M-164 855h313l-16 -87h-312z" />
    <glyph glyph-name="acutecomb.loclPLK" horiz-adv-x="0" 
d="M-137 570l78 164l92 -41l-89 -158z" />
    <glyph glyph-name="acutecomb.case.loclPLK" horiz-adv-x="0" 
d="M-118 752l78 164l92 -41l-89 -158z" />
    <glyph glyph-name="acute" unicode="&#xb4;" horiz-adv-x="240" 
d="M103 605l193 127l52 -85l-203 -112z" />
    <glyph glyph-name="breve" unicode="&#x2d8;" horiz-adv-x="240" 
d="M73.5 573.5q-39.5 36.5 -39.5 95.5q0 13 2 29h80q-1 -5 -1 -13q0 -28 18.5 -44t49.5 -16q36 0 62 20t33 53h85q-13 -74 -63.5 -117.5t-123.5 -43.5q-63 0 -102.5 36.5z" />
    <glyph glyph-name="caron" unicode="&#x2c7;" horiz-adv-x="240" 
d="M33 668l60 55l90 -90l128 93l46 -67l-143 -114h-77z" />
    <glyph glyph-name="cedilla" unicode="&#xb8;" horiz-adv-x="240" 
d="M-74 -207l29 69q38 -16 68 -16q20 0 32.5 9.5t12.5 24.5q0 14 -13 23t-34 9h-10l30 88h87l-14 -44q26 -8 41 -29t15 -49q0 -46 -39 -77.5t-98 -31.5q-52 0 -107 24z" />
    <glyph glyph-name="circumflex" unicode="&#x2c6;" horiz-adv-x="240" 
d="M13 600l144 114h77l104 -122l-60 -55l-91 90l-127 -93z" />
    <glyph glyph-name="dieresis" unicode="&#xa8;" horiz-adv-x="240" 
d="M21.5 577.5q-16.5 16.5 -16.5 42.5q0 33 23 56t56 23q26 0 42.5 -16.5t16.5 -42.5q0 -34 -22.5 -56.5t-56.5 -22.5q-26 0 -42.5 16.5zM244.5 577.5q-16.5 16.5 -16.5 42.5q0 33 22.5 56t56.5 23q26 0 42.5 -16.5t16.5 -42.5q0 -34 -23 -56.5t-56 -22.5q-26 0 -42.5 16.5z
" />
    <glyph glyph-name="dotaccent" unicode="&#x2d9;" horiz-adv-x="240" 
d="M128.5 573.5q-17.5 17.5 -17.5 45.5q0 36 24.5 60.5t60.5 24.5q29 0 46.5 -17.5t17.5 -46.5q0 -35 -24.5 -59.5t-60.5 -24.5q-29 0 -46.5 17.5z" />
    <glyph glyph-name="grave" unicode="`" horiz-adv-x="240" 
d="M36 652l57 79l176 -126l-51 -70z" />
    <glyph glyph-name="hungarumlaut" unicode="&#x2dd;" horiz-adv-x="240" 
d="M-2 603l172 154l64 -76l-181 -145zM219 603l172 154l64 -76l-181 -145z" />
    <glyph glyph-name="macron" unicode="&#xaf;" horiz-adv-x="240" 
d="M37 673h313l-16 -87h-312z" />
    <glyph glyph-name="ogonek" unicode="&#x2db;" horiz-adv-x="240" 
d="M-32 -207q-27 24 -27 63q0 41 34 83t95 75l71 -14q-48 -31 -74.5 -62t-26.5 -57q0 -16 10.5 -25.5t26.5 -9.5q14 0 32 4l13 -70q-41 -11 -82 -11q-45 0 -72 24z" />
    <glyph glyph-name="ring" unicode="&#x2da;" horiz-adv-x="240" 
d="M102.5 551.5q-25.5 24.5 -25.5 63.5q0 50 36 84t88 34q41 0 67 -24.5t26 -63.5q0 -50 -35.5 -84t-88.5 -34q-42 0 -67.5 24.5zM216.5 598.5q15.5 15.5 15.5 38.5q0 18 -11 28.5t-28 10.5q-23 0 -38.5 -15t-15.5 -38q0 -18 11 -29t28 -11q23 0 38.5 15.5z" />
    <glyph glyph-name="tilde" unicode="&#x2dc;" horiz-adv-x="240" 
d="M11 593q14 45 45.5 71.5t72.5 26.5q20 0 34.5 -5t34.5 -15q16 -8 25.5 -11.5t20.5 -3.5q14 0 26 9.5t18 25.5l73 -24q-15 -45 -46.5 -71.5t-72.5 -26.5q-19 0 -33 5t-36 15q-16 8 -25.5 11.5t-20.5 3.5q-14 0 -25.5 -9.5t-18.5 -25.5z" />
    <glyph glyph-name="acute.case" horiz-adv-x="240" 
d="M141 787l193 127l52 -85l-203 -112z" />
    <glyph glyph-name="breve.case" horiz-adv-x="240" 
d="M112.5 755.5q-39.5 36.5 -39.5 95.5q0 13 2 29h80q-1 -5 -1 -13q0 -28 18.5 -44t49.5 -16q36 0 62 20t33 53h85q-13 -74 -63.5 -117.5t-123.5 -43.5q-63 0 -102.5 36.5z" />
    <glyph glyph-name="caron.case" horiz-adv-x="240" 
d="M72 850l60 55l90 -90l128 93l46 -67l-143 -114h-77z" />
    <glyph glyph-name="circumflex.case" horiz-adv-x="240" 
d="M52 782l144 114h77l104 -122l-60 -55l-91 90l-127 -93z" />
    <glyph glyph-name="dieresis.case" horiz-adv-x="240" 
d="M59.5 759.5q-16.5 16.5 -16.5 42.5q0 33 23 56t56 23q26 0 42.5 -16.5t16.5 -42.5q0 -34 -22.5 -56.5t-56.5 -22.5q-26 0 -42.5 16.5zM282.5 759.5q-16.5 16.5 -16.5 42.5q0 33 22.5 56t56.5 23q26 0 42.5 -16.5t16.5 -42.5q0 -34 -23 -56.5t-56 -22.5q-26 0 -42.5 16.5z
" />
    <glyph glyph-name="dotaccent.case" horiz-adv-x="240" 
d="M166.5 755.5q-17.5 17.5 -17.5 45.5q0 36 24.5 60.5t60.5 24.5q29 0 46.5 -17.5t17.5 -46.5q0 -35 -24.5 -59.5t-60.5 -24.5q-29 0 -46.5 17.5z" />
    <glyph glyph-name="grave.case" horiz-adv-x="240" 
d="M74 834l57 79l176 -126l-51 -70z" />
    <glyph glyph-name="hungarumlaut.case" horiz-adv-x="240" 
d="M37 785l172 154l64 -76l-181 -145zM258 785l172 154l64 -76l-181 -145z" />
    <glyph glyph-name="macron.case" horiz-adv-x="240" 
d="M76 855h313l-16 -87h-312z" />
    <glyph glyph-name="ring.case" horiz-adv-x="240" 
d="M141.5 733.5q-25.5 24.5 -25.5 63.5q0 50 36 84t88 34q41 0 67 -24.5t26 -63.5q0 -50 -35.5 -84t-88.5 -34q-42 0 -67.5 24.5zM255.5 780.5q15.5 15.5 15.5 38.5q0 18 -11 28.5t-28 10.5q-23 0 -38.5 -15t-15.5 -38q0 -18 11 -29t28 -11q23 0 38.5 15.5z" />
    <glyph glyph-name="tilde.case" horiz-adv-x="240" 
d="M50 775q14 45 45.5 71.5t72.5 26.5q20 0 34.5 -5t34.5 -15q15 -8 25 -11.5t21 -3.5q14 0 26 9.5t18 25.5l73 -24q-15 -45 -46.5 -71.5t-72.5 -26.5q-19 0 -33 5t-36 15q-15 8 -25 11.5t-21 3.5q-14 0 -25.5 -9.5t-18.5 -25.5z" />
	k="16" />
  </font>
</defs>
</svg>
