<?xml version="1.0" standalone="no"?>
<!DOCTYPE svg PUBLIC "-//W3C//DTD SVG 1.1//EN" "http://www.w3.org/Graphics/SVG/1.1/DTD/svg11.dtd" >
<svg xmlns="http://www.w3.org/2000/svg">
<metadata>
FS Thrive Elliot is a licensed version of FS Elliot Copyright (c) 2015 by Fontsmith Ltd for Alight. All rights reserved. This font may not be altered in any way without prior permission of Fontsmith Ltd.
</metadata>
<defs>
<font id="FSThriveElliotWeb-Light" horiz-adv-x="572" >
  <font-face 
    font-family="FS Thrive Elliot Web Light"
    font-weight="300"
    font-stretch="normal"
    units-per-em="1000"
    panose-1="2 6 4 3 3 2 2 2 2 4"
    ascent="800"
    descent="-200"
    x-height="483"
    cap-height="672"
    bbox="-262 -269 1190 922"
    underline-thickness="40"
    underline-position="-60"
    unicode-range="U+000D-FB04"
  />
<missing-glyph horiz-adv-x="500" 
d="M12 672h476v-672h-476v672zM412 624h-324l162 -244zM222 336l-162 244v-488zM440 580l-162 -244l162 -244v488zM412 48l-162 244l-162 -244h324z" />
    <glyph glyph-name="fi" unicode="fi" horiz-adv-x="554" 
d="M135 444h-106v39h106v81q0 66 46 109t116 43q63 0 139 -25l-10 -38q-74 23 -124 23q-51 0 -85 -32t-34 -81v-80h284v-483h-48v444h-236v-444h-48v444z" />
    <glyph glyph-name="fl" unicode="fl" horiz-adv-x="602" 
d="M447.5 15.5q-28.5 27.5 -28.5 74.5v574q-69 12 -118 12q-53 0 -85.5 -31t-32.5 -82v-80h149v-39h-149v-444h-48v444h-106v39h106v81q0 68 45.5 110t117.5 42q56 0 169 -18v-604q0 -31 17.5 -48t47.5 -17q23 0 50 7l7 -39q-36 -9 -65 -9q-48 0 -76.5 27.5z" />
    <glyph glyph-name="f_b.liga" unicode="fb" horiz-adv-x="904" 
d="M534.5 15q-44.5 27 -70.5 77l-6 -92h-39v664q-69 12 -118 12q-53 0 -85.5 -31t-32.5 -82v-80h149v-39h-149v-444h-48v444h-106v39h106v81q0 68 45.5 110t117.5 42q56 0 169 -18v-305q25 49 69 75.5t101 26.5q62 0 111.5 -32.5t77 -90t27.5 -131.5q0 -73 -27.5 -130.5
t-77 -90t-111.5 -32.5q-58 0 -102.5 27zM719 55.5q40 27.5 62.5 76t22.5 109.5q0 62 -22.5 110.5t-62.5 76t-91 27.5q-47 0 -84 -22t-57.5 -60.5t-20.5 -87.5v-87q0 -49 20.5 -87.5t57.5 -60.5t84 -22q51 0 91 27.5z" />
    <glyph glyph-name="f_f.liga" unicode="ff" horiz-adv-x="660" 
d="M135 444h-106v39h106v102q0 58 37 94.5t96 36.5q46 0 89 -13l-8 -39q-36 11 -72 11q-41 0 -67.5 -26t-26.5 -67v-99h252v102q0 58 37 94.5t96 36.5q44 0 89 -13l-8 -39q-36 11 -72 11q-42 0 -68 -26t-26 -67v-99h148v-39h-148v-444h-48v444h-252v-444h-48v444z" />
    <glyph glyph-name="f_f_b.liga" unicode="ffb" horiz-adv-x="1202" 
d="M834 15q-45 27 -71 77l-6 -92h-39v664q-67 12 -117 12q-53 0 -85.5 -31t-32.5 -82v-80h148v-39h-148v-444h-48v444h-252v-444h-48v444h-106v39h106v102q0 58 37 94.5t96 36.5q46 0 89 -13l-8 -39q-36 11 -72 11q-42 0 -68 -25.5t-26 -67.5v-99h252v81q0 68 45.5 110
t117.5 42q56 0 168 -18v-305q39 69 109 90q29 10 64 10q77 0 132.5 -50.5t72.5 -133.5q7 -29 7 -67q0 -73 -27.5 -130.5t-76 -90.5t-110.5 -33q-58 0 -103 27zM1018.5 55.5q40.5 27.5 63 76t22.5 109.5q0 62 -22.5 110.5t-63 76t-90.5 27.5q-72 0 -117 -47.5t-45 -122.5v-87
q0 -75 45 -122.5t117 -47.5q50 0 90.5 27.5z" />
    <glyph glyph-name="f_f_h.liga" unicode="ffh" horiz-adv-x="1203" 
d="M135 444h-106v39h106v102q0 58 37 94.5t96 36.5q46 0 89 -13l-8 -39q-36 11 -72 11q-42 0 -68 -25.5t-26 -67.5v-99h252v81q0 68 45.5 110t117.5 42q56 0 168 -18v-313q24 52 71 81t106 29q52 0 93 -22.5t64 -62.5t23 -91v-319h-47v313q0 62 -40.5 101.5t-103.5 39.5
q-47 0 -85 -22.5t-59.5 -62.5t-21.5 -92v-277h-48v664q-67 12 -117 12q-53 0 -85.5 -31t-32.5 -82v-80h148v-39h-148v-444h-48v444h-252v-444h-48v444z" />
    <glyph glyph-name="f_f_i.liga" unicode="ffi" horiz-adv-x="854" 
d="M135 444h-106v39h106v102q0 58 37 94.5t96 36.5q46 0 89 -13l-8 -39q-36 11 -72 11q-41 0 -67.5 -26t-26.5 -67v-99h252v81q0 67 45.5 109.5t115.5 42.5q64 0 140 -25l-11 -38q-72 23 -123 23q-52 0 -85.5 -32t-33.5 -81v-80h283v-483h-48v444h-235v-444h-48v444h-252
v-444h-48v444z" />
    <glyph glyph-name="f_f_j.liga" unicode="ffj" horiz-adv-x="854" 
d="M545 -207l7 39q36 -11 73 -11q41 0 67 26t26 67v530h-235v-444h-48v444h-252v-444h-48v444h-106v39h106v102q0 58 37 94.5t96 36.5q46 0 89 -13l-8 -39q-36 11 -72 11q-41 0 -67.5 -26t-26.5 -67v-99h252v81q0 67 45.5 109.5t115.5 42.5q64 0 140 -25l-11 -38
q-72 23 -123 23q-52 0 -85.5 -32t-33.5 -81v-80h283v-572q0 -58 -37 -94.5t-96 -36.5q-45 0 -88 13z" />
    <glyph glyph-name="f_f_k.liga" unicode="ffk" horiz-adv-x="1125" 
d="M135 444h-106v39h106v102q0 58 37 94.5t96 36.5q46 0 89 -13l-8 -39q-36 11 -72 11q-41 0 -67.5 -26t-26.5 -67v-99h252v81q0 68 45.5 110t117.5 42q66 0 167 -18v-476l260 261h58l-225 -226l233 -257h-58l-206 228l-62 -61v-167h-47v664q-67 12 -117 12q-53 0 -85.5 -31
t-32.5 -82v-80h148v-39h-148v-444h-48v444h-252v-444h-48v444z" />
    <glyph glyph-name="f_f_l.liga" unicode="ffl" horiz-adv-x="902" 
d="M747 16q-29 28 -29 74v574q-67 12 -117 12q-53 0 -85.5 -31t-32.5 -82v-80h148v-39h-148v-444h-48v444h-252v-444h-48v444h-106v39h106v102q0 58 37 94.5t96 36.5q46 0 89 -13l-8 -39q-36 11 -72 11q-41 0 -67.5 -26t-26.5 -67v-99h252v81q0 68 45.5 110t117.5 42
q56 0 168 -18v-604q0 -30 18 -47.5t48 -17.5q23 0 50 7l7 -39q-37 -9 -66 -9q-47 0 -76 28z" />
    <glyph glyph-name="f_h.liga" unicode="fh" horiz-adv-x="904" 
d="M135 444h-106v39h106v81q0 68 45.5 110t117.5 42q56 0 169 -18v-313q23 52 70.5 81t106.5 29q51 0 92.5 -22.5t64.5 -62.5t23 -91v-319h-48v313q0 62 -40.5 101.5t-103.5 39.5q-47 0 -84.5 -22.5t-59 -62.5t-21.5 -92v-277h-48v664q-69 12 -118 12q-53 0 -85.5 -31
t-32.5 -82v-80h149v-39h-149v-444h-48v444z" />
    <glyph glyph-name="f_j.liga" unicode="fj" horiz-adv-x="554" 
d="M245 -207l8 39q36 -11 72 -11q41 0 67.5 26t26.5 67v530h-236v-444h-48v444h-106v39h106v81q0 66 46 109t116 43q63 0 139 -25l-10 -38q-74 23 -124 23q-51 0 -85 -32t-34 -81v-80h284v-572q0 -58 -37 -94.5t-96 -36.5q-46 0 -89 13z" />
    <glyph glyph-name="f_k.liga" unicode="fk" horiz-adv-x="825" 
d="M135 444h-106v39h106v81q0 68 45.5 110t117.5 42q66 0 167 -18v-476l260 261h58l-224 -226l232 -257h-58l-206 228l-62 -61v-167h-46v664q-69 12 -118 12q-53 0 -85.5 -31t-32.5 -82v-80h149v-39h-149v-444h-48v444z" />
    <glyph glyph-name=".notdef" horiz-adv-x="500" 
d="M12 672h476v-672h-476v672zM412 624h-324l162 -244zM222 336l-162 244v-488zM440 580l-162 -244l162 -244v488zM412 48l-162 244l-162 -244h324z" />
    <glyph glyph-name=".null" horiz-adv-x="0" 
 />
    <glyph glyph-name="nonmarkingreturn" unicode="&#xd;" horiz-adv-x="240" 
 />
    <glyph glyph-name="space" unicode=" " horiz-adv-x="240" 
 />
    <glyph glyph-name="A" unicode="A" horiz-adv-x="663" 
d="M308 672h47l278 -672h-51l-82 200h-337l-82 -200h-51zM485 239l-153 374l-154 -374h307z" />
    <glyph glyph-name="Aacute" unicode="&#xc1;" horiz-adv-x="663" 
d="M308 672h47l278 -672h-51l-82 200h-337l-82 -200h-51zM485 239l-153 374l-154 -374h307zM280 780l160 110l24 -33l-164 -105z" />
    <glyph glyph-name="Abreve" unicode="&#x102;" horiz-adv-x="663" 
d="M308 672h47l278 -672h-51l-82 200h-337l-82 -200h-51zM485 239l-153 374l-154 -374h307zM235 784.5q-39 36.5 -41 95.5h35q2 -42 31 -68.5t72 -26.5t72 26.5t31 68.5h35q-2 -59 -41 -95.5t-97 -36.5t-97 36.5z" />
    <glyph glyph-name="uni01CD" unicode="&#x1cd;" horiz-adv-x="663" 
d="M308 672h47l278 -672h-51l-82 200h-337l-82 -200h-51zM485 239l-153 374l-154 -374h307zM194 875l23 24l115 -106l115 106l23 -24l-121 -119h-34z" />
    <glyph glyph-name="Acircumflex" unicode="&#xc2;" horiz-adv-x="663" 
d="M308 672h47l278 -672h-51l-82 200h-337l-82 -200h-51zM485 239l-153 374l-154 -374h307zM194 778l121 118h34l121 -118l-23 -25l-115 107l-115 -107z" />
    <glyph glyph-name="Adieresis" unicode="&#xc4;" horiz-adv-x="663" 
d="M308 672h47l278 -672h-51l-82 200h-337l-82 -200h-51zM485 239l-153 374l-154 -374h307zM206 800.5q-10 9.5 -10 25.5t10 25.5t26 9.5t25.5 -9.5t9.5 -25.5t-9.5 -25.5t-25.5 -9.5t-26 9.5zM406.5 800.5q-9.5 9.5 -9.5 25.5t9.5 25.5t25.5 9.5t26 -9.5t10 -25.5
t-10 -25.5t-26 -9.5t-25.5 9.5z" />
    <glyph glyph-name="Agrave" unicode="&#xc0;" horiz-adv-x="663" 
d="M308 672h47l278 -672h-51l-82 200h-337l-82 -200h-51zM485 239l-153 374l-154 -374h307zM203 857l24 33l159 -110l-19 -28z" />
    <glyph glyph-name="Amacron" unicode="&#x100;" horiz-adv-x="663" 
d="M308 672h47l278 -672h-51l-82 200h-337l-82 -200h-51zM485 239l-153 374l-154 -374h307zM190 844h284v-36h-284v36z" />
    <glyph glyph-name="Aogonek" unicode="&#x104;" horiz-adv-x="670" 
d="M521 -199q-24 21 -24 57q0 68 93 142h-8l-82 200h-337l-82 -200h-51l278 672h47l278 -672q-98 -76 -98 -135q0 -24 15.5 -38t38.5 -14q25 0 45 10l8 -31q-30 -12 -61 -12q-36 0 -60 21zM485 239l-153 374l-154 -374h307z" />
    <glyph glyph-name="Aring" unicode="&#xc5;" horiz-adv-x="663" 
d="M308 672h47l278 -672h-51l-82 200h-337l-82 -200h-51zM485 239l-153 374l-154 -374h307zM265 760q-27 26 -27 66q0 41 26.5 66.5t67.5 25.5t67.5 -25.5t26.5 -66.5t-25.5 -66.5t-66.5 -25.5q-42 0 -69 26zM379.5 779q17.5 18 17.5 47t-18 47t-47 18t-47 -18t-18 -47
t19 -47t48 -18q28 0 45.5 18z" />
    <glyph glyph-name="Atilde" unicode="&#xc3;" horiz-adv-x="663" 
d="M308 672h47l278 -672h-51l-82 200h-337l-82 -200h-51zM485 239l-153 374l-154 -374h307zM192 799q8 29 28.5 47t47.5 18q15 0 30 -5t40 -16q15 -7 29.5 -12.5t25.5 -5.5q16 0 27.5 10t17.5 29l34 -11q-8 -29 -28.5 -46.5t-47.5 -17.5q-15 0 -30 5t-40 16q-38 17 -55 17
q-16 0 -28 -10t-17 -28z" />
    <glyph glyph-name="AE" unicode="&#xc6;" horiz-adv-x="966" 
d="M459 672h433v-40h-362v-268h330v-40h-330v-284h378v-40h-426v200h-285l-136 -200h-57zM482 239v388l-262 -388h262z" />
    <glyph glyph-name="AEacute" unicode="&#x1fc;" horiz-adv-x="966" 
d="M459 672h433v-40h-362v-268h330v-40h-330v-284h378v-40h-426v200h-285l-136 -200h-57zM482 239v388l-262 -388h262zM519 780l160 110l24 -33l-164 -105z" />
    <glyph glyph-name="B" unicode="B" horiz-adv-x="646" 
d="M110 672h258q54 0 97 -22t67.5 -61t24.5 -88q0 -52 -29.5 -93.5t-79.5 -60.5q62 -16 97.5 -61t35.5 -107q0 -53 -25.5 -93.5t-70 -63t-101.5 -22.5h-274v672zM363 362q64 0 105 38t41 97q0 60 -41 98t-105 38h-205v-271h205zM378 39q68 0 111 40t43 104q0 63 -43 103
t-111 40h-220v-287h220z" />
    <glyph glyph-name="C" unicode="C" horiz-adv-x="643" 
d="M211 32q-73 44 -113.5 123.5t-40.5 180.5q0 102 40.5 181t113.5 123t167 44q55 0 111 -18t107 -54l-22 -35q-44 32 -93 48.5t-98 16.5q-81 0 -143.5 -38.5t-97.5 -108t-35 -159.5t35 -159.5t97.5 -108t143.5 -38.5q49 0 98 16.5t93 48.5l22 -35q-51 -36 -107 -54
t-111 -18q-94 0 -167 44z" />
    <glyph glyph-name="Cacute" unicode="&#x106;" horiz-adv-x="643" 
d="M211 32q-73 44 -113.5 123.5t-40.5 180.5q0 102 40.5 181t113.5 123t167 44q55 0 111 -18t107 -54l-22 -35q-44 32 -93 48.5t-98 16.5q-81 0 -143.5 -38.5t-97.5 -108t-35 -159.5t35 -159.5t97.5 -108t143.5 -38.5q49 0 98 16.5t93 48.5l22 -35q-51 -36 -107 -54
t-111 -18q-94 0 -167 44zM317 780l160 110l24 -33l-164 -105z" />
    <glyph glyph-name="Ccaron" unicode="&#x10c;" horiz-adv-x="643" 
d="M211 32q-73 44 -113.5 123.5t-40.5 180.5q0 102 40.5 181t113.5 123t167 44q55 0 111 -18t107 -54l-22 -35q-44 32 -93 48.5t-98 16.5q-81 0 -143.5 -38.5t-97.5 -108t-35 -159.5t35 -159.5t97.5 -108t143.5 -38.5q49 0 98 16.5t93 48.5l22 -35q-51 -36 -107 -54
t-111 -18q-94 0 -167 44zM231 875l23 24l115 -106l115 106l23 -24l-121 -119h-34z" />
    <glyph glyph-name="Ccedilla" unicode="&#xc7;" horiz-adv-x="643" 
d="M393 -12l-9 -52q32 -3 53.5 -25t21.5 -52q0 -35 -28.5 -57t-72.5 -22t-86 16l11 31q39 -14 71 -14q28 0 46.5 13.5t18.5 36.5q0 22 -19 35.5t-48 13.5h-9l14 77q-89 5 -157 50t-105.5 122.5t-37.5 174.5q0 102 40.5 181t113.5 123t167 44q55 0 111 -18t107 -54l-22 -35
q-44 32 -93 48.5t-98 16.5q-81 0 -143.5 -38.5t-97.5 -108t-35 -159.5t35 -159.5t97.5 -108t143.5 -38.5q49 0 98 16.5t93 48.5l22 -35q-96 -67 -203 -72z" />
    <glyph glyph-name="Ccircumflex" unicode="&#x108;" horiz-adv-x="643" 
d="M211 32q-73 44 -113.5 123.5t-40.5 180.5q0 102 40.5 181t113.5 123t167 44q55 0 111 -18t107 -54l-22 -35q-44 32 -93 48.5t-98 16.5q-81 0 -143.5 -38.5t-97.5 -108t-35 -159.5t35 -159.5t97.5 -108t143.5 -38.5q49 0 98 16.5t93 48.5l22 -35q-51 -36 -107 -54
t-111 -18q-94 0 -167 44zM231 778l121 118h34l121 -118l-23 -25l-115 107l-115 -107z" />
    <glyph glyph-name="Cdotaccent" unicode="&#x10a;" horiz-adv-x="643" 
d="M211 32q-73 44 -113.5 123.5t-40.5 180.5q0 102 40.5 181t113.5 123t167 44q55 0 111 -18t107 -54l-22 -35q-44 32 -93 48.5t-98 16.5q-81 0 -143.5 -38.5t-97.5 -108t-35 -159.5t35 -159.5t97.5 -108t143.5 -38.5q49 0 98 16.5t93 48.5l22 -35q-51 -36 -107 -54
t-111 -18q-94 0 -167 44zM342 799.5q-10 10.5 -10 26.5q0 17 10 27t27 10q16 0 26.5 -10t10.5 -27q0 -16 -10.5 -26.5t-26.5 -10.5q-17 0 -27 10.5z" />
    <glyph glyph-name="D" unicode="D" horiz-adv-x="711" 
d="M110 672h206q99 0 176 -42t119.5 -118.5t42.5 -175.5q0 -98 -42.5 -174.5t-119.5 -119t-176 -42.5h-206v672zM311 41q85 0 152 37.5t104 104.5t37 153t-37 153t-104 104.5t-152 37.5h-152v-590h152z" />
    <glyph glyph-name="Eth" unicode="&#xd0;" horiz-adv-x="727" 
d="M126 324h-97v40h97v308h206q99 0 176 -42t119.5 -118.5t42.5 -175.5q0 -98 -42.5 -174.5t-119.5 -119t-176 -42.5h-206v324zM329 41q85 0 152 37.5t104 104.5t37 153t-37 153t-104 104.5t-152 37.5h-155v-267h187v-40h-187v-283h155z" />
    <glyph glyph-name="Dcaron" unicode="&#x10e;" horiz-adv-x="711" 
d="M110 672h206q99 0 176 -42t119.5 -118.5t42.5 -175.5q0 -98 -42.5 -174.5t-119.5 -119t-176 -42.5h-206v672zM311 41q85 0 152 37.5t104 104.5t37 153t-37 153t-104 104.5t-152 37.5h-152v-590h152zM202 875l23 24l115 -106l115 106l23 -24l-121 -119h-34z" />
    <glyph glyph-name="Dcroat" unicode="&#x110;" horiz-adv-x="727" 
d="M126 324h-97v40h97v308h206q99 0 176 -42t119.5 -118.5t42.5 -175.5q0 -98 -42.5 -174.5t-119.5 -119t-176 -42.5h-206v324zM329 41q85 0 152 37.5t104 104.5t37 153t-37 153t-104 104.5t-152 37.5h-155v-267h187v-40h-187v-283h155z" />
    <glyph glyph-name="E" unicode="E" horiz-adv-x="595" 
d="M110 672h411v-40h-362v-268h330v-40h-330v-284h378v-40h-427v672z" />
    <glyph glyph-name="Eacute" unicode="&#xc9;" horiz-adv-x="595" 
d="M110 672h411v-40h-362v-268h330v-40h-330v-284h378v-40h-427v672zM264 780l160 110l24 -33l-164 -105z" />
    <glyph glyph-name="Ebreve" unicode="&#x114;" horiz-adv-x="595" 
d="M110 672h411v-40h-362v-268h330v-40h-330v-284h378v-40h-427v672zM219 784.5q-39 36.5 -41 95.5h35q2 -42 31 -68.5t72 -26.5t72 26.5t31 68.5h35q-2 -59 -41 -95.5t-97 -36.5t-97 36.5z" />
    <glyph glyph-name="Ecaron" unicode="&#x11a;" horiz-adv-x="595" 
d="M110 672h411v-40h-362v-268h330v-40h-330v-284h378v-40h-427v672zM178 875l23 24l115 -106l115 106l23 -24l-121 -119h-34z" />
    <glyph glyph-name="Ecircumflex" unicode="&#xca;" horiz-adv-x="595" 
d="M110 672h411v-40h-362v-268h330v-40h-330v-284h378v-40h-427v672zM178 778l121 118h34l121 -118l-23 -25l-115 107l-115 -107z" />
    <glyph glyph-name="Edieresis" unicode="&#xcb;" horiz-adv-x="595" 
d="M110 672h411v-40h-362v-268h330v-40h-330v-284h378v-40h-427v672zM190 800.5q-10 9.5 -10 25.5t10 25.5t26 9.5t25.5 -9.5t9.5 -25.5t-9.5 -25.5t-25.5 -9.5t-26 9.5zM390.5 800.5q-9.5 9.5 -9.5 25.5t9.5 25.5t25.5 9.5t26 -9.5t10 -25.5t-10 -25.5t-26 -9.5t-25.5 9.5z
" />
    <glyph glyph-name="Edotaccent" unicode="&#x116;" horiz-adv-x="595" 
d="M110 672h411v-40h-362v-268h330v-40h-330v-284h378v-40h-427v672zM289 799.5q-10 10.5 -10 26.5q0 17 10 27t27 10q16 0 26.5 -10t10.5 -27q0 -16 -10.5 -26.5t-26.5 -10.5q-17 0 -27 10.5z" />
    <glyph glyph-name="Egrave" unicode="&#xc8;" horiz-adv-x="595" 
d="M110 672h411v-40h-362v-268h330v-40h-330v-284h378v-40h-427v672zM187 857l24 33l159 -110l-19 -28z" />
    <glyph glyph-name="Emacron" unicode="&#x112;" horiz-adv-x="595" 
d="M110 672h411v-40h-362v-268h330v-40h-330v-284h378v-40h-427v672zM174 844h284v-36h-284v36z" />
    <glyph glyph-name="Eogonek" unicode="&#x118;" horiz-adv-x="595" 
d="M425 -199q-24 21 -24 57q0 68 93 142h-384v672h411v-40h-362v-268h330v-40h-330v-284h378v-40q-98 -76 -98 -135q0 -24 15.5 -38t38.5 -14q25 0 45 10l8 -31q-30 -12 -61 -12q-36 0 -60 21z" />
    <glyph glyph-name="F" unicode="F" horiz-adv-x="579" 
d="M110 672h411v-41h-362v-291h330v-41h-330v-299h-49v672z" />
    <glyph glyph-name="G" unicode="G" horiz-adv-x="695" 
d="M219 32.5q-77 44.5 -119.5 123.5t-42.5 180t41.5 180t116.5 123.5t171 44.5q110 0 226 -65l-20 -36q-106 60 -201 60q-84 0 -149 -39t-101 -109t-36 -159t37 -159t103.5 -109t151.5 -39q96 0 178 39v227h-181v39h227v-293q-115 -53 -227 -53q-98 0 -175 44.5z" />
    <glyph glyph-name="Gbreve" unicode="&#x11e;" horiz-adv-x="695" 
d="M219 32.5q-77 44.5 -119.5 123.5t-42.5 180t41.5 180t116.5 123.5t171 44.5q110 0 226 -65l-20 -36q-106 60 -201 60q-84 0 -149 -39t-101 -109t-36 -159t37 -159t103.5 -109t151.5 -39q96 0 178 39v227h-181v39h227v-293q-115 -53 -227 -53q-98 0 -175 44.5zM282 784.5
q-39 36.5 -41 95.5h35q2 -42 31 -68.5t72 -26.5t72 26.5t31 68.5h35q-2 -59 -41 -95.5t-97 -36.5t-97 36.5z" />
    <glyph glyph-name="Gcircumflex" unicode="&#x11c;" horiz-adv-x="695" 
d="M219 32.5q-77 44.5 -119.5 123.5t-42.5 180t41.5 180t116.5 123.5t171 44.5q110 0 226 -65l-20 -36q-106 60 -201 60q-84 0 -149 -39t-101 -109t-36 -159t37 -159t103.5 -109t151.5 -39q96 0 178 39v227h-181v39h227v-293q-115 -53 -227 -53q-98 0 -175 44.5zM241 778
l121 118h34l121 -118l-23 -25l-115 107l-115 -107z" />
    <glyph glyph-name="Gcommaaccent" unicode="&#x122;" horiz-adv-x="695" 
d="M219 32.5q-77 44.5 -119.5 123.5t-42.5 180t41.5 180t116.5 123.5t171 44.5q110 0 226 -65l-20 -36q-106 60 -201 60q-84 0 -149 -39t-101 -109t-36 -159t37 -159t103.5 -109t151.5 -39q96 0 178 39v227h-181v39h227v-293q-115 -53 -227 -53q-98 0 -175 44.5zM319 -248
q62 48 62 110q-15 -2 -26 7.5t-11 25.5t9.5 25.5t25.5 9.5q18 0 29 -14.5t11 -39.5q0 -44 -22 -81.5t-63 -63.5z" />
    <glyph glyph-name="Gdotaccent" unicode="&#x120;" horiz-adv-x="695" 
d="M219 32.5q-77 44.5 -119.5 123.5t-42.5 180t41.5 180t116.5 123.5t171 44.5q110 0 226 -65l-20 -36q-106 60 -201 60q-84 0 -149 -39t-101 -109t-36 -159t37 -159t103.5 -109t151.5 -39q96 0 178 39v227h-181v39h227v-293q-115 -53 -227 -53q-98 0 -175 44.5zM352 799.5
q-10 10.5 -10 26.5q0 17 10 27t27 10q16 0 26.5 -10t10.5 -27q0 -16 -10.5 -26.5t-26.5 -10.5q-17 0 -27 10.5z" />
    <glyph glyph-name="H" unicode="H" horiz-adv-x="759" 
d="M110 672h49v-308h441v308h49v-672h-49v324h-441v-324h-49v672z" />
    <glyph glyph-name="Hbar" unicode="&#x126;" horiz-adv-x="759" 
d="M110 532h-81v37h81v103h49v-103h441v103h49v-103h81v-37h-81v-532h-49v324h-441v-324h-49v532zM600 364v168h-441v-168h441z" />
    <glyph glyph-name="Hcircumflex" unicode="&#x124;" horiz-adv-x="759" 
d="M110 672h49v-308h441v308h49v-672h-49v324h-441v-324h-49v672zM242 778l121 118h34l121 -118l-23 -25l-115 107l-115 -107z" />
    <glyph glyph-name="I" unicode="I" horiz-adv-x="269" 
d="M110 672h49v-672h-49v672z" />
    <glyph glyph-name="IJ" unicode="&#x132;" horiz-adv-x="707" 
d="M110 672h49v-672h-49v672zM297 5l8 40q55 -15 106 -15q60 0 98.5 38t38.5 98v506h49v-509q0 -51 -22.5 -91t-63 -62t-91.5 -22q-57 0 -123 17z" />
    <glyph glyph-name="Iacute" unicode="&#xcd;" horiz-adv-x="269" 
d="M110 672h49v-672h-49v672zM83 780l160 110l24 -33l-164 -105z" />
    <glyph glyph-name="Ibreve" unicode="&#x12c;" horiz-adv-x="269" 
d="M110 672h49v-672h-49v672zM38 784.5q-39 36.5 -41 95.5h35q2 -42 31 -68.5t72 -26.5t72 26.5t31 68.5h35q-2 -59 -41 -95.5t-97 -36.5t-97 36.5z" />
    <glyph glyph-name="Icircumflex" unicode="&#xce;" horiz-adv-x="269" 
d="M110 672h49v-672h-49v672zM-3 778l121 118h34l121 -118l-23 -25l-115 107l-115 -107z" />
    <glyph glyph-name="Idieresis" unicode="&#xcf;" horiz-adv-x="269" 
d="M110 672h49v-672h-49v672zM9 800.5q-10 9.5 -10 25.5t10 25.5t26 9.5t25.5 -9.5t9.5 -25.5t-9.5 -25.5t-25.5 -9.5t-26 9.5zM209.5 800.5q-9.5 9.5 -9.5 25.5t9.5 25.5t25.5 9.5t26 -9.5t10 -25.5t-10 -25.5t-26 -9.5t-25.5 9.5z" />
    <glyph glyph-name="Idotaccent" unicode="&#x130;" horiz-adv-x="269" 
d="M110 672h49v-672h-49v672zM108 799.5q-10 10.5 -10 26.5q0 17 10 27t27 10q16 0 26.5 -10t10.5 -27q0 -16 -10.5 -26.5t-26.5 -10.5q-17 0 -27 10.5z" />
    <glyph glyph-name="Igrave" unicode="&#xcc;" horiz-adv-x="269" 
d="M110 672h49v-672h-49v672zM6 857l24 33l159 -110l-19 -28z" />
    <glyph glyph-name="Imacron" unicode="&#x12a;" horiz-adv-x="269" 
d="M110 672h49v-672h-49v672zM-7 844h284v-36h-284v36z" />
    <glyph glyph-name="Iogonek" unicode="&#x12e;" horiz-adv-x="269" 
d="M47 -199q-24 21 -24 57q0 71 87 142v672h49v-672q-98 -76 -98 -135q0 -24 15.5 -38t38.5 -14q25 0 45 10l8 -31q-30 -12 -61 -12q-36 0 -60 21z" />
    <glyph glyph-name="Itilde" unicode="&#x128;" horiz-adv-x="269" 
d="M110 672h49v-672h-49v672zM-5 799q8 29 28.5 47t47.5 18q15 0 30 -5t40 -16q15 -7 29.5 -12.5t25.5 -5.5q16 0 27.5 10t17.5 29l34 -11q-8 -29 -28.5 -46.5t-47.5 -17.5q-15 0 -30 5t-40 16q-38 17 -55 17q-16 0 -28 -10t-17 -28z" />
    <glyph glyph-name="J" unicode="J" horiz-adv-x="438" 
d="M28 5l8 40q55 -15 106 -15q60 0 98.5 38t38.5 98v506h49v-509q0 -51 -22.5 -91t-63 -62t-91.5 -22q-57 0 -123 17z" />
    <glyph glyph-name="Jacute" horiz-adv-x="438" 
d="M28 5l8 40q55 -15 106 -15q60 0 98.5 38t38.5 98v506h49v-509q0 -51 -22.5 -91t-63 -62t-91.5 -22q-57 0 -123 17zM251 780l160 110l24 -33l-164 -105z" />
    <glyph glyph-name="Jcircumflex" unicode="&#x134;" horiz-adv-x="438" 
d="M28 5l8 40q55 -15 106 -15q60 0 98.5 38t38.5 98v506h49v-509q0 -51 -22.5 -91t-63 -62t-91.5 -22q-57 0 -123 17zM165 778l121 118h34l121 -118l-23 -25l-115 107l-115 -107z" />
    <glyph glyph-name="K" unicode="K" horiz-adv-x="652" 
d="M110 672h48v-378l377 378h60l-313 -314l328 -358h-61l-301 327l-90 -89v-238h-48v672z" />
    <glyph glyph-name="Kcommaaccent" unicode="&#x136;" horiz-adv-x="652" 
d="M110 672h48v-378l377 378h60l-313 -314l328 -358h-61l-301 327l-90 -89v-238h-48v672zM274 -248q62 48 62 110q-15 -2 -26 7.5t-11 25.5t9.5 25.5t25.5 9.5q18 0 29 -14.5t11 -39.5q0 -44 -22 -81.5t-63 -63.5z" />
    <glyph glyph-name="L" unicode="L" horiz-adv-x="531" 
d="M110 672h49v-631h343v-41h-392v672z" />
    <glyph glyph-name="Lacute" unicode="&#x139;" horiz-adv-x="531" 
d="M110 672h49v-631h343v-41h-392v672zM83 780l160 110l24 -33l-164 -105z" />
    <glyph glyph-name="Lcaron" unicode="&#x13d;" horiz-adv-x="531" 
d="M256 532l64 163l38 -14l-68 -161zM110 672h49v-631h343v-41h-392v672z" />
    <glyph glyph-name="Lcommaaccent" unicode="&#x13b;" horiz-adv-x="531" 
d="M110 672h49v-631h343v-41h-392v672zM237 -248q62 48 62 110q-15 -2 -26 7.5t-11 25.5t9.5 25.5t25.5 9.5q18 0 29 -14.5t11 -39.5q0 -44 -22 -81.5t-63 -63.5z" />
    <glyph glyph-name="Ldot" unicode="&#x13f;" horiz-adv-x="547" 
d="M110 672h49v-631h343v-41h-392v672zM381.5 326.5q-10.5 10.5 -10.5 26.5q0 17 10.5 27t26.5 10q17 0 27 -10t10 -27q0 -16 -10 -26.5t-27 -10.5q-16 0 -26.5 10.5z" />
    <glyph glyph-name="Lslash" unicode="&#x141;" horiz-adv-x="547" 
d="M126 302l-85 -42l-17 32l102 51v329h49v-304l152 76l18 -32l-170 -85v-286h343v-41h-392v302z" />
    <glyph glyph-name="M" unicode="M" horiz-adv-x="847" 
d="M110 672h49l265 -358l264 358h49v-672h-46v603l-252 -343h-31l-252 343v-603h-46v672z" />
    <glyph glyph-name="N" unicode="N" horiz-adv-x="759" 
d="M110 672h49l444 -603v603h46v-672h-49l-444 603v-603h-46v672z" />
    <glyph glyph-name="Nacute" unicode="&#x143;" horiz-adv-x="759" 
d="M110 672h49l444 -603v603h46v-672h-49l-444 603v-603h-46v672zM328 780l160 110l24 -33l-164 -105z" />
    <glyph glyph-name="Ncaron" unicode="&#x147;" horiz-adv-x="759" 
d="M110 672h49l444 -603v603h46v-672h-49l-444 603v-603h-46v672zM242 875l23 24l115 -106l115 106l23 -24l-121 -119h-34z" />
    <glyph glyph-name="Ncommaaccent" unicode="&#x145;" horiz-adv-x="759" 
d="M110 672h49l444 -603v603h46v-672h-49l-444 603v-603h-46v672zM320 -248q62 48 62 110q-15 -2 -26 7.5t-11 25.5t9.5 25.5t25.5 9.5q18 0 29 -14.5t11 -39.5q0 -44 -22 -81.5t-63 -63.5z" />
    <glyph glyph-name="Eng" unicode="&#x14a;" horiz-adv-x="759" 
d="M349 -203l9 40q57 -15 108 -15q59 0 97.5 37t38.5 94v45l-446 605v-603h-46v672h49l444 -603v603h46v-717q0 -51 -22.5 -91t-63 -62t-91.5 -22q-57 0 -123 17z" />
    <glyph glyph-name="Ntilde" unicode="&#xd1;" horiz-adv-x="759" 
d="M110 672h49l444 -603v603h46v-672h-49l-444 603v-603h-46v672zM240 799q8 29 28.5 47t47.5 18q15 0 30 -5t40 -16q15 -7 29.5 -12.5t25.5 -5.5q16 0 27.5 10t17.5 29l34 -11q-8 -29 -28.5 -46.5t-47.5 -17.5q-15 0 -30 5t-40 16q-38 17 -55 17q-16 0 -28 -10t-17 -28z
" />
    <glyph glyph-name="O" unicode="O" horiz-adv-x="759" 
d="M212.5 32.5q-73.5 44.5 -114.5 123.5t-41 180t41 180t114.5 123.5t167.5 44.5q93 0 166.5 -44.5t114.5 -123.5t41 -180t-41 -180t-114.5 -123.5t-166.5 -44.5q-94 0 -167.5 44.5zM520 68.5q62 39.5 97 109.5t35 158t-35 158t-97 109.5t-140 39.5q-79 0 -141 -39.5
t-97 -109.5t-35 -158t35 -158t97 -109.5t141 -39.5q78 0 140 39.5z" />
    <glyph glyph-name="Oacute" unicode="&#xd3;" horiz-adv-x="759" 
d="M212.5 32.5q-73.5 44.5 -114.5 123.5t-41 180t41 180t114.5 123.5t167.5 44.5q93 0 166.5 -44.5t114.5 -123.5t41 -180t-41 -180t-114.5 -123.5t-166.5 -44.5q-94 0 -167.5 44.5zM520 68.5q62 39.5 97 109.5t35 158t-35 158t-97 109.5t-140 39.5q-79 0 -141 -39.5
t-97 -109.5t-35 -158t35 -158t97 -109.5t141 -39.5q78 0 140 39.5zM328 780l160 110l24 -33l-164 -105z" />
    <glyph glyph-name="Obreve" unicode="&#x14e;" horiz-adv-x="759" 
d="M212.5 32.5q-73.5 44.5 -114.5 123.5t-41 180t41 180t114.5 123.5t167.5 44.5q93 0 166.5 -44.5t114.5 -123.5t41 -180t-41 -180t-114.5 -123.5t-166.5 -44.5q-94 0 -167.5 44.5zM520 68.5q62 39.5 97 109.5t35 158t-35 158t-97 109.5t-140 39.5q-79 0 -141 -39.5
t-97 -109.5t-35 -158t35 -158t97 -109.5t141 -39.5q78 0 140 39.5zM283 784.5q-39 36.5 -41 95.5h35q2 -42 31 -68.5t72 -26.5t72 26.5t31 68.5h35q-2 -59 -41 -95.5t-97 -36.5t-97 36.5z" />
    <glyph glyph-name="Ocircumflex" unicode="&#xd4;" horiz-adv-x="759" 
d="M212.5 32.5q-73.5 44.5 -114.5 123.5t-41 180t41 180t114.5 123.5t167.5 44.5q93 0 166.5 -44.5t114.5 -123.5t41 -180t-41 -180t-114.5 -123.5t-166.5 -44.5q-94 0 -167.5 44.5zM520 68.5q62 39.5 97 109.5t35 158t-35 158t-97 109.5t-140 39.5q-79 0 -141 -39.5
t-97 -109.5t-35 -158t35 -158t97 -109.5t141 -39.5q78 0 140 39.5zM242 778l121 118h34l121 -118l-23 -25l-115 107l-115 -107z" />
    <glyph glyph-name="Odieresis" unicode="&#xd6;" horiz-adv-x="759" 
d="M212.5 32.5q-73.5 44.5 -114.5 123.5t-41 180t41 180t114.5 123.5t167.5 44.5q93 0 166.5 -44.5t114.5 -123.5t41 -180t-41 -180t-114.5 -123.5t-166.5 -44.5q-94 0 -167.5 44.5zM520 68.5q62 39.5 97 109.5t35 158t-35 158t-97 109.5t-140 39.5q-79 0 -141 -39.5
t-97 -109.5t-35 -158t35 -158t97 -109.5t141 -39.5q78 0 140 39.5zM254 800.5q-10 9.5 -10 25.5t10 25.5t26 9.5t25.5 -9.5t9.5 -25.5t-9.5 -25.5t-25.5 -9.5t-26 9.5zM454.5 800.5q-9.5 9.5 -9.5 25.5t9.5 25.5t25.5 9.5t26 -9.5t10 -25.5t-10 -25.5t-26 -9.5t-25.5 9.5z
" />
    <glyph glyph-name="Ograve" unicode="&#xd2;" horiz-adv-x="759" 
d="M212.5 32.5q-73.5 44.5 -114.5 123.5t-41 180t41 180t114.5 123.5t167.5 44.5q93 0 166.5 -44.5t114.5 -123.5t41 -180t-41 -180t-114.5 -123.5t-166.5 -44.5q-94 0 -167.5 44.5zM520 68.5q62 39.5 97 109.5t35 158t-35 158t-97 109.5t-140 39.5q-79 0 -141 -39.5
t-97 -109.5t-35 -158t35 -158t97 -109.5t141 -39.5q78 0 140 39.5zM251 857l24 33l159 -110l-19 -28z" />
    <glyph glyph-name="Ohungarumlaut" unicode="&#x150;" horiz-adv-x="759" 
d="M212.5 32.5q-73.5 44.5 -114.5 123.5t-41 180t41 180t114.5 123.5t167.5 44.5q93 0 166.5 -44.5t114.5 -123.5t41 -180t-41 -180t-114.5 -123.5t-166.5 -44.5q-94 0 -167.5 44.5zM520 68.5q62 39.5 97 109.5t35 158t-35 158t-97 109.5t-140 39.5q-79 0 -141 -39.5
t-97 -109.5t-35 -158t35 -158t97 -109.5t141 -39.5q78 0 140 39.5zM253 772l138 142l29 -29l-142 -138zM430 772l138 142l29 -29l-141 -138z" />
    <glyph glyph-name="Omacron" unicode="&#x14c;" horiz-adv-x="759" 
d="M212.5 32.5q-73.5 44.5 -114.5 123.5t-41 180t41 180t114.5 123.5t167.5 44.5q93 0 166.5 -44.5t114.5 -123.5t41 -180t-41 -180t-114.5 -123.5t-166.5 -44.5q-94 0 -167.5 44.5zM520 68.5q62 39.5 97 109.5t35 158t-35 158t-97 109.5t-140 39.5q-79 0 -141 -39.5
t-97 -109.5t-35 -158t35 -158t97 -109.5t141 -39.5q78 0 140 39.5zM238 844h284v-36h-284v36z" />
    <glyph glyph-name="Oslash" unicode="&#xd8;" horiz-adv-x="759" 
d="M187 52l-42 -56h-42l57 76q-49 47 -76 114.5t-27 149.5q0 101 41 180t114.5 123.5t167.5 44.5q111 0 192 -64l42 56h41l-57 -76q50 -47 77 -114.5t27 -149.5q0 -101 -41 -180t-114.5 -123.5t-166.5 -44.5q-112 0 -193 64zM546 585q-33 29 -75.5 44t-90.5 15
q-80 0 -143 -39.5t-98 -109.5t-35 -159q0 -70 22 -128.5t62 -99.5zM522.5 67.5q62.5 39.5 97.5 109.5t35 159q0 70 -22 128.5t-62 99.5l-358 -478q71 -58 167 -58q80 0 142.5 39.5z" />
    <glyph glyph-name="Oslashacute" unicode="&#x1fe;" horiz-adv-x="759" 
d="M187 52l-42 -56h-42l57 76q-49 47 -76 114.5t-27 149.5q0 101 41 180t114.5 123.5t167.5 44.5q111 0 192 -64l42 56h41l-57 -76q50 -47 77 -114.5t27 -149.5q0 -101 -41 -180t-114.5 -123.5t-166.5 -44.5q-112 0 -193 64zM546 585q-33 29 -75.5 44t-90.5 15
q-80 0 -143 -39.5t-98 -109.5t-35 -159q0 -70 22 -128.5t62 -99.5zM522.5 67.5q62.5 39.5 97.5 109.5t35 159q0 70 -22 128.5t-62 99.5l-358 -478q71 -58 167 -58q80 0 142.5 39.5zM328 780l160 110l24 -33l-164 -105z" />
    <glyph glyph-name="Otilde" unicode="&#xd5;" horiz-adv-x="759" 
d="M212.5 32.5q-73.5 44.5 -114.5 123.5t-41 180t41 180t114.5 123.5t167.5 44.5q93 0 166.5 -44.5t114.5 -123.5t41 -180t-41 -180t-114.5 -123.5t-166.5 -44.5q-94 0 -167.5 44.5zM520 68.5q62 39.5 97 109.5t35 158t-35 158t-97 109.5t-140 39.5q-79 0 -141 -39.5
t-97 -109.5t-35 -158t35 -158t97 -109.5t141 -39.5q78 0 140 39.5zM240 799q8 29 28.5 47t47.5 18q15 0 30 -5t40 -16q15 -7 29.5 -12.5t25.5 -5.5q16 0 27.5 10t17.5 29l34 -11q-8 -29 -28.5 -46.5t-47.5 -17.5q-15 0 -30 5t-40 16q-38 17 -55 17q-16 0 -28 -10t-17 -28z
" />
    <glyph glyph-name="OE" unicode="&#x152;" horiz-adv-x="1008" 
d="M218.5 42q-76.5 42 -119 118.5t-42.5 175.5q0 98 42.5 174.5t119 119t175.5 42.5h540v-40h-362v-268h330v-40h-330v-284h378v-40h-556q-99 0 -175.5 42zM523 41v590h-124q-85 0 -151.5 -37.5t-103.5 -104.5t-37 -153t37 -153t103.5 -104.5t151.5 -37.5h124z" />
    <glyph glyph-name="P" unicode="P" horiz-adv-x="614" 
d="M110 672h238q63 0 112.5 -26t77 -72t27.5 -105t-27.5 -105t-77 -72t-112.5 -26h-190v-266h-48v672zM343 306q76 0 124.5 45.5t48.5 117.5q0 47 -22 84t-61.5 57.5t-89.5 20.5h-185v-325h185z" />
    <glyph glyph-name="Thorn" unicode="&#xde;" horiz-adv-x="614" 
d="M110 672h48v-125h190q63 0 112.5 -26t77 -72t27.5 -105t-27.5 -105t-77 -72t-112.5 -26h-190v-141h-48v672zM343 181q76 0 124.5 45.5t48.5 117.5t-48.5 117.5t-124.5 45.5h-185v-326h185z" />
    <glyph glyph-name="Q" unicode="Q" horiz-adv-x="759" 
d="M498 10q-57 -22 -118 -22q-94 0 -167.5 44.5t-114.5 123.5t-41 180t41 180t114.5 123.5t167.5 44.5q93 0 166.5 -44.5t114.5 -123.5t41 -180q0 -104 -43 -184t-119 -122l176 -129l-26 -32zM520 68.5q62 39.5 97 109.5t35 158t-35 158t-97 109.5t-140 39.5
q-79 0 -141 -39.5t-97 -109.5t-35 -158t35 -158t97 -109.5t141 -39.5q78 0 140 39.5z" />
    <glyph glyph-name="R" unicode="R" horiz-adv-x="646" 
d="M110 672h240q60 0 107.5 -25t74 -69.5t26.5 -100.5q0 -78 -49 -130.5t-129 -59.5l204 -287h-56l-198 282h-172v-282h-48v672zM344 322q73 0 119.5 43t46.5 112q0 68 -46.5 111t-119.5 43h-186v-309h186z" />
    <glyph glyph-name="Racute" unicode="&#x154;" horiz-adv-x="646" 
d="M110 672h240q60 0 107.5 -25t74 -69.5t26.5 -100.5q0 -78 -49 -130.5t-129 -59.5l204 -287h-56l-198 282h-172v-282h-48v672zM344 322q73 0 119.5 43t46.5 112q0 68 -46.5 111t-119.5 43h-186v-309h186zM279 780l160 110l24 -33l-164 -105z" />
    <glyph glyph-name="Rcaron" unicode="&#x158;" horiz-adv-x="646" 
d="M110 672h240q60 0 107.5 -25t74 -69.5t26.5 -100.5q0 -78 -49 -130.5t-129 -59.5l204 -287h-56l-198 282h-172v-282h-48v672zM344 322q73 0 119.5 43t46.5 112q0 68 -46.5 111t-119.5 43h-186v-309h186zM193 875l23 24l115 -106l115 106l23 -24l-121 -119h-34z" />
    <glyph glyph-name="Rcommaaccent" unicode="&#x156;" horiz-adv-x="646" 
d="M110 672h240q60 0 107.5 -25t74 -69.5t26.5 -100.5q0 -78 -49 -130.5t-129 -59.5l204 -287h-56l-198 282h-172v-282h-48v672zM344 322q73 0 119.5 43t46.5 112q0 68 -46.5 111t-119.5 43h-186v-309h186zM271 -248q62 48 62 110q-15 -2 -26 7.5t-11 25.5t9.5 25.5
t25.5 9.5q18 0 29 -14.5t11 -39.5q0 -44 -22 -81.5t-63 -63.5z" />
    <glyph glyph-name="S" unicode="S" horiz-adv-x="574" 
d="M57 41l13 39q131 -51 214 -51t133.5 37.5t50.5 97.5q0 47 -25.5 76t-63 45t-102.5 35q-71 21 -114 40t-72.5 55.5t-29.5 96.5q0 50 28.5 89.5t80 61t117.5 21.5q95 0 205 -45l-13 -39q-104 43 -189 43q-81 0 -130.5 -36.5t-49.5 -94.5q0 -45 25 -73.5t62 -44.5t100 -34
q71 -21 115 -40t74 -56.5t30 -99.5q0 -52 -28.5 -92t-80.5 -62t-120 -22q-103 0 -230 53z" />
    <glyph glyph-name="Sacute" unicode="&#x15a;" horiz-adv-x="574" 
d="M57 41l13 39q131 -51 214 -51t133.5 37.5t50.5 97.5q0 47 -25.5 76t-63 45t-102.5 35q-71 21 -114 40t-72.5 55.5t-29.5 96.5q0 50 28.5 89.5t80 61t117.5 21.5q95 0 205 -45l-13 -39q-104 43 -189 43q-81 0 -130.5 -36.5t-49.5 -94.5q0 -45 25 -73.5t62 -44.5t100 -34
q71 -21 115 -40t74 -56.5t30 -99.5q0 -52 -28.5 -92t-80.5 -62t-120 -22q-103 0 -230 53zM235 780l160 110l24 -33l-164 -105z" />
    <glyph glyph-name="Scaron" unicode="&#x160;" horiz-adv-x="574" 
d="M57 41l13 39q131 -51 214 -51t133.5 37.5t50.5 97.5q0 47 -25.5 76t-63 45t-102.5 35q-71 21 -114 40t-72.5 55.5t-29.5 96.5q0 50 28.5 89.5t80 61t117.5 21.5q95 0 205 -45l-13 -39q-104 43 -189 43q-81 0 -130.5 -36.5t-49.5 -94.5q0 -45 25 -73.5t62 -44.5t100 -34
q71 -21 115 -40t74 -56.5t30 -99.5q0 -52 -28.5 -92t-80.5 -62t-120 -22q-103 0 -230 53zM149 875l23 24l115 -106l115 106l23 -24l-121 -119h-34z" />
    <glyph glyph-name="Scedilla" unicode="&#x15e;" horiz-adv-x="574" 
d="M460 42.5q-56 -47.5 -149 -53.5l-9 -53q32 -3 53.5 -25t21.5 -52q0 -35 -28.5 -57t-72.5 -22t-86 16l11 31q39 -14 71 -14q28 0 46.5 13.5t18.5 36.5q0 22 -19 35.5t-48 13.5h-9l14 76q-98 3 -218 53l13 39q131 -51 214 -51t133.5 37.5t50.5 97.5q0 47 -25.5 76t-63 45
t-102.5 35q-71 21 -114 40t-72.5 55.5t-29.5 96.5q0 50 28.5 89.5t80 61t117.5 21.5q95 0 205 -45l-13 -39q-104 43 -189 43q-81 0 -130.5 -36.5t-49.5 -94.5q0 -45 25 -73.5t62 -44.5t100 -34q71 -21 115 -40t74 -56.5t30 -99.5q0 -74 -56 -121.5z" />
    <glyph glyph-name="Scircumflex" unicode="&#x15c;" horiz-adv-x="574" 
d="M57 41l13 39q131 -51 214 -51t133.5 37.5t50.5 97.5q0 47 -25.5 76t-63 45t-102.5 35q-71 21 -114 40t-72.5 55.5t-29.5 96.5q0 50 28.5 89.5t80 61t117.5 21.5q95 0 205 -45l-13 -39q-104 43 -189 43q-81 0 -130.5 -36.5t-49.5 -94.5q0 -45 25 -73.5t62 -44.5t100 -34
q71 -21 115 -40t74 -56.5t30 -99.5q0 -52 -28.5 -92t-80.5 -62t-120 -22q-103 0 -230 53zM149 778l121 118h34l121 -118l-23 -25l-115 107l-115 -107z" />
    <glyph glyph-name="Scommaaccent" unicode="&#x218;" horiz-adv-x="574" 
d="M57 41l13 39q131 -51 214 -51t133.5 37.5t50.5 97.5q0 47 -25.5 76t-63 45t-102.5 35q-71 21 -114 40t-72.5 55.5t-29.5 96.5q0 50 28.5 89.5t80 61t117.5 21.5q95 0 205 -45l-13 -39q-104 43 -189 43q-81 0 -130.5 -36.5t-49.5 -94.5q0 -45 25 -73.5t62 -44.5t100 -34
q71 -21 115 -40t74 -56.5t30 -99.5q0 -52 -28.5 -92t-80.5 -62t-120 -22q-103 0 -230 53zM227 -248q62 48 62 110q-15 -2 -26 7.5t-11 25.5t9.5 25.5t25.5 9.5q18 0 29 -14.5t11 -39.5q0 -44 -22 -81.5t-63 -63.5z" />
    <glyph glyph-name="uni1E9E" unicode="&#x1e9e;" horiz-adv-x="759" 
d="M288 41l19 39q42 -25 85 -38t81 -13q50 0 89.5 20.5t61.5 57.5t22 83q0 48 -23.5 85.5t-66.5 58.5t-99 21h-20l-9 26l184 250h-454v-631h-48v672h560v-30l-184 -251q94 -6 151 -61t57 -140q0 -58 -28 -104t-77.5 -72t-112.5 -26q-98 0 -188 53z" />
    <glyph glyph-name="T" unicode="T" horiz-adv-x="595" 
d="M273 631h-244v41h537v-41h-244v-631h-49v631z" />
    <glyph glyph-name="Tbar" unicode="&#x166;" horiz-adv-x="595" 
d="M273 300h-151v39h151v292h-244v41h537v-41h-244v-292h151v-39h-151v-300h-49v300z" />
    <glyph glyph-name="Tcaron" unicode="&#x164;" horiz-adv-x="595" 
d="M273 631h-244v41h537v-41h-244v-631h-49v631zM160 875l23 24l115 -106l115 106l23 -24l-121 -119h-34z" />
    <glyph glyph-name="uni0162" unicode="&#x162;" horiz-adv-x="595" 
d="M273 631h-244v41h537v-41h-244v-631h-49v631zM237 -248q62 48 62 110q-15 -2 -26 7.5t-11 25.5t9.5 25.5t25.5 9.5q18 0 29 -14.5t11 -39.5q0 -44 -22 -81.5t-63 -63.5z" />
    <glyph glyph-name="uni021A" unicode="&#x21a;" horiz-adv-x="595" 
d="M273 631h-244v41h537v-41h-244v-631h-49v631zM237 -248q62 48 62 110q-15 -2 -26 7.5t-11 25.5t9.5 25.5t25.5 9.5q18 0 29 -14.5t11 -39.5q0 -44 -22 -81.5t-63 -63.5z" />
    <glyph glyph-name="U" unicode="U" horiz-adv-x="759" 
d="M237.5 21.5q-63.5 33.5 -99.5 94t-36 136.5v420h49v-418q0 -65 29.5 -116.5t82 -80t117.5 -28.5t117 28.5t81.5 80t29.5 116.5v418h49v-420q0 -76 -36 -136.5t-99 -94t-142 -33.5t-142.5 33.5z" />
    <glyph glyph-name="Uacute" unicode="&#xda;" horiz-adv-x="759" 
d="M237.5 21.5q-63.5 33.5 -99.5 94t-36 136.5v420h49v-418q0 -65 29.5 -116.5t82 -80t117.5 -28.5t117 28.5t81.5 80t29.5 116.5v418h49v-420q0 -76 -36 -136.5t-99 -94t-142 -33.5t-142.5 33.5zM328 780l160 110l24 -33l-164 -105z" />
    <glyph glyph-name="Ubreve" unicode="&#x16c;" horiz-adv-x="759" 
d="M237.5 21.5q-63.5 33.5 -99.5 94t-36 136.5v420h49v-418q0 -65 29.5 -116.5t82 -80t117.5 -28.5t117 28.5t81.5 80t29.5 116.5v418h49v-420q0 -76 -36 -136.5t-99 -94t-142 -33.5t-142.5 33.5zM283 784.5q-39 36.5 -41 95.5h35q2 -42 31 -68.5t72 -26.5t72 26.5t31 68.5
h35q-2 -59 -41 -95.5t-97 -36.5t-97 36.5z" />
    <glyph glyph-name="Ucircumflex" unicode="&#xdb;" horiz-adv-x="759" 
d="M237.5 21.5q-63.5 33.5 -99.5 94t-36 136.5v420h49v-418q0 -65 29.5 -116.5t82 -80t117.5 -28.5t117 28.5t81.5 80t29.5 116.5v418h49v-420q0 -76 -36 -136.5t-99 -94t-142 -33.5t-142.5 33.5zM242 778l121 118h34l121 -118l-23 -25l-115 107l-115 -107z" />
    <glyph glyph-name="Udieresis" unicode="&#xdc;" horiz-adv-x="759" 
d="M237.5 21.5q-63.5 33.5 -99.5 94t-36 136.5v420h49v-418q0 -65 29.5 -116.5t82 -80t117.5 -28.5t117 28.5t81.5 80t29.5 116.5v418h49v-420q0 -76 -36 -136.5t-99 -94t-142 -33.5t-142.5 33.5zM254 800.5q-10 9.5 -10 25.5t10 25.5t26 9.5t25.5 -9.5t9.5 -25.5
t-9.5 -25.5t-25.5 -9.5t-26 9.5zM454.5 800.5q-9.5 9.5 -9.5 25.5t9.5 25.5t25.5 9.5t26 -9.5t10 -25.5t-10 -25.5t-26 -9.5t-25.5 9.5z" />
    <glyph glyph-name="Ugrave" unicode="&#xd9;" horiz-adv-x="759" 
d="M237.5 21.5q-63.5 33.5 -99.5 94t-36 136.5v420h49v-418q0 -65 29.5 -116.5t82 -80t117.5 -28.5t117 28.5t81.5 80t29.5 116.5v418h49v-420q0 -76 -36 -136.5t-99 -94t-142 -33.5t-142.5 33.5zM251 857l24 33l159 -110l-19 -28z" />
    <glyph glyph-name="Uhungarumlaut" unicode="&#x170;" horiz-adv-x="759" 
d="M237.5 21.5q-63.5 33.5 -99.5 94t-36 136.5v420h49v-418q0 -65 29.5 -116.5t82 -80t117.5 -28.5t117 28.5t81.5 80t29.5 116.5v418h49v-420q0 -76 -36 -136.5t-99 -94t-142 -33.5t-142.5 33.5zM253 772l138 142l29 -29l-142 -138zM430 772l138 142l29 -29l-141 -138z" />
    <glyph glyph-name="Umacron" unicode="&#x16a;" horiz-adv-x="759" 
d="M237.5 21.5q-63.5 33.5 -99.5 94t-36 136.5v420h49v-418q0 -65 29.5 -116.5t82 -80t117.5 -28.5t117 28.5t81.5 80t29.5 116.5v418h49v-420q0 -76 -36 -136.5t-99 -94t-142 -33.5t-142.5 33.5zM238 844h284v-36h-284v36z" />
    <glyph glyph-name="Uogonek" unicode="&#x172;" horiz-adv-x="759" 
d="M346 -199q-24 21 -24 57q0 69 98 133q-30 -3 -54 -2q-74 2 -134.5 36t-95 93.5t-34.5 133.5v420h49v-418q0 -65 29.5 -116.5t82 -80t117.5 -28.5t117 29.5t81.5 80.5t29.5 115v418h49v-417q0 -86 -40.5 -144t-124.5 -106q-131 -75 -131 -140q0 -24 15.5 -38t38.5 -14
q24 0 43 10l10 -31q-31 -12 -62 -12q-36 0 -60 21z" />
    <glyph glyph-name="Uring" unicode="&#x16e;" horiz-adv-x="759" 
d="M237.5 21.5q-63.5 33.5 -99.5 94t-36 136.5v420h49v-418q0 -65 29.5 -116.5t82 -80t117.5 -28.5t117 28.5t81.5 80t29.5 116.5v418h49v-420q0 -76 -36 -136.5t-99 -94t-142 -33.5t-142.5 33.5zM313 760q-27 26 -27 66q0 41 26.5 66.5t67.5 25.5t67.5 -25.5t26.5 -66.5
t-25.5 -66.5t-66.5 -25.5q-42 0 -69 26zM427.5 779q17.5 18 17.5 47t-18 47t-47 18t-47 -18t-18 -47t19 -47t48 -18q28 0 45.5 18z" />
    <glyph glyph-name="Utilde" unicode="&#x168;" horiz-adv-x="759" 
d="M237.5 21.5q-63.5 33.5 -99.5 94t-36 136.5v420h49v-418q0 -65 29.5 -116.5t82 -80t117.5 -28.5t117 28.5t81.5 80t29.5 116.5v418h49v-420q0 -76 -36 -136.5t-99 -94t-142 -33.5t-142.5 33.5zM240 799q8 29 28.5 47t47.5 18q15 0 30 -5t40 -16q15 -7 29.5 -12.5
t25.5 -5.5q16 0 27.5 10t17.5 29l34 -11q-8 -29 -28.5 -46.5t-47.5 -17.5q-15 0 -30 5t-40 16q-38 17 -55 17q-16 0 -28 -10t-17 -28z" />
    <glyph glyph-name="V" unicode="V" horiz-adv-x="663" 
d="M30 672h52l250 -609l249 609h52l-278 -672h-47z" />
    <glyph glyph-name="W" unicode="W" horiz-adv-x="999" 
d="M42 672h50l192 -609l192 609h48l191 -609l192 609h50l-216 -672h-50l-191 609l-192 -609h-50z" />
    <glyph glyph-name="Wacute" unicode="&#x1e82;" horiz-adv-x="999" 
d="M42 672h50l192 -609l192 609h48l191 -609l192 609h50l-216 -672h-50l-191 609l-192 -609h-50zM448 780l160 110l24 -33l-164 -105z" />
    <glyph glyph-name="Wcircumflex" unicode="&#x174;" horiz-adv-x="999" 
d="M42 672h50l192 -609l192 609h48l191 -609l192 609h50l-216 -672h-50l-191 609l-192 -609h-50zM362 778l121 118h34l121 -118l-23 -25l-115 107l-115 -107z" />
    <glyph glyph-name="Wdieresis" unicode="&#x1e84;" horiz-adv-x="999" 
d="M42 672h50l192 -609l192 609h48l191 -609l192 609h50l-216 -672h-50l-191 609l-192 -609h-50zM374 800.5q-10 9.5 -10 25.5t10 25.5t26 9.5t25.5 -9.5t9.5 -25.5t-9.5 -25.5t-25.5 -9.5t-26 9.5zM574.5 800.5q-9.5 9.5 -9.5 25.5t9.5 25.5t25.5 9.5t26 -9.5t10 -25.5
t-10 -25.5t-26 -9.5t-25.5 9.5z" />
    <glyph glyph-name="Wgrave" unicode="&#x1e80;" horiz-adv-x="999" 
d="M42 672h50l192 -609l192 609h48l191 -609l192 609h50l-216 -672h-50l-191 609l-192 -609h-50zM371 857l24 33l159 -110l-19 -28z" />
    <glyph glyph-name="X" unicode="X" horiz-adv-x="671" 
d="M304 344l-249 328h56l225 -295l224 295h56l-249 -328l261 -344h-57l-235 311l-236 -311h-57z" />
    <glyph glyph-name="Y" unicode="Y" horiz-adv-x="588" 
d="M269 295l-247 377h55l217 -332l216 332h56l-248 -377v-295h-49v295z" />
    <glyph glyph-name="Yacute" unicode="&#xdd;" horiz-adv-x="588" 
d="M269 295l-247 377h55l217 -332l216 332h56l-248 -377v-295h-49v295zM242 780l160 110l24 -33l-164 -105z" />
    <glyph glyph-name="Ycircumflex" unicode="&#x176;" horiz-adv-x="588" 
d="M269 295l-247 377h55l217 -332l216 332h56l-248 -377v-295h-49v295zM156 778l121 118h34l121 -118l-23 -25l-115 107l-115 -107z" />
    <glyph glyph-name="Ydieresis" unicode="&#x178;" horiz-adv-x="588" 
d="M269 295l-247 377h55l217 -332l216 332h56l-248 -377v-295h-49v295zM168 800.5q-10 9.5 -10 25.5t10 25.5t26 9.5t25.5 -9.5t9.5 -25.5t-9.5 -25.5t-25.5 -9.5t-26 9.5zM368.5 800.5q-9.5 9.5 -9.5 25.5t9.5 25.5t25.5 9.5t26 -9.5t10 -25.5t-10 -25.5t-26 -9.5
t-25.5 9.5z" />
    <glyph glyph-name="Ygrave" unicode="&#x1ef2;" horiz-adv-x="588" 
d="M269 295l-247 377h55l217 -332l216 332h56l-248 -377v-295h-49v295zM165 857l24 33l159 -110l-19 -28z" />
    <glyph glyph-name="Z" unicode="Z" horiz-adv-x="622" 
d="M57 30l430 601h-418v41h483v-30l-429 -601h441v-41h-507v30z" />
    <glyph glyph-name="Zacute" unicode="&#x179;" horiz-adv-x="622" 
d="M57 30l430 601h-418v41h483v-30l-429 -601h441v-41h-507v30zM259 780l160 110l24 -33l-164 -105z" />
    <glyph glyph-name="Zcaron" unicode="&#x17d;" horiz-adv-x="622" 
d="M57 30l430 601h-418v41h483v-30l-429 -601h441v-41h-507v30zM173 875l23 24l115 -106l115 106l23 -24l-121 -119h-34z" />
    <glyph glyph-name="Zdotaccent" unicode="&#x17b;" horiz-adv-x="622" 
d="M57 30l430 601h-418v41h483v-30l-429 -601h441v-41h-507v30zM284 799.5q-10 10.5 -10 26.5q0 17 10 27t27 10q16 0 26.5 -10t10.5 -27q0 -16 -10.5 -26.5t-26.5 -10.5q-17 0 -27 10.5z" />
    <glyph glyph-name="Cacute.loclPLK" horiz-adv-x="643" 
d="M211 32q-73 44 -113.5 123.5t-40.5 180.5q0 102 40.5 181t113.5 123t167 44q55 0 111 -18t107 -54l-22 -35q-44 32 -93 48.5t-98 16.5q-81 0 -143.5 -38.5t-97.5 -108t-35 -159.5t35 -159.5t97.5 -108t143.5 -38.5q49 0 98 16.5t93 48.5l22 -35q-51 -36 -107 -54
t-111 -18q-94 0 -167 44zM338 759l51 141l38 -14l-56 -139z" />
    <glyph glyph-name="Nacute.loclPLK" horiz-adv-x="759" 
d="M110 672h49l444 -603v603h46v-672h-49l-444 603v-603h-46v672zM349 759l51 141l38 -14l-56 -139z" />
    <glyph glyph-name="Oacute.loclPLK" horiz-adv-x="759" 
d="M212.5 32.5q-73.5 44.5 -114.5 123.5t-41 180t41 180t114.5 123.5t167.5 44.5q93 0 166.5 -44.5t114.5 -123.5t41 -180t-41 -180t-114.5 -123.5t-166.5 -44.5q-94 0 -167.5 44.5zM520 68.5q62 39.5 97 109.5t35 158t-35 158t-97 109.5t-140 39.5q-79 0 -141 -39.5
t-97 -109.5t-35 -158t35 -158t97 -109.5t141 -39.5q78 0 140 39.5zM349 759l51 141l38 -14l-56 -139z" />
    <glyph glyph-name="Sacute.loclPLK" horiz-adv-x="574" 
d="M57 41l13 39q131 -51 214 -51t133.5 37.5t50.5 97.5q0 47 -25.5 76t-63 45t-102.5 35q-71 21 -114 40t-72.5 55.5t-29.5 96.5q0 50 28.5 89.5t80 61t117.5 21.5q95 0 205 -45l-13 -39q-104 43 -189 43q-81 0 -130.5 -36.5t-49.5 -94.5q0 -45 25 -73.5t62 -44.5t100 -34
q71 -21 115 -40t74 -56.5t30 -99.5q0 -52 -28.5 -92t-80.5 -62t-120 -22q-103 0 -230 53zM256 759l51 141l38 -14l-56 -139z" />
    <glyph glyph-name="Zacute.loclPLK" horiz-adv-x="622" 
d="M57 30l430 601h-418v41h483v-30l-429 -601h441v-41h-507v30zM280 759l51 141l38 -14l-56 -139z" />
    <glyph glyph-name="a" unicode="a" 
d="M154.5 20.5q-49.5 32.5 -77 90t-27.5 130.5q0 74 27.5 131.5t77 90t111.5 32.5q57 0 103 -27.5t70 -75.5l6 91h39v-483h-39l-6 92q-26 -50 -70.5 -77t-102.5 -27q-62 0 -111.5 32.5zM392 75.5q45 47.5 45 122.5v87q0 75 -45 122.5t-117 47.5q-51 0 -91 -27.5t-62.5 -76
t-22.5 -110.5q0 -61 22.5 -109.5t62.5 -76t91 -27.5q72 0 117 47.5z" />
    <glyph glyph-name="aacute" unicode="&#xe1;" 
d="M154.5 20.5q-49.5 32.5 -77 90t-27.5 130.5q0 74 27.5 131.5t77 90t111.5 32.5q57 0 103 -27.5t70 -75.5l6 91h39v-483h-39l-6 92q-26 -50 -70.5 -77t-102.5 -27q-62 0 -111.5 32.5zM392 75.5q45 47.5 45 122.5v87q0 75 -45 122.5t-117 47.5q-51 0 -91 -27.5t-62.5 -76
t-22.5 -110.5q0 -61 22.5 -109.5t62.5 -76t91 -27.5q72 0 117 47.5zM218 591l160 110l24 -33l-164 -105z" />
    <glyph glyph-name="abreve" unicode="&#x103;" 
d="M154.5 20.5q-49.5 32.5 -77 90t-27.5 130.5q0 74 27.5 131.5t77 90t111.5 32.5q57 0 103 -27.5t70 -75.5l6 91h39v-483h-39l-6 92q-26 -50 -70.5 -77t-102.5 -27q-62 0 -111.5 32.5zM392 75.5q45 47.5 45 122.5v87q0 75 -45 122.5t-117 47.5q-51 0 -91 -27.5t-62.5 -76
t-22.5 -110.5q0 -61 22.5 -109.5t62.5 -76t91 -27.5q72 0 117 47.5zM173 595.5q-39 36.5 -41 95.5h35q2 -42 31 -68.5t72 -26.5t72 26.5t31 68.5h35q-2 -59 -41 -95.5t-97 -36.5t-97 36.5z" />
    <glyph glyph-name="uni01CE" unicode="&#x1ce;" 
d="M154.5 20.5q-49.5 32.5 -77 90t-27.5 130.5q0 74 27.5 131.5t77 90t111.5 32.5q57 0 103 -27.5t70 -75.5l6 91h39v-483h-39l-6 92q-26 -50 -70.5 -77t-102.5 -27q-62 0 -111.5 32.5zM392 75.5q45 47.5 45 122.5v87q0 75 -45 122.5t-117 47.5q-51 0 -91 -27.5t-62.5 -76
t-22.5 -110.5q0 -61 22.5 -109.5t62.5 -76t91 -27.5q72 0 117 47.5zM132 686l23 24l115 -106l115 106l23 -24l-121 -119h-34z" />
    <glyph glyph-name="acircumflex" unicode="&#xe2;" 
d="M154.5 20.5q-49.5 32.5 -77 90t-27.5 130.5q0 74 27.5 131.5t77 90t111.5 32.5q57 0 103 -27.5t70 -75.5l6 91h39v-483h-39l-6 92q-26 -50 -70.5 -77t-102.5 -27q-62 0 -111.5 32.5zM392 75.5q45 47.5 45 122.5v87q0 75 -45 122.5t-117 47.5q-51 0 -91 -27.5t-62.5 -76
t-22.5 -110.5q0 -61 22.5 -109.5t62.5 -76t91 -27.5q72 0 117 47.5zM132 589l121 118h34l121 -118l-23 -25l-115 107l-115 -107z" />
    <glyph glyph-name="adieresis" unicode="&#xe4;" 
d="M154.5 20.5q-49.5 32.5 -77 90t-27.5 130.5q0 74 27.5 131.5t77 90t111.5 32.5q57 0 103 -27.5t70 -75.5l6 91h39v-483h-39l-6 92q-26 -50 -70.5 -77t-102.5 -27q-62 0 -111.5 32.5zM392 75.5q45 47.5 45 122.5v87q0 75 -45 122.5t-117 47.5q-51 0 -91 -27.5t-62.5 -76
t-22.5 -110.5q0 -61 22.5 -109.5t62.5 -76t91 -27.5q72 0 117 47.5zM144 611.5q-10 9.5 -10 25.5t10 25.5t26 9.5t25.5 -9.5t9.5 -25.5t-9.5 -25.5t-25.5 -9.5t-26 9.5zM344.5 611.5q-9.5 9.5 -9.5 25.5t9.5 25.5t25.5 9.5t26 -9.5t10 -25.5t-10 -25.5t-26 -9.5t-25.5 9.5z
" />
    <glyph glyph-name="agrave" unicode="&#xe0;" 
d="M154.5 20.5q-49.5 32.5 -77 90t-27.5 130.5q0 74 27.5 131.5t77 90t111.5 32.5q57 0 103 -27.5t70 -75.5l6 91h39v-483h-39l-6 92q-26 -50 -70.5 -77t-102.5 -27q-62 0 -111.5 32.5zM392 75.5q45 47.5 45 122.5v87q0 75 -45 122.5t-117 47.5q-51 0 -91 -27.5t-62.5 -76
t-22.5 -110.5q0 -61 22.5 -109.5t62.5 -76t91 -27.5q72 0 117 47.5zM141 668l24 33l159 -110l-19 -28z" />
    <glyph glyph-name="amacron" unicode="&#x101;" 
d="M154.5 20.5q-49.5 32.5 -77 90t-27.5 130.5q0 74 27.5 131.5t77 90t111.5 32.5q57 0 103 -27.5t70 -75.5l6 91h39v-483h-39l-6 92q-26 -50 -70.5 -77t-102.5 -27q-62 0 -111.5 32.5zM392 75.5q45 47.5 45 122.5v87q0 75 -45 122.5t-117 47.5q-51 0 -91 -27.5t-62.5 -76
t-22.5 -110.5q0 -61 22.5 -109.5t62.5 -76t91 -27.5q72 0 117 47.5zM128 655h284v-36h-284v36z" />
    <glyph glyph-name="aogonek" unicode="&#x105;" 
d="M372 -199q-24 21 -24 57q0 71 97 150l-6 84q-26 -50 -70.5 -77t-102.5 -27q-62 0 -111.5 32.5t-77 90t-27.5 130.5q0 74 27.5 131.5t77 90t111.5 32.5q57 0 103 -27.5t70 -75.5l6 91h39v-483q-98 -76 -98 -135q0 -24 15.5 -38t38.5 -14q25 0 45 10l8 -31q-30 -12 -61 -12
q-36 0 -60 21zM392 75.5q45 47.5 45 122.5v87q0 75 -45 122.5t-117 47.5q-51 0 -91 -27.5t-62.5 -76t-22.5 -110.5q0 -61 22.5 -109.5t62.5 -76t91 -27.5q72 0 117 47.5z" />
    <glyph glyph-name="aring" unicode="&#xe5;" 
d="M154.5 20.5q-49.5 32.5 -77 90t-27.5 130.5q0 74 27.5 131.5t77 90t111.5 32.5q57 0 103 -27.5t70 -75.5l6 91h39v-483h-39l-6 92q-26 -50 -70.5 -77t-102.5 -27q-62 0 -111.5 32.5zM392 75.5q45 47.5 45 122.5v87q0 75 -45 122.5t-117 47.5q-51 0 -91 -27.5t-62.5 -76
t-22.5 -110.5q0 -61 22.5 -109.5t62.5 -76t91 -27.5q72 0 117 47.5zM203 571q-27 26 -27 66q0 41 26.5 66.5t67.5 25.5t67.5 -25.5t26.5 -66.5t-25.5 -66.5t-66.5 -25.5q-42 0 -69 26zM317.5 590q17.5 18 17.5 47t-18 47t-47 18t-47 -18t-18 -47t19 -47t48 -18q28 0 45.5 18
z" />
    <glyph glyph-name="atilde" unicode="&#xe3;" 
d="M154.5 20.5q-49.5 32.5 -77 90t-27.5 130.5q0 74 27.5 131.5t77 90t111.5 32.5q57 0 103 -27.5t70 -75.5l6 91h39v-483h-39l-6 92q-26 -50 -70.5 -77t-102.5 -27q-62 0 -111.5 32.5zM392 75.5q45 47.5 45 122.5v87q0 75 -45 122.5t-117 47.5q-51 0 -91 -27.5t-62.5 -76
t-22.5 -110.5q0 -61 22.5 -109.5t62.5 -76t91 -27.5q72 0 117 47.5zM130 610q8 29 28.5 47t47.5 18q15 0 30 -5t40 -16q15 -7 29.5 -12.5t25.5 -5.5q16 0 27.5 10t17.5 29l34 -11q-8 -29 -28.5 -46.5t-47.5 -17.5q-15 0 -30 5t-40 16q-38 17 -55 17q-16 0 -28 -10t-17 -28z
" />
    <glyph glyph-name="ae" unicode="&#xe6;" horiz-adv-x="865" 
d="M132 6.5q-38 18.5 -60 50.5t-22 71q0 75 58 117t161 42q60 0 117 -14v64q0 53 -36 86t-94 33q-79 0 -162 -35l-13 36q91 38 179 38q65 0 109.5 -31.5t52.5 -83.5q25 54 74.5 84.5t115.5 30.5q61 0 109 -31t74.5 -86.5t26.5 -126.5q0 -14 -1 -20h-388q2 -60 28 -106.5
t70.5 -72.5t100.5 -26q71 0 149 42l17 -35q-86 -45 -170 -45q-73 0 -130 37.5t-86 103.5q-17 -65 -69.5 -103t-125.5 -38q-47 0 -85 18.5zM775 264q-2 86 -47 139t-116 53q-76 0 -125 -53t-54 -139h342zM341 71.5q45 46.5 45 120.5v48q-60 15 -113 15q-83 0 -129 -33
t-46 -91q0 -45 36.5 -75.5t89.5 -30.5q72 0 117 46.5z" />
    <glyph glyph-name="aeacute" unicode="&#x1fd;" horiz-adv-x="865" 
d="M132 6.5q-38 18.5 -60 50.5t-22 71q0 75 58 117t161 42q60 0 117 -14v64q0 53 -36 86t-94 33q-79 0 -162 -35l-13 36q91 38 179 38q65 0 109.5 -31.5t52.5 -83.5q25 54 74.5 84.5t115.5 30.5q61 0 109 -31t74.5 -86.5t26.5 -126.5q0 -14 -1 -20h-388q2 -60 28 -106.5
t70.5 -72.5t100.5 -26q71 0 149 42l17 -35q-86 -45 -170 -45q-73 0 -130 37.5t-86 103.5q-17 -65 -69.5 -103t-125.5 -38q-47 0 -85 18.5zM775 264q-2 86 -47 139t-116 53q-76 0 -125 -53t-54 -139h342zM341 71.5q45 46.5 45 120.5v48q-60 15 -113 15q-83 0 -129 -33
t-46 -91q0 -45 36.5 -75.5t89.5 -30.5q72 0 117 46.5zM380 591l160 110l24 -33l-164 -105z" />
    <glyph glyph-name="b" unicode="b" 
d="M203 15q-45 27 -71 77l-6 -92h-39v704h48v-311q26 49 70 75.5t101 26.5q62 0 111 -32.5t76.5 -90.5t27.5 -131t-27.5 -130.5t-76.5 -90t-111 -32.5q-58 0 -103 27zM387.5 55.5q40.5 27.5 63 76t22.5 109.5q0 62 -22.5 110.5t-63 76t-91.5 27.5q-47 0 -84 -22t-57.5 -60.5
t-20.5 -87.5v-87q0 -49 20.5 -87.5t57.5 -60.5t84 -22q51 0 91.5 27.5z" />
    <glyph glyph-name="c" unicode="c" horiz-adv-x="486" 
d="M163 20.5q-53 32.5 -83 90t-30 130.5q0 74 30 131.5t83 90t121 32.5q86 0 162 -54l-21 -34q-65 47 -136 47q-55 0 -98 -27t-67.5 -75.5t-24.5 -110.5t24.5 -110t67.5 -75t98 -27q71 0 136 47l21 -35q-77 -53 -162 -53q-68 0 -121 32.5z" />
    <glyph glyph-name="cacute" unicode="&#x107;" horiz-adv-x="486" 
d="M163 20.5q-53 32.5 -83 90t-30 130.5q0 74 30 131.5t83 90t121 32.5q86 0 162 -54l-21 -34q-65 47 -136 47q-55 0 -98 -27t-67.5 -75.5t-24.5 -110.5t24.5 -110t67.5 -75t98 -27q71 0 136 47l21 -35q-77 -53 -162 -53q-68 0 -121 32.5zM223 591l160 110l24 -33l-164 -105
z" />
    <glyph glyph-name="ccaron" unicode="&#x10d;" horiz-adv-x="486" 
d="M163 20.5q-53 32.5 -83 90t-30 130.5q0 74 30 131.5t83 90t121 32.5q86 0 162 -54l-21 -34q-65 47 -136 47q-55 0 -98 -27t-67.5 -75.5t-24.5 -110.5t24.5 -110t67.5 -75t98 -27q71 0 136 47l21 -35q-77 -53 -162 -53q-68 0 -121 32.5zM137 686l23 24l115 -106l115 106
l23 -24l-121 -119h-34z" />
    <glyph glyph-name="ccedilla" unicode="&#xe7;" horiz-adv-x="486" 
d="M299 -12l-9 -52q32 -3 53.5 -25t21.5 -52q0 -35 -28.5 -57t-72.5 -22t-86 16l11 31q39 -14 71 -14q28 0 46.5 13.5t18.5 36.5q0 22 -19 35.5t-48 13.5h-9l14 77q-62 5 -110.5 38.5t-75.5 89t-27 124.5q0 74 30 131.5t83 90t121 32.5q86 0 162 -54l-21 -34q-65 47 -136 47
q-55 0 -98 -27t-67.5 -75.5t-24.5 -110.5t24.5 -110t67.5 -75t98 -27q71 0 136 47l21 -35q-70 -48 -147 -53z" />
    <glyph glyph-name="ccircumflex" unicode="&#x109;" horiz-adv-x="486" 
d="M163 20.5q-53 32.5 -83 90t-30 130.5q0 74 30 131.5t83 90t121 32.5q86 0 162 -54l-21 -34q-65 47 -136 47q-55 0 -98 -27t-67.5 -75.5t-24.5 -110.5t24.5 -110t67.5 -75t98 -27q71 0 136 47l21 -35q-77 -53 -162 -53q-68 0 -121 32.5zM137 589l121 118h34l121 -118
l-23 -25l-115 107l-115 -107z" />
    <glyph glyph-name="cdotaccent" unicode="&#x10b;" horiz-adv-x="486" 
d="M163 20.5q-53 32.5 -83 90t-30 130.5q0 74 30 131.5t83 90t121 32.5q86 0 162 -54l-21 -34q-65 47 -136 47q-55 0 -98 -27t-67.5 -75.5t-24.5 -110.5t24.5 -110t67.5 -75t98 -27q71 0 136 47l21 -35q-77 -53 -162 -53q-68 0 -121 32.5zM248 610.5q-10 10.5 -10 26.5
q0 17 10 27t27 10q16 0 26.5 -10t10.5 -27q0 -16 -10.5 -26.5t-26.5 -10.5q-17 0 -27 10.5z" />
    <glyph glyph-name="d" unicode="d" 
d="M154.5 20.5q-49.5 32.5 -77 90t-27.5 130.5q0 74 27.5 131.5t77 90t111.5 32.5q57 0 101 -26.5t69 -75.5v311h48v-704h-39l-6 92q-26 -50 -70.5 -77t-102.5 -27q-62 0 -111.5 32.5zM392 75.5q45 47.5 45 122.5v87q0 75 -45 122.5t-117 47.5q-51 0 -91 -27.5t-62.5 -76
t-22.5 -110.5q0 -61 22.5 -109.5t62.5 -76t91 -27.5q72 0 117 47.5z" />
    <glyph glyph-name="eth" unicode="&#xf0;" 
d="M159.5 20q-51.5 32 -80.5 89.5t-29 131.5q0 72 28.5 129t79 89t114.5 32q52 0 91.5 -17t73.5 -58q-43 127 -150 201l-131 -65l-15 29l112 55q-45 27 -96 46l13 34q71 -23 127 -58l119 58l14 -28l-102 -51q79 -59 126.5 -142.5t56.5 -181.5q2 -24 2 -35l-1 -25
q-2 -78 -32.5 -138t-83.5 -93.5t-120 -33.5q-65 0 -116.5 32zM374.5 54.5q42.5 28.5 66.5 80t24 117.5q0 58 -24 103.5t-66.5 71t-96.5 25.5q-52 0 -93.5 -27t-64.5 -75.5t-23 -110.5t23 -110.5t64.5 -75.5t93.5 -27q54 0 96.5 28.5z" />
    <glyph glyph-name="dcaron" unicode="&#x10f;" horiz-adv-x="644" 
d="M557 564l64 163l38 -14l-68 -161zM154.5 20.5q-49.5 32.5 -77 90t-27.5 130.5q0 74 27.5 131.5t77 90t111.5 32.5q57 0 101 -26.5t69 -75.5v311h48v-704h-39l-6 92q-26 -50 -70.5 -77t-102.5 -27q-62 0 -111.5 32.5zM392 75.5q45 47.5 45 122.5v87q0 75 -45 122.5
t-117 47.5q-51 0 -91 -27.5t-62.5 -76t-22.5 -110.5q0 -61 22.5 -109.5t62.5 -76t91 -27.5q72 0 117 47.5z" />
    <glyph glyph-name="dcroat" unicode="&#x111;" 
d="M154.5 20.5q-49.5 32.5 -77 90t-27.5 130.5q0 74 27.5 131.5t77 90t111.5 32.5q57 0 101 -26.5t69 -75.5v187h-183v37h183v87h48v-87h74v-37h-74v-580h-39l-6 92q-26 -50 -70.5 -77t-102.5 -27q-62 0 -111.5 32.5zM392 75.5q45 47.5 45 122.5v87q0 75 -45 122.5
t-117 47.5q-51 0 -91 -27.5t-62.5 -76t-22.5 -110.5q0 -61 22.5 -109.5t62.5 -76t91 -27.5q72 0 117 47.5z" />
    <glyph glyph-name="e" unicode="e" horiz-adv-x="529" 
d="M167 20.5q-55 32.5 -86 90t-31 130.5q0 74 28.5 131.5t80 90t117.5 32.5q61 0 109 -31t74.5 -86.5t26.5 -126.5v-20h-388q2 -60 28 -106.5t70.5 -72.5t100.5 -26q70 0 149 42l16 -35q-86 -45 -170 -45q-70 0 -125 32.5zM440 264q-2 86 -47 139t-117 53q-75 0 -124 -53
t-54 -139h342z" />
    <glyph glyph-name="eacute" unicode="&#xe9;" horiz-adv-x="529" 
d="M167 20.5q-55 32.5 -86 90t-31 130.5q0 74 28.5 131.5t80 90t117.5 32.5q61 0 109 -31t74.5 -86.5t26.5 -126.5v-20h-388q2 -60 28 -106.5t70.5 -72.5t100.5 -26q70 0 149 42l16 -35q-86 -45 -170 -45q-70 0 -125 32.5zM440 264q-2 86 -47 139t-117 53q-75 0 -124 -53
t-54 -139h342zM224 591l160 110l24 -33l-164 -105z" />
    <glyph glyph-name="ebreve" unicode="&#x115;" horiz-adv-x="529" 
d="M167 20.5q-55 32.5 -86 90t-31 130.5q0 74 28.5 131.5t80 90t117.5 32.5q61 0 109 -31t74.5 -86.5t26.5 -126.5v-20h-388q2 -60 28 -106.5t70.5 -72.5t100.5 -26q70 0 149 42l16 -35q-86 -45 -170 -45q-70 0 -125 32.5zM440 264q-2 86 -47 139t-117 53q-75 0 -124 -53
t-54 -139h342zM179 595.5q-39 36.5 -41 95.5h35q2 -42 31 -68.5t72 -26.5t72 26.5t31 68.5h35q-2 -59 -41 -95.5t-97 -36.5t-97 36.5z" />
    <glyph glyph-name="ecaron" unicode="&#x11b;" horiz-adv-x="529" 
d="M167 20.5q-55 32.5 -86 90t-31 130.5q0 74 28.5 131.5t80 90t117.5 32.5q61 0 109 -31t74.5 -86.5t26.5 -126.5v-20h-388q2 -60 28 -106.5t70.5 -72.5t100.5 -26q70 0 149 42l16 -35q-86 -45 -170 -45q-70 0 -125 32.5zM440 264q-2 86 -47 139t-117 53q-75 0 -124 -53
t-54 -139h342zM138 686l23 24l115 -106l115 106l23 -24l-121 -119h-34z" />
    <glyph glyph-name="ecircumflex" unicode="&#xea;" horiz-adv-x="529" 
d="M167 20.5q-55 32.5 -86 90t-31 130.5q0 74 28.5 131.5t80 90t117.5 32.5q61 0 109 -31t74.5 -86.5t26.5 -126.5v-20h-388q2 -60 28 -106.5t70.5 -72.5t100.5 -26q70 0 149 42l16 -35q-86 -45 -170 -45q-70 0 -125 32.5zM440 264q-2 86 -47 139t-117 53q-75 0 -124 -53
t-54 -139h342zM138 589l121 118h34l121 -118l-23 -25l-115 107l-115 -107z" />
    <glyph glyph-name="edieresis" unicode="&#xeb;" horiz-adv-x="529" 
d="M167 20.5q-55 32.5 -86 90t-31 130.5q0 74 28.5 131.5t80 90t117.5 32.5q61 0 109 -31t74.5 -86.5t26.5 -126.5v-20h-388q2 -60 28 -106.5t70.5 -72.5t100.5 -26q70 0 149 42l16 -35q-86 -45 -170 -45q-70 0 -125 32.5zM440 264q-2 86 -47 139t-117 53q-75 0 -124 -53
t-54 -139h342zM150 611.5q-10 9.5 -10 25.5t10 25.5t26 9.5t25.5 -9.5t9.5 -25.5t-9.5 -25.5t-25.5 -9.5t-26 9.5zM350.5 611.5q-9.5 9.5 -9.5 25.5t9.5 25.5t25.5 9.5t26 -9.5t10 -25.5t-10 -25.5t-26 -9.5t-25.5 9.5z" />
    <glyph glyph-name="edotaccent" unicode="&#x117;" horiz-adv-x="529" 
d="M167 20.5q-55 32.5 -86 90t-31 130.5q0 74 28.5 131.5t80 90t117.5 32.5q61 0 109 -31t74.5 -86.5t26.5 -126.5v-20h-388q2 -60 28 -106.5t70.5 -72.5t100.5 -26q70 0 149 42l16 -35q-86 -45 -170 -45q-70 0 -125 32.5zM440 264q-2 86 -47 139t-117 53q-75 0 -124 -53
t-54 -139h342zM249 610.5q-10 10.5 -10 26.5q0 17 10 27t27 10q16 0 26.5 -10t10.5 -27q0 -16 -10.5 -26.5t-26.5 -10.5q-17 0 -27 10.5z" />
    <glyph glyph-name="egrave" unicode="&#xe8;" horiz-adv-x="529" 
d="M167 20.5q-55 32.5 -86 90t-31 130.5q0 74 28.5 131.5t80 90t117.5 32.5q61 0 109 -31t74.5 -86.5t26.5 -126.5v-20h-388q2 -60 28 -106.5t70.5 -72.5t100.5 -26q70 0 149 42l16 -35q-86 -45 -170 -45q-70 0 -125 32.5zM440 264q-2 86 -47 139t-117 53q-75 0 -124 -53
t-54 -139h342zM147 668l24 33l159 -110l-19 -28z" />
    <glyph glyph-name="emacron" unicode="&#x113;" horiz-adv-x="529" 
d="M167 20.5q-55 32.5 -86 90t-31 130.5q0 74 28.5 131.5t80 90t117.5 32.5q61 0 109 -31t74.5 -86.5t26.5 -126.5v-20h-388q2 -60 28 -106.5t70.5 -72.5t100.5 -26q70 0 149 42l16 -35q-86 -45 -170 -45q-70 0 -125 32.5zM440 264q-2 86 -47 139t-117 53q-75 0 -124 -53
t-54 -139h342zM134 655h284v-36h-284v36z" />
    <glyph glyph-name="eogonek" unicode="&#x119;" horiz-adv-x="529" 
d="M342 -197q-25 23 -25 62q0 70 78 140q-57 -17 -103 -17q-70 0 -125 32.5t-86 90t-31 130.5q0 74 28.5 131.5t80 90t117.5 32.5q61 0 109 -31t74.5 -86.5t26.5 -126.5v-20h-388q2 -60 28 -106.5t70.5 -72.5t100.5 -26q70 0 149 42l16 -35q-106 -89 -106 -160q0 -28 16 -44
t39 -16q22 0 42 10l9 -31q-31 -12 -59 -12q-36 0 -61 23zM440 264q-2 86 -47 139t-117 53q-75 0 -124 -53t-54 -139h342z" />
    <glyph glyph-name="f" unicode="f" horiz-adv-x="361" 
d="M135 444h-106v39h106v102q0 58 37.5 94.5t99.5 36.5q42 0 85 -13l-8 -39q-36 11 -68 11q-46 0 -72 -25t-26 -68v-99h149v-39h-149v-444h-48v444z" />
    <glyph glyph-name="g" unicode="g" 
d="M81 -179l15 38q90 -39 161 -39q52 0 92.5 20t63.5 56t23 82v112q-25 -49 -69 -75.5t-101 -26.5q-62 0 -111.5 32.5t-77 90t-27.5 130.5q0 74 27.5 131.5t77 90t111.5 32.5q58 0 102.5 -27.5t70.5 -77.5l6 93h39v-503q0 -58 -28.5 -103.5t-79.5 -71t-116 -25.5
q-84 0 -179 41zM392 75.5q45 47.5 45 122.5v87q0 75 -45 122.5t-117 47.5q-51 0 -91 -27.5t-62.5 -76t-22.5 -110.5q0 -61 22.5 -109.5t62.5 -76t91 -27.5q72 0 117 47.5z" />
    <glyph glyph-name="gbreve" unicode="&#x11f;" 
d="M81 -179l15 38q90 -39 161 -39q52 0 92.5 20t63.5 56t23 82v112q-25 -49 -69 -75.5t-101 -26.5q-62 0 -111.5 32.5t-77 90t-27.5 130.5q0 74 27.5 131.5t77 90t111.5 32.5q58 0 102.5 -27.5t70.5 -77.5l6 93h39v-503q0 -58 -28.5 -103.5t-79.5 -71t-116 -25.5
q-84 0 -179 41zM392 75.5q45 47.5 45 122.5v87q0 75 -45 122.5t-117 47.5q-51 0 -91 -27.5t-62.5 -76t-22.5 -110.5q0 -61 22.5 -109.5t62.5 -76t91 -27.5q72 0 117 47.5zM184 595.5q-39 36.5 -41 95.5h35q2 -42 31 -68.5t72 -26.5t72 26.5t31 68.5h35q-2 -59 -41 -95.5
t-97 -36.5t-97 36.5z" />
    <glyph glyph-name="gcircumflex" unicode="&#x11d;" 
d="M81 -179l15 38q90 -39 161 -39q52 0 92.5 20t63.5 56t23 82v112q-25 -49 -69 -75.5t-101 -26.5q-62 0 -111.5 32.5t-77 90t-27.5 130.5q0 74 27.5 131.5t77 90t111.5 32.5q58 0 102.5 -27.5t70.5 -77.5l6 93h39v-503q0 -58 -28.5 -103.5t-79.5 -71t-116 -25.5
q-84 0 -179 41zM392 75.5q45 47.5 45 122.5v87q0 75 -45 122.5t-117 47.5q-51 0 -91 -27.5t-62.5 -76t-22.5 -110.5q0 -61 22.5 -109.5t62.5 -76t91 -27.5q72 0 117 47.5zM143 589l121 118h34l121 -118l-23 -25l-115 107l-115 -107z" />
    <glyph glyph-name="gcommaaccent" unicode="&#x123;" 
d="M257 567.5q-11 14.5 -11 39.5q0 44 22 81.5t63 63.5l15 -21q-62 -48 -62 -110q15 2 26 -8t11 -25q0 -16 -9.5 -25.5t-25.5 -9.5q-18 0 -29 14.5zM81 -179l15 38q90 -39 161 -39q52 0 92.5 20t63.5 56t23 82v112q-25 -49 -69 -75.5t-101 -26.5q-62 0 -111.5 32.5t-77 90
t-27.5 130.5q0 74 27.5 131.5t77 90t111.5 32.5q58 0 102.5 -27.5t70.5 -77.5l6 93h39v-503q0 -58 -28.5 -103.5t-79.5 -71t-116 -25.5q-84 0 -179 41zM392 75.5q45 47.5 45 122.5v87q0 75 -45 122.5t-117 47.5q-51 0 -91 -27.5t-62.5 -76t-22.5 -110.5q0 -61 22.5 -109.5
t62.5 -76t91 -27.5q72 0 117 47.5z" />
    <glyph glyph-name="gdotaccent" unicode="&#x121;" 
d="M81 -179l15 38q90 -39 161 -39q52 0 92.5 20t63.5 56t23 82v112q-25 -49 -69 -75.5t-101 -26.5q-62 0 -111.5 32.5t-77 90t-27.5 130.5q0 74 27.5 131.5t77 90t111.5 32.5q58 0 102.5 -27.5t70.5 -77.5l6 93h39v-503q0 -58 -28.5 -103.5t-79.5 -71t-116 -25.5
q-84 0 -179 41zM392 75.5q45 47.5 45 122.5v87q0 75 -45 122.5t-117 47.5q-51 0 -91 -27.5t-62.5 -76t-22.5 -110.5q0 -61 22.5 -109.5t62.5 -76t91 -27.5q72 0 117 47.5zM254 610.5q-10 10.5 -10 26.5q0 17 10 27t27 10q16 0 26.5 -10t10.5 -27q0 -16 -10.5 -26.5
t-26.5 -10.5q-17 0 -27 10.5z" />
    <glyph glyph-name="h" unicode="h" 
d="M87 704h48v-319q24 52 71 81t106 29q52 0 93 -22.5t64 -62.5t23 -91v-319h-48v313q0 62 -40.5 101.5t-102.5 39.5q-47 0 -85 -22.5t-59.5 -62.5t-21.5 -92v-277h-48v704z" />
    <glyph glyph-name="hbar" unicode="&#x127;" 
d="M87 580h-74v37h74v87h48v-87h183v-37h-183v-195q24 52 71 81t106 29q52 0 93 -22.5t64 -62.5t23 -91v-319h-48v313q0 62 -40.5 101.5t-102.5 39.5q-47 0 -85 -22.5t-59.5 -62.5t-21.5 -92v-277h-48v580z" />
    <glyph glyph-name="hcircumflex" unicode="&#x125;" 
d="M87 704h48v-319q24 52 71 81t106 29q52 0 93 -22.5t64 -62.5t23 -91v-319h-48v313q0 62 -40.5 101.5t-102.5 39.5q-47 0 -85 -22.5t-59.5 -62.5t-21.5 -92v-277h-48v704zM-27 760l121 118h34l121 -118l-23 -25l-115 107l-115 -107z" />
    <glyph glyph-name="i" unicode="i" horiz-adv-x="222" 
d="M84.5 610.5q-10.5 10.5 -10.5 26.5q0 17 10.5 27.5t26.5 10.5q17 0 27.5 -10.5t10.5 -27.5q0 -16 -10.5 -26.5t-27.5 -10.5q-16 0 -26.5 10.5zM87 483h48v-483h-48v483z" />
    <glyph glyph-name="dotlessi" unicode="&#x131;" horiz-adv-x="222" 
d="M87 483h48v-483h-48v483z" />
    <glyph glyph-name="iacute" unicode="&#xed;" horiz-adv-x="222" 
d="M87 483h48v-483h-48v483zM59 591l160 110l24 -33l-164 -105z" />
    <glyph glyph-name="ibreve" unicode="&#x12d;" horiz-adv-x="222" 
d="M87 483h48v-483h-48v483zM14 595.5q-39 36.5 -41 95.5h35q2 -42 31 -68.5t72 -26.5t72 26.5t31 68.5h35q-2 -59 -41 -95.5t-97 -36.5t-97 36.5z" />
    <glyph glyph-name="icircumflex" unicode="&#xee;" horiz-adv-x="222" 
d="M87 483h48v-483h-48v483zM-27 589l121 118h34l121 -118l-23 -25l-115 107l-115 -107z" />
    <glyph glyph-name="idieresis" unicode="&#xef;" horiz-adv-x="222" 
d="M87 483h48v-483h-48v483zM-15 611.5q-10 9.5 -10 25.5t10 25.5t26 9.5t25.5 -9.5t9.5 -25.5t-9.5 -25.5t-25.5 -9.5t-26 9.5zM185.5 611.5q-9.5 9.5 -9.5 25.5t9.5 25.5t25.5 9.5t26 -9.5t10 -25.5t-10 -25.5t-26 -9.5t-25.5 9.5z" />
    <glyph glyph-name="i.loclTRK" horiz-adv-x="222" 
d="M87 483h48v-483h-48v483zM84 610.5q-10 10.5 -10 26.5q0 17 10 27t27 10q16 0 26.5 -10t10.5 -27q0 -16 -10.5 -26.5t-26.5 -10.5q-17 0 -27 10.5z" />
    <glyph glyph-name="igrave" unicode="&#xec;" horiz-adv-x="222" 
d="M87 483h48v-483h-48v483zM-18 668l24 33l159 -110l-19 -28z" />
    <glyph glyph-name="ij" unicode="&#x133;" horiz-adv-x="452" 
d="M84.5 610.5q-10.5 10.5 -10.5 26.5q0 17 10.5 27.5t26.5 10.5q17 0 27.5 -10.5t10.5 -27.5q0 -16 -10.5 -26.5t-27.5 -10.5q-16 0 -26.5 10.5zM87 483h48v-483h-48v483zM314.5 610.5q-10.5 10.5 -10.5 26.5q0 17 10.5 27.5t26.5 10.5q17 0 27.5 -10.5t10.5 -27.5
q0 -16 -10.5 -26.5t-27.5 -10.5q-16 0 -26.5 10.5zM143 -207l8 39q36 -11 72 -11q42 0 68 26t26 67v569h48v-572q0 -58 -37 -94.5t-96 -36.5q-44 0 -89 13z" />
    <glyph glyph-name="imacron" unicode="&#x12b;" horiz-adv-x="222" 
d="M87 483h48v-483h-48v483zM-31 655h284v-36h-284v36z" />
    <glyph glyph-name="iogonek" unicode="&#x12f;" horiz-adv-x="222" 
d="M84.5 610.5q-10.5 10.5 -10.5 26.5q0 17 10.5 27.5t26.5 10.5q17 0 27.5 -10.5t10.5 -27.5q0 -16 -10.5 -26.5t-27.5 -10.5q-16 0 -26.5 10.5zM23 -199q-24 21 -24 57q0 68 88 142v483h48v-483q-98 -76 -98 -135q0 -24 15.5 -38t38.5 -14q25 0 45 10l8 -31
q-30 -12 -61 -12q-36 0 -60 21z" />
    <glyph glyph-name="itilde" unicode="&#x129;" horiz-adv-x="222" 
d="M87 483h48v-483h-48v483zM-29 610q8 29 28.5 47t47.5 18q15 0 30 -5t40 -16q15 -7 29.5 -12.5t25.5 -5.5q16 0 27.5 10t17.5 29l34 -11q-8 -29 -28.5 -46.5t-47.5 -17.5q-15 0 -30 5t-40 16q-38 17 -55 17q-16 0 -28 -10t-17 -28z" />
    <glyph glyph-name="j" unicode="j" horiz-adv-x="230" 
d="M92.5 610.5q-10.5 10.5 -10.5 26.5q0 17 10.5 27.5t26.5 10.5q17 0 27.5 -10.5t10.5 -27.5q0 -16 -10.5 -26.5t-27.5 -10.5q-16 0 -26.5 10.5zM-79 -207l8 39q36 -11 72 -11q42 0 68 26t26 67v569h48v-572q0 -58 -37 -94.5t-96 -36.5q-44 0 -89 13z" />
    <glyph glyph-name="uni0237" unicode="&#x237;" horiz-adv-x="230" 
d="M-79 -207l8 39q36 -11 72 -11q42 0 68 26t26 67v569h48v-572q0 -58 -37 -94.5t-96 -36.5q-44 0 -89 13z" />
    <glyph glyph-name="jacute" horiz-adv-x="230" 
d="M-79 -207l8 39q36 -11 72 -11q42 0 68 26t26 67v569h48v-572q0 -58 -37 -94.5t-96 -36.5q-44 0 -89 13zM67 591l160 110l24 -33l-164 -105z" />
    <glyph glyph-name="jcircumflex" unicode="&#x135;" horiz-adv-x="230" 
d="M-79 -207l8 39q36 -11 72 -11q42 0 68 26t26 67v569h48v-572q0 -58 -37 -94.5t-96 -36.5q-44 0 -89 13zM-19 589l121 118h34l121 -118l-23 -25l-115 107l-115 -107z" />
    <glyph glyph-name="k" unicode="k" horiz-adv-x="494" 
d="M87 704h47v-482l260 261h58l-225 -226l233 -257h-58l-207 228l-61 -61v-167h-47v704z" />
    <glyph glyph-name="kcommaaccent" unicode="&#x137;" horiz-adv-x="494" 
d="M87 704h47v-482l260 261h58l-225 -226l233 -257h-58l-207 228l-61 -61v-167h-47v704zM187 -248q62 48 62 110q-15 -2 -26 7.5t-11 25.5t9.5 25.5t25.5 9.5q18 0 29 -14.5t11 -39.5q0 -44 -22 -81.5t-63 -63.5z" />
    <glyph glyph-name="kgreenlandic" unicode="&#x138;" horiz-adv-x="494" 
d="M87 483h47v-261l260 261h58l-225 -226l233 -257h-58l-207 228l-61 -61v-167h-47v483z" />
    <glyph glyph-name="l" unicode="l" horiz-adv-x="270" 
d="M115.5 15.5q-28.5 27.5 -28.5 74.5v614h48v-610q0 -30 18 -47.5t48 -17.5q24 0 49 7l7 -39q-36 -9 -65 -9q-48 0 -76.5 27.5z" />
    <glyph glyph-name="lacute" unicode="&#x13a;" horiz-adv-x="270" 
d="M115.5 15.5q-28.5 27.5 -28.5 74.5v614h48v-610q0 -30 18 -47.5t48 -17.5q24 0 49 7l7 -39q-36 -9 -65 -9q-48 0 -76.5 27.5zM59 812l160 110l24 -33l-164 -105z" />
    <glyph glyph-name="lcaron" unicode="&#x13e;" horiz-adv-x="268" 
d="M216 564l64 163l38 -14l-68 -161zM115.5 15.5q-28.5 27.5 -28.5 74.5v614h48v-610q0 -30 18 -47.5t48 -17.5q24 0 49 7l7 -39q-36 -9 -65 -9q-48 0 -76.5 27.5z" />
    <glyph glyph-name="lcommaaccent" unicode="&#x13c;" horiz-adv-x="270" 
d="M115.5 15.5q-28.5 27.5 -28.5 74.5v614h48v-610q0 -30 18 -47.5t48 -17.5q24 0 49 7l7 -39q-36 -9 -65 -9q-48 0 -76.5 27.5zM104 -248q62 48 62 110q-15 -2 -26 7.5t-11 25.5t9.5 25.5t25.5 9.5q18 0 29 -14.5t11 -39.5q0 -44 -22 -81.5t-63 -63.5z" />
    <glyph glyph-name="ldot" unicode="&#x140;" horiz-adv-x="317" 
d="M115.5 15.5q-28.5 27.5 -28.5 74.5v614h48v-610q0 -30 18 -47.5t48 -17.5q24 0 49 7l7 -39q-36 -9 -65 -9q-48 0 -76.5 27.5zM243.5 317.5q-10.5 10.5 -10.5 26.5q0 17 10.5 27t26.5 10q17 0 27 -10t10 -27q0 -16 -10 -26.5t-27 -10.5q-16 0 -26.5 10.5z" />
    <glyph glyph-name="lslash" unicode="&#x142;" horiz-adv-x="302" 
d="M123.5 15.5q-28.5 27.5 -28.5 74.5v234l-95 -48l-17 32l112 56v340h48v-316l111 56l18 -32l-129 -64v-254q0 -30 18 -47.5t48 -17.5q24 0 49 7l7 -39q-36 -9 -65 -9q-48 0 -76.5 27.5z" />
    <glyph glyph-name="m" unicode="m" horiz-adv-x="897" 
d="M87 483h39l6 -97q23 52 68.5 80.5t103.5 28.5q59 0 103 -32t60 -85q24 55 71 86t107 31q50 0 89 -21.5t61 -60t22 -86.5v-327h-47v321q0 58 -38.5 95.5t-97.5 37.5q-45 0 -81 -21.5t-56.5 -60t-20.5 -87.5v-285h-48v321q0 58 -38 95.5t-97 37.5q-45 0 -81 -21.5
t-56.5 -60t-20.5 -87.5v-285h-48v483z" />
    <glyph glyph-name="n" unicode="n" 
d="M87 483h39l6 -101q24 53 72 83t108 30q52 0 93 -22.5t64 -62.5t23 -91v-319h-48v313q0 62 -40.5 101.5t-102.5 39.5q-47 0 -85 -22.5t-59.5 -62.5t-21.5 -92v-277h-48v483z" />
    <glyph glyph-name="nacute" unicode="&#x144;" 
d="M87 483h39l6 -101q24 53 72 83t108 30q52 0 93 -22.5t64 -62.5t23 -91v-319h-48v313q0 62 -40.5 101.5t-102.5 39.5q-47 0 -85 -22.5t-59.5 -62.5t-21.5 -92v-277h-48v483zM248 591l160 110l24 -33l-164 -105z" />
    <glyph glyph-name="ncaron" unicode="&#x148;" 
d="M87 483h39l6 -101q24 53 72 83t108 30q52 0 93 -22.5t64 -62.5t23 -91v-319h-48v313q0 62 -40.5 101.5t-102.5 39.5q-47 0 -85 -22.5t-59.5 -62.5t-21.5 -92v-277h-48v483zM162 686l23 24l115 -106l115 106l23 -24l-121 -119h-34z" />
    <glyph glyph-name="ncommaaccent" unicode="&#x146;" 
d="M87 483h39l6 -101q24 53 72 83t108 30q52 0 93 -22.5t64 -62.5t23 -91v-319h-48v313q0 62 -40.5 101.5t-102.5 39.5q-47 0 -85 -22.5t-59.5 -62.5t-21.5 -92v-277h-48v483zM230 -248q62 48 62 110q-15 -2 -26 7.5t-11 25.5t9.5 25.5t25.5 9.5q18 0 29 -14.5t11 -39.5
q0 -44 -22 -81.5t-63 -63.5z" />
    <glyph glyph-name="eng" unicode="&#x14b;" 
d="M271 -207l7 39q36 -11 73 -11q41 0 67 26t26 67v395q0 64 -40 104.5t-103 40.5q-48 0 -86 -22t-59 -61.5t-21 -89.5v-281h-48v483h39l6 -101q24 53 71.5 83t108.5 30q52 0 93 -23t64 -64t23 -93v-404q0 -58 -37 -94.5t-96 -36.5q-45 0 -88 13z" />
    <glyph glyph-name="ntilde" unicode="&#xf1;" 
d="M87 483h39l6 -101q24 53 72 83t108 30q52 0 93 -22.5t64 -62.5t23 -91v-319h-48v313q0 62 -40.5 101.5t-102.5 39.5q-47 0 -85 -22.5t-59.5 -62.5t-21.5 -92v-277h-48v483zM160 610q8 29 28.5 47t47.5 18q15 0 30 -5t40 -16q15 -7 29.5 -12.5t25.5 -5.5q16 0 27.5 10
t17.5 29l34 -11q-8 -29 -28.5 -46.5t-47.5 -17.5q-15 0 -30 5t-40 16q-38 17 -55 17q-16 0 -28 -10t-17 -28z" />
    <glyph glyph-name="o" unicode="o" 
d="M164 20.5q-54 32.5 -84 90t-30 130.5q0 74 30 131.5t84 90t122 32.5t121.5 -32.5t83.5 -90t30 -131.5q0 -73 -30 -130.5t-83.5 -90t-121.5 -32.5t-122 32.5zM382.5 55q42.5 27 66.5 75.5t24 110.5t-24 111t-66.5 76t-96.5 27t-96.5 -27t-66.5 -76t-24 -111t24 -110.5
t66.5 -75.5t96.5 -27t96.5 27z" />
    <glyph glyph-name="oacute" unicode="&#xf3;" 
d="M164 20.5q-54 32.5 -84 90t-30 130.5q0 74 30 131.5t84 90t122 32.5t121.5 -32.5t83.5 -90t30 -131.5q0 -73 -30 -130.5t-83.5 -90t-121.5 -32.5t-122 32.5zM382.5 55q42.5 27 66.5 75.5t24 110.5t-24 111t-66.5 76t-96.5 27t-96.5 -27t-66.5 -76t-24 -111t24 -110.5
t66.5 -75.5t96.5 -27t96.5 27zM234 591l160 110l24 -33l-164 -105z" />
    <glyph glyph-name="obreve" unicode="&#x14f;" 
d="M164 20.5q-54 32.5 -84 90t-30 130.5q0 74 30 131.5t84 90t122 32.5t121.5 -32.5t83.5 -90t30 -131.5q0 -73 -30 -130.5t-83.5 -90t-121.5 -32.5t-122 32.5zM382.5 55q42.5 27 66.5 75.5t24 110.5t-24 111t-66.5 76t-96.5 27t-96.5 -27t-66.5 -76t-24 -111t24 -110.5
t66.5 -75.5t96.5 -27t96.5 27zM189 595.5q-39 36.5 -41 95.5h35q2 -42 31 -68.5t72 -26.5t72 26.5t31 68.5h35q-2 -59 -41 -95.5t-97 -36.5t-97 36.5z" />
    <glyph glyph-name="ocircumflex" unicode="&#xf4;" 
d="M164 20.5q-54 32.5 -84 90t-30 130.5q0 74 30 131.5t84 90t122 32.5t121.5 -32.5t83.5 -90t30 -131.5q0 -73 -30 -130.5t-83.5 -90t-121.5 -32.5t-122 32.5zM382.5 55q42.5 27 66.5 75.5t24 110.5t-24 111t-66.5 76t-96.5 27t-96.5 -27t-66.5 -76t-24 -111t24 -110.5
t66.5 -75.5t96.5 -27t96.5 27zM148 589l121 118h34l121 -118l-23 -25l-115 107l-115 -107z" />
    <glyph glyph-name="odieresis" unicode="&#xf6;" 
d="M164 20.5q-54 32.5 -84 90t-30 130.5q0 74 30 131.5t84 90t122 32.5t121.5 -32.5t83.5 -90t30 -131.5q0 -73 -30 -130.5t-83.5 -90t-121.5 -32.5t-122 32.5zM382.5 55q42.5 27 66.5 75.5t24 110.5t-24 111t-66.5 76t-96.5 27t-96.5 -27t-66.5 -76t-24 -111t24 -110.5
t66.5 -75.5t96.5 -27t96.5 27zM160 611.5q-10 9.5 -10 25.5t10 25.5t26 9.5t25.5 -9.5t9.5 -25.5t-9.5 -25.5t-25.5 -9.5t-26 9.5zM360.5 611.5q-9.5 9.5 -9.5 25.5t9.5 25.5t25.5 9.5t26 -9.5t10 -25.5t-10 -25.5t-26 -9.5t-25.5 9.5z" />
    <glyph glyph-name="ograve" unicode="&#xf2;" 
d="M164 20.5q-54 32.5 -84 90t-30 130.5q0 74 30 131.5t84 90t122 32.5t121.5 -32.5t83.5 -90t30 -131.5q0 -73 -30 -130.5t-83.5 -90t-121.5 -32.5t-122 32.5zM382.5 55q42.5 27 66.5 75.5t24 110.5t-24 111t-66.5 76t-96.5 27t-96.5 -27t-66.5 -76t-24 -111t24 -110.5
t66.5 -75.5t96.5 -27t96.5 27zM157 668l24 33l159 -110l-19 -28z" />
    <glyph glyph-name="ohungarumlaut" unicode="&#x151;" 
d="M164 20.5q-54 32.5 -84 90t-30 130.5q0 74 30 131.5t84 90t122 32.5t121.5 -32.5t83.5 -90t30 -131.5q0 -73 -30 -130.5t-83.5 -90t-121.5 -32.5t-122 32.5zM382.5 55q42.5 27 66.5 75.5t24 110.5t-24 111t-66.5 76t-96.5 27t-96.5 -27t-66.5 -76t-24 -111t24 -110.5
t66.5 -75.5t96.5 -27t96.5 27zM159 583l138 142l29 -29l-142 -138zM336 583l138 142l29 -29l-141 -138z" />
    <glyph glyph-name="omacron" unicode="&#x14d;" 
d="M164 20.5q-54 32.5 -84 90t-30 130.5q0 74 30 131.5t84 90t122 32.5t121.5 -32.5t83.5 -90t30 -131.5q0 -73 -30 -130.5t-83.5 -90t-121.5 -32.5t-122 32.5zM382.5 55q42.5 27 66.5 75.5t24 110.5t-24 111t-66.5 76t-96.5 27t-96.5 -27t-66.5 -76t-24 -111t24 -110.5
t66.5 -75.5t96.5 -27t96.5 27zM144 655h284v-36h-284v36z" />
    <glyph glyph-name="oslash" unicode="&#xf8;" 
d="M149 33l-28 -37h-39l42 54q-36 35 -55 83.5t-19 107.5q0 74 30 131.5t84 90t122 32.5q78 0 137 -45l28 37h39l-43 -56q35 -34 54.5 -83t19.5 -107q0 -73 -30 -130.5t-83.5 -90t-121.5 -32.5q-81 0 -137 45zM398 417q-47 39 -112 39q-55 0 -98.5 -27t-67.5 -76t-24 -112
q0 -95 55 -155zM384 53.5q43 27.5 67.5 76.5t24.5 111q0 47 -14.5 87t-40.5 68l-248 -330q48 -40 113 -40q55 0 98 27.5z" />
    <glyph glyph-name="oslashacute" unicode="&#x1ff;" 
d="M149 33l-28 -37h-39l42 54q-36 35 -55 83.5t-19 107.5q0 74 30 131.5t84 90t122 32.5q78 0 137 -45l28 37h39l-43 -56q35 -34 54.5 -83t19.5 -107q0 -73 -30 -130.5t-83.5 -90t-121.5 -32.5q-81 0 -137 45zM398 417q-47 39 -112 39q-55 0 -98.5 -27t-67.5 -76t-24 -112
q0 -95 55 -155zM384 53.5q43 27.5 67.5 76.5t24.5 111q0 47 -14.5 87t-40.5 68l-248 -330q48 -40 113 -40q55 0 98 27.5zM234 591l160 110l24 -33l-164 -105z" />
    <glyph glyph-name="otilde" unicode="&#xf5;" 
d="M164 20.5q-54 32.5 -84 90t-30 130.5q0 74 30 131.5t84 90t122 32.5t121.5 -32.5t83.5 -90t30 -131.5q0 -73 -30 -130.5t-83.5 -90t-121.5 -32.5t-122 32.5zM382.5 55q42.5 27 66.5 75.5t24 110.5t-24 111t-66.5 76t-96.5 27t-96.5 -27t-66.5 -76t-24 -111t24 -110.5
t66.5 -75.5t96.5 -27t96.5 27zM146 610q8 29 28.5 47t47.5 18q15 0 30 -5t40 -16q15 -7 29.5 -12.5t25.5 -5.5q16 0 27.5 10t17.5 29l34 -11q-8 -29 -28.5 -46.5t-47.5 -17.5q-15 0 -30 5t-40 16q-38 17 -55 17q-16 0 -28 -10t-17 -28z" />
    <glyph glyph-name="oe" unicode="&#x153;" horiz-adv-x="952" 
d="M164 20.5q-54 32.5 -84 90t-30 130.5q0 74 30 131.5t84 90t122 32.5q75 0 132 -42.5t79 -114.5q22 72 76 114.5t127 42.5q61 0 109 -31t74.5 -86.5t26.5 -126.5q0 -14 -1 -20h-388q2 -60 28 -106.5t70.5 -72.5t100.5 -26q72 0 148 42l18 -35q-87 -45 -170 -45
q-78 0 -137 42.5t-82 115.5q-22 -72 -78.5 -115t-132.5 -43q-68 0 -122 32.5zM863 264q-2 86 -47 139t-116 53q-75 0 -124 -53t-55 -139h342zM382.5 55q42.5 27 66.5 75.5t24 110.5t-24 111t-66.5 76t-96.5 27t-96.5 -27t-66.5 -76t-24 -111t24 -110.5t66.5 -75.5t96.5 -27
t96.5 27z" />
    <glyph glyph-name="p" unicode="p" 
d="M87 483h39l6 -93q26 50 71 77.5t103 27.5q62 0 111 -32.5t76.5 -90.5t27.5 -131t-27.5 -130.5t-76.5 -90t-111 -32.5q-57 0 -101 26.5t-70 75.5v-298h-48v691zM387.5 55.5q40.5 27.5 63 76t22.5 109.5q0 62 -22.5 110.5t-63 76t-91.5 27.5q-47 0 -84 -22t-57.5 -60.5
t-20.5 -87.5v-87q0 -49 20.5 -87.5t57.5 -60.5t84 -22q51 0 91.5 27.5z" />
    <glyph glyph-name="thorn" unicode="&#xfe;" 
d="M87 704h48v-311q26 49 70 75.5t101 26.5q62 0 111 -32.5t76.5 -90.5t27.5 -131t-27.5 -130.5t-76.5 -90t-111 -32.5q-57 0 -101 26.5t-70 75.5v-298h-48v912zM387.5 55.5q40.5 27.5 63 76t22.5 109.5q0 62 -22.5 110.5t-63 76t-91.5 27.5q-47 0 -84 -22t-57.5 -60.5
t-20.5 -87.5v-87q0 -49 20.5 -87.5t57.5 -60.5t84 -22q51 0 91.5 27.5z" />
    <glyph glyph-name="q" unicode="q" 
d="M436 90q-25 -49 -69 -75.5t-101 -26.5q-62 0 -111.5 32.5t-77 90t-27.5 130.5q0 74 27.5 131.5t77 90t111.5 32.5q58 0 102.5 -27.5t70.5 -77.5l6 93h39v-691h-48v298zM392 75.5q45 47.5 45 122.5v87q0 75 -45 122.5t-117 47.5q-51 0 -91 -27.5t-62.5 -76t-22.5 -110.5
q0 -61 22.5 -109.5t62.5 -76t91 -27.5q72 0 117 47.5z" />
    <glyph glyph-name="r" unicode="r" horiz-adv-x="372" 
d="M87 483h39l6 -102q17 51 59 80.5t97 29.5q31 0 62 -9l-7 -40q-30 8 -58 8q-67 0 -108.5 -50.5t-41.5 -130.5v-269h-48v483z" />
    <glyph glyph-name="racute" unicode="&#x155;" horiz-adv-x="372" 
d="M87 483h39l6 -102q17 51 59 80.5t97 29.5q31 0 62 -9l-7 -40q-30 8 -58 8q-67 0 -108.5 -50.5t-41.5 -130.5v-269h-48v483zM152 591l160 110l24 -33l-164 -105z" />
    <glyph glyph-name="rcaron" unicode="&#x159;" horiz-adv-x="372" 
d="M87 483h39l6 -102q17 51 59 80.5t97 29.5q31 0 62 -9l-7 -40q-30 8 -58 8q-67 0 -108.5 -50.5t-41.5 -130.5v-269h-48v483zM66 686l23 24l115 -106l115 106l23 -24l-121 -119h-34z" />
    <glyph glyph-name="rcommaaccent" unicode="&#x157;" horiz-adv-x="372" 
d="M87 483h39l6 -102q17 51 59 80.5t97 29.5q31 0 62 -9l-7 -40q-30 8 -58 8q-67 0 -108.5 -50.5t-41.5 -130.5v-269h-48v483zM51 -248q62 48 62 110q-15 -2 -26 7.5t-11 25.5t9.5 25.5t25.5 9.5q18 0 29 -14.5t11 -39.5q0 -44 -22 -81.5t-63 -63.5z" />
    <glyph glyph-name="s" unicode="s" horiz-adv-x="441" 
d="M50 25l12 37q84 -36 155 -36q57 0 91.5 26t34.5 68q0 32 -18 52t-44 31t-71 24q-51 15 -82 28.5t-52.5 40.5t-21.5 71q0 56 46.5 92t119.5 36t154 -33l-12 -37q-72 31 -139 31q-54 0 -88 -24.5t-34 -64.5q0 -30 17.5 -49.5t43.5 -30.5t69 -23q51 -15 83 -29t54 -41.5
t22 -73.5q0 -59 -47 -95.5t-123 -36.5q-80 0 -170 37z" />
    <glyph glyph-name="sacute" unicode="&#x15b;" horiz-adv-x="441" 
d="M50 25l12 37q84 -36 155 -36q57 0 91.5 26t34.5 68q0 32 -18 52t-44 31t-71 24q-51 15 -82 28.5t-52.5 40.5t-21.5 71q0 56 46.5 92t119.5 36t154 -33l-12 -37q-72 31 -139 31q-54 0 -88 -24.5t-34 -64.5q0 -30 17.5 -49.5t43.5 -30.5t69 -23q51 -15 83 -29t54 -41.5
t22 -73.5q0 -59 -47 -95.5t-123 -36.5q-80 0 -170 37zM168 591l160 110l24 -33l-164 -105z" />
    <glyph glyph-name="scaron" unicode="&#x161;" horiz-adv-x="441" 
d="M50 25l12 37q84 -36 155 -36q57 0 91.5 26t34.5 68q0 32 -18 52t-44 31t-71 24q-51 15 -82 28.5t-52.5 40.5t-21.5 71q0 56 46.5 92t119.5 36t154 -33l-12 -37q-72 31 -139 31q-54 0 -88 -24.5t-34 -64.5q0 -30 17.5 -49.5t43.5 -30.5t69 -23q51 -15 83 -29t54 -41.5
t22 -73.5q0 -59 -47 -95.5t-123 -36.5q-80 0 -170 37zM82 686l23 24l115 -106l115 106l23 -24l-121 -119h-34z" />
    <glyph glyph-name="scedilla" unicode="&#x15f;" horiz-adv-x="441" 
d="M350 30.5q-40 -35.5 -106 -41.5l-9 -53q32 -3 53.5 -25t21.5 -52q0 -35 -28.5 -57t-72.5 -22t-86 16l11 31q39 -14 71 -14q28 0 46.5 13.5t18.5 36.5q0 22 -19 35.5t-48 13.5h-9l14 76q-76 3 -158 37l12 37q84 -36 155 -36q57 0 91.5 26t34.5 68q0 32 -18 52t-44 31
t-71 24q-51 15 -82 28.5t-52.5 40.5t-21.5 71q0 56 46.5 92t119.5 36t154 -33l-12 -37q-72 31 -139 31q-54 0 -88 -24.5t-34 -64.5q0 -30 17.5 -49.5t43.5 -30.5t69 -23q51 -15 83 -29t54 -41.5t22 -73.5q0 -54 -40 -89.5z" />
    <glyph glyph-name="scircumflex" unicode="&#x15d;" horiz-adv-x="441" 
d="M50 25l12 37q84 -36 155 -36q57 0 91.5 26t34.5 68q0 32 -18 52t-44 31t-71 24q-51 15 -82 28.5t-52.5 40.5t-21.5 71q0 56 46.5 92t119.5 36t154 -33l-12 -37q-72 31 -139 31q-54 0 -88 -24.5t-34 -64.5q0 -30 17.5 -49.5t43.5 -30.5t69 -23q51 -15 83 -29t54 -41.5
t22 -73.5q0 -59 -47 -95.5t-123 -36.5q-80 0 -170 37zM82 589l121 118h34l121 -118l-23 -25l-115 107l-115 -107z" />
    <glyph glyph-name="scommaaccent" unicode="&#x219;" horiz-adv-x="441" 
d="M50 25l12 37q84 -36 155 -36q57 0 91.5 26t34.5 68q0 32 -18 52t-44 31t-71 24q-51 15 -82 28.5t-52.5 40.5t-21.5 71q0 56 46.5 92t119.5 36t154 -33l-12 -37q-72 31 -139 31q-54 0 -88 -24.5t-34 -64.5q0 -30 17.5 -49.5t43.5 -30.5t69 -23q51 -15 83 -29t54 -41.5
t22 -73.5q0 -59 -47 -95.5t-123 -36.5q-80 0 -170 37zM160 -248q62 48 62 110q-15 -2 -26 7.5t-11 25.5t9.5 25.5t25.5 9.5q18 0 29 -14.5t11 -39.5q0 -44 -22 -81.5t-63 -63.5z" />
    <glyph glyph-name="germandbls" unicode="&#xdf;" horiz-adv-x="604" 
d="M263 21l14 37q65 -31 119 -31q53 0 86 25t33 68q0 38 -23 60t-70 46q-35 18 -56.5 33t-36.5 39.5t-15 60.5q0 31 11.5 54t34.5 52q22 30 33 51t11 50q0 47 -35.5 79t-92.5 32q-64 0 -103 -39.5t-39 -107.5v-530h-47v532q0 84 52.5 134t138.5 50q50 0 90 -19.5t62 -53.5
t22 -76q0 -35 -12.5 -60.5t-36.5 -55.5q-21 -27 -31 -46t-10 -44q0 -37 22.5 -58t68.5 -46q35 -19 56.5 -34.5t36.5 -40.5t15 -62q0 -60 -45 -96t-117 -36q-64 0 -136 33z" />
    <glyph glyph-name="t" unicode="t" horiz-adv-x="393" 
d="M172 24.5q-37 36.5 -37 94.5v325h-106v39h106v144h48v-144h165v-39h-165v-322q0 -41 26.5 -67t67.5 -26q36 0 72 11l8 -39q-43 -13 -89 -13q-59 0 -96 36.5z" />
    <glyph glyph-name="tbar" unicode="&#x167;" horiz-adv-x="393" 
d="M172 24.5q-37 36.5 -37 94.5v110h-98v36h98v179h-106v39h106v144h48v-144h165v-39h-165v-179h149v-36h-149v-107q0 -41 26 -67t68 -26q36 0 72 11l8 -39q-43 -13 -89 -13q-59 0 -96 36.5z" />
    <glyph glyph-name="tcaron" unicode="&#x165;" horiz-adv-x="393" 
d="M256 564l64 163l38 -14l-68 -161zM172 24.5q-37 36.5 -37 94.5v325h-106v39h106v144h48v-144h165v-39h-165v-322q0 -41 26.5 -67t67.5 -26q36 0 72 11l8 -39q-43 -13 -89 -13q-59 0 -96 36.5z" />
    <glyph glyph-name="uni0163" unicode="&#x163;" horiz-adv-x="393" 
d="M172 24.5q-37 36.5 -37 94.5v325h-106v39h106v144h48v-144h165v-39h-165v-322q0 -41 26.5 -67t67.5 -26q36 0 72 11l8 -39q-43 -13 -89 -13q-59 0 -96 36.5zM175 -248q62 48 62 110q-15 -2 -26 7.5t-11 25.5t9.5 25.5t25.5 9.5q18 0 29 -14.5t11 -39.5q0 -44 -22 -81.5
t-63 -63.5z" />
    <glyph glyph-name="uni021B" unicode="&#x21b;" horiz-adv-x="393" 
d="M172 24.5q-37 36.5 -37 94.5v325h-106v39h106v144h48v-144h165v-39h-165v-322q0 -41 26.5 -67t67.5 -26q36 0 72 11l8 -39q-43 -13 -89 -13q-59 0 -96 36.5zM175 -248q62 48 62 110q-15 -2 -26 7.5t-11 25.5t9.5 25.5t25.5 9.5q18 0 29 -14.5t11 -39.5q0 -44 -22 -81.5
t-63 -63.5z" />
    <glyph glyph-name="u" unicode="u" 
d="M167 10.5q-41 22.5 -64.5 62.5t-23.5 91v319h48v-313q0 -62 40.5 -101.5t103.5 -39.5q47 0 84.5 22.5t59 62.5t21.5 92v277h48v-483h-39l-6 100q-23 -53 -71 -82.5t-108 -29.5q-52 0 -93 22.5z" />
    <glyph glyph-name="uacute" unicode="&#xfa;" 
d="M167 10.5q-41 22.5 -64.5 62.5t-23.5 91v319h48v-313q0 -62 40.5 -101.5t103.5 -39.5q47 0 84.5 22.5t59 62.5t21.5 92v277h48v-483h-39l-6 100q-23 -53 -71 -82.5t-108 -29.5q-52 0 -93 22.5zM230 591l160 110l24 -33l-164 -105z" />
    <glyph glyph-name="ubreve" unicode="&#x16d;" 
d="M167 10.5q-41 22.5 -64.5 62.5t-23.5 91v319h48v-313q0 -62 40.5 -101.5t103.5 -39.5q47 0 84.5 22.5t59 62.5t21.5 92v277h48v-483h-39l-6 100q-23 -53 -71 -82.5t-108 -29.5q-52 0 -93 22.5zM185 595.5q-39 36.5 -41 95.5h35q2 -42 31 -68.5t72 -26.5t72 26.5t31 68.5
h35q-2 -59 -41 -95.5t-97 -36.5t-97 36.5z" />
    <glyph glyph-name="ucircumflex" unicode="&#xfb;" 
d="M167 10.5q-41 22.5 -64.5 62.5t-23.5 91v319h48v-313q0 -62 40.5 -101.5t103.5 -39.5q47 0 84.5 22.5t59 62.5t21.5 92v277h48v-483h-39l-6 100q-23 -53 -71 -82.5t-108 -29.5q-52 0 -93 22.5zM144 589l121 118h34l121 -118l-23 -25l-115 107l-115 -107z" />
    <glyph glyph-name="udieresis" unicode="&#xfc;" 
d="M167 10.5q-41 22.5 -64.5 62.5t-23.5 91v319h48v-313q0 -62 40.5 -101.5t103.5 -39.5q47 0 84.5 22.5t59 62.5t21.5 92v277h48v-483h-39l-6 100q-23 -53 -71 -82.5t-108 -29.5q-52 0 -93 22.5zM156 611.5q-10 9.5 -10 25.5t10 25.5t26 9.5t25.5 -9.5t9.5 -25.5
t-9.5 -25.5t-25.5 -9.5t-26 9.5zM356.5 611.5q-9.5 9.5 -9.5 25.5t9.5 25.5t25.5 9.5t26 -9.5t10 -25.5t-10 -25.5t-26 -9.5t-25.5 9.5z" />
    <glyph glyph-name="ugrave" unicode="&#xf9;" 
d="M167 10.5q-41 22.5 -64.5 62.5t-23.5 91v319h48v-313q0 -62 40.5 -101.5t103.5 -39.5q47 0 84.5 22.5t59 62.5t21.5 92v277h48v-483h-39l-6 100q-23 -53 -71 -82.5t-108 -29.5q-52 0 -93 22.5zM153 668l24 33l159 -110l-19 -28z" />
    <glyph glyph-name="uhungarumlaut" unicode="&#x171;" 
d="M167 10.5q-41 22.5 -64.5 62.5t-23.5 91v319h48v-313q0 -62 40.5 -101.5t103.5 -39.5q47 0 84.5 22.5t59 62.5t21.5 92v277h48v-483h-39l-6 100q-23 -53 -71 -82.5t-108 -29.5q-52 0 -93 22.5zM155 583l138 142l29 -29l-142 -138zM332 583l138 142l29 -29l-141 -138z" />
    <glyph glyph-name="umacron" unicode="&#x16b;" 
d="M167 10.5q-41 22.5 -64.5 62.5t-23.5 91v319h48v-313q0 -62 40.5 -101.5t103.5 -39.5q47 0 84.5 22.5t59 62.5t21.5 92v277h48v-483h-39l-6 100q-23 -53 -71 -82.5t-108 -29.5q-52 0 -93 22.5zM140 655h284v-36h-284v36z" />
    <glyph glyph-name="uogonek" unicode="&#x173;" 
d="M372 -199q-24 21 -24 57q0 71 97 144l-6 98q-23 -53 -71 -82.5t-108 -29.5q-52 0 -93 22.5t-64.5 62.5t-23.5 91v319h48v-313q0 -62 40.5 -101.5t103.5 -39.5q47 0 84.5 22.5t59 62.5t21.5 92v277h48v-483q-98 -76 -98 -135q0 -24 15.5 -38t38.5 -14q25 0 45 10l8 -31
q-30 -12 -61 -12q-36 0 -60 21z" />
    <glyph glyph-name="uring" unicode="&#x16f;" 
d="M167 10.5q-41 22.5 -64.5 62.5t-23.5 91v319h48v-313q0 -62 40.5 -101.5t103.5 -39.5q47 0 84.5 22.5t59 62.5t21.5 92v277h48v-483h-39l-6 100q-23 -53 -71 -82.5t-108 -29.5q-52 0 -93 22.5zM215 571q-27 26 -27 66q0 41 26.5 66.5t67.5 25.5t67.5 -25.5t26.5 -66.5
t-25.5 -66.5t-66.5 -25.5q-42 0 -69 26zM329.5 590q17.5 18 17.5 47t-18 47t-47 18t-47 -18t-18 -47t19 -47t48 -18q28 0 45.5 18z" />
    <glyph glyph-name="utilde" unicode="&#x169;" 
d="M167 10.5q-41 22.5 -64.5 62.5t-23.5 91v319h48v-313q0 -62 40.5 -101.5t103.5 -39.5q47 0 84.5 22.5t59 62.5t21.5 92v277h48v-483h-39l-6 100q-23 -53 -71 -82.5t-108 -29.5q-52 0 -93 22.5zM142 610q8 29 28.5 47t47.5 18q15 0 30 -5t40 -16q15 -7 29.5 -12.5
t25.5 -5.5q16 0 27.5 10t17.5 29l34 -11q-8 -29 -28.5 -46.5t-47.5 -17.5q-15 0 -30 5t-40 16q-38 17 -55 17q-16 0 -28 -10t-17 -28z" />
    <glyph glyph-name="v" unicode="v" horiz-adv-x="508" 
d="M31 483h50l173 -426l172 426h50l-200 -483h-45z" />
    <glyph glyph-name="w" unicode="w" horiz-adv-x="764" 
d="M39 483h49l135 -424l135 424h47l135 -424l136 424h48l-159 -483h-48l-135 424l-135 -424h-49z" />
    <glyph glyph-name="wacute" unicode="&#x1e83;" horiz-adv-x="764" 
d="M39 483h49l135 -424l135 424h47l135 -424l136 424h48l-159 -483h-48l-135 424l-135 -424h-49zM330 591l160 110l24 -33l-164 -105z" />
    <glyph glyph-name="wcircumflex" unicode="&#x175;" horiz-adv-x="764" 
d="M39 483h49l135 -424l135 424h47l135 -424l136 424h48l-159 -483h-48l-135 424l-135 -424h-49zM244 589l121 118h34l121 -118l-23 -25l-115 107l-115 -107z" />
    <glyph glyph-name="wdieresis" unicode="&#x1e85;" horiz-adv-x="764" 
d="M39 483h49l135 -424l135 424h47l135 -424l136 424h48l-159 -483h-48l-135 424l-135 -424h-49zM256 611.5q-10 9.5 -10 25.5t10 25.5t26 9.5t25.5 -9.5t9.5 -25.5t-9.5 -25.5t-25.5 -9.5t-26 9.5zM456.5 611.5q-9.5 9.5 -9.5 25.5t9.5 25.5t25.5 9.5t26 -9.5t10 -25.5
t-10 -25.5t-26 -9.5t-25.5 9.5z" />
    <glyph glyph-name="wgrave" unicode="&#x1e81;" horiz-adv-x="764" 
d="M39 483h49l135 -424l135 424h47l135 -424l136 424h48l-159 -483h-48l-135 424l-135 -424h-49zM253 668l24 33l159 -110l-19 -28z" />
    <glyph glyph-name="x" unicode="x" horiz-adv-x="508" 
d="M223 247l-179 236h55l155 -204l154 204h55l-179 -236l187 -247h-55l-162 215l-162 -215h-56z" />
    <glyph glyph-name="y" unicode="y" horiz-adv-x="508" 
d="M33 -212l8 40q27 -7 51 -7q38 0 63 24t48 81l31 77l-203 480h50l176 -426l169 426h50l-230 -567q-29 -72 -63.5 -104t-87.5 -32q-25 0 -62 8z" />
    <glyph glyph-name="yacute" unicode="&#xfd;" horiz-adv-x="508" 
d="M33 -212l8 40q27 -7 51 -7q38 0 63 24t48 81l31 77l-203 480h50l176 -426l169 426h50l-230 -567q-29 -72 -63.5 -104t-87.5 -32q-25 0 -62 8zM202 591l160 110l24 -33l-164 -105z" />
    <glyph glyph-name="ycircumflex" unicode="&#x177;" horiz-adv-x="508" 
d="M33 -212l8 40q27 -7 51 -7q38 0 63 24t48 81l31 77l-203 480h50l176 -426l169 426h50l-230 -567q-29 -72 -63.5 -104t-87.5 -32q-25 0 -62 8zM116 589l121 118h34l121 -118l-23 -25l-115 107l-115 -107z" />
    <glyph glyph-name="ydieresis" unicode="&#xff;" horiz-adv-x="508" 
d="M33 -212l8 40q27 -7 51 -7q38 0 63 24t48 81l31 77l-203 480h50l176 -426l169 426h50l-230 -567q-29 -72 -63.5 -104t-87.5 -32q-25 0 -62 8zM128 611.5q-10 9.5 -10 25.5t10 25.5t26 9.5t25.5 -9.5t9.5 -25.5t-9.5 -25.5t-25.5 -9.5t-26 9.5zM328.5 611.5
q-9.5 9.5 -9.5 25.5t9.5 25.5t25.5 9.5t26 -9.5t10 -25.5t-10 -25.5t-26 -9.5t-25.5 9.5z" />
    <glyph glyph-name="ygrave" unicode="&#x1ef3;" horiz-adv-x="508" 
d="M33 -212l8 40q27 -7 51 -7q38 0 63 24t48 81l31 77l-203 480h50l176 -426l169 426h50l-230 -567q-29 -72 -63.5 -104t-87.5 -32q-25 0 -62 8zM125 668l24 33l159 -110l-19 -28z" />
    <glyph glyph-name="z" unicode="z" horiz-adv-x="473" 
d="M50 29l301 415h-293v39h356v-29l-300 -415h308v-39h-372v29z" />
    <glyph glyph-name="zacute" unicode="&#x17a;" horiz-adv-x="473" 
d="M50 29l301 415h-293v39h356v-29l-300 -415h308v-39h-372v29zM184 591l160 110l24 -33l-164 -105z" />
    <glyph glyph-name="zcaron" unicode="&#x17e;" horiz-adv-x="473" 
d="M50 29l301 415h-293v39h356v-29l-300 -415h308v-39h-372v29zM98 686l23 24l115 -106l115 106l23 -24l-121 -119h-34z" />
    <glyph glyph-name="zdotaccent" unicode="&#x17c;" horiz-adv-x="473" 
d="M50 29l301 415h-293v39h356v-29l-300 -415h308v-39h-372v29zM209 610.5q-10 10.5 -10 26.5q0 17 10 27t27 10q16 0 26.5 -10t10.5 -27q0 -16 -10.5 -26.5t-26.5 -10.5q-17 0 -27 10.5z" />
    <glyph glyph-name="germandbls.calt" horiz-adv-x="759" 
d="M288 41l19 39q42 -25 85 -38t81 -13q50 0 89.5 20.5t61.5 57.5t22 83q0 48 -23.5 85.5t-66.5 58.5t-99 21h-20l-9 26l184 250h-454v-631h-48v672h560v-30l-184 -251q94 -6 151 -61t57 -140q0 -58 -28 -104t-77.5 -72t-112.5 -26q-98 0 -188 53z" />
    <glyph glyph-name="cacute.loclPLK" horiz-adv-x="486" 
d="M163 20.5q-53 32.5 -83 90t-30 130.5q0 74 30 131.5t83 90t121 32.5q86 0 162 -54l-21 -34q-65 47 -136 47q-55 0 -98 -27t-67.5 -75.5t-24.5 -110.5t24.5 -110t67.5 -75t98 -27q71 0 136 47l21 -35q-77 -53 -162 -53q-68 0 -121 32.5zM244 564l51 141l38 -14l-56 -139z
" />
    <glyph glyph-name="nacute.loclPLK" 
d="M87 483h39l6 -101q24 53 72 83t108 30q52 0 93 -22.5t64 -62.5t23 -91v-319h-48v313q0 62 -40.5 101.5t-102.5 39.5q-47 0 -85 -22.5t-59.5 -62.5t-21.5 -92v-277h-48v483zM269 564l51 141l38 -14l-56 -139z" />
    <glyph glyph-name="oacute.loclPLK" 
d="M164 20.5q-54 32.5 -84 90t-30 130.5q0 74 30 131.5t84 90t122 32.5t121.5 -32.5t83.5 -90t30 -131.5q0 -73 -30 -130.5t-83.5 -90t-121.5 -32.5t-122 32.5zM382.5 55q42.5 27 66.5 75.5t24 110.5t-24 111t-66.5 76t-96.5 27t-96.5 -27t-66.5 -76t-24 -111t24 -110.5
t66.5 -75.5t96.5 -27t96.5 27zM255 564l51 141l38 -14l-56 -139z" />
    <glyph glyph-name="sacute.loclPLK" horiz-adv-x="441" 
d="M50 25l12 37q84 -36 155 -36q57 0 91.5 26t34.5 68q0 32 -18 52t-44 31t-71 24q-51 15 -82 28.5t-52.5 40.5t-21.5 71q0 56 46.5 92t119.5 36t154 -33l-12 -37q-72 31 -139 31q-54 0 -88 -24.5t-34 -64.5q0 -30 17.5 -49.5t43.5 -30.5t69 -23q51 -15 83 -29t54 -41.5
t22 -73.5q0 -59 -47 -95.5t-123 -36.5q-80 0 -170 37zM189 564l51 141l38 -14l-56 -139z" />
    <glyph glyph-name="zacute.loclPLK" horiz-adv-x="473" 
d="M50 29l301 415h-293v39h356v-29l-300 -415h308v-39h-372v29zM205 564l51 141l38 -14l-56 -139z" />
    <glyph glyph-name="ordfeminine" unicode="&#xaa;" horiz-adv-x="406" 
d="M123 365.5q-33 21.5 -52 60t-19 86.5q0 49 19 87.5t52 60t75 21.5q39 0 69 -18t45 -49l4 59h26v-321h-26l-4 61q-16 -33 -45.5 -51t-68.5 -18q-42 0 -75 21.5zM122 613q-31 -39 -31 -101t31 -100.5t82 -38.5q45 0 74 33t29 83v47q0 50 -29 83t-74 33q-51 0 -82 -39z
M362 270v-31h-320v31h320z" />
    <glyph glyph-name="ordmasculine" unicode="&#xba;" horiz-adv-x="402" 
d="M86.5 391q-44.5 47 -44.5 122q0 74 44.5 121t114.5 47t114.5 -47t44.5 -121q0 -75 -44.5 -122t-114.5 -47t-114.5 47zM287.5 415q33.5 38 33.5 98t-33.5 98t-86.5 38t-86.5 -38t-33.5 -98q0 -61 33.5 -98.5t86.5 -37.5t86.5 38zM45 270h311v-31h-311v31z" />
    <glyph glyph-name="uni0394" unicode="&#x394;" horiz-adv-x="663" 
d="M39 28l269 644h47l269 -644v-28h-585v28zM570 41l-238 572l-239 -572h477z" />
    <glyph glyph-name="uni03A9" unicode="&#x3a9;" horiz-adv-x="777" 
d="M58 41h197q-88 57 -133.5 139t-45.5 181q0 94 39.5 167.5t110.5 114.5t162 41t162 -41t111 -114.5t40 -167.5q0 -99 -46 -181t-134 -139h197v-41h-263v35q96 60 146.5 141.5t50.5 182.5q0 83 -33.5 147.5t-93.5 100.5t-137 36t-136.5 -36t-93 -100.5t-33.5 -147.5
q0 -101 50 -182.5t147 -141.5v-35h-264v41z" />
    <glyph glyph-name="uni03BC" unicode="&#x3bc;" horiz-adv-x="596" 
d="M87 483h48v-313q0 -63 40.5 -102t103.5 -39q47 0 84.5 22.5t59 62.5t21.5 92v277h48v-405q0 -22 13 -35.5t35 -13.5q15 0 28 3l6 -39q-22 -5 -42 -5q-38 0 -61.5 22.5t-23.5 59.5v21q-23 -48 -67.5 -75.5t-101.5 -27.5q-49 0 -86 18.5t-57 53.5v-268h-48v691z" />
    <glyph glyph-name="pi" unicode="&#x3c0;" horiz-adv-x="636" 
d="M464 13.5q-26 25.5 -26 68.5v362h-256v-444h-47v444h-106v39h561v-39h-106v-359q0 -26 15.5 -41t40.5 -15q20 0 35 4l6 -39q-24 -6 -49 -6q-42 0 -68 25.5z" />
    <glyph glyph-name="zero" unicode="0" horiz-adv-x="576" 
d="M162 30.5q-54 42.5 -83.5 121.5t-29.5 184t29.5 184t83.5 121.5t126 42.5t126 -42.5t83.5 -121.5t29.5 -184t-29.5 -184t-83.5 -121.5t-126 -42.5t-126 42.5zM390 67q44 38 68 107.5t24 161.5q0 93 -24 162t-68 107t-102 38t-102 -38t-68 -107t-24 -162q0 -92 24 -161.5
t68 -107.5t102 -38t102 38z" />
    <glyph glyph-name="one" unicode="1" horiz-adv-x="576" 
d="M319 622l-187 -108l-18 35l212 123h40v-672h-47v622z" />
    <glyph glyph-name="two" unicode="2" horiz-adv-x="576" 
d="M60 32l278 278q86 84 86 177q0 69 -44 112t-115 43q-43 0 -85 -15t-90 -45l-20 37q106 65 202 65q58 0 103 -24.5t70.5 -68t25.5 -99.5q0 -53 -24 -104.5t-70 -97.5l-250 -249h352v-41h-419v32z" />
    <glyph glyph-name="three" unicode="3" horiz-adv-x="576" 
d="M62 37l16 38q99 -46 189 -46q73 0 119 41t46 105q0 44 -24.5 78t-69 53t-101.5 19h-36v38h36q52 0 93 18t64 50.5t23 73.5q0 61 -41.5 99.5t-107.5 38.5q-84 0 -174 -42l-16 38q97 45 195 45q56 0 99.5 -22t68 -62t24.5 -91q0 -60 -36.5 -103.5t-97.5 -59.5
q69 -18 109.5 -65t40.5 -110q0 -53 -26.5 -95t-74 -65t-107.5 -23q-106 0 -211 49z" />
    <glyph glyph-name="four" unicode="4" horiz-adv-x="576" 
d="M371 167h-335v35l335 470h45v-466h111v-39h-111v-167h-45v167zM371 206v401l-286 -401h286z" />
    <glyph glyph-name="five" unicode="5" horiz-adv-x="576" 
d="M71 45l20 37q90 -53 175 -53q82 0 131.5 45t49.5 119q0 76 -49 120.5t-136 44.5q-66 0 -149 -19v333h357v-41h-314v-249q59 13 117 13q102 0 161.5 -55t59.5 -148q0 -60 -28 -106t-79 -72t-118 -26q-100 0 -198 57z" />
    <glyph glyph-name="six" unicode="6" horiz-adv-x="576" 
d="M132.5 67q-62.5 79 -62.5 225q0 188 68.5 290t197.5 102q81 0 154 -38l-17 -37q-72 35 -136 35q-108 0 -165 -88.5t-56 -257.5q19 56 72.5 90.5t121.5 34.5q62 0 110 -27t74.5 -75.5t26.5 -111.5q0 -62 -28.5 -112.5t-78 -79.5t-110.5 -29q-109 0 -171.5 79zM390.5 51.5
q39.5 23.5 62.5 65t23 91.5q0 79 -47.5 127t-125.5 48q-49 0 -90 -21t-65 -57t-24 -80q0 -57 23 -102t63.5 -70t92.5 -25q48 0 87.5 23.5z" />
    <glyph glyph-name="seven" unicode="7" horiz-adv-x="576" 
d="M427 631h-354v41h408v-32l-277 -640h-50z" />
    <glyph glyph-name="eight" unicode="8" horiz-adv-x="576" 
d="M170.5 10.5q-51.5 22.5 -80 63.5t-28.5 94q0 66 44.5 113t124.5 63q-68 15 -110.5 60t-42.5 108q0 49 27 88t75 61.5t108 22.5t108 -22.5t75 -61.5t27 -88q0 -63 -42.5 -108t-110.5 -60q80 -16 124.5 -63t44.5 -113q0 -53 -28.5 -94t-80 -63.5t-117.5 -22.5t-117.5 22.5z
M406.5 412q45.5 38 45.5 97q0 38 -21.5 69.5t-59 49t-83.5 17.5t-83.5 -17.5t-59 -49t-21.5 -69.5q0 -59 45.5 -97t118.5 -49q73 11 118.5 49zM416.5 67q49.5 40 49.5 104q0 61 -47.5 101.5t-130.5 52.5q-83 -12 -130.5 -52.5t-47.5 -101.5q0 -64 49.5 -104t128.5 -40
t128.5 40z" />
    <glyph glyph-name="nine" unicode="9" horiz-adv-x="576" 
d="M86 26l17 37q72 -35 136 -35q108 0 165 88.5t56 257.5q-19 -56 -72.5 -90.5t-121.5 -34.5q-62 0 -110 27t-74.5 75.5t-26.5 111.5q0 62 28.5 112.5t78 79.5t110.5 29q109 0 171.5 -79t62.5 -225q0 -188 -68.5 -290t-197.5 -102q-81 0 -154 38zM363 310q41 21 65 57t24 80
q0 57 -23 102t-63.5 70t-92.5 25q-48 0 -87.5 -23.5t-62.5 -65t-23 -91.5q0 -79 47.5 -127t125.5 -48q49 0 90 21z" />
    <glyph glyph-name="zero.lf" horiz-adv-x="646" 
d="M191.5 31q-56.5 43 -87.5 122t-31 183t31 183t87.5 122t131.5 43q74 0 131 -43t88 -122t31 -183t-31 -183t-88 -122t-131 -43q-75 0 -131.5 43zM429 66q45 38 70 107.5t25 162.5t-25 162.5t-70 107.5t-106 38t-106.5 -38t-70.5 -107.5t-25 -162.5t25 -162.5t70.5 -107.5
t106.5 -38t106 38z" />
    <glyph glyph-name="one.lf" horiz-adv-x="393" 
d="M227 622l-187 -108l-18 35l212 123h40v-672h-47v622z" />
    <glyph glyph-name="two.lf" horiz-adv-x="515" 
d="M29 32l278 278q86 84 86 177q0 69 -44 112t-115 43q-43 0 -85 -15t-90 -45l-20 37q106 65 202 65q58 0 103 -24.5t70.5 -68t25.5 -99.5q0 -53 -24 -104.5t-70 -97.5l-250 -249h352v-41h-419v32z" />
    <glyph glyph-name="three.lf" horiz-adv-x="515" 
d="M31 37l16 38q99 -46 189 -46q73 0 119 41t46 105q0 44 -24.5 78t-69 53t-101.5 19h-36v38h36q52 0 93 18t64 50.5t23 73.5q0 61 -41.5 99.5t-107.5 38.5q-84 0 -174 -42l-16 38q97 45 195 45q56 0 99.5 -22t68 -62t24.5 -91q0 -60 -36.5 -103.5t-97.5 -59.5
q69 -18 109.5 -65t40.5 -110q0 -53 -26.5 -95t-74 -65t-107.5 -23q-106 0 -211 49z" />
    <glyph glyph-name="four.lf" horiz-adv-x="566" 
d="M366 167h-335v35l335 470h45v-466h111v-39h-111v-167h-45v167zM366 206v401l-286 -401h286z" />
    <glyph glyph-name="five.lf" horiz-adv-x="515" 
d="M40 45l20 37q90 -53 175 -53q82 0 131.5 45t49.5 119q0 76 -49 120.5t-136 44.5q-66 0 -149 -19v333h357v-41h-314v-249q59 13 117 13q102 0 161.5 -55t59.5 -148q0 -60 -28 -106t-79 -72t-118 -26q-100 0 -198 57z" />
    <glyph glyph-name="six.lf" horiz-adv-x="582" 
d="M135.5 67q-62.5 79 -62.5 225q0 188 68.5 290t197.5 102q81 0 154 -38l-17 -37q-72 35 -136 35q-108 0 -165 -88.5t-56 -257.5q19 56 72.5 90.5t121.5 34.5q62 0 110 -27t74.5 -75.5t26.5 -111.5q0 -62 -28.5 -112.5t-78 -79.5t-110.5 -29q-109 0 -171.5 79zM393.5 51.5
q39.5 23.5 62.5 65t23 91.5q0 79 -47.5 127t-125.5 48q-49 0 -90 -21t-65 -57t-24 -80q0 -57 23 -102t63.5 -70t92.5 -25q48 0 87.5 23.5z" />
    <glyph glyph-name="seven.lf" horiz-adv-x="470" 
d="M374 631h-354v41h408v-32l-277 -640h-50z" />
    <glyph glyph-name="eight.lf" horiz-adv-x="581" 
d="M173.5 10.5q-51.5 22.5 -80 63.5t-28.5 94q0 66 44.5 113t124.5 63q-68 15 -110.5 60t-42.5 108q0 49 27 88t75 61.5t108 22.5t108 -22.5t75 -61.5t27 -88q0 -63 -42.5 -108t-110.5 -60q80 -16 124.5 -63t44.5 -113q0 -53 -28.5 -94t-80 -63.5t-117.5 -22.5t-117.5 22.5z
M409.5 412q45.5 38 45.5 97q0 38 -21.5 69.5t-59 49t-83.5 17.5t-83.5 -17.5t-59 -49t-21.5 -69.5q0 -59 45.5 -97t118.5 -49q73 11 118.5 49zM419.5 67q49.5 40 49.5 104q0 61 -47.5 101.5t-130.5 52.5q-83 -12 -130.5 -52.5t-47.5 -101.5q0 -64 49.5 -104t128.5 -40
t128.5 40z" />
    <glyph glyph-name="nine.lf" horiz-adv-x="582" 
d="M89 26l17 37q72 -35 136 -35q108 0 165 88.5t56 257.5q-19 -56 -72.5 -90.5t-121.5 -34.5q-62 0 -110 27t-74.5 75.5t-26.5 111.5q0 62 28.5 112.5t78 79.5t110.5 29q109 0 171.5 -79t62.5 -225q0 -188 -68.5 -290t-197.5 -102q-81 0 -154 38zM366 310q41 21 65 57t24 80
q0 57 -23 102t-63.5 70t-92.5 25q-48 0 -87.5 -23.5t-62.5 -65t-23 -91.5q0 -79 47.5 -127t125.5 -48q49 0 90 21z" />
    <glyph glyph-name="uni00B9" unicode="&#xb9;" horiz-adv-x="266" 
d="M147 760l-111 -64l-15 27l132 77h32v-416h-38v376z" />
    <glyph glyph-name="uni00B2" unicode="&#xb2;" horiz-adv-x="340" 
d="M26 409l169 170q51 50 51 103q0 41 -25 66.5t-67 25.5q-51 0 -107 -36l-17 29q67 41 129 41q55 0 90 -34t35 -87q0 -67 -58 -124l-145 -146h209v-33h-264v25z" />
    <glyph glyph-name="uni00B3" unicode="&#xb3;" horiz-adv-x="340" 
d="M29 408l15 30q57 -30 111 -30q43 0 70 24t27 62q0 39 -31.5 63.5t-82.5 24.5h-25v30h25q46 0 75.5 23t29.5 60q0 36 -24 58.5t-64 22.5q-51 0 -105 -27l-14 30q61 29 124 29q54 0 87.5 -31t33.5 -79q0 -36 -21 -63t-56 -37q39 -11 63 -40t24 -67q0 -51 -36.5 -83
t-94.5 -32q-66 0 -131 32z" />
    <glyph glyph-name="fraction" unicode="&#x2044;" horiz-adv-x="192" 
d="M326 672h44l-504 -672h-44z" />
    <glyph glyph-name="uni215F" unicode="&#x215f;" horiz-adv-x="576" 
d="M206 632l-111 -64l-15 27l132 77h32v-416h-38v376zM710 672h44l-504 -672h-44z" />
    <glyph glyph-name="onehalf" unicode="&#xbd;" horiz-adv-x="960" 
d="M206 632l-111 -64l-15 27l132 77h32v-416h-38v376zM710 672h44l-504 -672h-44zM624 25l169 170q51 50 51 103q0 41 -25 66.5t-67 25.5q-51 0 -107 -36l-17 29q67 41 129 41q55 0 90 -34t35 -87q0 -67 -58 -124l-145 -146h209v-33h-264v25z" />
    <glyph glyph-name="uni2153" unicode="&#x2153;" horiz-adv-x="960" 
d="M206 632l-111 -64l-15 27l132 77h32v-416h-38v376zM710 672h44l-504 -672h-44zM627 24l15 30q57 -30 111 -30q43 0 70 24t27 62q0 39 -31.5 63.5t-82.5 24.5h-25v30h25q46 0 75.5 23t29.5 60q0 36 -24 58.5t-64 22.5q-51 0 -105 -27l-14 30q61 29 124 29q54 0 87.5 -31
t33.5 -79q0 -36 -21 -63t-56 -37q39 -11 63 -40t24 -67q0 -51 -36.5 -83t-94.5 -32q-66 0 -131 32z" />
    <glyph glyph-name="uni2154" unicode="&#x2154;" horiz-adv-x="960" 
d="M48 281l169 170q51 50 51 103q0 41 -25 66.5t-67 25.5q-51 0 -107 -36l-17 29q67 41 129 41q55 0 90 -34t35 -87q0 -67 -58 -124l-145 -146h209v-33h-264v25zM710 672h44l-504 -672h-44zM627 24l15 30q57 -30 111 -30q43 0 70 24t27 62q0 39 -31.5 63.5t-82.5 24.5h-25
v30h25q46 0 75.5 23t29.5 60q0 36 -24 58.5t-64 22.5q-51 0 -105 -27l-14 30q61 29 124 29q54 0 87.5 -31t33.5 -79q0 -36 -21 -63t-56 -37q39 -11 63 -40t24 -67q0 -51 -36.5 -83t-94.5 -32q-66 0 -131 32z" />
    <glyph glyph-name="onequarter" unicode="&#xbc;" horiz-adv-x="960" 
d="M206 632l-111 -64l-15 27l132 77h32v-416h-38v376zM710 672h44l-504 -672h-44zM796 100h-205v27l204 289h36v-285h68v-31h-68v-100h-35v100zM796 131v235l-166 -235h166z" />
    <glyph glyph-name="threequarters" unicode="&#xbe;" horiz-adv-x="960" 
d="M51 280l15 30q57 -30 111 -30q43 0 70 24t27 62q0 39 -31.5 63.5t-82.5 24.5h-25v30h25q46 0 75.5 23t29.5 60q0 36 -24 58.5t-64 22.5q-51 0 -105 -27l-14 30q61 29 124 29q54 0 87.5 -31t33.5 -79q0 -36 -21 -63t-56 -37q39 -11 63 -40t24 -67q0 -51 -36.5 -83
t-94.5 -32q-66 0 -131 32zM710 672h44l-504 -672h-44zM796 100h-205v27l204 289h36v-285h68v-31h-68v-100h-35v100zM796 131v235l-166 -235h166z" />
    <glyph glyph-name="uni2155" unicode="&#x2155;" horiz-adv-x="960" 
d="M206 632l-111 -64l-15 27l132 77h32v-416h-38v376zM710 672h44l-504 -672h-44zM631 29l16 29q51 -33 106 -33q48 0 77 26.5t29 69.5q0 45 -28.5 70.5t-79.5 25.5q-40 0 -95 -11v210h225v-32h-190v-143q38 6 69 6q63 0 100 -34.5t37 -91.5t-39.5 -93t-102.5 -36
q-61 0 -124 37z" />
    <glyph glyph-name="uni2156" unicode="&#x2156;" horiz-adv-x="960" 
d="M48 281l169 170q51 50 51 103q0 41 -25 66.5t-67 25.5q-51 0 -107 -36l-17 29q67 41 129 41q55 0 90 -34t35 -87q0 -67 -58 -124l-145 -146h209v-33h-264v25zM710 672h44l-504 -672h-44zM631 29l16 29q51 -33 106 -33q48 0 77 26.5t29 69.5q0 45 -28.5 70.5t-79.5 25.5
q-40 0 -95 -11v210h225v-32h-190v-143q38 6 69 6q63 0 100 -34.5t37 -91.5t-39.5 -93t-102.5 -36q-61 0 -124 37z" />
    <glyph glyph-name="uni2157" unicode="&#x2157;" horiz-adv-x="960" 
d="M51 280l15 30q57 -30 111 -30q43 0 70 24t27 62q0 39 -31.5 63.5t-82.5 24.5h-25v30h25q46 0 75.5 23t29.5 60q0 36 -24 58.5t-64 22.5q-51 0 -105 -27l-14 30q61 29 124 29q54 0 87.5 -31t33.5 -79q0 -36 -21 -63t-56 -37q39 -11 63 -40t24 -67q0 -51 -36.5 -83
t-94.5 -32q-66 0 -131 32zM710 672h44l-504 -672h-44zM631 29l16 29q51 -33 106 -33q48 0 77 26.5t29 69.5q0 45 -28.5 70.5t-79.5 25.5q-40 0 -95 -11v210h225v-32h-190v-143q38 6 69 6q63 0 100 -34.5t37 -91.5t-39.5 -93t-102.5 -36q-61 0 -124 37z" />
    <glyph glyph-name="uni2158" unicode="&#x2158;" horiz-adv-x="960" 
d="M240 356h-205v27l204 289h36v-285h68v-31h-68v-100h-35v100zM710 672h44l-504 -672h-44zM240 387v235l-166 -235h166zM631 29l16 29q51 -33 106 -33q48 0 77 26.5t29 69.5q0 45 -28.5 70.5t-79.5 25.5q-40 0 -95 -11v210h225v-32h-190v-143q38 6 69 6q63 0 100 -34.5
t37 -91.5t-39.5 -93t-102.5 -36q-61 0 -124 37z" />
    <glyph glyph-name="uni2159" unicode="&#x2159;" horiz-adv-x="960" 
d="M206 632l-111 -64l-15 27l132 77h32v-416h-38v376zM710 672h44l-504 -672h-44zM670.5 41.5q-38.5 49.5 -38.5 141.5q0 115 43 178t124 63q48 0 97 -24l-14 -29q-41 21 -82 21q-64 0 -97.5 -51.5t-34.5 -147.5q14 32 45 51.5t70 19.5q59 0 95.5 -37t36.5 -97
q0 -40 -18.5 -71.5t-50.5 -49t-69 -17.5q-68 0 -106.5 49.5zM849.5 53.5q30.5 29.5 30.5 75.5q0 48 -28 76t-74 28q-44 0 -74.5 -27.5t-30.5 -67.5q0 -48 28 -81t76 -33q42 0 72.5 29.5z" />
    <glyph glyph-name="uni215A" unicode="&#x215a;" horiz-adv-x="960" 
d="M55 285l16 29q51 -33 106 -33q48 0 77 26.5t29 69.5q0 45 -28.5 70.5t-79.5 25.5q-40 0 -95 -11v210h225v-32h-190v-143q37 6 69 6q63 0 100 -34.5t37 -91.5t-39.5 -93t-102.5 -36q-61 0 -124 37zM710 672h44l-504 -672h-44zM670.5 41.5q-38.5 49.5 -38.5 141.5
q0 115 43 178t124 63q48 0 97 -24l-14 -29q-41 21 -82 21q-64 0 -97.5 -51.5t-34.5 -147.5q14 32 45 51.5t70 19.5q59 0 95.5 -37t36.5 -97q0 -40 -18.5 -71.5t-50.5 -49t-69 -17.5q-68 0 -106.5 49.5zM849.5 53.5q30.5 29.5 30.5 75.5q0 48 -28 76t-74 28
q-44 0 -74.5 -27.5t-30.5 -67.5q0 -48 28 -81t76 -33q42 0 72.5 29.5z" />
    <glyph glyph-name="oneeighth" unicode="&#x215b;" horiz-adv-x="960" 
d="M206 632l-111 -64l-15 27l132 77h32v-416h-38v376zM710 672h44l-504 -672h-44zM664 23.5q-40 31.5 -40 83.5q0 39 26 67.5t74 38.5q-41 9 -65.5 36.5t-24.5 65.5q0 48 37.5 78.5t96.5 30.5t96.5 -30.5t37.5 -78.5q0 -38 -24.5 -66t-64.5 -36q47 -10 73 -38.5t26 -67.5
q0 -52 -39.5 -83.5t-104.5 -31.5q-64 0 -104 31.5zM838.5 256q26.5 22 26.5 57t-27 57.5t-70 22.5t-70.5 -22.5t-27.5 -57.5t27 -57t71 -28q44 6 70.5 28zM845.5 46q29.5 24 29.5 63q0 35 -28.5 58.5t-78.5 30.5q-50 -7 -78.5 -30.5t-28.5 -58.5q0 -39 30 -63t77 -24
q48 0 77.5 24z" />
    <glyph glyph-name="threeeighths" unicode="&#x215c;" horiz-adv-x="960" 
d="M51 280l15 30q57 -30 111 -30q43 0 70 24t27 62q0 39 -31.5 63.5t-82.5 24.5h-25v30h25q46 0 75.5 23t29.5 60q0 36 -24 58.5t-64 22.5q-51 0 -105 -27l-14 30q61 29 124 29q54 0 87.5 -31t33.5 -79q0 -36 -21 -63t-56 -37q39 -11 63 -40t24 -67q0 -51 -36.5 -83
t-94.5 -32q-66 0 -131 32zM710 672h44l-504 -672h-44zM664 23.5q-40 31.5 -40 83.5q0 39 26 67.5t74 38.5q-41 9 -65.5 36.5t-24.5 65.5q0 48 37.5 78.5t96.5 30.5t96.5 -30.5t37.5 -78.5q0 -38 -24.5 -66t-64.5 -36q47 -10 73 -38.5t26 -67.5q0 -52 -39.5 -83.5
t-104.5 -31.5q-64 0 -104 31.5zM838.5 256q26.5 22 26.5 57t-27 57.5t-70 22.5t-70.5 -22.5t-27.5 -57.5t27 -57t71 -28q44 6 70.5 28zM845.5 46q29.5 24 29.5 63q0 35 -28.5 58.5t-78.5 30.5q-50 -7 -78.5 -30.5t-28.5 -58.5q0 -39 30 -63t77 -24q48 0 77.5 24z" />
    <glyph glyph-name="fiveeighths" unicode="&#x215d;" horiz-adv-x="960" 
d="M55 285l16 29q51 -33 106 -33q48 0 77 26.5t29 69.5q0 45 -28.5 70.5t-79.5 25.5q-40 0 -95 -11v210h225v-32h-190v-143q37 6 69 6q63 0 100 -34.5t37 -91.5t-39.5 -93t-102.5 -36q-61 0 -124 37zM710 672h44l-504 -672h-44zM664 23.5q-40 31.5 -40 83.5q0 39 26 67.5
t74 38.5q-41 9 -65.5 36.5t-24.5 65.5q0 48 37.5 78.5t96.5 30.5t96.5 -30.5t37.5 -78.5q0 -38 -24.5 -66t-64.5 -36q47 -10 73 -38.5t26 -67.5q0 -52 -39.5 -83.5t-104.5 -31.5q-64 0 -104 31.5zM838.5 256q26.5 22 26.5 57t-27 57.5t-70 22.5t-70.5 -22.5t-27.5 -57.5
t27 -57t71 -28q44 6 70.5 28zM845.5 46q29.5 24 29.5 63q0 35 -28.5 58.5t-78.5 30.5q-50 -7 -78.5 -30.5t-28.5 -58.5q0 -39 30 -63t77 -24q48 0 77.5 24z" />
    <glyph glyph-name="seveneighths" unicode="&#x215e;" horiz-adv-x="960" 
d="M302 639h-215v33h257v-25l-169 -391h-41zM710 672h44l-504 -672h-44zM664 23.5q-40 31.5 -40 83.5q0 39 26 67.5t74 38.5q-41 9 -65.5 36.5t-24.5 65.5q0 48 37.5 78.5t96.5 30.5t96.5 -30.5t37.5 -78.5q0 -38 -24.5 -66t-64.5 -36q47 -10 73 -38.5t26 -67.5
q0 -52 -39.5 -83.5t-104.5 -31.5q-64 0 -104 31.5zM838.5 256q26.5 22 26.5 57t-27 57.5t-70 22.5t-70.5 -22.5t-27.5 -57.5t27 -57t71 -28q44 6 70.5 28zM845.5 46q29.5 24 29.5 63q0 35 -28.5 58.5t-78.5 30.5q-50 -7 -78.5 -30.5t-28.5 -58.5q0 -39 30 -63t77 -24
q48 0 77.5 24z" />
    <glyph glyph-name="asterisk" unicode="*" horiz-adv-x="486" 
d="M112 324l102 140l-165 54l12 35l164 -54v173h36v-173l164 54l12 -35l-166 -54l102 -140l-29 -21l-101 141l-102 -141z" />
    <glyph glyph-name="backslash" unicode="\" horiz-adv-x="384" 
d="M18 704h45l303 -834h-44z" />
    <glyph glyph-name="periodcentered" unicode="&#xb7;" horiz-adv-x="236" 
d="M89.5 218.5q-11.5 11.5 -11.5 28.5t11.5 28.5t28.5 11.5t28.5 -11.5t11.5 -28.5t-11.5 -28.5t-28.5 -11.5t-28.5 11.5z" />
    <glyph glyph-name="bullet" unicode="&#x2022;" horiz-adv-x="480" 
d="M168 163.5q-33 19.5 -52.5 52.5t-19.5 72t19.5 72t52.5 52.5t72 19.5t72 -19.5t52.5 -52.5t19.5 -72t-19.5 -72t-52.5 -52.5t-72 -19.5t-72 19.5z" />
    <glyph glyph-name="colon" unicode=":" horiz-adv-x="252" 
d="M97.5 2.5q-11.5 11.5 -11.5 28.5t11.5 28.5t28.5 11.5t28.5 -11.5t11.5 -28.5t-11.5 -28.5t-28.5 -11.5t-28.5 11.5zM97.5 422.5q-11.5 11.5 -11.5 28.5t11.5 28.5t28.5 11.5t28.5 -11.5t11.5 -28.5t-11.5 -28.5t-28.5 -11.5t-28.5 11.5z" />
    <glyph glyph-name="comma" unicode="," horiz-adv-x="236" 
d="M48 -137q74 56 74 131q-18 -2 -31 9t-13 28t11 28.5t29 11.5q20 0 32.5 -17t12.5 -45q0 -50 -25.5 -94t-72.5 -75z" />
    <glyph glyph-name="ellipsis" unicode="&#x2026;" horiz-adv-x="960" 
d="M131.5 2.5q-11.5 11.5 -11.5 28.5t11.5 28.5t28.5 11.5t28.5 -11.5t11.5 -28.5t-11.5 -28.5t-28.5 -11.5t-28.5 11.5zM451.5 2.5q-11.5 11.5 -11.5 28.5t11.5 28.5t28.5 11.5t28.5 -11.5t11.5 -28.5t-11.5 -28.5t-28.5 -11.5t-28.5 11.5zM771.5 2.5
q-11.5 11.5 -11.5 28.5t11.5 28.5t28.5 11.5t28.5 -11.5t11.5 -28.5t-11.5 -28.5t-28.5 -11.5t-28.5 11.5z" />
    <glyph glyph-name="exclam" unicode="!" horiz-adv-x="252" 
d="M101 672h50l-5 -471h-40zM98.5 1.5q-10.5 10.5 -10.5 27.5q0 16 10.5 26.5t27.5 10.5t27 -10t10 -27t-10.5 -27.5t-26.5 -10.5q-17 0 -27.5 10.5z" />
    <glyph glyph-name="exclamdown" unicode="&#xa1;" horiz-adv-x="252" 
d="M99 427q-11 11 -11 27q0 17 11 27.5t27 10.5q17 0 27 -10.5t10 -27.5t-10.5 -27.5t-26.5 -10.5t-27 11zM106 282h40l5 -471h-50z" />
    <glyph glyph-name="numbersign" unicode="#" horiz-adv-x="646" 
d="M466 440v-208h118v-38h-118v-194h-40v194h-206v-194h-40v194h-118v38h118v208h-118v38h118v194h40v-194h206v194h40v-194h118v-38h-118zM426 440h-206v-208h206v208z" />
    <glyph glyph-name="period" unicode="." horiz-adv-x="236" 
d="M89.5 2.5q-11.5 11.5 -11.5 28.5t11.5 28.5t28.5 11.5t28.5 -11.5t11.5 -28.5t-11.5 -28.5t-28.5 -11.5t-28.5 11.5z" />
    <glyph glyph-name="question" unicode="?" horiz-adv-x="454" 
d="M191 212q0 42 20.5 73.5t61.5 73.5q40 41 60.5 72.5t20.5 72.5q0 61 -40 99.5t-102 38.5q-40 0 -77.5 -13.5t-78.5 -41.5l-20 36q85 61 181 61q54 0 96 -22.5t65.5 -62.5t23.5 -90q0 -51 -24 -88.5t-70 -83.5q-39 -40 -57.5 -67t-19.5 -61v-8h-40v11zM184 2
q-11 11 -11 28q0 16 10.5 26t27.5 10t27 -10t10 -26q0 -17 -10.5 -28t-26.5 -11t-27 11z" />
    <glyph glyph-name="questiondown" unicode="&#xbf;" horiz-adv-x="390" 
d="M208 427q-11 11 -11 27q0 17 11 27.5t27 10.5t26.5 -10.5t10.5 -27.5t-10.5 -27.5t-26.5 -10.5t-27 11zM133 -178.5q-42 22.5 -65.5 62.5t-23.5 90q0 51 23.5 88t69.5 84q39 40 57.5 67t19.5 61l1 8h40v-11q0 -42 -20.5 -73.5t-61.5 -73.5q-40 -41 -60.5 -72.5
t-20.5 -72.5q0 -61 39.5 -99.5t102.5 -38.5q75 0 156 55l20 -36q-87 -61 -182 -61q-53 0 -95 22.5z" />
    <glyph glyph-name="quotedbl" unicode="&#x22;" horiz-adv-x="378" 
d="M78 672h47l-4 -206h-38zM252 672h47l-4 -206h-38z" />
    <glyph glyph-name="quotesingle" unicode="'" horiz-adv-x="204" 
d="M78 672h47l-4 -206h-38z" />
    <glyph glyph-name="semicolon" unicode=";" horiz-adv-x="252" 
d="M56 -137q74 56 74 131q-18 -2 -31 9t-13 28t11 28.5t29 11.5q20 0 32.5 -17t12.5 -45q0 -50 -25.5 -94t-72.5 -75zM97.5 422.5q-11.5 11.5 -11.5 28.5t11.5 28.5t28.5 11.5t28.5 -11.5t11.5 -28.5t-11.5 -28.5t-28.5 -11.5t-28.5 11.5z" />
    <glyph glyph-name="slash" unicode="/" horiz-adv-x="384" 
d="M321 704h45l-304 -834h-44z" />
    <glyph glyph-name="underscore" unicode="_" horiz-adv-x="480" 
d="M0 -108h480v-40h-480v40z" />
    <glyph glyph-name="braceleft" unicode="{" horiz-adv-x="329" 
d="M168 -93.5q-37 37.5 -37 95.5q0 29 8 87q1 10 4 36.5t3 47.5q0 41 -25.5 68t-65.5 27h-16v40h16q40 0 65.5 27t25.5 68q0 21 -3 47t-4 35q-8 60 -8 89q0 58 37 95.5t94 37.5h24v-41h-16q-40 0 -66.5 -27.5t-26.5 -71.5q0 -25 6 -81q7 -51 7 -86q0 -40 -19 -70t-54 -42
q35 -12 54 -42t19 -70q0 -36 -7 -85q-6 -56 -6 -82q0 -44 26.5 -71.5t66.5 -27.5h16v-41h-24q-57 0 -94 37.5z" />
    <glyph glyph-name="braceright" unicode="}" horiz-adv-x="329" 
d="M42 -90h16q41 0 67.5 27.5t26.5 71.5q0 32 -7 81q-1 9 -4 36.5t-3 49.5q0 40 19.5 70t54.5 42q-35 12 -54.5 42t-19.5 70q0 23 3 50t4 35q7 49 7 82q0 44 -26.5 71.5t-67.5 27.5h-16v41h25q56 0 93.5 -37.5t37.5 -95.5q0 -29 -8 -87q-1 -10 -4 -36.5t-3 -47.5
q0 -41 25.5 -68t64.5 -27h16v-40h-16q-39 0 -64.5 -27t-25.5 -68q0 -21 3 -47t4 -35q8 -60 8 -89q0 -58 -37.5 -95.5t-93.5 -37.5h-25v41z" />
    <glyph glyph-name="bracketleft" unicode="[" horiz-adv-x="329" 
d="M116 707h170v-41h-125v-756h125v-41h-170v838z" />
    <glyph glyph-name="bracketright" unicode="]" horiz-adv-x="329" 
d="M42 -90h125v756h-125v41h170v-838h-170v41z" />
    <glyph glyph-name="parenleft" unicode="(" horiz-adv-x="329" 
d="M130 54.5q-43 110.5 -43 233.5q0 122 43 233t125 200l34 -25q-77 -82 -117 -186.5t-40 -221.5t40 -221.5t117 -186.5l-34 -25q-82 89 -125 199.5z" />
    <glyph glyph-name="parenright" unicode=")" horiz-adv-x="329" 
d="M39 -120q77 82 117 186.5t40 221.5t-40 221.5t-117 186.5l35 25q82 -88 124.5 -199t42.5 -234q0 -122 -42.5 -233t-124.5 -200z" />
    <glyph glyph-name="emdash" unicode="&#x2014;" horiz-adv-x="960" 
d="M29 267h902v-39h-902v39z" />
    <glyph glyph-name="endash" unicode="&#x2013;" horiz-adv-x="480" 
d="M29 267h422v-39h-422v39z" />
    <glyph glyph-name="hyphen" unicode="-" horiz-adv-x="320" 
d="M29 267h262v-39h-262v39z" />
    <glyph glyph-name="uni00AD" unicode="&#xad;" horiz-adv-x="320" 
d="M55 267h262v-39h-262v39z" />
    <glyph glyph-name="guillemotleft" unicode="&#xab;" horiz-adv-x="509" 
d="M31 235v25l197 219l29 -24l-178 -208l178 -207l-29 -24zM240 235v25l197 219l29 -24l-178 -208l178 -207l-29 -24z" />
    <glyph glyph-name="guillemotright" unicode="&#xbb;" horiz-adv-x="509" 
d="M42 40l179 207l-179 208l29 24l198 -219v-25l-198 -219zM251 40l179 207l-179 208l29 24l198 -219v-25l-198 -219z" />
    <glyph glyph-name="guilsinglleft" unicode="&#x2039;" horiz-adv-x="300" 
d="M31 235v25l197 219l29 -24l-178 -208l178 -207l-29 -24z" />
    <glyph glyph-name="guilsinglright" unicode="&#x203a;" horiz-adv-x="300" 
d="M42 40l179 207l-179 208l29 24l198 -219v-25l-198 -219z" />
    <glyph glyph-name="quotedblbase" unicode="&#x201e;" horiz-adv-x="413" 
d="M48 -137q74 56 74 131q-18 -2 -31 9t-13 28t11 28.5t29 11.5q20 0 32.5 -17t12.5 -45q0 -50 -25.5 -94t-72.5 -75zM225 -137q74 56 74 131q-18 -2 -31 9t-13 28t11 28.5t29 11.5q20 0 32.5 -17t12.5 -45q0 -50 -25.5 -94t-72.5 -75z" />
    <glyph glyph-name="quotedblleft" unicode="&#x201c;" horiz-adv-x="413" 
d="M85 468.5q-12 16.5 -12 45.5q0 50 25.5 94t72.5 75l17 -23q-74 -56 -74 -131q17 2 30.5 -9t13.5 -28t-11.5 -28.5t-28.5 -11.5q-21 0 -33 16.5zM263 468.5q-12 16.5 -12 45.5q0 50 25.5 94t72.5 75l17 -23q-74 -56 -74 -131q17 2 30.5 -9t13.5 -28t-11.5 -28.5
t-28.5 -11.5q-21 0 -33 16.5z" />
    <glyph glyph-name="quotedblright" unicode="&#x201d;" horiz-adv-x="413" 
d="M48 473q74 56 74 131q-18 -2 -31 9t-13 28t11 28.5t29 11.5q20 0 32.5 -17t12.5 -45q0 -50 -25.5 -94t-72.5 -75zM225 473q74 56 74 131q-18 -2 -31 9t-13 28t11 28.5t29 11.5q20 0 32.5 -17t12.5 -45q0 -50 -25.5 -94t-72.5 -75z" />
    <glyph glyph-name="quoteleft" unicode="&#x2018;" horiz-adv-x="236" 
d="M85 468.5q-12 16.5 -12 45.5q0 50 25.5 94t72.5 75l17 -23q-74 -56 -74 -131q17 2 30.5 -9t13.5 -28t-11.5 -28.5t-28.5 -11.5q-21 0 -33 16.5z" />
    <glyph glyph-name="quoteright" unicode="&#x2019;" horiz-adv-x="236" 
d="M48 473q74 56 74 131q-18 -2 -31 9t-13 28t11 28.5t29 11.5q20 0 32.5 -17t12.5 -45q0 -50 -25.5 -94t-72.5 -75z" />
    <glyph glyph-name="quotesinglbase" unicode="&#x201a;" horiz-adv-x="204" 
d="M48 -137q74 56 74 131q-18 -2 -31 9t-13 28t11 28.5t29 11.5q20 0 32.5 -17t12.5 -45q0 -50 -25.5 -94t-72.5 -75z" />
    <glyph glyph-name="uni2003" unicode="&#x2003;" horiz-adv-x="960" 
 />
    <glyph glyph-name="uni2002" unicode="&#x2002;" horiz-adv-x="480" 
 />
    <glyph glyph-name="uni200A" unicode="&#x200a;" horiz-adv-x="60" 
 />
    <glyph glyph-name="uni00A0" unicode="&#xa0;" horiz-adv-x="240" 
 />
    <glyph glyph-name="uni2009" unicode="&#x2009;" horiz-adv-x="192" 
 />
    <glyph glyph-name="cent" unicode="&#xa2;" horiz-adv-x="576" 
d="M299 85q-60 6 -106.5 39.5t-72 88.5t-25.5 123t25.5 123t72 88.5t106.5 39.5v149h42v-148q78 -2 151 -52l-22 -35q-64 47 -130 48v-426q66 1 130 48l22 -35q-72 -50 -151 -53v-147h-42v149zM300 546q-71 -12 -113.5 -69t-42.5 -141t42.5 -141t113.5 -69v420z" />
    <glyph glyph-name="currency" unicode="&#xa4;" horiz-adv-x="576" 
d="M66 143l81 82q-37 45 -37 111t37 111l-81 82l29 29l81 -82q44 38 112 38q67 0 111 -38l82 82l29 -29l-82 -82q38 -44 38 -111q0 -65 -38 -111l82 -82l-29 -29l-82 81q-45 -36 -111 -36t-111 36l-82 -81zM388 236.5q39 38.5 39 99.5t-39 100t-100 39t-100 -39t-39 -100
t39 -99.5t100 -38.5t100 38.5z" />
    <glyph glyph-name="dollar" unicode="$" horiz-adv-x="576" 
d="M267 37q-78 3 -177 43l13 39q97 -39 165 -42v246q-55 17 -91 33.5t-59.5 48t-23.5 81.5q0 63 47 103t126 45v166h42v-165q68 -4 157 -40l-13 -39q-85 35 -145 38v-237q57 -17 93 -34t60.5 -49t24.5 -84q0 -65 -48.5 -106.5t-128.5 -45.5v-166h-42v165zM268 594
q-58 -5 -92 -34.5t-34 -73.5q0 -48 32.5 -73t93.5 -44v225zM403 112q35 30 35 78q0 49 -33.5 75t-96.5 46v-234q60 5 95 35z" />
    <glyph glyph-name="Euro" unicode="&#x20ac;" horiz-adv-x="576" 
d="M260.5 21q-55.5 33 -93 93.5t-50.5 140.5h-80v34h77q-3 23 -3 47q0 36 4 63h-78v34h84q23 115 93.5 183t169.5 68q86 0 167 -45l-19 -35q-72 40 -144 40q-82 0 -140.5 -57.5t-77.5 -153.5h263v-34h-272q-3 -30 -3 -63q0 -17 2 -47h273v-34h-267q17 -103 76.5 -165
t145.5 -62q72 0 144 40l19 -35q-81 -45 -167 -45q-68 0 -123.5 33z" />
    <glyph glyph-name="florin" unicode="&#x192;" horiz-adv-x="576" 
d="M105 0l7 40q39 -11 68 -11q33 0 54.5 21t21.5 55v278h-105v39h105v148q0 51 33 82.5t84 31.5q38 0 84 -12l-8 -40q-38 11 -67 11q-33 0 -55 -21.5t-22 -54.5v-145h133v-39h-133v-281q0 -51 -32.5 -82.5t-83.5 -31.5q-39 0 -84 12z" />
    <glyph glyph-name="sterling" unicode="&#xa3;" horiz-adv-x="576" 
d="M74 40h106v284h-90v40h90v146q0 51 24 90.5t66.5 61.5t97.5 22q63 0 138 -29l-13 -38q-63 26 -118 26q-65 0 -105 -37.5t-40 -98.5v-143h198v-40h-198v-284h288v-40h-444v40z" />
    <glyph glyph-name="yen" unicode="&#xa5;" horiz-adv-x="576" 
d="M263 168h-173v36h173v111h-173v36h160l-210 321h54l194 -303l194 303h54l-210 -321h160v-36h-173v-111h173v-36h-173v-168h-50v168z" />
    <glyph glyph-name="cent.lf" horiz-adv-x="534" 
d="M278 85q-60 6 -106.5 39.5t-72 88.5t-25.5 123t25.5 123t72 88.5t106.5 39.5v149h42v-148q78 -2 151 -52l-22 -35q-64 47 -130 48v-426q66 1 130 48l22 -35q-72 -50 -151 -53v-147h-42v149zM279 546q-71 -12 -113.5 -69t-42.5 -141t42.5 -141t113.5 -69v420z" />
    <glyph glyph-name="dollar.lf" horiz-adv-x="503" 
d="M231 37q-78 3 -177 43l13 39q97 -39 165 -42v246q-55 17 -91 33.5t-59.5 48t-23.5 81.5q0 63 47 103t126 45v166h42v-165q68 -4 157 -40l-13 -39q-85 35 -145 38v-237q57 -17 93 -34t60.5 -49t24.5 -84q0 -65 -48.5 -106.5t-128.5 -45.5v-166h-42v165zM232 594
q-58 -5 -92 -34.5t-34 -73.5q0 -48 32.5 -73t93.5 -44v225zM367 112q35 30 35 78q0 49 -33.5 75t-96.5 46v-234q60 5 95 35z" />
    <glyph glyph-name="Euro.lf" horiz-adv-x="563" 
d="M253.5 21q-55.5 33 -93 93.5t-50.5 140.5h-80v34h77q-3 23 -3 47q0 36 4 63h-78v34h84q23 115 93.5 183t169.5 68q86 0 167 -45l-19 -35q-72 40 -144 40q-82 0 -140.5 -57.5t-77.5 -153.5h263v-34h-272q-3 -30 -3 -63q0 -17 2 -47h273v-34h-267q17 -103 76.5 -165
t145.5 -62q72 0 144 40l19 -35q-81 -45 -167 -45q-68 0 -123.5 33z" />
    <glyph glyph-name="sterling.lf" horiz-adv-x="563" 
d="M67 40h106v284h-90v40h90v146q0 51 24 90.5t66.5 61.5t97.5 22q63 0 138 -29l-13 -38q-63 26 -118 26q-65 0 -105 -37.5t-40 -98.5v-143h198v-40h-198v-284h288v-40h-444v40z" />
    <glyph glyph-name="yen.lf" 
d="M261 168h-173v36h173v111h-173v36h160l-210 321h54l194 -303l194 303h54l-210 -321h160v-36h-173v-111h173v-36h-173v-168h-50v168z" />
    <glyph glyph-name="dotmath" unicode="&#x22c5;" horiz-adv-x="236" 
d="M89.5 218.5q-11.5 11.5 -11.5 28.5t11.5 28.5t28.5 11.5t28.5 -11.5t11.5 -28.5t-11.5 -28.5t-28.5 -11.5t-28.5 11.5z" />
    <glyph glyph-name="plus" unicode="+" horiz-adv-x="576" 
d="M267 267h-209v42h209v209h42v-209h209v-42h-209v-209h-42v209z" />
    <glyph glyph-name="minus" unicode="&#x2212;" horiz-adv-x="576" 
d="M58 309h460v-42h-460v42z" />
    <glyph glyph-name="multiply" unicode="&#xd7;" horiz-adv-x="576" 
d="M88 117l171 171l-171 171l29 29l171 -171l171 171l29 -29l-171 -171l171 -171l-29 -29l-171 171l-171 -171z" />
    <glyph glyph-name="divide" unicode="&#xf7;" horiz-adv-x="576" 
d="M265 457q-9 9 -9 23t9 23t23 9t23 -8.5t9 -23.5q0 -14 -9 -23t-23 -9t-23 9zM58 308h460v-40h-460v40zM265 73q-9 9 -9 23t9 23t23 9t23 -9t9 -23t-9 -23t-23 -9t-23 9z" />
    <glyph glyph-name="equal" unicode="=" horiz-adv-x="576" 
d="M58 411h460v-42h-460v42zM58 207h460v-42h-460v42z" />
    <glyph glyph-name="notequal" unicode="&#x2260;" horiz-adv-x="576" 
d="M138 35l66 132h-146v42h167l79 158h-246v42h267l75 151l38 -19l-67 -132h147v-42h-168l-78 -158h246v-42h-267l-75 -150z" />
    <glyph glyph-name="greater" unicode="&#x3e;" horiz-adv-x="576" 
d="M54 99l407 189l-407 189l17 40l447 -208v-42l-447 -208z" />
    <glyph glyph-name="less" unicode="&#x3c;" horiz-adv-x="576" 
d="M58 267v42l447 208l17 -40l-407 -189l407 -189l-17 -40z" />
    <glyph glyph-name="greaterequal" unicode="&#x2265;" horiz-adv-x="576" 
d="M54 167l407 189l-407 190l17 39l447 -208v-42l-447 -208zM58 42h460v-42h-460v42z" />
    <glyph glyph-name="lessequal" unicode="&#x2264;" horiz-adv-x="576" 
d="M58 335v42l447 208l17 -39l-407 -190l407 -189l-17 -40zM58 42h460v-42h-460v42z" />
    <glyph glyph-name="plusminus" unicode="&#xb1;" horiz-adv-x="576" 
d="M267 335h-209v42h209v209h42v-209h209v-42h-209v-209h-42v209zM58 42h460v-42h-460v42z" />
    <glyph glyph-name="approxequal" unicode="&#x2248;" horiz-adv-x="576" 
d="M335.5 351.5q-23.5 6.5 -51.5 18.5q-32 12 -51 17.5t-44 5.5q-61 0 -112 -45l-25 34q61 53 137 53q28 0 51.5 -6.5t51.5 -18.5q32 -12 51 -17.5t44 -5.5q32 0 59.5 11t52.5 34l25 -35q-61 -52 -137 -52q-28 0 -51.5 6.5zM335.5 147.5q-23.5 6.5 -51.5 18.5
q-32 12 -51 17.5t-44 5.5q-32 0 -59.5 -11t-52.5 -34l-25 35q61 52 137 52q28 0 51.5 -6.5t51.5 -18.5q32 -12 51 -17.5t44 -5.5q61 0 112 45l25 -34q-61 -53 -137 -53q-28 0 -51.5 6.5z" />
    <glyph glyph-name="logicalnot" unicode="&#xac;" horiz-adv-x="576" 
d="M476 267h-418v42h460v-251h-42v209z" />
    <glyph glyph-name="asciitilde" unicode="~" horiz-adv-x="576" 
d="M335.5 249.5q-23.5 6.5 -51.5 18.5q-32 12 -51 17.5t-44 5.5q-32 0 -59.5 -11t-52.5 -34l-25 34q61 53 137 53q28 0 51.5 -6.5t51.5 -18.5q32 -12 51 -17.5t44 -5.5q32 0 59.5 11t52.5 34l25 -34q-61 -53 -137 -53q-28 0 -51.5 6.5z" />
    <glyph glyph-name="infinity" unicode="&#x221e;" horiz-adv-x="777" 
d="M86.5 155.5q-44.5 51.5 -44.5 132.5q0 80 44.5 132t117.5 52q58 0 100 -35t84 -113q42 78 84 113t100 35q73 0 117.5 -51.5t44.5 -132.5t-44.5 -132.5t-117.5 -51.5q-58 0 -100 35t-84 113q-42 -78 -84 -113t-100 -35q-73 0 -117.5 51.5zM292 178q35 34 74 110
q-39 76 -74 110t-83 34q-55 0 -88.5 -40.5t-33.5 -103.5q0 -64 33.5 -104t88.5 -40q48 0 83 34zM656.5 184.5q33.5 40.5 33.5 103.5q0 64 -33.5 104t-89.5 40q-48 0 -83 -34t-73 -110q38 -76 73 -110t83 -34q56 0 89.5 40.5z" />
    <glyph glyph-name="integral" unicode="&#x222b;" horiz-adv-x="393" 
d="M94 -207l11 39q26 -11 54 -11q37 0 61 31.5t24 81.5q0 59 -18 129t-53 176q-37 115 -55 186t-18 134q0 69 36 113t92 44q36 0 71 -13l-12 -39q-25 11 -53 11q-37 0 -61 -31.5t-24 -81.5q0 -59 17.5 -127t52.5 -178q37 -115 55 -186t18 -134q0 -69 -35.5 -113t-91.5 -44
q-36 0 -71 13z" />
    <glyph glyph-name="uni2126" unicode="&#x2126;" horiz-adv-x="777" 
d="M58 41h197q-88 57 -133.5 139t-45.5 181q0 94 39.5 167.5t110.5 114.5t162 41t162 -41t111 -114.5t40 -167.5q0 -99 -46 -181t-134 -139h197v-41h-263v35q96 60 146.5 141.5t50.5 182.5q0 83 -33.5 147.5t-93.5 100.5t-137 36t-136.5 -36t-93 -100.5t-33.5 -147.5
q0 -101 50 -182.5t147 -141.5v-35h-264v41z" />
    <glyph glyph-name="uni2206" unicode="&#x2206;" horiz-adv-x="663" 
d="M39 28l269 644h47l269 -644v-28h-585v28zM570 41l-238 572l-239 -572h477z" />
    <glyph glyph-name="product" unicode="&#x220f;" horiz-adv-x="777" 
d="M110 704h557v-912h-49v871h-459v-871h-49v912z" />
    <glyph glyph-name="summation" unicode="&#x2211;" horiz-adv-x="627" 
d="M49 -176l339 432l-323 416v32h518v-41h-452l305 -394v-26l-321 -410h484v-41h-550v32z" />
    <glyph glyph-name="radical" unicode="&#x221a;" horiz-adv-x="652" 
d="M187 151l-170 -54l-12 40l209 67l120 -352l250 858l41 -11l-265 -907h-50z" />
    <glyph glyph-name="partialdiff" unicode="&#x2202;" 
d="M161.5 21.5q-52.5 33.5 -82 93.5t-29.5 136q0 70 28.5 125.5t79.5 87t114 31.5q65 0 114.5 -30t76.5 -85q-6 146 -58 221t-146 75q-69 0 -141 -38l-18 37q82 41 162 41q123 0 187 -99t64 -311q0 -98 -28.5 -169.5t-81.5 -110t-123 -38.5q-66 0 -118.5 33.5zM376.5 60
q42.5 31 66 87t23.5 128q0 50 -24 91t-66 64.5t-95 23.5t-95 -26t-65.5 -73t-23.5 -106q0 -64 23.5 -114t65.5 -78t95 -28t95.5 31z" />
    <glyph glyph-name="uni00B5" unicode="&#xb5;" horiz-adv-x="596" 
d="M87 483h48v-313q0 -63 40.5 -102t103.5 -39q47 0 84.5 22.5t59 62.5t21.5 92v277h48v-405q0 -22 13 -35.5t35 -13.5q15 0 28 3l6 -39q-22 -5 -42 -5q-38 0 -61.5 22.5t-23.5 59.5v21q-23 -48 -67.5 -75.5t-101.5 -27.5q-49 0 -86 18.5t-57 53.5v-268h-48v691z" />
    <glyph glyph-name="percent" unicode="%" horiz-adv-x="864" 
d="M127 347q-36 23 -56.5 64t-20.5 93t20.5 93t56.5 64t82 23t82.5 -23t57 -64t20.5 -93t-20.5 -93t-57 -64t-82.5 -23t-82 23zM662 672h44l-504 -672h-44zM296.5 397.5q33.5 40.5 33.5 106.5q0 65 -33.5 106t-87.5 41q-53 0 -86.5 -41t-33.5 -106q0 -66 33.5 -106.5
t86.5 -40.5q54 0 87.5 40.5zM572.5 11q-36.5 23 -57 64t-20.5 93t20.5 93t57 64t82.5 23t82 -23t56.5 -64t20.5 -93t-20.5 -93t-56.5 -64t-82 -23t-82.5 23zM741.5 61.5q33.5 40.5 33.5 106.5q0 65 -33.5 106t-86.5 41q-54 0 -87.5 -41t-33.5 -106q0 -66 33.5 -106.5
t87.5 -40.5q53 0 86.5 40.5z" />
    <glyph glyph-name="perthousand" unicode="&#x2030;" horiz-adv-x="1241" 
d="M127 347q-36 23 -56.5 64t-20.5 93t20.5 93t56.5 64t82 23t82.5 -23t57 -64t20.5 -93t-20.5 -93t-57 -64t-82.5 -23t-82 23zM662 672h44l-504 -672h-44zM296.5 397.5q33.5 40.5 33.5 106.5q0 65 -33.5 106t-87.5 41q-53 0 -86.5 -41t-33.5 -106q0 -66 33.5 -106.5
t86.5 -40.5q54 0 87.5 40.5zM572.5 11q-36.5 23 -57 64t-20.5 93t20.5 93t57 64t82.5 23t82 -23t56.5 -64t20.5 -93t-20.5 -93t-56.5 -64t-82 -23t-82.5 23zM949 11q-36 23 -56.5 64t-20.5 93t20.5 93t56.5 64t82 23t82 -23t56.5 -64t20.5 -93t-20.5 -93t-56.5 -64t-82 -23
t-82 23zM741.5 61.5q33.5 40.5 33.5 106.5q0 65 -33.5 106t-86.5 41q-54 0 -87.5 -41t-33.5 -106q0 -66 33.5 -106.5t87.5 -40.5q53 0 86.5 40.5zM1118.5 61.5q33.5 40.5 33.5 106.5q0 65 -34 106t-87 41t-87 -41t-34 -106q0 -66 33.5 -106.5t87.5 -40.5t87.5 40.5z" />
    <glyph glyph-name="arrowup" unicode="&#x2191;" horiz-adv-x="960" 
d="M458 654l-259 -264l-32 33l313 313l313 -313l-32 -33l-259 264v-814h-44v814z" />
    <glyph glyph-name="arrowright" unicode="&#x2192;" horiz-adv-x="960" 
d="M582 7l264 259h-814v44h814l-264 259l33 32l313 -313l-313 -313z" />
    <glyph glyph-name="arrowdown" unicode="&#x2193;" horiz-adv-x="960" 
d="M167 153l32 33l259 -264v814h44v-814l259 264l32 -33l-313 -313z" />
    <glyph glyph-name="arrowleft" unicode="&#x2190;" horiz-adv-x="960" 
d="M32 288l313 313l33 -32l-264 -259h814v-44h-814l264 -259l-33 -32z" />
    <glyph glyph-name="lozenge" unicode="&#x25ca;" horiz-adv-x="576" 
d="M52 336l215 336h42l215 -336l-215 -336h-42zM473 336l-185 290l-185 -290l185 -292z" />
    <glyph glyph-name="uniF8FF" unicode="&#xf8ff;" horiz-adv-x="591" 
d="M100 659h391v-65h-326v-529h73v-65h-138v659zM230 267h196v66h-196v195h261v-65h-196v-65h196v-196h-261v65z" />
    <glyph glyph-name="at" unicode="@" horiz-adv-x="966" 
d="M268.5 -147q-99.5 57 -155.5 158t-56 230t56 230.5t156 158.5t226 57q119 0 213.5 -50.5t147.5 -141t53 -204.5q0 -79 -22.5 -139.5t-64 -94.5t-94.5 -34q-42 0 -70.5 25t-33.5 65q-23 -43 -62 -66.5t-91 -23.5q-54 0 -97 28t-67 78t-24 112q0 63 24 112.5t67 77.5t97 28
q50 0 87.5 -22.5t58.5 -63.5l5 76h40v-308q0 -36 18.5 -58t51.5 -22q40 0 70.5 28.5t47.5 80t17 118.5q0 105 -48 186.5t-132.5 127.5t-191.5 46q-115 0 -205 -52t-140.5 -144.5t-50.5 -210.5t50.5 -210.5t140.5 -144.5t205 -52q116 0 249 74l20 -34q-147 -78 -269 -78
q-127 0 -226.5 57zM578 103.5q37 40.5 37 102.5v71q0 62 -37 102.5t-98 40.5q-43 0 -77 -23t-53.5 -63.5t-19.5 -92.5q0 -51 19.5 -91.5t53.5 -63.5t77 -23q61 0 98 40.5z" />
    <glyph glyph-name="ampersand" unicode="&#x26;" horiz-adv-x="633" 
d="M153.5 12.5q-49.5 24.5 -77 68t-27.5 98.5q0 60 41 110.5t123 93.5q-47 48 -69.5 83.5t-22.5 76.5q0 62 44 101.5t114 39.5q65 0 107.5 -37t42.5 -95q0 -50 -34.5 -90.5t-117.5 -87.5l198 -213q44 73 44 162h42q0 -52 -14.5 -102t-41.5 -92l119 -129h-56l-93 100
q-43 -54 -97.5 -83t-112.5 -29q-62 0 -111.5 24.5zM354.5 475.5q30.5 33.5 30.5 73.5q0 42 -30 69t-76 27q-51 0 -82.5 -28.5t-31.5 -74.5q0 -34 21.5 -65.5t65.5 -74.5q72 40 102.5 73.5zM365 53.5q47 26.5 83 75.5l-211 228q-71 -40 -107 -83t-36 -92q0 -45 22.5 -80
t62 -55t89.5 -20t97 26.5z" />
    <glyph glyph-name="paragraph" unicode="&#xb6;" 
d="M420 630h-109v-356h-46q-62 0 -111 25.5t-77 70.5t-28 103q0 57 28 102.5t77 71t111 25.5h197v-832h-42v790z" />
    <glyph glyph-name="section" unicode="&#xa7;" horiz-adv-x="521" 
d="M53 -128l12 39q104 -42 184 -42q71 0 113 30.5t42 83.5q0 38 -21.5 62.5t-53.5 38.5t-86 29q-62 19 -98 35.5t-62 48t-26 83.5q0 43 24 76.5t68 50.5q-76 41 -76 126q0 67 54 109t141 42q83 0 182 -41l-13 -39q-94 39 -166 39q-68 0 -109 -30t-41 -80q0 -37 21 -61
t52.5 -37t84.5 -29q62 -18 99.5 -35t63.5 -49.5t26 -85.5q0 -43 -23 -76t-64 -52q71 -43 71 -125q0 -71 -55 -113t-145 -42q-91 0 -199 44zM397 170q23 28 23 64q0 40 -22 65t-53.5 38.5t-85.5 29.5q-47 14 -61 19q-43 -11 -68 -39t-25 -65q0 -39 21 -63.5t52.5 -38
t83.5 -28.5q41 -11 73 -24q39 14 62 42z" />
    <glyph glyph-name="copyright" unicode="&#xa9;" horiz-adv-x="832" 
d="M225.5 15q-83.5 47 -130.5 130.5t-47 190.5t47 190.5t130.5 130.5t190.5 47t190.5 -47t130.5 -130.5t47 -190.5t-47 -190.5t-130.5 -130.5t-190.5 -47t-190.5 47zM591 41q77 43 120 120t43 175t-43 175t-120 120t-175 43t-175 -43t-120 -120t-43 -175t43 -175t120 -120
t175 -43t175 43zM323 147.5q-46 27.5 -71.5 76.5t-25.5 112t25.5 112t71.5 76.5t105 27.5q71 0 137 -45l-19 -28q-54 39 -114 39q-74 0 -120 -50.5t-46 -131.5t46 -131.5t120 -50.5q60 0 114 39l19 -28q-66 -45 -137 -45q-59 0 -105 27.5z" />
    <glyph glyph-name="registered" unicode="&#xae;" horiz-adv-x="832" 
d="M225.5 15q-83.5 47 -130.5 130.5t-47 190.5t47 190.5t130.5 130.5t190.5 47t190.5 -47t130.5 -130.5t47 -190.5t-47 -190.5t-130.5 -130.5t-190.5 -47t-190.5 47zM591 41q77 43 120 120t43 175t-43 175t-120 120t-175 43t-175 -43t-120 -120t-43 -175t43 -175t120 -120
t175 -43t175 43zM286 544h153q57 0 94.5 -34t37.5 -88q0 -48 -30 -81t-78 -38l122 -175h-44l-115 171h-103v-171h-37v416zM435 330q44 0 71 25t27 66q0 40 -27 65.5t-71 25.5h-112v-182h112z" />
    <glyph glyph-name="uni2117" unicode="&#x2117;" horiz-adv-x="832" 
d="M225.5 15q-83.5 47 -130.5 130.5t-47 190.5t47 190.5t130.5 130.5t190.5 47t190.5 -47t130.5 -130.5t47 -190.5t-47 -190.5t-130.5 -130.5t-190.5 -47t-190.5 47zM591 41q77 43 120 120t43 175t-43 175t-120 120t-175 43t-175 -43t-120 -120t-43 -175t43 -175t120 -120
t175 -43t175 43zM295 544h152q60 0 98 -35.5t38 -93.5q0 -57 -38 -92.5t-98 -35.5h-115v-159h-37v416zM444 319q45 0 73.5 26.5t28.5 69.5t-28.5 70t-73.5 27h-112v-193h112z" />
    <glyph glyph-name="trademark" unicode="&#x2122;" horiz-adv-x="935" 
d="M175 639h-149v33h338v-33h-150v-383h-39v383zM465 672h40l157 -214l158 214h40v-416h-37v362l-149 -202h-24l-149 202v-362h-36v416z" />
    <glyph glyph-name="uni2105" unicode="&#x2105;" horiz-adv-x="838" 
d="M157 11l504 672l27 -22l-504 -672zM119.5 364.5q-36.5 21.5 -57 60t-20.5 86.5q0 49 20.5 87.5t56.5 60t82 21.5q52 0 108 -35l-17 -29q-43 31 -87 31q-55 0 -90 -38t-35 -98t35 -97.5t90 -37.5q44 0 87 29l17 -27q-53 -35 -108 -35q-45 0 -81.5 21.5zM522.5 39
q-44.5 47 -44.5 122q0 74 44.5 121t114.5 47t114.5 -47t44.5 -121q0 -75 -44.5 -122t-114.5 -47t-114.5 47zM723.5 63q33.5 38 33.5 98t-33.5 98t-86.5 38t-86.5 -38t-33.5 -98t33.5 -98t86.5 -38t86.5 38z" />
    <glyph glyph-name="degree" unicode="&#xb0;" horiz-adv-x="326" 
d="M82.5 488.5q-31.5 31.5 -31.5 80.5t31.5 80.5t80.5 31.5t80.5 -31.5t31.5 -80.5t-31.5 -80.5t-80.5 -31.5t-80.5 31.5zM221.5 510.5q22.5 22.5 22.5 58.5q0 35 -22.5 58t-58.5 23t-58.5 -23t-22.5 -58q0 -36 22.5 -58.5t58.5 -22.5t58.5 22.5z" />
    <glyph glyph-name="bar" unicode="|" horiz-adv-x="240" 
d="M99 736h42v-960h-42v960z" />
    <glyph glyph-name="brokenbar" unicode="&#xa6;" horiz-adv-x="240" 
d="M99 688h42v-384h-42v384zM99 208h42v-384h-42v384z" />
    <glyph glyph-name="dagger" unicode="&#x2020;" horiz-adv-x="486" 
d="M223 455h-178v39h178v178h39v-178h179v-39h-179v-455h-39v455z" />
    <glyph glyph-name="uni2113" unicode="&#x2113;" horiz-adv-x="366" 
d="M124.5 24.5q-37.5 36.5 -37.5 94.5v448q0 66 35 107.5t92 41.5q53 0 88 -41.5t35 -105.5q0 -83 -54 -162.5t-151 -141.5v-143q0 -41 26.5 -67t67.5 -26q33 0 74 11l8 -39q-43 -13 -88 -13q-58 0 -95.5 36.5zM254.5 431q43.5 65 43.5 134q0 48 -23 79t-60 31t-60 -30.5
t-23 -78.5v-255q79 55 122.5 120z" />
    <glyph glyph-name="daggerdbl" unicode="&#x2021;" horiz-adv-x="486" 
d="M223 178h-178v39h178v238h-178v39h178v178h39v-178h179v-39h-179v-238h179v-39h-179v-178h-39v178z" />
    <glyph glyph-name="estimated" unicode="&#x212e;" horiz-adv-x="960" 
d="M287.5 31.5q-88.5 47.5 -140 128.5t-51.5 176t51.5 176t140 128.5t192.5 47.5t192.5 -47.5t140 -128.5t51.5 -176q0 -11 -1 -16h-623v-196q44 -51 106.5 -79.5t133.5 -28.5q72 0 135 29.5t108 82.5h66q-54 -67 -135 -105.5t-174 -38.5q-104 0 -192.5 47.5zM720 352v196
q-45 51 -107.5 79.5t-132.5 28.5q-71 0 -133.5 -28.5t-106.5 -79.5v-196h480z" />
    <glyph glyph-name="uni2116" unicode="&#x2116;" horiz-adv-x="1161" 
d="M845.5 391q-44.5 47 -44.5 122q0 74 44.5 121t114.5 47t114.5 -47t44.5 -121q0 -75 -44.5 -122t-114.5 -47t-114.5 47zM110 672h49l444 -603v603h46v-672h-49l-444 603v-603h-46v672zM1046.5 415q33.5 38 33.5 98t-33.5 98t-86.5 38t-86.5 -38t-33.5 -98t33.5 -98
t86.5 -38t86.5 38zM804 270h312v-31h-312v31z" />
    <glyph glyph-name="asciicircum" unicode="^" horiz-adv-x="576" 
d="M59 222l208 450h42l208 -450l-40 -16l-189 409l-189 -409z" />
    <glyph glyph-name="uni2120" unicode="&#x2120;" horiz-adv-x="921" 
d="M44 280l12 31q69 -30 130 -30q49 0 78.5 21.5t29.5 57.5q0 27 -15 43.5t-37 26t-60 20.5q-45 14 -71 25.5t-44.5 34.5t-18.5 61q0 48 39 78.5t101 30.5q63 0 132 -28l-12 -31q-66 26 -118 26q-47 0 -75.5 -21.5t-28.5 -54.5q0 -26 14.5 -42t36.5 -25.5t60 -20.5
q44 -13 70.5 -25t45.5 -35.5t19 -62.5q0 -50 -39.5 -81t-104.5 -31q-73 0 -144 32zM451 672h40l158 -214l157 214h40v-416h-37v362l-148 -202h-25l-149 202v-362h-36v416z" />
    <glyph glyph-name="uni0308" unicode="&#x308;" horiz-adv-x="0" 
d="M-246 611.5q-10 9.5 -10 25.5t10 25.5t26 9.5t25.5 -9.5t9.5 -25.5t-9.5 -25.5t-25.5 -9.5t-26 9.5zM-45.5 611.5q-9.5 9.5 -9.5 25.5t9.5 25.5t25.5 9.5t26 -9.5t10 -25.5t-10 -25.5t-26 -9.5t-25.5 9.5z" />
    <glyph glyph-name="uni0307" unicode="&#x307;" horiz-adv-x="0" 
d="M-147 610.5q-10 10.5 -10 26.5q0 17 10 27t27 10q16 0 26.5 -10t10.5 -27q0 -16 -10.5 -26.5t-26.5 -10.5q-17 0 -27 10.5z" />
    <glyph glyph-name="gravecomb" unicode="&#x300;" horiz-adv-x="0" 
d="M-249 668l24 33l159 -110l-19 -28z" />
    <glyph glyph-name="acutecomb" unicode="&#x301;" horiz-adv-x="0" 
d="M-172 591l160 110l24 -33l-164 -105z" />
    <glyph glyph-name="uni030B" unicode="&#x30b;" horiz-adv-x="0" 
d="M-247 583l138 142l29 -29l-142 -138zM-70 583l138 142l29 -29l-141 -138z" />
    <glyph glyph-name="uni0302" unicode="&#x302;" horiz-adv-x="0" 
d="M-258 589l121 118h34l121 -118l-23 -25l-115 107l-115 -107z" />
    <glyph glyph-name="uni030C" unicode="&#x30c;" horiz-adv-x="0" 
d="M-258 686l23 24l115 -106l115 106l23 -24l-121 -119h-34z" />
    <glyph glyph-name="uni0306" unicode="&#x306;" horiz-adv-x="0" 
d="M-217 595.5q-39 36.5 -41 95.5h35q2 -42 31 -68.5t72 -26.5t72 26.5t31 68.5h35q-2 -59 -41 -95.5t-97 -36.5t-97 36.5z" />
    <glyph glyph-name="uni030A" unicode="&#x30a;" horiz-adv-x="0" 
d="M-187 571q-27 26 -27 66q0 41 26.5 66.5t67.5 25.5t67.5 -25.5t26.5 -66.5t-25.5 -66.5t-66.5 -25.5q-42 0 -69 26zM-72.5 590q17.5 18 17.5 47t-18 47t-47 18t-47 -18t-18 -47t19 -47t48 -18q28 0 45.5 18z" />
    <glyph glyph-name="tildecomb" unicode="&#x303;" horiz-adv-x="0" 
d="M-260 610q8 29 28.5 47t47.5 18q15 0 30 -5t40 -16q15 -7 29.5 -12.5t25.5 -5.5q16 0 27.5 10t17.5 29l34 -11q-8 -29 -28.5 -46.5t-47.5 -17.5q-15 0 -30 5t-40 16q-38 17 -55 17q-16 0 -28 -10t-17 -28z" />
    <glyph glyph-name="uni0304" unicode="&#x304;" horiz-adv-x="0" 
d="M-262 655h284v-36h-284v36z" />
    <glyph glyph-name="uni0326" unicode="&#x326;" horiz-adv-x="0" 
d="M-180 -248q62 48 62 110q-15 -2 -26 7.5t-11 25.5t9.5 25.5t25.5 9.5q18 0 29 -14.5t11 -39.5q0 -44 -22 -81.5t-63 -63.5z" />
    <glyph glyph-name="uni0327" unicode="&#x327;" horiz-adv-x="0" 
d="M-217 -204l11 31q39 -14 71 -14q28 0 46.5 13.5t18.5 36.5q0 22 -19 35.5t-48 13.5h-9l16 88h36l-11 -64q32 -3 53.5 -25t21.5 -52q0 -35 -28.5 -57t-72.5 -22t-86 16z" />
    <glyph glyph-name="uni0328" unicode="&#x328;" horiz-adv-x="0" 
d="M-208 -199q-24 21 -24 57q0 75 111 155l25 -13q-98 -76 -98 -135q0 -24 15.5 -38t38.5 -14q25 0 45 10l8 -31q-30 -12 -61 -12q-36 0 -60 21z" />
    <glyph glyph-name="uni0308.case" horiz-adv-x="0" 
d="M-246 800.5q-10 9.5 -10 25.5t10 25.5t26 9.5t25.5 -9.5t9.5 -25.5t-9.5 -25.5t-25.5 -9.5t-26 9.5zM-45.5 800.5q-9.5 9.5 -9.5 25.5t9.5 25.5t25.5 9.5t26 -9.5t10 -25.5t-10 -25.5t-26 -9.5t-25.5 9.5z" />
    <glyph glyph-name="uni0307.case" horiz-adv-x="0" 
d="M-147 799.5q-10 10.5 -10 26.5q0 17 10 27t27 10q16 0 26.5 -10t10.5 -27q0 -16 -10.5 -26.5t-26.5 -10.5q-17 0 -27 10.5z" />
    <glyph glyph-name="gravecomb.case" horiz-adv-x="0" 
d="M-249 857l24 33l159 -110l-19 -28z" />
    <glyph glyph-name="acutecomb.case" horiz-adv-x="0" 
d="M-172 780l160 110l24 -33l-164 -105z" />
    <glyph glyph-name="uni030B.case" horiz-adv-x="0" 
d="M-247 772l138 142l29 -29l-142 -138zM-70 772l138 142l29 -29l-141 -138z" />
    <glyph glyph-name="uni0302.case" horiz-adv-x="0" 
d="M-258 778l121 118h34l121 -118l-23 -25l-115 107l-115 -107z" />
    <glyph glyph-name="uni030C.case" horiz-adv-x="0" 
d="M-258 875l23 24l115 -106l115 106l23 -24l-121 -119h-34z" />
    <glyph glyph-name="uni0306.case" horiz-adv-x="0" 
d="M-217 784.5q-39 36.5 -41 95.5h35q2 -42 31 -68.5t72 -26.5t72 26.5t31 68.5h35q-2 -59 -41 -95.5t-97 -36.5t-97 36.5z" />
    <glyph glyph-name="uni030A.case" horiz-adv-x="0" 
d="M-187 760q-27 26 -27 66q0 41 26.5 66.5t67.5 25.5t67.5 -25.5t26.5 -66.5t-25.5 -66.5t-66.5 -25.5q-42 0 -69 26zM-72.5 779q17.5 18 17.5 47t-18 47t-47 18t-47 -18t-18 -47t19 -47t48 -18q28 0 45.5 18z" />
    <glyph glyph-name="tildecomb.case" horiz-adv-x="0" 
d="M-260 799q8 29 28.5 47t47.5 18q15 0 30 -5t40 -16q15 -7 29.5 -12.5t25.5 -5.5q16 0 27.5 10t17.5 29l34 -11q-8 -29 -28.5 -46.5t-47.5 -17.5q-15 0 -30 5t-40 16q-38 17 -55 17q-16 0 -28 -10t-17 -28z" />
    <glyph glyph-name="uni0304.case" horiz-adv-x="0" 
d="M-262 844h284v-36h-284v36z" />
    <glyph glyph-name="acutecomb.loclPLK" horiz-adv-x="0" 
d="M-151 564l51 141l38 -14l-56 -139z" />
    <glyph glyph-name="acutecomb.case.loclPLK" horiz-adv-x="0" 
d="M-151 759l51 141l38 -14l-56 -139z" />
    <glyph glyph-name="acute" unicode="&#xb4;" horiz-adv-x="240" 
d="M68 591l160 110l24 -33l-164 -105z" />
    <glyph glyph-name="breve" unicode="&#x2d8;" horiz-adv-x="240" 
d="M23 595.5q-39 36.5 -41 95.5h35q2 -42 31 -68.5t72 -26.5t72 26.5t31 68.5h35q-2 -59 -41 -95.5t-97 -36.5t-97 36.5z" />
    <glyph glyph-name="caron" unicode="&#x2c7;" horiz-adv-x="240" 
d="M-18 686l23 24l115 -106l115 106l23 -24l-121 -119h-34z" />
    <glyph glyph-name="cedilla" unicode="&#xb8;" horiz-adv-x="240" 
d="M23 -204l11 31q39 -14 71 -14q28 0 46.5 13.5t18.5 36.5q0 22 -19 35.5t-48 13.5h-9l16 88h36l-11 -64q32 -3 53.5 -25t21.5 -52q0 -35 -28.5 -57t-72.5 -22t-86 16z" />
    <glyph glyph-name="circumflex" unicode="&#x2c6;" horiz-adv-x="240" 
d="M-18 589l121 118h34l121 -118l-23 -25l-115 107l-115 -107z" />
    <glyph glyph-name="dieresis" unicode="&#xa8;" horiz-adv-x="240" 
d="M-6 611.5q-10 9.5 -10 25.5t10 25.5t26 9.5t25.5 -9.5t9.5 -25.5t-9.5 -25.5t-25.5 -9.5t-26 9.5zM194.5 611.5q-9.5 9.5 -9.5 25.5t9.5 25.5t25.5 9.5t26 -9.5t10 -25.5t-10 -25.5t-26 -9.5t-25.5 9.5z" />
    <glyph glyph-name="dotaccent" unicode="&#x2d9;" horiz-adv-x="240" 
d="M93.5 610.5q-10.5 10.5 -10.5 26.5q0 17 10.5 27t26.5 10q17 0 27 -10t10 -27q0 -16 -10 -26.5t-27 -10.5q-16 0 -26.5 10.5z" />
    <glyph glyph-name="grave" unicode="`" horiz-adv-x="240" 
d="M-9 668l24 33l159 -110l-19 -28z" />
    <glyph glyph-name="hungarumlaut" unicode="&#x2dd;" horiz-adv-x="240" 
d="M-7 583l138 142l29 -29l-142 -138zM170 583l138 142l29 -29l-141 -138z" />
    <glyph glyph-name="macron" unicode="&#xaf;" horiz-adv-x="240" 
d="M-22 655h284v-36h-284v36z" />
    <glyph glyph-name="ogonek" unicode="&#x2db;" horiz-adv-x="240" 
d="M32 -199q-24 21 -24 57q0 75 111 155l25 -13q-98 -76 -98 -135q0 -24 15.5 -38t38.5 -14q25 0 45 10l8 -31q-30 -12 -61 -12q-36 0 -60 21z" />
    <glyph glyph-name="ring" unicode="&#x2da;" horiz-adv-x="240" 
d="M53 571q-27 26 -27 66q0 41 26.5 66.5t67.5 25.5t67.5 -25.5t26.5 -66.5t-25.5 -66.5t-66.5 -25.5q-42 0 -69 26zM167.5 590q17.5 18 17.5 47t-18 47t-47 18t-47 -18t-18 -47t19 -47t48 -18q28 0 45.5 18z" />
    <glyph glyph-name="tilde" unicode="&#x2dc;" horiz-adv-x="240" 
d="M-20 610q8 29 28.5 47t47.5 18q15 0 30 -5t40 -16q15 -7 29.5 -12.5t25.5 -5.5q16 0 27.5 10t17.5 29l34 -11q-8 -29 -28.5 -46.5t-47.5 -17.5q-15 0 -30 5t-40 16q-38 17 -55 17q-16 0 -28 -10t-17 -28z" />
    <glyph glyph-name="acute.case" horiz-adv-x="240" 
d="M68 780l160 110l24 -33l-164 -105z" />
    <glyph glyph-name="breve.case" horiz-adv-x="240" 
d="M23 784.5q-39 36.5 -41 95.5h35q2 -42 31 -68.5t72 -26.5t72 26.5t31 68.5h35q-2 -59 -41 -95.5t-97 -36.5t-97 36.5z" />
    <glyph glyph-name="caron.case" horiz-adv-x="240" 
d="M-18 875l23 24l115 -106l115 106l23 -24l-121 -119h-34z" />
    <glyph glyph-name="circumflex.case" horiz-adv-x="240" 
d="M-18 778l121 118h34l121 -118l-23 -25l-115 107l-115 -107z" />
    <glyph glyph-name="dieresis.case" horiz-adv-x="240" 
d="M-6 800.5q-10 9.5 -10 25.5t10 25.5t26 9.5t25.5 -9.5t9.5 -25.5t-9.5 -25.5t-25.5 -9.5t-26 9.5zM194.5 800.5q-9.5 9.5 -9.5 25.5t9.5 25.5t25.5 9.5t26 -9.5t10 -25.5t-10 -25.5t-26 -9.5t-25.5 9.5z" />
    <glyph glyph-name="dotaccent.case" horiz-adv-x="240" 
d="M93.5 799.5q-10.5 10.5 -10.5 26.5q0 17 10.5 27t26.5 10q17 0 27 -10t10 -27q0 -16 -10 -26.5t-27 -10.5q-16 0 -26.5 10.5z" />
    <glyph glyph-name="grave.case" horiz-adv-x="240" 
d="M-9 857l24 33l159 -110l-19 -28z" />
    <glyph glyph-name="hungarumlaut.case" horiz-adv-x="240" 
d="M-7 772l138 142l29 -29l-142 -138zM170 772l138 142l29 -29l-141 -138z" />
    <glyph glyph-name="macron.case" horiz-adv-x="240" 
d="M-22 844h284v-36h-284v36z" />
    <glyph glyph-name="ring.case" horiz-adv-x="240" 
d="M53 760q-27 26 -27 66q0 41 26.5 66.5t67.5 25.5t67.5 -25.5t26.5 -66.5t-25.5 -66.5t-66.5 -25.5q-42 0 -69 26zM167.5 779q17.5 18 17.5 47t-18 47t-47 18t-47 -18t-18 -47t19 -47t48 -18q28 0 45.5 18z" />
    <glyph glyph-name="tilde.case" horiz-adv-x="240" 
d="M-20 799q8 29 28.5 47t47.5 18q15 0 30 -5t40 -16q15 -7 29.5 -12.5t25.5 -5.5q16 0 27.5 10t17.5 29l34 -11q-8 -29 -28.5 -46.5t-47.5 -17.5q-15 0 -30 5t-40 16q-38 17 -55 17q-16 0 -28 -10t-17 -28z" />
	g2="cent.lf"
	k="16" />
  </font>
</defs>
</svg>
