<?xml version="1.0" encoding="utf-8"?>
<!-- Generator: Adobe Illustrator 22.1.0, SVG Export Plug-In . SVG Version: 6.00 Build 0)  -->
<svg version="1.1" id="Layer_1" xmlns="http://www.w3.org/2000/svg" xmlns:xlink="http://www.w3.org/1999/xlink" x="0px" y="0px"
	 viewBox="0 0 1022 865" style="enable-background:new 0 0 1022 865;" xml:space="preserve">
<style type="text/css">
	.st0{fill:#D85855;}
	.st1{fill:#FFFFFF;}
	.st2{fill:#4D4D4D;}
	.st3{fill:#EC1C24;}
	.st4{font-family:'Times-Bold';}
	.st5{font-size:40px;}
	.st6{fill:#D7DADD;}
	.st7{fill:#14C2F3;}
	.st8{fill:#FDC662;}
	.st9{fill:#FAAF40;}
	.st10{fill:#999999;}
	.st11{fill:#915CA5;stroke:#FFFFFF;stroke-miterlimit:10;}
	.st12{fill:none;stroke:#8BC540;stroke-miterlimit:10;}
	.st13{fill:none;stroke:#E31837;stroke-linecap:round;stroke-linejoin:round;stroke-miterlimit:10;}
	.st14{fill:none;stroke:#3399D4;stroke-miterlimit:10;}
	.st15{fill:none;stroke:#3399D4;stroke-linecap:round;stroke-miterlimit:10;}
	.st16{clip-path:url(#SVGID_2_);}
	.st17{fill:#F4C295;}
	.st18{fill:#795648;}
	.st19{fill:#F8D5B0;}
	.st20{fill:#B8E4F1;}
	.st21{fill:#A6B2B2;}
	.st22{fill:#7E8C8D;}
	.st23{fill:#B3B3B3;}
	.st24{fill:#F15A24;}
	.st25{fill:none;stroke:#E6E6E6;stroke-miterlimit:10;}
	.st26{fill:#333333;}
</style>
<g>
	<path class="st0" d="M37.2,55.6L37.2,55.6c-10.5,0-19.2-8.6-19.2-19.2v0c0-10.5,8.6-19.2,19.2-19.2h0c10.5,0,19.2,8.6,19.2,19.2v0
		C56.4,47,47.8,55.6,37.2,55.6z"/>
	<path class="st1" d="M41.6,31.5C41.6,31.5,41.6,31.5,41.6,31.5c0-1.8-1-3.3-2.5-4c-0.2-0.8-0.9-1.5-1.8-1.5c-0.9,0-1.6,0.6-1.8,1.5
		c-1.5,0.7-2.5,2.2-2.5,4c0,0,0,0.1,0,0.1c-0.2,4.3-2.1,7.9-4.6,9.1v1.7h5.6h1.6c0,0.1,0,0.2,0,0.3c0,1,0.8,1.9,1.9,1.9
		c1,0,1.9-0.8,1.9-1.9c0-0.1,0-0.2,0-0.3h1.6h5.6v-1.7C43.7,39.4,41.7,35.8,41.6,31.5z"/>
</g>
<g>
	<path class="st2" d="M154.6,58c-9.2,0-17.3-6.6-18.9-16c-0.8-5,0.3-10.1,3.3-14.3s7.4-7,12.4-7.8c10.4-1.8,20.4,5.3,22.1,15.7
		c1.8,10.4-5.3,20.4-15.7,22.1l0,0C156.7,57.9,155.7,58,154.6,58z M157.6,56.8l0.1,0.5L157.6,56.8c9.9-1.7,16.6-11.1,14.9-21
		c-1.7-9.9-11.1-16.6-21-14.9c-4.8,0.8-9,3.4-11.8,7.4s-3.9,8.8-3.1,13.6C138.3,51.7,147.8,58.4,157.6,56.8z"/>
	<g>
		<g>
			<g>
				<path class="st2" d="M154.7,38.8c-3,0-5.5-2.5-5.5-5.5s2.5-5.5,5.5-5.5s5.5,2.5,5.5,5.5S157.8,38.8,154.7,38.8z M154.7,28.7
					c-2.5,0-4.5,2-4.5,4.5c0,2.5,2,4.5,4.5,4.5s4.5-2,4.5-4.5C159.2,30.8,157.2,28.7,154.7,28.7z"/>
				<path class="st2" d="M163.9,48.3h-1c0-4.5-3.7-8.1-8.1-8.1s-8.1,3.7-8.1,8.1h-1c0-5,4.1-9.1,9.1-9.1S163.9,43.3,163.9,48.3z"/>
			</g>
		</g>
	</g>
</g>
<g>
	<path class="st2" d="M160.2,120.3c-0.4,0-0.7,0-1.1-0.1c-2.6-0.3-4.8-1.5-6.4-3.5l0,0c-3.3-4.1-2.6-10.2,1.5-13.5
		c2-1.6,4.5-2.3,7.1-2c2.6,0.3,4.8,1.5,6.4,3.5s2.3,4.5,2,7.1c-0.3,2.6-1.5,4.8-3.5,6.4C164.4,119.6,162.4,120.3,160.2,120.3z
		 M153.5,116.1c1.4,1.8,3.5,2.9,5.8,3.2c2.3,0.3,4.5-0.4,6.3-1.8c1.8-1.4,2.9-3.5,3.2-5.8c0.3-2.3-0.4-4.5-1.8-6.3
		c-3-3.7-8.4-4.3-12.1-1.4C151.1,107,150.5,112.4,153.5,116.1L153.5,116.1z"/>
	
		<rect x="139.9" y="120.5" transform="matrix(0.7822 -0.623 0.623 0.7822 -43.3245 118.1254)" class="st2" width="14.8" height="1"/>
</g>
<g>
	<g>
		<g>
			<ellipse class="st2" cx="140" cy="651.7" rx="4" ry="4.1"/>
		</g>
	</g>
	<g>
		<g>
			<ellipse class="st2" cx="152.5" cy="651.7" rx="4" ry="4.1"/>
		</g>
	</g>
	<g>
		<g>
			<ellipse class="st2" cx="165.1" cy="651.7" rx="4" ry="4.1"/>
		</g>
	</g>
</g>
<g>
	<path class="st2" d="M156.9,437c-8.5,0-15.5-7-15.5-15.5c0-8.5,7-15.5,15.5-15.5s15.5,7,15.5,15.5C172.4,430,165.5,437,156.9,437z
		 M156.9,407c-8,0-14.5,6.5-14.5,14.5c0,8,6.5,14.5,14.5,14.5s14.5-6.5,14.5-14.5C171.4,413.5,164.9,407,156.9,407z"/>
	<g>
		<path class="st2" d="M158.8,422c-0.1,0-0.3,0-0.4-0.1l-6.7-6.7c-0.2-0.2-0.2-0.5,0-0.7s0.5-0.2,0.7,0l6.7,6.7
			c0.2,0.2,0.2,0.5,0,0.7C159.1,421.9,159,422,158.8,422z"/>
		<path class="st2" d="M158.8,432.4c-0.3,0-0.5-0.2-0.5-0.5v-10.5c0-0.3,0.2-0.5,0.5-0.5s0.5,0.2,0.5,0.5v10.5
			C159.3,432.2,159.1,432.4,158.8,432.4z"/>
	</g>
</g>
<g>
	<path class="st2" d="M278.5,131.5h-18.2V101h23.1v24.9h-4.9V131.5z M261.3,130.5h16.2v-5.6h4.9V102h-21.1V130.5z"/>
	
		<rect x="276.6" y="128.1" transform="matrix(0.7071 -0.7071 0.7071 0.7071 -8.8353 235.8576)" class="st2" width="7.3" height="1"/>
</g>
<g>
	<path class="st2" d="M163.8,521c-0.1,0-0.2,0-0.3-0.1l-6.3-5.2c-0.2-0.2-0.2-0.5-0.1-0.7c0.2-0.2,0.5-0.2,0.7-0.1l5.3,4.4l-0.6-3.9
		c0-0.3,0.1-0.5,0.4-0.6c0.3,0,0.5,0.1,0.6,0.4l0.8,5.2c0,0.2-0.1,0.4-0.2,0.5C164,521,163.9,521,163.8,521z"/>
	<path class="st2" d="M138.6,516.7c-0.1,0-0.2,0-0.3-0.1c-0.2-0.1-0.3-0.3-0.2-0.5l1.3-6.4c0.1-0.3,0.3-0.4,0.6-0.4
		c0.3,0.1,0.4,0.3,0.4,0.6l-1,5.1l7.2-5.6c0.2-0.2,0.5-0.1,0.7,0.1c0.2,0.2,0.1,0.5-0.1,0.7l-8.3,6.4
		C138.8,516.7,138.7,516.7,138.6,516.7z"/>
	<path class="st2" d="M156.1,510.1h-8.9c-0.3,0-0.5-0.2-0.5-0.5s0.2-0.5,0.5-0.5h8.4v-13.4h-21.5v13.4h5.5c0.3,0,0.5,0.2,0.5,0.5
		s-0.2,0.5-0.5,0.5h-6c-0.3,0-0.5-0.2-0.5-0.5v-14.4c0-0.3,0.2-0.5,0.5-0.5h22.5c0.3,0,0.5,0.2,0.5,0.5v14.4
		C156.6,509.9,156.4,510.1,156.1,510.1z"/>
	<path class="st2" d="M157.3,515.7h-6.5c-0.3,0-0.5-0.2-0.5-0.5v-5.6c0-0.3,0.2-0.5,0.5-0.5s0.5,0.2,0.5,0.5v5.1h6
		c0.3,0,0.5,0.2,0.5,0.5S157.6,515.7,157.3,515.7z"/>
	<path class="st2" d="M168.9,515.7H163c-0.3,0-0.5-0.2-0.5-0.5s0.2-0.5,0.5-0.5h5.3v-10.5h-12.2c-0.3,0-0.5-0.2-0.5-0.5
		s0.2-0.5,0.5-0.5h12.7c0.3,0,0.5,0.2,0.5,0.5v11.5C169.4,515.5,169.1,515.7,168.9,515.7z"/>
</g>
<g>
	<g>
		<path class="st2" d="M165.3,204.7h-25.6c-3,0-5.5-2.5-5.5-5.5v-12.9c0-3,2.5-5.5,5.5-5.5h25.6c3,0,5.5,2.5,5.5,5.5v12.9
			C170.8,202.2,168.3,204.7,165.3,204.7z M139.7,181.7c-2.5,0-4.5,2-4.5,4.5v12.9c0,2.5,2,4.5,4.5,4.5h25.6c2.5,0,4.5-2,4.5-4.5
			v-12.9c0-2.5-2-4.5-4.5-4.5H139.7z"/>
	</g>
	<rect x="143.4" y="188.3" class="st2" width="12.5" height="1"/>
	<rect x="143.4" y="192" class="st2" width="12.5" height="1"/>
	<rect x="143.4" y="195.6" class="st2" width="20.5" height="1"/>
</g>
<path class="st2" d="M156.4,358.2l-0.8-0.2l-0.1-0.1l-6.9-7.4c-1-1.1-1.5-2.5-1.5-3.9c0-3.1,2.4-5.6,5.3-5.6c1.3,0,2.5,0.5,3.5,1.4
	c1-0.9,2.2-1.4,3.5-1.4c2.9,0,5.3,2.5,5.3,5.6c0,1.5-0.5,2.8-1.5,3.9l-0.1,0.1l-6.7,7.1V358.2z M152.4,342c-2.4,0-4.3,2.1-4.3,4.6
	c0,1.2,0.4,2.4,1.2,3.2l0.1,0.1l6.5,6.9l6.6-7c0.8-0.9,1.2-2,1.2-3.2c0-2.6-1.9-4.6-4.3-4.6c-1.2,0-2.3,0.5-3.1,1.4l-0.4,0.4
	l-0.4-0.4C154.7,342.5,153.6,342,152.4,342z"/>
<g>
	<polygon class="st2" points="272.1,199.5 260.7,186.9 261.5,186.2 272.1,198 282.7,186.2 283.4,186.9 	"/>
</g>
<g>
	<polygon class="st2" points="261.5,272 260.7,271.4 272.1,258.8 283.4,271.4 282.7,272 272.1,260.3 	"/>
</g>
<g>
	<polygon class="st2" points="266.3,350 265.6,349.2 277.4,338.6 265.6,328 266.3,327.3 278.9,338.6 	"/>
</g>
<g>
	<polygon class="st2" points="277.8,423 265.2,411.6 277.8,400.3 278.5,401 266.7,411.6 278.5,422.2 	"/>
</g>
<g>
	<text transform="matrix(1 0 0 1 31.9463 353.8632)" class="st3 st4 st5">!</text>
</g>
<g>
	<path class="st6" d="M10.3,731.9L10.3,731.9c-1,0-1.8-0.8-1.8-1.8v-11.3c0-1,0.8-1.8,1.8-1.8h0c1,0,1.8,0.8,1.8,1.8v11.3
		C12,731.1,11.2,731.9,10.3,731.9z"/>
	<path class="st6" d="M17.3,731.9L17.3,731.9c-1,0-1.8-0.8-1.8-1.8v-15.9c0-1,0.8-1.8,1.8-1.8h0c1,0,1.8,0.8,1.8,1.8v15.9
		C19.1,731.1,18.3,731.9,17.3,731.9z"/>
	<path class="st6" d="M24.4,731.9L24.4,731.9c-1,0-1.8-0.8-1.8-1.8v-19.2c0-1,0.8-1.8,1.8-1.8h0c1,0,1.8,0.8,1.8,1.8v19.2
		C26.2,731.1,25.4,731.9,24.4,731.9z"/>
	<path class="st6" d="M31.5,731.9L31.5,731.9c-1,0-1.8-0.8-1.8-1.8v-17.6c0-1,0.8-1.8,1.8-1.8h0c1,0,1.8,0.8,1.8,1.8v17.6
		C33.3,731.1,32.5,731.9,31.5,731.9z"/>
	<path class="st6" d="M38.6,731.9L38.6,731.9c-1,0-1.8-0.8-1.8-1.8v-22.2c0-1,0.8-1.8,1.8-1.8h0c1,0,1.8,0.8,1.8,1.8v22.2
		C40.4,731.1,39.6,731.9,38.6,731.9z"/>
	<path class="st7" d="M45.7,731.9L45.7,731.9c-1,0-1.8-0.8-1.8-1.8v-26.3c0-1,0.8-1.8,1.8-1.8h0c1,0,1.8,0.8,1.8,1.8v26.3
		C47.5,731.1,46.7,731.9,45.7,731.9z"/>
	<path class="st6" d="M52.8,731.9L52.8,731.9c-1,0-1.8-0.8-1.8-1.8v-22.2c0-1,0.8-1.8,1.8-1.8h0c1,0,1.8,0.8,1.8,1.8v22.2
		C54.5,731.1,53.7,731.9,52.8,731.9z"/>
	<path class="st6" d="M59.8,731.9L59.8,731.9c-1,0-1.8-0.8-1.8-1.8l0-22.2c0-1,0.8-1.8,1.8-1.8h0c1,0,1.8,0.8,1.8,1.8v22.2
		C61.6,731.1,60.8,731.9,59.8,731.9z"/>
	<path class="st8" d="M66.9,731.9L66.9,731.9c-1,0-1.8-0.8-1.8-1.8v-21.2c0-1,0.8-1.8,1.8-1.8h0c1,0,1.8,0.8,1.8,1.8v21.2
		C68.7,731.1,67.9,731.9,66.9,731.9z"/>
</g>
<g>
	<g>
		<path class="st7" d="M43.3,392.2v3.6c8.6,0,15.6,7,15.6,15.6c0,8.6-7,15.6-15.6,15.6c-8.6,0-15.6-7-15.6-15.6h-3.6
			c0,10.6,8.6,19.2,19.2,19.2c10.6,0,19.2-8.6,19.2-19.2C62.5,400.8,53.9,392.2,43.3,392.2z"/>
		<circle class="st7" cx="43.2" cy="394" r="1.8"/>
		<circle class="st7" cx="25.9" cy="411.6" r="1.8"/>
	</g>
	<path class="st6" d="M43.7,385.7L43.7,385.7C43.7,385.7,43.7,385.7,43.7,385.7c-1,0-1.8,0.8-1.8,1.7c0,1,0.8,1.7,1.7,1.7
		c0,0,0.1,0,0.1,0v0c12.1,0.2,21.8,10.1,21.8,22.2c0,12.3-10,22.2-22.2,22.2S21,423.7,21,411.4c0-3.3,0.7-6.4,2-9.2
		c0.1-0.2,0.2-0.5,0.2-0.8c0-1-0.8-1.8-1.8-1.8c-0.7,0-1.3,0.4-1.5,0.9l0,0c-1.5,3.3-2.4,7-2.4,10.8c0,14.2,11.5,25.7,25.7,25.7
		S69,425.6,69,411.4C69,397.4,57.7,386,43.7,385.7z"/>
</g>
<g>
	<path class="st7" d="M36.7,478.3c0.5-2.7,2.8-4.8,5.7-4.8c2.8,0,5.2,2,5.7,4.7c1,0.2,2.1,0.5,3,0.8c-0.1-4.7-4-8.5-8.7-8.5
		c-4.7,0-8.6,3.8-8.7,8.5C34.6,478.8,35.6,478.5,36.7,478.3z"/>
	<path class="st7" d="M64.7,494.2c-0.1,0-0.2,0-0.4,0c-1.9-8.1-11-14.3-22-14.3c-9.7,0-18,4.8-21.1,11.6h-1.7
		c-2.1,0-3.9,1.7-3.9,3.9v3.9c0,2.1,1.7,3.9,3.9,3.9h1.7c1.5,3.3,4.2,6.1,7.7,8.1v0c0.5,0.3,1,0.8,1.3,1.6c0.2,0.5,0.3,0.9,0.3,1.4
		v1.2v0.6v0.7c0,0.7,0.6,1.3,1.3,1.3h5c0.7,0,1.3-0.6,1.3-1.3V516v-0.6v-0.8c0,0,0,0,0-0.1s0,0,0-0.1v-0.1l0,0
		c0.1-1.9,1.7-3.5,3.6-3.5c2,0,3.7,1.6,3.7,3.7c0,0,0,0,0,0v0.8v0.6v0.7c0,0.7,0.6,1.3,1.3,1.3h5c0.7,0,1.3-0.6,1.3-1.3V516v-0.6
		v-0.3h0c0-0.5,0.1-1,0.3-1.6c0.3-0.7,0.8-1.3,1.3-1.6v0c5.1-2.6,8.8-6.7,9.9-11.5c0.1,0,0.2,0,0.4,0c1.7,0,3-1.4,3-3v-0.2
		C67.7,495.6,66.3,494.2,64.7,494.2z M48.5,487.3c-0.3,0-0.6-0.1-0.8-0.3l0,0l-0.2-0.1l0,0c-1.1-0.8-3-1.4-5.1-1.4
		c-2.1,0-3.9,0.5-5,1.3l0,0l-0.4,0.2l0,0c-0.2,0.2-0.5,0.3-0.8,0.3c-0.8,0-1.4-0.6-1.4-1.4c0-0.3,0.1-0.6,0.3-0.9
		c0,0,0.1-0.1,0.1-0.1c1.4-1.3,4-2.2,7.1-2.2c3.1,0,5.7,0.9,7.1,2.2c0,0,0.1,0.1,0.1,0.1c0.2,0.2,0.3,0.5,0.3,0.9
		C49.9,486.7,49.3,487.3,48.5,487.3z"/>
</g>
<g>
	<path class="st9" d="M35.3,554.3c0.5-2.7,2.8-4.8,5.7-4.8c2.8,0,5.2,2,5.7,4.7c1,0.2,2.1,0.5,3,0.8c-0.1-4.7-4-8.5-8.7-8.5
		c-4.7,0-8.6,3.8-8.7,8.5C33.3,554.8,34.3,554.5,35.3,554.3z"/>
	<path class="st9" d="M63.3,570.2c-0.1,0-0.2,0-0.4,0c-1.9-8.1-11-14.3-22-14.3c-9.7,0-18,4.8-21.1,11.6h-1.7
		c-2.1,0-3.9,1.7-3.9,3.9v3.9c0,2.1,1.7,3.9,3.9,3.9h1.7c1.5,3.3,4.2,6.1,7.7,8.1v0c0.5,0.3,1,0.8,1.3,1.6c0.2,0.5,0.3,0.9,0.3,1.4
		v1.2v0.6v0.7c0,0.7,0.6,1.3,1.3,1.3h5c0.7,0,1.3-0.6,1.3-1.3V592v-0.6v-0.8c0,0,0,0,0-0.1s0,0,0-0.1v-0.1l0,0
		c0.1-1.9,1.7-3.5,3.6-3.5c2,0,3.7,1.6,3.7,3.7c0,0,0,0,0,0v0.8v0.6v0.7c0,0.7,0.6,1.3,1.3,1.3h5c0.7,0,1.3-0.6,1.3-1.3V592v-0.6
		v-0.3h0c0-0.5,0.1-1,0.3-1.6c0.3-0.7,0.8-1.3,1.3-1.6v0c5.1-2.6,8.8-6.7,9.9-11.5c0.1,0,0.2,0,0.4,0c1.7,0,3-1.4,3-3v-0.2
		C66.4,571.6,65,570.2,63.3,570.2z M47.2,563.3c-0.3,0-0.6-0.1-0.8-0.3l0,0l-0.2-0.1l0,0c-1.1-0.8-3-1.4-5.1-1.4
		c-2.1,0-3.9,0.5-5,1.3l0,0l-0.4,0.2l0,0c-0.2,0.2-0.5,0.3-0.8,0.3c-0.8,0-1.4-0.6-1.4-1.4c0-0.3,0.1-0.6,0.3-0.9
		c0,0,0.1-0.1,0.1-0.1c1.4-1.3,4-2.2,7.1-2.2c3.1,0,5.7,0.9,7.1,2.2c0,0,0.1,0.1,0.1,0.1c0.2,0.2,0.3,0.5,0.3,0.9
		C48.6,562.7,47.9,563.3,47.2,563.3z"/>
</g>
<g>
	<path class="st2" d="M261.1,696.7l0-0.5c0.1-3.6,3.1-6.6,6.7-6.6c3.7,0,6.6,2.9,6.7,6.5l0,0.5l-0.5-0.2c-0.7-0.2-1.5-0.4-2.2-0.6
		l-0.2,0l0-0.2c-0.3-1.8-1.9-3.1-3.8-3.1c-1.9,0-3.5,1.3-3.8,3.2l0,0.2l-0.2,0.1c-0.7,0.2-1.5,0.4-2.2,0.6L261.1,696.7z
		 M267.8,690.3c-3.1,0-5.6,2.4-6,5.3c0.5-0.2,1-0.3,1.5-0.4c0.5-2.1,2.3-3.5,4.4-3.5c2.1,0,4,1.5,4.4,3.5c0.5,0.1,1,0.2,1.5,0.4
		C273.4,692.6,270.9,690.3,267.8,690.3z"/>
	<path class="st2" d="M274.5,725h-3.6c-0.7,0-1.3-0.6-1.3-1.3l0-1.6c0-1.3-1-2.3-2.3-2.3c-1.2,0-2.2,1-2.3,2.2l0,1.7
		c0,0.7-0.6,1.3-1.3,1.3H260c-0.7,0-1.3-0.6-1.3-1.3v-1.9c0-0.3-0.1-0.6-0.2-0.8c-0.2-0.4-0.5-0.8-0.8-1l-0.2-0.1
		c-2.5-1.5-4.4-3.5-5.5-5.8h-1c-1.8,0-3.2-1.4-3.2-3.2v-2.8c0-1.8,1.4-3.2,3.2-3.2h1c2.4-5.1,8.7-8.5,15.7-8.5
		c8,0,14.8,4.4,16.4,10.4c1.4,0,2.6,1.2,2.6,2.6v0.2c0,1.4-1.2,2.6-2.6,2.6c-0.9,3.4-3.5,6.3-7.2,8.3l-0.1,0.1
		c-0.3,0.2-0.6,0.5-0.8,1c-0.1,0.3-0.2,0.7-0.2,1l0,0.4h0v0.8C275.8,724.4,275.3,725,274.5,725z M270.3,721.8L270.3,721.8l0,1.9
		c0,0.3,0.3,0.6,0.6,0.6h3.6c0.3,0,0.6-0.3,0.6-0.6l0-1.6c0-0.3,0.1-0.6,0.3-0.9c0.2-0.5,0.5-0.9,0.9-1.2v0l0.2-0.1
		c3.7-1.9,6.3-4.8,7-8.2l0.1-0.3l0.4,0.1c0,0,0.1,0,0.2,0c1,0,1.8-0.8,1.8-1.8v-0.2c0-1-0.8-1.8-1.8-1.8c-0.1,0-0.1,0-0.1,0l-0.4,0
		l-0.1-0.3c-1.4-5.9-8-10.2-15.8-10.2c-6.8,0-12.8,3.3-15.1,8.3l-0.1,0.2h-1.5c-1.4,0-2.5,1.1-2.5,2.5v2.8c0,1.4,1.1,2.5,2.5,2.5
		h1.5l0.1,0.2c1,2.3,2.9,4.3,5.5,5.8l0.2,0.1c0.4,0.3,0.7,0.7,0.9,1.2c0.2,0.4,0.2,0.7,0.3,1.1l0,1.9c0,0.3,0.3,0.6,0.6,0.6h3.6
		c0.3,0,0.6-0.3,0.6-0.6v-2.1l0.1,0c0.3-1.4,1.5-2.5,3-2.5C268.8,719.1,270.1,720.3,270.3,721.8z M272.3,702.5c-0.2,0-0.4,0-0.6-0.1
		l0,0l-0.1-0.1l0,0l-0.3-0.2c-0.8-0.6-2.1-1-3.5-1c-1.4,0-2.6,0.3-3.5,0.9l-0.3,0.2l0,0l-0.2,0.1l0,0c-0.2,0.1-0.3,0.1-0.5,0.1
		c-0.8,0-1.4-0.6-1.4-1.4c0-0.3,0.1-0.6,0.3-0.9c0.1-0.1,0.1-0.1,0.1-0.1c1.1-1.1,3.2-1.7,5.5-1.7c2.3,0,4.4,0.7,5.5,1.7
		c0,0,0.1,0.1,0.1,0.1c0.3,0.3,0.4,0.6,0.4,0.9C273.7,701.9,273.1,702.5,272.3,702.5z M271.7,701.5l0.3,0.2c0.5,0.4,1,0,1-0.5
		c0-0.2-0.1-0.3-0.2-0.4l-0.1-0.1c-1-0.9-2.9-1.5-4.9-1.5c-2.1,0-4,0.6-4.9,1.5l-0.1,0.1c-0.1,0.1-0.1,0.2-0.1,0.4
		c0,0.5,0.6,0.8,1,0.5l0.3-0.2l0,0l0.3-0.2l0,0c0.9-0.5,2.2-0.8,3.5-0.8c1.4,0,2.7,0.3,3.7,0.9l0,0L271.7,701.5L271.7,701.5z"/>
</g>
<g>
	<path class="st10" d="M500.1,696.7l0-0.5c0.1-3.6,3.1-6.6,6.7-6.6c3.7,0,6.6,2.9,6.7,6.5l0,0.5l-0.5-0.2c-0.7-0.2-1.5-0.4-2.2-0.6
		l-0.2,0l0-0.2c-0.3-1.8-1.9-3.1-3.8-3.1c-1.9,0-3.5,1.3-3.8,3.2l0,0.2l-0.2,0.1c-0.7,0.2-1.5,0.4-2.2,0.6L500.1,696.7z
		 M506.8,690.3c-3.1,0-5.6,2.4-6,5.3c0.5-0.2,1-0.3,1.5-0.4c0.5-2.1,2.3-3.5,4.4-3.5c2.1,0,4,1.5,4.4,3.5c0.5,0.1,1,0.2,1.5,0.4
		C512.4,692.6,509.9,690.3,506.8,690.3z"/>
	<path class="st10" d="M513.5,725h-3.6c-0.7,0-1.3-0.6-1.3-1.3l0-1.6c0-1.3-1-2.3-2.3-2.3c-1.2,0-2.2,1-2.3,2.2l0,1.7
		c0,0.7-0.6,1.3-1.3,1.3H499c-0.7,0-1.3-0.6-1.3-1.3v-1.9c0-0.3-0.1-0.6-0.2-0.8c-0.2-0.4-0.5-0.8-0.8-1l-0.2-0.1
		c-2.5-1.5-4.4-3.5-5.5-5.8h-1c-1.8,0-3.2-1.4-3.2-3.2v-2.8c0-1.8,1.4-3.2,3.2-3.2h1c2.4-5.1,8.7-8.5,15.7-8.5
		c8,0,14.8,4.4,16.4,10.4c1.4,0,2.6,1.2,2.6,2.6v0.2c0,1.4-1.1,2.6-2.6,2.6c-0.9,3.4-3.5,6.3-7.2,8.3l-0.1,0.1
		c-0.3,0.2-0.6,0.5-0.8,1c-0.1,0.3-0.2,0.7-0.2,1l0,0.4h0v0.8C514.8,724.4,514.3,725,513.5,725z M509.3,721.8L509.3,721.8l0,1.9
		c0,0.3,0.3,0.6,0.6,0.6h3.6c0.3,0,0.6-0.3,0.6-0.6l0-1.6c0-0.3,0.1-0.6,0.3-0.9c0.2-0.5,0.5-0.9,0.9-1.2v0l0.2-0.1
		c3.7-1.9,6.3-4.8,7-8.2l0.1-0.3l0.4,0.1c0,0,0.1,0,0.2,0c1,0,1.8-0.8,1.8-1.8v-0.2c0-1-0.8-1.8-1.8-1.8c0,0-0.1,0-0.1,0l-0.4,0
		l-0.1-0.3c-1.4-5.9-8-10.2-15.8-10.2c-6.8,0-12.8,3.3-15.1,8.3l-0.1,0.2h-1.5c-1.4,0-2.5,1.1-2.5,2.5v2.8c0,1.4,1.1,2.5,2.5,2.5
		h1.5l0.1,0.2c1,2.3,2.9,4.3,5.5,5.8l0.2,0.1c0.4,0.3,0.7,0.7,0.9,1.2c0.2,0.4,0.2,0.7,0.3,1.1l0,1.9c0,0.3,0.3,0.6,0.6,0.6h3.6
		c0.3,0,0.6-0.3,0.6-0.6v-2.1l0.1,0c0.3-1.4,1.5-2.5,3-2.5C507.8,719.1,509.1,720.3,509.3,721.8z M511.3,702.5c-0.2,0-0.4,0-0.6-0.1
		l0,0l-0.1-0.1l0,0l-0.3-0.2c-0.8-0.6-2.1-1-3.5-1c-1.4,0-2.6,0.3-3.5,0.9l-0.3,0.2l0,0l-0.2,0.1l0,0c-0.2,0.1-0.3,0.1-0.5,0.1
		c-0.8,0-1.4-0.6-1.4-1.4c0-0.3,0.1-0.6,0.3-0.9c0.1-0.1,0.1-0.1,0.1-0.1c1.1-1.1,3.2-1.7,5.5-1.7c2.3,0,4.4,0.7,5.5,1.7
		c0,0,0.1,0.1,0.1,0.1c0.3,0.3,0.4,0.6,0.4,0.9C512.7,701.9,512.1,702.5,511.3,702.5z M510.7,701.5l0.3,0.2c0.5,0.4,1,0,1-0.5
		c0-0.2-0.1-0.3-0.2-0.4l-0.1-0.1c-1-0.9-2.9-1.5-4.9-1.5c-2.1,0-4,0.6-4.9,1.5l-0.1,0.1c-0.1,0.1-0.1,0.2-0.1,0.4
		c0,0.5,0.6,0.8,1,0.5l0.3-0.2l0,0l0.3-0.2l0,0c0.9-0.5,2.2-0.8,3.5-0.8c1.4,0,2.7,0.3,3.7,0.9l0,0L510.7,701.5L510.7,701.5z"/>
</g>
<g>
	<g>
		<g>
			<g>
				<ellipse class="st11" cx="38.7" cy="632.1" rx="6.8" ry="6.9"/>
				<path class="st11" d="M50.5,652.8H27c0-6.6,0.5-11.9,11.7-11.9C49.9,640.9,50.5,646.3,50.5,652.8z"/>
			</g>
		</g>
	</g>
	<g>
		<g>
			<g>
				<ellipse class="st11" cx="27" cy="638" rx="6.8" ry="6.9"/>
				<path class="st11" d="M38.7,658.8H15.3c0-6.6,0.5-11.9,11.7-11.9C38.1,646.9,38.7,652.2,38.7,658.8z"/>
			</g>
		</g>
	</g>
	<g>
		<g>
			<g>
				<ellipse class="st11" cx="52.2" cy="638" rx="6.8" ry="6.9"/>
				<path class="st11" d="M63.9,658.8H40.5c0-6.6,0.5-11.9,11.7-11.9C63.3,646.9,63.9,652.2,63.9,658.8z"/>
			</g>
		</g>
	</g>
</g>
<g>
	<path class="st2" d="M271.7,637.3c2.8,0,5.1-2.3,5.1-5.1c0-2.8-2.3-5.1-5.1-5.1c-2.8,0-5.1,2.3-5.1,5.1
		C266.6,635,268.9,637.3,271.7,637.3z M271.7,627.7c2.4,0,4.4,2,4.4,4.5c0,2.5-2,4.5-4.4,4.5s-4.4-2-4.4-4.5
		C267.3,629.7,269.3,627.7,271.7,627.7z"/>
	<path class="st2" d="M260.8,641.4c2.8,0,5.1-2.3,5.1-5.1s-2.3-5.1-5.1-5.1c-2.8,0-5.1,2.3-5.1,5.1S258,641.4,260.8,641.4z
		 M260.8,631.8c2.4,0,4.4,2,4.4,4.5c0,2.5-2,4.5-4.4,4.5c-2.4,0-4.4-2-4.4-4.5C256.4,633.8,258.4,631.8,260.8,631.8z"/>
	<path class="st2" d="M282.4,641.4c2.8,0,5.1-2.3,5.1-5.1s-2.3-5.1-5.1-5.1c-2.8,0-5.1,2.3-5.1,5.1S279.6,641.4,282.4,641.4z
		 M282.4,631.8c2.4,0,4.4,2,4.4,4.5c0,2.5-2,4.5-4.4,4.5c-2.4,0-4.4-2-4.4-4.5C278,633.8,280,631.8,282.4,631.8z"/>
	<path class="st2" d="M282.4,642c-1,0-1.9,0.1-2.7,0.2c-0.7-2.6-2.8-4.3-8.1-4.3c-5.3,0-7.3,1.7-8.1,4.3c-0.8-0.1-1.8-0.2-2.8-0.2
		c-7.9,0-8.5,3.7-8.5,8.6v0.3h17v-0.3c0-1.4,0-2.7-0.3-3.8h5.3c-0.2,1.1-0.3,2.4-0.3,3.8v0.3h17v-0.3
		C290.9,645.8,290.3,642,282.4,642z M253,650.3c0-4.6,0.7-7.6,7.8-7.6c1,0,1.9,0.1,2.7,0.2c0.2,0,0.5,0.1,0.7,0.1
		c2.3,0.5,3.4,1.6,3.9,3.1c0.1,0.2,0.1,0.5,0.2,0.7c0.2,1,0.3,2.2,0.3,3.4H253z M268.8,646.2c-0.6-1.8-1.8-3.2-4.5-3.8
		c0.7-2.4,2.5-3.8,7.4-3.8c4.8,0,6.7,1.4,7.4,3.7c-2.8,0.6-4.1,2-4.7,3.8H268.8z M274.6,650.3c0-1.3,0.1-2.4,0.3-3.4
		c0.1-0.2,0.1-0.5,0.2-0.7c0.6-1.6,1.7-2.7,4.1-3.2c0.2,0,0.4-0.1,0.7-0.1c0.7-0.1,1.6-0.2,2.5-0.2c7.1,0,7.8,3,7.8,7.6H274.6z"/>
</g>
<g>
	<path class="st10" d="M507.7,634.3c2.8,0,5.1-2.3,5.1-5.1c0-2.8-2.3-5.1-5.1-5.1c-2.8,0-5.1,2.3-5.1,5.1
		C502.6,632,504.9,634.3,507.7,634.3z M507.7,624.7c2.4,0,4.4,2,4.4,4.5c0,2.5-2,4.5-4.4,4.5s-4.4-2-4.4-4.5
		C503.3,626.7,505.3,624.7,507.7,624.7z"/>
	<path class="st10" d="M496.8,638.4c2.8,0,5.1-2.3,5.1-5.1s-2.3-5.1-5.1-5.1c-2.8,0-5.1,2.3-5.1,5.1S494,638.4,496.8,638.4z
		 M496.8,628.8c2.4,0,4.4,2,4.4,4.5c0,2.5-2,4.5-4.4,4.5c-2.4,0-4.4-2-4.4-4.5C492.4,630.8,494.4,628.8,496.8,628.8z"/>
	<path class="st10" d="M518.4,638.4c2.8,0,5.1-2.3,5.1-5.1s-2.3-5.1-5.1-5.1c-2.8,0-5.1,2.3-5.1,5.1S515.6,638.4,518.4,638.4z
		 M518.4,628.8c2.4,0,4.4,2,4.4,4.5c0,2.5-2,4.5-4.4,4.5s-4.4-2-4.4-4.5C514,630.8,516,628.8,518.4,628.8z"/>
	<path class="st10" d="M518.4,639c-1,0-1.9,0.1-2.7,0.2c-0.7-2.6-2.8-4.3-8.1-4.3c-5.3,0-7.3,1.7-8.1,4.3c-0.8-0.1-1.8-0.2-2.8-0.2
		c-7.9,0-8.5,3.7-8.5,8.6v0.3h17v-0.3c0-1.4,0-2.7-0.3-3.8h5.3c-0.2,1.1-0.3,2.4-0.3,3.8v0.3h17v-0.3
		C526.9,642.8,526.3,639,518.4,639z M489,647.3c0-4.6,0.7-7.6,7.8-7.6c1,0,1.9,0.1,2.7,0.2c0.2,0,0.5,0.1,0.7,0.1
		c2.3,0.5,3.4,1.6,3.9,3.1c0.1,0.2,0.1,0.5,0.2,0.7c0.2,1,0.3,2.2,0.3,3.4H489z M504.8,643.2c-0.6-1.8-1.8-3.2-4.5-3.8
		c0.7-2.4,2.5-3.8,7.4-3.8c4.8,0,6.7,1.4,7.4,3.7c-2.8,0.6-4.1,2-4.7,3.8H504.8z M510.6,647.3c0-1.3,0.1-2.4,0.3-3.4
		c0.1-0.2,0.1-0.5,0.2-0.7c0.6-1.6,1.7-2.7,4.1-3.2c0.2,0,0.4-0.1,0.7-0.1c0.7-0.1,1.6-0.2,2.5-0.2c7.1,0,7.8,3,7.8,7.6H510.6z"/>
</g>
<g>
	<g>
		<g>
			<g>
				<path class="st12" d="M54.2,281.8c-5.4,0-9.7-4.4-9.7-9.7c0-5.4,4.3-9.7,9.7-9.7c5.4,0,9.7,4.3,9.7,9.7
					C63.9,277.5,59.6,281.8,54.2,281.8z"/>
			</g>
		</g>
	</g>
	<g>
		<g>
			<g>
				<path class="st12" d="M26.3,281.8c-5.4,0-9.7-4.4-9.7-9.7c0-5.4,4.3-9.7,9.7-9.7c5.4,0,9.7,4.3,9.7,9.7
					C36,277.5,31.6,281.8,26.3,281.8z"/>
			</g>
		</g>
	</g>
	<g>
		<g>
			<g>
				<path class="st12" d="M35.9,271.4c0-2.4,1.9-4.3,4.3-4.3c2.4,0,4.3,1.9,4.3,4.3"/>
			</g>
		</g>
	</g>
</g>
<g>
	<g>
		<rect x="20.2" y="101.5" class="st13" width="41.5" height="28.5"/>
		<g>
			<path class="st13" d="M49.4,113.6v3.6h-6.7v6.7h-3.6v-6.7h-6.7v-3.6h6.7v-6.7h3.6v6.7H49.4z"/>
		</g>
	</g>
	<line class="st13" x1="33.9" y1="98.2" x2="47.6" y2="98.2"/>
</g>
<g>
	<path class="st14" d="M24.8,215.7l31.7-29.2c1-0.9,2.6-0.9,3.5,0.1h0c0.9,1,0.9,2.6-0.1,3.5l-31.7,29.2"/>
	<line class="st15" x1="29.2" y1="191.9" x2="36.3" y2="199.6"/>
	<line class="st15" x1="31.9" y1="189.4" x2="38.9" y2="197.1"/>
	<line class="st15" x1="34.5" y1="187" x2="41.6" y2="194.6"/>
	<line class="st15" x1="37.2" y1="184.5" x2="44.3" y2="192.2"/>
	<line class="st15" x1="39.9" y1="182" x2="47" y2="189.7"/>
	<line class="st15" x1="42.5" y1="179.6" x2="49.6" y2="187.3"/>
	<line class="st15" x1="45.2" y1="177.1" x2="52.3" y2="184.8"/>
</g>
<g>
	<g>
		<g>
			<g>
				<path class="st2" d="M165.7,706.8l-7.1-7l2.3-2.4c1.4-1.4,3.8-1.5,5.2,0l1.9,1.8c1.5,1.4,1.5,3.8,0,5.2L165.7,706.8z M160,699.8
					l5.7,5.6l1.6-1.7c1-1.1,1-2.8,0-3.8l-1.9-1.8c-1.1-1-2.8-1-3.8,0L160,699.8z"/>
				<path class="st2" d="M154.3,718.5l-7.1-7l11-11.1l7.1,7L154.3,718.5z M148.5,711.4l5.7,5.6l9.6-9.7l-5.7-5.6L148.5,711.4z"/>
			</g>
			<path class="st2" d="M141.2,724.6l5.3-12.8l7.4,7.3L141.2,724.6z M146.8,713.6l-3.8,9.1l9.1-3.9l-2.7-2.6v0L146.8,713.6z"/>
		</g>
	</g>
</g>
<g>
	<g>
		<path class="st2" d="M284.4,47.6h-25.6c-3,0-5.5-2.5-5.5-5.5V29.1c0-3,2.5-5.5,5.5-5.5h25.6c3,0,5.5,2.5,5.5,5.5v12.9
			C289.9,45.1,287.5,47.6,284.4,47.6z M258.8,24.6c-2.5,0-4.5,2-4.5,4.5v12.9c0,2.5,2,4.5,4.5,4.5h25.6c2.5,0,4.5-2,4.5-4.5V29.1
			c0-2.5-2-4.5-4.5-4.5H258.8z"/>
	</g>
	<rect x="262.5" y="31.2" class="st2" width="12.5" height="1"/>
	<rect x="262.5" y="34.9" class="st2" width="12.5" height="1"/>
	<rect x="262.5" y="38.5" class="st2" width="20.5" height="1"/>
</g>
<path class="st2" d="M152,269.5c-4.3,0-7.7-3.5-7.7-7.8c0-4.3,3.5-7.8,7.7-7.8s7.7,3.5,7.7,7.8C159.7,265.9,156.3,269.5,152,269.5z
	 M152,254.8c-3.7,0-6.7,3.1-6.7,6.8s3,6.8,6.7,6.8s6.7-3.1,6.7-6.8S155.7,254.8,152,254.8z"/>
<g>
	<path class="st2" d="M156.2,556.5L156.2,556.5c-0.7,0-1.2-0.5-1.2-1.2v-5.7c0-0.7,0.5-1.2,1.2-1.2l0,0c0.7,0,1.2,0.5,1.2,1.2v5.7
		C157.4,556,156.9,556.5,156.2,556.5z"/>
	<path class="st2" d="M164,560.3L164,560.3c-0.5-0.5-0.5-1.2,0-1.7l4.1-4.1c0.5-0.5,1.2-0.5,1.7,0l0,0c0.5,0.5,0.5,1.2,0,1.7
		l-4.1,4.1C165.2,560.8,164.5,560.8,164,560.3z"/>
	<path class="st2" d="M166.8,568.5L166.8,568.5c0-0.7,0.5-1.2,1.2-1.2h5.7c0.7,0,1.2,0.5,1.2,1.2l0,0c0,0.7-0.5,1.2-1.2,1.2H168
		C167.3,569.7,166.8,569.2,166.8,568.5z"/>
	<path class="st2" d="M163,576.3L163,576.3c0.5-0.5,1.2-0.5,1.7,0l4.1,4.1c0.5,0.5,0.5,1.2,0,1.7l0,0c-0.5,0.5-1.2,0.5-1.7,0
		L163,578C162.5,577.5,162.5,576.8,163,576.3z"/>
	<path class="st2" d="M154.8,579.1L154.8,579.1c0.7,0,1.2,0.5,1.2,1.2v5.7c0,0.7-0.5,1.2-1.2,1.2l0,0c-0.7,0-1.2-0.5-1.2-1.2v-5.7
		C153.6,579.7,154.1,579.1,154.8,579.1z"/>
	<path class="st2" d="M147,575.3L147,575.3c0.5,0.5,0.5,1.2,0,1.7l-4.1,4.1c-0.5,0.5-1.2,0.5-1.7,0l0,0c-0.5-0.5-0.5-1.2,0-1.7
		l4.1-4.1C145.8,574.8,146.5,574.8,147,575.3z"/>
	<path class="st2" d="M144.2,567.1L144.2,567.1c0,0.7-0.5,1.2-1.2,1.2h-5.7c-0.7,0-1.2,2.3-1.2,1.7l0,0c0-0.7,0.5-4.1,1.2-4.1h5.7
		C143.7,565.9,144.2,566.5,144.2,567.1z"/>
	<path class="st2" d="M148,559.3L148,559.3c-0.5,0.5-1.2,0.5-1.7,0l-4.1-4.1c-0.5-0.5-0.5-1.2,0-1.7l0,0c0.5-0.5,1.2-0.5,1.7,0
		l4.1,4.1C148.5,558.1,148.5,558.9,148,559.3z"/>
</g>
<g>
	<path class="st10" d="M391.6,58c-9.2,0-17.3-6.6-18.9-16c-0.8-5,0.3-10.1,3.3-14.3s7.4-7,12.4-7.8c10.4-1.8,20.4,5.3,22.1,15.7
		c1.8,10.4-5.3,20.4-15.7,22.1l0,0C393.7,57.9,392.7,58,391.6,58z M394.6,56.8l0.1,0.5L394.6,56.8c9.9-1.7,16.6-11.1,14.9-21
		c-1.7-9.9-11.1-16.6-21-14.9c-4.8,0.8-9,3.4-11.8,7.4s-3.9,8.8-3.1,13.6C375.3,51.7,384.8,58.4,394.6,56.8z"/>
	<g>
		<g>
			<g>
				<path class="st10" d="M391.7,38.8c-3,0-5.5-2.5-5.5-5.5s2.5-5.5,5.5-5.5s5.5,2.5,5.5,5.5S394.8,38.8,391.7,38.8z M391.7,28.7
					c-2.5,0-4.5,2-4.5,4.5c0,2.5,2,4.5,4.5,4.5s4.5-2,4.5-4.5C396.2,30.8,394.2,28.7,391.7,28.7z"/>
				<path class="st10" d="M400.9,48.3h-1c0-4.5-3.7-8.1-8.1-8.1s-8.1,3.7-8.1,8.1h-1c0-5,4.1-9.1,9.1-9.1S400.9,43.3,400.9,48.3z"/>
			</g>
		</g>
	</g>
</g>
<g>
	<path class="st10" d="M397.2,120.3c-0.4,0-0.7,0-1.1-0.1c-2.6-0.3-4.8-1.5-6.4-3.5l0,0c-3.3-4.1-2.6-10.2,1.5-13.5
		c2-1.6,4.5-2.3,7.1-2c2.6,0.3,4.8,1.5,6.4,3.5s2.3,4.5,2,7.1c-0.3,2.6-1.5,4.8-3.5,6.4C401.4,119.6,399.4,120.3,397.2,120.3z
		 M390.5,116.1c1.4,1.8,3.5,2.9,5.8,3.2c2.3,0.3,4.5-0.4,6.3-1.8c1.8-1.4,2.9-3.5,3.2-5.8c0.3-2.3-0.4-4.5-1.8-6.3
		c-3-3.7-8.4-4.3-12.1-1.4C388.1,107,387.5,112.4,390.5,116.1L390.5,116.1z"/>
	<rect x="376.9" y="120.5" transform="matrix(0.7822 -0.623 0.623 0.7822 8.2939 265.7827)" class="st10" width="14.8" height="1"/>
</g>
<g>
	<g>
		<g>
			<ellipse class="st10" cx="377" cy="651.7" rx="4" ry="4.1"/>
		</g>
	</g>
	<g>
		<g>
			<ellipse class="st10" cx="389.5" cy="651.7" rx="4" ry="4.1"/>
		</g>
	</g>
	<g>
		<g>
			<ellipse class="st10" cx="402.1" cy="651.7" rx="4" ry="4.1"/>
		</g>
	</g>
</g>
<g>
	<path class="st10" d="M393.9,437c-8.5,0-15.5-7-15.5-15.5c0-8.5,7-15.5,15.5-15.5s15.5,7,15.5,15.5C409.4,430,402.5,437,393.9,437z
		 M393.9,407c-8,0-14.5,6.5-14.5,14.5c0,8,6.5,14.5,14.5,14.5s14.5-6.5,14.5-14.5C408.4,413.5,401.9,407,393.9,407z"/>
	<g>
		<path class="st10" d="M395.8,422c-0.1,0-0.3,0-0.4-0.1l-6.7-6.7c-0.2-0.2-0.2-0.5,0-0.7s0.5-0.2,0.7,0l6.7,6.7
			c0.2,0.2,0.2,0.5,0,0.7C396.1,421.9,396,422,395.8,422z"/>
		<path class="st10" d="M395.8,432.4c-0.3,0-0.5-0.2-0.5-0.5v-10.5c0-0.3,0.2-0.5,0.5-0.5s0.5,0.2,0.5,0.5v10.5
			C396.3,432.2,396.1,432.4,395.8,432.4z"/>
	</g>
</g>
<g>
	<path class="st10" d="M515.5,131.5h-18.2V101h23.1v24.9h-4.9V131.5z M498.3,130.5h16.2v-5.6h4.9V102h-21.1V130.5z"/>
	
		<rect x="513.6" y="128.1" transform="matrix(0.7071 -0.7071 0.7071 0.7071 60.5803 403.4419)" class="st10" width="7.3" height="1"/>
</g>
<g>
	<path class="st10" d="M400.8,521c-0.1,0-0.2,0-0.3-0.1l-6.3-5.2c-0.2-0.2-0.2-0.5-0.1-0.7c0.2-0.2,0.5-0.2,0.7-0.1l5.3,4.4
		l-0.6-3.9c0-0.3,0.1-0.5,0.4-0.6c0.3,0,0.5,0.1,0.6,0.4l0.8,5.2c0,0.2-0.1,0.4-0.2,0.5C401,521,400.9,521,400.8,521z"/>
	<path class="st10" d="M375.6,516.7c-0.1,0-0.2,0-0.3-0.1c-0.2-0.1-0.3-0.3-0.2-0.5l1.3-6.4c0.1-0.3,0.3-0.4,0.6-0.4
		c0.3,0.1,0.4,0.3,0.4,0.6l-1,5.1l7.2-5.6c0.2-0.2,0.5-0.1,0.7,0.1c0.2,0.2,0.1,0.5-0.1,0.7l-8.3,6.4
		C375.8,516.7,375.7,516.7,375.6,516.7z"/>
	<path class="st10" d="M393.1,510.1h-8.9c-0.3,0-0.5-0.2-0.5-0.5s0.2-0.5,0.5-0.5h8.4v-13.4h-21.5v13.4h5.5c0.3,0,0.5,0.2,0.5,0.5
		s-0.2,0.5-0.5,0.5h-6c-0.3,0-0.5-0.2-0.5-0.5v-14.4c0-0.3,0.2-0.5,0.5-0.5h22.5c0.3,0,0.5,0.2,0.5,0.5v14.4
		C393.6,509.9,393.4,510.1,393.1,510.1z"/>
	<path class="st10" d="M394.3,515.7h-6.5c-0.3,0-0.5-0.2-0.5-0.5v-5.6c0-0.3,0.2-0.5,0.5-0.5s0.5,0.2,0.5,0.5v5.1h6
		c0.3,0,0.5,0.2,0.5,0.5S394.6,515.7,394.3,515.7z"/>
	<path class="st10" d="M405.9,515.7H400c-0.3,0-0.5-0.2-0.5-0.5s0.2-0.5,0.5-0.5h5.3v-10.5h-12.2c-0.3,0-0.5-0.2-0.5-0.5
		s0.2-0.5,0.5-0.5h12.7c0.3,0,0.5,0.2,0.5,0.5v11.5C406.4,515.5,406.1,515.7,405.9,515.7z"/>
</g>
<g>
	<g>
		<path class="st10" d="M402.3,204.7h-25.6c-3,0-5.5-2.5-5.5-5.5v-12.9c0-3,2.5-5.5,5.5-5.5h25.6c3,0,5.5,2.5,5.5,5.5v12.9
			C407.8,202.2,405.3,204.7,402.3,204.7z M376.7,181.7c-2.5,0-4.5,2-4.5,4.5v12.9c0,2.5,2,4.5,4.5,4.5h25.6c2.5,0,4.5-2,4.5-4.5
			v-12.9c0-2.5-2-4.5-4.5-4.5H376.7z"/>
	</g>
	<rect x="380.4" y="188.3" class="st10" width="12.5" height="1"/>
	<rect x="380.4" y="192" class="st10" width="12.5" height="1"/>
	<rect x="380.4" y="195.6" class="st10" width="20.5" height="1"/>
</g>
<path class="st10" d="M393.4,358.2l-0.8-0.2l-0.1-0.1l-6.9-7.4c-1-1.1-1.5-2.5-1.5-3.9c0-3.1,2.4-5.6,5.3-5.6c1.3,0,2.5,0.5,3.5,1.4
	c1-0.9,2.2-1.4,3.5-1.4c2.9,0,5.3,2.5,5.3,5.6c0,1.5-0.5,2.8-1.5,3.9l-0.1,0.1l-6.7,7.1V358.2z M389.4,342c-2.4,0-4.3,2.1-4.3,4.6
	c0,1.2,0.4,2.4,1.2,3.2l0.1,0.1l6.5,6.9l6.6-7c0.8-0.9,1.2-2,1.2-3.2c0-2.6-1.9-4.6-4.3-4.6c-1.2,0-2.3,0.5-3.1,1.4l-0.4,0.4
	l-0.4-0.4C391.7,342.5,390.6,342,389.4,342z"/>
<g>
	<polygon class="st10" points="509.1,199.5 497.7,186.9 498.5,186.2 509.1,198 519.7,186.2 520.4,186.9 	"/>
</g>
<g>
	<polygon class="st10" points="498.5,272 497.7,271.4 509.1,258.8 520.4,271.4 519.7,272 509.1,260.3 	"/>
</g>
<g>
	<polygon class="st10" points="503.3,350 502.6,349.2 514.4,338.6 502.6,328 503.3,327.3 515.9,338.6 	"/>
</g>
<g>
	<polygon class="st10" points="514.8,423 502.2,411.6 514.8,400.3 515.5,401 503.7,411.6 515.5,422.2 	"/>
</g>
<g>
	<g>
		<g>
			<g>
				<path class="st10" d="M402.7,706.8l-7.1-7l2.3-2.4c1.4-1.4,3.8-1.5,5.2,0l1.9,1.8c1.5,1.4,1.5,3.8,0,5.2L402.7,706.8z
					 M397,699.8l5.7,5.6l1.6-1.7c1-1.1,1-2.8,0-3.8l-1.9-1.8c-1.1-1-2.8-1-3.8,0L397,699.8z"/>
				<path class="st10" d="M391.3,718.5l-7.1-7l11-11.1l7.1,7L391.3,718.5z M385.5,711.4l5.7,5.6l9.6-9.7l-5.7-5.6L385.5,711.4z"/>
			</g>
			<path class="st10" d="M378.2,724.6l5.3-12.8l7.4,7.3L378.2,724.6z M383.8,713.6l-3.8,9.1l9.1-3.9l-2.7-2.6v0L383.8,713.6z"/>
		</g>
	</g>
</g>
<g>
	<g>
		<path class="st10" d="M521.4,47.6h-25.6c-3,0-5.5-2.5-5.5-5.5V29.1c0-3,2.5-5.5,5.5-5.5h25.6c3,0,5.5,2.5,5.5,5.5v12.9
			C526.9,45.1,524.5,47.6,521.4,47.6z M495.8,24.6c-2.5,0-4.5,2-4.5,4.5v12.9c0,2.5,2,4.5,4.5,4.5h25.6c2.5,0,4.5-2,4.5-4.5V29.1
			c0-2.5-2-4.5-4.5-4.5H495.8z"/>
	</g>
	<rect x="499.5" y="31.2" class="st10" width="12.5" height="1"/>
	<rect x="499.5" y="34.9" class="st10" width="12.5" height="1"/>
	<rect x="499.5" y="38.5" class="st10" width="20.5" height="1"/>
</g>
<g>
	<path class="st10" d="M393.2,556.5L393.2,556.5c-0.7,0-1.2-0.5-1.2-1.2v-5.7c0-0.7,0.5-1.2,1.2-1.2l0,0c0.7,0,1.2,0.5,1.2,1.2v5.7
		C394.4,556,393.9,556.5,393.2,556.5z"/>
	<path class="st10" d="M401,560.3L401,560.3c-0.5-0.5-0.5-1.2,0-1.7l4.1-4.1c0.5-0.5,1.2-0.5,1.7,0l0,0c0.5,0.5,0.5,1.2,0,1.7
		l-4.1,4.1C402.2,560.8,401.5,560.8,401,560.3z"/>
	<path class="st10" d="M403.8,568.5L403.8,568.5c0-0.7,0.5-1.2,1.2-1.2h5.7c0.7,0,1.2,0.5,1.2,1.2l0,0c0,0.7-0.5,1.2-1.2,1.2H405
		C404.3,569.7,403.8,569.2,403.8,568.5z"/>
	<path class="st10" d="M400,576.3L400,576.3c0.5-0.5,1.2-0.5,1.7,0l4.1,4.1c0.5,0.5,0.5,1.2,0,1.7l0,0c-0.5,0.5-1.2,0.5-1.7,0
		L400,578C399.5,577.5,399.5,576.8,400,576.3z"/>
	<path class="st10" d="M391.8,579.1L391.8,579.1c0.7,0,1.2,0.5,1.2,1.2v5.7c0,0.7-0.5,1.2-1.2,1.2l0,0c-0.7,0-1.2-0.5-1.2-1.2v-5.7
		C390.6,579.7,391.1,579.1,391.8,579.1z"/>
	<path class="st10" d="M384,575.3L384,575.3c0.5,0.5,0.5,1.2,0,1.7l-4.1,4.1c-0.5,0.5-1.2,0.5-1.7,0l0,0c-0.5-0.5-0.5-1.2,0-1.7
		l4.1-4.1C382.8,574.8,383.5,574.8,384,575.3z"/>
	<path class="st10" d="M381.2,567.1L381.2,567.1c0,0.7-0.5,1.2-1.2,1.2h-5.7c-0.7,0-1.2,2.3-1.2,1.7l0,0c0-0.7,0.5-4.1,1.2-4.1h5.7
		C380.7,565.9,381.2,566.5,381.2,567.1z"/>
	<path class="st10" d="M385,559.3L385,559.3c-0.5,0.5-1.2,0.5-1.7,0l-4.1-4.1c-0.5-0.5-0.5-1.2,0-1.7l0,0c0.5-0.5,1.2-0.5,1.7,0
		l4.1,4.1C385.5,558.1,385.5,558.9,385,559.3z"/>
</g>
<g>
	<path class="st1" d="M628.6,58c-9.2,0-17.3-6.6-18.9-16c-0.8-5,0.3-10.1,3.3-14.3s7.4-7,12.4-7.8c10.4-1.8,20.4,5.3,22.1,15.7
		c1.8,10.4-5.3,20.4-15.7,22.1l0,0C630.7,57.9,629.7,58,628.6,58z M631.6,56.8l0.1,0.5L631.6,56.8c9.9-1.7,16.6-11.1,14.9-21
		c-1.7-9.9-11.1-16.6-21-14.9c-4.8,0.8-9,3.4-11.8,7.4s-3.9,8.8-3.1,13.6C612.3,51.7,621.8,58.4,631.6,56.8z"/>
	<g>
		<g>
			<g>
				<path class="st1" d="M628.7,38.8c-3,0-5.5-2.5-5.5-5.5s2.5-5.5,5.5-5.5s5.5,2.5,5.5,5.5S631.8,38.8,628.7,38.8z M628.7,28.7
					c-2.5,0-4.5,2-4.5,4.5c0,2.5,2,4.5,4.5,4.5s4.5-2,4.5-4.5C633.2,30.8,631.2,28.7,628.7,28.7z"/>
				<path class="st1" d="M637.9,48.3h-1c0-4.5-3.7-8.1-8.1-8.1s-8.1,3.7-8.1,8.1h-1c0-5,4.1-9.1,9.1-9.1S637.9,43.3,637.9,48.3z"/>
			</g>
		</g>
	</g>
</g>
<g>
	<path class="st1" d="M634.2,120.3c-0.4,0-0.7,0-1.1-0.1c-2.6-0.3-4.8-1.5-6.4-3.5l0,0c-3.3-4.1-2.6-10.2,1.5-13.5
		c2-1.6,4.5-2.3,7.1-2c2.6,0.3,4.8,1.5,6.4,3.5s2.3,4.5,2,7.1c-0.3,2.6-1.5,4.8-3.5,6.4C638.4,119.6,636.4,120.3,634.2,120.3z
		 M627.5,116.1c1.4,1.8,3.5,2.9,5.8,3.2c2.3,0.3,4.5-0.4,6.3-1.8c1.8-1.4,2.9-3.5,3.2-5.8c0.3-2.3-0.4-4.5-1.8-6.3
		c-3-3.7-8.4-4.3-12.1-1.4C625.1,107,624.5,112.4,627.5,116.1L627.5,116.1z"/>
	<rect x="613.9" y="120.5" transform="matrix(0.7822 -0.623 0.623 0.7822 59.9123 413.4399)" class="st1" width="14.8" height="1"/>
</g>
<g>
	<g>
		<g>
			<ellipse class="st1" cx="614" cy="651.7" rx="4" ry="4.1"/>
		</g>
	</g>
	<g>
		<g>
			<ellipse class="st1" cx="626.5" cy="651.7" rx="4" ry="4.1"/>
		</g>
	</g>
	<g>
		<g>
			<ellipse class="st1" cx="639.1" cy="651.7" rx="4" ry="4.1"/>
		</g>
	</g>
</g>
<g>
	<path class="st1" d="M630.9,437c-8.5,0-15.5-7-15.5-15.5c0-8.5,7-15.5,15.5-15.5s15.5,7,15.5,15.5C646.4,430,639.5,437,630.9,437z
		 M630.9,407c-8,0-14.5,6.5-14.5,14.5c0,8,6.5,14.5,14.5,14.5s14.5-6.5,14.5-14.5C645.4,413.5,638.9,407,630.9,407z"/>
	<g>
		<path class="st1" d="M632.8,422c-0.1,0-0.3,0-0.4-0.1l-6.7-6.7c-0.2-0.2-0.2-0.5,0-0.7s0.5-0.2,0.7,0l6.7,6.7
			c0.2,0.2,0.2,0.5,0,0.7C633.1,421.9,633,422,632.8,422z"/>
		<path class="st1" d="M632.8,432.4c-0.3,0-0.5-0.2-0.5-0.5v-10.5c0-0.3,0.2-0.5,0.5-0.5s0.5,0.2,0.5,0.5v10.5
			C633.3,432.2,633.1,432.4,632.8,432.4z"/>
	</g>
</g>
<g>
	<path class="st1" d="M752.5,131.5h-18.2V101h23.1v24.9h-4.9V131.5z M735.3,130.5h16.2v-5.6h4.9V102h-21.1V130.5z"/>
	
		<rect x="750.6" y="128.1" transform="matrix(0.7071 -0.7071 0.7071 0.7071 129.996 571.0262)" class="st1" width="7.3" height="1"/>
</g>
<g>
	<path class="st1" d="M637.8,521c-0.1,0-0.2,0-0.3-0.1l-6.3-5.2c-0.2-0.2-0.2-0.5-0.1-0.7c0.2-0.2,0.5-0.2,0.7-0.1l5.3,4.4l-0.6-3.9
		c0-0.3,0.1-0.5,0.4-0.6c0.3,0,0.5,0.1,0.6,0.4l0.8,5.2c0,0.2-0.1,0.4-0.2,0.5C638,521,637.9,521,637.8,521z"/>
	<path class="st1" d="M612.6,516.7c-0.1,0-0.2,0-0.3-0.1c-0.2-0.1-0.3-0.3-0.2-0.5l1.3-6.4c0.1-0.3,0.3-0.4,0.6-0.4
		c0.3,0.1,0.4,0.3,0.4,0.6l-1,5.1l7.2-5.6c0.2-0.2,0.5-0.1,0.7,0.1c0.2,0.2,0.1,0.5-0.1,0.7l-8.3,6.4
		C612.8,516.7,612.7,516.7,612.6,516.7z"/>
	<path class="st1" d="M630.1,510.1h-8.9c-0.3,0-0.5-0.2-0.5-0.5s0.2-0.5,0.5-0.5h8.4v-13.4h-21.5v13.4h5.5c0.3,0,0.5,0.2,0.5,0.5
		s-0.2,0.5-0.5,0.5h-6c-0.3,0-0.5-0.2-0.5-0.5v-14.4c0-0.3,0.2-0.5,0.5-0.5h22.5c0.3,0,0.5,0.2,0.5,0.5v14.4
		C630.6,509.9,630.4,510.1,630.1,510.1z"/>
	<path class="st1" d="M631.3,515.7h-6.5c-0.3,0-0.5-0.2-0.5-0.5v-5.6c0-0.3,0.2-0.5,0.5-0.5s0.5,0.2,0.5,0.5v5.1h6
		c0.3,0,0.5,0.2,0.5,0.5S631.6,515.7,631.3,515.7z"/>
	<path class="st1" d="M642.9,515.7H637c-0.3,0-0.5-0.2-0.5-0.5s0.2-0.5,0.5-0.5h5.3v-10.5h-12.2c-0.3,0-0.5-0.2-0.5-0.5
		s0.2-0.5,0.5-0.5h12.7c0.3,0,0.5,0.2,0.5,0.5v11.5C643.4,515.5,643.1,515.7,642.9,515.7z"/>
</g>
<g>
	<g>
		<path class="st1" d="M639.3,204.7h-25.6c-3,0-5.5-2.5-5.5-5.5v-12.9c0-3,2.5-5.5,5.5-5.5h25.6c3,0,5.5,2.5,5.5,5.5v12.9
			C644.8,202.2,642.3,204.7,639.3,204.7z M613.7,181.7c-2.5,0-4.5,2-4.5,4.5v12.9c0,2.5,2,4.5,4.5,4.5h25.6c2.5,0,4.5-2,4.5-4.5
			v-12.9c0-2.5-2-4.5-4.5-4.5H613.7z"/>
	</g>
	<rect x="617.4" y="188.3" class="st1" width="12.5" height="1"/>
	<rect x="617.4" y="192" class="st1" width="12.5" height="1"/>
	<rect x="617.4" y="195.6" class="st1" width="20.5" height="1"/>
</g>
<path class="st1" d="M630.4,358.2l-0.8-0.2l-0.1-0.1l-6.9-7.4c-1-1.1-1.5-2.5-1.5-3.9c0-3.1,2.4-5.6,5.3-5.6c1.3,0,2.5,0.5,3.5,1.4
	c1-0.9,2.2-1.4,3.5-1.4c2.9,0,5.3,2.5,5.3,5.6c0,1.5-0.5,2.8-1.5,3.9l-0.1,0.1l-6.7,7.1V358.2z M626.4,342c-2.4,0-4.3,2.1-4.3,4.6
	c0,1.2,0.4,2.4,1.2,3.2l0.1,0.1l6.5,6.9l6.6-7c0.8-0.9,1.2-2,1.2-3.2c0-2.6-1.9-4.6-4.3-4.6c-1.2,0-2.3,0.5-3.1,1.4l-0.4,0.4
	l-0.4-0.4C628.7,342.5,627.6,342,626.4,342z"/>
<g>
	<polygon class="st1" points="746.1,199.5 734.7,186.9 735.5,186.2 746.1,198 756.7,186.2 757.4,186.9 	"/>
</g>
<g>
	<polygon class="st1" points="735.5,272 734.7,271.4 746.1,258.8 757.4,271.4 756.7,272 746.1,260.3 	"/>
</g>
<g>
	<polygon class="st1" points="740.3,350 739.6,349.2 751.4,338.6 739.6,328 740.3,327.3 752.9,338.6 	"/>
</g>
<g>
	<polygon class="st1" points="751.8,423 739.2,411.6 751.8,400.3 752.5,401 740.7,411.6 752.5,422.2 	"/>
</g>
<g>
	<g>
		<g>
			<g>
				<path class="st1" d="M639.7,706.8l-7.1-7l2.3-2.4c1.4-1.4,3.8-1.5,5.2,0l1.9,1.8c1.5,1.4,1.5,3.8,0,5.2L639.7,706.8z M634,699.8
					l5.7,5.6l1.6-1.7c1-1.1,1-2.8,0-3.8l-1.9-1.8c-1.1-1-2.8-1-3.8,0L634,699.8z"/>
				<path class="st1" d="M628.3,718.5l-7.1-7l11-11.1l7.1,7L628.3,718.5z M622.5,711.4l5.7,5.6l9.6-9.7l-5.7-5.6L622.5,711.4z"/>
			</g>
			<path class="st1" d="M615.2,724.6l5.3-12.8l7.4,7.3L615.2,724.6z M620.8,713.6l-3.8,9.1l9.1-3.9l-2.7-2.6v0L620.8,713.6z"/>
		</g>
	</g>
</g>
<g>
	<g>
		<path class="st1" d="M758.4,47.6h-25.6c-3,0-5.5-2.5-5.5-5.5V29.1c0-3,2.5-5.5,5.5-5.5h25.6c3,0,5.5,2.5,5.5,5.5v12.9
			C763.9,45.1,761.5,47.6,758.4,47.6z M732.8,24.6c-2.5,0-4.5,2-4.5,4.5v12.9c0,2.5,2,4.5,4.5,4.5h25.6c2.5,0,4.5-2,4.5-4.5V29.1
			c0-2.5-2-4.5-4.5-4.5H732.8z"/>
	</g>
	<rect x="736.5" y="31.2" class="st1" width="12.5" height="1"/>
	<rect x="736.5" y="34.9" class="st1" width="12.5" height="1"/>
	<rect x="736.5" y="38.5" class="st1" width="20.5" height="1"/>
</g>
<g>
	<path class="st1" d="M630.2,556.5L630.2,556.5c-0.7,0-1.2-0.5-1.2-1.2v-5.7c0-0.7,0.5-1.2,1.2-1.2l0,0c0.7,0,1.2,0.5,1.2,1.2v5.7
		C631.4,556,630.9,556.5,630.2,556.5z"/>
	<path class="st1" d="M638,560.3L638,560.3c-0.5-0.5-0.5-1.2,0-1.7l4.1-4.1c0.5-0.5,1.2-0.5,1.7,0l0,0c0.5,0.5,0.5,1.2,0,1.7
		l-4.1,4.1C639.2,560.8,638.5,560.8,638,560.3z"/>
	<path class="st1" d="M640.8,568.5L640.8,568.5c0-0.7,0.5-1.2,1.2-1.2h5.7c0.7,0,1.2,0.5,1.2,1.2l0,0c0,0.7-0.5,1.2-1.2,1.2H642
		C641.3,569.7,640.8,569.2,640.8,568.5z"/>
	<path class="st1" d="M637,576.3L637,576.3c0.5-0.5,1.2-0.5,1.7,0l4.1,4.1c0.5,0.5,0.5,1.2,0,1.7l0,0c-0.5,0.5-1.2,0.5-1.7,0
		L637,578C636.5,577.5,636.5,576.8,637,576.3z"/>
	<path class="st1" d="M628.8,579.1L628.8,579.1c0.7,0,1.2,0.5,1.2,1.2v5.7c0,0.7-0.5,1.2-1.2,1.2l0,0c-0.7,0-1.2-0.5-1.2-1.2v-5.7
		C627.6,579.7,628.1,579.1,628.8,579.1z"/>
	<path class="st1" d="M621,575.3L621,575.3c0.5,0.5,0.5,1.2,0,1.7l-4.1,4.1c-0.5,0.5-1.2,0.5-1.7,0l0,0c-0.5-0.5-0.5-1.2,0-1.7
		l4.1-4.1C619.8,574.8,620.5,574.8,621,575.3z"/>
	<path class="st1" d="M618.2,567.1L618.2,567.1c0,0.7-0.5,1.2-1.2,1.2h-5.7c-0.7,0-1.2,2.3-1.2,1.7l0,0c0-0.7,0.5-4.1,1.2-4.1h5.7
		C617.7,565.9,618.2,566.5,618.2,567.1z"/>
	<path class="st1" d="M622,559.3L622,559.3c-0.5,0.5-1.2,0.5-1.7,0l-4.1-4.1c-0.5-0.5-0.5-1.2,0-1.7l0,0c0.5-0.5,1.2-0.5,1.7,0
		l4.1,4.1C622.5,558.1,622.5,558.9,622,559.3z"/>
</g>
<g>
	<defs>
		<circle id="SVGID_1_" cx="896.3" cy="84" r="64"/>
	</defs>
	<use xlink:href="#SVGID_1_"  style="overflow:visible;fill:#FFFFFF;"/>
	<clipPath id="SVGID_2_">
		<use xlink:href="#SVGID_1_"  style="overflow:visible;"/>
	</clipPath>
	<g class="st16">
		<rect x="888.8" y="106.6" class="st17" width="14.9" height="27.5"/>
		<path class="st18" d="M896.3,33.5c-24.7,0-44.7,20-44.7,44.7c0,16,8.4,30,21,37.9c-2.4-5.5-3.7-12-3.7-18.9
			c0-20.7,12.3-37.5,27.4-37.5s27.4,16.8,27.4,37.5c0,6.9-1.3,13.3-3.7,18.9c12.6-7.9,21-21.9,21-37.9C941,53.6,921,33.5,896.3,33.5
			z"/>
		<circle class="st19" cx="896.3" cy="76" r="37.9"/>
		<path class="st18" d="M904.4,59c4.9-6.4,9.3-0.1,10.3,0.8c0,0,15.4,16.9,26,14.1c-2.2-22.6-21.3-40.3-44.5-40.3
			c-22.6,0-41.3,16.7-44.3,38.5C867,80.7,894.2,72.5,904.4,59z"/>
		<path class="st20" d="M904.3,116.8h-0.5l-7.5,11.4l-7.5-11.4h-0.5c-10.6,0-19.3,8.7-19.3,19.3v8.2c0,10.6,8.7,19.3,19.3,19.3h16
			c10.6,0,19.3-8.7,19.3-19.3v-8.2C923.6,125.5,914.9,116.8,904.3,116.8z"/>
		<path class="st1" d="M898,130.5l7.5-11.4c0.6-0.9,0.4-2.2-0.6-2.8c-0.9-0.6-2.2-0.4-2.8,0.6l-5.8,8.8l-5.8-8.8
			c-0.6-0.9-1.9-1.2-2.8-0.6c-0.9,0.6-1.2,1.9-0.6,2.8l7.5,11.4c0,0,0,0,0,0c0.1,0.1,0.1,0.2,0.2,0.3c0,0,0,0,0.1,0.1
			c0.1,0.1,0.2,0.2,0.3,0.2c0,0,0,0,0,0c0,0,0,0,0,0c0.1,0,0.1,0.1,0.2,0.1c0,0,0.1,0,0.1,0c0.1,0,0.1,0,0.2,0.1c0,0,0.1,0,0.1,0
			c0.1,0,0.1,0,0.2,0c0,0,0.1,0,0.1,0c0.1,0,0.2,0,0.2,0c0,0,0,0,0,0c0,0,0,0,0,0c0,0,0,0,0,0c0,0,0,0,0,0c0.1,0,0.2,0,0.2,0
			c0,0,0.1,0,0.1,0c0.1,0,0.1,0,0.2,0c0,0,0.1,0,0.1,0c0.1,0,0.1,0,0.2-0.1c0,0,0.1,0,0.1,0c0.1,0,0.1-0.1,0.2-0.1c0,0,0,0,0,0
			c0,0,0,0,0,0c0.1-0.1,0.2-0.1,0.3-0.2c0,0,0,0,0.1-0.1C897.9,130.7,897.9,130.7,898,130.5C898,130.6,898,130.5,898,130.5z"/>
		<g>
			<path class="st21" d="M915.6,163.6H877c-4.4,0-8-3.6-8-8v-25c0-4.4,3.6-8,8-8h38.6c4.4,0,8,3.6,8,8v25
				C923.6,160,920,163.6,915.6,163.6z"/>
			<path class="st22" d="M914.4,164.7h-36.1c-4.4,0-8-3.6-8-8v-23.2c0-4.4,3.6-8,8-8h36.1c4.4,0,8,3.6,8,8v23.2
				C922.4,161.1,918.8,164.7,914.4,164.7z"/>
		</g>
		<ellipse class="st23" cx="896.3" cy="137.3" rx="5.1" ry="1.6"/>
		<circle cx="912.7" cy="87.1" r="3.5"/>
		<circle cx="879.8" cy="87.1" r="3.5"/>
		<path class="st24" d="M904.9,104.1c0,0.7-3.9,2.5-8.6,2.5s-8.6-1.8-8.6-2.5c0-0.7,3.9,0,8.6,0S904.9,103.4,904.9,104.1z"/>
		<path class="st2" d="M939.2,83.7l-2-1.1c-8.9,13.3-15.9,17.4-20,18.5c-0.5-0.7-1.3-1.1-2.3-1.1h-3.9c-1.5,0-2.7,1.1-2.7,2.5
			c0,1.4,1.2,2.5,2.7,2.5h3.9c1.2,0,2.2-0.7,2.6-1.7C922.2,102,929.8,97.7,939.2,83.7z"/>
		<g>
			<path class="st2" d="M856.3,67.6c4.6-16.3,20.8-28.3,40.2-28.3s35.6,12,40.2,28.3h3.7c-4.6-18.1-22.6-31.6-44-31.6
				s-39.3,13.5-44,31.6H856.3z"/>
			<path d="M854.7,84L854.7,84c-1.9,0-3.5-1.6-3.5-3.5V69.4c0-1.9,1.6-3.5,3.5-3.5h0c1.9,0,3.5,1.6,3.5,3.5v11.1
				C858.1,82.4,856.6,84,854.7,84z"/>
			<path d="M937.9,84L937.9,84c-1.9,0-3.5-1.6-3.5-3.5V69.4c0-1.9,1.6-3.5,3.5-3.5l0,0c1.9,0,3.5,1.6,3.5,3.5v11.1
				C941.4,82.4,939.9,84,937.9,84z"/>
		</g>
	</g>
	<use xlink:href="#SVGID_1_"  style="overflow:visible;fill:none;stroke:#29ABE2;stroke-width:8;stroke-miterlimit:10;"/>
</g>
<line class="st25" x1="577" y1="9" x2="577" y2="753"/>
<line class="st25" x1="801" y1="9" x2="801" y2="753"/>
<g>
	<path class="st26" d="M723.9,848.1l-3.1-12.1h1.7l1.4,6.1c0.4,1.5,0.7,3,0.9,4.2h0c0.2-1.2,0.6-2.6,1-4.2l1.6-6.1h1.6l1.5,6.2
		c0.3,1.4,0.7,2.9,0.8,4.2h0c0.3-1.3,0.6-2.7,1-4.2l1.6-6.1h1.6l-3.4,12.1h-1.6l-1.5-6.3c-0.4-1.5-0.6-2.7-0.8-4h0
		c-0.2,1.2-0.5,2.4-0.9,4l-1.7,6.3H723.9z"/>
	<path class="st26" d="M737,835.3h1.6v5.4h0c0.3-0.5,0.6-0.8,1.1-1.1c0.5-0.3,1-0.5,1.6-0.5c1.2,0,3,0.7,3,3.7v5.2h-1.6v-5
		c0-1.4-0.5-2.6-2-2.6c-1,0-1.8,0.7-2.1,1.6c-0.1,0.2-0.1,0.5-0.1,0.8v5.3H737V835.3z"/>
	<path class="st26" d="M748.8,836.9c0,0.5-0.4,1-1,1c-0.6,0-1-0.4-1-1c0-0.6,0.4-1,1-1C748.4,835.9,748.8,836.4,748.8,836.9z
		 M747,848.1v-8.7h1.6v8.7H747z"/>
	<path class="st26" d="M753.2,836.9v2.5h2.3v1.2h-2.3v4.7c0,1.1,0.3,1.7,1.2,1.7c0.4,0,0.7-0.1,0.9-0.1l0.1,1.2
		c-0.3,0.1-0.8,0.2-1.4,0.2c-0.7,0-1.3-0.2-1.7-0.7c-0.5-0.5-0.6-1.2-0.6-2.3v-4.8h-1.4v-1.2h1.4v-2.1L753.2,836.9z"/>
	<path class="st26" d="M758,844c0,2.1,1.4,3,3,3c1.1,0,1.8-0.2,2.4-0.5l0.3,1.1c-0.6,0.3-1.5,0.5-2.9,0.5c-2.7,0-4.3-1.8-4.3-4.4
		s1.5-4.7,4.1-4.7c2.8,0,3.6,2.5,3.6,4.1c0,0.3,0,0.6-0.1,0.7H758z M762.6,842.9c0-1-0.4-2.6-2.2-2.6c-1.6,0-2.3,1.5-2.4,2.6H762.6z
		"/>
</g>
<g>
	<g>
		<g>
			<path class="st2" d="M274.2,517.5c-0.3,0-0.5,0-0.8,0c-3.9-0.2-7.4-1.9-10-4.8c-2.6-2.9-3.9-6.6-3.7-10.4c0.2-3.9,1.9-7.4,4.8-10
				c2.9-2.6,6.6-3.9,10.4-3.7c3.9,0.2,7.4,1.9,10,4.8c2.6,2.9,3.9,6.6,3.7,10.4l0,0c-0.2,3.9-1.9,7.4-4.8,10
				C281.2,516.2,277.8,517.5,274.2,517.5z M274.2,489.3c-3.4,0-6.6,1.2-9.1,3.5c-2.7,2.4-4.3,5.8-4.5,9.4c-0.2,3.6,1,7.2,3.5,9.9
				c2.4,2.7,5.8,4.3,9.4,4.5c3.7,0.2,7.2-1,9.9-3.5c2.7-2.4,4.3-5.8,4.5-9.4c0.2-3.6-1-7.2-3.5-9.9c-2.4-2.7-5.8-4.3-9.4-4.5
				C274.7,489.4,274.4,489.3,274.2,489.3z"/>
		</g>
	</g>
	<path class="st2" d="M260.8,498.5c2.1-5.3,7.2-9.2,13.3-9.3l0.4,14.5L260.8,498.5z"/>
</g>
<g>
	<path class="st2" d="M269.2,571.3h-6.9v-15.6h6.9V571.3z M263.1,570.6h5.4v-14.1h-5.4V570.6z"/>
	<path class="st2" d="M277.1,571.3h-6.9v-21.8h6.9V571.3z M271,570.6h5.4v-20.3H271V570.6z"/>
	<path class="st2" d="M285,571.3h-6.9v-11.3h6.9V571.3z M278.9,570.6h5.4v-9.8h-5.4V570.6z"/>
</g>
<g>
	<g>
		<g>
			<path class="st10" d="M509.2,517.5c-0.3,0-0.5,0-0.8,0c-3.9-0.2-7.4-1.9-10-4.8c-2.6-2.9-3.9-6.6-3.7-10.4
				c0.2-3.9,1.9-7.4,4.8-10c2.9-2.6,6.6-3.9,10.4-3.7c3.9,0.2,7.4,1.9,10,4.8c2.6,2.9,3.9,6.6,3.7,10.4l0,0c-0.2,3.9-1.9,7.4-4.8,10
				C516.2,516.2,512.8,517.5,509.2,517.5z M509.2,489.3c-3.4,0-6.6,1.2-9.1,3.5c-2.7,2.4-4.3,5.8-4.5,9.4c-0.2,3.6,1,7.2,3.5,9.9
				c2.4,2.7,5.8,4.3,9.4,4.5c3.7,0.2,7.2-1,9.9-3.5c2.7-2.4,4.3-5.8,4.5-9.4c0.2-3.6-1-7.2-3.5-9.9c-2.4-2.7-5.8-4.3-9.4-4.5
				C509.7,489.4,509.4,489.3,509.2,489.3z"/>
		</g>
	</g>
	<path class="st10" d="M495.8,498.5c2.1-5.3,7.2-9.2,13.3-9.3l0.4,14.5L495.8,498.5z"/>
</g>
<g>
	<path class="st10" d="M504.2,571.3h-6.9v-15.6h6.9V571.3z M498.1,570.6h5.4v-14.1h-5.4V570.6z"/>
	<path class="st10" d="M512.1,571.3h-6.9v-21.8h6.9V571.3z M506,570.6h5.4v-20.3H506V570.6z"/>
	<path class="st10" d="M520,571.3h-6.9v-11.3h6.9V571.3z M513.9,570.6h5.4v-9.8h-5.4V570.6z"/>
</g>
<g>
	<path class="st1" d="M733.1,696.7l0-0.5c0.1-3.6,3.1-6.6,6.7-6.6c3.7,0,6.6,2.9,6.7,6.5l0,0.5l-0.5-0.2c-0.7-0.2-1.5-0.4-2.2-0.6
		l-0.2,0l0-0.2c-0.3-1.8-1.9-3.1-3.8-3.1c-1.9,0-3.5,1.3-3.8,3.2l0,0.2l-0.2,0.1c-0.7,0.2-1.5,0.4-2.2,0.6L733.1,696.7z
		 M739.8,690.3c-3.1,0-5.6,2.4-6,5.3c0.5-0.2,1-0.3,1.5-0.4c0.5-2.1,2.3-3.5,4.4-3.5c2.1,0,4,1.5,4.4,3.5c0.5,0.1,1,0.2,1.5,0.4
		C745.4,692.6,742.9,690.3,739.8,690.3z"/>
	<path class="st1" d="M746.5,725h-3.6c-0.7,0-1.3-0.6-1.3-1.3l0-1.6c0-1.3-1-2.3-2.3-2.3c-1.2,0-2.2,1-2.3,2.2l0,1.7
		c0,0.7-0.6,1.3-1.3,1.3H732c-0.7,0-1.3-0.6-1.3-1.3v-1.9c0-0.3-0.1-0.6-0.2-0.8c-0.2-0.4-0.5-0.8-0.8-1l-0.2-0.1
		c-2.5-1.5-4.4-3.5-5.5-5.8h-1c-1.8,0-3.2-1.4-3.2-3.2v-2.8c0-1.8,1.4-3.2,3.2-3.2h1c2.4-5.1,8.7-8.5,15.7-8.5
		c8,0,14.8,4.4,16.4,10.4c1.4,0,2.6,1.2,2.6,2.6v0.2c0,1.4-1.1,2.6-2.6,2.6c-0.9,3.4-3.5,6.3-7.2,8.3l-0.1,0.1
		c-0.3,0.2-0.6,0.5-0.8,1c-0.1,0.3-0.2,0.7-0.2,1l0,0.4h0v0.8C747.8,724.4,747.3,725,746.5,725z M742.3,721.8L742.3,721.8l0,1.9
		c0,0.3,0.3,0.6,0.6,0.6h3.6c0.3,0,0.6-0.3,0.6-0.6l0-1.6c0-0.3,0.1-0.6,0.3-0.9c0.2-0.5,0.5-0.9,0.9-1.2v0l0.2-0.1
		c3.7-1.9,6.3-4.8,7-8.2l0.1-0.3l0.4,0.1c0,0,0.1,0,0.2,0c1,0,1.8-0.8,1.8-1.8v-0.2c0-1-0.8-1.8-1.8-1.8c0,0-0.1,0-0.1,0l-0.4,0
		l-0.1-0.3c-1.4-5.9-8-10.2-15.8-10.2c-6.8,0-12.8,3.3-15.1,8.3l-0.1,0.2h-1.5c-1.4,0-2.5,1.1-2.5,2.5v2.8c0,1.4,1.1,2.5,2.5,2.5
		h1.5l0.1,0.2c1,2.3,2.9,4.3,5.5,5.8l0.2,0.1c0.4,0.3,0.7,0.7,0.9,1.2c0.2,0.4,0.2,0.7,0.3,1.1l0,1.9c0,0.3,0.3,0.6,0.6,0.6h3.6
		c0.3,0,0.6-0.3,0.6-0.6v-2.1l0.1,0c0.3-1.4,1.5-2.5,3-2.5C740.8,719.1,742.1,720.3,742.3,721.8z M744.3,702.5c-0.2,0-0.4,0-0.6-0.1
		l0,0l-0.1-0.1l0,0l-0.3-0.2c-0.8-0.6-2.1-1-3.5-1c-1.4,0-2.6,0.3-3.5,0.9l-0.3,0.2l0,0l-0.2,0.1l0,0c-0.2,0.1-0.3,0.1-0.5,0.1
		c-0.8,0-1.4-0.6-1.4-1.4c0-0.3,0.1-0.6,0.3-0.9c0.1-0.1,0.1-0.1,0.1-0.1c1.1-1.1,3.2-1.7,5.5-1.7c2.3,0,4.4,0.7,5.5,1.7
		c0,0,0.1,0.1,0.1,0.1c0.3,0.3,0.4,0.6,0.4,0.9C745.7,701.9,745.1,702.5,744.3,702.5z M743.7,701.5l0.3,0.2c0.5,0.4,1,0,1-0.5
		c0-0.2-0.1-0.3-0.2-0.4l-0.1-0.1c-1-0.9-2.9-1.5-4.9-1.5c-2.1,0-4,0.6-4.9,1.5l-0.1,0.1c-0.1,0.1-0.1,0.2-0.1,0.4
		c0,0.5,0.6,0.8,1,0.5l0.3-0.2l0,0l0.3-0.2l0,0c0.9-0.5,2.2-0.8,3.5-0.8c1.4,0,2.7,0.3,3.7,0.9l0,0L743.7,701.5L743.7,701.5z"/>
</g>
<g>
	<path class="st1" d="M740.7,634.3c2.8,0,5.1-2.3,5.1-5.1c0-2.8-2.3-5.1-5.1-5.1c-2.8,0-5.1,2.3-5.1,5.1
		C735.6,632,737.9,634.3,740.7,634.3z M740.7,624.7c2.4,0,4.4,2,4.4,4.5c0,2.5-2,4.5-4.4,4.5c-2.4,0-4.4-2-4.4-4.5
		C736.3,626.7,738.3,624.7,740.7,624.7z"/>
	<path class="st1" d="M729.8,638.4c2.8,0,5.1-2.3,5.1-5.1s-2.3-5.1-5.1-5.1c-2.8,0-5.1,2.3-5.1,5.1S727,638.4,729.8,638.4z
		 M729.8,628.8c2.4,0,4.4,2,4.4,4.5c0,2.5-2,4.5-4.4,4.5c-2.4,0-4.4-2-4.4-4.5C725.4,630.8,727.4,628.8,729.8,628.8z"/>
	<path class="st1" d="M751.4,638.4c2.8,0,5.1-2.3,5.1-5.1s-2.3-5.1-5.1-5.1c-2.8,0-5.1,2.3-5.1,5.1S748.6,638.4,751.4,638.4z
		 M751.4,628.8c2.4,0,4.4,2,4.4,4.5c0,2.5-2,4.5-4.4,4.5s-4.4-2-4.4-4.5C747,630.8,749,628.8,751.4,628.8z"/>
	<path class="st1" d="M751.4,639c-1,0-1.9,0.1-2.7,0.2c-0.7-2.6-2.8-4.3-8.1-4.3c-5.3,0-7.3,1.7-8.1,4.3c-0.8-0.1-1.8-0.2-2.8-0.2
		c-7.9,0-8.5,3.7-8.5,8.6v0.3h17v-0.3c0-1.4,0-2.7-0.3-3.8h5.3c-0.2,1.1-0.3,2.4-0.3,3.8v0.3h17v-0.3
		C759.9,642.8,759.3,639,751.4,639z M722,647.3c0-4.6,0.7-7.6,7.8-7.6c1,0,1.9,0.1,2.7,0.2c0.2,0,0.5,0.1,0.7,0.1
		c2.3,0.5,3.4,1.6,3.9,3.1c0.1,0.2,0.1,0.5,0.2,0.7c0.2,1,0.3,2.2,0.3,3.4H722z M737.8,643.2c-0.6-1.8-1.8-3.2-4.5-3.8
		c0.7-2.4,2.5-3.8,7.4-3.8c4.8,0,6.7,1.4,7.4,3.7c-2.8,0.6-4.1,2-4.7,3.8H737.8z M743.6,647.3c0-1.3,0.1-2.4,0.3-3.4
		c0.1-0.2,0.1-0.5,0.2-0.7c0.6-1.6,1.7-2.7,4.1-3.2c0.2,0,0.4-0.1,0.7-0.1c0.7-0.1,1.6-0.2,2.5-0.2c7.1,0,7.8,3,7.8,7.6H743.6z"/>
</g>
<g>
	<g>
		<g>
			<path class="st1" d="M742.2,517.5c-0.3,0-0.5,0-0.8,0c-3.9-0.2-7.4-1.9-10-4.8c-2.6-2.9-3.9-6.6-3.7-10.4c0.2-3.9,1.9-7.4,4.8-10
				c2.9-2.6,6.6-3.9,10.4-3.7c3.9,0.2,7.4,1.9,10,4.8c2.6,2.9,3.9,6.6,3.7,10.4l0,0c-0.2,3.9-1.9,7.4-4.8,10
				C749.2,516.2,745.8,517.5,742.2,517.5z M742.2,489.3c-3.4,0-6.6,1.2-9.1,3.5c-2.7,2.4-4.3,5.8-4.5,9.4c-0.2,3.6,1,7.2,3.5,9.9
				c2.4,2.7,5.8,4.3,9.4,4.5c3.7,0.2,7.2-1,9.9-3.5c2.7-2.4,4.3-5.8,4.5-9.4c0.2-3.6-1-7.2-3.5-9.9c-2.4-2.7-5.8-4.3-9.4-4.5
				C742.7,489.4,742.4,489.3,742.2,489.3z"/>
		</g>
	</g>
	<path class="st1" d="M728.8,498.5c2.1-5.3,7.2-9.2,13.3-9.3l0.4,14.5L728.8,498.5z"/>
</g>
<g>
	<path class="st1" d="M737.2,571.3h-6.9v-15.6h6.9V571.3z M731.1,570.6h5.4v-14.1h-5.4V570.6z"/>
	<path class="st1" d="M745.1,571.3h-6.9v-21.8h6.9V571.3z M739,570.6h5.4v-20.3H739V570.6z"/>
	<path class="st1" d="M753,571.3h-6.9v-11.3h6.9V571.3z M746.9,570.6h5.4v-9.8h-5.4V570.6z"/>
</g>
<path class="st2" d="M152,270.5c-12,0-13,5.7-13,13.2v0.5h1V283h0c0.1-7,1.2-11.5,12-11.5s11.9,4.5,12,11.5h0v1.2h1v-0.5
	C165,276.2,164,270.5,152,270.5z"/>
<path class="st10" d="M386,269.5c-4.3,0-7.7-3.5-7.7-7.8c0-4.3,3.5-7.8,7.7-7.8s7.7,3.5,7.7,7.8C393.7,265.9,390.3,269.5,386,269.5z
	 M386,254.8c-3.7,0-6.7,3.1-6.7,6.8s3,6.8,6.7,6.8s6.7-3.1,6.7-6.8S389.7,254.8,386,254.8z"/>
<path class="st10" d="M386,270.5c-12,0-13,5.7-13,13.2v0.5h1V283h0c0.1-7,1.2-11.5,12-11.5s11.9,4.5,12,11.5h0v1.2h1v-0.5
	C399,276.2,398,270.5,386,270.5z"/>
<path class="st1" d="M628,269.5c-4.3,0-7.7-3.5-7.7-7.8c0-4.3,3.5-7.8,7.7-7.8s7.7,3.5,7.7,7.8C635.7,265.9,632.3,269.5,628,269.5z
	 M628,254.8c-3.7,0-6.7,3.1-6.7,6.8s3,6.8,6.7,6.8s6.7-3.1,6.7-6.8S631.7,254.8,628,254.8z"/>
<path class="st1" d="M628,270.5c-12,0-13,5.7-13,13.2v0.5h1V283h0c0.1-7,1.2-11.5,12-11.5s11.9,4.5,12,11.5h0v1.2h1v-0.5
	C641,276.2,640,270.5,628,270.5z"/>
</svg>
