<?xml version="1.0" encoding="utf-8"?>
<!-- Generator: Adobe Illustrator 22.1.0, SVG Export Plug-In . SVG Version: 6.00 Build 0)  -->
<svg version="1.1" id="Layer_1" xmlns="http://www.w3.org/2000/svg" xmlns:xlink="http://www.w3.org/1999/xlink" x="0px" y="0px"
	 viewBox="0 0 180.8 34" style="enable-background:new 0 0 180.8 34;" xml:space="preserve">
<style type="text/css">
	.st0{fill:#FFFFFF;}
	.st1{fill:#14C2F3;}
</style>
<g>
	<path class="st0" d="M5.1,7.5V10h0.1c0.7-1.1,1.5-1.8,2.5-2.3C8.7,7.2,9.8,7,11.1,7c1.5,0,2.9,0.3,4,0.9c1.1,0.6,2,1.4,2.8,2.3
		c0.7,1,1.3,2.1,1.6,3.4c0.4,1.3,0.5,2.6,0.5,4c0,1.3-0.2,2.6-0.5,3.8s-0.9,2.3-1.6,3.2c-0.7,0.9-1.6,1.7-2.7,2.2
		c-1.1,0.6-2.3,0.8-3.8,0.8c-1.2,0-2.3-0.2-3.4-0.7c-1-0.5-1.9-1.2-2.5-2.2H5.4V34H0V7.5H5.1z M12.1,23.1c0.6-0.4,1.1-0.8,1.4-1.4
		c0.4-0.6,0.6-1.2,0.8-2c0.2-0.8,0.2-1.5,0.2-2.3c0-0.8-0.1-1.6-0.2-2.3c-0.2-0.8-0.4-1.4-0.8-2c-0.4-0.6-0.9-1.1-1.5-1.4
		c-0.6-0.4-1.3-0.6-2.2-0.6c-0.9,0-1.6,0.2-2.2,0.6c-0.6,0.4-1.1,0.8-1.4,1.4c-0.4,0.6-0.6,1.3-0.8,2c-0.2,0.8-0.2,1.5-0.2,2.4
		c0,0.8,0.1,1.6,0.2,2.3c0.2,0.8,0.4,1.4,0.8,2c0.4,0.6,0.9,1,1.5,1.4c0.6,0.4,1.3,0.5,2.2,0.5C10.8,23.6,11.5,23.4,12.1,23.1z"/>
	<path class="st0" d="M28.3,7.5v3.6h0.1c0.3-0.6,0.6-1.2,1-1.7c0.4-0.5,0.9-1,1.5-1.3c0.6-0.4,1.2-0.7,1.8-0.9C33.4,7.1,34,7,34.7,7
		C35,7,35.4,7,35.9,7.1v5c-0.3-0.1-0.6-0.1-0.9-0.1c-0.4,0-0.7-0.1-1-0.1c-1,0-1.8,0.2-2.5,0.5c-0.7,0.3-1.2,0.8-1.7,1.3
		c-0.4,0.6-0.7,1.2-0.9,2c-0.2,0.8-0.3,1.6-0.3,2.5v8.9h-5.4V7.5H28.3z"/>
	<path class="st0" d="M43.1,22.4c0.8,0.8,2,1.2,3.5,1.2c1.1,0,2-0.3,2.8-0.8c0.8-0.5,1.3-1.1,1.4-1.7h4.8c-0.8,2.4-1.9,4-3.5,5.1
		c-1.6,1-3.5,1.5-5.7,1.5c-1.5,0-2.9-0.2-4.2-0.7s-2.3-1.2-3.2-2.1s-1.5-2-2-3.3c-0.5-1.3-0.7-2.7-0.7-4.2c0-1.5,0.2-2.8,0.7-4.1
		c0.5-1.3,1.2-2.4,2.1-3.3s1.9-1.7,3.2-2.2C43.5,7.2,44.9,7,46.4,7c1.7,0,3.1,0.3,4.4,1s2.3,1.5,3.1,2.6c0.8,1.1,1.4,2.3,1.7,3.7
		c0.4,1.4,0.5,2.8,0.4,4.4H41.8C41.8,20.4,42.3,21.6,43.1,22.4z M49.2,12.1c-0.6-0.7-1.6-1.1-2.9-1.1c-0.9,0-1.6,0.1-2.1,0.4
		c-0.6,0.3-1,0.7-1.4,1.1s-0.6,0.9-0.7,1.4c-0.1,0.5-0.2,0.9-0.2,1.3h8.8C50.3,13.8,49.8,12.8,49.2,12.1z"/>
	<path class="st0" d="M64.4,7.5v2.7h0.1c0.7-1,1.6-1.8,2.6-2.4S69.2,7,70.5,7c1.2,0,2.4,0.2,3.4,0.7c1,0.5,1.8,1.3,2.3,2.5
		c0.6-0.9,1.4-1.6,2.4-2.3c1-0.7,2.2-1,3.6-1c1,0,2,0.1,2.9,0.4c0.9,0.3,1.6,0.7,2.3,1.2c0.6,0.6,1.1,1.3,1.5,2.2
		c0.4,0.9,0.5,2,0.5,3.2v13.1h-5.4V16c0-0.7,0-1.3-0.1-1.9c-0.1-0.6-0.2-1.1-0.4-1.5c-0.2-0.4-0.6-0.8-1-1c-0.4-0.3-1-0.4-1.8-0.4
		c-0.8,0-1.4,0.1-1.8,0.4c-0.5,0.3-0.8,0.7-1.1,1.1c-0.3,0.5-0.4,1-0.5,1.6C77,15,77,15.6,77,16.2v10.9h-5.4v-11c0-0.6,0-1.2,0-1.7
		s-0.1-1.1-0.3-1.6c-0.2-0.5-0.5-0.9-1-1.2c-0.4-0.3-1.1-0.4-2-0.4c-0.3,0-0.6,0.1-1,0.2c-0.4,0.1-0.8,0.3-1.2,0.6
		c-0.4,0.3-0.7,0.8-1,1.4c-0.3,0.6-0.4,1.4-0.4,2.3v11.4h-5.4V7.5H64.4z"/>
	<path class="st0" d="M93.7,4.4V0h5.4v4.4H93.7z M99.1,7.5v19.6h-5.4V7.5H99.1z"/>
	<path class="st0" d="M109.1,22.4c0.8,0.8,2,1.2,3.5,1.2c1.1,0,2-0.3,2.8-0.8c0.8-0.5,1.3-1.1,1.4-1.7h4.8c-0.8,2.4-1.9,4-3.5,5.1
		c-1.6,1-3.5,1.5-5.7,1.5c-1.5,0-2.9-0.2-4.2-0.7s-2.3-1.2-3.2-2.1s-1.5-2-2-3.3c-0.5-1.3-0.7-2.7-0.7-4.2c0-1.5,0.2-2.8,0.7-4.1
		c0.5-1.3,1.2-2.4,2.1-3.3s1.9-1.7,3.2-2.2c1.2-0.5,2.6-0.8,4.1-0.8c1.7,0,3.1,0.3,4.4,1s2.3,1.5,3.1,2.6c0.8,1.1,1.4,2.3,1.7,3.7
		c0.4,1.4,0.5,2.8,0.4,4.4h-14.2C107.9,20.4,108.3,21.6,109.1,22.4z M115.2,12.1c-0.6-0.7-1.6-1.1-2.9-1.1c-0.9,0-1.6,0.1-2.1,0.4
		c-0.6,0.3-1,0.7-1.4,1.1s-0.6,0.9-0.7,1.4c-0.1,0.5-0.2,0.9-0.2,1.3h8.8C116.3,13.8,115.9,12.8,115.2,12.1z"/>
	<path class="st0" d="M130.3,7.5v3.6h0.1c0.3-0.6,0.6-1.2,1-1.7c0.4-0.5,0.9-1,1.5-1.3c0.6-0.4,1.2-0.7,1.8-0.9
		c0.6-0.2,1.3-0.3,2-0.3c0.4,0,0.7,0.1,1.2,0.2v5c-0.3-0.1-0.6-0.1-0.9-0.1c-0.4,0-0.7-0.1-1-0.1c-1,0-1.8,0.2-2.5,0.5
		c-0.7,0.3-1.2,0.8-1.7,1.3c-0.4,0.6-0.7,1.2-0.9,2c-0.2,0.8-0.3,1.6-0.3,2.5v8.9h-5.4V7.5H130.3z"/>
	<path class="st1" d="M148.7,11c-0.9,0-1.6,0.2-2.2,0.6c-0.6,0.4-1.1,0.9-1.4,1.5c-0.4,0.6-0.6,1.3-0.8,2.1
		c-0.2,0.7-0.2,1.5-0.2,2.2c0,0.7,0.1,1.4,0.2,2.2c0.2,0.7,0.4,1.4,0.7,2c0.3,0.6,0.8,1.1,1.4,1.5c0.6,0.4,1.3,0.6,2.1,0.6
		c1.3,0,2.3-0.4,3-1.1c0.7-0.7,1.1-1.7,1.3-2.9h5.2c-0.4,2.6-1.4,4.6-3,6c-1.7,1.4-3.8,2.1-6.4,2.1c-1.5,0-2.8-0.2-4-0.7
		c-1.2-0.5-2.3-1.2-3.1-2.1s-1.5-1.9-2-3.2c-0.5-1.2-0.7-2.6-0.7-4c0-1.5,0.2-2.9,0.7-4.2c0.4-1.3,1.1-2.4,2-3.4
		c0.9-0.9,1.9-1.7,3.2-2.2c1.2-0.5,2.7-0.8,4.3-0.8c1.2,0,2.3,0.2,3.4,0.5c1.1,0.3,2,0.8,2.9,1.4c0.8,0.6,1.5,1.4,2.1,2.3
		c0.5,0.9,0.8,2,0.9,3.3h-5.3C152.3,12.1,151,11,148.7,11z"/>
	<path class="st1" d="M161.2,13.1c0.5-1.3,1.2-2.4,2.1-3.3c0.9-0.9,2-1.6,3.2-2.1s2.6-0.7,4.2-0.7s2.9,0.2,4.2,0.7s2.3,1.2,3.2,2.1
		c0.9,0.9,1.6,2,2.1,3.3c0.5,1.3,0.7,2.7,0.7,4.3c0,1.6-0.2,3-0.7,4.3c-0.5,1.3-1.2,2.4-2.1,3.2c-0.9,0.9-2,1.6-3.2,2.1
		s-2.7,0.7-4.2,0.7s-2.9-0.2-4.2-0.7s-2.3-1.2-3.2-2.1c-0.9-0.9-1.6-2-2.1-3.2c-0.5-1.3-0.7-2.7-0.7-4.3
		C160.5,15.8,160.7,14.3,161.2,13.1z M166.1,19.6c0.2,0.7,0.4,1.4,0.8,2c0.4,0.6,0.9,1.1,1.5,1.4c0.6,0.4,1.4,0.5,2.3,0.5
		s1.7-0.2,2.3-0.5c0.6-0.4,1.1-0.8,1.5-1.4c0.4-0.6,0.6-1.3,0.8-2c0.2-0.7,0.2-1.5,0.2-2.3c0-0.8-0.1-1.6-0.2-2.3
		c-0.2-0.8-0.4-1.4-0.8-2c-0.4-0.6-0.9-1.1-1.5-1.4c-0.6-0.4-1.4-0.6-2.3-0.6s-1.7,0.2-2.3,0.6c-0.6,0.4-1.1,0.8-1.5,1.4
		c-0.4,0.6-0.6,1.3-0.8,2c-0.2,0.8-0.2,1.5-0.2,2.3C165.9,18.1,165.9,18.9,166.1,19.6z"/>
</g>
</svg>
