<?xml version="1.0" encoding="utf-8"?>
<!-- Generator: Adobe Illustrator 22.1.0, SVG Export Plug-In . SVG Version: 6.00 Build 0)  -->
<svg version="1.1" id="Layer_1" xmlns="http://www.w3.org/2000/svg" xmlns:xlink="http://www.w3.org/1999/xlink" x="0px" y="0px"
	 viewBox="0 0 387.9 88.8" style="enable-background:new 0 0 387.9 88.8;" xml:space="preserve">
<style type="text/css">
	.st0{fill:#A6A8AB;}
	.st1{fill:#333333;}
	.st2{fill:#676767;}
	.st3{fill:#D8DF25;}
	.st4{fill:none;stroke:#D6DE23;stroke-width:6;stroke-linecap:round;stroke-linejoin:round;stroke-miterlimit:10;}
</style>
<g>
	<rect x="109.9" y="3.8" class="st0" width="277" height="0.5"/>
	<rect x="109.9" y="28.5" class="st0" width="277" height="0.5"/>
	<rect x="109.9" y="53.2" class="st0" width="277" height="0.5"/>
	<rect x="109.9" y="17.3" class="st0" width="277" height="0.5"/>
	<rect x="109.9" y="42" class="st0" width="277" height="0.5"/>
	<rect x="109.9" y="66.7" class="st0" width="277" height="0.5"/>
</g>
<g>
	<path class="st1" d="M113.6,80h1.1v7.9h4.2v0.8h-5.3V80z"/>
	<path class="st1" d="M123.3,80h1l3.6,8.7h-1.1l-1-2.4h-4.1l-1,2.4h-1.1L123.3,80z M125.6,85.5l-1.7-4.3l-1.7,4.3H125.6z"/>
	<path class="st1" d="M129,88.2l0.3-0.8c1.1,0.4,2,0.7,2.8,0.7c0.6,0,1.2-0.1,1.5-0.4s0.6-0.6,0.6-1.1c0-0.3-0.1-0.6-0.3-0.8
		c-0.2-0.2-0.4-0.4-0.7-0.5c-0.3-0.1-0.7-0.3-1.2-0.4c-0.6-0.2-1.1-0.3-1.5-0.5c-0.4-0.2-0.7-0.4-1-0.7c-0.3-0.3-0.4-0.8-0.4-1.3
		c0-0.5,0.1-0.9,0.4-1.2s0.6-0.6,1.1-0.8s1-0.3,1.6-0.3c0.9,0,1.8,0.2,2.8,0.6l-0.3,0.8c-0.9-0.4-1.7-0.5-2.5-0.5
		c-0.6,0-1.1,0.1-1.5,0.4c-0.4,0.3-0.6,0.6-0.6,1.1c0,0.3,0.1,0.6,0.3,0.8c0.2,0.2,0.4,0.4,0.7,0.5c0.3,0.1,0.7,0.3,1.2,0.4
		c0.6,0.2,1.1,0.3,1.5,0.5c0.4,0.2,0.7,0.4,1,0.8c0.3,0.3,0.4,0.8,0.4,1.3c0,0.5-0.1,0.9-0.4,1.2c-0.3,0.4-0.6,0.6-1.1,0.8
		s-1,0.3-1.6,0.3C131.2,88.8,130.2,88.6,129,88.2z"/>
	<path class="st1" d="M139.1,80.8h-3V80h7.1v0.8h-3v7.9h-1.1V80.8z"/>
	<path class="st1" d="M148.1,87.8c-0.6-0.7-0.8-1.7-0.8-3c0-1.6,0.3-2.8,0.9-3.7c0.6-0.9,1.5-1.3,2.7-1.3c0.7,0,1.4,0.2,2.1,0.5
		l-0.4,0.8c-0.6-0.3-1.2-0.5-1.7-0.5c-0.8,0-1.5,0.3-1.9,1c-0.5,0.7-0.7,1.6-0.7,2.9c0.2-0.4,0.5-0.7,0.9-1c0.4-0.2,0.9-0.4,1.4-0.4
		c0.5,0,1,0.1,1.5,0.4c0.4,0.2,0.7,0.6,1,1c0.2,0.4,0.3,0.9,0.3,1.5c0,0.6-0.1,1.1-0.4,1.5s-0.6,0.8-1,1.1c-0.4,0.3-0.9,0.4-1.5,0.4
		C149.4,88.8,148.7,88.5,148.1,87.8z M151.4,87.7c0.3-0.2,0.5-0.4,0.7-0.7c0.2-0.3,0.3-0.7,0.3-1c0-0.6-0.2-1.1-0.5-1.5
		c-0.4-0.4-0.8-0.6-1.4-0.6c-0.4,0-0.7,0.1-1.1,0.2c-0.3,0.2-0.6,0.4-0.8,0.7c-0.2,0.3-0.3,0.6-0.3,0.9c0,0.4,0.1,0.8,0.3,1.2
		c0.2,0.3,0.4,0.6,0.7,0.8c0.3,0.2,0.7,0.3,1.1,0.3C150.8,88,151.1,87.9,151.4,87.7z"/>
	<path class="st1" d="M156.5,88.3c-0.5-0.4-0.9-0.9-1.2-1.6c-0.3-0.7-0.4-1.5-0.4-2.4s0.1-1.7,0.4-2.4c0.3-0.7,0.7-1.2,1.2-1.6
		c0.5-0.4,1.1-0.6,1.8-0.6c0.7,0,1.3,0.2,1.8,0.6c0.5,0.4,0.9,0.9,1.2,1.6c0.3,0.7,0.4,1.5,0.4,2.4s-0.1,1.7-0.4,2.4
		c-0.3,0.7-0.7,1.2-1.2,1.6c-0.5,0.4-1.1,0.6-1.8,0.6C157.6,88.8,157,88.7,156.5,88.3z M159.5,87.6c0.3-0.3,0.6-0.7,0.8-1.3
		c0.2-0.6,0.3-1.2,0.3-2c0-1.1-0.2-2-0.6-2.7c-0.4-0.7-1-1-1.7-1c-0.7,0-1.3,0.3-1.7,1c-0.4,0.7-0.6,1.6-0.6,2.7
		c0,0.8,0.1,1.4,0.3,2c0.2,0.6,0.5,1,0.8,1.3c0.3,0.3,0.8,0.4,1.2,0.4S159.2,87.9,159.5,87.6z"/>
	<path class="st1" d="M166.9,80h3c0.9,0,1.6,0.2,2.3,0.5c0.7,0.4,1.2,0.9,1.6,1.5c0.4,0.7,0.6,1.4,0.6,2.3c0,0.8-0.2,1.6-0.6,2.3
		c-0.4,0.7-0.9,1.2-1.6,1.5c-0.7,0.4-1.4,0.6-2.3,0.6h-3V80z M169.8,87.8c0.7,0,1.3-0.1,1.8-0.4c0.5-0.3,0.9-0.7,1.2-1.2
		c0.3-0.5,0.4-1.1,0.4-1.8s-0.1-1.3-0.4-1.8c-0.3-0.5-0.7-0.9-1.2-1.2s-1.1-0.4-1.8-0.4H168v7H169.8z"/>
	<path class="st1" d="M178.6,80h1l3.6,8.7h-1.1l-1-2.4h-4.1l-1,2.4H175L178.6,80z M180.9,85.5l-1.7-4.3l-1.7,4.3H180.9z"/>
	<path class="st1" d="M185.8,85l-3.2-5h1.2l2.6,4l2.5-4h1.2l-3.2,5v3.7h-1.1V85z"/>
	<path class="st1" d="M190.9,88.2l0.3-0.8c1.1,0.4,2,0.7,2.8,0.7c0.6,0,1.2-0.1,1.5-0.4s0.6-0.6,0.6-1.1c0-0.3-0.1-0.6-0.3-0.8
		s-0.4-0.4-0.7-0.5c-0.3-0.1-0.7-0.3-1.2-0.4c-0.6-0.2-1.1-0.3-1.5-0.5c-0.4-0.2-0.7-0.4-1-0.7s-0.4-0.8-0.4-1.3
		c0-0.5,0.1-0.9,0.4-1.2s0.6-0.6,1.1-0.8c0.5-0.2,1-0.3,1.6-0.3c0.9,0,1.8,0.2,2.8,0.6l-0.3,0.8c-0.9-0.4-1.7-0.5-2.5-0.5
		c-0.6,0-1.1,0.1-1.5,0.4c-0.4,0.3-0.6,0.6-0.6,1.1c0,0.3,0.1,0.6,0.3,0.8c0.2,0.2,0.4,0.4,0.7,0.5c0.3,0.1,0.7,0.3,1.2,0.4
		c0.6,0.2,1.1,0.3,1.5,0.5c0.4,0.2,0.7,0.4,1,0.8s0.4,0.8,0.4,1.3c0,0.5-0.1,0.9-0.4,1.2c-0.3,0.4-0.6,0.6-1.1,0.8
		c-0.5,0.2-1,0.3-1.6,0.3C193.1,88.8,192,88.6,190.9,88.2z"/>
</g>
<g>
	<g>
		<path class="st2" d="M31.1,53c-1.2-0.5-2.1-1.2-2.7-2.1s-1-1.9-1-3.1c0-1.4,0.4-2.5,1.3-3.5c0.9-1,2.1-1.7,3.7-2
			c-1.3-0.3-2.4-1-3.2-1.9C28.4,39.4,28,38.3,28,37c0-1.1,0.3-2.1,0.9-3c0.6-0.9,1.4-1.6,2.5-2c1.1-0.5,2.3-0.7,3.7-0.7
			s2.6,0.2,3.7,0.7c1.1,0.5,1.9,1.2,2.5,2c0.6,0.9,0.9,1.9,0.9,3c0,1.3-0.4,2.4-1.2,3.3c-0.8,0.9-1.9,1.6-3.2,1.9
			c1.6,0.4,2.8,1,3.7,2c0.9,1,1.3,2.1,1.3,3.5c0,1.2-0.3,2.2-1,3.1S40.2,52.5,39,53c-1.2,0.5-2.5,0.8-4,0.8S32.3,53.5,31.1,53z
			 M38.7,50.6c0.9-0.8,1.4-1.8,1.4-3c0-1.2-0.4-2.2-1.3-2.9c-0.9-0.8-2.1-1.3-3.7-1.5c-1.6,0.2-2.8,0.7-3.7,1.5
			c-0.9,0.8-1.3,1.7-1.3,2.9c0,1.2,0.5,2.2,1.4,3c0.9,0.8,2.1,1.1,3.6,1.1S37.8,51.4,38.7,50.6z M38.4,39.8c0.8-0.7,1.3-1.6,1.3-2.7
			c0-1.1-0.4-2-1.3-2.7c-0.9-0.7-2-1.1-3.3-1.1s-2.4,0.4-3.3,1.1c-0.9,0.7-1.3,1.6-1.3,2.7c0,1.1,0.4,2,1.3,2.7
			c0.8,0.7,2,1.2,3.4,1.4C36.5,41,37.6,40.6,38.4,39.8z"/>
		<path class="st2" d="M45.2,52.5l0.9-1.9c1.6,0.8,3,1.1,4.3,1.1c2.1,0,3.7-0.8,4.8-2.5s1.7-4,1.7-7.1c-0.5,1-1.2,1.9-2.3,2.5
			s-2.2,0.9-3.6,0.9c-1.4,0-2.6-0.3-3.6-0.9c-1-0.6-1.9-1.4-2.4-2.5c-0.6-1.1-0.9-2.3-0.9-3.6c0-1.4,0.3-2.6,1-3.7
			c0.6-1.1,1.5-2,2.6-2.6c1.1-0.6,2.3-1,3.7-1c2.5,0,4.4,0.9,5.8,2.6c1.4,1.7,2.1,4.2,2.1,7.4c0,4-0.8,7.1-2.3,9.2s-3.8,3.3-6.6,3.3
			C48.7,53.7,46.9,53.3,45.2,52.5z M54.2,42.9c0.8-0.4,1.4-1,1.9-1.7c0.5-0.7,0.7-1.5,0.7-2.3c0-1.1-0.2-2-0.7-2.9s-1.1-1.5-1.8-2
			c-0.8-0.5-1.6-0.7-2.6-0.7c-0.9,0-1.8,0.2-2.5,0.7c-0.8,0.5-1.4,1.1-1.8,1.9c-0.4,0.8-0.7,1.7-0.7,2.6c0,1.5,0.5,2.7,1.4,3.7
			c0.9,0.9,2.1,1.4,3.6,1.4C52.5,43.5,53.4,43.3,54.2,42.9z"/>
	</g>
	<path class="st3" d="M44.5,18L44.5,18c-1.5,0-2.6-1.2-2.6-2.6V2.6c0-1.5,1.2-2.6,2.6-2.6h0c1.5,0,2.6,1.2,2.6,2.6v12.7
		C47.2,16.8,46,18,44.5,18z"/>
	<path class="st3" d="M61.8,26.4L61.8,26.4c-1-1-1-2.7,0-3.7l9-9c1-1,2.7-1,3.7,0l0,0c1,1,1,2.7,0,3.7l-9,9
		C64.5,27.4,62.8,27.4,61.8,26.4z"/>
	<path class="st3" d="M68,44.5L68,44.5c0-1.5,1.2-2.6,2.6-2.6h12.7c1.5,0,2.6,1.2,2.6,2.6v0c0,1.5-1.2,2.6-2.6,2.6H70.6
		C69.2,47.2,68,46,68,44.5z"/>
	<path class="st3" d="M59.5,61.8L59.5,61.8c1-1,2.7-1,3.7,0l9,9c1,1,1,2.7,0,3.7l0,0c-1,1-2.7,1-3.7,0l-9-9
		C58.5,64.5,58.5,62.8,59.5,61.8z"/>
	<path class="st3" d="M41.4,68L41.4,68c1.5,0,2.6,1.2,2.6,2.6v12.7c0,1.5-1.2,2.6-2.6,2.6h0c-1.5,0-2.6-1.2-2.6-2.6V70.6
		C38.7,69.2,39.9,68,41.4,68z"/>
	<path class="st3" d="M24.2,59.5L24.2,59.5c1,1,1,2.7,0,3.7l-9,9c-1,1-2.7,1-3.7,0l0,0c-1-1-1-2.7,0-3.7l9-9
		C21.5,58.5,23.1,58.5,24.2,59.5z"/>
	<path class="st3" d="M18,41.4L18,41.4c0,1.5-1.2,2.6-2.6,2.6H2.6C1.2,44,0,49.2,0,47.7l0,0c0-1.5,1.2-9,2.6-9h12.7
		C16.8,38.7,18,39.9,18,41.4z"/>
	<path class="st3" d="M26.4,24.2L26.4,24.2c-1,1-2.7,1-3.7,0l-9-9c-1-1-1-2.7,0-3.7l0,0c1-1,2.7-1,3.7,0l9,9
		C27.4,21.5,27.4,23.1,26.4,24.2z"/>
</g>
<polyline class="st4" points="384.9,10.1 362.7,20.9 327.3,13.8 306,16.1 295.7,23.6 263.8,24.6 244.8,48 235.6,41 190.6,54.1 
	176.2,50 159.4,62.2 139.3,59.2 122.9,64.8 108.7,63.3 "/>
</svg>
