<?xml version="1.0" encoding="utf-8"?>
<!-- Generator: Adobe Illustrator 22.1.0, SVG Export Plug-In . SVG Version: 6.00 Build 0)  -->
<svg version="1.1" id="Layer_1" xmlns="http://www.w3.org/2000/svg" xmlns:xlink="http://www.w3.org/1999/xlink" x="0px" y="0px"
	 viewBox="0 0 85.9 85.9" style="enable-background:new 0 0 85.9 85.9;" xml:space="preserve">
<style type="text/css">
	.st0{fill:#676767;}
	.st1{fill:#D8DF25;}
</style>
<g>
	<g>
		<path class="st0" d="M31.1,53c-1.2-0.5-2.1-1.2-2.7-2.1s-1-1.9-1-3.1c0-1.4,0.4-2.5,1.3-3.5c0.9-1,2.1-1.7,3.7-2
			c-1.3-0.3-2.4-1-3.2-1.9C28.4,39.4,28,38.3,28,37c0-1.1,0.3-2.1,0.9-3c0.6-0.9,1.4-1.6,2.5-2c1.1-0.5,2.3-0.7,3.7-0.7
			s2.6,0.2,3.7,0.7c1.1,0.5,1.9,1.2,2.5,2c0.6,0.9,0.9,1.9,0.9,3c0,1.3-0.4,2.4-1.2,3.3c-0.8,0.9-1.9,1.6-3.2,1.9
			c1.6,0.4,2.8,1,3.7,2c0.9,1,1.3,2.1,1.3,3.5c0,1.2-0.3,2.2-1,3.1S40.2,52.5,39,53c-1.2,0.5-2.5,0.8-4,0.8S32.3,53.5,31.1,53z
			 M38.7,50.6c0.9-0.8,1.4-1.8,1.4-3c0-1.2-0.4-2.2-1.3-2.9c-0.9-0.8-2.1-1.3-3.7-1.5c-1.6,0.2-2.8,0.7-3.7,1.5
			c-0.9,0.8-1.3,1.7-1.3,2.9c0,1.2,0.5,2.2,1.4,3c0.9,0.8,2.1,1.1,3.6,1.1S37.8,51.4,38.7,50.6z M38.4,39.8c0.8-0.7,1.3-1.6,1.3-2.7
			c0-1.1-0.4-2-1.3-2.7c-0.9-0.7-2-1.1-3.3-1.1s-2.4,0.4-3.3,1.1c-0.9,0.7-1.3,1.6-1.3,2.7c0,1.1,0.4,2,1.3,2.7
			c0.8,0.7,2,1.2,3.4,1.4C36.5,41,37.6,40.6,38.4,39.8z"/>
		<path class="st0" d="M45.2,52.5l0.9-1.9c1.6,0.8,3,1.1,4.3,1.1c2.1,0,3.7-0.8,4.8-2.5s1.7-4,1.7-7.1c-0.5,1-1.2,1.9-2.3,2.5
			s-2.2,0.9-3.6,0.9c-1.4,0-2.6-0.3-3.6-0.9c-1-0.6-1.9-1.4-2.4-2.5c-0.6-1.1-0.9-2.3-0.9-3.6c0-1.4,0.3-2.6,1-3.7
			c0.6-1.1,1.5-2,2.6-2.6c1.1-0.6,2.3-1,3.7-1c2.5,0,4.4,0.9,5.8,2.6c1.4,1.7,2.1,4.2,2.1,7.4c0,4-0.8,7.1-2.3,9.2s-3.8,3.3-6.6,3.3
			C48.7,53.7,46.9,53.3,45.2,52.5z M54.2,42.9c0.8-0.4,1.4-1,1.9-1.7c0.5-0.7,0.7-1.5,0.7-2.3c0-1.1-0.2-2-0.7-2.9s-1.1-1.5-1.8-2
			c-0.8-0.5-1.6-0.7-2.6-0.7c-0.9,0-1.8,0.2-2.5,0.7c-0.8,0.5-1.4,1.1-1.8,1.9c-0.4,0.8-0.7,1.7-0.7,2.6c0,1.5,0.5,2.7,1.4,3.7
			c0.9,0.9,2.1,1.4,3.6,1.4C52.5,43.5,53.4,43.3,54.2,42.9z"/>
	</g>
	<path class="st1" d="M44.5,18L44.5,18c-1.5,0-2.6-1.2-2.6-2.6V2.6c0-1.5,1.2-2.6,2.6-2.6h0c1.5,0,2.6,1.2,2.6,2.6v12.7
		C47.2,16.8,46,18,44.5,18z"/>
	<path class="st1" d="M61.8,26.4L61.8,26.4c-1-1-1-2.7,0-3.7l9-9c1-1,2.7-1,3.7,0l0,0c1,1,1,2.7,0,3.7l-9,9
		C64.5,27.4,62.8,27.4,61.8,26.4z"/>
	<path class="st1" d="M68,44.5L68,44.5c0-1.5,1.2-2.6,2.6-2.6h12.7c1.5,0,2.6,1.2,2.6,2.6v0c0,1.5-1.2,2.6-2.6,2.6H70.6
		C69.2,47.2,68,46,68,44.5z"/>
	<path class="st1" d="M59.5,61.8L59.5,61.8c1-1,2.7-1,3.7,0l9,9c1,1,1,2.7,0,3.7l0,0c-1,1-2.7,1-3.7,0l-9-9
		C58.5,64.5,58.5,62.8,59.5,61.8z"/>
	<path class="st1" d="M41.4,68L41.4,68c1.5,0,2.6,1.2,2.6,2.6v12.7c0,1.5-1.2,2.6-2.6,2.6h0c-1.5,0-2.6-1.2-2.6-2.6V70.6
		C38.7,69.2,39.9,68,41.4,68z"/>
	<path class="st1" d="M24.2,59.5L24.2,59.5c1,1,1,2.7,0,3.7l-9,9c-1,1-2.7,1-3.7,0l0,0c-1-1-1-2.7,0-3.7l9-9
		C21.5,58.5,23.1,58.5,24.2,59.5z"/>
	<path class="st1" d="M18,41.4L18,41.4c0,1.5-1.2,2.6-2.6,2.6H2.6C1.2,44,0,49.2,0,47.7l0,0c0-1.5,1.2-9,2.6-9h12.7
		C16.8,38.7,18,39.9,18,41.4z"/>
	<path class="st1" d="M26.4,24.2L26.4,24.2c-1,1-2.7,1-3.7,0l-9-9c-1-1-1-2.7,0-3.7l0,0c1-1,2.7-1,3.7,0l9,9
		C27.4,21.5,27.4,23.1,26.4,24.2z"/>
</g>
</svg>
