<?xml version="1.0" encoding="utf-8"?>
<!-- Generator: Adobe Illustrator 22.1.0, SVG Export Plug-In . SVG Version: 6.00 Build 0)  -->
<svg version="1.1" id="Layer_1" xmlns="http://www.w3.org/2000/svg" xmlns:xlink="http://www.w3.org/1999/xlink" x="0px" y="0px"
	 viewBox="0 0 61.3 61.3" style="enable-background:new 0 0 61.3 61.3;" xml:space="preserve">
<style type="text/css">
	.st0{fill:#92298D;}
	.st1{fill:#FFFFFF;}
</style>
<g>
	<path class="st0" d="M30.7,61.3L30.7,61.3C13.8,61.3,0,47.5,0,30.7v0C0,13.8,13.8,0,30.7,0h0c16.9,0,30.7,13.8,30.7,30.7v0
		C61.3,47.5,47.5,61.3,30.7,61.3z"/>
</g>
<g>
	<path class="st1" d="M19.4,19.9h-6.2l-0.6,4.2c0.4,0,0.7-0.1,1.3-0.1c1.2,0,2.5,0.3,3.5,0.9c1.3,0.7,2.3,2.1,2.3,4.2
		c0,3.2-2.5,5.5-6,5.5c-1.8,0-3.3-0.5-4-1l0.5-1.7c0.7,0.4,2,0.9,3.5,0.9c2.1,0,3.8-1.3,3.8-3.5c0-2.1-1.4-3.6-4.7-3.6
		c-0.9,0-1.6,0.1-2.2,0.2l1-7.8h7.8V19.9z"/>
	<path class="st1" d="M33.4,26c0,5.5-2,8.6-5.6,8.6c-3.2,0-5.3-3-5.4-8.3c0-5.4,2.3-8.4,5.6-8.4C31.4,17.8,33.4,20.8,33.4,26z
		 M24.5,26.3c0,4.2,1.3,6.6,3.3,6.6c2.2,0,3.3-2.6,3.3-6.8c0-4-1-6.6-3.3-6.6C25.9,19.5,24.5,21.8,24.5,26.3z"/>
	<path class="st1" d="M35.6,33c0-0.9,0.6-1.6,1.5-1.6s1.5,0.6,1.5,1.6c0,0.9-0.6,1.6-1.5,1.6C36.2,34.6,35.6,33.9,35.6,33z"/>
	<path class="st1" d="M50.3,19.9h-6.2l-0.6,4.2c0.4,0,0.7-0.1,1.3-0.1c1.2,0,2.5,0.3,3.5,0.9c1.3,0.7,2.3,2.1,2.3,4.2
		c0,3.2-2.5,5.5-6,5.5c-1.8,0-3.3-0.5-4-1l0.5-1.7c0.7,0.4,2,0.9,3.5,0.9c2.1,0,3.8-1.3,3.8-3.5c0-2.1-1.4-3.6-4.7-3.6
		c-0.9,0-1.6,0.1-2.2,0.2l1.1-7.8h7.8V19.9z"/>
	<path class="st1" d="M23.1,39.1h1.1V43h0c0.2-0.3,0.5-0.6,0.8-0.8c0.3-0.2,0.7-0.3,1.2-0.3c0.8,0,2.2,0.5,2.2,2.7v3.7h-1.1v-3.6
		c0-1-0.4-1.9-1.5-1.9c-0.7,0-1.3,0.5-1.5,1.1c-0.1,0.2-0.1,0.3-0.1,0.5v3.8h-1.1V39.1z"/>
	<path class="st1" d="M30.3,44c0-0.7,0-1.4-0.1-2h1l0,1.2h0.1c0.3-0.8,1-1.4,1.7-1.4c0.1,0,0.2,0,0.3,0V43c-0.1,0-0.2,0-0.4,0
		c-0.8,0-1.4,0.6-1.5,1.5c0,0.2-0.1,0.3-0.1,0.5v3.4h-1.1V44z"/>
	<path class="st1" d="M34.4,47.1c0.3,0.2,0.9,0.5,1.5,0.5c0.8,0,1.2-0.4,1.2-0.9c0-0.5-0.3-0.8-1.2-1.2c-1.1-0.4-1.7-1-1.7-1.8
		c0-1,0.8-1.8,2.2-1.8c0.6,0,1.2,0.2,1.5,0.4l-0.3,0.8c-0.2-0.2-0.7-0.4-1.3-0.4c-0.7,0-1.1,0.4-1.1,0.9c0,0.5,0.4,0.8,1.2,1.1
		c1.1,0.4,1.7,1,1.7,1.9c0,1.1-0.9,1.9-2.4,1.9c-0.7,0-1.3-0.2-1.8-0.4L34.4,47.1z"/>
</g>
</svg>
