<?xml version="1.0" encoding="utf-8"?>
<!-- Generator: Adobe Illustrator 22.1.0, SVG Export Plug-In . SVG Version: 6.00 Build 0)  -->
<svg version="1.1" id="Layer_1" xmlns="http://www.w3.org/2000/svg" xmlns:xlink="http://www.w3.org/1999/xlink" x="0px" y="0px"
	 viewBox="0 0 150.9 77.5" style="enable-background:new 0 0 150.9 77.5;" xml:space="preserve">
<style type="text/css">
	.st0{fill:#D85855;}
	.st1{fill:#313337;}
	.st2{fill:#58595B;}
</style>
<g>
	<g>
		<path class="st0" d="M0.8,10.1l0.7-0.8l3.3,3.3V2h1v10.6l3.3-3.3l0.7,0.8l-4.5,4.5L0.8,10.1z"/>
		<path class="st1" d="M16.9,11.8c-0.6-0.5-1.1-1.2-1.5-2.2c-0.4-0.9-0.5-2.1-0.5-3.3s0.2-2.4,0.5-3.3c0.4-0.9,0.9-1.7,1.5-2.2
			S18.3,0,19.2,0c0.9,0,1.6,0.3,2.3,0.8S22.6,2,23,3c0.4,0.9,0.5,2.1,0.5,3.3S23.3,8.6,23,9.6c-0.4,0.9-0.9,1.7-1.5,2.2
			s-1.4,0.8-2.3,0.8C18.3,12.5,17.6,12.3,16.9,11.8z M21,11.1c0.5-0.5,0.9-1.1,1.2-1.9s0.4-1.8,0.4-2.9c0-1.1-0.1-2.1-0.4-2.9
			S21.5,1.9,21,1.4c-0.5-0.5-1.1-0.7-1.8-0.7c-0.7,0-1.3,0.2-1.8,0.7c-0.5,0.5-0.9,1.1-1.2,1.9s-0.4,1.8-0.4,2.9
			c0,1.1,0.1,2.1,0.4,2.9s0.7,1.5,1.2,1.9c0.5,0.5,1.1,0.7,1.8,0.7C19.9,11.8,20.5,11.6,21,11.1z"/>
		<path class="st1" d="M25.1,12.3c-0.1-0.1-0.2-0.3-0.2-0.5s0.1-0.4,0.2-0.5c0.1-0.1,0.3-0.2,0.5-0.2s0.4,0.1,0.5,0.2
			c0.1,0.1,0.2,0.3,0.2,0.5s-0.1,0.4-0.2,0.5c-0.1,0.1-0.3,0.2-0.5,0.2S25.2,12.4,25.1,12.3z"/>
		<path class="st1" d="M32.6,1.1l-3.4,1.9l-0.3-0.6l3.8-2.2h0.7v12.1h-0.8V1.1z"/>
		<path class="st1" d="M39.4,12.1c-0.6-0.3-1.1-0.7-1.4-1.1c-0.3-0.5-0.5-1.1-0.5-1.7c0-0.8,0.3-1.5,0.8-2c0.5-0.6,1.3-0.9,2.2-1.1
			c-0.8-0.2-1.5-0.5-2-1.1c-0.5-0.5-0.8-1.2-0.8-1.9c0-0.6,0.2-1.1,0.5-1.6c0.3-0.5,0.8-0.8,1.4-1.1C40.1,0.1,40.7,0,41.5,0
			c0.7,0,1.4,0.1,1.9,0.4c0.6,0.3,1,0.6,1.4,1.1c0.3,0.5,0.5,1,0.5,1.6c0,0.8-0.3,1.4-0.8,1.9c-0.5,0.5-1.2,0.9-2,1.1
			c1,0.2,1.7,0.6,2.2,1.1c0.5,0.6,0.8,1.2,0.8,2c0,0.6-0.2,1.2-0.5,1.7c-0.3,0.5-0.8,0.9-1.4,1.1c-0.6,0.3-1.3,0.4-2.1,0.4
			S40,12.4,39.4,12.1z M43.8,11.1c0.6-0.5,0.9-1.1,0.9-1.9c0-0.7-0.3-1.3-0.9-1.8c-0.6-0.5-1.4-0.8-2.3-0.9c-1,0.1-1.8,0.5-2.3,0.9
			c-0.6,0.5-0.9,1.1-0.9,1.8c0,0.8,0.3,1.4,0.9,1.9c0.6,0.5,1.4,0.7,2.3,0.7C42.4,11.8,43.2,11.6,43.8,11.1z M43.6,4.9
			c0.5-0.5,0.8-1,0.8-1.7c0-0.5-0.1-0.9-0.4-1.3C43.8,1.5,43.4,1.2,43,1s-1-0.3-1.5-0.3c-0.6,0-1.1,0.1-1.5,0.3
			c-0.5,0.2-0.8,0.5-1.1,0.9c-0.3,0.4-0.4,0.8-0.4,1.3c0,0.7,0.3,1.3,0.8,1.7s1.3,0.8,2.1,0.9C42.3,5.6,43.1,5.4,43.6,4.9z"/>
		<path class="st1" d="M48,6.1c-0.4-0.3-0.8-0.7-1-1.2c-0.2-0.5-0.4-1-0.4-1.7s0.1-1.2,0.4-1.7c0.2-0.5,0.6-0.9,1-1.2
			C48.5,0.1,49,0,49.5,0c0.6,0,1,0.1,1.5,0.4c0.4,0.3,0.8,0.7,1,1.2s0.4,1,0.4,1.7S52.3,4.4,52,4.9c-0.2,0.5-0.6,0.9-1,1.2
			c-0.4,0.3-0.9,0.4-1.5,0.4C49,6.5,48.5,6.3,48,6.1z M51.1,5.2c0.4-0.5,0.6-1.1,0.6-1.9c0-0.8-0.2-1.4-0.6-1.9
			c-0.4-0.5-0.9-0.7-1.6-0.7c-0.6,0-1.2,0.2-1.6,0.7c-0.4,0.5-0.6,1.1-0.6,1.9c0,0.8,0.2,1.4,0.6,1.9c0.4,0.5,0.9,0.7,1.6,0.7
			C50.2,5.9,50.7,5.6,51.1,5.2z M57.7,0.2h0.8l-9.1,12.1h-0.8L57.7,0.2z M56.1,12.1c-0.4-0.3-0.8-0.7-1-1.2s-0.4-1.1-0.4-1.7
			c0-0.6,0.1-1.2,0.4-1.7c0.2-0.5,0.6-0.9,1-1.2C56.5,6.2,57,6,57.5,6c0.6,0,1,0.1,1.5,0.4c0.4,0.3,0.8,0.7,1,1.2
			c0.2,0.5,0.4,1.1,0.4,1.7c0,0.6-0.1,1.2-0.4,1.7c-0.2,0.5-0.6,0.9-1,1.2c-0.4,0.3-0.9,0.4-1.5,0.4C57,12.5,56.5,12.4,56.1,12.1z
			 M59.1,11.2c0.4-0.5,0.6-1.1,0.6-1.9c0-0.8-0.2-1.4-0.6-1.9c-0.4-0.5-0.9-0.7-1.6-0.7c-0.6,0-1.2,0.2-1.6,0.7s-0.6,1.1-0.6,1.9
			c0,0.8,0.2,1.4,0.6,1.9c0.4,0.5,0.9,0.7,1.6,0.7C58.2,11.9,58.7,11.7,59.1,11.2z"/>
	</g>
</g>
<g>
	<g>
		<path class="st2" d="M0,67.9h3.8c0.5,0,1,0.1,1.4,0.3c0.4,0.2,0.7,0.5,1,0.9c0.2,0.4,0.4,0.8,0.4,1.3c0,0.5-0.1,0.9-0.4,1.3
			c-0.3,0.4-0.6,0.6-1.1,0.8c0.6,0.2,1,0.4,1.3,0.9s0.5,0.9,0.5,1.5c0,0.5-0.1,0.9-0.4,1.3c-0.2,0.4-0.6,0.7-1,0.9
			c-0.4,0.2-0.9,0.3-1.5,0.3H0V67.9z M3.7,72.1c0.5,0,1-0.2,1.3-0.5s0.5-0.7,0.5-1.2c0-0.5-0.2-0.9-0.5-1.2
			c-0.3-0.3-0.8-0.5-1.3-0.5H1.1v3.3H3.7z M3.9,76.4c0.6,0,1-0.2,1.4-0.5c0.4-0.3,0.5-0.8,0.5-1.3c0-0.5-0.2-0.9-0.5-1.3
			s-0.8-0.5-1.4-0.5H1.1v3.6H3.9z"/>
		<path class="st2" d="M9.1,77c-0.5-0.3-0.8-0.7-1.1-1.3s-0.4-1.2-0.4-1.8c0-0.7,0.1-1.3,0.4-1.8s0.6-1,1.1-1.3
			c0.5-0.3,1-0.5,1.6-0.5c0.5,0,0.9,0.1,1.3,0.3c0.4,0.2,0.7,0.5,0.9,0.9l0.1-1.1h1v6.8h-0.9l-0.1-1.1c-0.2,0.4-0.6,0.7-1,1
			c-0.4,0.2-0.9,0.3-1.4,0.3C10.1,77.5,9.6,77.3,9.1,77z M12.4,76c0.4-0.4,0.6-0.9,0.6-1.5v-1.1c0-0.6-0.2-1.1-0.6-1.5
			c-0.4-0.4-0.9-0.6-1.4-0.6c-0.4,0-0.8,0.1-1.1,0.3s-0.6,0.5-0.8,0.9c-0.2,0.4-0.3,0.9-0.3,1.4c0,0.5,0.1,1,0.3,1.4
			c0.2,0.4,0.4,0.7,0.8,0.9c0.3,0.2,0.7,0.3,1.1,0.3C11.6,76.6,12.1,76.4,12.4,76z"/>
		<path class="st2" d="M16.1,77c-0.3-0.3-0.5-0.7-0.5-1.2v-8.4h1.1v8.3c0,0.3,0.1,0.5,0.2,0.6c0.1,0.1,0.4,0.2,0.6,0.2
			c0.2,0,0.4,0,0.7-0.1l0.1,0.9c-0.4,0.1-0.7,0.1-1.1,0.1C16.8,77.5,16.4,77.3,16.1,77z"/>
		<path class="st2" d="M19.7,77c-0.5-0.3-0.8-0.7-1.1-1.3s-0.4-1.2-0.4-1.8c0-0.7,0.1-1.3,0.4-1.8s0.6-1,1.1-1.3
			c0.5-0.3,1-0.5,1.6-0.5c0.5,0,0.9,0.1,1.3,0.3c0.4,0.2,0.7,0.5,0.9,0.9l0.1-1.1h1v6.8h-0.9l-0.1-1.1c-0.2,0.4-0.6,0.7-1,1
			c-0.4,0.2-0.9,0.3-1.4,0.3C20.7,77.5,20.2,77.3,19.7,77z M23,76c0.4-0.4,0.6-0.9,0.6-1.5v-1.1c0-0.6-0.2-1.1-0.6-1.5
			c-0.4-0.4-0.9-0.6-1.4-0.6c-0.4,0-0.8,0.1-1.1,0.3s-0.6,0.5-0.8,0.9c-0.2,0.4-0.3,0.9-0.3,1.4c0,0.5,0.1,1,0.3,1.4
			c0.2,0.4,0.4,0.7,0.8,0.9c0.3,0.2,0.7,0.3,1.1,0.3C22.2,76.6,22.6,76.4,23,76z"/>
		<path class="st2" d="M26.2,70.5h0.9l0.1,1.2c0.2-0.4,0.6-0.8,1-1c0.4-0.2,0.9-0.4,1.5-0.4c0.5,0,0.9,0.1,1.3,0.3
			c0.4,0.2,0.7,0.5,0.9,0.9s0.3,0.8,0.3,1.3v4.4h-1.1V73c0-0.5-0.2-0.9-0.5-1.3s-0.8-0.5-1.3-0.5c-0.6,0-1.1,0.2-1.5,0.6
			c-0.4,0.4-0.6,0.9-0.6,1.6v3.8h-1.1V70.5z"/>
		<path class="st2" d="M34.8,77c-0.5-0.3-0.9-0.7-1.2-1.3s-0.4-1.2-0.4-1.8c0-0.7,0.1-1.3,0.4-1.8s0.7-1,1.2-1.3
			c0.5-0.3,1.1-0.5,1.8-0.5c0.8,0,1.6,0.3,2.4,0.8l-0.5,0.8c-0.6-0.4-1.2-0.6-1.8-0.6c-0.5,0-0.9,0.1-1.3,0.3
			c-0.4,0.2-0.7,0.5-0.9,0.9c-0.2,0.4-0.3,0.9-0.3,1.4c0,0.5,0.1,1,0.3,1.4c0.2,0.4,0.5,0.7,0.9,0.9c0.4,0.2,0.8,0.3,1.3,0.3
			c0.6,0,1.2-0.2,1.8-0.6l0.5,0.8c-0.8,0.5-1.6,0.8-2.4,0.8C35.9,77.5,35.3,77.3,34.8,77z"/>
		<path class="st2" d="M40.9,77c-0.5-0.3-1-0.7-1.3-1.3s-0.5-1.2-0.5-1.8c0-0.7,0.1-1.3,0.4-1.8c0.3-0.5,0.7-1,1.2-1.3
			c0.5-0.3,1.1-0.5,1.7-0.5c0.6,0,1.1,0.1,1.6,0.4s0.8,0.7,1.1,1.2c0.3,0.5,0.4,1.1,0.4,1.8c0,0.2,0,0.3,0,0.4h-5.3
			c0,0.7,0.3,1.3,0.8,1.8c0.5,0.4,1.1,0.7,1.8,0.7c0.7,0,1.3-0.2,2.1-0.6l0.4,0.8c-0.9,0.4-1.7,0.7-2.5,0.7
			C42,77.5,41.4,77.3,40.9,77z M44.5,73.5c0-0.7-0.2-1.2-0.6-1.6c-0.4-0.4-0.8-0.6-1.4-0.6c-0.6,0-1.1,0.2-1.5,0.6s-0.6,1-0.7,1.7
			H44.5z"/>
		<path class="st2" d="M50.1,77c-0.5-0.3-0.8-0.7-1.1-1.3s-0.4-1.2-0.4-1.8c0-0.7,0.1-1.3,0.4-1.8s0.6-1,1.1-1.3
			c0.5-0.3,1-0.5,1.6-0.5c0.5,0,0.9,0.1,1.3,0.3c0.4,0.2,0.7,0.5,0.9,0.9l0.1-1.1h1v6.8h-0.9l-0.1-1.1c-0.2,0.4-0.6,0.7-1,1
			c-0.4,0.2-0.9,0.3-1.4,0.3C51.1,77.5,50.6,77.3,50.1,77z M53.4,76c0.4-0.4,0.6-0.9,0.6-1.5v-1.1c0-0.6-0.2-1.1-0.6-1.5
			c-0.4-0.4-0.9-0.6-1.4-0.6c-0.4,0-0.8,0.1-1.1,0.3s-0.6,0.5-0.8,0.9c-0.2,0.4-0.3,0.9-0.3,1.4c0,0.5,0.1,1,0.3,1.4
			c0.2,0.4,0.4,0.7,0.8,0.9c0.3,0.2,0.7,0.3,1.1,0.3C52.6,76.6,53.1,76.4,53.4,76z"/>
		<path class="st2" d="M56.1,77l0.3-0.8c0.8,0.3,1.5,0.5,2.2,0.5c0.5,0,0.8-0.1,1.1-0.3s0.4-0.5,0.4-0.8c0-0.2-0.1-0.4-0.2-0.6
			s-0.3-0.3-0.5-0.4c-0.2-0.1-0.5-0.2-0.9-0.3c-0.5-0.1-0.9-0.3-1.2-0.4s-0.6-0.3-0.8-0.6c-0.2-0.3-0.3-0.6-0.3-1.1
			c0-0.4,0.1-0.7,0.3-1s0.5-0.5,0.9-0.7c0.4-0.2,0.8-0.2,1.3-0.2c0.7,0,1.5,0.2,2.3,0.5l-0.3,0.8c-0.7-0.3-1.4-0.4-2-0.4
			c-0.4,0-0.8,0.1-1.1,0.3c-0.3,0.2-0.4,0.4-0.4,0.8c0,0.3,0.1,0.6,0.4,0.7c0.3,0.2,0.7,0.3,1.2,0.5c0.5,0.1,0.9,0.3,1.2,0.4
			s0.6,0.3,0.8,0.6s0.3,0.6,0.3,1.1c0,0.6-0.2,1-0.7,1.4c-0.5,0.4-1.1,0.5-1.8,0.5C57.8,77.5,57,77.3,56.1,77z"/>
		<path class="st2" d="M66,77c-0.5-0.3-0.9-0.7-1.2-1.3s-0.4-1.2-0.4-1.8c0-0.7,0.1-1.3,0.4-1.8s0.7-1,1.2-1.3
			c0.5-0.3,1.1-0.5,1.8-0.5c0.7,0,1.3,0.2,1.8,0.5c0.5,0.3,0.9,0.7,1.2,1.3s0.4,1.2,0.4,1.8c0,0.7-0.1,1.3-0.4,1.8s-0.7,1-1.2,1.3
			c-0.5,0.3-1.1,0.5-1.8,0.5C67.2,77.5,66.6,77.3,66,77z M69,76.2c0.4-0.2,0.6-0.5,0.8-0.9c0.2-0.4,0.3-0.9,0.3-1.4
			c0-0.5-0.1-1-0.3-1.4c-0.2-0.4-0.5-0.7-0.8-1c-0.4-0.2-0.8-0.3-1.2-0.3c-0.4,0-0.8,0.1-1.2,0.3c-0.4,0.2-0.6,0.5-0.8,1
			c-0.2,0.4-0.3,0.9-0.3,1.4c0,0.5,0.1,1,0.3,1.4c0.2,0.4,0.5,0.7,0.8,0.9c0.4,0.2,0.8,0.3,1.2,0.3C68.3,76.6,68.7,76.5,69,76.2z"/>
		<path class="st2" d="M72.6,71.4h-1.4v-0.9h1.4v-1.2c0-0.6,0.2-1.1,0.6-1.4c0.4-0.4,0.9-0.5,1.5-0.5c0.4,0,0.8,0.1,1.3,0.2
			l-0.2,0.9c-0.4-0.1-0.7-0.1-0.9-0.1c-0.4,0-0.7,0.1-0.9,0.3s-0.3,0.5-0.3,0.9v1.1h1.9v0.9h-1.9v5.9h-1.1V71.4z"/>
		<path class="st2" d="M79.2,67.9h1.1l5.7,7.8v-7.8h1.1v9.4H86l-5.7-7.8v7.8h-1.1V67.9z"/>
		<path class="st2" d="M90.1,77c-0.5-0.3-0.9-0.7-1.2-1.3s-0.4-1.2-0.4-1.8c0-0.7,0.1-1.3,0.4-1.8s0.7-1,1.2-1.3
			c0.5-0.3,1.1-0.5,1.8-0.5c0.7,0,1.3,0.2,1.8,0.5c0.5,0.3,0.9,0.7,1.2,1.3s0.4,1.2,0.4,1.8c0,0.7-0.1,1.3-0.4,1.8s-0.7,1-1.2,1.3
			c-0.5,0.3-1.1,0.5-1.8,0.5C91.2,77.5,90.6,77.3,90.1,77z M93.1,76.2c0.4-0.2,0.6-0.5,0.8-0.9s0.3-0.9,0.3-1.4c0-0.5-0.1-1-0.3-1.4
			c-0.2-0.4-0.5-0.7-0.8-1c-0.4-0.2-0.8-0.3-1.2-0.3c-0.4,0-0.8,0.1-1.2,0.3c-0.4,0.2-0.6,0.5-0.8,1c-0.2,0.4-0.3,0.9-0.3,1.4
			c0,0.5,0.1,1,0.3,1.4c0.2,0.4,0.5,0.7,0.8,0.9c0.4,0.2,0.8,0.3,1.2,0.3C92.3,76.6,92.7,76.5,93.1,76.2z"/>
		<path class="st2" d="M95.4,70.5h1.2l2.2,5.5l2.1-5.5h1.2l-2.8,6.8h-1L95.4,70.5z"/>
		<path class="st2" d="M108.3,69l-2.4,1.4l-0.4-0.8l3-1.7h0.9v9.4h-1.1V69z"/>
		<path class="st2" d="M112.2,76.6l3.7-3.7c0.8-0.8,1.1-1.5,1.1-2.3c0-0.6-0.2-1-0.6-1.4c-0.4-0.4-0.9-0.5-1.4-0.5
			c-0.4,0-0.7,0.1-1.1,0.2c-0.4,0.1-0.8,0.3-1.2,0.6l-0.4-0.8c1-0.6,2-0.9,3-0.9c0.6,0,1.1,0.1,1.5,0.4s0.8,0.6,1,1
			c0.2,0.4,0.4,0.9,0.4,1.4c0,0.5-0.1,1-0.3,1.5c-0.2,0.5-0.6,0.9-1,1.4l-3.1,3.1h4.5v0.9h-6V76.6z"/>
		<path class="st2" d="M122.3,76.6l3.7-3.7c0.8-0.8,1.1-1.5,1.1-2.3c0-0.6-0.2-1-0.6-1.4c-0.4-0.4-0.9-0.5-1.4-0.5
			c-0.4,0-0.7,0.1-1.1,0.2c-0.4,0.1-0.8,0.3-1.2,0.6l-0.4-0.8c1-0.6,2-0.9,3-0.9c0.6,0,1.1,0.1,1.5,0.4c0.4,0.2,0.8,0.6,1,1
			s0.4,0.9,0.4,1.4c0,0.5-0.1,1-0.3,1.5c-0.2,0.5-0.6,0.9-1,1.4l-3.1,3.1h4.5v0.9h-6V76.6z"/>
		<path class="st2" d="M131.1,76.9c-0.5-0.4-0.9-1-1.2-1.7c-0.3-0.7-0.4-1.6-0.4-2.6s0.1-1.8,0.4-2.6c0.3-0.7,0.7-1.3,1.2-1.7
			c0.5-0.4,1.1-0.6,1.8-0.6c0.7,0,1.3,0.2,1.8,0.6c0.5,0.4,0.9,1,1.2,1.7c0.3,0.7,0.4,1.6,0.4,2.6s-0.1,1.9-0.4,2.6
			c-0.3,0.7-0.7,1.3-1.2,1.7c-0.5,0.4-1.1,0.6-1.8,0.6C132.2,77.5,131.6,77.3,131.1,76.9z M134.2,76.1c0.4-0.3,0.6-0.8,0.8-1.4
			s0.3-1.3,0.3-2.1c0-0.8-0.1-1.5-0.3-2.1s-0.5-1-0.8-1.4s-0.8-0.5-1.3-0.5c-0.5,0-0.9,0.2-1.3,0.5s-0.6,0.8-0.8,1.4
			s-0.3,1.3-0.3,2.1c0,0.8,0.1,1.5,0.3,2.1s0.5,1,0.8,1.4s0.8,0.5,1.3,0.5C133.4,76.5,133.8,76.4,134.2,76.1z"/>
		<path class="st2" d="M140.4,69l-2.4,1.4l-0.4-0.8l3-1.7h0.9v9.4h-1.1V69z"/>
		<path class="st2" d="M145.9,77.1c-0.5-0.2-0.9-0.5-1.2-0.9c-0.3-0.4-0.4-0.8-0.4-1.3c0-0.6,0.2-1.1,0.6-1.5
			c0.4-0.4,0.9-0.7,1.6-0.9c-0.6-0.1-1-0.4-1.4-0.8c-0.4-0.4-0.5-0.9-0.5-1.4c0-0.5,0.1-0.9,0.4-1.3c0.3-0.4,0.6-0.7,1.1-0.9
			s1-0.3,1.6-0.3c0.6,0,1.1,0.1,1.6,0.3s0.8,0.5,1.1,0.9c0.3,0.4,0.4,0.8,0.4,1.3c0,0.6-0.2,1-0.5,1.4c-0.4,0.4-0.8,0.7-1.4,0.8
			c0.7,0.2,1.2,0.5,1.6,0.9c0.4,0.4,0.6,0.9,0.6,1.5c0,0.5-0.1,1-0.4,1.3c-0.3,0.4-0.7,0.7-1.2,0.9c-0.5,0.2-1.1,0.3-1.7,0.3
			C147,77.5,146.4,77.4,145.9,77.1z M149.2,76.1c0.4-0.3,0.6-0.8,0.6-1.3c0-0.5-0.2-0.9-0.6-1.3c-0.4-0.3-0.9-0.5-1.6-0.7
			c-0.7,0.1-1.2,0.3-1.6,0.7s-0.6,0.8-0.6,1.3c0,0.5,0.2,0.9,0.6,1.3c0.4,0.3,0.9,0.5,1.6,0.5C148.3,76.6,148.8,76.4,149.2,76.1z
			 M149.1,71.5c0.4-0.3,0.5-0.7,0.5-1.2c0-0.5-0.2-0.9-0.6-1.2c-0.4-0.3-0.9-0.5-1.4-0.5c-0.6,0-1,0.2-1.4,0.5
			c-0.4,0.3-0.6,0.7-0.6,1.2c0,0.5,0.2,0.9,0.5,1.2c0.4,0.3,0.8,0.5,1.5,0.6C148.2,72,148.7,71.8,149.1,71.5z"/>
	</g>
</g>
<g>
	<g>
		<path class="st2" d="M7.5,52c-1.9-0.1-3.9-0.6-6.1-1.5l0.7-2.2c1.9,0.8,3.7,1.3,5.5,1.5v-7.3c-1.2-0.3-2.3-0.7-3.1-1.1
			c-0.8-0.4-1.5-1-2.1-1.7c-0.5-0.8-0.8-1.7-0.8-2.9c0-1.5,0.5-2.7,1.6-3.7c1.1-1,2.5-1.6,4.3-1.8v-5.8h2.4v5.8
			c1.5,0.1,3.3,0.6,5.4,1.4l-0.7,2.2c-1.8-0.7-3.4-1.2-4.8-1.4v7c1.3,0.3,2.3,0.7,3.2,1.1c0.9,0.4,1.6,1,2.1,1.8
			c0.6,0.8,0.8,1.8,0.8,3.1c0,1.5-0.5,2.8-1.6,3.8c-1.1,1-2.6,1.6-4.4,1.8v5.8H7.5V52z M7.5,33.4c-1,0.2-1.8,0.6-2.3,1.1
			c-0.6,0.6-0.8,1.2-0.8,2c0,0.8,0.3,1.5,0.8,1.9c0.5,0.5,1.3,0.9,2.3,1.2V33.4z M12.2,48.5c0.6-0.6,0.9-1.3,0.9-2.2
			c0-0.8-0.3-1.5-0.9-2c-0.6-0.5-1.4-0.9-2.4-1.3v6.6C10.9,49.5,11.7,49.1,12.2,48.5z"/>
		<path class="st2" d="M21.4,50.9c-1.5-1.9-2.3-4.5-2.3-8c0-4.3,0.8-7.7,2.5-10c1.7-2.4,4.1-3.5,7.1-3.5c2,0,3.9,0.5,5.7,1.4
			l-0.9,2.1c-1.7-0.8-3.2-1.2-4.7-1.2c-2.3,0-4,0.9-5.2,2.7c-1.2,1.8-1.9,4.3-1.9,7.7c0.5-1.1,1.3-2,2.5-2.7c1.1-0.7,2.4-1,3.9-1
			c1.5,0,2.8,0.3,3.9,0.9c1.1,0.6,2,1.5,2.6,2.7c0.6,1.1,0.9,2.5,0.9,3.9c0,1.5-0.3,2.8-1,4c-0.7,1.2-1.6,2.1-2.8,2.8
			c-1.2,0.7-2.5,1-4,1C25,53.7,22.9,52.8,21.4,50.9z M30.3,50.8c0.8-0.5,1.5-1.2,1.9-2c0.5-0.9,0.7-1.8,0.7-2.8c0-1.6-0.5-3-1.5-4
			s-2.3-1.5-3.9-1.5c-1,0-2,0.2-2.8,0.7c-0.9,0.4-1.5,1-2,1.8c-0.5,0.8-0.7,1.6-0.7,2.5c0,1.2,0.2,2.2,0.7,3.1
			c0.5,0.9,1.1,1.6,2,2.2c0.8,0.5,1.8,0.8,2.8,0.8C28.5,51.5,29.5,51.2,30.3,50.8z"/>
		<path class="st2" d="M41.2,52.9c-1.2-0.5-2.2-1.3-2.9-2.3c-0.7-1-1.1-2.1-1.1-3.4c0-1.5,0.5-2.7,1.4-3.8c0.9-1.1,2.3-1.8,4-2.2
			c-1.4-0.4-2.6-1.1-3.5-2.1c-0.9-1-1.3-2.2-1.3-3.6c0-1.2,0.3-2.3,1-3.2c0.7-0.9,1.6-1.7,2.7-2.2c1.2-0.5,2.5-0.8,4-0.8
			c1.5,0,2.8,0.3,4,0.8c1.2,0.5,2.1,1.3,2.7,2.2c0.7,0.9,1,2,1,3.2c0,1.4-0.4,2.6-1.3,3.6c-0.9,1-2.1,1.7-3.5,2.1
			c1.7,0.4,3.1,1.1,4,2.2c0.9,1.1,1.4,2.3,1.4,3.8c0,1.3-0.3,2.4-1,3.4c-0.7,1-1.7,1.7-2.9,2.3c-1.2,0.5-2.7,0.8-4.3,0.8
			S42.5,53.5,41.2,52.9z M49.4,50.3c1-0.8,1.5-1.9,1.5-3.2c0-1.3-0.5-2.3-1.5-3.2s-2.3-1.4-4-1.6c-1.7,0.3-3,0.8-4,1.6
			S40,45.8,40,47.1c0,1.3,0.5,2.4,1.5,3.2s2.3,1.2,3.9,1.2S48.4,51.1,49.4,50.3z M49.1,38.7c0.9-0.8,1.4-1.8,1.4-3
			c0-1.2-0.5-2.2-1.4-3c-1-0.8-2.1-1.2-3.6-1.2c-1.4,0-2.6,0.4-3.6,1.2c-1,0.8-1.4,1.8-1.4,3c0,1.2,0.5,2.2,1.4,3
			c0.9,0.8,2.1,1.3,3.6,1.5C47,40,48.2,39.4,49.1,38.7z"/>
		<path class="st2" d="M55.5,57.7c1.6-1.2,2.5-2.6,2.6-4.2c-0.5,0-1-0.1-1.3-0.5c-0.3-0.3-0.5-0.8-0.5-1.3c0-0.6,0.2-1.1,0.5-1.4
			c0.4-0.4,0.8-0.5,1.4-0.5c0.6,0,1.1,0.2,1.5,0.7c0.4,0.5,0.6,1.1,0.6,2c0,1.3-0.3,2.5-1,3.6c-0.7,1.1-1.6,2.1-2.9,2.9L55.5,57.7z"
			/>
		<path class="st2" d="M63.4,52.3l0.9-2.1c1.7,0.8,3.2,1.2,4.7,1.2c2.3,0,4-0.9,5.2-2.7c1.2-1.8,1.9-4.3,1.9-7.7
			c-0.5,1.1-1.3,2-2.5,2.7c-1.1,0.7-2.4,1-3.9,1c-1.5,0-2.8-0.3-3.9-0.9s-2-1.5-2.6-2.7c-0.6-1.1-0.9-2.4-0.9-3.9c0-1.5,0.3-2.8,1-4
			c0.7-1.2,1.6-2.1,2.8-2.8s2.5-1,4-1c2.7,0,4.7,0.9,6.3,2.8c1.5,1.9,2.3,4.5,2.3,8c0,4.3-0.8,7.7-2.5,10c-1.7,2.4-4.1,3.5-7.1,3.5
			C67.1,53.7,65.2,53.3,63.4,52.3z M73.1,42c0.9-0.4,1.5-1,2-1.8c0.5-0.8,0.7-1.6,0.7-2.5c0-1.2-0.2-2.2-0.7-3.1
			c-0.5-0.9-1.1-1.6-2-2.2s-1.8-0.8-2.8-0.8c-1,0-1.9,0.2-2.7,0.7c-0.8,0.5-1.5,1.2-1.9,2c-0.5,0.9-0.7,1.8-0.7,2.8
			c0,1.6,0.5,3,1.5,4c1,1,2.3,1.5,3.9,1.5C71.3,42.6,72.2,42.4,73.1,42z"/>
		<path class="st2" d="M89.7,32.6l-6.1,3.5l-1-2l7.5-4.3h2.3v23.5h-2.8V32.6z"/>
		<path class="st2" d="M103,52.2c-1.3-1-2.3-2.4-3-4.2c-0.7-1.8-1-4-1-6.5c0-2.5,0.3-4.6,1-6.5c0.7-1.8,1.7-3.2,3-4.2
			c1.3-1,2.8-1.5,4.6-1.5s3.3,0.5,4.6,1.5c1.3,1,2.3,2.4,3,4.2c0.7,1.8,1.1,4,1.1,6.5c0,2.5-0.4,4.6-1.1,6.5c-0.7,1.8-1.7,3.2-3,4.2
			c-1.3,1-2.8,1.5-4.6,1.5S104.3,53.2,103,52.2z M110.8,50.2c0.9-0.8,1.6-1.9,2.1-3.4c0.5-1.5,0.7-3.2,0.7-5.2c0-2-0.2-3.8-0.7-5.2
			s-1.2-2.6-2.1-3.4c-0.9-0.8-2-1.2-3.2-1.2s-2.3,0.4-3.2,1.2c-0.9,0.8-1.6,1.9-2.1,3.4s-0.7,3.2-0.7,5.2c0,2,0.2,3.7,0.7,5.2
			c0.5,1.5,1.2,2.6,2.1,3.4c0.9,0.8,2,1.2,3.2,1.2S109.9,51,110.8,50.2z"/>
		<path class="st2" d="M118.8,53.1c-0.4-0.4-0.5-0.8-0.5-1.3c0-0.6,0.2-1,0.5-1.4c0.4-0.4,0.8-0.5,1.4-0.5c0.5,0,1,0.2,1.4,0.5
			c0.4,0.4,0.5,0.8,0.5,1.4c0,0.5-0.2,1-0.5,1.3c-0.4,0.4-0.8,0.5-1.4,0.5C119.6,53.6,119.1,53.4,118.8,53.1z"/>
		<path class="st2" d="M130.2,38.5l-4.4,2.5l-0.7-1.4l5.4-3.1h1.7v16.8h-2V38.5z"/>
		<path class="st2" d="M137.2,52l6.6-6.6c1.4-1.4,2-2.7,2-4.1c0-1-0.3-1.9-1-2.5c-0.7-0.6-1.5-1-2.6-1c-0.7,0-1.3,0.1-2,0.4
			c-0.7,0.2-1.4,0.6-2.1,1.1l-0.8-1.5c1.8-1.1,3.6-1.7,5.3-1.7c1,0,1.9,0.2,2.7,0.6c0.8,0.4,1.4,1,1.8,1.8c0.4,0.8,0.7,1.6,0.7,2.5
			c0,0.9-0.2,1.8-0.6,2.6s-1,1.7-1.8,2.5l-5.5,5.5h8.1v1.6h-10.8V52z"/>
	</g>
</g>
</svg>
