<?xml version="1.0" encoding="utf-8"?>
<!-- Generator: Adobe Illustrator 22.1.0, SVG Export Plug-In . SVG Version: 6.00 Build 0)  -->
<svg version="1.1" id="Layer_1" xmlns="http://www.w3.org/2000/svg" xmlns:xlink="http://www.w3.org/1999/xlink" x="0px" y="0px"
	 viewBox="0 0 106.3 29.6" style="enable-background:new 0 0 106.3 29.6;" xml:space="preserve">
<style type="text/css">
	.st0{fill:#FFFFFF;}
	.st1{font-family:'FSThriveElliot-Regular';}
	.st2{font-size:4.6499px;}
</style>
<g>
	<path class="st0" d="M39.9,15.3c-1.1,0.9-2.8,1.5-5,1.5v-1.6c3-0.1,4.4-1.7,4.4-3.7c0-2.1-1.6-3.3-4.3-3.3h-1.2v15.1h-2.3V6.7h3.7
		c1.9,0,3.4,0.3,4.5,1c1.3,0.8,2,2.1,2,3.8C41.6,13,40.9,14.5,39.9,15.3"/>
	<path class="st0" d="M52.4,23.7c-5.1,0-8.4-3.9-8.4-8.8c0-5,3.5-8.5,8.4-8.5c4.8,0,8.3,3.6,8.3,8.5C60.8,19.8,57.6,23.7,52.4,23.7
		 M52.4,8.1c-4.1,0-5.9,3.7-5.9,7c0,3.4,1.8,7,5.9,7c3.5,0,5.9-2.8,5.9-6.9C58.4,11.3,56.3,8.1,52.4,8.1"/>
	<rect x="64.5" y="6.7" class="st0" width="2.3" height="16.8"/>
	<path class="st0" d="M83,23.4l-8-11c-0.4-0.6-1.3-1.8-1.7-2.4v13.5h-2V6.7h2L81.4,18c0.4,0.6,1.2,1.7,1.7,2.3V6.7h2v16.8H83z"/>
	<polygon class="st0" points="95.4,8.4 95.4,23.4 93.1,23.4 93.1,8.4 87.6,8.4 87.6,6.7 100.9,6.7 100.9,8.4 	"/>
	<path class="st0" d="M65.6,4.7c-1.4,0-2.3-1.1-2.3-2.4c0-1.3,1-2.3,2.3-2.3c1.3,0,2.3,1,2.3,2.3C67.9,3.6,67,4.7,65.6,4.7"/>
	<path class="st0" d="M14.2,0.2C6,0.2,0,6.3,0,14.6C0,23,5.5,29.6,14.2,29.6c8.7,0,14.2-6.6,14.2-15C28.4,6.3,22.4,0.2,14.2,0.2
		 M21,16c0,2.5-0.2,3.5-0.9,4.6c-1.1,2-3.1,3.1-6.1,3.1c-2.7,0-4.8-1-5.9-2.8c-0.7-1.1-0.9-2.1-0.9-5.1V6.7h3.3v8.7
		c0,2.5,0.1,3.5,0.6,4.3c0.6,1,1.7,1.6,2.9,1.6c1.4,0,2.6-0.6,3.3-1.8c0.6-0.9,0.6-2.1,0.6-4.2V6.7H21V16z"/>
	<text transform="matrix(1 0 0 1 102.4154 9.3081)" class="st0 st1 st2">®</text>
</g>
</svg>
