<?xml version="1.0" encoding="utf-8"?>
<!-- Generator: Adobe Illustrator 22.1.0, SVG Export Plug-In . SVG Version: 6.00 Build 0)  -->
<svg version="1.1" id="Layer_1" xmlns="http://www.w3.org/2000/svg" xmlns:xlink="http://www.w3.org/1999/xlink" x="0px" y="0px"
	 viewBox="0 0 248.2 64" style="enable-background:new 0 0 248.2 64;" xml:space="preserve">
<style type="text/css">
	.st0{fill:#A6A8AB;}
	.st1{fill:#1B75BB;}
</style>
<g>
	<rect x="2.3" class="st0" width="242.9" height="0.5"/>
	<rect x="2.3" y="24.7" class="st0" width="242.9" height="0.5"/>
	<rect x="2.3" y="49.4" class="st0" width="242.9" height="0.5"/>
	<rect x="2.3" y="13.5" class="st0" width="242.9" height="0.5"/>
	<rect x="2.3" y="38.2" class="st0" width="242.9" height="0.5"/>
	<rect x="2.3" y="62.9" class="st0" width="242.9" height="0.5"/>
</g>
<path class="st1" d="M15.4,64c-0.1,0-0.2,0-0.4,0L2.6,62.5C1,62.2-0.2,60.8,0,59.1c0.2-1.6,1.7-2.8,3.3-2.6l11.7,1.4l13.7-5.3
	c0.5-0.2,1.1-0.3,1.6-0.2l16.2,2.8l13.7-11.4c0.8-0.7,1.9-0.9,2.9-0.5l11.7,3.8l38.5-12.8c1-0.3,2.1-0.1,2.9,0.6l5.6,4.8l14.7-20.7
	c0.5-0.8,1.4-1.2,2.3-1.3l27-1l8.2-6.8c0.4-0.4,1-0.6,1.6-0.7L194.3,7c0.3,0,0.7,0,1,0.1l29.9,6.8l18.5-10.2
	c1.5-0.8,3.3-0.3,4.1,1.2c0.8,1.5,0.3,3.3-1.2,4.1l-19.5,10.8c-0.6,0.4-1.4,0.5-2.1,0.3l-30.5-6.9l-17.3,2.1l-8.3,6.9
	c-0.5,0.4-1.1,0.7-1.8,0.7l-26.5,1l-15.8,22.2c-0.5,0.7-1.2,1.1-2.1,1.2c-0.8,0.1-1.7-0.2-2.3-0.7l-6.8-5.9L75.8,53.2
	c-0.6,0.2-1.3,0.2-1.9,0l-11.1-3.6L49.3,60.8c-0.7,0.6-1.6,0.8-2.4,0.7l-16.8-2.9l-13.6,5.3C16.2,63.9,15.8,64,15.4,64z"/>
</svg>
