<?xml version="1.0" encoding="utf-8"?>
<!-- Generator: Adobe Illustrator 22.1.0, SVG Export Plug-In . SVG Version: 6.00 Build 0)  -->
<svg version="1.1" id="Layer_1" xmlns="http://www.w3.org/2000/svg" xmlns:xlink="http://www.w3.org/1999/xlink" x="0px" y="0px"
	 viewBox="0 0 443.3 67.2" style="enable-background:new 0 0 443.3 67.2;" xml:space="preserve">
<style type="text/css">
	.st0{fill:#A6A8AB;}
	.st1{fill:#1B75BB;}
	.st2{fill:#EC1C24;}
	.st3{fill:#333333;}
</style>
<g>
	<rect x="2.3" y="3.2" class="st0" width="242.9" height="0.5"/>
	<rect x="2.3" y="27.9" class="st0" width="242.9" height="0.5"/>
	<rect x="2.3" y="52.6" class="st0" width="242.9" height="0.5"/>
	<rect x="2.3" y="16.7" class="st0" width="242.9" height="0.5"/>
	<rect x="2.3" y="41.4" class="st0" width="242.9" height="0.5"/>
	<rect x="2.3" y="66.1" class="st0" width="242.9" height="0.5"/>
</g>
<path class="st1" d="M15.4,67.2c-0.1,0-0.2,0-0.4,0L2.6,65.6C1,65.4-0.2,63.9,0,62.3c0.2-1.6,1.7-2.8,3.3-2.6l11.7,1.4l13.7-5.3
	c0.5-0.2,1.1-0.3,1.6-0.2l16.2,2.8l13.7-11.4c0.8-0.7,1.9-0.9,2.9-0.5l11.7,3.8l38.5-12.8c1-0.3,2.1-0.1,2.9,0.6l5.6,4.8l14.7-20.7
	c0.5-0.8,1.4-1.2,2.3-1.3l27-1l8.2-6.8c0.4-0.4,1-0.6,1.6-0.7l18.7-2.3c0.3,0,0.7,0,1,0.1l29.9,6.8l18.5-10.2
	c1.5-0.8,3.3-0.3,4.1,1.2c0.8,1.5,0.3,3.3-1.2,4.1l-19.5,10.8c-0.6,0.4-1.4,0.5-2.1,0.3l-30.5-6.9l-17.3,2.1l-8.3,6.9
	c-0.5,0.4-1.1,0.7-1.8,0.7l-26.5,1l-15.8,22.2c-0.5,0.7-1.2,1.1-2.1,1.2c-0.8,0.1-1.7-0.2-2.3-0.7l-6.8-5.9L75.8,56.4
	c-0.6,0.2-1.3,0.2-1.9,0l-11.1-3.6L49.3,64c-0.7,0.6-1.6,0.8-2.4,0.7l-16.8-2.9L16.5,67C16.2,67.1,15.8,67.2,15.4,67.2z"/>
<g>
	<path class="st2" d="M280.3,8.9h5.9v1.4h-5.9V8.9z"/>
	<path class="st2" d="M294.1,14.4c-0.8-0.6-1.5-1.5-1.9-2.7c-0.4-1.2-0.7-2.5-0.7-4.1s0.2-2.9,0.7-4.1c0.4-1.2,1.1-2,1.9-2.7
		c0.8-0.6,1.8-0.9,2.9-0.9s2.1,0.3,2.9,0.9c0.8,0.6,1.5,1.5,1.9,2.7c0.4,1.2,0.7,2.5,0.7,4.1s-0.2,2.9-0.7,4.1
		c-0.4,1.2-1.1,2-1.9,2.7s-1.8,0.9-2.9,0.9S294.9,15,294.1,14.4z M299,13.1c0.6-0.5,1-1.2,1.3-2.2c0.3-0.9,0.5-2,0.5-3.3
		c0-1.3-0.2-2.4-0.5-3.3c-0.3-0.9-0.7-1.6-1.3-2.1c-0.6-0.5-1.2-0.7-2-0.7s-1.4,0.2-2,0.7c-0.6,0.5-1,1.2-1.3,2.1s-0.5,2-0.5,3.3
		c0,1.2,0.2,2.3,0.5,3.3s0.7,1.7,1.3,2.2c0.6,0.5,1.2,0.8,2,0.8S298.4,13.6,299,13.1z"/>
	<path class="st2" d="M305.2,14.9c-0.2-0.2-0.3-0.5-0.3-0.9c0-0.4,0.1-0.7,0.3-0.9c0.2-0.2,0.5-0.3,0.9-0.3c0.4,0,0.6,0.1,0.9,0.3
		c0.2,0.2,0.4,0.5,0.4,0.9c0,0.4-0.1,0.6-0.4,0.9c-0.2,0.2-0.5,0.3-0.9,0.3C305.7,15.2,305.4,15.1,305.2,14.9z"/>
	<path class="st2" d="M315.4,2l-3.8,2.2L310.9,3l4.7-2.7h1.5V15h-1.8V2z"/>
	<path class="st2" d="M322.6,13.9l5.8-5.8c1.2-1.2,1.8-2.4,1.8-3.6c0-0.9-0.3-1.6-0.9-2.2c-0.6-0.6-1.3-0.8-2.3-0.8
		c-0.6,0-1.2,0.1-1.8,0.3c-0.6,0.2-1.2,0.5-1.9,1l-0.7-1.3c1.6-1,3.2-1.5,4.7-1.5c0.9,0,1.7,0.2,2.4,0.5c0.7,0.4,1.2,0.9,1.6,1.5
		s0.6,1.4,0.6,2.2c0,0.8-0.2,1.5-0.5,2.3c-0.4,0.8-0.9,1.5-1.6,2.2l-4.8,4.8h7.1V15h-9.5V13.9z"/>
	<path class="st2" d="M336.9,7.4c-0.6-0.3-1-0.8-1.3-1.4c-0.3-0.6-0.5-1.3-0.5-2s0.2-1.4,0.5-2c0.3-0.6,0.8-1.1,1.3-1.4
		c0.6-0.3,1.2-0.5,1.9-0.5c0.7,0,1.3,0.2,1.9,0.5c0.6,0.3,1,0.8,1.3,1.4s0.5,1.3,0.5,2s-0.2,1.4-0.5,2s-0.7,1.1-1.3,1.4
		c-0.6,0.3-1.2,0.5-1.9,0.5C338,7.9,337.4,7.8,336.9,7.4z M340.4,6c0.4-0.5,0.6-1.2,0.6-2.1s-0.2-1.5-0.6-2.1s-1-0.8-1.7-0.8
		c-0.7,0-1.3,0.3-1.7,0.8s-0.6,1.2-0.6,2.1s0.2,1.5,0.6,2.1s1,0.8,1.7,0.8C339.4,6.8,340,6.6,340.4,6z M348.4,0.3h1.5L338.8,15h-1.5
		L348.4,0.3z M346.6,14.8c-0.6-0.3-1-0.8-1.3-1.4c-0.3-0.6-0.5-1.3-0.5-2c0-0.8,0.2-1.4,0.5-2c0.3-0.6,0.7-1.1,1.3-1.4
		c0.6-0.3,1.2-0.5,1.9-0.5s1.3,0.2,1.9,0.5c0.6,0.3,1,0.8,1.3,1.4c0.3,0.6,0.5,1.3,0.5,2c0,0.8-0.2,1.4-0.5,2
		c-0.3,0.6-0.8,1.1-1.3,1.4c-0.6,0.3-1.2,0.5-1.9,0.5S347.1,15.1,346.6,14.8z M350.2,13.4c0.4-0.5,0.6-1.2,0.6-2.1s-0.2-1.5-0.6-2.1
		c-0.4-0.5-1-0.8-1.7-0.8c-0.7,0-1.2,0.3-1.7,0.8c-0.4,0.5-0.6,1.2-0.6,2.1s0.2,1.5,0.6,2.1c0.4,0.5,1,0.8,1.7,0.8
		C349.2,14.2,349.7,14,350.2,13.4z"/>
	<path class="st3" d="M281.1,22.4h3.8c0.5,0,1,0.1,1.4,0.3c0.4,0.2,0.7,0.5,1,0.9c0.2,0.4,0.4,0.8,0.4,1.3c0,0.5-0.1,0.9-0.4,1.3
		c-0.3,0.4-0.6,0.6-1.1,0.8c0.5,0.2,1,0.4,1.3,0.9c0.3,0.4,0.5,0.9,0.5,1.5c0,0.5-0.1,0.9-0.4,1.3c-0.2,0.4-0.6,0.7-1,0.9
		c-0.4,0.2-0.9,0.3-1.5,0.3h-4V22.4z M284.8,26.6c0.5,0,1-0.2,1.3-0.5s0.5-0.7,0.5-1.2c0-0.5-0.2-0.9-0.5-1.2
		c-0.3-0.3-0.8-0.5-1.3-0.5h-2.5v3.3H284.8z M285,31c0.6,0,1-0.2,1.4-0.5c0.4-0.3,0.5-0.8,0.5-1.3c0-0.5-0.2-0.9-0.5-1.3
		s-0.8-0.5-1.4-0.5h-2.7V31H285z"/>
	<path class="st3" d="M291,31.6c-0.5-0.3-0.8-0.7-1.1-1.3c-0.3-0.5-0.4-1.2-0.4-1.8c0-0.7,0.1-1.3,0.4-1.8c0.3-0.5,0.6-1,1.1-1.3
		c0.5-0.3,1-0.5,1.6-0.5c0.5,0,0.9,0.1,1.3,0.3c0.4,0.2,0.7,0.5,0.9,0.9L295,25h1v6.8h-0.9l-0.1-1.1c-0.2,0.4-0.6,0.7-1,1
		s-0.9,0.3-1.4,0.3C292,32,291.5,31.9,291,31.6z M294.3,30.5c0.4-0.4,0.6-0.9,0.6-1.5v-1.1c0-0.6-0.2-1.1-0.6-1.5
		c-0.4-0.4-0.9-0.6-1.4-0.6c-0.4,0-0.8,0.1-1.1,0.3s-0.6,0.5-0.8,0.9c-0.2,0.4-0.3,0.9-0.3,1.4c0,0.5,0.1,1,0.3,1.4
		c0.2,0.4,0.4,0.7,0.8,0.9c0.3,0.2,0.7,0.3,1.1,0.3C293.4,31.1,293.9,30.9,294.3,30.5z"/>
	<path class="st3" d="M298.6,31.6c-0.3-0.3-0.5-0.7-0.5-1.2V22h1.1v8.3c0,0.3,0.1,0.5,0.2,0.6c0.1,0.1,0.3,0.2,0.6,0.2
		c0.2,0,0.4,0,0.7-0.1l0.1,0.9c-0.4,0.1-0.7,0.1-1.1,0.1C299.3,32,298.9,31.9,298.6,31.6z"/>
	<path class="st3" d="M303,31.6c-0.5-0.3-0.8-0.7-1.1-1.3s-0.4-1.2-0.4-1.8c0-0.7,0.1-1.3,0.4-1.8s0.6-1,1.1-1.3
		c0.5-0.3,1-0.5,1.6-0.5c0.5,0,0.9,0.1,1.3,0.3c0.4,0.2,0.7,0.5,0.9,0.9L307,25h1v6.8H307l-0.1-1.1c-0.2,0.4-0.6,0.7-1,1
		c-0.4,0.2-0.9,0.3-1.4,0.3C304,32,303.4,31.9,303,31.6z M306.3,30.5c0.4-0.4,0.6-0.9,0.6-1.5v-1.1c0-0.6-0.2-1.1-0.6-1.5
		c-0.4-0.4-0.9-0.6-1.4-0.6c-0.4,0-0.8,0.1-1.1,0.3s-0.6,0.5-0.8,0.9c-0.2,0.4-0.3,0.9-0.3,1.4c0,0.5,0.1,1,0.3,1.4
		c0.2,0.4,0.4,0.7,0.8,0.9c0.3,0.2,0.7,0.3,1.1,0.3C305.4,31.1,305.9,30.9,306.3,30.5z"/>
	<path class="st3" d="M310.1,25h0.9l0.1,1.2c0.2-0.4,0.6-0.8,1-1c0.4-0.2,0.9-0.4,1.5-0.4c0.5,0,0.9,0.1,1.3,0.3
		c0.4,0.2,0.7,0.5,0.9,0.9s0.3,0.8,0.3,1.3v4.4h-1.1v-4.3c0-0.5-0.2-0.9-0.5-1.3s-0.8-0.5-1.3-0.5c-0.6,0-1.1,0.2-1.5,0.6
		c-0.4,0.4-0.6,0.9-0.6,1.6v3.8h-1.1V25z"/>
	<path class="st3" d="M319.5,31.6c-0.5-0.3-0.9-0.7-1.2-1.3s-0.4-1.2-0.4-1.8c0-0.7,0.1-1.3,0.4-1.8s0.7-1,1.2-1.3
		c0.5-0.3,1.1-0.5,1.8-0.5c0.8,0,1.6,0.3,2.4,0.8l-0.5,0.8c-0.6-0.4-1.2-0.6-1.8-0.6c-0.5,0-0.9,0.1-1.3,0.3s-0.7,0.5-0.9,0.9
		c-0.2,0.4-0.3,0.9-0.3,1.4c0,0.5,0.1,1,0.3,1.4c0.2,0.4,0.5,0.7,0.9,0.9c0.4,0.2,0.8,0.3,1.3,0.3c0.6,0,1.2-0.2,1.8-0.6l0.5,0.8
		c-0.8,0.5-1.6,0.8-2.4,0.8C320.6,32,320,31.9,319.5,31.6z"/>
	<path class="st3" d="M326.2,31.6c-0.5-0.3-1-0.7-1.3-1.3s-0.5-1.2-0.5-1.8c0-0.7,0.1-1.3,0.4-1.8c0.3-0.5,0.7-1,1.2-1.3
		c0.5-0.3,1.1-0.5,1.7-0.5c0.6,0,1.1,0.1,1.6,0.4s0.8,0.7,1.1,1.2c0.3,0.5,0.4,1.1,0.4,1.8c0,0.2,0,0.3,0,0.4h-5.3
		c0,0.7,0.3,1.3,0.8,1.8c0.5,0.4,1.1,0.7,1.8,0.7c0.7,0,1.3-0.2,2.1-0.6l0.3,0.8c-0.9,0.4-1.7,0.7-2.5,0.7
		C327.4,32,326.8,31.9,326.2,31.6z M329.8,28c0-0.7-0.2-1.2-0.6-1.6c-0.4-0.4-0.8-0.6-1.4-0.6c-0.6,0-1.1,0.2-1.5,0.6
		c-0.4,0.4-0.6,1-0.7,1.7H329.8z"/>
	<path class="st3" d="M336.9,31.6c-0.5-0.3-0.8-0.7-1.1-1.3c-0.3-0.5-0.4-1.2-0.4-1.8c0-0.7,0.1-1.3,0.4-1.8c0.3-0.5,0.6-1,1.1-1.3
		c0.5-0.3,1-0.5,1.6-0.5c0.5,0,0.9,0.1,1.3,0.3c0.4,0.2,0.7,0.5,0.9,0.9l0.1-1.1h1v6.8H341l-0.1-1.1c-0.2,0.4-0.6,0.7-1,1
		c-0.4,0.2-0.9,0.3-1.4,0.3C337.9,32,337.4,31.9,336.9,31.6z M340.2,30.5c0.4-0.4,0.6-0.9,0.6-1.5v-1.1c0-0.6-0.2-1.1-0.6-1.5
		s-0.9-0.6-1.4-0.6c-0.4,0-0.8,0.1-1.1,0.3s-0.6,0.5-0.8,0.9c-0.2,0.4-0.3,0.9-0.3,1.4c0,0.5,0.1,1,0.3,1.4c0.2,0.4,0.4,0.7,0.8,0.9
		c0.3,0.2,0.7,0.3,1.1,0.3C339.3,31.1,339.8,30.9,340.2,30.5z"/>
	<path class="st3" d="M343.6,31.5l0.3-0.8c0.8,0.3,1.5,0.5,2.2,0.5c0.5,0,0.8-0.1,1.1-0.3s0.4-0.5,0.4-0.8c0-0.2-0.1-0.4-0.2-0.6
		s-0.3-0.3-0.5-0.4c-0.2-0.1-0.5-0.2-0.9-0.3c-0.5-0.1-0.9-0.3-1.2-0.4s-0.6-0.3-0.8-0.6c-0.2-0.3-0.3-0.6-0.3-1.1
		c0-0.4,0.1-0.7,0.3-1c0.2-0.3,0.5-0.5,0.9-0.7c0.4-0.2,0.8-0.2,1.3-0.2c0.7,0,1.5,0.2,2.3,0.5l-0.3,0.8c-0.7-0.3-1.4-0.4-2-0.4
		c-0.4,0-0.8,0.1-1.1,0.3c-0.3,0.2-0.4,0.4-0.4,0.8c0,0.3,0.1,0.6,0.4,0.7c0.3,0.2,0.7,0.3,1.2,0.5c0.5,0.1,0.9,0.3,1.2,0.4
		s0.6,0.3,0.8,0.6c0.2,0.3,0.3,0.6,0.3,1.1c0,0.6-0.2,1-0.7,1.4c-0.5,0.4-1.1,0.5-1.8,0.5C345.3,32,344.4,31.8,343.6,31.5z"/>
	<path class="st3" d="M354.9,31.6c-0.5-0.3-0.9-0.7-1.2-1.3s-0.4-1.2-0.4-1.8c0-0.7,0.1-1.3,0.4-1.8s0.7-1,1.2-1.3
		c0.5-0.3,1.1-0.5,1.8-0.5c0.7,0,1.3,0.2,1.8,0.5c0.5,0.3,0.9,0.7,1.2,1.3s0.4,1.2,0.4,1.8c0,0.7-0.1,1.3-0.4,1.8s-0.7,1-1.2,1.3
		c-0.5,0.3-1.1,0.5-1.8,0.5C356,32,355.4,31.9,354.9,31.6z M357.9,30.8c0.4-0.2,0.6-0.5,0.8-0.9c0.2-0.4,0.3-0.9,0.3-1.4
		c0-0.5-0.1-1-0.3-1.4c-0.2-0.4-0.5-0.7-0.8-1c-0.4-0.2-0.8-0.3-1.2-0.3c-0.4,0-0.8,0.1-1.2,0.3c-0.4,0.2-0.6,0.5-0.8,1
		c-0.2,0.4-0.3,0.9-0.3,1.4c0,0.5,0.1,1,0.3,1.4s0.5,0.7,0.8,0.9c0.4,0.2,0.8,0.3,1.2,0.3C357.1,31.1,357.5,31,357.9,30.8z"/>
	<path class="st3" d="M362.2,25.9h-1.4V25h1.4v-1.2c0-0.6,0.2-1.1,0.6-1.4c0.4-0.4,0.9-0.5,1.5-0.5c0.4,0,0.8,0.1,1.3,0.2l-0.2,0.9
		c-0.4-0.1-0.7-0.1-0.9-0.1c-0.4,0-0.7,0.1-0.9,0.3c-0.2,0.2-0.3,0.5-0.3,0.9V25h1.9v0.9h-1.9v5.9h-1.1V25.9z"/>
	<path class="st3" d="M372.9,23.6l-2.4,1.4l-0.4-0.8l3-1.7h0.9v9.4h-1.1V23.6z"/>
	<path class="st3" d="M381,23.6l-2.4,1.4l-0.4-0.8l3-1.7h0.9v9.4H381V23.6z"/>
	<path class="st3" d="M389.1,22h1l-4.2,11.7h-1L389.1,22z"/>
	<path class="st3" d="M394.4,23.6L392,25l-0.4-0.8l3-1.7h0.9v9.4h-1.1V23.6z"/>
	<path class="st3" d="M399.1,31.1l3.7-3.7c0.8-0.8,1.1-1.5,1.1-2.3c0-0.6-0.2-1-0.6-1.4c-0.4-0.4-0.9-0.5-1.4-0.5
		c-0.4,0-0.7,0.1-1.1,0.2s-0.8,0.3-1.2,0.6l-0.4-0.8c1-0.6,2-0.9,3-0.9c0.6,0,1.1,0.1,1.5,0.4s0.8,0.6,1,1c0.2,0.4,0.4,0.9,0.4,1.4
		c0,0.5-0.1,1-0.3,1.5c-0.2,0.5-0.6,0.9-1,1.4l-3.1,3.1h4.5v0.9h-6V31.1z"/>
	<path class="st3" d="M410.6,22h1l-4.2,11.7h-1L410.6,22z"/>
	<path class="st3" d="M412.5,31.1l3.7-3.7c0.8-0.8,1.1-1.5,1.1-2.3c0-0.6-0.2-1-0.6-1.4c-0.4-0.4-0.9-0.5-1.4-0.5
		c-0.4,0-0.7,0.1-1.1,0.2s-0.8,0.3-1.2,0.6l-0.4-0.8c1-0.6,2-0.9,3-0.9c0.6,0,1.1,0.1,1.5,0.4s0.8,0.6,1,1c0.2,0.4,0.4,0.9,0.4,1.4
		c0,0.5-0.1,1-0.3,1.5c-0.2,0.5-0.6,0.9-1,1.4l-3.1,3.1h4.5v0.9h-6V31.1z"/>
	<path class="st3" d="M422,31.4c-0.5-0.4-0.9-1-1.2-1.7s-0.4-1.6-0.4-2.6s0.1-1.8,0.4-2.6c0.3-0.7,0.7-1.3,1.2-1.7
		c0.5-0.4,1.1-0.6,1.8-0.6c0.7,0,1.3,0.2,1.8,0.6c0.5,0.4,0.9,1,1.2,1.7c0.3,0.7,0.4,1.6,0.4,2.6s-0.1,1.9-0.4,2.6
		c-0.3,0.7-0.7,1.3-1.2,1.7c-0.5,0.4-1.1,0.6-1.8,0.6C423.1,32,422.5,31.8,422,31.4z M425.1,30.6c0.4-0.3,0.6-0.8,0.8-1.4
		c0.2-0.6,0.3-1.3,0.3-2.1c0-0.8-0.1-1.5-0.3-2.1c-0.2-0.6-0.5-1-0.8-1.4s-0.8-0.5-1.3-0.5c-0.5,0-0.9,0.2-1.3,0.5s-0.6,0.8-0.8,1.4
		c-0.2,0.6-0.3,1.3-0.3,2.1c0,0.8,0.1,1.5,0.3,2.1c0.2,0.6,0.5,1,0.8,1.4s0.8,0.5,1.3,0.5C424.3,31.1,424.7,30.9,425.1,30.6z"/>
	<path class="st3" d="M432.1,23.6l-2.4,1.4l-0.4-0.8l3-1.7h0.9v9.4h-1.1V23.6z"/>
	<path class="st3" d="M438.2,31.7c-0.5-0.2-0.9-0.5-1.2-0.9c-0.3-0.4-0.4-0.8-0.4-1.3c0-0.6,0.2-1.1,0.6-1.5
		c0.4-0.4,0.9-0.7,1.6-0.9c-0.6-0.1-1-0.4-1.4-0.8c-0.4-0.4-0.5-0.9-0.5-1.4c0-0.5,0.1-0.9,0.4-1.3c0.3-0.4,0.6-0.7,1.1-0.9
		s1-0.3,1.6-0.3s1.1,0.1,1.6,0.3s0.8,0.5,1.1,0.9c0.3,0.4,0.4,0.8,0.4,1.3c0,0.6-0.2,1-0.5,1.4c-0.4,0.4-0.8,0.7-1.4,0.8
		c0.7,0.2,1.2,0.5,1.6,0.9c0.4,0.4,0.6,0.9,0.6,1.5c0,0.5-0.1,1-0.4,1.3c-0.3,0.4-0.7,0.7-1.2,0.9c-0.5,0.2-1.1,0.3-1.7,0.3
		C439.3,32,438.7,31.9,438.2,31.7z M441.5,30.7c0.4-0.3,0.6-0.8,0.6-1.3c0-0.5-0.2-0.9-0.6-1.3c-0.4-0.3-0.9-0.5-1.6-0.7
		c-0.7,0.1-1.2,0.3-1.6,0.7s-0.6,0.8-0.6,1.3c0,0.5,0.2,0.9,0.6,1.3c0.4,0.3,0.9,0.5,1.6,0.5C440.6,31.1,441.1,31,441.5,30.7z
		 M441.4,26c0.4-0.3,0.5-0.7,0.5-1.2c0-0.5-0.2-0.9-0.6-1.2c-0.4-0.3-0.9-0.5-1.4-0.5s-1,0.2-1.4,0.5c-0.4,0.3-0.6,0.7-0.6,1.2
		c0,0.5,0.2,0.9,0.5,1.2c0.4,0.3,0.8,0.5,1.5,0.6C440.6,26.5,441,26.3,441.4,26z"/>
	<path class="st3" d="M285.8,59.7c-1.3-0.1-2.7-0.4-4.2-1l0.5-1.5c1.3,0.5,2.5,0.9,3.7,1v-5c-0.8-0.2-1.6-0.5-2.1-0.8
		c-0.6-0.3-1-0.7-1.4-1.2c-0.4-0.5-0.6-1.2-0.6-2c0-1,0.4-1.8,1.1-2.5c0.7-0.7,1.7-1.1,3-1.2v-4h1.6v4c1.1,0.1,2.3,0.4,3.7,0.9
		l-0.5,1.5c-1.3-0.5-2.4-0.8-3.3-0.9v4.8c0.9,0.2,1.6,0.5,2.2,0.8c0.6,0.3,1.1,0.7,1.5,1.2c0.4,0.5,0.6,1.2,0.6,2.1
		c0,1.1-0.4,1.9-1.1,2.6c-0.8,0.7-1.8,1.1-3,1.2v4h-1.6V59.7z M285.9,47c-0.7,0.1-1.2,0.4-1.6,0.8c-0.4,0.4-0.6,0.8-0.6,1.4
		c0,0.6,0.2,1,0.6,1.3c0.4,0.3,0.9,0.6,1.6,0.8V47z M289.1,57.4c0.4-0.4,0.6-0.9,0.6-1.5c0-0.6-0.2-1-0.6-1.4
		c-0.4-0.3-0.9-0.6-1.7-0.9v4.5C288.2,58,288.7,57.8,289.1,57.4z"/>
	<path class="st3" d="M300.8,46.4l-4.2,2.4l-0.7-1.3l5.2-3h1.6v16.1h-1.9V46.4z"/>
	<path class="st3" d="M311.2,59.9c-0.9-0.7-1.6-1.6-2.1-2.9c-0.5-1.3-0.7-2.7-0.7-4.4c0-1.7,0.2-3.2,0.7-4.4
		c0.5-1.3,1.2-2.2,2.1-2.9c0.9-0.7,1.9-1,3.1-1c1.2,0,2.2,0.3,3.1,1c0.9,0.7,1.6,1.6,2.1,2.9c0.5,1.3,0.7,2.7,0.7,4.4
		c0,1.7-0.2,3.2-0.7,4.4c-0.5,1.3-1.2,2.2-2.1,2.9c-0.9,0.7-1.9,1-3.1,1C313.1,60.9,312.1,60.6,311.2,59.9z M316.5,58.5
		c0.6-0.6,1.1-1.3,1.4-2.4c0.3-1,0.5-2.2,0.5-3.6c0-1.4-0.2-2.6-0.5-3.6c-0.3-1-0.8-1.8-1.4-2.3c-0.6-0.5-1.3-0.8-2.2-0.8
		c-0.8,0-1.6,0.3-2.2,0.8c-0.6,0.5-1.1,1.3-1.4,2.3c-0.3,1-0.5,2.2-0.5,3.6c0,1.4,0.2,2.5,0.5,3.6c0.3,1,0.8,1.8,1.4,2.4
		c0.6,0.6,1.3,0.8,2.2,0.8C315.1,59.3,315.9,59.1,316.5,58.5z"/>
	<path class="st3" d="M322.4,63.7c1.1-0.8,1.7-1.8,1.8-2.9c-0.4,0-0.7-0.1-0.9-0.3c-0.2-0.2-0.4-0.5-0.4-0.9c0-0.4,0.1-0.7,0.4-1
		s0.6-0.4,1-0.4c0.4,0,0.8,0.2,1,0.5s0.4,0.8,0.4,1.3c0,0.9-0.2,1.7-0.7,2.5c-0.5,0.8-1.1,1.4-2,2L322.4,63.7z"/>
	<path class="st3" d="M328.7,59.5l0.7-1.4c1.3,0.8,2.7,1.2,4,1.2c1.2,0,2.1-0.3,2.8-0.9s1.1-1.5,1.1-2.5c0-1.1-0.4-1.9-1.1-2.6
		c-0.7-0.6-1.7-0.9-3-0.9c-1.1,0-2.3,0.1-3.5,0.4v-8.3h8.9v1.6h-7.2v5.2c0.8-0.2,1.6-0.3,2.4-0.3c1.7,0,3,0.4,3.9,1.3
		c1,0.9,1.5,2.1,1.5,3.6c0,1-0.2,1.8-0.7,2.6c-0.5,0.8-1.1,1.4-2,1.8s-1.8,0.6-2.9,0.6C331.9,60.9,330.2,60.5,328.7,59.5z"/>
	<path class="st3" d="M344.7,59.9c-0.9-0.7-1.6-1.6-2.1-2.9c-0.5-1.3-0.7-2.7-0.7-4.4c0-1.7,0.2-3.2,0.7-4.4
		c0.5-1.3,1.2-2.2,2.1-2.9c0.9-0.7,1.9-1,3.1-1c1.2,0,2.2,0.3,3.1,1c0.9,0.7,1.6,1.6,2.1,2.9c0.5,1.3,0.7,2.7,0.7,4.4
		c0,1.7-0.2,3.2-0.7,4.4c-0.5,1.3-1.2,2.2-2.1,2.9c-0.9,0.7-1.9,1-3.1,1C346.7,60.9,345.6,60.6,344.7,59.9z M350.1,58.5
		c0.6-0.6,1.1-1.3,1.4-2.4c0.3-1,0.5-2.2,0.5-3.6c0-1.4-0.2-2.6-0.5-3.6c-0.3-1-0.8-1.8-1.4-2.3c-0.6-0.5-1.3-0.8-2.2-0.8
		s-1.6,0.3-2.2,0.8c-0.6,0.5-1.1,1.3-1.4,2.3c-0.3,1-0.5,2.2-0.5,3.6c0,1.4,0.2,2.5,0.5,3.6c0.3,1,0.8,1.8,1.4,2.4
		c0.6,0.6,1.3,0.8,2.2,0.8S349.4,59.1,350.1,58.5z"/>
	<path class="st3" d="M358.6,59.9c-0.9-0.7-1.6-1.6-2.1-2.9s-0.7-2.7-0.7-4.4c0-1.7,0.2-3.2,0.7-4.4c0.5-1.3,1.2-2.2,2.1-2.9
		c0.9-0.7,1.9-1,3.1-1c1.2,0,2.2,0.3,3.1,1c0.9,0.7,1.6,1.6,2.1,2.9c0.5,1.3,0.7,2.7,0.7,4.4c0,1.7-0.2,3.2-0.7,4.4
		s-1.2,2.2-2.1,2.9c-0.9,0.7-1.9,1-3.1,1C360.5,60.9,359.5,60.6,358.6,59.9z M363.9,58.5c0.6-0.6,1.1-1.3,1.4-2.4
		c0.3-1,0.5-2.2,0.5-3.6c0-1.4-0.2-2.6-0.5-3.6c-0.3-1-0.8-1.8-1.4-2.3c-0.6-0.5-1.3-0.8-2.2-0.8s-1.6,0.3-2.2,0.8
		c-0.6,0.5-1.1,1.3-1.4,2.3c-0.3,1-0.5,2.2-0.5,3.6c0,1.4,0.2,2.5,0.5,3.6c0.3,1,0.8,1.8,1.4,2.4c0.6,0.6,1.3,0.8,2.2,0.8
		S363.3,59.1,363.9,58.5z"/>
	<path class="st3" d="M370.6,60.5c-0.2-0.2-0.4-0.6-0.4-0.9c0-0.4,0.1-0.7,0.4-1s0.6-0.4,1-0.4c0.4,0,0.7,0.1,1,0.4s0.4,0.6,0.4,1
		c0,0.4-0.1,0.7-0.4,0.9s-0.6,0.4-1,0.4C371.2,60.9,370.9,60.7,370.6,60.5z"/>
	<path class="st3" d="M375.9,59.4l6.3-6.3c1.3-1.3,2-2.6,2-3.9c0-1-0.3-1.8-0.9-2.4c-0.6-0.6-1.5-0.9-2.5-0.9
		c-0.6,0-1.3,0.1-1.9,0.4c-0.6,0.2-1.3,0.6-2.1,1.1l-0.8-1.4c1.8-1.1,3.5-1.6,5.1-1.6c1,0,1.8,0.2,2.6,0.6c0.8,0.4,1.3,1,1.8,1.7
		c0.4,0.7,0.6,1.5,0.6,2.4c0,0.8-0.2,1.7-0.6,2.5c-0.4,0.8-1,1.6-1.7,2.4l-5.3,5.3h7.8v1.6h-10.4V59.4z"/>
	<path class="st3" d="M395.6,46.4l-4.2,2.4l-0.7-1.3l5.2-3h1.6v16.1h-1.9V46.4z"/>
</g>
</svg>
