<?xml version="1.0" encoding="utf-8"?>
<!-- Generator: Adobe Illustrator 22.1.0, SVG Export Plug-In . SVG Version: 6.00 Build 0)  -->
<svg version="1.1" id="Layer_1" xmlns="http://www.w3.org/2000/svg" xmlns:xlink="http://www.w3.org/1999/xlink" x="0px" y="0px"
	 viewBox="0 0 1132.5 475" style="enable-background:new 0 0 1132.5 475;" xml:space="preserve">
<style type="text/css">
	.st0{fill:#F15A24;}
	.st1{fill:#4D4D4D;}
	.st2{fill:#808080;}
	.st3{fill:#8CC63F;}
	.st4{fill:none;stroke:#F15A24;stroke-miterlimit:10;}
	.st5{fill:#CCCCCC;}
	.st6{fill:#FFFFFF;}
	.st7{fill:#B3B3B3;}
	.st8{fill:#29ABE2;}
</style>
<path class="st0" d="M277.2,232c-64,0-116-52-116-116s52-116,116-116s116,52,116,116S341.1,232,277.2,232z M277.2,1
	c-63.4,0-115,51.6-115,115s51.6,115,115,115s115-51.6,115-115S340.6,1,277.2,1z"/>
<g>
	<path class="st1" d="M216.9,116.9c-2.8-0.2-5.9-0.9-9-2.2l1-3.3c2.8,1.2,5.5,1.9,8.1,2.2v-10.9c-1.8-0.5-3.4-1.1-4.6-1.7
		c-1.2-0.6-2.3-1.5-3.1-2.6c-0.8-1.1-1.2-2.6-1.2-4.3c0-2.2,0.8-4,2.4-5.5s3.7-2.3,6.4-2.6v-8.7h3.5v8.6c2.3,0.2,5,0.9,8,2l-1,3.3
		c-2.7-1.1-5.1-1.8-7.1-2v10.5c1.9,0.5,3.4,1.1,4.7,1.7c1.3,0.6,2.3,1.5,3.1,2.7s1.2,2.7,1.2,4.5c0,2.3-0.8,4.2-2.4,5.6
		c-1.6,1.5-3.8,2.3-6.6,2.6v8.7h-3.5V116.9z M216.9,89.4c-1.5,0.3-2.6,0.8-3.4,1.7s-1.2,1.8-1.2,3c0,1.2,0.4,2.2,1.2,2.8
		c0.8,0.7,2,1.3,3.5,1.8V89.4z M224,111.8c0.9-0.8,1.3-1.9,1.3-3.2c0-1.2-0.4-2.2-1.3-3c-0.9-0.7-2.1-1.4-3.6-1.9v9.8
		C221.9,113.2,223.1,112.6,224,111.8z"/>
	<path class="st1" d="M233.9,116.2l13.7-13.7c2.8-2.8,4.3-5.7,4.3-8.5c0-2.1-0.7-3.9-2.1-5.2c-1.4-1.3-3.2-2-5.4-2
		c-1.4,0-2.8,0.3-4.1,0.8c-1.4,0.5-2.9,1.3-4.4,2.3l-1.7-3.1c3.8-2.3,7.5-3.5,11-3.5c2.1,0,3.9,0.4,5.6,1.3c1.6,0.9,2.9,2.1,3.8,3.6
		c0.9,1.6,1.4,3.3,1.4,5.3c0,1.8-0.4,3.6-1.3,5.4s-2.1,3.5-3.7,5.1l-11.4,11.4h16.8v3.4h-22.5V116.2z"/>
	<path class="st1" d="M260.9,125.4c2.4-1.8,3.7-3.9,3.8-6.3c-0.8,0-1.5-0.2-2-0.7c-0.5-0.5-0.8-1.2-0.8-1.9c0-0.9,0.3-1.6,0.8-2.1
		c0.5-0.5,1.2-0.8,2.1-0.8c0.9,0,1.7,0.4,2.2,1.1c0.6,0.7,0.8,1.7,0.8,2.9c0,1.9-0.5,3.7-1.5,5.4c-1,1.7-2.4,3.1-4.2,4.3
		L260.9,125.4z"/>
	<path class="st1" d="M272.6,117.4l1.4-3.1c2.5,1.2,4.8,1.8,7,1.8c3.4,0,6-1.3,7.8-4c1.8-2.6,2.8-6.4,2.8-11.4c-0.8,1.7-2,3-3.7,4
		c-1.7,1-3.6,1.5-5.7,1.5c-2.2,0-4.1-0.5-5.8-1.4c-1.7-0.9-3-2.3-3.9-4c-0.9-1.7-1.4-3.6-1.4-5.8c0-2.2,0.5-4.2,1.5-6
		c1-1.8,2.4-3.2,4.2-4.2c1.8-1,3.8-1.5,6-1.5c4,0,7.1,1.4,9.3,4.2c2.3,2.8,3.4,6.8,3.4,11.9c0,6.4-1.2,11.4-3.7,14.9
		c-2.5,3.5-6,5.3-10.6,5.3C278.2,119.5,275.3,118.8,272.6,117.4z M287,102c1.3-0.7,2.3-1.6,3-2.7c0.7-1.1,1.1-2.4,1.1-3.7
		c0-1.7-0.4-3.3-1.1-4.7c-0.7-1.4-1.7-2.4-2.9-3.2c-1.2-0.8-2.7-1.1-4.2-1.1c-1.5,0-2.8,0.4-4.1,1.1c-1.2,0.7-2.2,1.7-2.9,3
		c-0.7,1.3-1.1,2.7-1.1,4.2c0,2.4,0.7,4.4,2.2,5.9s3.4,2.2,5.7,2.2C284.4,103,285.8,102.7,287,102z"/>
	<path class="st1" d="M302.5,115.3c-2.3-2.8-3.4-6.8-3.4-11.9c0-6.4,1.2-11.4,3.7-14.9c2.5-3.5,6-5.3,10.6-5.3
		c2.9,0,5.8,0.7,8.5,2.1l-1.4,3.1c-2.5-1.2-4.8-1.8-7-1.8c-3.4,0-6,1.3-7.8,4C304,93.2,303,97,303,102c0.8-1.7,2-3,3.7-4
		s3.6-1.5,5.7-1.5c2.2,0,4.1,0.5,5.8,1.4c1.7,0.9,3,2.3,3.9,4c0.9,1.7,1.4,3.6,1.4,5.8c0,2.2-0.5,4.2-1.5,6c-1,1.8-2.4,3.2-4.2,4.2
		c-1.8,1-3.8,1.5-6,1.5C307.8,119.5,304.7,118.1,302.5,115.3z M315.7,115.1c1.2-0.7,2.2-1.7,2.9-3c0.7-1.3,1.1-2.7,1.1-4.2
		c0-2.4-0.7-4.4-2.2-5.9s-3.4-2.2-5.7-2.2c-1.5,0-2.9,0.3-4.2,1s-2.3,1.6-3,2.7c-0.7,1.1-1.1,2.4-1.1,3.7c0,1.7,0.4,3.3,1.1,4.7
		c0.7,1.4,1.7,2.4,2.9,3.2s2.7,1.1,4.2,1.1C313.1,116.2,314.5,115.8,315.7,115.1z"/>
	<path class="st1" d="M326.6,116.4l1.6-3.1c2.9,1.8,5.8,2.7,8.6,2.7c2.5,0,4.6-0.7,6.1-2c1.5-1.4,2.3-3.2,2.3-5.4
		c0-2.4-0.8-4.2-2.3-5.6c-1.5-1.4-3.7-2-6.5-2c-2.4,0-4.9,0.3-7.6,0.9v-18h19.3v3.4h-15.5v11.2c1.8-0.4,3.5-0.6,5.1-0.6
		c3.6,0,6.5,1,8.6,2.9c2.1,1.9,3.1,4.5,3.1,7.8c0,2.1-0.5,4-1.5,5.6s-2.5,2.9-4.3,3.8s-4,1.4-6.3,1.4
		C333.5,119.5,330,118.5,326.6,116.4z"/>
</g>
<g>
	<path class="st1" d="M193.7,143.1h4.6c0.8,0,1.5,0.2,2.1,0.5c0.6,0.3,1.1,0.8,1.4,1.4c0.3,0.6,0.5,1.2,0.5,2s-0.2,1.4-0.5,2
		c-0.3,0.6-0.8,1-1.4,1.3s-1.3,0.5-2.1,0.5h-3.1v4.5h-1.4V143.1z M198.1,149.5c0.8,0,1.5-0.2,2-0.7s0.8-1.1,0.8-1.9
		s-0.3-1.4-0.8-1.9c-0.5-0.5-1.2-0.7-2-0.7h-2.9v5.2H198.1z"/>
	<path class="st1" d="M205.8,154.8c-0.7-0.4-1.2-0.9-1.6-1.6c-0.4-0.7-0.6-1.5-0.6-2.4c0-0.9,0.2-1.7,0.6-2.4s0.9-1.2,1.6-1.6
		s1.4-0.6,2.3-0.6c0.9,0,1.6,0.2,2.3,0.6c0.7,0.4,1.2,0.9,1.6,1.6c0.4,0.7,0.6,1.5,0.6,2.4c0,0.9-0.2,1.7-0.6,2.4
		c-0.4,0.7-0.9,1.2-1.6,1.6c-0.7,0.4-1.4,0.6-2.3,0.6C207.2,155.4,206.4,155.2,205.8,154.8z M209.6,153.8c0.5-0.3,0.8-0.7,1.1-1.2
		s0.4-1.1,0.4-1.8c0-0.7-0.1-1.3-0.4-1.8c-0.3-0.5-0.6-0.9-1.1-1.2c-0.5-0.3-1-0.4-1.5-0.4c-0.6,0-1.1,0.1-1.5,0.4s-0.8,0.7-1.1,1.2
		c-0.3,0.5-0.4,1.1-0.4,1.8c0,0.7,0.1,1.3,0.4,1.8s0.6,0.9,1.1,1.2s1,0.4,1.5,0.4C208.6,154.2,209.2,154.1,209.6,153.8z"/>
	<path class="st1" d="M216.2,154.8c-0.7-0.4-1.2-0.9-1.6-1.6c-0.4-0.7-0.6-1.5-0.6-2.4c0-0.9,0.2-1.7,0.6-2.4s0.9-1.2,1.6-1.6
		s1.4-0.6,2.3-0.6c0.9,0,1.6,0.2,2.3,0.6s1.2,0.9,1.6,1.6s0.6,1.5,0.6,2.4c0,0.9-0.2,1.7-0.6,2.4c-0.4,0.7-0.9,1.2-1.6,1.6
		s-1.4,0.6-2.3,0.6C217.7,155.4,216.9,155.2,216.2,154.8z M220.1,153.8c0.5-0.3,0.8-0.7,1.1-1.2c0.3-0.5,0.4-1.1,0.4-1.8
		c0-0.7-0.1-1.3-0.4-1.8c-0.3-0.5-0.6-0.9-1.1-1.2s-1-0.4-1.5-0.4s-1.1,0.1-1.5,0.4s-0.8,0.7-1.1,1.2c-0.3,0.5-0.4,1.1-0.4,1.8
		c0,0.7,0.1,1.3,0.4,1.8s0.6,0.9,1.1,1.2s1,0.4,1.5,0.4S219.7,154.1,220.1,153.8z"/>
	<path class="st1" d="M225.2,146.4h1.2l0.2,1.7c0.2-0.6,0.6-1,1.1-1.3c0.5-0.3,1-0.5,1.7-0.5c0.3,0,0.7,0,1.1,0.1l-0.2,1.2
		c-0.4-0.1-0.7-0.1-1-0.1c-0.7,0-1.3,0.3-1.8,0.8s-0.7,1.3-0.7,2.1v4.7h-1.4V146.4z"/>
	<path class="st1" d="M236.1,146.4h1.2l0.2,1.5c0.3-0.6,0.7-1,1.2-1.3c0.5-0.3,1.1-0.5,1.8-0.5c0.7,0,1.3,0.2,1.8,0.5
		s0.9,0.8,1.1,1.4c0.3-0.6,0.8-1.1,1.4-1.4c0.6-0.3,1.2-0.5,1.9-0.5c0.6,0,1.2,0.1,1.6,0.4c0.5,0.3,0.9,0.6,1.1,1.1
		c0.3,0.5,0.4,1,0.4,1.6v5.8h-1.4v-5.6c0-0.6-0.2-1.1-0.6-1.5c-0.4-0.4-0.9-0.6-1.5-0.6c-0.7,0-1.3,0.3-1.8,0.8
		c-0.5,0.5-0.7,1.1-0.7,1.9v5.1h-1.4v-5.6c0-0.6-0.2-1.1-0.6-1.5c-0.4-0.4-0.9-0.6-1.6-0.6c-0.7,0-1.3,0.3-1.8,0.8s-0.7,1.1-0.7,1.9
		v5.1h-1.4V146.4z"/>
	<path class="st1" d="M253.7,154.8c-0.6-0.4-1.1-0.9-1.4-1.6c-0.3-0.7-0.5-1.5-0.5-2.4c0-0.9,0.2-1.7,0.5-2.4s0.8-1.2,1.4-1.6
		c0.6-0.4,1.3-0.6,2-0.6c0.6,0,1.2,0.1,1.7,0.4c0.5,0.3,0.9,0.7,1.2,1.2l0.2-1.4h1.3v8.7H259l-0.2-1.5c-0.3,0.5-0.7,1-1.3,1.2
		c-0.5,0.3-1.1,0.4-1.8,0.4C255,155.4,254.3,155.2,253.7,154.8z M258,153.5c0.5-0.5,0.7-1.2,0.7-2v-1.4c0-0.8-0.2-1.4-0.7-2
		c-0.5-0.5-1.1-0.8-1.9-0.8c-0.5,0-1,0.1-1.5,0.4s-0.8,0.7-1,1.2c-0.2,0.5-0.4,1.1-0.4,1.8s0.1,1.3,0.4,1.8c0.2,0.5,0.6,0.9,1,1.2
		s0.9,0.4,1.5,0.4C256.9,154.2,257.5,154,258,153.5z"/>
	<path class="st1" d="M262.9,146.4h1.2l0.2,1.7c0.2-0.6,0.6-1,1.1-1.3c0.5-0.3,1-0.5,1.7-0.5c0.3,0,0.7,0,1.1,0.1l-0.2,1.2
		c-0.4-0.1-0.7-0.1-1-0.1c-0.7,0-1.3,0.3-1.8,0.8c-0.5,0.6-0.7,1.3-0.7,2.1v4.7h-1.4V146.4z"/>
	<path class="st1" d="M269.8,142.5h1.4v8.3l4.1-4.3h1.7l-3.9,4.1l4.1,4.7h-1.7l-3.3-3.8l-0.9,0.9v2.9h-1.4V142.5z"/>
	<path class="st1" d="M280.1,154.8c-0.7-0.4-1.2-0.9-1.6-1.6c-0.4-0.7-0.6-1.5-0.6-2.4c0-0.9,0.2-1.7,0.5-2.4
		c0.4-0.7,0.9-1.2,1.5-1.6c0.6-0.4,1.4-0.6,2.2-0.6c0.8,0,1.5,0.2,2.1,0.6c0.6,0.4,1.1,0.9,1.4,1.6c0.3,0.7,0.5,1.4,0.5,2.3
		c0,0.2,0,0.4,0,0.5h-6.8c0.1,0.9,0.4,1.7,1,2.3c0.6,0.6,1.4,0.9,2.3,0.9c0.9,0,1.7-0.2,2.6-0.7l0.4,1c-1.1,0.6-2.2,0.8-3.2,0.8
		C281.6,155.4,280.8,155.2,280.1,154.8z M284.8,150.2c0-0.9-0.3-1.6-0.8-2.1c-0.5-0.5-1.1-0.8-1.8-0.8c-0.8,0-1.4,0.3-1.9,0.8
		c-0.5,0.5-0.8,1.2-0.9,2.1H284.8z"/>
	<path class="st1" d="M289.6,154.7c-0.5-0.5-0.7-1.1-0.7-1.9v-5.3H287v-1.1h1.8v-2.6h1.4v2.6h2.8v1.1h-2.8v5.1
		c0,0.5,0.1,0.8,0.4,1.1c0.3,0.3,0.7,0.4,1.1,0.4c0.3,0,0.7-0.1,1.2-0.2l0.2,1.1c-0.6,0.2-1.1,0.2-1.7,0.2
		C290.7,155.4,290.1,155.1,289.6,154.7z"/>
	<path class="st1" d="M295.4,148c-0.2-0.2-0.3-0.4-0.3-0.7c0-0.3,0.1-0.5,0.3-0.7c0.2-0.2,0.4-0.3,0.7-0.3c0.3,0,0.5,0.1,0.7,0.3
		c0.2,0.2,0.3,0.4,0.3,0.7c0,0.3-0.1,0.5-0.3,0.7c-0.2,0.2-0.4,0.3-0.7,0.3C295.9,148.3,295.6,148.2,295.4,148z M295.4,155
		c-0.2-0.2-0.3-0.4-0.3-0.7c0-0.3,0.1-0.5,0.3-0.7c0.2-0.2,0.4-0.3,0.7-0.3c0.3,0,0.5,0.1,0.7,0.3c0.2,0.2,0.3,0.4,0.3,0.7
		c0,0.3-0.1,0.5-0.3,0.7c-0.2,0.2-0.4,0.3-0.7,0.3C295.9,155.3,295.6,155.2,295.4,155z"/>
	<path class="st1" d="M307.4,154.5c-1-0.1-2-0.3-3.1-0.8l0.3-1.1c1,0.4,1.9,0.7,2.8,0.8v-3.8c-0.6-0.2-1.2-0.4-1.6-0.6
		c-0.4-0.2-0.8-0.5-1.1-0.9c-0.3-0.4-0.4-0.9-0.4-1.5c0-0.8,0.3-1.4,0.8-1.9s1.3-0.8,2.2-0.9v-3h1.2v3c0.8,0.1,1.7,0.3,2.8,0.7
		l-0.3,1.2c-0.9-0.4-1.8-0.6-2.4-0.7v3.6c0.6,0.2,1.2,0.4,1.6,0.6c0.4,0.2,0.8,0.5,1.1,0.9s0.4,0.9,0.4,1.6c0,0.8-0.3,1.4-0.8,2
		c-0.6,0.5-1.3,0.8-2.3,0.9v3h-1.2V154.5z M307.4,144.9c-0.5,0.1-0.9,0.3-1.2,0.6c-0.3,0.3-0.4,0.6-0.4,1c0,0.4,0.1,0.7,0.4,1
		c0.3,0.2,0.7,0.4,1.2,0.6V144.9z M309.9,152.7c0.3-0.3,0.5-0.7,0.5-1.1c0-0.4-0.1-0.8-0.4-1s-0.7-0.5-1.3-0.7v3.4
		C309.2,153.2,309.6,153,309.9,152.7z"/>
	<path class="st1" d="M318.6,144.5l-3.1,1.8l-0.5-1l3.9-2.2h1.2v12.1h-1.4V144.5z"/>
	<path class="st1" d="M324.5,157.4c0.8-0.6,1.3-1.3,1.3-2.2c-0.3,0-0.5-0.1-0.7-0.3s-0.3-0.4-0.3-0.7c0-0.3,0.1-0.5,0.3-0.7
		c0.2-0.2,0.4-0.3,0.7-0.3c0.3,0,0.6,0.1,0.8,0.4c0.2,0.3,0.3,0.6,0.3,1c0,0.7-0.2,1.3-0.5,1.9s-0.8,1.1-1.5,1.5L324.5,157.4z"/>
	<path class="st1" d="M329.4,154.7l0.5-1.1c0.9,0.4,1.7,0.6,2.4,0.6c1.2,0,2.1-0.5,2.7-1.4c0.6-0.9,1-2.2,1-4
		c-0.3,0.6-0.7,1-1.3,1.4c-0.6,0.3-1.2,0.5-2,0.5c-0.8,0-1.4-0.2-2-0.5c-0.6-0.3-1-0.8-1.3-1.4c-0.3-0.6-0.5-1.3-0.5-2
		c0-0.8,0.2-1.5,0.5-2.1c0.4-0.6,0.8-1.1,1.4-1.5c0.6-0.4,1.3-0.5,2.1-0.5c1.4,0,2.4,0.5,3.2,1.4c0.8,1,1.2,2.3,1.2,4.1
		c0,2.2-0.4,3.9-1.3,5.1c-0.9,1.2-2.1,1.8-3.7,1.8C331.3,155.4,330.4,155.1,329.4,154.7z M334.4,149.3c0.4-0.2,0.8-0.5,1-0.9
		s0.4-0.8,0.4-1.3c0-0.6-0.1-1.1-0.4-1.6c-0.2-0.5-0.6-0.8-1-1.1c-0.4-0.3-0.9-0.4-1.5-0.4c-0.5,0-1,0.1-1.4,0.4s-0.8,0.6-1,1
		c-0.2,0.4-0.4,0.9-0.4,1.4c0,0.8,0.3,1.5,0.8,2c0.5,0.5,1.2,0.8,2,0.8C333.5,149.7,334,149.6,334.4,149.3z"/>
	<path class="st1" d="M339.5,154.3l0.6-1.1c1,0.6,2,0.9,3,0.9c0.9,0,1.6-0.2,2.1-0.7c0.5-0.5,0.8-1.1,0.8-1.9c0-0.8-0.3-1.5-0.8-1.9
		s-1.3-0.7-2.2-0.7c-0.8,0-1.7,0.1-2.6,0.3v-6.2h6.7v1.2h-5.4v3.9c0.6-0.1,1.2-0.2,1.8-0.2c1.2,0,2.2,0.3,3,1
		c0.7,0.7,1.1,1.6,1.1,2.7c0,0.7-0.2,1.4-0.5,2c-0.4,0.6-0.8,1-1.5,1.3c-0.6,0.3-1.4,0.5-2.2,0.5C341.9,155.4,340.7,155,339.5,154.3
		z"/>
	<path class="st1" d="M355.2,152.3h-5.9v-1l5.9-8.2h1.4v8.1h1.9v1.1h-1.9v2.9h-1.3V152.3z M355.2,151.2v-6.3l-4.5,6.3H355.2z"/>
	<path class="st1" d="M360.6,155c-0.2-0.2-0.3-0.4-0.3-0.7c0-0.3,0.1-0.5,0.3-0.7c0.2-0.2,0.4-0.3,0.7-0.3c0.3,0,0.5,0.1,0.7,0.3
		c0.2,0.2,0.3,0.4,0.3,0.7c0,0.3-0.1,0.5-0.3,0.7c-0.2,0.2-0.4,0.3-0.7,0.3C361.1,155.3,360.8,155.2,360.6,155z"/>
</g>
<g>
	<path class="st0" d="M162.7,254.4l0.4-1.2c1.5,0.6,2.8,0.9,3.8,0.9c0.9,0,1.6-0.2,2.1-0.6c0.5-0.4,0.8-0.9,0.8-1.5
		c0-0.5-0.1-0.9-0.4-1.2c-0.3-0.3-0.6-0.5-1-0.7s-1-0.4-1.7-0.6c-0.8-0.2-1.5-0.5-2-0.7c-0.5-0.2-1-0.6-1.3-1
		c-0.4-0.5-0.5-1.1-0.5-1.8c0-0.6,0.2-1.2,0.5-1.7c0.4-0.5,0.9-0.9,1.5-1.2c0.6-0.3,1.4-0.4,2.2-0.4c1.2,0,2.5,0.3,3.9,0.8l-0.4,1.2
		c-1.2-0.5-2.4-0.8-3.4-0.8c-0.9,0-1.6,0.2-2.1,0.6c-0.5,0.4-0.8,0.9-0.8,1.5c0,0.5,0.1,0.8,0.4,1.1c0.3,0.3,0.6,0.5,1,0.7
		c0.4,0.2,1,0.3,1.7,0.5c0.9,0.2,1.6,0.5,2.1,0.7c0.5,0.2,1,0.6,1.4,1.1s0.6,1.1,0.6,1.9c0,0.6-0.2,1.2-0.5,1.7
		c-0.4,0.5-0.9,0.9-1.5,1.2c-0.7,0.3-1.4,0.4-2.2,0.4C165.7,255.4,164.2,255.1,162.7,254.4z"/>
	<path class="st0" d="M174.9,254.8c-0.6-0.4-1.1-0.9-1.4-1.6c-0.3-0.7-0.5-1.5-0.5-2.4c0-0.9,0.2-1.7,0.5-2.4s0.8-1.2,1.4-1.6
		c0.6-0.4,1.3-0.6,2-0.6c0.6,0,1.2,0.1,1.7,0.4s0.9,0.7,1.2,1.2l0.2-1.4h1.3v8.7h-1.2l-0.2-1.5c-0.3,0.5-0.7,1-1.3,1.2
		c-0.5,0.3-1.1,0.4-1.8,0.4C176.2,255.4,175.5,255.2,174.9,254.8z M179.1,253.5c0.5-0.5,0.7-1.2,0.7-2v-1.4c0-0.8-0.2-1.4-0.7-2
		c-0.5-0.5-1.1-0.8-1.9-0.8c-0.5,0-1,0.1-1.5,0.4c-0.4,0.3-0.8,0.7-1,1.2c-0.2,0.5-0.4,1.1-0.4,1.8s0.1,1.3,0.4,1.8
		c0.2,0.5,0.6,0.9,1,1.2c0.4,0.3,0.9,0.4,1.5,0.4C178.1,254.2,178.7,254,179.1,253.5z"/>
	<path class="st0" d="M183.1,246.4h1.5l2.8,7.1l2.8-7.1h1.5l-3.6,8.7h-1.3L183.1,246.4z"/>
	<path class="st0" d="M193.5,244.4c-0.2-0.2-0.3-0.4-0.3-0.7c0-0.3,0.1-0.5,0.3-0.7c0.2-0.2,0.4-0.3,0.7-0.3c0.3,0,0.5,0.1,0.7,0.3
		c0.2,0.2,0.3,0.4,0.3,0.7c0,0.3-0.1,0.5-0.3,0.7c-0.2,0.2-0.4,0.3-0.7,0.3C193.9,244.7,193.7,244.6,193.5,244.4z M193.5,246.4h1.4
		v8.7h-1.4V246.4z"/>
	<path class="st0" d="M197.7,246.4h1.2l0.2,1.6c0.3-0.6,0.7-1,1.3-1.3c0.6-0.3,1.2-0.5,1.9-0.5c0.6,0,1.2,0.1,1.7,0.4
		s0.9,0.7,1.2,1.2c0.3,0.5,0.4,1.1,0.4,1.7v5.7h-1.4v-5.5c0-0.7-0.2-1.2-0.6-1.6c-0.4-0.4-1-0.6-1.7-0.6c-0.8,0-1.4,0.3-1.9,0.8
		s-0.7,1.2-0.7,2v4.9h-1.4V246.4z"/>
	<path class="st0" d="M208.1,258.4l0.4-1.1c1.1,0.5,2.1,0.7,2.9,0.7c0.9,0,1.6-0.2,2.2-0.7c0.6-0.5,0.8-1.1,0.8-1.9v-1.6
		c-0.3,0.5-0.7,0.9-1.2,1.2c-0.5,0.3-1.1,0.4-1.7,0.4c-0.8,0-1.4-0.2-2-0.6c-0.6-0.4-1.1-0.9-1.4-1.6c-0.3-0.7-0.5-1.5-0.5-2.4
		c0-0.9,0.2-1.7,0.5-2.4s0.8-1.2,1.4-1.6c0.6-0.4,1.3-0.6,2-0.6c0.6,0,1.2,0.1,1.8,0.4c0.5,0.3,0.9,0.7,1.3,1.2l0.2-1.5h1.2v8.9
		c0,0.7-0.2,1.4-0.6,2s-0.9,1-1.5,1.3c-0.7,0.3-1.4,0.5-2.2,0.5C210.5,259.1,209.3,258.9,208.1,258.4z M213.7,253.5
		c0.5-0.5,0.7-1.2,0.7-2v-1.4c0-0.8-0.2-1.4-0.7-2c-0.5-0.5-1.1-0.8-1.9-0.8c-0.5,0-1,0.1-1.5,0.4c-0.4,0.3-0.8,0.7-1,1.2
		c-0.2,0.5-0.4,1.1-0.4,1.8s0.1,1.3,0.4,1.8c0.2,0.5,0.6,0.9,1,1.2c0.4,0.3,0.9,0.4,1.5,0.4C212.6,254.2,213.3,254,213.7,253.5z"/>
	<path class="st0" d="M222.6,254.2l4.7-4.7c1-1,1.5-2,1.5-2.9c0-0.7-0.2-1.3-0.7-1.8c-0.5-0.5-1.1-0.7-1.9-0.7c-0.5,0-1,0.1-1.4,0.3
		c-0.5,0.2-1,0.4-1.5,0.8l-0.6-1.1c1.3-0.8,2.6-1.2,3.8-1.2c0.7,0,1.4,0.1,1.9,0.4c0.6,0.3,1,0.7,1.3,1.3c0.3,0.5,0.5,1.2,0.5,1.8
		c0,0.6-0.1,1.3-0.4,1.9c-0.3,0.6-0.7,1.2-1.3,1.8l-3.9,3.9h5.8v1.2h-7.8V254.2z"/>
	<path class="st0" d="M234.2,248.9c-0.5-0.3-0.8-0.7-1.1-1.2c-0.3-0.5-0.4-1-0.4-1.7s0.1-1.2,0.4-1.7s0.6-0.9,1.1-1.2
		c0.5-0.3,1-0.4,1.5-0.4s1.1,0.1,1.5,0.4c0.5,0.3,0.8,0.7,1.1,1.2c0.3,0.5,0.4,1,0.4,1.7s-0.1,1.2-0.4,1.7c-0.3,0.5-0.6,0.9-1.1,1.2
		c-0.5,0.3-1,0.4-1.5,0.4S234.7,249.2,234.2,248.9z M237.1,247.8c0.3-0.4,0.5-1,0.5-1.7c0-0.7-0.2-1.3-0.5-1.7
		c-0.4-0.4-0.8-0.7-1.4-0.7c-0.6,0-1,0.2-1.4,0.7c-0.4,0.4-0.5,1-0.5,1.7c0,0.7,0.2,1.3,0.5,1.7c0.4,0.4,0.8,0.7,1.4,0.7
		C236.3,248.5,236.8,248.2,237.1,247.8z M243.7,243.1h1.2l-9.1,12.1h-1.2L243.7,243.1z M242.2,255c-0.5-0.3-0.8-0.7-1.1-1.2
		s-0.4-1.1-0.4-1.7c0-0.6,0.1-1.2,0.4-1.7c0.3-0.5,0.6-0.9,1.1-1.2c0.5-0.3,1-0.4,1.5-0.4s1.1,0.1,1.5,0.4c0.5,0.3,0.8,0.7,1.1,1.2
		c0.3,0.5,0.4,1.1,0.4,1.7c0,0.6-0.1,1.2-0.4,1.7c-0.3,0.5-0.6,0.9-1.1,1.2c-0.5,0.3-1,0.4-1.5,0.4S242.6,255.2,242.2,255z
		 M245.1,253.8c0.4-0.4,0.5-1,0.5-1.7c0-0.7-0.2-1.3-0.5-1.7c-0.4-0.4-0.8-0.7-1.4-0.7c-0.6,0-1,0.2-1.4,0.7c-0.4,0.4-0.5,1-0.5,1.7
		c0,0.7,0.2,1.3,0.5,1.7c0.3,0.4,0.8,0.7,1.4,0.7C244.3,254.5,244.8,254.3,245.1,253.8z"/>
	<path class="st0" d="M253.3,246.4h1.2l0.2,1.5c0.3-0.6,0.7-1,1.2-1.3c0.5-0.3,1.1-0.5,1.8-0.5c0.7,0,1.3,0.2,1.8,0.5
		s0.9,0.8,1.1,1.4c0.3-0.6,0.8-1.1,1.4-1.4c0.6-0.3,1.2-0.5,1.9-0.5c0.6,0,1.2,0.1,1.6,0.4c0.5,0.3,0.9,0.6,1.1,1.1
		c0.3,0.5,0.4,1,0.4,1.6v5.8h-1.4v-5.6c0-0.6-0.2-1.1-0.6-1.5c-0.4-0.4-0.9-0.6-1.5-0.6c-0.7,0-1.3,0.3-1.8,0.8
		c-0.5,0.5-0.7,1.1-0.7,1.9v5.1h-1.4v-5.6c0-0.6-0.2-1.1-0.6-1.5c-0.4-0.4-0.9-0.6-1.6-0.6c-0.7,0-1.3,0.3-1.8,0.8s-0.7,1.1-0.7,1.9
		v5.1h-1.4V246.4z"/>
	<path class="st0" d="M271.1,254.8c-0.7-0.4-1.2-0.9-1.6-1.6c-0.4-0.7-0.6-1.5-0.6-2.4c0-0.9,0.2-1.7,0.6-2.4s0.9-1.2,1.6-1.6
		s1.4-0.6,2.3-0.6c0.9,0,1.6,0.2,2.3,0.6s1.2,0.9,1.6,1.6s0.6,1.5,0.6,2.4c0,0.9-0.2,1.7-0.6,2.4c-0.4,0.7-0.9,1.2-1.6,1.6
		s-1.4,0.6-2.3,0.6C272.5,255.4,271.8,255.2,271.1,254.8z M274.9,253.8c0.5-0.3,0.8-0.7,1.1-1.2c0.3-0.5,0.4-1.1,0.4-1.8
		c0-0.7-0.1-1.3-0.4-1.8c-0.3-0.5-0.6-0.9-1.1-1.2s-1-0.4-1.5-0.4s-1.1,0.1-1.5,0.4s-0.8,0.7-1.1,1.2c-0.3,0.5-0.4,1.1-0.4,1.8
		c0,0.7,0.1,1.3,0.4,1.8s0.6,0.9,1.1,1.2s1,0.4,1.5,0.4S274.5,254.1,274.9,253.8z"/>
	<path class="st0" d="M280.1,246.4h1.2l0.2,1.7c0.2-0.6,0.6-1,1.1-1.3c0.5-0.3,1-0.5,1.7-0.5c0.3,0,0.7,0,1.1,0.1l-0.2,1.2
		c-0.4-0.1-0.7-0.1-1-0.1c-0.7,0-1.3,0.3-1.8,0.8c-0.5,0.6-0.7,1.3-0.7,2.1v4.7h-1.4V246.4z"/>
	<path class="st0" d="M288.3,254.8c-0.7-0.4-1.2-0.9-1.6-1.6c-0.4-0.7-0.6-1.5-0.6-2.4c0-0.9,0.2-1.7,0.5-2.4
		c0.4-0.7,0.9-1.2,1.5-1.6s1.4-0.6,2.2-0.6c0.8,0,1.5,0.2,2.1,0.6c0.6,0.4,1.1,0.9,1.4,1.6s0.5,1.4,0.5,2.3c0,0.2,0,0.4,0,0.5h-6.8
		c0.1,0.9,0.4,1.7,1,2.3c0.6,0.6,1.4,0.9,2.3,0.9c0.9,0,1.7-0.2,2.6-0.7l0.5,1c-1.1,0.6-2.2,0.8-3.2,0.8
		C289.8,255.4,289,255.2,288.3,254.8z M292.9,250.2c0-0.9-0.3-1.6-0.8-2.1c-0.5-0.5-1.1-0.8-1.8-0.8c-0.8,0-1.4,0.3-1.9,0.8
		c-0.5,0.5-0.8,1.2-0.9,2.1H292.9z"/>
	<path class="st0" d="M299.6,246.4h1.4l2.2,7.1l2.1-7.1h1.4l2.2,7.1l2.1-7.1h1.5l-2.9,8.7h-1.4l-2.1-7.1l-2.2,7.1h-1.4L299.6,246.4z
		"/>
	<path class="st0" d="M314.4,244.4c-0.2-0.2-0.3-0.4-0.3-0.7c0-0.3,0.1-0.5,0.3-0.7c0.2-0.2,0.4-0.3,0.7-0.3c0.3,0,0.5,0.1,0.7,0.3
		c0.2,0.2,0.3,0.4,0.3,0.7c0,0.3-0.1,0.5-0.3,0.7c-0.2,0.2-0.4,0.3-0.7,0.3C314.8,244.7,314.6,244.6,314.4,244.4z M314.4,246.4h1.4
		v8.7h-1.4V246.4z"/>
	<path class="st0" d="M319.2,254.8c-0.4-0.4-0.6-0.9-0.6-1.5v-10.8h1.4v10.7c0,0.3,0.1,0.6,0.3,0.8c0.2,0.2,0.5,0.3,0.8,0.3
		c0.2,0,0.5,0,0.9-0.1l0.2,1.1c-0.5,0.1-0.9,0.2-1.3,0.2C320.2,255.4,319.6,255.2,319.2,254.8z"/>
	<path class="st0" d="M324.1,254.8c-0.4-0.4-0.6-0.9-0.6-1.5v-10.8h1.4v10.7c0,0.3,0.1,0.6,0.3,0.8c0.2,0.2,0.5,0.3,0.8,0.3
		c0.2,0,0.5,0,0.9-0.1l0.2,1.1c-0.5,0.1-0.9,0.2-1.4,0.2C325.1,255.4,324.5,255.2,324.1,254.8z"/>
	<path class="st0" d="M332.9,258.4l0.4-1.1c1.1,0.5,2.1,0.7,2.9,0.7c0.9,0,1.6-0.2,2.2-0.7c0.6-0.5,0.8-1.1,0.8-1.9v-1.6
		c-0.3,0.5-0.7,0.9-1.2,1.2c-0.5,0.3-1.1,0.4-1.7,0.4c-0.8,0-1.4-0.2-2-0.6c-0.6-0.4-1.1-0.9-1.4-1.6c-0.3-0.7-0.5-1.5-0.5-2.4
		c0-0.9,0.2-1.7,0.5-2.4s0.8-1.2,1.4-1.6c0.6-0.4,1.3-0.6,2-0.6c0.6,0,1.2,0.1,1.8,0.4c0.5,0.3,0.9,0.7,1.3,1.2l0.2-1.5h1.2v8.9
		c0,0.7-0.2,1.4-0.6,2s-0.9,1-1.5,1.3c-0.7,0.3-1.4,0.5-2.2,0.5C335.2,259.1,334.1,258.9,332.9,258.4z M338.5,253.5
		c0.5-0.5,0.7-1.2,0.7-2v-1.4c0-0.8-0.2-1.4-0.7-2c-0.5-0.5-1.1-0.8-1.9-0.8c-0.5,0-1,0.1-1.5,0.4c-0.4,0.3-0.8,0.7-1,1.2
		c-0.2,0.5-0.4,1.1-0.4,1.8s0.1,1.3,0.4,1.8c0.2,0.5,0.6,0.9,1,1.2c0.4,0.3,0.9,0.4,1.5,0.4C337.4,254.2,338.1,254,338.5,253.5z"/>
	<path class="st0" d="M345.1,254.8c-0.7-0.4-1.2-0.9-1.6-1.6c-0.4-0.7-0.6-1.5-0.6-2.4c0-0.9,0.2-1.7,0.5-2.4
		c0.4-0.7,0.9-1.2,1.5-1.6c0.6-0.4,1.4-0.6,2.2-0.6c0.8,0,1.5,0.2,2.1,0.6c0.6,0.4,1.1,0.9,1.4,1.6c0.3,0.7,0.5,1.4,0.5,2.3
		c0,0.2,0,0.4,0,0.5h-6.8c0.1,0.9,0.4,1.7,1,2.3c0.6,0.6,1.4,0.9,2.3,0.9c0.9,0,1.7-0.2,2.6-0.7l0.4,1c-1.1,0.6-2.2,0.8-3.2,0.8
		C346.6,255.4,345.8,255.2,345.1,254.8z M349.7,250.2c0-0.9-0.3-1.6-0.8-2.1c-0.5-0.5-1.1-0.8-1.8-0.8c-0.8,0-1.4,0.3-1.9,0.8
		c-0.5,0.5-0.8,1.2-0.9,2.1H349.7z"/>
	<path class="st0" d="M354.5,254.7c-0.5-0.5-0.7-1.1-0.7-1.9v-5.3H352v-1.1h1.8v-2.6h1.4v2.6h2.8v1.1h-2.8v5.1
		c0,0.5,0.1,0.8,0.4,1.1c0.3,0.3,0.7,0.4,1.1,0.4c0.3,0,0.7-0.1,1.2-0.2l0.2,1.1c-0.6,0.2-1.1,0.2-1.7,0.2
		C355.7,255.4,355,255.1,354.5,254.7z"/>
	<path class="st0" d="M363.1,259l0.2-1.2c0.3,0.1,0.6,0.1,0.9,0.1c0.4,0,0.8-0.1,1.1-0.4c0.3-0.3,0.6-0.7,0.8-1.3l0.5-1.1l-3.6-8.7
		h1.5l2.8,7.1l2.7-7.1h1.5l-4.1,10.1c-0.4,0.9-0.8,1.6-1.3,2c-0.5,0.4-1.1,0.6-1.8,0.6C364,259.1,363.6,259.1,363.1,259z"/>
	<path class="st0" d="M374.6,254.8c-0.7-0.4-1.2-0.9-1.6-1.6c-0.4-0.7-0.6-1.5-0.6-2.4c0-0.9,0.2-1.7,0.6-2.4s0.9-1.2,1.6-1.6
		c0.7-0.4,1.4-0.6,2.3-0.6c0.9,0,1.6,0.2,2.3,0.6s1.2,0.9,1.6,1.6s0.6,1.5,0.6,2.4c0,0.9-0.2,1.7-0.6,2.4c-0.4,0.7-0.9,1.2-1.6,1.6
		s-1.4,0.6-2.3,0.6C376,255.4,375.2,255.2,374.6,254.8z M378.4,253.8c0.5-0.3,0.8-0.7,1.1-1.2s0.4-1.1,0.4-1.8
		c0-0.7-0.1-1.3-0.4-1.8c-0.3-0.5-0.6-0.9-1.1-1.2s-1-0.4-1.5-0.4s-1.1,0.1-1.5,0.4s-0.8,0.7-1.1,1.2c-0.3,0.5-0.4,1.1-0.4,1.8
		c0,0.7,0.1,1.3,0.4,1.8c0.3,0.5,0.6,0.9,1.1,1.2s1,0.4,1.5,0.4S378,254.1,378.4,253.8z"/>
	<path class="st0" d="M385,255c-0.5-0.3-0.9-0.7-1.2-1.2c-0.3-0.5-0.4-1.1-0.4-1.7v-5.7h1.4v5.5c0,0.7,0.2,1.2,0.6,1.6
		c0.4,0.4,1,0.6,1.7,0.6c0.8,0,1.4-0.3,1.9-0.8c0.5-0.5,0.7-1.2,0.7-2v-4.9h1.4v8.7h-1.2l-0.2-1.6c-0.3,0.6-0.7,1-1.3,1.3
		c-0.6,0.3-1.2,0.5-1.9,0.5C386.1,255.4,385.5,255.2,385,255z"/>
	<path class="st0" d="M145.6,276.4c-0.7-0.4-1.2-0.9-1.6-1.6c-0.4-0.7-0.6-1.5-0.6-2.4c0-0.9,0.2-1.7,0.6-2.4s0.9-1.2,1.6-1.6
		s1.4-0.6,2.3-0.6c1.1,0,2.1,0.3,3.1,1l-0.6,1c-0.8-0.5-1.5-0.8-2.3-0.8c-0.6,0-1.1,0.1-1.6,0.4c-0.5,0.3-0.8,0.7-1.1,1.2
		c-0.3,0.5-0.4,1.1-0.4,1.8s0.1,1.3,0.4,1.8c0.3,0.5,0.6,0.9,1.1,1.2c0.5,0.3,1,0.4,1.6,0.4c0.8,0,1.5-0.3,2.3-0.8l0.6,1
		c-1,0.7-2,1-3.1,1C147,277,146.3,276.8,145.6,276.4z"/>
	<path class="st0" d="M153.5,276.4c-0.4-0.4-0.6-0.9-0.6-1.5v-10.8h1.4v10.7c0,0.3,0.1,0.6,0.3,0.8c0.2,0.2,0.5,0.3,0.8,0.3
		c0.2,0,0.5,0,0.9-0.1l0.2,1.1c-0.5,0.1-0.9,0.2-1.4,0.2C154.4,277,153.9,276.8,153.5,276.4z"/>
	<path class="st0" d="M159.4,276.4c-0.7-0.4-1.2-0.9-1.6-1.6c-0.4-0.7-0.6-1.5-0.6-2.4c0-0.9,0.2-1.7,0.6-2.4s0.9-1.2,1.6-1.6
		s1.4-0.6,2.3-0.6c0.9,0,1.6,0.2,2.3,0.6c0.7,0.4,1.2,0.9,1.6,1.6c0.4,0.7,0.6,1.5,0.6,2.4c0,0.9-0.2,1.7-0.6,2.4
		c-0.4,0.7-0.9,1.2-1.6,1.6c-0.7,0.4-1.4,0.6-2.3,0.6C160.8,277,160.1,276.8,159.4,276.4z M163.2,275.4c0.5-0.3,0.8-0.7,1.1-1.2
		s0.4-1.1,0.4-1.8c0-0.7-0.1-1.3-0.4-1.8c-0.3-0.5-0.6-0.9-1.1-1.2c-0.5-0.3-1-0.4-1.5-0.4c-0.6,0-1.1,0.1-1.5,0.4s-0.8,0.7-1.1,1.2
		c-0.3,0.5-0.4,1.1-0.4,1.8c0,0.7,0.1,1.3,0.4,1.8s0.6,0.9,1.1,1.2s1,0.4,1.5,0.4C162.3,275.8,162.8,275.7,163.2,275.4z"/>
	<path class="st0" d="M167.7,276.3l0.3-1.1c1,0.4,2,0.6,2.8,0.6c0.6,0,1.1-0.1,1.4-0.4c0.4-0.3,0.5-0.6,0.5-1c0-0.3-0.1-0.6-0.3-0.8
		c-0.2-0.2-0.4-0.3-0.7-0.5c-0.3-0.1-0.7-0.2-1.2-0.4c-0.6-0.2-1.1-0.3-1.5-0.5s-0.7-0.4-1-0.8c-0.3-0.3-0.4-0.8-0.4-1.3
		c0-0.5,0.1-0.9,0.4-1.3c0.3-0.4,0.6-0.7,1.1-0.9c0.5-0.2,1-0.3,1.6-0.3c1,0,1.9,0.2,3,0.6l-0.3,1.1c-0.9-0.4-1.8-0.6-2.5-0.6
		c-0.6,0-1,0.1-1.4,0.4c-0.3,0.2-0.5,0.6-0.5,1c0,0.4,0.2,0.8,0.5,1c0.3,0.2,0.9,0.4,1.6,0.6c0.6,0.2,1.1,0.3,1.5,0.5
		c0.4,0.2,0.7,0.4,1,0.8c0.3,0.3,0.4,0.8,0.4,1.4c0,0.7-0.3,1.3-0.9,1.8c-0.6,0.5-1.4,0.7-2.3,0.7
		C169.9,277,168.9,276.8,167.7,276.3z"/>
	<path class="st0" d="M178,276.4c-0.7-0.4-1.2-0.9-1.6-1.6c-0.4-0.7-0.6-1.5-0.6-2.4c0-0.9,0.2-1.7,0.5-2.4c0.4-0.7,0.9-1.2,1.5-1.6
		s1.4-0.6,2.2-0.6c0.8,0,1.5,0.2,2.1,0.6c0.6,0.4,1.1,0.9,1.4,1.6s0.5,1.4,0.5,2.3c0,0.2,0,0.4,0,0.5h-6.8c0.1,0.9,0.4,1.7,1,2.3
		c0.6,0.6,1.4,0.9,2.3,0.9c0.9,0,1.7-0.2,2.6-0.7l0.5,1c-1.1,0.6-2.2,0.8-3.2,0.8C179.5,277,178.7,276.8,178,276.4z M182.6,271.8
		c0-0.9-0.3-1.6-0.8-2.1c-0.5-0.5-1.1-0.8-1.8-0.8c-0.8,0-1.4,0.3-1.9,0.8c-0.5,0.5-0.8,1.2-0.9,2.1H182.6z"/>
	<path class="st0" d="M186.1,268h1.2l0.2,1.7c0.2-0.6,0.6-1,1.1-1.3c0.5-0.3,1-0.5,1.7-0.5c0.3,0,0.7,0,1.1,0.1l-0.2,1.2
		c-0.4-0.1-0.7-0.1-1-0.1c-0.7,0-1.3,0.3-1.8,0.8s-0.7,1.3-0.7,2.1v4.7h-1.4V268z"/>
	<path class="st0" d="M198.3,276.3c-0.5-0.5-0.7-1.1-0.7-1.9v-5.3h-1.8V268h1.8v-2.6h1.4v2.6h2.8v1.1H199v5.1c0,0.5,0.1,0.8,0.4,1.1
		c0.3,0.3,0.7,0.4,1.1,0.4c0.3,0,0.7-0.1,1.2-0.2l0.2,1.1c-0.6,0.2-1.1,0.2-1.7,0.2C199.5,277,198.8,276.7,198.3,276.3z"/>
	<path class="st0" d="M205,276.4c-0.7-0.4-1.2-0.9-1.6-1.6c-0.4-0.7-0.6-1.5-0.6-2.4c0-0.9,0.2-1.7,0.6-2.4s0.9-1.2,1.6-1.6
		s1.4-0.6,2.3-0.6c0.9,0,1.6,0.2,2.3,0.6s1.2,0.9,1.6,1.6s0.6,1.5,0.6,2.4c0,0.9-0.2,1.7-0.6,2.4c-0.4,0.7-0.9,1.2-1.6,1.6
		s-1.4,0.6-2.3,0.6C206.5,277,205.7,276.8,205,276.4z M208.9,275.4c0.5-0.3,0.8-0.7,1.1-1.2c0.3-0.5,0.4-1.1,0.4-1.8
		c0-0.7-0.1-1.3-0.4-1.8c-0.3-0.5-0.6-0.9-1.1-1.2s-1-0.4-1.5-0.4s-1.1,0.1-1.5,0.4s-0.8,0.7-1.1,1.2c-0.3,0.5-0.4,1.1-0.4,1.8
		c0,0.7,0.1,1.3,0.4,1.8s0.6,0.9,1.1,1.2s1,0.4,1.5,0.4S208.4,275.7,208.9,275.4z"/>
	<path class="st0" d="M219.6,276.3c-0.5-0.5-0.7-1.1-0.7-1.9v-5.3h-1.8V268h1.8v-2.6h1.4v2.6h2.8v1.1h-2.8v5.1
		c0,0.5,0.1,0.8,0.4,1.1c0.3,0.3,0.7,0.4,1.1,0.4c0.3,0,0.7-0.1,1.2-0.2l0.2,1.1c-0.6,0.2-1.1,0.2-1.7,0.2
		C220.8,277,220.1,276.7,219.6,276.3z"/>
	<path class="st0" d="M225.3,264.1h1.4v5.5c0.3-0.6,0.7-1,1.3-1.3s1.1-0.5,1.8-0.5c0.6,0,1.2,0.1,1.7,0.4s0.9,0.7,1.2,1.2
		c0.3,0.5,0.4,1.1,0.4,1.7v5.7h-1.4v-5.5c0-0.7-0.2-1.2-0.6-1.6c-0.4-0.4-1-0.6-1.7-0.6c-0.8,0-1.4,0.3-1.9,0.8s-0.7,1.2-0.7,2v4.9
		h-1.4V264.1z"/>
	<path class="st0" d="M237.3,276.4c-0.7-0.4-1.2-0.9-1.6-1.6c-0.4-0.7-0.6-1.5-0.6-2.4c0-0.9,0.2-1.7,0.5-2.4
		c0.4-0.7,0.9-1.2,1.5-1.6c0.6-0.4,1.4-0.6,2.2-0.6c0.8,0,1.5,0.2,2.1,0.6c0.6,0.4,1.1,0.9,1.4,1.6c0.3,0.7,0.5,1.4,0.5,2.3
		c0,0.2,0,0.4,0,0.5h-6.8c0.1,0.9,0.4,1.7,1,2.3c0.6,0.6,1.4,0.9,2.3,0.9c0.9,0,1.7-0.2,2.6-0.7l0.4,1c-1.1,0.6-2.2,0.8-3.2,0.8
		C238.8,277,238,276.8,237.3,276.4z M242,271.8c0-0.9-0.3-1.6-0.8-2.1c-0.5-0.5-1.1-0.8-1.8-0.8c-0.8,0-1.4,0.3-1.9,0.8
		c-0.5,0.5-0.8,1.2-0.9,2.1H242z"/>
	<path class="st0" d="M249.7,268h1.2l0.2,1.7c0.2-0.6,0.6-1,1.1-1.3c0.5-0.3,1-0.5,1.7-0.5c0.3,0,0.7,0,1.1,0.1l-0.2,1.2
		c-0.4-0.1-0.7-0.1-1-0.1c-0.7,0-1.3,0.3-1.8,0.8c-0.5,0.6-0.7,1.3-0.7,2.1v4.7h-1.4V268z"/>
	<path class="st0" d="M258,276.4c-0.7-0.4-1.2-0.9-1.6-1.6c-0.4-0.7-0.6-1.5-0.6-2.4c0-0.9,0.2-1.7,0.5-2.4c0.4-0.7,0.9-1.2,1.5-1.6
		s1.4-0.6,2.2-0.6c0.8,0,1.5,0.2,2.1,0.6c0.6,0.4,1.1,0.9,1.4,1.6s0.5,1.4,0.5,2.3c0,0.2,0,0.4,0,0.5h-6.8c0.1,0.9,0.4,1.7,1,2.3
		c0.6,0.6,1.4,0.9,2.3,0.9c0.9,0,1.7-0.2,2.6-0.7l0.5,1c-1.1,0.6-2.2,0.8-3.2,0.8C259.5,277,258.7,276.8,258,276.4z M262.6,271.8
		c0-0.9-0.3-1.6-0.8-2.1c-0.5-0.5-1.1-0.8-1.8-0.8c-0.8,0-1.4,0.3-1.9,0.8c-0.5,0.5-0.8,1.2-0.9,2.1H262.6z"/>
	<path class="st0" d="M267.6,276.4c-0.7-0.4-1.2-0.9-1.6-1.6c-0.4-0.7-0.6-1.5-0.6-2.4c0-0.9,0.2-1.7,0.6-2.4s0.9-1.2,1.6-1.6
		s1.4-0.6,2.3-0.6c1.1,0,2.1,0.3,3.1,1l-0.6,1c-0.8-0.5-1.5-0.8-2.3-0.8c-0.6,0-1.1,0.1-1.6,0.4c-0.5,0.3-0.8,0.7-1.1,1.2
		c-0.3,0.5-0.4,1.1-0.4,1.8s0.1,1.3,0.4,1.8c0.3,0.5,0.6,0.9,1.1,1.2c0.5,0.3,1,0.4,1.6,0.4c0.8,0,1.5-0.3,2.3-0.8l0.6,1
		c-1,0.7-2,1-3.1,1C269,277,268.3,276.8,267.6,276.4z"/>
	<path class="st0" d="M276.2,276.4c-0.7-0.4-1.2-0.9-1.6-1.6c-0.4-0.7-0.6-1.5-0.6-2.4c0-0.9,0.2-1.7,0.6-2.4s0.9-1.2,1.6-1.6
		s1.4-0.6,2.3-0.6c0.9,0,1.6,0.2,2.3,0.6s1.2,0.9,1.6,1.6s0.6,1.5,0.6,2.4c0,0.9-0.2,1.7-0.6,2.4c-0.4,0.7-0.9,1.2-1.6,1.6
		s-1.4,0.6-2.3,0.6C277.7,277,276.9,276.8,276.2,276.4z M280.1,275.4c0.5-0.3,0.8-0.7,1.1-1.2c0.3-0.5,0.4-1.1,0.4-1.8
		c0-0.7-0.1-1.3-0.4-1.8c-0.3-0.5-0.6-0.9-1.1-1.2s-1-0.4-1.5-0.4s-1.1,0.1-1.5,0.4s-0.8,0.7-1.1,1.2c-0.3,0.5-0.4,1.1-0.4,1.8
		c0,0.7,0.1,1.3,0.4,1.8s0.6,0.9,1.1,1.2s1,0.4,1.5,0.4S279.7,275.7,280.1,275.4z"/>
	<path class="st0" d="M285.2,268h1.2l0.2,1.5c0.3-0.6,0.7-1,1.2-1.3s1.1-0.5,1.8-0.5c0.7,0,1.3,0.2,1.8,0.5c0.5,0.3,0.9,0.8,1.1,1.4
		c0.3-0.6,0.8-1.1,1.3-1.4s1.2-0.5,1.9-0.5c0.6,0,1.2,0.1,1.6,0.4c0.5,0.3,0.9,0.6,1.1,1.1c0.3,0.5,0.4,1,0.4,1.6v5.8h-1.4v-5.6
		c0-0.6-0.2-1.1-0.6-1.5c-0.4-0.4-0.9-0.6-1.5-0.6c-0.7,0-1.3,0.3-1.8,0.8s-0.7,1.1-0.7,1.9v5.1h-1.4v-5.6c0-0.6-0.2-1.1-0.6-1.5
		c-0.4-0.4-0.9-0.6-1.6-0.6c-0.7,0-1.3,0.3-1.8,0.8c-0.5,0.5-0.7,1.1-0.7,1.9v5.1h-1.4V268z"/>
	<path class="st0" d="M301.5,268h1.2l0.2,1.5c0.3-0.6,0.7-1,1.2-1.3s1.1-0.5,1.8-0.5c0.7,0,1.3,0.2,1.8,0.5c0.5,0.3,0.9,0.8,1.1,1.4
		c0.3-0.6,0.8-1.1,1.3-1.4s1.2-0.5,1.9-0.5c0.6,0,1.2,0.1,1.6,0.4c0.5,0.3,0.9,0.6,1.1,1.1c0.3,0.5,0.4,1,0.4,1.6v5.8h-1.4v-5.6
		c0-0.6-0.2-1.1-0.6-1.5c-0.4-0.4-0.9-0.6-1.5-0.6c-0.7,0-1.3,0.3-1.8,0.8s-0.7,1.1-0.7,1.9v5.1h-1.4v-5.6c0-0.6-0.2-1.1-0.6-1.5
		c-0.4-0.4-0.9-0.6-1.6-0.6c-0.7,0-1.3,0.3-1.8,0.8c-0.5,0.5-0.7,1.1-0.7,1.9v5.1h-1.4V268z"/>
	<path class="st0" d="M319.4,276.4c-0.7-0.4-1.2-0.9-1.6-1.6c-0.4-0.7-0.6-1.5-0.6-2.4c0-0.9,0.2-1.7,0.5-2.4
		c0.4-0.7,0.9-1.2,1.5-1.6c0.6-0.4,1.4-0.6,2.2-0.6c0.8,0,1.5,0.2,2.1,0.6c0.6,0.4,1.1,0.9,1.4,1.6c0.3,0.7,0.5,1.4,0.5,2.3
		c0,0.2,0,0.4,0,0.5h-6.8c0.1,0.9,0.4,1.7,1,2.3c0.6,0.6,1.4,0.9,2.3,0.9c0.9,0,1.7-0.2,2.6-0.7l0.4,1c-1.1,0.6-2.2,0.8-3.2,0.8
		C320.8,277,320.1,276.8,319.4,276.4z M324,271.8c0-0.9-0.3-1.6-0.8-2.1c-0.5-0.5-1.1-0.8-1.8-0.8c-0.8,0-1.4,0.3-1.9,0.8
		c-0.5,0.5-0.8,1.2-0.9,2.1H324z"/>
	<path class="st0" d="M327.5,268h1.2l0.2,1.6c0.3-0.6,0.7-1,1.3-1.3c0.6-0.3,1.2-0.5,1.9-0.5c0.6,0,1.2,0.1,1.7,0.4s0.9,0.7,1.2,1.2
		c0.3,0.5,0.4,1.1,0.4,1.7v5.7h-1.4v-5.5c0-0.7-0.2-1.2-0.6-1.6c-0.4-0.4-1-0.6-1.7-0.6c-0.8,0-1.4,0.3-1.9,0.8s-0.7,1.2-0.7,2v4.9
		h-1.4V268z"/>
	<path class="st0" d="M339.2,276.4c-0.6-0.4-1.1-0.9-1.4-1.6c-0.3-0.7-0.5-1.5-0.5-2.4c0-0.9,0.2-1.7,0.5-2.4s0.8-1.2,1.4-1.6
		c0.6-0.4,1.3-0.6,2-0.6c0.6,0,1.2,0.1,1.7,0.4c0.5,0.3,0.9,0.7,1.2,1.2v-5.3h1.4v12.7h-1.2l-0.2-1.5c-0.3,0.5-0.7,1-1.3,1.2
		c-0.5,0.3-1.1,0.4-1.8,0.4C340.5,277,339.9,276.8,339.2,276.4z M343.5,275.1c0.5-0.5,0.7-1.2,0.7-2v-1.4c0-0.8-0.2-1.4-0.7-2
		c-0.5-0.5-1.1-0.8-1.9-0.8c-0.5,0-1,0.1-1.5,0.4s-0.8,0.7-1,1.2c-0.2,0.5-0.4,1.1-0.4,1.8s0.1,1.3,0.4,1.8c0.2,0.5,0.6,0.9,1,1.2
		s0.9,0.4,1.5,0.4C342.4,275.8,343,275.6,343.5,275.1z"/>
	<path class="st0" d="M350,276.4c-0.7-0.4-1.2-0.9-1.6-1.6c-0.4-0.7-0.6-1.5-0.6-2.4c0-0.9,0.2-1.7,0.5-2.4c0.4-0.7,0.9-1.2,1.5-1.6
		c0.6-0.4,1.4-0.6,2.2-0.6c0.8,0,1.5,0.2,2.1,0.6c0.6,0.4,1.1,0.9,1.4,1.6s0.5,1.4,0.5,2.3c0,0.2,0,0.4,0,0.5h-6.8
		c0.1,0.9,0.4,1.7,1,2.3c0.6,0.6,1.4,0.9,2.3,0.9c0.9,0,1.7-0.2,2.6-0.7l0.5,1c-1.1,0.6-2.2,0.8-3.2,0.8
		C351.5,277,350.7,276.8,350,276.4z M354.7,271.8c0-0.9-0.3-1.6-0.8-2.1c-0.5-0.5-1.1-0.8-1.8-0.8c-0.8,0-1.4,0.3-1.9,0.8
		c-0.5,0.5-0.8,1.2-0.9,2.1H354.7z"/>
	<path class="st0" d="M359.4,276.4c-0.6-0.4-1.1-0.9-1.4-1.6c-0.3-0.7-0.5-1.5-0.5-2.4c0-0.9,0.2-1.7,0.5-2.4s0.8-1.2,1.4-1.6
		c0.6-0.4,1.3-0.6,2-0.6c0.6,0,1.2,0.1,1.7,0.4s0.9,0.7,1.2,1.2v-5.3h1.4v12.7h-1.2l-0.2-1.5c-0.3,0.5-0.7,1-1.3,1.2
		c-0.5,0.3-1.1,0.4-1.8,0.4C360.7,277,360,276.8,359.4,276.4z M363.6,275.1c0.5-0.5,0.7-1.2,0.7-2v-1.4c0-0.8-0.2-1.4-0.7-2
		c-0.5-0.5-1.1-0.8-1.9-0.8c-0.5,0-1,0.1-1.5,0.4c-0.4,0.3-0.8,0.7-1,1.2c-0.2,0.5-0.4,1.1-0.4,1.8s0.1,1.3,0.4,1.8
		c0.2,0.5,0.6,0.9,1,1.2c0.4,0.3,0.9,0.4,1.5,0.4C362.5,275.8,363.2,275.6,363.6,275.1z"/>
	<path class="st0" d="M372.8,280l0.4-1.1c1.1,0.5,2.1,0.7,2.9,0.7c0.9,0,1.6-0.2,2.2-0.7c0.6-0.5,0.8-1.1,0.8-1.9v-1.6
		c-0.3,0.5-0.7,0.9-1.2,1.2c-0.5,0.3-1.1,0.4-1.7,0.4c-0.8,0-1.4-0.2-2-0.6c-0.6-0.4-1.1-0.9-1.4-1.6c-0.3-0.7-0.5-1.5-0.5-2.4
		c0-0.9,0.2-1.7,0.5-2.4s0.8-1.2,1.4-1.6c0.6-0.4,1.3-0.6,2-0.6c0.6,0,1.2,0.1,1.8,0.4c0.5,0.3,0.9,0.7,1.3,1.2l0.2-1.5h1.2v8.9
		c0,0.7-0.2,1.4-0.6,2s-0.9,1-1.5,1.3c-0.7,0.3-1.4,0.5-2.2,0.5C375.2,280.7,374,280.5,372.8,280z M378.5,275.1
		c0.5-0.5,0.7-1.2,0.7-2v-1.4c0-0.8-0.2-1.4-0.7-2c-0.5-0.5-1.1-0.8-1.9-0.8c-0.5,0-1,0.1-1.5,0.4c-0.4,0.3-0.8,0.7-1,1.2
		c-0.2,0.5-0.4,1.1-0.4,1.8s0.1,1.3,0.4,1.8c0.2,0.5,0.6,0.9,1,1.2c0.4,0.3,0.9,0.4,1.5,0.4C377.4,275.8,378,275.6,378.5,275.1z"/>
	<path class="st0" d="M385,276.4c-0.7-0.4-1.2-0.9-1.6-1.6c-0.4-0.7-0.6-1.5-0.6-2.4c0-0.9,0.2-1.7,0.6-2.4s0.9-1.2,1.6-1.6
		c0.7-0.4,1.4-0.6,2.3-0.6c0.9,0,1.6,0.2,2.3,0.6s1.2,0.9,1.6,1.6s0.6,1.5,0.6,2.4c0,0.9-0.2,1.7-0.6,2.4c-0.4,0.7-0.9,1.2-1.6,1.6
		s-1.4,0.6-2.3,0.6C386.4,277,385.6,276.8,385,276.4z M388.8,275.4c0.5-0.3,0.8-0.7,1.1-1.2s0.4-1.1,0.4-1.8c0-0.7-0.1-1.3-0.4-1.8
		c-0.3-0.5-0.6-0.9-1.1-1.2s-1-0.4-1.5-0.4s-1.1,0.1-1.5,0.4s-0.8,0.7-1.1,1.2c-0.3,0.5-0.4,1.1-0.4,1.8c0,0.7,0.1,1.3,0.4,1.8
		c0.3,0.5,0.6,0.9,1.1,1.2s1,0.4,1.5,0.4S388.4,275.7,388.8,275.4z"/>
	<path class="st0" d="M395.2,276.4c-0.6-0.4-1.1-0.9-1.4-1.6c-0.3-0.7-0.5-1.5-0.5-2.4c0-0.9,0.2-1.7,0.5-2.4s0.8-1.2,1.4-1.6
		c0.6-0.4,1.3-0.6,2-0.6c0.6,0,1.2,0.1,1.7,0.4s0.9,0.7,1.2,1.2l0.2-1.4h1.3v8.7h-1.2l-0.2-1.5c-0.3,0.5-0.7,1-1.3,1.2
		c-0.5,0.3-1.1,0.4-1.8,0.4C396.5,277,395.8,276.8,395.2,276.4z M399.4,275.1c0.5-0.5,0.7-1.2,0.7-2v-1.4c0-0.8-0.2-1.4-0.7-2
		c-0.5-0.5-1.1-0.8-1.9-0.8c-0.5,0-1,0.1-1.5,0.4c-0.4,0.3-0.8,0.7-1,1.2c-0.2,0.5-0.4,1.1-0.4,1.8s0.1,1.3,0.4,1.8
		c0.2,0.5,0.6,0.9,1,1.2c0.4,0.3,0.9,0.4,1.5,0.4C398.4,275.8,399,275.6,399.4,275.1z"/>
	<path class="st0" d="M405,276.4c-0.4-0.4-0.6-0.9-0.6-1.5v-10.8h1.4v10.7c0,0.3,0.1,0.6,0.3,0.8c0.2,0.2,0.5,0.3,0.8,0.3
		c0.2,0,0.5,0,0.9-0.1l0.2,1.1c-0.5,0.1-0.9,0.2-1.4,0.2C405.9,277,405.4,276.8,405,276.4z"/>
	<path class="st0" d="M409.9,276.6c-0.2-0.2-0.3-0.4-0.3-0.7c0-0.3,0.1-0.5,0.3-0.7c0.2-0.2,0.4-0.3,0.7-0.3c0.3,0,0.5,0.1,0.7,0.3
		c0.2,0.2,0.3,0.4,0.3,0.7c0,0.3-0.1,0.5-0.3,0.7c-0.2,0.2-0.4,0.3-0.7,0.3C410.3,276.9,410.1,276.8,409.9,276.6z"/>
</g>
<g>
	<g>
		<path class="st1" d="M817.9,8.4l-2.8,1.6l-0.4-0.9l3.4-2h1.1v10.8h-1.3V8.4z"/>
		<path class="st1" d="M823.9,17.4c-0.6-0.5-1.1-1.1-1.5-1.9c-0.3-0.8-0.5-1.8-0.5-2.9s0.2-2.1,0.5-2.9c0.3-0.8,0.8-1.5,1.5-1.9
			c0.6-0.5,1.4-0.7,2.2-0.7s1.6,0.2,2.2,0.7c0.6,0.5,1.1,1.1,1.5,1.9c0.3,0.8,0.5,1.8,0.5,2.9s-0.2,2.1-0.5,2.9
			c-0.3,0.8-0.8,1.5-1.5,1.9c-0.6,0.5-1.4,0.7-2.2,0.7S824.6,17.9,823.9,17.4z M827.6,16.5c0.4-0.4,0.8-0.9,1-1.6
			c0.2-0.7,0.4-1.5,0.4-2.4c0-1.4-0.3-2.5-0.8-3.3C827.7,8.4,827,8,826.1,8s-1.6,0.4-2.1,1.2s-0.8,1.9-0.8,3.3
			c0,0.9,0.1,1.7,0.4,2.4s0.6,1.2,1,1.6c0.4,0.4,0.9,0.6,1.5,0.6S827.2,16.9,827.6,16.5z"/>
		<path class="st1" d="M834.4,17.4c-0.6-0.5-1.1-1.1-1.5-1.9c-0.3-0.8-0.5-1.8-0.5-2.9s0.2-2.1,0.5-2.9c0.3-0.8,0.8-1.5,1.5-1.9
			c0.6-0.5,1.4-0.7,2.2-0.7s1.6,0.2,2.2,0.7c0.6,0.5,1.1,1.1,1.5,1.9c0.3,0.8,0.5,1.8,0.5,2.9s-0.2,2.1-0.5,2.9
			c-0.3,0.8-0.8,1.5-1.5,1.9c-0.6,0.5-1.4,0.7-2.2,0.7S835,17.9,834.4,17.4z M838.1,16.5c0.4-0.4,0.8-0.9,1-1.6
			c0.2-0.7,0.4-1.5,0.4-2.4c0-1.4-0.3-2.5-0.8-3.3c-0.5-0.8-1.2-1.2-2.1-1.2s-1.6,0.4-2.1,1.2s-0.8,1.9-0.8,3.3
			c0,0.9,0.1,1.7,0.4,2.4s0.6,1.2,1,1.6c0.4,0.4,0.9,0.6,1.5,0.6S837.6,16.9,838.1,16.5z"/>
		<path class="st1" d="M843.8,12.4c-0.4-0.2-0.7-0.6-1-1s-0.3-0.9-0.3-1.5c0-0.6,0.1-1,0.3-1.5s0.5-0.8,1-1c0.4-0.2,0.9-0.4,1.4-0.4
			s1,0.1,1.4,0.4c0.4,0.2,0.7,0.6,0.9,1c0.2,0.4,0.3,0.9,0.3,1.5c0,0.6-0.1,1.1-0.3,1.5c-0.2,0.4-0.5,0.8-0.9,1s-0.9,0.4-1.4,0.4
			S844.2,12.6,843.8,12.4z M846.4,11.4c0.3-0.4,0.5-0.9,0.5-1.5c0-0.6-0.2-1.1-0.5-1.5c-0.3-0.4-0.7-0.6-1.2-0.6
			c-0.5,0-0.9,0.2-1.2,0.6c-0.3,0.4-0.5,0.9-0.5,1.5c0,0.6,0.2,1.1,0.5,1.5c0.3,0.4,0.7,0.6,1.2,0.6C845.6,11.9,846,11.7,846.4,11.4
			z M852.2,7.2h1.1l-8.1,10.8h-1.1L852.2,7.2z M850.8,17.7c-0.4-0.2-0.7-0.6-0.9-1s-0.3-0.9-0.3-1.5c0-0.6,0.1-1,0.3-1.5
			s0.5-0.8,0.9-1c0.4-0.2,0.9-0.4,1.4-0.4c0.5,0,1,0.1,1.4,0.4c0.4,0.2,0.7,0.6,1,1c0.2,0.4,0.3,0.9,0.3,1.5c0,0.6-0.1,1.1-0.3,1.5
			c-0.2,0.4-0.5,0.8-1,1s-0.9,0.4-1.4,0.4C851.7,18.1,851.2,18,850.8,17.7z M853.4,16.7c0.3-0.4,0.5-0.9,0.5-1.5
			c0-0.6-0.2-1.1-0.5-1.5c-0.3-0.4-0.7-0.6-1.2-0.6c-0.5,0-0.9,0.2-1.2,0.6c-0.3,0.4-0.5,0.9-0.5,1.5c0,0.6,0.2,1.1,0.5,1.5
			c0.3,0.4,0.7,0.6,1.2,0.6C852.7,17.3,853.1,17.1,853.4,16.7z"/>
		<path class="st1" d="M862.8,17.4c-0.8-0.5-1.5-1.1-1.9-2s-0.7-1.8-0.7-2.9s0.2-2,0.7-2.9s1.1-1.5,1.9-2c0.8-0.5,1.7-0.7,2.8-0.7
			c1,0,2,0.2,2.8,0.7c0.8,0.5,1.4,1.1,1.9,2s0.7,1.8,0.7,2.9s-0.2,2-0.7,2.9s-1.1,1.5-1.9,2c-0.8,0.5-1.7,0.7-2.8,0.7
			C864.5,18.1,863.6,17.9,862.8,17.4z M867.6,16.5c0.6-0.4,1.1-0.9,1.4-1.6c0.3-0.7,0.5-1.5,0.5-2.3s-0.2-1.6-0.5-2.3
			c-0.3-0.7-0.8-1.2-1.4-1.6C867,8.2,866.3,8,865.6,8c-0.8,0-1.5,0.2-2.1,0.6s-1.1,0.9-1.4,1.6c-0.3,0.7-0.5,1.5-0.5,2.3
			s0.2,1.7,0.5,2.3c0.3,0.7,0.8,1.2,1.4,1.6s1.3,0.6,2.1,0.6C866.3,17,867,16.8,867.6,16.5z"/>
		<path class="st1" d="M873.3,7.2h6.9v1h-5.6v4.1h5v1h-5v4.6h-1.3V7.2z"/>
		<path class="st1" d="M888.2,17.4c-0.8-0.5-1.4-1.1-1.9-2c-0.4-0.8-0.7-1.8-0.7-2.9s0.2-2,0.7-2.9c0.4-0.8,1.1-1.5,1.9-2
			c0.8-0.5,1.7-0.7,2.8-0.7c0.6,0,1.2,0.1,1.9,0.3c0.6,0.2,1.2,0.5,1.8,0.9L894,9c-0.9-0.7-1.9-1-2.9-1c-0.8,0-1.5,0.2-2.1,0.6
			c-0.6,0.4-1.1,0.9-1.4,1.6c-0.3,0.7-0.5,1.5-0.5,2.3s0.2,1.7,0.5,2.3s0.8,1.2,1.4,1.6c0.6,0.4,1.3,0.6,2.1,0.6c1,0,2-0.3,2.9-1
			l0.6,0.9c-0.6,0.4-1.2,0.7-1.8,0.9c-0.6,0.2-1.2,0.3-1.9,0.3C889.9,18.1,889,17.9,888.2,17.4z"/>
		<path class="st1" d="M898.9,17.6c-0.7-0.4-1.3-0.9-1.7-1.5c-0.4-0.7-0.6-1.4-0.6-2.2V7.2h1.3v6.6c0,0.6,0.1,1.2,0.4,1.7
			s0.7,0.9,1.2,1.2s1.1,0.4,1.7,0.4c0.6,0,1.2-0.1,1.7-0.4s0.9-0.7,1.2-1.2s0.4-1.1,0.4-1.7V7.2h1.3v6.6c0,0.8-0.2,1.6-0.6,2.2
			c-0.4,0.7-1,1.2-1.7,1.5c-0.7,0.4-1.5,0.5-2.4,0.5S899.6,17.9,898.9,17.6z"/>
		<path class="st1" d="M909.1,7.2h4.1c0.7,0,1.3,0.1,1.8,0.4c0.5,0.3,0.9,0.7,1.2,1.1c0.3,0.5,0.4,1,0.4,1.7c0,0.8-0.2,1.5-0.7,2.1
			c-0.5,0.6-1.1,0.9-2,1l3.1,4.5h-1.5l-3-4.3h-2.3v4.3h-1.3V7.2z M913,12.6c0.7,0,1.3-0.2,1.7-0.6s0.7-0.9,0.7-1.6s-0.2-1.2-0.7-1.6
			c-0.4-0.4-1-0.6-1.7-0.6h-2.6v4.4H913z"/>
		<path class="st1" d="M919.5,7.2h4.1c0.7,0,1.3,0.1,1.8,0.4c0.5,0.3,0.9,0.7,1.2,1.1c0.3,0.5,0.4,1,0.4,1.7c0,0.8-0.2,1.5-0.7,2.1
			c-0.5,0.6-1.1,0.9-2,1l3.1,4.5H926l-3-4.3h-2.3v4.3h-1.3V7.2z M923.4,12.6c0.7,0,1.3-0.2,1.7-0.6s0.7-0.9,0.7-1.6
			s-0.2-1.2-0.7-1.6c-0.4-0.4-1-0.6-1.7-0.6h-2.6v4.4H923.4z"/>
		<path class="st1" d="M929.9,7.2h6.9v1h-5.6v3.7h5v1h-5v4h5.8v1h-7.1V7.2z"/>
		<path class="st1" d="M939.5,7.2h1.3l6.5,8.9V7.2h1.2v10.8h-1.3L940.7,9v8.9h-1.2V7.2z"/>
		<path class="st1" d="M954.3,8.2h-3.7v-1h8.7v1h-3.7v9.7h-1.3V8.2z"/>
		<path class="st1" d="M816.1,26.4h1.3l3.9,5.4l4-5.4h1.3v10.8h-1.2v-8.9l-3.6,4.9h-0.8l-3.6-4.9v8.9h-1.2V26.4z"/>
		<path class="st1" d="M831.5,36.6c-0.8-0.5-1.5-1.1-1.9-2s-0.7-1.8-0.7-2.9s0.2-2,0.7-2.9s1.1-1.5,1.9-2c0.8-0.5,1.7-0.7,2.8-0.7
			c1,0,2,0.2,2.8,0.7c0.8,0.5,1.4,1.1,1.9,2s0.7,1.8,0.7,2.9s-0.2,2-0.7,2.9s-1.1,1.5-1.9,2c-0.8,0.5-1.7,0.7-2.8,0.7
			C833.3,37.3,832.4,37.1,831.5,36.6z M836.4,35.7c0.6-0.4,1.1-0.9,1.4-1.6c0.3-0.7,0.5-1.5,0.5-2.3s-0.2-1.6-0.5-2.3
			c-0.3-0.7-0.8-1.2-1.4-1.6c-0.6-0.4-1.3-0.6-2.1-0.6c-0.8,0-1.5,0.2-2.1,0.6s-1.1,0.9-1.4,1.6c-0.3,0.7-0.5,1.5-0.5,2.3
			s0.2,1.7,0.5,2.3c0.3,0.7,0.8,1.2,1.4,1.6s1.3,0.6,2.1,0.6C835.1,36.2,835.8,36,836.4,35.7z"/>
		<path class="st1" d="M842,26.4h1.3l6.5,8.9v-8.9h1.2v10.8h-1.3l-6.5-8.9v8.9H842V26.4z"/>
		<path class="st1" d="M856.8,27.4h-3.7v-1h8.7v1h-3.7v9.7h-1.3V27.4z"/>
		<path class="st1" d="M863.9,26.4h1.3v4.7h6.4v-4.7h1.3v10.8h-1.3v-5h-6.4v5h-1.3V26.4z"/>
		<path class="st1" d="M876.2,26.4h1.3v9.7h5.2v1h-6.5V26.4z"/>
		<path class="st1" d="M885.4,32.5l-3.9-6.2h1.5l3.2,5l3.1-5h1.5l-4,6.2v4.6h-1.3V32.5z"/>
		<path class="st1" d="M896.1,26.4h4c0.7,0,1.3,0.1,1.9,0.4s1,0.7,1.3,1.2c0.3,0.5,0.5,1.1,0.5,1.7s-0.2,1.2-0.5,1.7
			c-0.3,0.5-0.7,0.9-1.3,1.2s-1.2,0.4-1.9,0.4h-2.8v4h-1.3V26.4z M899.9,32.1c0.7,0,1.3-0.2,1.8-0.6c0.5-0.4,0.7-1,0.7-1.7
			s-0.2-1.2-0.7-1.7c-0.5-0.4-1.1-0.7-1.8-0.7h-2.6v4.7H899.9z"/>
		<path class="st1" d="M908.1,26.4h1.2l4.4,10.8h-1.3l-1.2-2.9h-5l-1.2,2.9h-1.3L908.1,26.4z M910.9,33.2l-2.1-5.3l-2.1,5.3H910.9z"
			/>
		<path class="st1" d="M917,32.5l-3.9-6.2h1.5l3.2,5l3.1-5h1.5l-4,6.2v4.6H917V32.5z"/>
	</g>
	<g>
		<path class="st0" d="M816.1,90.8h4.1c0.7,0,1.3,0.1,1.8,0.4c0.5,0.3,0.9,0.7,1.2,1.1c0.3,0.5,0.4,1,0.4,1.7c0,0.8-0.2,1.5-0.7,2.1
			c-0.5,0.6-1.1,0.9-2,1l3.1,4.5h-1.5l-3-4.3h-2.3v4.3h-1.3V90.8z M820,96.3c0.7,0,1.3-0.2,1.7-0.6s0.7-0.9,0.7-1.6
			s-0.2-1.2-0.7-1.6c-0.4-0.4-1-0.6-1.7-0.6h-2.6v4.4H820z"/>
		<path class="st0" d="M826.5,90.8h6.9v1h-5.6v3.7h5v1h-5v4h5.8v1h-7.1V90.8z"/>
		<path class="st0" d="M837.8,101.1c-0.8-0.5-1.4-1.1-1.9-2c-0.4-0.8-0.7-1.8-0.7-2.9s0.2-2,0.7-2.9c0.4-0.8,1.1-1.5,1.9-2
			c0.8-0.5,1.7-0.7,2.8-0.7c0.6,0,1.2,0.1,1.9,0.3c0.6,0.2,1.2,0.5,1.8,0.9l-0.6,0.9c-0.9-0.7-1.9-1-2.9-1c-0.8,0-1.5,0.2-2.1,0.6
			c-0.6,0.4-1.1,0.9-1.4,1.6c-0.3,0.7-0.5,1.5-0.5,2.3s0.2,1.7,0.5,2.3s0.8,1.2,1.4,1.6c0.6,0.4,1.3,0.6,2.1,0.6c1,0,2-0.3,2.9-1
			l0.6,0.9c-0.6,0.4-1.2,0.7-1.8,0.9c-0.6,0.2-1.2,0.3-1.9,0.3C839.5,101.8,838.6,101.6,837.8,101.1z"/>
		<path class="st0" d="M847.9,101.1c-0.8-0.5-1.5-1.1-1.9-2s-0.7-1.8-0.7-2.9s0.2-2,0.7-2.9s1.1-1.5,1.9-2c0.8-0.5,1.7-0.7,2.8-0.7
			c1,0,2,0.2,2.8,0.7c0.8,0.5,1.4,1.1,1.9,2s0.7,1.8,0.7,2.9s-0.2,2-0.7,2.9s-1.1,1.5-1.9,2c-0.8,0.5-1.7,0.7-2.8,0.7
			C849.7,101.8,848.8,101.6,847.9,101.1z M852.8,100.1c0.6-0.4,1.1-0.9,1.4-1.6c0.3-0.7,0.5-1.5,0.5-2.3s-0.2-1.6-0.5-2.3
			c-0.3-0.7-0.8-1.2-1.4-1.6c-0.6-0.4-1.3-0.6-2.1-0.6c-0.8,0-1.5,0.2-2.1,0.6s-1.1,0.9-1.4,1.6c-0.3,0.7-0.5,1.5-0.5,2.3
			s0.2,1.7,0.5,2.3c0.3,0.7,0.8,1.2,1.4,1.6s1.3,0.6,2.1,0.6C851.5,100.7,852.2,100.5,852.8,100.1z"/>
		<path class="st0" d="M858.4,90.8h1.3l3.9,5.4l4-5.4h1.3v10.8h-1.2v-8.9l-3.6,4.9h-0.8l-3.6-4.9v8.9h-1.2V90.8z"/>
		<path class="st0" d="M872.1,90.8h1.3l3.9,5.4l4-5.4h1.3v10.8h-1.2v-8.9l-3.6,4.9H877l-3.6-4.9v8.9h-1.2V90.8z"/>
		<path class="st0" d="M885.8,90.8h6.9v1h-5.6v3.7h5v1h-5v4h5.8v1h-7.1V90.8z"/>
		<path class="st0" d="M895.4,90.8h1.3l6.5,8.9v-8.9h1.2v10.8h-1.3l-6.5-8.9v8.9h-1.2V90.8z"/>
		<path class="st0" d="M907.6,90.8h3.6c1.1,0,2,0.2,2.9,0.7s1.5,1.1,1.9,1.9c0.5,0.8,0.7,1.8,0.7,2.8c0,1-0.2,2-0.7,2.8
			c-0.5,0.8-1.1,1.5-1.9,1.9s-1.8,0.7-2.9,0.7h-3.6V90.8z M911.1,100.6c0.8,0,1.6-0.2,2.2-0.6c0.6-0.4,1.1-0.9,1.5-1.5
			s0.5-1.4,0.5-2.2s-0.2-1.6-0.5-2.2s-0.9-1.2-1.5-1.5c-0.6-0.4-1.4-0.6-2.2-0.6H909v8.7H911.1z"/>
		<path class="st0" d="M919.1,90.8h6.9v1h-5.6v3.7h5v1h-5v4h5.8v1h-7.1V90.8z"/>
		<path class="st0" d="M928.7,90.8h3.6c1.1,0,2,0.2,2.9,0.7s1.5,1.1,1.9,1.9c0.5,0.8,0.7,1.8,0.7,2.8c0,1-0.2,2-0.7,2.8
			c-0.5,0.8-1.1,1.5-1.9,1.9s-1.8,0.7-2.9,0.7h-3.6V90.8z M932.2,100.6c0.8,0,1.6-0.2,2.2-0.6c0.6-0.4,1.1-0.9,1.5-1.5
			s0.5-1.4,0.5-2.2s-0.2-1.6-0.5-2.2s-0.9-1.2-1.5-1.5c-0.6-0.4-1.4-0.6-2.2-0.6H930v8.7H932.2z"/>
		<path class="st0" d="M945.9,101.1c-0.8-0.5-1.5-1.1-2-2c-0.5-0.8-0.7-1.8-0.7-2.9s0.2-2,0.7-2.9c0.5-0.8,1.1-1.5,1.9-2
			c0.8-0.5,1.8-0.7,2.8-0.7c1.2,0,2.5,0.4,3.8,1.1l-0.5,0.9c-1.1-0.6-2.2-0.9-3.1-0.9c-0.8,0-1.6,0.2-2.2,0.6s-1.1,0.9-1.5,1.6
			c-0.4,0.7-0.5,1.5-0.5,2.3s0.2,1.7,0.6,2.3c0.4,0.7,0.9,1.2,1.5,1.6c0.7,0.4,1.4,0.6,2.2,0.6c0.9,0,1.7-0.2,2.5-0.5V97h-2.7v-1
			h3.9v4.9c-1.3,0.6-2.5,0.9-3.8,0.9C947.7,101.8,946.8,101.6,945.9,101.1z"/>
		<path class="st0" d="M957.1,101.1c-0.8-0.5-1.5-1.1-1.9-2s-0.7-1.8-0.7-2.9s0.2-2,0.7-2.9s1.1-1.5,1.9-2c0.8-0.5,1.7-0.7,2.8-0.7
			c1,0,2,0.2,2.8,0.7c0.8,0.5,1.4,1.1,1.9,2s0.7,1.8,0.7,2.9s-0.2,2-0.7,2.9s-1.1,1.5-1.9,2c-0.8,0.5-1.7,0.7-2.8,0.7
			C958.8,101.8,957.9,101.6,957.1,101.1z M961.9,100.1c0.6-0.4,1.1-0.9,1.4-1.6c0.3-0.7,0.5-1.5,0.5-2.3s-0.2-1.6-0.5-2.3
			c-0.3-0.7-0.8-1.2-1.4-1.6c-0.6-0.4-1.3-0.6-2.1-0.6c-0.8,0-1.5,0.2-2.1,0.6s-1.1,0.9-1.4,1.6c-0.3,0.7-0.5,1.5-0.5,2.3
			s0.2,1.7,0.5,2.3c0.3,0.7,0.8,1.2,1.4,1.6s1.3,0.6,2.1,0.6C960.6,100.7,961.3,100.5,961.9,100.1z"/>
		<path class="st0" d="M970.5,90.8h1.2l4.4,10.8h-1.3l-1.2-2.9h-5l-1.2,2.9H966L970.5,90.8z M973.2,97.6l-2.1-5.3l-2.1,5.3H973.2z"
			/>
		<path class="st0" d="M978.1,90.8h1.3v9.7h5.2v1h-6.5V90.8z"/>
		<path class="st1" d="M820.1,111.1h-5.4v-1h6.8v0.8l-4.3,9.9h-1.3L820.1,111.1z"/>
		<path class="st1" d="M825.1,120.3c-0.6-0.5-1.1-1.1-1.5-1.9c-0.3-0.8-0.5-1.8-0.5-2.9s0.2-2.1,0.5-2.9c0.3-0.8,0.8-1.5,1.5-1.9
			c0.6-0.5,1.4-0.7,2.2-0.7s1.6,0.2,2.2,0.7c0.6,0.5,1.1,1.1,1.5,1.9c0.3,0.8,0.5,1.8,0.5,2.9s-0.2,2.1-0.5,2.9
			c-0.3,0.8-0.8,1.5-1.5,1.9c-0.6,0.5-1.4,0.7-2.2,0.7S825.8,120.8,825.1,120.3z M828.8,119.4c0.4-0.4,0.8-0.9,1-1.6
			c0.2-0.7,0.4-1.5,0.4-2.4c0-1.4-0.3-2.5-0.8-3.3c-0.5-0.8-1.2-1.2-2.1-1.2s-1.6,0.4-2.1,1.2s-0.8,1.9-0.8,3.3
			c0,0.9,0.1,1.7,0.4,2.4s0.6,1.2,1,1.6c0.4,0.4,0.9,0.6,1.5,0.6S828.4,119.8,828.8,119.4z"/>
		<path class="st1" d="M834.5,115.2c-0.4-0.2-0.7-0.6-1-1s-0.3-0.9-0.3-1.5c0-0.6,0.1-1,0.3-1.5s0.5-0.8,1-1
			c0.4-0.2,0.9-0.4,1.4-0.4s1,0.1,1.4,0.4c0.4,0.2,0.7,0.6,0.9,1c0.2,0.4,0.3,0.9,0.3,1.5c0,0.6-0.1,1.1-0.3,1.5
			c-0.2,0.4-0.5,0.8-0.9,1s-0.9,0.4-1.4,0.4S834.9,115.5,834.5,115.2z M837.1,114.2c0.3-0.4,0.5-0.9,0.5-1.5c0-0.6-0.2-1.1-0.5-1.5
			c-0.3-0.4-0.7-0.6-1.2-0.6c-0.5,0-0.9,0.2-1.2,0.6c-0.3,0.4-0.5,0.9-0.5,1.5c0,0.6,0.2,1.1,0.5,1.5c0.3,0.4,0.7,0.6,1.2,0.6
			C836.4,114.8,836.8,114.6,837.1,114.2z M843,110h1.1l-8.1,10.8h-1.1L843,110z M841.6,120.6c-0.4-0.2-0.7-0.6-0.9-1
			s-0.3-0.9-0.3-1.5c0-0.6,0.1-1,0.3-1.5s0.5-0.8,0.9-1c0.4-0.2,0.9-0.4,1.4-0.4c0.5,0,1,0.1,1.4,0.4c0.4,0.2,0.7,0.6,1,1
			c0.2,0.4,0.3,0.9,0.3,1.5c0,0.6-0.1,1.1-0.3,1.5c-0.2,0.4-0.5,0.8-1,1s-0.9,0.4-1.4,0.4C842.5,121,842,120.9,841.6,120.6z
			 M844.2,119.6c0.3-0.4,0.5-0.9,0.5-1.5c0-0.6-0.2-1.1-0.5-1.5c-0.3-0.4-0.7-0.6-1.2-0.6c-0.5,0-0.9,0.2-1.2,0.6
			c-0.3,0.4-0.5,0.9-0.5,1.5c0,0.6,0.2,1.1,0.5,1.5c0.3,0.4,0.7,0.6,1.2,0.6C843.5,120.2,843.9,120,844.2,119.6z"/>
		<path class="st1" d="M853.6,120.3c-0.8-0.5-1.5-1.1-1.9-2s-0.7-1.8-0.7-2.9s0.2-2,0.7-2.9s1.1-1.5,1.9-2c0.8-0.5,1.7-0.7,2.8-0.7
			c1,0,2,0.2,2.8,0.7c0.8,0.5,1.4,1.1,1.9,2s0.7,1.8,0.7,2.9s-0.2,2-0.7,2.9s-1.1,1.5-1.9,2c-0.8,0.5-1.7,0.7-2.8,0.7
			C855.3,121,854.4,120.8,853.6,120.3z M858.4,119.3c0.6-0.4,1.1-0.9,1.4-1.6c0.3-0.7,0.5-1.5,0.5-2.3s-0.2-1.6-0.5-2.3
			c-0.3-0.7-0.8-1.2-1.4-1.6c-0.6-0.4-1.3-0.6-2.1-0.6c-0.8,0-1.5,0.2-2.1,0.6s-1.1,0.9-1.4,1.6c-0.3,0.7-0.5,1.5-0.5,2.3
			s0.2,1.7,0.5,2.3c0.3,0.7,0.8,1.2,1.4,1.6s1.3,0.6,2.1,0.6C857.1,119.9,857.8,119.7,858.4,119.3z"/>
		<path class="st1" d="M864.1,110h6.9v1h-5.6v4.1h5v1h-5v4.6h-1.3V110z"/>
		<path class="st1" d="M879,120.3c-0.8-0.5-1.4-1.1-1.9-2c-0.4-0.8-0.7-1.8-0.7-2.9s0.2-2,0.7-2.9c0.4-0.8,1.1-1.5,1.9-2
			c0.8-0.5,1.7-0.7,2.8-0.7c0.6,0,1.2,0.1,1.9,0.3c0.6,0.2,1.2,0.5,1.8,0.9l-0.6,0.9c-0.9-0.7-1.9-1-2.9-1c-0.8,0-1.5,0.2-2.1,0.6
			c-0.6,0.4-1.1,0.9-1.4,1.6c-0.3,0.7-0.5,1.5-0.5,2.3s0.2,1.7,0.5,2.3s0.8,1.2,1.4,1.6c0.6,0.4,1.3,0.6,2.1,0.6c1,0,2-0.3,2.9-1
			l0.6,0.9c-0.6,0.4-1.2,0.7-1.8,0.9c-0.6,0.2-1.2,0.3-1.9,0.3C880.7,121,879.8,120.8,879,120.3z"/>
		<path class="st1" d="M889.7,120.4c-0.7-0.4-1.3-0.9-1.7-1.5c-0.4-0.7-0.6-1.4-0.6-2.2V110h1.3v6.6c0,0.6,0.1,1.2,0.4,1.7
			s0.7,0.9,1.2,1.2s1.1,0.4,1.7,0.4c0.6,0,1.2-0.1,1.7-0.4s0.9-0.7,1.2-1.2s0.4-1.1,0.4-1.7V110h1.3v6.6c0,0.8-0.2,1.6-0.6,2.2
			c-0.4,0.7-1,1.2-1.7,1.5c-0.7,0.4-1.5,0.5-2.4,0.5S890.4,120.8,889.7,120.4z"/>
		<path class="st1" d="M899.8,110h4.1c0.7,0,1.3,0.1,1.8,0.4c0.5,0.3,0.9,0.7,1.2,1.1c0.3,0.5,0.4,1,0.4,1.7c0,0.8-0.2,1.5-0.7,2.1
			c-0.5,0.6-1.1,0.9-2,1l3.1,4.5h-1.5l-3-4.3h-2.3v4.3h-1.3V110z M903.7,115.5c0.7,0,1.3-0.2,1.7-0.6s0.7-0.9,0.7-1.6
			s-0.2-1.2-0.7-1.6c-0.4-0.4-1-0.6-1.7-0.6h-2.6v4.4H903.7z"/>
		<path class="st1" d="M910.3,110h4.1c0.7,0,1.3,0.1,1.8,0.4c0.5,0.3,0.9,0.7,1.2,1.1c0.3,0.5,0.4,1,0.4,1.7c0,0.8-0.2,1.5-0.7,2.1
			c-0.5,0.6-1.1,0.9-2,1l3.1,4.5h-1.5l-3-4.3h-2.3v4.3h-1.3V110z M914.2,115.5c0.7,0,1.3-0.2,1.7-0.6s0.7-0.9,0.7-1.6
			s-0.2-1.2-0.7-1.6c-0.4-0.4-1-0.6-1.7-0.6h-2.6v4.4H914.2z"/>
		<path class="st1" d="M920.7,110h6.9v1H922v3.7h5v1h-5v4h5.8v1h-7.1V110z"/>
		<path class="st1" d="M930.3,110h1.3l6.5,8.9V110h1.2v10.8H938l-6.5-8.9v8.9h-1.2V110z"/>
		<path class="st1" d="M945.1,111.1h-3.7v-1h8.7v1h-3.7v9.7h-1.3V111.1z"/>
		<path class="st1" d="M816.1,129.2h1.3l3.9,5.4l4-5.4h1.3V140h-1.2v-8.9l-3.6,4.9h-0.8l-3.6-4.9v8.9h-1.2V129.2z"/>
		<path class="st1" d="M831.5,139.5c-0.8-0.5-1.5-1.1-1.9-2s-0.7-1.8-0.7-2.9s0.2-2,0.7-2.9s1.1-1.5,1.9-2c0.8-0.5,1.7-0.7,2.8-0.7
			c1,0,2,0.2,2.8,0.7c0.8,0.5,1.4,1.1,1.9,2s0.7,1.8,0.7,2.9s-0.2,2-0.7,2.9s-1.1,1.5-1.9,2c-0.8,0.5-1.7,0.7-2.8,0.7
			C833.3,140.2,832.4,140,831.5,139.5z M836.4,138.5c0.6-0.4,1.1-0.9,1.4-1.6c0.3-0.7,0.5-1.5,0.5-2.3s-0.2-1.6-0.5-2.3
			c-0.3-0.7-0.8-1.2-1.4-1.6c-0.6-0.4-1.3-0.6-2.1-0.6c-0.8,0-1.5,0.2-2.1,0.6s-1.1,0.9-1.4,1.6c-0.3,0.7-0.5,1.5-0.5,2.3
			s0.2,1.7,0.5,2.3c0.3,0.7,0.8,1.2,1.4,1.6s1.3,0.6,2.1,0.6C835.1,139.1,835.8,138.9,836.4,138.5z"/>
		<path class="st1" d="M842,129.2h1.3l6.5,8.9v-8.9h1.2V140h-1.3l-6.5-8.9v8.9H842V129.2z"/>
		<path class="st1" d="M856.8,130.3h-3.7v-1h8.7v1h-3.7v9.7h-1.3V130.3z"/>
		<path class="st1" d="M863.9,129.2h1.3v4.7h6.4v-4.7h1.3V140h-1.3v-5h-6.4v5h-1.3V129.2z"/>
		<path class="st1" d="M876.2,129.2h1.3v9.7h5.2v1h-6.5V129.2z"/>
		<path class="st1" d="M885.4,135.4l-3.9-6.2h1.5l3.2,5l3.1-5h1.5l-4,6.2v4.6h-1.3V135.4z"/>
		<path class="st1" d="M896.1,129.2h4c0.7,0,1.3,0.1,1.9,0.4s1,0.7,1.3,1.2c0.3,0.5,0.5,1.1,0.5,1.7s-0.2,1.2-0.5,1.7
			c-0.3,0.5-0.7,0.9-1.3,1.2s-1.2,0.4-1.9,0.4h-2.8v4h-1.3V129.2z M899.9,134.9c0.7,0,1.3-0.2,1.8-0.6c0.5-0.4,0.7-1,0.7-1.7
			s-0.2-1.2-0.7-1.7c-0.5-0.4-1.1-0.7-1.8-0.7h-2.6v4.7H899.9z"/>
		<path class="st1" d="M908.1,129.2h1.2l4.4,10.8h-1.3l-1.2-2.9h-5L905,140h-1.3L908.1,129.2z M910.9,136l-2.1-5.3l-2.1,5.3H910.9z"
			/>
		<path class="st1" d="M917,135.4l-3.9-6.2h1.5l3.2,5l3.1-5h1.5l-4,6.2v4.6H917V135.4z"/>
	</g>
	<g>
		<g>
			
				<rect x="531.3" y="36.7" transform="matrix(1 -3.906220e-03 3.906220e-03 1 -0.1392 2.5761)" class="st2" width="256.2" height="0.5"/>
			
				<rect x="531.3" y="69.3" transform="matrix(1 -3.906220e-03 3.906220e-03 1 -0.2667 2.5764)" class="st2" width="256.2" height="0.5"/>
			
				<rect x="531.3" y="101.9" transform="matrix(1 -3.906220e-03 3.906220e-03 1 -0.3942 2.5766)" class="st2" width="256.2" height="0.5"/>
			
				<rect x="531.3" y="52.3" transform="matrix(1 -3.906220e-03 3.906220e-03 1 -0.2002 2.5762)" class="st2" width="256.2" height="0.5"/>
			
				<rect x="531.3" y="84.9" transform="matrix(1 -3.906220e-03 3.906220e-03 1 -0.3277 2.5765)" class="st2" width="256.2" height="0.5"/>
			
				<rect x="531.3" y="134.6" transform="matrix(1 -3.906220e-03 3.906220e-03 1 -0.5216 2.5769)" class="st2" width="256.2" height="0.5"/>
		</g>
		<g>
			
				<rect x="531.3" y="150.4" transform="matrix(1 -3.906220e-03 3.906220e-03 1 -0.5832 2.577)" class="st2" width="256.2" height="0.5"/>
			
				<rect x="531.3" y="183" transform="matrix(1 -3.906220e-03 3.906220e-03 1 -0.7107 2.5772)" class="st2" width="256.2" height="0.5"/>
			
				<rect x="531.3" y="215.6" transform="matrix(1 -3.906220e-03 3.906220e-03 1 -0.8382 2.5775)" class="st2" width="256.2" height="0.5"/>
			
				<rect x="531.3" y="166" transform="matrix(1 -3.906220e-03 3.906220e-03 1 -0.6442 2.5771)" class="st2" width="256.2" height="0.5"/>
			
				<rect x="531.3" y="198.6" transform="matrix(1 -3.906220e-03 3.906220e-03 1 -0.7717 2.5774)" class="st2" width="256.2" height="0.5"/>
			
				<rect x="531.3" y="231.2" transform="matrix(1 -3.906220e-03 3.906220e-03 1 -0.8992 2.5776)" class="st2" width="256.2" height="0.5"/>
			
				<rect x="531.3" y="248.2" transform="matrix(1 -3.906220e-03 3.906220e-03 1 -0.9656 2.5777)" class="st2" width="256.2" height="0.5"/>
		</g>
	</g>
	<rect x="578.5" y="174.4" class="st3" width="159.9" height="88.7"/>
	<g>
		<rect x="531.3" y="21.3" class="st2" width="256.2" height="2"/>
		<path class="st4" d="M754.3,118.8"/>
		<path class="st4" d="M531.3,117.5"/>
		<rect x="531.3" y="263.1" class="st2" width="256.2" height="2"/>
	</g>
	<rect x="531.3" y="116.7" class="st0" width="256.2" height="2"/>
</g>
<g>
	<path class="st1" d="M90.4,356.4h5.9c1,0,1.8,0.2,2.6,0.6c0.8,0.4,1.3,0.9,1.8,1.6s0.6,1.5,0.6,2.4c0,1.2-0.4,2.2-1.1,3
		s-1.7,1.3-2.8,1.4l4.5,6.4h-2.1l-4.3-6.1h-3.3v6.1h-1.8V356.4z M96,364.2c1,0,1.8-0.3,2.5-0.9c0.6-0.6,0.9-1.3,0.9-2.3
		c0-0.9-0.3-1.7-1-2.3c-0.6-0.6-1.5-0.9-2.4-0.9h-3.8v6.3H96z"/>
	<path class="st1" d="M106.5,371.4c-0.9-0.5-1.6-1.2-2.1-2.1c-0.5-0.9-0.7-1.9-0.7-3s0.2-2.1,0.7-3c0.5-0.9,1.1-1.6,1.9-2.1
		c0.8-0.5,1.8-0.7,2.8-0.7c1,0,1.9,0.2,2.6,0.7c0.8,0.5,1.4,1.1,1.8,2c0.4,0.9,0.6,1.8,0.6,2.9c0,0.3,0,0.5,0,0.7h-8.6
		c0.1,1.2,0.5,2.2,1.3,2.9c0.8,0.7,1.7,1.1,2.9,1.1c1.1,0,2.2-0.3,3.4-0.9l0.6,1.3c-1.4,0.7-2.8,1.1-4.1,1.1
		C108.4,372.2,107.4,371.9,106.5,371.4z M112.5,365.6c0-1.1-0.4-2-1-2.7c-0.6-0.7-1.4-1-2.3-1c-1,0-1.8,0.3-2.5,1s-1,1.6-1.1,2.7
		H112.5z"/>
	<path class="st1" d="M118.6,371.3c-0.6-0.6-0.9-1.4-0.9-2.4v-6.7h-2.3v-1.4h2.3v-3.3h1.8v3.3h3.5v1.4h-3.5v6.6
		c0,0.6,0.2,1.1,0.5,1.4s0.8,0.5,1.4,0.5c0.4,0,0.9-0.1,1.5-0.2l0.3,1.4c-0.8,0.2-1.5,0.3-2.1,0.3
		C120.1,372.2,119.3,371.9,118.6,371.3z"/>
	<path class="st1" d="M125.8,358.2c-0.2-0.2-0.3-0.5-0.3-0.9s0.1-0.6,0.3-0.9c0.2-0.2,0.5-0.3,0.9-0.3c0.4,0,0.6,0.1,0.9,0.3
		c0.2,0.2,0.3,0.5,0.3,0.9s-0.1,0.6-0.3,0.9c-0.2,0.2-0.5,0.3-0.9,0.3C126.4,358.5,126.1,358.4,125.8,358.2z M125.8,360.7h1.8v11.2
		h-1.8V360.7z"/>
	<path class="st1" d="M131.3,360.7h1.5l0.2,2.1c0.3-0.7,0.7-1.3,1.3-1.7c0.6-0.4,1.3-0.6,2.1-0.6c0.4,0,0.9,0.1,1.4,0.2l-0.2,1.5
		c-0.5-0.1-1-0.2-1.3-0.2c-1,0-1.7,0.4-2.3,1.1c-0.6,0.7-0.9,1.6-0.9,2.7v6h-1.8V360.7z"/>
	<path class="st1" d="M141.8,371.4c-0.9-0.5-1.6-1.2-2.1-2.1s-0.7-1.9-0.7-3s0.2-2.1,0.7-3c0.5-0.9,1.1-1.6,1.9-2.1
		c0.8-0.5,1.8-0.7,2.8-0.7c1,0,1.9,0.2,2.6,0.7c0.8,0.5,1.4,1.1,1.8,2c0.4,0.9,0.6,1.8,0.6,2.9c0,0.3,0,0.5,0,0.7h-8.6
		c0.1,1.2,0.5,2.2,1.3,2.9c0.8,0.7,1.7,1.1,2.9,1.1c1.1,0,2.2-0.3,3.4-0.9l0.6,1.3c-1.4,0.7-2.8,1.1-4.1,1.1
		C143.7,372.2,142.7,371.9,141.8,371.4z M147.7,365.6c0-1.1-0.4-2-1-2.7c-0.6-0.7-1.4-1-2.3-1c-1,0-1.8,0.3-2.5,1
		c-0.7,0.7-1,1.6-1.1,2.7H147.7z"/>
	<path class="st1" d="M152.2,360.7h1.5l0.2,2c0.4-0.7,0.9-1.3,1.6-1.7c0.7-0.4,1.4-0.6,2.3-0.6c0.9,0,1.6,0.2,2.3,0.7
		c0.7,0.4,1.1,1,1.4,1.8c0.4-0.8,1-1.4,1.7-1.8c0.7-0.4,1.5-0.6,2.4-0.6c0.8,0,1.5,0.2,2.1,0.5c0.6,0.3,1.1,0.8,1.4,1.4
		c0.3,0.6,0.5,1.3,0.5,2.1v7.5h-1.8v-7.2c0-0.8-0.3-1.4-0.8-2s-1.2-0.8-2-0.8c-0.9,0-1.7,0.3-2.3,1c-0.6,0.6-0.9,1.5-0.9,2.5v6.5
		h-1.8v-7.2c0-0.8-0.3-1.4-0.8-2s-1.2-0.8-2-0.8c-0.9,0-1.7,0.3-2.3,1c-0.6,0.6-0.9,1.5-0.9,2.5v6.5h-1.8V360.7z"/>
	<path class="st1" d="M175,371.4c-0.9-0.5-1.6-1.2-2.1-2.1c-0.5-0.9-0.7-1.9-0.7-3s0.2-2.1,0.7-3c0.5-0.9,1.1-1.6,1.9-2.1
		c0.8-0.5,1.8-0.7,2.8-0.7c1,0,1.9,0.2,2.6,0.7c0.8,0.5,1.4,1.1,1.8,2c0.4,0.9,0.6,1.8,0.6,2.9c0,0.3,0,0.5,0,0.7H174
		c0.1,1.2,0.5,2.2,1.3,2.9c0.8,0.7,1.7,1.1,2.9,1.1c1.1,0,2.2-0.3,3.4-0.9l0.6,1.3c-1.4,0.7-2.8,1.1-4.1,1.1
		C176.9,372.2,175.9,371.9,175,371.4z M180.9,365.6c0-1.1-0.4-2-1-2.7c-0.6-0.7-1.4-1-2.3-1c-1,0-1.8,0.3-2.5,1s-1,1.6-1.1,2.7
		H180.9z"/>
	<path class="st1" d="M185.3,360.7h1.5l0.2,2c0.4-0.7,0.9-1.3,1.6-1.7s1.5-0.6,2.4-0.6c0.8,0,1.5,0.2,2.2,0.5
		c0.7,0.4,1.2,0.8,1.5,1.5s0.5,1.3,0.5,2.2v7.3h-1.8v-7c0-0.8-0.3-1.5-0.8-2.1c-0.6-0.5-1.3-0.8-2.1-0.8c-1,0-1.8,0.3-2.4,1
		c-0.6,0.7-1,1.5-1,2.6v6.3h-1.8V360.7z"/>
	<path class="st1" d="M200.5,371.3c-0.6-0.6-0.9-1.4-0.9-2.4v-6.7h-2.3v-1.4h2.3v-3.3h1.8v3.3h3.5v1.4h-3.5v6.6
		c0,0.6,0.2,1.1,0.5,1.4s0.8,0.5,1.4,0.5c0.4,0,0.9-0.1,1.5-0.2l0.3,1.4c-0.8,0.2-1.5,0.3-2.1,0.3
		C202,372.2,201.1,371.9,200.5,371.3z"/>
	<path class="st1" d="M217.5,356.4h1.8l6.4,15.5h-1.9l-1.7-4.2h-7.2l-1.7,4.2h-1.9L217.5,356.4z M221.4,366.2l-3.1-7.6l-3.1,7.6
		H221.4z"/>
	<path class="st1" d="M227.8,376l0.6-1.4c1.4,0.6,2.6,0.9,3.7,0.9c1.1,0,2-0.3,2.7-0.9s1.1-1.4,1.1-2.4v-2c-0.4,0.6-0.9,1.1-1.6,1.5
		c-0.6,0.4-1.4,0.5-2.2,0.5c-1,0-1.8-0.2-2.6-0.7c-0.8-0.5-1.4-1.2-1.8-2.1c-0.4-0.9-0.6-1.9-0.6-3s0.2-2.1,0.6-3
		c0.4-0.9,1-1.6,1.8-2.1c0.8-0.5,1.6-0.7,2.6-0.7c0.8,0,1.6,0.2,2.2,0.6c0.7,0.4,1.2,0.9,1.6,1.6l0.2-1.9h1.5v11.4
		c0,0.9-0.2,1.8-0.7,2.5c-0.5,0.7-1.1,1.3-2,1.7c-0.8,0.4-1.8,0.6-2.8,0.6C230.7,376.9,229.3,376.6,227.8,376z M235,369.7
		c0.6-0.6,0.9-1.5,0.9-2.5v-1.8c0-1-0.3-1.8-0.9-2.5s-1.4-1-2.4-1c-0.7,0-1.3,0.2-1.9,0.6s-1,0.9-1.3,1.6s-0.5,1.4-0.5,2.3
		c0,0.8,0.2,1.6,0.5,2.3s0.7,1.2,1.3,1.6c0.6,0.4,1.2,0.6,1.9,0.6C233.6,370.7,234.3,370.3,235,369.7z"/>
	<path class="st1" d="M243.3,371.4c-0.9-0.5-1.6-1.2-2.1-2.1c-0.5-0.9-0.7-1.9-0.7-3s0.2-2.1,0.7-3c0.5-0.9,1.1-1.6,1.9-2.1
		c0.8-0.5,1.8-0.7,2.8-0.7c1,0,1.9,0.2,2.6,0.7c0.8,0.5,1.4,1.1,1.8,2c0.4,0.9,0.6,1.8,0.6,2.9c0,0.3,0,0.5,0,0.7h-8.6
		c0.1,1.2,0.5,2.2,1.3,2.9c0.8,0.7,1.7,1.1,2.9,1.1c1.1,0,2.2-0.3,3.4-0.9l0.6,1.3c-1.4,0.7-2.8,1.1-4.1,1.1
		C245.2,372.2,244.2,371.9,243.3,371.4z M249.2,365.6c0-1.1-0.4-2-1-2.7c-0.6-0.7-1.4-1-2.3-1c-1,0-1.8,0.3-2.5,1s-1,1.6-1.1,2.7
		H249.2z"/>
	<path class="st1" d="M153.8,415.4c-1.6-1.9-2.4-4.6-2.4-8.1c0-2.8,0.4-5.2,1.2-7.2c0.8-2,2-3.5,3.5-4.6c1.5-1,3.4-1.6,5.5-1.6
		c2.3,0,4.4,0.5,6.3,1.5l-1.5,3.2c-1.6-0.8-3.2-1.3-4.6-1.3c-1.9,0-3.3,0.7-4.4,2s-1.7,3.2-1.7,5.7c0.6-0.8,1.4-1.5,2.3-1.9
		c1-0.5,2.1-0.7,3.2-0.7c1.5,0,2.8,0.3,4,1c1.2,0.6,2.1,1.5,2.7,2.7c0.7,1.2,1,2.5,1,3.9c0,1.6-0.4,3-1.1,4.2
		c-0.7,1.2-1.7,2.2-3,2.9c-1.3,0.7-2.7,1-4.3,1C157.6,418.3,155.4,417.3,153.8,415.4z M163.4,413.5c0.8-0.9,1.3-1.9,1.3-3.2
		c0-1.3-0.4-2.4-1.2-3.2c-0.8-0.8-1.8-1.2-3.2-1.2c-1.3,0-2.4,0.4-3.2,1.1c-0.9,0.8-1.3,1.7-1.3,2.9c0,1.4,0.4,2.6,1.2,3.5
		c0.8,0.9,1.9,1.4,3.2,1.4C161.5,414.8,162.6,414.4,163.4,413.5z"/>
	<path class="st1" d="M171.7,416.2l1.7-3.3c1.9,1.2,3.7,1.8,5.4,1.8c1.4,0,2.5-0.4,3.3-1.1s1.2-1.7,1.2-2.9c0-1.3-0.5-2.3-1.4-3
		c-0.9-0.7-2.2-1.1-3.8-1.1c-1.4,0-3.1,0.2-4.9,0.6v-12.8h13.6v3.6h-9.7v5.7c0.7-0.1,1.5-0.2,2.4-0.2c2.5,0,4.4,0.7,5.9,2
		s2.2,3.1,2.2,5.4c0,1.4-0.4,2.7-1.1,3.9c-0.7,1.1-1.8,2-3.1,2.7c-1.3,0.6-2.8,1-4.4,1C176.5,418.3,174.1,417.6,171.7,416.2z"/>
</g>
<path class="st5" d="M321.5,462.5H6.5c-3.6,0-6.5-2.9-6.5-6.5l0,0c0-3.6,2.9-6.5,6.5-6.5h315c3.6,0,6.5,2.9,6.5,6.5l0,0
	C328,459.6,325.1,462.5,321.5,462.5z"/>
<g>
	<path class="st1" d="M510.3,371.1c-1.2-0.7-2-1.6-2.7-2.8c-0.6-1.2-1-2.6-1-4.2s0.3-2.9,1-4.2c0.6-1.2,1.5-2.2,2.7-2.8s2.5-1,4-1
		c0.9,0,1.8,0.1,2.7,0.4c0.9,0.3,1.7,0.7,2.6,1.3l-0.8,1.3c-1.3-1-2.7-1.4-4.2-1.4c-1.2,0-2.2,0.3-3.1,0.8c-0.9,0.5-1.6,1.3-2.1,2.3
		c-0.5,1-0.7,2.1-0.7,3.3c0,1.3,0.2,2.4,0.7,3.3c0.5,1,1.2,1.7,2.1,2.3c0.9,0.5,1.9,0.8,3.1,0.8c1.4,0,2.8-0.5,4.2-1.4l0.8,1.3
		c-0.8,0.6-1.7,1-2.6,1.3c-0.9,0.3-1.8,0.4-2.7,0.4C512.8,372.2,511.5,371.8,510.3,371.1z"/>
	<path class="st1" d="M523.8,371.4c-0.9-0.5-1.5-1.2-2-2.1c-0.5-0.9-0.7-1.9-0.7-3s0.2-2.1,0.7-3c0.5-0.9,1.2-1.6,2-2.1
		c0.9-0.5,1.9-0.7,3-0.7c1.1,0,2.1,0.2,2.9,0.7c0.9,0.5,1.5,1.2,2,2.1c0.5,0.9,0.7,1.9,0.7,3s-0.2,2.1-0.7,3c-0.5,0.9-1.2,1.6-2,2.1
		s-1.8,0.7-2.9,0.7C525.6,372.2,524.7,371.9,523.8,371.4z M528.7,370.1c0.6-0.4,1-0.9,1.4-1.6c0.3-0.7,0.5-1.4,0.5-2.3
		c0-0.8-0.2-1.6-0.5-2.3c-0.3-0.7-0.8-1.2-1.4-1.6c-0.6-0.4-1.2-0.6-2-0.6c-0.7,0-1.4,0.2-2,0.6c-0.6,0.4-1,0.9-1.4,1.6
		c-0.3,0.7-0.5,1.4-0.5,2.3c0,0.9,0.2,1.6,0.5,2.3c0.3,0.7,0.8,1.2,1.4,1.6c0.6,0.4,1.2,0.6,2,0.6
		C527.5,370.7,528.1,370.5,528.7,370.1z"/>
	<path class="st1" d="M535.3,360.7h1.5l0.2,2c0.4-0.7,0.9-1.3,1.6-1.7s1.5-0.6,2.4-0.6c0.8,0,1.5,0.2,2.2,0.5
		c0.7,0.4,1.2,0.8,1.5,1.5s0.5,1.3,0.5,2.2v7.3h-1.8v-7c0-0.8-0.3-1.5-0.8-2.1c-0.6-0.5-1.3-0.8-2.1-0.8c-1,0-1.8,0.3-2.4,1
		c-0.6,0.7-1,1.5-1,2.6v6.3h-1.8V360.7z"/>
	<path class="st1" d="M550.4,371.3c-0.6-0.6-0.9-1.4-0.9-2.4v-6.7h-2.3v-1.4h2.3v-3.3h1.8v3.3h3.5v1.4h-3.5v6.6
		c0,0.6,0.2,1.1,0.5,1.4s0.8,0.5,1.4,0.5c0.4,0,0.9-0.1,1.5-0.2l0.3,1.4c-0.8,0.2-1.5,0.3-2.1,0.3
		C551.9,372.2,551.1,371.9,550.4,371.3z"/>
	<path class="st1" d="M557.6,360.7h1.5l0.2,2.1c0.3-0.7,0.7-1.3,1.3-1.7c0.6-0.4,1.3-0.6,2.1-0.6c0.4,0,0.9,0.1,1.4,0.2l-0.2,1.5
		c-0.5-0.1-1-0.2-1.3-0.2c-1,0-1.7,0.4-2.3,1.1c-0.6,0.7-0.9,1.6-0.9,2.7v6h-1.8V360.7z"/>
	<path class="st1" d="M566.4,358.2c-0.2-0.2-0.3-0.5-0.3-0.9s0.1-0.6,0.3-0.9c0.2-0.2,0.5-0.3,0.9-0.3c0.4,0,0.6,0.1,0.9,0.3
		c0.2,0.2,0.3,0.5,0.3,0.9s-0.1,0.6-0.3,0.9c-0.2,0.2-0.5,0.3-0.9,0.3C567,358.5,566.7,358.4,566.4,358.2z M566.4,360.7h1.8v11.2
		h-1.8V360.7z"/>
	<path class="st1" d="M575.2,371.6c-0.7-0.4-1.2-0.9-1.6-1.6l-0.2,1.9h-1.5v-16.2h1.8v6.8c0.4-0.7,0.9-1.2,1.6-1.5s1.4-0.5,2.2-0.5
		c1,0,1.8,0.2,2.6,0.7c0.8,0.5,1.4,1.2,1.8,2.1c0.4,0.9,0.6,1.9,0.6,3s-0.2,2.1-0.6,3c-0.4,0.9-1,1.6-1.8,2.1s-1.6,0.7-2.6,0.7
		C576.6,372.2,575.8,372,575.2,371.6z M578.8,370.1c0.6-0.4,1-0.9,1.3-1.6s0.5-1.4,0.5-2.3c0-0.8-0.2-1.6-0.5-2.3s-0.7-1.2-1.3-1.6
		s-1.2-0.6-1.9-0.6c-1,0-1.8,0.3-2.4,1s-0.9,1.5-0.9,2.5v1.8c0,1,0.3,1.9,0.9,2.5c0.6,0.6,1.4,1,2.4,1
		C577.7,370.7,578.3,370.5,578.8,370.1z"/>
	<path class="st1" d="M587.1,371.6c-0.6-0.4-1.1-0.8-1.5-1.5s-0.5-1.3-0.5-2.2v-7.3h1.8v7c0,0.8,0.3,1.5,0.8,2.1
		c0.6,0.5,1.3,0.8,2.1,0.8c1,0,1.8-0.3,2.4-1c0.6-0.7,1-1.5,1-2.6v-6.3h1.8v11.2h-1.5l-0.2-2c-0.4,0.7-0.9,1.3-1.6,1.7
		c-0.7,0.4-1.5,0.6-2.4,0.6C588.5,372.2,587.8,372,587.1,371.6z"/>
	<path class="st1" d="M600.7,371.3c-0.6-0.6-0.9-1.4-0.9-2.4v-6.7h-2.3v-1.4h2.3v-3.3h1.8v3.3h3.5v1.4h-3.5v6.6
		c0,0.6,0.2,1.1,0.5,1.4s0.8,0.5,1.4,0.5c0.4,0,0.9-0.1,1.5-0.2l0.3,1.4c-0.8,0.2-1.5,0.3-2.1,0.3
		C602.2,372.2,601.4,371.9,600.7,371.3z"/>
	<path class="st1" d="M607.9,358.2c-0.2-0.2-0.3-0.5-0.3-0.9s0.1-0.6,0.3-0.9c0.2-0.2,0.5-0.3,0.9-0.3c0.4,0,0.6,0.1,0.9,0.3
		c0.2,0.2,0.3,0.5,0.3,0.9s-0.1,0.6-0.3,0.9c-0.2,0.2-0.5,0.3-0.9,0.3C608.5,358.5,608.2,358.4,607.9,358.2z M607.9,360.7h1.8v11.2
		h-1.8V360.7z"/>
	<path class="st1" d="M615.3,371.4c-0.9-0.5-1.5-1.2-2-2.1c-0.5-0.9-0.7-1.9-0.7-3s0.2-2.1,0.7-3c0.5-0.9,1.2-1.6,2-2.1
		c0.9-0.5,1.9-0.7,3-0.7c1.1,0,2.1,0.2,2.9,0.7c0.9,0.5,1.5,1.2,2,2.1c0.5,0.9,0.7,1.9,0.7,3s-0.2,2.1-0.7,3c-0.5,0.9-1.2,1.6-2,2.1
		s-1.8,0.7-2.9,0.7C617.2,372.2,616.2,371.9,615.3,371.4z M620.2,370.1c0.6-0.4,1-0.9,1.4-1.6c0.3-0.7,0.5-1.4,0.5-2.3
		c0-0.8-0.2-1.6-0.5-2.3c-0.3-0.7-0.8-1.2-1.4-1.6c-0.6-0.4-1.2-0.6-2-0.6c-0.7,0-1.4,0.2-2,0.6c-0.6,0.4-1,0.9-1.4,1.6
		c-0.3,0.7-0.5,1.4-0.5,2.3c0,0.9,0.2,1.6,0.5,2.3c0.3,0.7,0.8,1.2,1.4,1.6c0.6,0.4,1.2,0.6,2,0.6
		C619,370.7,619.7,370.5,620.2,370.1z"/>
	<path class="st1" d="M626.8,360.7h1.5l0.2,2c0.4-0.7,0.9-1.3,1.6-1.7s1.5-0.6,2.4-0.6c0.8,0,1.5,0.2,2.2,0.5
		c0.7,0.4,1.2,0.8,1.5,1.5s0.5,1.3,0.5,2.2v7.3h-1.8v-7c0-0.8-0.3-1.5-0.8-2.1c-0.6-0.5-1.3-0.8-2.1-0.8c-1,0-1.8,0.3-2.4,1
		c-0.6,0.7-1,1.5-1,2.6v6.3h-1.8V360.7z"/>
	<path class="st1" d="M548.5,416.2l1.7-3.3c1.9,1.2,3.7,1.8,5.4,1.8c1.4,0,2.5-0.4,3.3-1.1c0.8-0.7,1.2-1.7,1.2-2.9
		c0-1.3-0.5-2.3-1.4-3c-0.9-0.7-2.2-1.1-3.8-1.1c-1.4,0-3.1,0.2-4.9,0.6v-12.8h13.6v3.6H554v5.7c0.7-0.1,1.5-0.2,2.5-0.2
		c2.5,0,4.4,0.7,5.9,2c1.5,1.3,2.2,3.1,2.2,5.4c0,1.4-0.4,2.7-1.1,3.9s-1.8,2-3.1,2.7c-1.3,0.6-2.8,1-4.4,1
		C553.3,418.3,550.9,417.6,548.5,416.2z"/>
	<path class="st1" d="M571.2,405.7c-0.9-0.5-1.7-1.3-2.2-2.2c-0.5-1-0.8-2-0.8-3.3s0.3-2.3,0.8-3.3c0.5-1,1.3-1.7,2.2-2.2
		c0.9-0.5,2-0.8,3.2-0.8c1.2,0,2.3,0.3,3.2,0.8s1.7,1.3,2.2,2.2c0.5,1,0.8,2,0.8,3.3s-0.3,2.3-0.8,3.3c-0.5,1-1.3,1.7-2.2,2.2
		c-0.9,0.5-2,0.8-3.2,0.8C573.2,406.5,572.1,406.3,571.2,405.7z M589.1,394.4h3.6L575,417.9h-3.6L589.1,394.4z M576.5,402.9
		c0.5-0.7,0.8-1.6,0.8-2.7s-0.3-2-0.8-2.7c-0.5-0.7-1.2-1-2.1-1c-0.9,0-1.6,0.3-2.1,1c-0.5,0.7-0.8,1.6-0.8,2.7s0.3,2,0.8,2.7
		c0.5,0.7,1.2,1,2.1,1C575.2,403.9,575.9,403.6,576.5,402.9z M586.5,417.5c-0.9-0.5-1.7-1.3-2.2-2.2c-0.5-1-0.8-2-0.8-3.3
		c0-1.2,0.3-2.3,0.8-3.3s1.3-1.7,2.2-2.2c0.9-0.5,2-0.8,3.2-0.8c1.2,0,2.3,0.3,3.2,0.8c0.9,0.5,1.7,1.3,2.2,2.2c0.5,1,0.8,2,0.8,3.3
		c0,1.2-0.3,2.3-0.8,3.3c-0.5,1-1.3,1.7-2.2,2.2c-0.9,0.5-2,0.8-3.2,0.8C588.5,418.3,587.4,418,586.5,417.5z M591.8,414.7
		c0.5-0.7,0.8-1.6,0.8-2.7s-0.3-2-0.8-2.7s-1.2-1-2.1-1c-0.9,0-1.6,0.3-2.1,1s-0.8,1.6-0.8,2.7s0.3,2,0.8,2.7s1.2,1,2.1,1
		C590.6,415.7,591.3,415.3,591.8,414.7z"/>
</g>
<path class="st5" d="M723.5,462.5h-315c-3.6,0-6.5-2.9-6.5-6.5l0,0c0-3.6,2.9-6.5,6.5-6.5h315c3.6,0,6.5,2.9,6.5,6.5l0,0
	C730,459.6,727.1,462.5,723.5,462.5z"/>
<g>
	<path class="st1" d="M920.2,356.4h5.9c1,0,1.8,0.2,2.6,0.6c0.8,0.4,1.3,0.9,1.8,1.6s0.6,1.5,0.6,2.4c0,1.2-0.4,2.2-1.1,3
		s-1.7,1.3-2.8,1.4l4.5,6.4h-2.1l-4.3-6.1H922v6.1h-1.8V356.4z M925.8,364.2c1,0,1.8-0.3,2.5-0.9c0.6-0.6,0.9-1.3,0.9-2.3
		c0-0.9-0.3-1.7-1-2.3c-0.6-0.6-1.5-0.9-2.4-0.9H922v6.3H925.8z"/>
	<path class="st1" d="M934.7,358.2c-0.2-0.2-0.3-0.5-0.3-0.9s0.1-0.6,0.3-0.9c0.2-0.2,0.5-0.3,0.9-0.3c0.4,0,0.6,0.1,0.9,0.3
		c0.2,0.2,0.3,0.5,0.3,0.9s-0.1,0.6-0.3,0.9c-0.2,0.2-0.5,0.3-0.9,0.3C935.2,358.5,934.9,358.4,934.7,358.2z M934.7,360.7h1.8v11.2
		h-1.8V360.7z"/>
	<path class="st1" d="M939.3,371.3l0.4-1.4c1.3,0.5,2.5,0.8,3.6,0.8c0.8,0,1.4-0.2,1.8-0.5s0.7-0.8,0.7-1.3c0-0.4-0.1-0.7-0.4-1
		c-0.2-0.2-0.5-0.4-0.9-0.6s-0.9-0.3-1.5-0.5c-0.8-0.2-1.4-0.4-1.9-0.6c-0.5-0.2-0.9-0.5-1.3-1c-0.3-0.4-0.5-1-0.5-1.7
		c0-0.6,0.2-1.1,0.5-1.6c0.3-0.5,0.8-0.8,1.4-1.1c0.6-0.3,1.3-0.4,2.1-0.4c1.2,0,2.5,0.3,3.8,0.8l-0.4,1.4c-1.2-0.5-2.2-0.7-3.2-0.7
		c-0.7,0-1.3,0.2-1.7,0.5c-0.4,0.3-0.7,0.7-0.7,1.3c0,0.6,0.2,1,0.7,1.2c0.4,0.3,1.1,0.5,2,0.8c0.8,0.2,1.4,0.4,1.9,0.6
		c0.5,0.2,0.9,0.5,1.3,1s0.5,1,0.5,1.8c0,1-0.4,1.7-1.2,2.3s-1.8,0.9-3,0.9C942.2,372.2,940.8,371.9,939.3,371.3z"/>
	<path class="st1" d="M950.5,355.7h1.8v10.6l5.3-5.5h2.1l-5,5.2l5.2,6h-2.2l-4.3-4.9l-1.2,1.2v3.7h-1.8V355.7z"/>
	<path class="st1" d="M967.8,356.4h1.9v14h7.5v1.5h-9.4V356.4z"/>
	<path class="st1" d="M981.2,371.4c-0.9-0.5-1.6-1.2-2.1-2.1s-0.7-1.9-0.7-3s0.2-2.1,0.7-3c0.5-0.9,1.1-1.6,1.9-2.1
		c0.8-0.5,1.8-0.7,2.8-0.7c1,0,1.9,0.2,2.6,0.7c0.8,0.5,1.4,1.1,1.8,2c0.4,0.9,0.6,1.8,0.6,2.9c0,0.3,0,0.5,0,0.7h-8.6
		c0.1,1.2,0.5,2.2,1.3,2.9c0.8,0.7,1.7,1.1,2.9,1.1c1.1,0,2.2-0.3,3.4-0.9l0.6,1.3c-1.4,0.7-2.8,1.1-4.1,1.1
		C983.1,372.2,982.1,371.9,981.2,371.4z M987.2,365.6c0-1.1-0.4-2-1-2.7c-0.6-0.7-1.4-1-2.3-1c-1,0-1.8,0.3-2.5,1
		c-0.7,0.7-1,1.6-1.1,2.7H987.2z"/>
	<path class="st1" d="M990,360.7h1.9l3.5,9.1l3.5-9.1h1.9l-4.6,11.2h-1.7L990,360.7z"/>
	<path class="st1" d="M1005,371.4c-0.9-0.5-1.6-1.2-2.1-2.1c-0.5-0.9-0.7-1.9-0.7-3s0.2-2.1,0.7-3c0.5-0.9,1.1-1.6,1.9-2.1
		c0.8-0.5,1.8-0.7,2.8-0.7c1,0,1.9,0.2,2.6,0.7c0.8,0.5,1.4,1.1,1.8,2c0.4,0.9,0.6,1.8,0.6,2.9c0,0.3,0,0.5,0,0.7h-8.6
		c0.1,1.2,0.5,2.2,1.3,2.9c0.8,0.7,1.7,1.1,2.9,1.1c1.1,0,2.2-0.3,3.4-0.9l0.6,1.3c-1.4,0.7-2.8,1.1-4.1,1.1
		C1006.9,372.2,1005.9,371.9,1005,371.4z M1010.9,365.6c0-1.1-0.4-2-1-2.7c-0.6-0.7-1.4-1-2.3-1c-1,0-1.8,0.3-2.5,1s-1,1.6-1.1,2.7
		H1010.9z"/>
	<path class="st1" d="M1016.1,371.4c-0.5-0.5-0.7-1.1-0.7-2v-13.8h1.8v13.6c0,0.4,0.1,0.7,0.4,1s0.6,0.4,1,0.4
		c0.3,0,0.6-0.1,1.1-0.2l0.2,1.4c-0.6,0.1-1.2,0.2-1.7,0.2C1017.2,372.2,1016.6,371.9,1016.1,371.4z"/>
	<path class="st1" d="M891.9,394.4h4.5l7.7,10.6l7.7-10.6h4.5v23.5H912v-17.2l-6.6,9.1h-2.6l-6.6-9.1v17.2h-4.3V394.4z"/>
	<path class="st1" d="M925,417.2c-1.4-0.8-2.5-1.8-3.3-3.2c-0.8-1.4-1.2-2.9-1.2-4.7s0.4-3.3,1.2-4.7c0.8-1.4,1.9-2.4,3.3-3.2
		c1.4-0.8,3-1.1,4.8-1.1s3.4,0.4,4.8,1.1c1.4,0.8,2.5,1.8,3.3,3.2c0.8,1.4,1.2,2.9,1.2,4.7s-0.4,3.3-1.2,4.7
		c-0.8,1.4-1.9,2.4-3.3,3.2s-3,1.1-4.8,1.1S926.4,417.9,925,417.2z M933.2,413.3c0.9-1,1.3-2.3,1.3-4c0-1.6-0.4-3-1.3-4
		c-0.9-1-2-1.5-3.4-1.5s-2.5,0.5-3.4,1.5c-0.9,1-1.3,2.3-1.3,4c0,1.6,0.4,2.9,1.3,4c0.9,1,2,1.5,3.4,1.5S932.3,414.3,933.2,413.3z"
		/>
	<path class="st1" d="M945.3,417.2c-1.2-0.8-2.1-1.8-2.8-3.2s-1-2.9-1-4.7s0.3-3.3,1-4.7c0.7-1.4,1.6-2.4,2.8-3.2
		c1.2-0.8,2.5-1.1,4.1-1.1c1,0,2,0.2,2.9,0.6s1.6,1,2.2,1.7v-9.4h4.5v24.6h-3.6l-0.6-2.2c-0.6,0.8-1.4,1.5-2.4,1.9
		c-0.9,0.5-2,0.7-3.1,0.7C947.9,418.3,946.5,417.9,945.3,417.2z M953.5,413.6c0.8-0.8,1.2-1.8,1.2-3.1v-2.3c0-1.3-0.4-2.3-1.1-3.1
		c-0.8-0.8-1.7-1.2-3-1.2c-1.3,0-2.4,0.5-3.2,1.5c-0.8,1-1.2,2.3-1.2,3.9c0,1.6,0.4,2.9,1.2,3.9c0.8,1,1.9,1.5,3.2,1.5
		C951.7,414.8,952.7,414.4,953.5,413.6z"/>
	<path class="st1" d="M967.1,417.2c-1.4-0.8-2.5-1.8-3.3-3.2c-0.8-1.4-1.2-2.9-1.2-4.7s0.4-3.3,1.1-4.7c0.7-1.4,1.8-2.4,3.1-3.2
		c1.3-0.8,2.8-1.1,4.5-1.1c1.6,0,3,0.4,4.3,1.1c1.2,0.7,2.2,1.8,2.9,3.1c0.7,1.3,1.1,2.8,1.1,4.5c0,0.3,0,0.8-0.1,1.4h-12.5
		c0.2,1.4,0.7,2.5,1.7,3.3c1,0.8,2.2,1.3,3.7,1.3c1.5,0,3.2-0.5,4.9-1.4l1.4,3c-2.3,1.1-4.6,1.7-6.9,1.7
		C970.1,418.3,968.5,417.9,967.1,417.2z M975.3,407.7c-0.1-1.2-0.5-2.2-1.2-3c-0.7-0.7-1.6-1.1-2.8-1.1c-1.1,0-2.1,0.4-2.9,1.1
		c-0.8,0.7-1.3,1.7-1.4,3H975.3z"/>
	<path class="st1" d="M982.9,400.7h3.6l0.6,2.7c0.5-0.9,1.2-1.7,2.1-2.2c0.9-0.5,1.9-0.8,3-0.8c0.7,0,1.4,0.1,2.1,0.2l-0.4,3.6
		c-0.7-0.2-1.4-0.2-2-0.2c-1.3,0-2.4,0.5-3.2,1.4s-1.2,2.1-1.2,3.6v8.9h-4.5V400.7z"/>
	<path class="st1" d="M999.3,417.2c-1.2-0.8-2.1-1.8-2.8-3.2s-1-2.9-1-4.7s0.3-3.3,1-4.7c0.7-1.4,1.6-2.4,2.8-3.2
		c1.2-0.8,2.5-1.1,4.1-1.1c1.1,0,2.2,0.2,3.1,0.7c0.9,0.4,1.7,1.1,2.4,1.9l0.6-2.1h3.6v17.2h-3.6l-0.6-2.2c-0.6,0.8-1.4,1.5-2.4,1.9
		c-0.9,0.5-2,0.7-3.1,0.7C1001.8,418.3,1000.5,417.9,999.3,417.2z M1007.4,413.6c0.8-0.8,1.2-1.8,1.2-3.1v-2.3
		c0-1.3-0.4-2.3-1.1-3.1c-0.8-0.8-1.7-1.2-3-1.2c-1.3,0-2.4,0.5-3.2,1.5c-0.8,1-1.2,2.3-1.2,3.9c0,1.6,0.4,2.9,1.2,3.9
		c0.8,1,1.9,1.5,3.2,1.5C1005.7,414.8,1006.7,414.4,1007.4,413.6z"/>
	<path class="st1" d="M1020.8,416.8c-1.1-1-1.6-2.4-1.6-4v-8.6h-3.2v-3.4h3.2v-5h4.5v5h4.8v3.4h-4.8v8.2c0,0.7,0.2,1.3,0.7,1.8
		c0.4,0.4,1,0.7,1.8,0.7c0.7,0,1.4-0.1,2.2-0.3l0.6,3.4c-1.4,0.4-2.6,0.5-3.9,0.5C1023.3,418.3,1021.9,417.8,1020.8,416.8z"/>
	<path class="st1" d="M1035.4,417.2c-1.4-0.8-2.5-1.8-3.3-3.2c-0.8-1.4-1.2-2.9-1.2-4.7s0.4-3.3,1.1-4.7c0.7-1.4,1.8-2.4,3.1-3.2
		c1.3-0.8,2.8-1.1,4.5-1.1c1.6,0,3,0.4,4.3,1.1c1.2,0.7,2.2,1.8,2.9,3.1c0.7,1.3,1,2.8,1,4.5c0,0.3,0,0.8-0.1,1.4h-12.5
		c0.2,1.4,0.7,2.5,1.7,3.3c1,0.8,2.2,1.3,3.7,1.3c1.5,0,3.2-0.5,4.9-1.4l1.4,3c-2.3,1.1-4.6,1.7-6.9,1.7
		C1038.4,418.3,1036.8,417.9,1035.4,417.2z M1043.6,407.7c-0.1-1.2-0.5-2.2-1.2-3c-0.7-0.7-1.6-1.1-2.8-1.1c-1.1,0-2.1,0.4-2.9,1.1
		c-0.8,0.7-1.3,1.7-1.4,3H1043.6z"/>
</g>
<path class="st5" d="M1125.5,462.5h-315c-3.6,0-6.5-2.9-6.5-6.5l0,0c0-3.6,2.9-6.5,6.5-6.5h315c3.6,0,6.5,2.9,6.5,6.5l0,0
	C1132,459.6,1129.1,462.5,1125.5,462.5z"/>
<g>
	<path class="st6" d="M321.5,462.5h-85c-3.6,0-6.5-2.9-6.5-6.5l0,0c0-3.6,2.9-6.5,6.5-6.5h85c3.6,0,6.5,2.9,6.5,6.5l0,0
		C328,459.6,325.1,462.5,321.5,462.5z"/>
	<path class="st7" d="M321.5,463h-85c-3.9,0-7-3.1-7-7s3.1-7,7-7h85c3.9,0,7,3.1,7,7S325.4,463,321.5,463z M236.5,450
		c-3.3,0-6,2.7-6,6s2.7,6,6,6h85c3.3,0,6-2.7,6-6s-2.7-6-6-6H236.5z"/>
</g>
<g>
	<path class="st6" d="M723.5,462.5h-197c-3.6,0-6.5-2.9-6.5-6.5l0,0c0-3.6,2.9-6.5,6.5-6.5h197c3.6,0,6.5,2.9,6.5,6.5l0,0
		C730,459.6,727.1,462.5,723.5,462.5z"/>
	<path class="st7" d="M723.5,463h-197c-3.9,0-7-3.1-7-7s3.1-7,7-7h197c3.9,0,7,3.1,7,7S727.4,463,723.5,463z M526.5,450
		c-3.3,0-6,2.7-6,6s2.7,6,6,6h197c3.3,0,6-2.7,6-6s-2.7-6-6-6H526.5z"/>
</g>
<g>
	<path class="st6" d="M1125.5,462.5h-155c-3.6,0-6.5-2.9-6.5-6.5l0,0c0-3.6,2.9-6.5,6.5-6.5h155c3.6,0,6.5,2.9,6.5,6.5l0,0
		C1132,459.6,1129.1,462.5,1125.5,462.5z"/>
	<path class="st7" d="M1125.5,463h-155c-3.9,0-7-3.1-7-7s3.1-7,7-7h155c3.9,0,7,3.1,7,7S1129.4,463,1125.5,463z M970.5,450
		c-3.3,0-6,2.7-6,6s2.7,6,6,6h155c3.3,0,6-2.7,6-6s-2.7-6-6-6H970.5z"/>
</g>
<circle class="st8" cx="229" cy="457" r="18"/>
<circle class="st8" cx="516" cy="457" r="18"/>
<circle class="st8" cx="961" cy="457" r="18"/>
</svg>
