<?xml version="1.0" encoding="utf-8"?>
<!-- Generator: Adobe Illustrator 22.1.0, SVG Export Plug-In . SVG Version: 6.00 Build 0)  -->
<svg version="1.1" id="Layer_1" xmlns="http://www.w3.org/2000/svg" xmlns:xlink="http://www.w3.org/1999/xlink" x="0px" y="0px"
	 viewBox="0 0 400.8 89.4" style="enable-background:new 0 0 400.8 89.4;" xml:space="preserve">
<style type="text/css">
	.st0{fill:#4D4E4E;}
	.st1{fill:#CBCBCA;}
	.st2{fill:#29A9E1;}
	.st3{fill:#E5E5E4;}
</style>
<g>
	<g>
		<path class="st0" d="M267.1,70.2l0.6-1.3c1.1,0.5,2.1,0.8,3,0.8c1.5,0,2.6-0.6,3.4-1.7c0.8-1.1,1.2-2.8,1.2-5
			c-0.3,0.7-0.9,1.3-1.6,1.7c-0.7,0.4-1.6,0.6-2.5,0.6c-1,0-1.8-0.2-2.5-0.6c-0.7-0.4-1.3-1-1.7-1.7c-0.4-0.7-0.6-1.6-0.6-2.5
			c0-1,0.2-1.8,0.7-2.6c0.4-0.8,1.1-1.4,1.8-1.8c0.8-0.4,1.6-0.7,2.6-0.7c1.7,0,3.1,0.6,4.1,1.8c1,1.2,1.5,2.9,1.5,5.2
			c0,2.8-0.5,5-1.6,6.5s-2.6,2.3-4.6,2.3C269.6,71.1,268.3,70.8,267.1,70.2z M273.4,63.5c0.6-0.3,1-0.7,1.3-1.2
			c0.3-0.5,0.5-1,0.5-1.6c0-0.8-0.2-1.4-0.5-2c-0.3-0.6-0.7-1.1-1.3-1.4c-0.5-0.3-1.2-0.5-1.8-0.5c-0.6,0-1.2,0.2-1.8,0.5
			c-0.5,0.3-0.9,0.8-1.3,1.3c-0.3,0.6-0.5,1.2-0.5,1.8c0,1.1,0.3,1.9,1,2.6c0.6,0.6,1.5,1,2.5,1C272.3,63.9,272.9,63.8,273.4,63.5z"
			/>
		<path class="st0" d="M280.9,70.1c-0.8-0.6-1.5-1.6-1.9-2.7s-0.7-2.6-0.7-4.2c0-1.6,0.2-3,0.7-4.2s1.1-2.1,1.9-2.7s1.8-1,3-1
			c1.1,0,2.1,0.3,3,1s1.5,1.6,1.9,2.7s0.7,2.6,0.7,4.2c0,1.6-0.2,3-0.7,4.2s-1.1,2.1-1.9,2.7c-0.8,0.6-1.8,1-3,1
			C282.7,71.1,281.7,70.8,280.9,70.1z M285.9,68.8c0.6-0.5,1-1.3,1.3-2.2c0.3-1,0.5-2.1,0.5-3.4c0-1.3-0.2-2.4-0.5-3.4
			c-0.3-1-0.8-1.7-1.3-2.2c-0.6-0.5-1.3-0.8-2.1-0.8s-1.5,0.3-2,0.8s-1,1.2-1.3,2.2c-0.3,1-0.5,2.1-0.5,3.4c0,1.3,0.2,2.4,0.5,3.4
			s0.8,1.7,1.3,2.2c0.6,0.5,1.3,0.8,2,0.8S285.3,69.3,285.9,68.8z"/>
		<path class="st0" d="M291.1,70.7c-0.2-0.2-0.4-0.5-0.4-0.9c0-0.4,0.1-0.7,0.4-0.9c0.2-0.2,0.5-0.4,0.9-0.4c0.4,0,0.7,0.1,0.9,0.4
			c0.2,0.2,0.4,0.5,0.4,0.9c0,0.4-0.1,0.7-0.4,0.9c-0.2,0.2-0.5,0.4-0.9,0.4C291.7,71,291.4,70.9,291.1,70.7z"/>
		<path class="st0" d="M295.1,69.8l0.7-1.4c1.3,0.8,2.5,1.2,3.8,1.2c1.1,0,2-0.3,2.7-0.9c0.7-0.6,1-1.4,1-2.4c0-1-0.3-1.8-1-2.4
			s-1.6-0.9-2.8-0.9c-1,0-2.1,0.1-3.3,0.4v-7.8h8.4v1.5h-6.8v4.9c0.8-0.2,1.5-0.2,2.2-0.2c1.6,0,2.8,0.4,3.7,1.3
			c0.9,0.8,1.4,2,1.4,3.4c0,0.9-0.2,1.7-0.7,2.5c-0.4,0.7-1.1,1.3-1.9,1.7c-0.8,0.4-1.7,0.6-2.8,0.6
			C298.1,71.1,296.6,70.7,295.1,69.8z"/>
		<path class="st0" d="M315,59.5h1.3v4.9c0.3-0.5,0.6-0.9,1.1-1.1c0.5-0.3,1-0.4,1.6-0.4c0.6,0,1.1,0.1,1.5,0.4
			c0.5,0.2,0.8,0.6,1.1,1c0.3,0.4,0.4,0.9,0.4,1.5v5.1h-1.3v-4.9c0-0.6-0.2-1.1-0.6-1.5s-0.9-0.6-1.5-0.6c-0.7,0-1.2,0.2-1.7,0.7
			c-0.4,0.5-0.7,1.1-0.7,1.8v4.4H315V59.5z"/>
		<path class="st0" d="M323.5,63h1l0.2,1.5c0.2-0.5,0.5-0.9,0.9-1.2s0.9-0.4,1.5-0.4c0.3,0,0.6,0,1,0.1l-0.1,1
			c-0.4-0.1-0.7-0.1-0.9-0.1c-0.7,0-1.2,0.2-1.6,0.7s-0.6,1.1-0.6,1.9v4.2h-1.3V63z"/>
		<path class="st0" d="M328.3,70.4l0.3-0.9c0.9,0.4,1.7,0.6,2.5,0.6c0.5,0,0.9-0.1,1.3-0.4c0.3-0.2,0.5-0.5,0.5-0.9
			c0-0.3-0.1-0.5-0.2-0.7s-0.4-0.3-0.6-0.4c-0.3-0.1-0.6-0.2-1-0.3c-0.5-0.2-1-0.3-1.3-0.4c-0.3-0.2-0.6-0.4-0.9-0.7
			c-0.2-0.3-0.4-0.7-0.4-1.2c0-0.4,0.1-0.8,0.4-1.1c0.2-0.3,0.6-0.6,1-0.8c0.4-0.2,0.9-0.3,1.5-0.3c0.9,0,1.7,0.2,2.6,0.5l-0.3,0.9
			c-0.8-0.3-1.6-0.5-2.2-0.5c-0.5,0-0.9,0.1-1.2,0.3c-0.3,0.2-0.5,0.5-0.5,0.9c0,0.4,0.2,0.7,0.5,0.9s0.8,0.4,1.4,0.5
			c0.6,0.2,1,0.3,1.4,0.4c0.3,0.2,0.6,0.4,0.9,0.7c0.2,0.3,0.4,0.7,0.4,1.2c0,0.7-0.3,1.2-0.8,1.6c-0.5,0.4-1.2,0.6-2.1,0.6
			C330.3,71,329.3,70.8,328.3,70.4z"/>
	</g>
	<g>
		<path class="st0" d="M270.7,80.5h1l3.6,8.7h-1.1l-1-2.4h-4.1l-1,2.4h-1.1L270.7,80.5z M272.9,86l-1.7-4.3l-1.7,4.3H272.9z"/>
		<path class="st0" d="M278,88.8c-0.7-0.4-1.2-0.9-1.5-1.6c-0.4-0.7-0.5-1.5-0.5-2.3c0-0.9,0.2-1.7,0.5-2.3c0.4-0.7,0.9-1.2,1.5-1.6
			c0.6-0.4,1.4-0.6,2.2-0.6c0.5,0,1,0.1,1.5,0.2c0.5,0.2,1,0.4,1.4,0.7l-0.5,0.7c-0.8-0.5-1.5-0.8-2.4-0.8c-0.7,0-1.2,0.2-1.7,0.5
			c-0.5,0.3-0.9,0.7-1.2,1.3c-0.3,0.6-0.4,1.2-0.4,1.9c0,0.7,0.1,1.3,0.4,1.9c0.3,0.6,0.7,1,1.2,1.3s1.1,0.5,1.7,0.5
			c0.8,0,1.6-0.3,2.4-0.8l0.5,0.7c-0.5,0.3-0.9,0.5-1.4,0.7c-0.5,0.2-1,0.2-1.5,0.2C279.4,89.4,278.7,89.2,278,88.8z"/>
		<path class="st0" d="M286.2,88.8c-0.7-0.4-1.2-0.9-1.5-1.6c-0.4-0.7-0.5-1.5-0.5-2.3c0-0.9,0.2-1.7,0.5-2.3
			c0.4-0.7,0.9-1.2,1.5-1.6c0.6-0.4,1.4-0.6,2.2-0.6c0.5,0,1,0.1,1.5,0.2c0.5,0.2,1,0.4,1.4,0.7L291,82c-0.8-0.5-1.5-0.8-2.4-0.8
			c-0.7,0-1.2,0.2-1.7,0.5c-0.5,0.3-0.9,0.7-1.2,1.3c-0.3,0.6-0.4,1.2-0.4,1.9c0,0.7,0.1,1.3,0.4,1.9c0.3,0.6,0.7,1,1.2,1.3
			s1.1,0.5,1.7,0.5c0.8,0,1.6-0.3,2.4-0.8l0.5,0.7c-0.5,0.3-0.9,0.5-1.4,0.7c-0.5,0.2-1,0.2-1.5,0.2
			C287.6,89.4,286.9,89.2,286.2,88.8z"/>
		<path class="st0" d="M293.2,80.5h3.3c0.5,0,1,0.1,1.5,0.3c0.4,0.2,0.8,0.5,1,0.9s0.4,0.8,0.4,1.4c0,0.7-0.2,1.2-0.6,1.7
			c-0.4,0.5-0.9,0.7-1.6,0.8l2.5,3.6h-1.2l-2.4-3.5h-1.9v3.5h-1V80.5z M296.4,84.9c0.6,0,1-0.2,1.4-0.5c0.4-0.3,0.5-0.8,0.5-1.3
			c0-0.5-0.2-1-0.5-1.3c-0.4-0.3-0.8-0.5-1.4-0.5h-2.1v3.6H296.4z"/>
		<path class="st0" d="M303.2,88.9c-0.6-0.3-1-0.7-1.4-1.2s-0.5-1.1-0.5-1.8v-5.4h1.1v5.4c0,0.5,0.1,1,0.4,1.4
			c0.2,0.4,0.6,0.7,1,0.9s0.9,0.3,1.4,0.3c0.5,0,1-0.1,1.4-0.3c0.4-0.2,0.7-0.5,1-0.9c0.2-0.4,0.4-0.9,0.4-1.4v-5.4h1.1v5.4
			c0,0.7-0.2,1.3-0.5,1.8c-0.3,0.5-0.8,0.9-1.4,1.2c-0.6,0.3-1.2,0.4-1.9,0.4C304.5,89.4,303.8,89.2,303.2,88.9z"/>
		<path class="st0" d="M311.5,80.5h5.6v0.8h-4.5v3h4.1v0.8h-4.1v3.2h4.7v0.8h-5.8V80.5z"/>
		<path class="st0" d="M319.2,80.5h3c0.9,0,1.6,0.2,2.3,0.5c0.7,0.4,1.2,0.9,1.6,1.5c0.4,0.7,0.6,1.4,0.6,2.3c0,0.8-0.2,1.6-0.6,2.3
			c-0.4,0.7-0.9,1.2-1.6,1.5c-0.7,0.4-1.4,0.6-2.3,0.6h-3V80.5z M322.1,88.4c0.7,0,1.3-0.1,1.8-0.4c0.5-0.3,0.9-0.7,1.2-1.2
			c0.3-0.5,0.4-1.1,0.4-1.8s-0.1-1.3-0.4-1.8c-0.3-0.5-0.7-0.9-1.2-1.2s-1.1-0.4-1.8-0.4h-1.8v7H322.1z"/>
	</g>
	<g>
		<path class="st0" d="M14.6,57.4l-3.9,2.3L10,58.4l4.9-2.8h1.5v15.2h-1.8V57.4z"/>
		<path class="st0" d="M20.9,69.7l6-6c1.2-1.2,1.9-2.5,1.9-3.7c0-0.9-0.3-1.7-0.9-2.3c-0.6-0.6-1.4-0.9-2.3-0.9
			c-0.6,0-1.2,0.1-1.8,0.3c-0.6,0.2-1.2,0.6-1.9,1L21,56.9c1.7-1,3.3-1.5,4.8-1.5c0.9,0,1.7,0.2,2.4,0.6c0.7,0.4,1.3,0.9,1.7,1.6
			s0.6,1.4,0.6,2.3c0,0.8-0.2,1.6-0.6,2.4c-0.4,0.8-0.9,1.5-1.6,2.2l-5,5h7.3v1.5h-9.8V69.7z"/>
		<path class="st0" d="M33.5,70.7c-0.2-0.2-0.4-0.5-0.4-0.9c0-0.4,0.1-0.7,0.4-0.9c0.2-0.2,0.5-0.4,0.9-0.4c0.4,0,0.7,0.1,0.9,0.4
			c0.2,0.2,0.4,0.5,0.4,0.9c0,0.4-0.1,0.7-0.4,0.9c-0.2,0.2-0.5,0.4-0.9,0.4C34,71,33.7,70.9,33.5,70.7z"/>
		<path class="st0" d="M37.5,69.8l0.7-1.4c1.3,0.8,2.5,1.2,3.8,1.2c1.1,0,2-0.3,2.7-0.9c0.7-0.6,1-1.4,1-2.4c0-1-0.3-1.8-1-2.4
			S43,63,41.7,63c-1,0-2.1,0.1-3.3,0.4v-7.8h8.4v1.5h-6.8v4.9c0.8-0.2,1.5-0.2,2.2-0.2c1.6,0,2.8,0.4,3.7,1.3s1.4,2,1.4,3.4
			c0,0.9-0.2,1.7-0.7,2.5c-0.4,0.7-1.1,1.3-1.9,1.7c-0.8,0.4-1.7,0.6-2.8,0.6C40.5,71.1,38.9,70.7,37.5,69.8z"/>
		<path class="st0" d="M57.3,59.5h1.3v4.9c0.3-0.5,0.6-0.9,1.1-1.1c0.5-0.3,1-0.4,1.6-0.4c0.6,0,1.1,0.1,1.5,0.4
			c0.5,0.2,0.8,0.6,1.1,1c0.3,0.4,0.4,0.9,0.4,1.5v5.1H63v-4.9c0-0.6-0.2-1.1-0.6-1.5c-0.4-0.4-0.9-0.6-1.5-0.6
			c-0.7,0-1.2,0.2-1.7,0.7c-0.4,0.5-0.7,1.1-0.7,1.8v4.4h-1.3V59.5z"/>
		<path class="st0" d="M65.9,63h1l0.2,1.5c0.2-0.5,0.5-0.9,0.9-1.2c0.4-0.3,0.9-0.4,1.5-0.4c0.3,0,0.6,0,1,0.1l-0.1,1
			C70,64,69.7,64,69.4,64c-0.7,0-1.2,0.2-1.6,0.7c-0.4,0.5-0.6,1.1-0.6,1.9v4.2h-1.3V63z"/>
		<path class="st0" d="M70.7,70.4l0.3-0.9c0.9,0.4,1.7,0.6,2.5,0.6c0.5,0,0.9-0.1,1.3-0.4c0.3-0.2,0.5-0.5,0.5-0.9
			c0-0.3-0.1-0.5-0.2-0.7s-0.4-0.3-0.6-0.4c-0.2-0.1-0.6-0.2-1-0.3c-0.5-0.2-1-0.3-1.3-0.4c-0.3-0.2-0.6-0.4-0.9-0.7
			c-0.2-0.3-0.4-0.7-0.4-1.2c0-0.4,0.1-0.8,0.4-1.1c0.2-0.3,0.6-0.6,1-0.8c0.4-0.2,0.9-0.3,1.5-0.3c0.9,0,1.7,0.2,2.6,0.5l-0.3,0.9
			c-0.8-0.3-1.6-0.5-2.2-0.5c-0.5,0-0.9,0.1-1.2,0.3C72.1,64.4,72,64.7,72,65c0,0.4,0.2,0.7,0.5,0.9s0.8,0.4,1.4,0.5
			c0.6,0.2,1,0.3,1.4,0.4c0.3,0.2,0.6,0.4,0.9,0.7s0.4,0.7,0.4,1.2c0,0.7-0.3,1.2-0.8,1.6c-0.5,0.4-1.2,0.6-2.1,0.6
			C72.6,71,71.7,70.8,70.7,70.4z"/>
	</g>
	<g>
		<path class="st0" d="M10.3,88.9c-0.6-0.3-1-0.7-1.4-1.2c-0.3-0.5-0.5-1.1-0.5-1.8v-5.4h1.1v5.4c0,0.5,0.1,1,0.4,1.4
			c0.2,0.4,0.6,0.7,1,0.9s0.9,0.3,1.4,0.3c0.5,0,1-0.1,1.4-0.3c0.4-0.2,0.7-0.5,1-0.9c0.2-0.4,0.4-0.9,0.4-1.4v-5.4h1.1v5.4
			c0,0.7-0.2,1.3-0.5,1.8c-0.3,0.5-0.8,0.9-1.4,1.2c-0.6,0.3-1.2,0.4-1.9,0.4C11.5,89.4,10.9,89.2,10.3,88.9z"/>
		<path class="st0" d="M17.9,88.7l0.3-0.8c1.1,0.4,2,0.7,2.8,0.7c0.6,0,1.2-0.1,1.5-0.4s0.6-0.6,0.6-1.1c0-0.3-0.1-0.6-0.3-0.8
			c-0.2-0.2-0.4-0.4-0.7-0.5c-0.3-0.1-0.7-0.3-1.2-0.4c-0.6-0.2-1.1-0.3-1.5-0.5c-0.4-0.2-0.7-0.4-1-0.7c-0.3-0.3-0.4-0.8-0.4-1.3
			c0-0.5,0.1-0.9,0.4-1.2s0.6-0.6,1.1-0.8s1-0.3,1.6-0.3c0.9,0,1.8,0.2,2.8,0.6l-0.3,0.8c-0.9-0.4-1.7-0.5-2.5-0.5
			c-0.6,0-1.1,0.1-1.5,0.4c-0.4,0.3-0.6,0.6-0.6,1.1c0,0.3,0.1,0.6,0.3,0.8c0.2,0.2,0.4,0.4,0.7,0.5c0.3,0.1,0.7,0.3,1.2,0.4
			c0.6,0.2,1.1,0.3,1.5,0.5c0.4,0.2,0.7,0.4,1,0.8c0.3,0.3,0.4,0.8,0.4,1.3c0,0.5-0.1,0.9-0.4,1.2c-0.3,0.4-0.6,0.6-1.1,0.8
			s-1,0.3-1.6,0.3C20.1,89.4,19,89.1,17.9,88.7z"/>
		<path class="st0" d="M26.1,80.5h5.6v0.8h-4.5v3h4.1v0.8h-4.1v3.2h4.7v0.8h-5.8V80.5z"/>
		<path class="st0" d="M33.9,80.5h3c0.9,0,1.6,0.2,2.3,0.5c0.7,0.4,1.2,0.9,1.6,1.5c0.4,0.7,0.6,1.4,0.6,2.3c0,0.8-0.2,1.6-0.6,2.3
			c-0.4,0.7-0.9,1.2-1.6,1.5c-0.7,0.4-1.4,0.6-2.3,0.6h-3V80.5z M36.7,88.4c0.7,0,1.3-0.1,1.8-0.4c0.5-0.3,0.9-0.7,1.2-1.2
			c0.3-0.5,0.4-1.1,0.4-1.8S40,83.5,39.7,83c-0.3-0.5-0.7-0.9-1.2-1.2s-1.1-0.4-1.8-0.4h-1.8v7H36.7z"/>
	</g>
	<rect x="5.1" y="26.8" class="st1" width="366.9" height="19.8"/>
	<rect x="5.1" y="26.8" class="st2" width="220.8" height="19.8"/>
	<g>
		<path class="st0" d="M10,0.2h1l3.6,8.7h-1.1l-1-2.4H8.4l-1,2.4H6.3L10,0.2z M12.2,5.7l-1.7-4.3L8.7,5.7H12.2z"/>
		<path class="st0" d="M15.7,8.4l0.3-0.8C17,8,18,8.2,18.7,8.2c0.6,0,1.2-0.1,1.5-0.4s0.6-0.6,0.6-1.1c0-0.3-0.1-0.6-0.3-0.8
			c-0.2-0.2-0.4-0.4-0.7-0.5c-0.3-0.1-0.7-0.3-1.2-0.4c-0.6-0.2-1.1-0.3-1.5-0.5c-0.4-0.2-0.7-0.4-1-0.7c-0.3-0.3-0.4-0.8-0.4-1.3
			c0-0.5,0.1-0.9,0.4-1.2s0.6-0.6,1.1-0.8s1-0.3,1.6-0.3c0.9,0,1.8,0.2,2.8,0.6l-0.3,0.8c-0.9-0.4-1.7-0.5-2.5-0.5
			c-0.6,0-1.1,0.1-1.5,0.4c-0.4,0.3-0.6,0.6-0.6,1.1c0,0.3,0.1,0.6,0.3,0.8c0.2,0.2,0.4,0.4,0.7,0.5C18.1,3.8,18.5,3.9,19,4
			c0.6,0.2,1.1,0.3,1.5,0.5c0.4,0.2,0.7,0.4,1,0.8c0.3,0.3,0.4,0.8,0.4,1.3c0,0.5-0.1,0.9-0.4,1.2c-0.3,0.4-0.6,0.6-1.1,0.8
			S19.4,9,18.8,9C17.8,9,16.8,8.8,15.7,8.4z"/>
		<path class="st0" d="M28.4,8.5c-0.7-0.4-1.2-0.9-1.5-1.6c-0.4-0.7-0.6-1.5-0.6-2.3c0-0.9,0.2-1.7,0.6-2.3c0.4-0.7,0.9-1.2,1.5-1.6
			S29.8,0,30.7,0c0.8,0,1.6,0.2,2.2,0.6c0.7,0.4,1.2,0.9,1.5,1.6C34.8,2.9,35,3.6,35,4.5c0,0.9-0.2,1.7-0.6,2.3
			c-0.4,0.7-0.9,1.2-1.5,1.6C32.2,8.9,31.5,9,30.7,9C29.8,9,29.1,8.9,28.4,8.5z M32.3,7.7c0.5-0.3,0.9-0.7,1.2-1.3
			c0.3-0.6,0.4-1.2,0.4-1.9s-0.1-1.3-0.4-1.9s-0.7-1-1.2-1.3c-0.5-0.3-1.1-0.5-1.7-0.5S29.5,1,29,1.3c-0.5,0.3-0.9,0.7-1.2,1.3
			c-0.3,0.6-0.4,1.2-0.4,1.9c0,0.7,0.1,1.3,0.4,1.9c0.3,0.6,0.7,1,1.2,1.3c0.5,0.3,1,0.5,1.7,0.5S31.8,8,32.3,7.7z"/>
		<path class="st0" d="M37,0.2h5.6V1H38v3.3h4.1v0.8H38v3.7H37V0.2z"/>
		<path class="st0" d="M47.6,0.2h1.1L54,7.4V0.2h1v8.7H54l-5.3-7.3v7.3h-1V0.2z"/>
		<path class="st0" d="M59,8.5c-0.7-0.4-1.2-0.9-1.5-1.6s-0.6-1.5-0.6-2.3c0-0.9,0.2-1.7,0.6-2.3S58.4,1,59,0.6
			C59.7,0.2,60.5,0,61.3,0c0.8,0,1.6,0.2,2.2,0.6c0.7,0.4,1.2,0.9,1.5,1.6s0.6,1.5,0.6,2.3c0,0.9-0.2,1.7-0.6,2.3s-0.9,1.2-1.5,1.6
			C62.9,8.9,62.1,9,61.3,9C60.5,9,59.7,8.9,59,8.5z M63,7.7c0.5-0.3,0.9-0.7,1.2-1.3c0.3-0.6,0.4-1.2,0.4-1.9s-0.1-1.3-0.4-1.9
			c-0.3-0.6-0.7-1-1.2-1.3c-0.5-0.3-1.1-0.5-1.7-0.5S60.1,1,59.6,1.3c-0.5,0.3-0.9,0.7-1.2,1.3C58.2,3.2,58,3.8,58,4.5
			c0,0.7,0.1,1.3,0.4,1.9c0.3,0.6,0.7,1,1.2,1.3c0.5,0.3,1,0.5,1.7,0.5S62.5,8,63,7.7z"/>
		<path class="st0" d="M66.3,0.2h1.1l3,7.4l3-7.4h1.1l-3.6,8.7h-1L66.3,0.2z"/>
		<path class="st0" d="M76.1,0.2h5.6V1h-4.5v3h4.1v0.8h-4.1v3.2h4.7v0.8h-5.8V0.2z"/>
		<path class="st0" d="M83.9,0.2h1.1l3.2,4.4l3.2-4.4h1.1v8.7h-1V1.6l-3,4h-0.6l-2.9-4v7.3h-1V0.2z"/>
		<path class="st0" d="M95,0.2h3.5c0.5,0,0.9,0.1,1.3,0.3c0.4,0.2,0.7,0.5,0.9,0.8c0.2,0.3,0.3,0.7,0.3,1.2c0,0.4-0.1,0.8-0.4,1.2
			s-0.6,0.6-1,0.8c0.5,0.1,0.9,0.4,1.2,0.8c0.3,0.4,0.4,0.8,0.4,1.4c0,0.5-0.1,0.9-0.3,1.2c-0.2,0.4-0.5,0.6-1,0.8s-0.9,0.3-1.4,0.3
			H95V0.2z M98.4,4.1c0.5,0,0.9-0.1,1.2-0.4c0.3-0.3,0.5-0.7,0.5-1.1s-0.2-0.8-0.5-1.1C99.3,1.1,98.9,1,98.4,1H96v3.1H98.4z
			 M98.6,8.1c0.5,0,1-0.2,1.3-0.5s0.5-0.7,0.5-1.2s-0.2-0.9-0.5-1.2s-0.8-0.5-1.3-0.5H96v3.3H98.6z"/>
		<path class="st0" d="M103.5,0.2h5.6V1h-4.5v3h4.1v0.8h-4.1v3.2h4.7v0.8h-5.8V0.2z"/>
		<path class="st0" d="M111.2,0.2h3.3c0.5,0,1,0.1,1.5,0.3c0.4,0.2,0.8,0.5,1,0.9s0.4,0.8,0.4,1.4c0,0.7-0.2,1.2-0.6,1.7
			c-0.4,0.5-0.9,0.7-1.6,0.8l2.5,3.6h-1.2l-2.4-3.5h-1.9v3.5h-1V0.2z M114.4,4.6c0.6,0,1-0.2,1.4-0.5c0.4-0.3,0.5-0.8,0.5-1.3
			c0-0.5-0.2-1-0.5-1.3C115.4,1.2,115,1,114.4,1h-2.1v3.6H114.4z"/>
		<path class="st0" d="M121.9,8.2l3.4-3.4c0.7-0.7,1.1-1.4,1.1-2.1c0-0.5-0.2-1-0.5-1.3c-0.3-0.3-0.8-0.5-1.3-0.5
			c-0.3,0-0.7,0.1-1,0.2c-0.3,0.1-0.7,0.3-1.1,0.6l-0.4-0.8c1-0.6,1.9-0.9,2.8-0.9c0.5,0,1,0.1,1.4,0.3c0.4,0.2,0.7,0.5,1,0.9
			c0.2,0.4,0.3,0.8,0.3,1.3c0,0.5-0.1,0.9-0.3,1.4c-0.2,0.4-0.5,0.9-0.9,1.3L123.3,8h4.2v0.8h-5.6V8.2z"/>
		<path class="st0" d="M130.7,8.5c-0.5-0.4-0.9-0.9-1.2-1.6c-0.3-0.7-0.4-1.5-0.4-2.4s0.1-1.7,0.4-2.4c0.3-0.7,0.7-1.2,1.2-1.6
			c0.5-0.4,1.1-0.6,1.8-0.6c0.7,0,1.3,0.2,1.8,0.6c0.5,0.4,0.9,0.9,1.2,1.6c0.3,0.7,0.4,1.5,0.4,2.4s-0.1,1.7-0.4,2.4
			s-0.7,1.2-1.2,1.6c-0.5,0.4-1.1,0.6-1.8,0.6C131.8,9,131.2,8.9,130.7,8.5z M133.7,7.8c0.3-0.3,0.6-0.7,0.8-1.3
			c0.2-0.6,0.3-1.2,0.3-2c0-1.1-0.2-2-0.6-2.7c-0.4-0.7-1-1-1.7-1c-0.7,0-1.3,0.3-1.7,1c-0.4,0.7-0.6,1.6-0.6,2.7
			c0,0.8,0.1,1.4,0.3,2c0.2,0.6,0.5,1,0.8,1.3c0.3,0.3,0.8,0.4,1.2,0.4S133.4,8.1,133.7,7.8z"/>
		<path class="st0" d="M139.5,1.2l-2.3,1.3l-0.4-0.7l2.8-1.6h0.9v8.7h-1V1.2z"/>
		<path class="st0" d="M144.2,8.7c-0.5-0.2-0.8-0.5-1.1-0.9c-0.3-0.4-0.4-0.8-0.4-1.2c0-0.5,0.2-1,0.5-1.4c0.4-0.4,0.8-0.7,1.5-0.8
			c-0.5-0.1-1-0.4-1.3-0.8c-0.3-0.4-0.5-0.8-0.5-1.3c0-0.4,0.1-0.8,0.4-1.2c0.2-0.4,0.6-0.6,1-0.8s0.9-0.3,1.5-0.3s1,0.1,1.5,0.3
			s0.8,0.5,1,0.8c0.2,0.4,0.4,0.7,0.4,1.2c0,0.5-0.2,1-0.5,1.3c-0.3,0.4-0.8,0.6-1.3,0.8c0.6,0.1,1.1,0.4,1.5,0.8
			c0.4,0.4,0.5,0.9,0.5,1.4c0,0.5-0.1,0.9-0.4,1.2s-0.6,0.6-1.1,0.9c-0.5,0.2-1,0.3-1.6,0.3C145.2,9,144.6,8.9,144.2,8.7z
			 M147.2,7.8c0.4-0.3,0.6-0.7,0.6-1.2c0-0.5-0.2-0.9-0.5-1.2s-0.9-0.5-1.5-0.6c-0.6,0.1-1.1,0.3-1.5,0.6c-0.4,0.3-0.5,0.7-0.5,1.2
			c0,0.5,0.2,0.9,0.6,1.2s0.9,0.5,1.5,0.5C146.4,8.2,146.9,8.1,147.2,7.8z M147.1,3.5c0.3-0.3,0.5-0.7,0.5-1.1
			c0-0.4-0.2-0.8-0.5-1.1c-0.4-0.3-0.8-0.4-1.3-0.4c-0.5,0-1,0.1-1.3,0.4c-0.4,0.3-0.5,0.7-0.5,1.1c0,0.5,0.2,0.8,0.5,1.1
			c0.3,0.3,0.8,0.5,1.4,0.6C146.3,3.9,146.8,3.7,147.1,3.5z"/>
	</g>
	<path class="st3" d="M387.2,47.9H13.6C6.1,47.9,0,41.7,0,34.3v0c0-7.5,6.1-13.6,13.6-13.6h373.6c7.5,0,13.6,6.1,13.6,13.6v0
		C400.8,41.7,394.7,47.9,387.2,47.9z"/>
	<path class="st2" d="M98.5,47.9H13.6C6.1,47.9,0,41.7,0,34.3v0c0-7.5,6.1-13.6,13.6-13.6h84.9c7.5,0,13.6,6.1,13.6,13.6v0
		C112.1,41.7,106,47.9,98.5,47.9z"/>
</g>
</svg>
