<?xml version="1.0" encoding="utf-8"?>
<!-- Generator: Adobe Illustrator 22.1.0, SVG Export Plug-In . SVG Version: 6.00 Build 0)  -->
<svg version="1.1" id="Layer_1" xmlns="http://www.w3.org/2000/svg" xmlns:xlink="http://www.w3.org/1999/xlink" x="0px" y="0px"
	 viewBox="0 0 87.5 79.6" style="enable-background:new 0 0 87.5 79.6;" xml:space="preserve">
<style type="text/css">
	.st0{fill:#14C2F3;}
	.st1{fill:#FFFFFF;}
</style>
<g>
	<path class="st0" d="M35.4,12.9c0.8-4.5,4.7-8,9.5-8c4.7,0,8.7,3.4,9.5,7.9c1.8,0.4,3.4,0.8,5.1,1.4C59.3,6.3,52.8,0,44.9,0
		c-8,0-14.4,6.4-14.6,14.3C32,13.7,33.7,13.3,35.4,12.9z"/>
	<path class="st0" d="M82.4,39.6c-0.2,0-0.4,0-0.6,0.1c-3.2-13.7-18.5-24-37-24c-16.3,0-30.2,8.1-35.4,19.4H6.5
		C2.9,35.1,0,38,0,41.6v6.5c0,3.6,2.9,6.5,6.5,6.5h2.9c2.5,5.5,7,10.2,12.9,13.6v0c0.8,0.4,1.6,1.4,2.1,2.6c0.3,0.8,0.5,1.6,0.5,2.3
		v2v1.1v1.1c0,1.2,1,2.2,2.2,2.2h8.3c1.2,0,2.2-1,2.2-2.2v-1.1v-1.1v-1.3c0,0,0-0.1,0-0.1s0-0.1,0-0.1v-0.2l0,0
		c0.1-3.3,2.8-5.9,6.1-5.9c3.4,0,6.1,2.7,6.1,6.1c0,0,0,0,0,0v1.4v1.1v1.1c0,1.2,1,2.2,2.2,2.2h8.3c1.2,0,2.2-1,2.2-2.2v-1.1v-1.1
		v-0.6h0c0-0.8,0.1-1.7,0.5-2.6c0.5-1.2,1.3-2.2,2.1-2.6v0c8.5-4.3,14.7-11.2,16.6-19.3c0.2,0,0.4,0.1,0.6,0.1
		c2.8,0,5.1-2.3,5.1-5.1v-0.4C87.5,41.9,85.2,39.6,82.4,39.6z M55.3,28c-0.5,0-1-0.2-1.4-0.5l0,0l-0.4-0.2l0,0
		c-1.9-1.4-5-2.4-8.6-2.4c-3.4,0-6.5,0.9-8.4,2.2l0,0l-0.6,0.4l0,0C35.5,27.8,35,28,34.5,28c-1.3,0-2.3-1-2.3-2.3
		c0-0.6,0.2-1.1,0.6-1.5c0.1-0.1,0.1-0.2,0.2-0.2c2.3-2.2,6.8-3.7,11.9-3.7c5.2,0,9.6,1.5,11.9,3.7c0.1,0.1,0.1,0.1,0.2,0.2
		c0.3,0.4,0.6,0.9,0.6,1.5C57.6,27,56.6,28,55.3,28z"/>
</g>
<g>
	<g>
		<path class="st1" d="M31.5,44.9l-3.3,3.3l-0.7-0.8L32,43l4.5,4.5l-0.7,0.8l-3.3-3.3v10.6h-1V44.9z"/>
		<path class="st1" d="M39.1,52.7l5-5c1-1,1.5-2.1,1.5-3.2c0-0.8-0.3-1.5-0.8-2c-0.5-0.5-1.2-0.8-2.1-0.8c-0.5,0-1,0.1-1.5,0.3
			c-0.5,0.2-1,0.5-1.6,0.8l-0.4-0.7c1.3-0.8,2.5-1.2,3.6-1.2c0.7,0,1.3,0.1,1.9,0.4s1,0.7,1.3,1.2c0.3,0.5,0.5,1.1,0.5,1.8
			c0,0.6-0.1,1.3-0.4,1.9s-0.7,1.2-1.3,1.8l-4.5,4.5h6.3v0.7h-7.5V52.7z"/>
		<path class="st1" d="M49.8,47.1c-0.4-0.3-0.8-0.7-1-1.2c-0.2-0.5-0.4-1-0.4-1.7s0.1-1.2,0.4-1.7c0.2-0.5,0.6-0.9,1-1.2
			c0.4-0.3,0.9-0.4,1.5-0.4c0.6,0,1,0.1,1.5,0.4c0.4,0.3,0.8,0.7,1,1.2s0.4,1,0.4,1.7s-0.1,1.2-0.4,1.7c-0.2,0.5-0.6,0.9-1,1.2
			c-0.4,0.3-0.9,0.4-1.5,0.4C50.7,47.5,50.2,47.3,49.8,47.1z M52.9,46.2c0.4-0.5,0.6-1.1,0.6-1.9c0-0.8-0.2-1.4-0.6-1.9
			c-0.4-0.5-0.9-0.7-1.6-0.7c-0.6,0-1.2,0.2-1.6,0.7c-0.4,0.5-0.6,1.1-0.6,1.9c0,0.8,0.2,1.4,0.6,1.9c0.4,0.5,0.9,0.7,1.6,0.7
			C51.9,46.9,52.4,46.6,52.9,46.2z M59.4,41.2h0.8l-9.1,12.1h-0.8L59.4,41.2z M57.8,53.1c-0.4-0.3-0.8-0.7-1-1.2s-0.4-1.1-0.4-1.7
			c0-0.6,0.1-1.2,0.4-1.7c0.2-0.5,0.6-0.9,1-1.2c0.4-0.3,0.9-0.4,1.5-0.4c0.6,0,1,0.1,1.5,0.4c0.4,0.3,0.8,0.7,1,1.2
			c0.2,0.5,0.4,1.1,0.4,1.7c0,0.6-0.1,1.2-0.4,1.7c-0.2,0.5-0.6,0.9-1,1.2c-0.4,0.3-0.9,0.4-1.5,0.4C58.8,53.5,58.3,53.4,57.8,53.1z
			 M60.9,52.2c0.4-0.5,0.6-1.1,0.6-1.9c0-0.8-0.2-1.4-0.6-1.9c-0.4-0.5-0.9-0.7-1.6-0.7c-0.6,0-1.2,0.2-1.6,0.7s-0.6,1.1-0.6,1.9
			c0,0.8,0.2,1.4,0.6,1.9c0.4,0.5,0.9,0.7,1.6,0.7C59.9,52.9,60.5,52.7,60.9,52.2z"/>
	</g>
</g>
</svg>
