<?xml version="1.0" encoding="utf-8"?>
<!-- Generator: Adobe Illustrator 22.1.0, SVG Export Plug-In . SVG Version: 6.00 Build 0)  -->
<svg version="1.1" id="Layer_1" xmlns="http://www.w3.org/2000/svg" xmlns:xlink="http://www.w3.org/1999/xlink" x="0px" y="0px"
	 viewBox="0 0 387.7 83.6" style="enable-background:new 0 0 387.7 83.6;" xml:space="preserve">
<style type="text/css">
	.st0{fill:#D7DADD;}
	.st1{fill:#FDC662;}
	.st2{fill:#D85855;}
	.st3{fill:#313337;}
	.st4{fill:#58595B;}
</style>
<g>
	<path class="st0" d="M9.5,83.6H3c-1.7,0-3-1.4-3-3V47.9c0-1.6,1.3-3,3-3h6.5c1.6,0,3,1.4,3,3v32.7C12.5,82.3,11.1,83.6,9.5,83.6z"
		/>
	<path class="st0" d="M34.3,83.6h-6.5c-1.6,0-3-1.4-3-3V34.3c0-1.6,1.4-3,3-3h6.5c1.6,0,3,1.4,3,3v46.3C37.3,82.3,36,83.6,34.3,83.6
		z"/>
	<path class="st0" d="M59.2,83.6h-6.5c-1.7,0-3-1.4-3-3V24.3c0-1.6,1.3-3,3-3h6.5c1.6,0,3,1.4,3,3v56.3
		C62.2,82.3,60.8,83.6,59.2,83.6z"/>
	<path class="st0" d="M84,83.6h-6.5c-1.7,0-3-1.4-3-3V29.2c0-1.6,1.3-3,3-3H84c1.6,0,3,1.4,3,3v51.4C87,82.3,85.6,83.6,84,83.6z"/>
	<path class="st0" d="M108.8,83.6h-6.5c-1.6,0-3-1.4-3-3V15.2c0-1.6,1.4-3,3-3h6.5c1.6,0,3,1.4,3,3v65.4
		C111.8,82.3,110.5,83.6,108.8,83.6z"/>
	<path class="st0" d="M133.7,83.6h-6.5c-1.6,0-3-1.4-3-3V3c0-1.6,1.4-3,3-3h6.5c1.6,0,3,1.4,3,3v77.6
		C136.7,82.3,135.3,83.6,133.7,83.6z"/>
	<path class="st0" d="M158.5,83.6H152c-1.6,0-3-1.4-3-3V15.2c0-1.6,1.4-3,3-3h6.5c1.7,0,3,1.4,3,3v65.4
		C161.5,82.3,160.2,83.6,158.5,83.6z"/>
	<path class="st0" d="M183.3,83.6h-6.5c-1.6,0-3-1.4-3-3V15.2c0-1.6,1.4-3,3-3h6.5c1.7,0,3,1.4,3,3v65.4
		C186.3,82.3,185,83.6,183.3,83.6z"/>
	<path class="st1" d="M208.2,83.6h-6.5c-1.6,0-3-1.4-3-3V18.3c0-1.6,1.4-3,3-3h6.5c1.7,0,3,1.4,3,3v62.3
		C211.2,82.3,209.8,83.6,208.2,83.6z"/>
</g>
<g>
	<g>
		<path class="st2" d="M237.4,15.9l0.7-0.8l3.3,3.3V7.8h1v10.7l3.3-3.3l0.7,0.8l-4.5,4.5L237.4,15.9z"/>
		<path class="st3" d="M253.5,17.6c-0.6-0.5-1.1-1.2-1.5-2.2c-0.4-0.9-0.5-2.1-0.5-3.3s0.2-2.4,0.5-3.3c0.4-0.9,0.9-1.7,1.5-2.2
			s1.4-0.8,2.3-0.8c0.9,0,1.6,0.3,2.3,0.8c0.6,0.5,1.1,1.2,1.5,2.2c0.4,0.9,0.5,2.1,0.5,3.3s-0.2,2.4-0.5,3.3
			c-0.4,0.9-0.9,1.7-1.5,2.2s-1.4,0.8-2.3,0.8S254.1,18.1,253.5,17.6z M257.6,17c0.5-0.5,0.9-1.1,1.2-1.9s0.4-1.8,0.4-2.9
			s-0.1-2.1-0.4-2.9s-0.7-1.5-1.2-1.9c-0.5-0.5-1.1-0.7-1.8-0.7s-1.3,0.2-1.8,0.7s-0.9,1.1-1.2,1.9s-0.4,1.8-0.4,2.9
			s0.1,2.1,0.4,2.9s0.7,1.5,1.2,1.9c0.5,0.5,1.1,0.7,1.8,0.7C256.4,17.6,257,17.4,257.6,17z"/>
		<path class="st3" d="M261.6,18.1c-0.1-0.1-0.2-0.3-0.2-0.5s0.1-0.4,0.2-0.5c0.1-0.1,0.3-0.2,0.5-0.2s0.4,0.1,0.5,0.2
			s0.2,0.3,0.2,0.5s-0.1,0.4-0.2,0.5c-0.1,0.1-0.3,0.2-0.5,0.2S261.8,18.3,261.6,18.1z"/>
		<path class="st3" d="M269.1,7l-3.4,1.9l-0.3-0.6l3.8-2.2h0.7v12.1h-0.8V7z"/>
		<path class="st3" d="M275.9,18c-0.6-0.3-1.1-0.7-1.4-1.1c-0.3-0.5-0.5-1.1-0.5-1.7c0-0.8,0.3-1.5,0.8-2c0.5-0.6,1.3-0.9,2.2-1.1
			c-0.8-0.2-1.5-0.5-2-1.1c-0.5-0.5-0.8-1.2-0.8-1.9c0-0.6,0.2-1.1,0.5-1.6s0.8-0.8,1.3-1.1c0.6-0.3,1.2-0.4,1.9-0.4
			s1.4,0.1,1.9,0.4c0.6,0.3,1,0.6,1.4,1.1c0.3,0.5,0.5,1,0.5,1.6c0,0.8-0.3,1.4-0.8,1.9s-1.2,0.9-2,1.1c1,0.2,1.7,0.6,2.2,1.1
			c0.5,0.6,0.8,1.2,0.8,2c0,0.6-0.2,1.2-0.5,1.7s-0.8,0.9-1.4,1.1c-0.6,0.3-1.3,0.4-2.1,0.4S276.5,18.2,275.9,18z M280.3,17
			c0.6-0.5,0.9-1.1,0.9-1.9c0-0.7-0.3-1.3-0.9-1.8c-0.6-0.5-1.4-0.8-2.3-0.9c-1,0.1-1.8,0.5-2.3,0.9c-0.6,0.5-0.9,1.1-0.9,1.8
			c0,0.8,0.3,1.4,0.9,1.9c0.6,0.5,1.4,0.7,2.3,0.7C279,17.7,279.7,17.4,280.3,17z M280.2,10.7c0.5-0.5,0.8-1,0.8-1.7
			c0-0.5-0.1-0.9-0.4-1.3S280,7,279.5,6.8s-1-0.3-1.5-0.3c-0.6,0-1.1,0.1-1.5,0.3c-0.5,0.2-0.8,0.5-1.1,0.9S275,8.5,275,9
			c0,0.7,0.3,1.3,0.8,1.7s1.3,0.8,2.1,0.9C278.9,11.5,279.6,11.2,280.2,10.7z"/>
		<path class="st3" d="M284.6,11.9c-0.4-0.3-0.8-0.7-1-1.2s-0.4-1-0.4-1.7s0.1-1.2,0.4-1.7c0.2-0.5,0.6-0.9,1-1.2
			c0.4-0.3,0.9-0.4,1.5-0.4s1,0.1,1.5,0.4c0.4,0.3,0.8,0.7,1,1.2s0.4,1,0.4,1.7s-0.1,1.2-0.4,1.7c-0.2,0.5-0.6,0.9-1,1.2
			c-0.4,0.3-0.9,0.4-1.5,0.4S285,12.2,284.6,11.9z M287.6,11c0.4-0.5,0.6-1.1,0.6-1.9s-0.2-1.4-0.6-1.9c-0.4-0.5-0.9-0.7-1.6-0.7
			c-0.6,0-1.2,0.2-1.6,0.7c-0.4,0.5-0.6,1.1-0.6,1.9s0.2,1.4,0.6,1.9c0.4,0.5,0.9,0.7,1.6,0.7C286.7,11.7,287.2,11.5,287.6,11z
			 M294.2,6.1h0.8l-9.1,12.1h-0.8L294.2,6.1z M292.6,18c-0.4-0.3-0.8-0.7-1-1.2s-0.4-1.1-0.4-1.7s0.1-1.2,0.4-1.7
			c0.2-0.5,0.6-0.9,1-1.2c0.4-0.3,0.9-0.4,1.5-0.4s1,0.1,1.5,0.4c0.4,0.3,0.8,0.7,1,1.2s0.4,1.1,0.4,1.7s-0.1,1.2-0.4,1.7
			s-0.6,0.9-1,1.2c-0.4,0.3-0.9,0.4-1.5,0.4S293.1,18.2,292.6,18z M295.7,17.1c0.4-0.5,0.6-1.1,0.6-1.9s-0.2-1.4-0.6-1.9
			c-0.4-0.5-0.9-0.7-1.6-0.7c-0.6,0-1.2,0.2-1.6,0.7c-0.4,0.5-0.6,1.1-0.6,1.9s0.2,1.4,0.6,1.9c0.4,0.5,0.9,0.7,1.6,0.7
			C294.7,17.8,295.3,17.5,295.7,17.1z"/>
	</g>
</g>
<g>
	<g>
		<path class="st4" d="M236.6,73.7h3.8c0.5,0,1,0.1,1.4,0.3c0.4,0.2,0.7,0.5,1,0.9c0.2,0.4,0.4,0.8,0.4,1.3s-0.1,0.9-0.4,1.3
			c-0.3,0.4-0.6,0.6-1.1,0.8c0.5,0.2,1,0.4,1.3,0.9s0.5,0.9,0.5,1.5c0,0.5-0.1,0.9-0.4,1.3c-0.2,0.4-0.6,0.7-1,0.9
			c-0.4,0.2-0.9,0.3-1.5,0.3h-4V73.7z M240.2,78c0.5,0,1-0.2,1.3-0.5s0.5-0.7,0.5-1.2s-0.2-0.9-0.5-1.2c-0.3-0.3-0.8-0.5-1.3-0.5
			h-2.5v3.3h2.5V78z M240.4,82.3c0.6,0,1-0.2,1.4-0.5s0.5-0.8,0.5-1.3s-0.2-0.9-0.5-1.3s-0.8-0.5-1.4-0.5h-2.7v3.6L240.4,82.3
			L240.4,82.3z"/>
		<path class="st4" d="M245.7,82.9c-0.5-0.3-0.8-0.7-1.1-1.3c-0.3-0.5-0.4-1.2-0.4-1.8c0-0.7,0.1-1.3,0.4-1.8c0.3-0.5,0.6-1,1.1-1.3
			s1-0.5,1.6-0.5c0.5,0,0.9,0.1,1.3,0.3c0.4,0.2,0.7,0.5,0.9,0.9l0.1-1.1h1v6.8h-0.9l-0.1-1.1c-0.2,0.4-0.6,0.7-1,1
			s-0.9,0.3-1.4,0.3C246.7,83.3,246.2,83.2,245.7,82.9z M249,81.8c0.4-0.4,0.6-0.9,0.6-1.5v-1.1c0-0.6-0.2-1.1-0.6-1.5
			c-0.4-0.4-0.9-0.6-1.4-0.6c-0.4,0-0.8,0.1-1.1,0.3s-0.6,0.5-0.8,0.9s-0.3,0.9-0.3,1.4s0.1,1,0.3,1.4s0.4,0.7,0.8,0.9
			c0.3,0.2,0.7,0.3,1.1,0.3C248.1,82.4,248.6,82.2,249,81.8z"/>
		<path class="st4" d="M252.6,82.9c-0.3-0.3-0.5-0.7-0.5-1.2v-8.4h1.1v8.3c0,0.3,0.1,0.5,0.2,0.6s0.4,0.2,0.6,0.2
			c0.2,0,0.4,0,0.7-0.1l0.1,0.9c-0.4,0.1-0.7,0.1-1,0.1C253.3,83.3,252.9,83.2,252.6,82.9z"/>
		<path class="st4" d="M256.3,82.9c-0.5-0.3-0.8-0.7-1.1-1.3c-0.3-0.5-0.4-1.2-0.4-1.8c0-0.7,0.1-1.3,0.4-1.8c0.3-0.5,0.6-1,1.1-1.3
			s1-0.5,1.6-0.5c0.5,0,0.9,0.1,1.3,0.3c0.4,0.2,0.7,0.5,0.9,0.9l0.1-1.1h1v6.8h-0.9l-0.1-1.1c-0.2,0.4-0.6,0.7-1,1
			s-0.9,0.3-1.4,0.3C257.3,83.3,256.7,83.2,256.3,82.9z M259.6,81.8c0.4-0.4,0.6-0.9,0.6-1.5v-1.1c0-0.6-0.2-1.1-0.6-1.5
			c-0.4-0.4-0.9-0.6-1.4-0.6c-0.4,0-0.8,0.1-1.1,0.3s-0.6,0.5-0.8,0.9s-0.3,0.9-0.3,1.4s0.1,1,0.3,1.4s0.4,0.7,0.8,0.9
			c0.3,0.2,0.7,0.3,1.1,0.3C258.7,82.4,259.2,82.2,259.6,81.8z"/>
		<path class="st4" d="M262.7,76.4h0.9l0.1,1.2c0.2-0.4,0.6-0.8,1-1s0.9-0.4,1.5-0.4c0.5,0,0.9,0.1,1.3,0.3c0.4,0.2,0.7,0.5,0.9,0.9
			s0.3,0.8,0.3,1.3v4.4h-1.1v-4.3c0-0.5-0.2-0.9-0.5-1.3s-0.8-0.5-1.3-0.5c-0.6,0-1.1,0.2-1.5,0.6s-0.6,0.9-0.6,1.6V83h-1.1
			L262.7,76.4L262.7,76.4z"/>
		<path class="st4" d="M271.4,82.9c-0.5-0.3-0.9-0.7-1.2-1.3s-0.4-1.2-0.4-1.8c0-0.7,0.1-1.3,0.4-1.8s0.7-1,1.2-1.3s1.1-0.5,1.8-0.5
			c0.8,0,1.6,0.3,2.4,0.8l-0.5,0.8c-0.6-0.4-1.2-0.6-1.8-0.6c-0.5,0-0.9,0.1-1.3,0.3s-0.7,0.5-0.9,0.9s-0.3,0.9-0.3,1.4
			s0.1,1,0.3,1.4s0.5,0.7,0.9,0.9c0.4,0.2,0.8,0.3,1.3,0.3c0.6,0,1.2-0.2,1.8-0.6l0.5,0.8c-0.8,0.5-1.6,0.8-2.4,0.8
			C272.5,83.3,271.9,83.2,271.4,82.9z"/>
		<path class="st4" d="M277.4,82.9c-0.5-0.3-1-0.7-1.3-1.3c-0.3-0.5-0.5-1.2-0.5-1.8c0-0.7,0.1-1.3,0.4-1.8s0.7-1,1.2-1.3
			s1.1-0.5,1.7-0.5c0.6,0,1.1,0.1,1.6,0.4s0.8,0.7,1.1,1.2s0.4,1.1,0.4,1.8c0,0.2,0,0.3,0,0.4h-5.3c0,0.7,0.3,1.3,0.8,1.8
			c0.5,0.4,1.1,0.7,1.8,0.7s1.3-0.2,2.1-0.6l0.4,0.8c-0.9,0.4-1.7,0.7-2.5,0.7C278.6,83.3,278,83.2,277.4,82.9z M281,79.3
			c0-0.7-0.2-1.2-0.6-1.6c-0.4-0.4-0.8-0.6-1.4-0.6c-0.6,0-1.1,0.2-1.5,0.6s-0.6,1-0.7,1.7h4.2V79.3z"/>
		<path class="st4" d="M286.7,82.9c-0.5-0.3-0.8-0.7-1.1-1.3c-0.3-0.5-0.4-1.2-0.4-1.8c0-0.7,0.1-1.3,0.4-1.8c0.3-0.5,0.6-1,1.1-1.3
			s1-0.5,1.6-0.5c0.5,0,0.9,0.1,1.3,0.3c0.4,0.2,0.7,0.5,0.9,0.9l0.1-1.1h1v6.8h-0.9l-0.1-1.1c-0.2,0.4-0.6,0.7-1,1
			c-0.4,0.2-0.9,0.3-1.4,0.3C287.7,83.3,287.2,83.2,286.7,82.9z M290,81.8c0.4-0.4,0.6-0.9,0.6-1.5v-1.1c0-0.6-0.2-1.1-0.6-1.5
			s-0.9-0.6-1.4-0.6c-0.4,0-0.8,0.1-1.1,0.3s-0.6,0.5-0.8,0.9s-0.3,0.9-0.3,1.4s0.1,1,0.3,1.4s0.4,0.7,0.8,0.9
			c0.3,0.2,0.7,0.3,1.1,0.3C289.1,82.4,289.6,82.2,290,81.8z"/>
		<path class="st4" d="M292.7,82.8L293,82c0.8,0.3,1.5,0.5,2.2,0.5c0.5,0,0.8-0.1,1.1-0.3s0.4-0.5,0.4-0.8c0-0.2-0.1-0.4-0.2-0.6
			s-0.3-0.3-0.5-0.4s-0.5-0.2-0.9-0.3c-0.5-0.1-0.9-0.3-1.2-0.4s-0.6-0.3-0.8-0.6c-0.2-0.3-0.3-0.6-0.3-1.1c0-0.4,0.1-0.7,0.3-1
			s0.5-0.5,0.9-0.7s0.8-0.2,1.3-0.2c0.7,0,1.5,0.2,2.3,0.5l-0.3,0.8c-0.7-0.3-1.4-0.4-2-0.4c-0.4,0-0.8,0.1-1.1,0.3
			c-0.3,0.2-0.4,0.4-0.4,0.8c0,0.3,0.1,0.6,0.4,0.7c0.3,0.2,0.7,0.3,1.2,0.5c0.5,0.1,0.9,0.3,1.2,0.4s0.6,0.3,0.8,0.6
			s0.3,0.6,0.3,1.1c0,0.6-0.2,1-0.7,1.4s-1.1,0.5-1.8,0.5C294.4,83.3,293.6,83.2,292.7,82.8z"/>
		<path class="st4" d="M302.6,82.9c-0.5-0.3-0.9-0.7-1.2-1.3s-0.4-1.2-0.4-1.8c0-0.7,0.1-1.3,0.4-1.8s0.7-1,1.2-1.3s1.1-0.5,1.8-0.5
			s1.3,0.2,1.8,0.5s0.9,0.7,1.2,1.3s0.4,1.2,0.4,1.8c0,0.7-0.1,1.3-0.4,1.8s-0.7,1-1.2,1.3s-1.1,0.5-1.8,0.5
			C303.7,83.3,303.1,83.2,302.6,82.9z M305.6,82.1c0.4-0.2,0.6-0.5,0.8-0.9s0.3-0.9,0.3-1.4s-0.1-1-0.3-1.4s-0.5-0.7-0.8-1
			c-0.4-0.2-0.8-0.3-1.2-0.3s-0.8,0.1-1.2,0.3c-0.4,0.2-0.6,0.5-0.8,1c-0.2,0.4-0.3,0.9-0.3,1.4s0.1,1,0.3,1.4s0.5,0.7,0.8,0.9
			c0.4,0.2,0.8,0.3,1.2,0.3S305.2,82.3,305.6,82.1z"/>
		<path class="st4" d="M309.2,77.2h-1.4v-0.9h1.4v-1.2c0-0.6,0.2-1.1,0.6-1.4c0.4-0.4,0.9-0.5,1.5-0.5c0.4,0,0.8,0.1,1.3,0.2
			l-0.2,0.9c-0.4-0.1-0.7-0.1-0.9-0.1c-0.4,0-0.7,0.1-0.9,0.3c-0.2,0.2-0.3,0.5-0.3,0.9v1.1h1.9v0.9h-1.9v5.9h-1.1L309.2,77.2
			L309.2,77.2z"/>
		<path class="st4" d="M315.7,73.7h1.1l5.7,7.8v-7.8h1.1v9.4h-1.1l-5.7-7.8v7.8h-1.1V73.7z"/>
		<path class="st4" d="M326.7,82.9c-0.5-0.3-0.9-0.7-1.2-1.3s-0.4-1.2-0.4-1.8c0-0.7,0.1-1.3,0.4-1.8s0.7-1,1.2-1.3s1.1-0.5,1.8-0.5
			s1.3,0.2,1.8,0.5s0.9,0.7,1.2,1.3s0.4,1.2,0.4,1.8c0,0.7-0.1,1.3-0.4,1.8s-0.7,1-1.2,1.3s-1.1,0.5-1.8,0.5
			C327.8,83.3,327.2,83.2,326.7,82.9z M329.7,82.1c0.4-0.2,0.6-0.5,0.8-0.9s0.3-0.9,0.3-1.4s-0.1-1-0.3-1.4s-0.5-0.7-0.8-1
			c-0.4-0.2-0.8-0.3-1.2-0.3s-0.8,0.1-1.2,0.3c-0.4,0.2-0.6,0.5-0.8,1c-0.2,0.4-0.3,0.9-0.3,1.4s0.1,1,0.3,1.4s0.5,0.7,0.8,0.9
			c0.4,0.2,0.8,0.3,1.2,0.3S329.3,82.3,329.7,82.1z"/>
		<path class="st4" d="M332,76.4h1.2l2.2,5.5l2.1-5.5h1.2l-2.8,6.8h-1L332,76.4z"/>
		<path class="st4" d="M344.9,74.9l-2.4,1.4l-0.4-0.8l3-1.7h0.9v9.4h-1.1V74.9z"/>
		<path class="st4" d="M348.8,82.4l3.7-3.7c0.8-0.8,1.1-1.5,1.1-2.3c0-0.6-0.2-1-0.6-1.4c-0.4-0.4-0.9-0.5-1.4-0.5
			c-0.4,0-0.7,0.1-1.1,0.2c-0.4,0.1-0.8,0.3-1.2,0.6l-0.4-0.8c1-0.6,2-0.9,3-0.9c0.6,0,1.1,0.1,1.5,0.4s0.8,0.6,1,1s0.4,0.9,0.4,1.4
			s-0.1,1-0.3,1.5s-0.6,0.9-1,1.4l-3.1,3.1h4.5v0.9h-6v-0.9H348.8z"/>
		<path class="st4" d="M358.8,82.4l3.7-3.7c0.8-0.8,1.1-1.5,1.1-2.3c0-0.6-0.2-1-0.6-1.4c-0.4-0.4-0.9-0.5-1.4-0.5
			c-0.4,0-0.7,0.1-1.1,0.2c-0.4,0.1-0.8,0.3-1.2,0.6l-0.4-0.8c1-0.6,2-0.9,3-0.9c0.6,0,1.1,0.1,1.5,0.4c0.4,0.2,0.8,0.6,1,1
			s0.4,0.9,0.4,1.4s-0.1,1-0.3,1.5s-0.6,0.9-1,1.4l-3.1,3.1h4.5v0.9h-6v-0.9H358.8z"/>
		<path class="st4" d="M367.6,82.7c-0.5-0.4-0.9-1-1.2-1.7s-0.4-1.6-0.4-2.6s0.1-1.8,0.4-2.6c0.3-0.7,0.7-1.3,1.2-1.7
			c0.5-0.4,1.1-0.6,1.8-0.6s1.3,0.2,1.8,0.6s0.9,1,1.2,1.7s0.4,1.6,0.4,2.6s-0.1,1.9-0.4,2.6c-0.3,0.7-0.7,1.3-1.2,1.7
			c-0.5,0.4-1.1,0.6-1.8,0.6C368.7,83.3,368.1,83.1,367.6,82.7z M370.7,81.9c0.4-0.3,0.6-0.8,0.8-1.4s0.3-1.3,0.3-2.1
			c0-0.8-0.1-1.5-0.3-2.1s-0.5-1-0.8-1.4s-0.8-0.5-1.3-0.5s-0.9,0.2-1.3,0.5s-0.6,0.8-0.8,1.4s-0.3,1.3-0.3,2.1
			c0,0.8,0.1,1.5,0.3,2.1s0.5,1,0.8,1.4s0.8,0.5,1.3,0.5S370.4,82.2,370.7,81.9z"/>
		<path class="st4" d="M377,74.9l-2.4,1.4l-0.4-0.8l3-1.7h0.9v9.4H377V74.9z"/>
		<path class="st4" d="M382.5,83c-0.5-0.2-0.9-0.5-1.2-0.9s-0.4-0.8-0.4-1.3c0-0.6,0.2-1.1,0.6-1.5c0.4-0.4,0.9-0.7,1.6-0.9
			c-0.6-0.1-1-0.4-1.4-0.8s-0.5-0.9-0.5-1.4s0.1-0.9,0.4-1.3c0.3-0.4,0.6-0.7,1.1-0.9s1-0.3,1.6-0.3s1.1,0.1,1.6,0.3
			s0.8,0.5,1.1,0.9s0.4,0.8,0.4,1.3c0,0.6-0.2,1-0.5,1.4c-0.4,0.4-0.8,0.7-1.4,0.8c0.7,0.2,1.2,0.5,1.6,0.9c0.4,0.4,0.6,0.9,0.6,1.5
			c0,0.5-0.1,1-0.4,1.3c-0.3,0.4-0.7,0.7-1.2,0.9c-0.5,0.2-1.1,0.3-1.7,0.3C383.5,83.3,383,83.2,382.5,83z M385.7,82
			c0.4-0.3,0.6-0.8,0.6-1.3s-0.2-0.9-0.6-1.3c-0.4-0.3-0.9-0.5-1.6-0.7c-0.7,0.1-1.2,0.3-1.6,0.7s-0.6,0.8-0.6,1.3s0.2,0.9,0.6,1.3
			c0.4,0.3,0.9,0.5,1.6,0.5S385.3,82.3,385.7,82z M385.6,77.3c0.4-0.3,0.5-0.7,0.5-1.2s-0.2-0.9-0.6-1.2c-0.4-0.3-0.9-0.5-1.4-0.5
			c-0.6,0-1,0.2-1.4,0.5s-0.6,0.7-0.6,1.2s0.2,0.9,0.5,1.2c0.4,0.3,0.8,0.5,1.5,0.6C384.8,77.8,385.3,77.6,385.6,77.3z"/>
	</g>
</g>
<g>
	<g>
		<path class="st4" d="M244,57.8c-1.9-0.1-3.9-0.6-6.1-1.5l0.7-2.2c1.9,0.8,3.7,1.3,5.5,1.5v-7.3c-1.2-0.3-2.3-0.7-3.1-1.1
			s-1.5-1-2.1-1.7c-0.5-0.8-0.8-1.7-0.8-2.9c0-1.5,0.5-2.7,1.6-3.7s2.5-1.6,4.3-1.8v-5.8h2.4v5.8c1.5,0.1,3.3,0.6,5.4,1.4l-0.7,2.2
			c-1.8-0.7-3.4-1.2-4.8-1.4v7c1.3,0.3,2.3,0.7,3.2,1.1s1.6,1,2.1,1.8c0.6,0.8,0.8,1.8,0.8,3.1c0,1.5-0.5,2.8-1.6,3.8
			s-2.6,1.6-4.4,1.8v5.8H244L244,57.8L244,57.8z M244.1,39.3c-1,0.2-1.8,0.6-2.3,1.1c-0.6,0.6-0.8,1.2-0.8,2s0.3,1.5,0.8,1.9
			c0.5,0.5,1.3,0.9,2.3,1.2V39.3z M248.8,54.4c0.6-0.6,0.9-1.3,0.9-2.2c0-0.8-0.3-1.5-0.9-2s-1.4-0.9-2.4-1.3v6.6
			C247.4,55.3,248.2,55,248.8,54.4z"/>
		<path class="st4" d="M257.9,56.8c-1.5-1.9-2.3-4.5-2.3-8c0-4.3,0.8-7.7,2.5-10c1.7-2.4,4.1-3.5,7.1-3.5c2,0,3.9,0.5,5.7,1.4
			l-0.9,2.1c-1.7-0.8-3.2-1.2-4.7-1.2c-2.3,0-4,0.9-5.2,2.7c-1.2,1.8-1.9,4.3-1.9,7.7c0.5-1.1,1.3-2,2.5-2.7c1.1-0.7,2.4-1,3.9-1
			s2.8,0.3,3.9,0.9c1.1,0.6,2,1.5,2.6,2.7c0.6,1.1,0.9,2.5,0.9,3.9c0,1.5-0.3,2.8-1,4s-1.6,2.1-2.8,2.8c-1.2,0.7-2.5,1-4,1
			C261.5,59.6,259.5,58.6,257.9,56.8z M266.8,56.6c0.8-0.5,1.5-1.2,1.9-2c0.5-0.9,0.7-1.8,0.7-2.8c0-1.6-0.5-3-1.5-4
			s-2.3-1.5-3.8-1.5c-1,0-2,0.2-2.8,0.7c-0.9,0.4-1.5,1-2,1.8s-0.7,1.6-0.7,2.5c0,1.2,0.2,2.2,0.7,3.1s1.1,1.6,2,2.2
			c0.8,0.5,1.8,0.8,2.8,0.8C265.1,57.3,266,57.1,266.8,56.6z"/>
		<path class="st4" d="M277.8,58.8c-1.2-0.5-2.2-1.3-2.9-2.3s-1.1-2.1-1.1-3.4c0-1.5,0.5-2.7,1.4-3.8c0.9-1.1,2.3-1.8,4-2.2
			c-1.4-0.4-2.6-1.1-3.5-2.1s-1.3-2.2-1.3-3.6c0-1.2,0.3-2.3,1-3.2c0.7-0.9,1.6-1.7,2.7-2.2c1.2-0.5,2.5-0.8,4-0.8s2.8,0.3,4,0.8
			s2.1,1.3,2.7,2.2c0.7,0.9,1,2,1,3.2c0,1.4-0.4,2.6-1.3,3.6c-0.9,1-2.1,1.7-3.5,2.1c1.7,0.4,3.1,1.1,4,2.2s1.4,2.3,1.4,3.8
			c0,1.3-0.3,2.4-1,3.4s-1.7,1.7-2.9,2.3s-2.7,0.8-4.3,0.8C280.4,59.6,279,59.3,277.8,58.8z M286,56.2c1-0.8,1.5-1.9,1.5-3.2
			c0-1.3-0.5-2.3-1.5-3.2c-1-0.8-2.3-1.4-4-1.6c-1.7,0.3-3,0.8-4,1.6c-1,0.8-1.5,1.9-1.5,3.2c0,1.3,0.5,2.4,1.5,3.2
			c1,0.8,2.3,1.2,3.9,1.2C283.7,57.4,285,57,286,56.2z M285.7,44.5c0.9-0.8,1.4-1.8,1.4-3s-0.5-2.2-1.4-3c-1-0.8-2.1-1.2-3.6-1.2
			c-1.4,0-2.6,0.4-3.6,1.2c-1,0.8-1.4,1.8-1.4,3s0.5,2.2,1.4,3s2.1,1.3,3.6,1.5C283.6,45.8,284.8,45.3,285.7,44.5z"/>
		<path class="st4" d="M292.1,63.6c1.6-1.2,2.5-2.6,2.6-4.2c-0.5,0-1-0.1-1.3-0.5c-0.3-0.3-0.5-0.8-0.5-1.3c0-0.6,0.2-1.1,0.5-1.4
			c0.4-0.4,0.8-0.5,1.4-0.5c0.6,0,1.1,0.2,1.5,0.7s0.6,1.1,0.6,2c0,1.3-0.3,2.5-1,3.6s-1.6,2.1-2.9,2.9L292.1,63.6z"/>
		<path class="st4" d="M299.9,58.2l0.9-2.1c1.7,0.8,3.2,1.2,4.7,1.2c2.3,0,4-0.9,5.2-2.7c1.2-1.8,1.9-4.3,1.9-7.7
			c-0.5,1.1-1.3,2-2.5,2.7c-1.1,0.7-2.4,1-3.8,1c-1.5,0-2.8-0.3-3.9-0.9s-2-1.5-2.6-2.7c-0.6-1.1-0.9-2.4-0.9-3.9s0.3-2.8,1-4
			s1.6-2.1,2.8-2.8c1.2-0.7,2.5-1,4-1c2.7,0,4.7,0.9,6.3,2.8s2.3,4.5,2.3,8c0,4.3-0.8,7.7-2.5,10c-1.7,2.4-4.1,3.5-7.1,3.5
			C303.7,59.6,301.8,59.1,299.9,58.2z M309.7,47.8c0.9-0.4,1.5-1,2-1.8s0.7-1.6,0.7-2.5c0-1.2-0.2-2.2-0.7-3.1s-1.1-1.6-2-2.2
			s-1.8-0.8-2.8-0.8s-1.9,0.2-2.7,0.7s-1.5,1.2-1.9,2c-0.5,0.9-0.7,1.8-0.7,2.8c0,1.6,0.5,3,1.5,4s2.3,1.5,3.9,1.5
			C307.9,48.5,308.8,48.3,309.7,47.8z"/>
		<path class="st4" d="M326.2,38.4l-6.1,3.5l-1-2l7.5-4.3h2.3v23.5h-2.8L326.2,38.4L326.2,38.4z"/>
		<path class="st4" d="M339.6,58.1c-1.3-1-2.3-2.4-3-4.2c-0.7-1.8-1-4-1-6.5s0.3-4.6,1-6.5c0.7-1.8,1.7-3.2,3-4.2s2.8-1.5,4.6-1.5
			s3.3,0.5,4.6,1.5s2.3,2.4,3,4.2c0.7,1.8,1.1,4,1.1,6.5s-0.4,4.6-1.1,6.5c-0.7,1.8-1.7,3.2-3,4.2s-2.8,1.5-4.6,1.5
			S340.9,59.1,339.6,58.1z M347.3,56c0.9-0.8,1.6-1.9,2.1-3.4s0.7-3.2,0.7-5.2s-0.2-3.8-0.7-5.2s-1.2-2.6-2.1-3.4
			c-0.9-0.8-2-1.2-3.2-1.2s-2.3,0.4-3.2,1.2c-0.9,0.8-1.6,1.9-2.1,3.4s-0.7,3.2-0.7,5.2s0.2,3.7,0.7,5.2s1.2,2.6,2.1,3.4
			c0.9,0.8,2,1.2,3.2,1.2S346.4,56.8,347.3,56z"/>
		<path class="st4" d="M355.3,58.9c-0.4-0.4-0.5-0.8-0.5-1.3c0-0.6,0.2-1,0.5-1.4c0.4-0.4,0.8-0.5,1.4-0.5c0.5,0,1,0.2,1.4,0.5
			c0.4,0.4,0.5,0.8,0.5,1.4c0,0.5-0.2,1-0.5,1.3c-0.4,0.4-0.8,0.5-1.4,0.5C356.2,59.5,355.7,59.3,355.3,58.9z"/>
		<path class="st4" d="M366.7,44.4l-4.4,2.5l-0.7-1.4l5.4-3.1h1.7v16.8h-2V44.4z"/>
		<path class="st4" d="M373.7,57.9l6.6-6.6c1.4-1.4,2-2.7,2-4.1c0-1-0.3-1.9-1-2.5s-1.5-1-2.6-1c-0.7,0-1.3,0.1-2,0.4
			c-0.7,0.2-1.4,0.6-2.1,1.1l-0.8-1.5c1.8-1.1,3.6-1.7,5.3-1.7c1,0,1.9,0.2,2.7,0.6s1.4,1,1.8,1.8c0.4,0.8,0.7,1.6,0.7,2.5
			s-0.2,1.8-0.6,2.6s-1,1.7-1.8,2.5l-5.4,5.5h8.1v1.6h-10.8L373.7,57.9L373.7,57.9z"/>
	</g>
</g>
</svg>
