<?xml version="1.0" encoding="utf-8"?>
<!-- Generator: Adobe Illustrator 22.1.0, SVG Export Plug-In . SVG Version: 6.00 Build 0)  -->
<svg version="1.1" id="Layer_1" xmlns="http://www.w3.org/2000/svg" xmlns:xlink="http://www.w3.org/1999/xlink" x="0px" y="0px"
	 viewBox="0 0 404 86.1" style="enable-background:new 0 0 404 86.1;" xml:space="preserve">
<style type="text/css">
	.st0{fill:url(#SVGID_1_);}
	.st1{fill:url(#SVGID_2_);}
	.st2{fill:url(#SVGID_3_);}
	.st3{fill:url(#SVGID_4_);}
	.st4{fill:url(#SVGID_5_);}
	.st5{fill:url(#SVGID_6_);}
	.st6{fill:url(#SVGID_7_);}
	.st7{fill:url(#SVGID_8_);}
	.st8{fill:url(#SVGID_9_);}
	.st9{fill:#D85855;}
	.st10{fill:#313337;}
	.st11{fill:#58595B;}
</style>
<g>
	<linearGradient id="SVGID_1_" gradientUnits="userSpaceOnUse" x1="6.2677" y1="83.6305" x2="6.2677" y2="44.9476">
		<stop  offset="0" style="stop-color:#009345"/>
		<stop  offset="0.4387" style="stop-color:#89C540"/>
		<stop  offset="1" style="stop-color:#D6DE23"/>
	</linearGradient>
	<path class="st0" d="M9.5,83.6H3c-1.6,0-3-1.3-3-3l0-32.7c0-1.6,1.3-3,3-3h6.5c1.6,0,3,1.3,3,3v32.7C12.5,82.3,11.2,83.6,9.5,83.6z
		"/>
	<linearGradient id="SVGID_2_" gradientUnits="userSpaceOnUse" x1="31.1045" y1="83.6305" x2="31.1045" y2="31.2962">
		<stop  offset="0" style="stop-color:#009345"/>
		<stop  offset="0.4387" style="stop-color:#89C540"/>
		<stop  offset="1" style="stop-color:#D6DE23"/>
	</linearGradient>
	<path class="st1" d="M34.4,83.6h-6.5c-1.6,0-3-1.3-3-3V34.3c0-1.6,1.3-3,3-3h6.5c1.6,0,3,1.3,3,3v46.3C37.4,82.3,36,83.6,34.4,83.6
		z"/>
	<linearGradient id="SVGID_3_" gradientUnits="userSpaceOnUse" x1="55.9412" y1="83.6305" x2="55.9412" y2="21.332">
		<stop  offset="0" style="stop-color:#009345"/>
		<stop  offset="0.4387" style="stop-color:#89C540"/>
		<stop  offset="1" style="stop-color:#D6DE23"/>
	</linearGradient>
	<path class="st2" d="M59.2,83.6h-6.5c-1.6,0-3-1.3-3-3V24.3c0-1.6,1.3-3,3-3h6.5c1.6,0,3,1.3,3,3v56.3
		C62.2,82.3,60.9,83.6,59.2,83.6z"/>
	<linearGradient id="SVGID_4_" gradientUnits="userSpaceOnUse" x1="80.778" y1="83.6305" x2="80.778" y2="26.2492">
		<stop  offset="0" style="stop-color:#009345"/>
		<stop  offset="0.4387" style="stop-color:#89C540"/>
		<stop  offset="1" style="stop-color:#D6DE23"/>
	</linearGradient>
	<path class="st3" d="M84,83.6h-6.5c-1.7,0-3-1.3-3-3V29.2c0-1.6,1.3-3,3-3H84c1.6,0,3,1.3,3,3v51.4C87,82.3,85.7,83.6,84,83.6z"/>
	<linearGradient id="SVGID_5_" gradientUnits="userSpaceOnUse" x1="105.6148" y1="83.6305" x2="105.6148" y2="12.2387">
		<stop  offset="0" style="stop-color:#009345"/>
		<stop  offset="0.4387" style="stop-color:#89C540"/>
		<stop  offset="1" style="stop-color:#D6DE23"/>
	</linearGradient>
	<path class="st4" d="M108.9,83.6h-6.5c-1.6,0-3-1.3-3-3V15.2c0-1.6,1.3-3,3-3h6.5c1.7,0,3,1.3,3,3v65.4
		C111.9,82.3,110.5,83.6,108.9,83.6z"/>
	<linearGradient id="SVGID_6_" gradientUnits="userSpaceOnUse" x1="130.4516" y1="83.6305" x2="130.4516" y2="-9.094947e-13">
		<stop  offset="0" style="stop-color:#009345"/>
		<stop  offset="0.4387" style="stop-color:#89C540"/>
		<stop  offset="1" style="stop-color:#D6DE23"/>
	</linearGradient>
	<path class="st5" d="M133.7,83.6h-6.5c-1.7,0-3-1.3-3-3V3c0-1.6,1.3-3,3-3l6.5,0c1.6,0,3,1.3,3,3v77.6
		C136.7,82.3,135.4,83.6,133.7,83.6z"/>
	<linearGradient id="SVGID_7_" gradientUnits="userSpaceOnUse" x1="155.2884" y1="83.6305" x2="155.2884" y2="12.2387">
		<stop  offset="0" style="stop-color:#009345"/>
		<stop  offset="0.4387" style="stop-color:#89C540"/>
		<stop  offset="1" style="stop-color:#D6DE23"/>
	</linearGradient>
	<path class="st6" d="M158.6,83.6H152c-1.7,0-3-1.3-3-3V15.2c0-1.6,1.3-3,3-3h6.5c1.7,0,3,1.3,3,3v65.4
		C161.6,82.3,160.2,83.6,158.6,83.6z"/>
	<linearGradient id="SVGID_8_" gradientUnits="userSpaceOnUse" x1="180.1252" y1="83.6305" x2="180.1252" y2="12.2387">
		<stop  offset="0" style="stop-color:#009345"/>
		<stop  offset="0.4387" style="stop-color:#89C540"/>
		<stop  offset="1" style="stop-color:#D6DE23"/>
	</linearGradient>
	<path class="st7" d="M183.4,83.6h-6.5c-1.6,0-3-1.3-3-3V15.2c0-1.6,1.4-3,3-3h6.5c1.6,0,3,1.3,3,3v65.4
		C186.4,82.3,185,83.6,183.4,83.6z"/>
	<linearGradient id="SVGID_9_" gradientUnits="userSpaceOnUse" x1="204.962" y1="83.6305" x2="204.962" y2="15.2962">
		<stop  offset="0" style="stop-color:#009345"/>
		<stop  offset="0.4387" style="stop-color:#89C540"/>
		<stop  offset="1" style="stop-color:#D6DE23"/>
	</linearGradient>
	<path class="st8" d="M208.2,83.6h-6.5c-1.6,0-3-1.3-3-3V18.3c0-1.6,1.4-3,3-3h6.5c1.6,0,3,1.3,3,3v62.3
		C211.2,82.3,209.9,83.6,208.2,83.6z"/>
</g>
<g>
	<path class="st9" d="M237.4,32.9l0.7-0.8l3.3,3.3V24.9h1v10.6l3.3-3.3l0.7,0.8l-4.5,4.5L237.4,32.9z"/>
	<path class="st10" d="M253.5,34.6c-0.6-0.5-1.1-1.2-1.5-2.2c-0.4-0.9-0.5-2.1-0.5-3.3s0.2-2.4,0.5-3.3c0.4-0.9,0.9-1.7,1.5-2.2
		c0.6-0.5,1.4-0.8,2.3-0.8c0.9,0,1.6,0.3,2.3,0.8c0.6,0.5,1.1,1.2,1.5,2.2c0.4,0.9,0.5,2.1,0.5,3.3s-0.2,2.4-0.5,3.3
		c-0.4,0.9-0.9,1.7-1.5,2.2c-0.6,0.5-1.4,0.8-2.3,0.8C254.9,35.4,254.2,35.1,253.5,34.6z M257.6,34c0.5-0.5,0.9-1.1,1.2-1.9
		s0.4-1.8,0.4-2.9c0-1.1-0.1-2.1-0.4-2.9s-0.7-1.5-1.2-1.9c-0.5-0.5-1.1-0.7-1.8-0.7c-0.7,0-1.3,0.2-1.8,0.7
		c-0.5,0.5-0.9,1.1-1.2,1.9s-0.4,1.8-0.4,2.9c0,1.1,0.1,2.1,0.4,2.9s0.7,1.5,1.2,1.9c0.5,0.5,1.1,0.7,1.8,0.7
		C256.5,34.7,257.1,34.4,257.6,34z"/>
	<path class="st10" d="M261.7,35.1c-0.1-0.1-0.2-0.3-0.2-0.5s0.1-0.4,0.2-0.5c0.1-0.1,0.3-0.2,0.5-0.2s0.4,0.1,0.5,0.2
		c0.1,0.1,0.2,0.3,0.2,0.5s-0.1,0.4-0.2,0.5c-0.1,0.1-0.3,0.2-0.5,0.2S261.8,35.3,261.7,35.1z"/>
	<path class="st10" d="M269.2,24l-3.4,1.9l-0.3-0.6l3.8-2.2h0.7v12.1h-0.8V24z"/>
	<path class="st10" d="M276,35c-0.6-0.3-1.1-0.7-1.4-1.1c-0.3-0.5-0.5-1.1-0.5-1.7c0-0.8,0.3-1.5,0.8-2c0.5-0.6,1.3-0.9,2.2-1.1
		c-0.8-0.2-1.5-0.5-2-1.1c-0.5-0.5-0.8-1.2-0.8-1.9c0-0.6,0.2-1.1,0.5-1.6c0.3-0.5,0.8-0.8,1.3-1.1c0.6-0.3,1.2-0.4,1.9-0.4
		c0.7,0,1.4,0.1,1.9,0.4c0.6,0.3,1,0.6,1.4,1.1c0.3,0.5,0.5,1,0.5,1.6c0,0.8-0.3,1.4-0.8,1.9c-0.5,0.5-1.2,0.9-2,1.1
		c1,0.2,1.7,0.6,2.2,1.1c0.5,0.6,0.8,1.2,0.8,2c0,0.6-0.2,1.2-0.5,1.7s-0.8,0.9-1.4,1.1c-0.6,0.3-1.3,0.4-2.1,0.4S276.6,35.3,276,35
		z M280.4,34c0.6-0.5,0.9-1.1,0.9-1.9c0-0.7-0.3-1.3-0.9-1.8c-0.6-0.5-1.4-0.8-2.3-0.9c-1,0.1-1.8,0.5-2.3,0.9
		c-0.6,0.5-0.9,1.1-0.9,1.8c0,0.8,0.3,1.4,0.9,1.9c0.6,0.5,1.4,0.7,2.3,0.7C279,34.7,279.8,34.5,280.4,34z M280.2,27.8
		c0.5-0.5,0.8-1,0.8-1.7c0-0.5-0.1-0.9-0.4-1.3s-0.6-0.7-1.1-0.9s-1-0.3-1.5-0.3c-0.6,0-1.1,0.1-1.5,0.3c-0.5,0.2-0.8,0.5-1.1,0.9
		s-0.4,0.8-0.4,1.3c0,0.7,0.3,1.3,0.8,1.7s1.3,0.8,2.1,0.9C279,28.5,279.7,28.2,280.2,27.8z"/>
	<path class="st10" d="M284.6,28.9c-0.4-0.3-0.8-0.7-1-1.2c-0.2-0.5-0.4-1-0.4-1.7s0.1-1.2,0.4-1.7c0.2-0.5,0.6-0.9,1-1.2
		c0.4-0.3,0.9-0.4,1.5-0.4c0.6,0,1,0.1,1.5,0.4c0.4,0.3,0.8,0.7,1,1.2s0.4,1,0.4,1.7s-0.1,1.2-0.4,1.7c-0.2,0.5-0.6,0.9-1,1.2
		c-0.4,0.3-0.9,0.4-1.5,0.4C285.6,29.4,285.1,29.2,284.6,28.9z M287.7,28c0.4-0.5,0.6-1.1,0.6-1.9c0-0.8-0.2-1.4-0.6-1.9
		c-0.4-0.5-0.9-0.7-1.6-0.7c-0.6,0-1.2,0.2-1.6,0.7c-0.4,0.5-0.6,1.1-0.6,1.9c0,0.8,0.2,1.4,0.6,1.9c0.4,0.5,0.9,0.7,1.6,0.7
		C286.8,28.8,287.3,28.5,287.7,28z M294.3,23.1h0.8L286,35.2h-0.8L294.3,23.1z M292.7,35c-0.4-0.3-0.8-0.7-1-1.2s-0.4-1.1-0.4-1.7
		c0-0.6,0.1-1.2,0.4-1.7c0.2-0.5,0.6-0.9,1-1.2c0.4-0.3,0.9-0.4,1.5-0.4s1,0.1,1.5,0.4c0.4,0.3,0.8,0.7,1,1.2
		c0.2,0.5,0.4,1.1,0.4,1.7c0,0.6-0.1,1.2-0.4,1.7s-0.6,0.9-1,1.2c-0.4,0.3-0.9,0.4-1.5,0.4S293.1,35.3,292.7,35z M295.7,34.1
		c0.4-0.5,0.6-1.1,0.6-1.9c0-0.8-0.2-1.4-0.6-1.9c-0.4-0.5-0.9-0.7-1.6-0.7c-0.6,0-1.2,0.2-1.6,0.7c-0.4,0.5-0.6,1.1-0.6,1.9
		c0,0.8,0.2,1.4,0.6,1.9c0.4,0.5,0.9,0.7,1.6,0.7C294.8,34.8,295.3,34.6,295.7,34.1z"/>
</g>
<g>
	<path class="st11" d="M244.1,74.9c-1.9-0.1-3.9-0.6-6.1-1.5l0.7-2.2c1.9,0.8,3.7,1.3,5.5,1.5v-7.3c-1.2-0.3-2.3-0.7-3.1-1.1
		c-0.8-0.4-1.5-1-2.1-1.7c-0.5-0.8-0.8-1.7-0.8-2.9c0-1.5,0.5-2.7,1.6-3.7c1.1-1,2.5-1.6,4.3-1.8v-5.8h2.4V54
		c1.5,0.1,3.3,0.6,5.4,1.4l-0.7,2.2c-1.8-0.7-3.4-1.2-4.8-1.4v7c1.3,0.3,2.3,0.7,3.2,1.1c0.9,0.4,1.6,1,2.1,1.8
		c0.6,0.8,0.8,1.8,0.8,3.1c0,1.5-0.5,2.8-1.6,3.8c-1.1,1-2.6,1.6-4.4,1.8v5.8h-2.4V74.9z M244.1,56.3c-1,0.2-1.8,0.6-2.3,1.1
		c-0.6,0.6-0.8,1.2-0.8,2c0,0.8,0.3,1.5,0.8,1.9c0.5,0.5,1.3,0.9,2.3,1.2V56.3z M248.9,71.4c0.6-0.6,0.9-1.3,0.9-2.2
		c0-0.8-0.3-1.5-0.9-2s-1.4-0.9-2.4-1.3v6.6C247.5,72.4,248.3,72,248.9,71.4z"/>
	<path class="st11" d="M264.2,55.5l-6.1,3.5l-1-2l7.5-4.3h2.3v23.5h-2.8V55.5z"/>
	<path class="st11" d="M277.8,75.8c-1.2-0.5-2.2-1.3-2.9-2.3c-0.7-1-1.1-2.1-1.1-3.4c0-1.5,0.5-2.7,1.4-3.8c0.9-1.1,2.3-1.8,4-2.2
		c-1.4-0.4-2.6-1.1-3.5-2.1c-0.9-1-1.3-2.2-1.3-3.6c0-1.2,0.3-2.3,1-3.2c0.7-0.9,1.6-1.7,2.7-2.2c1.2-0.5,2.5-0.8,4-0.8
		c1.5,0,2.8,0.3,4,0.8c1.2,0.5,2.1,1.3,2.7,2.2c0.7,0.9,1,2,1,3.2c0,1.4-0.4,2.6-1.3,3.6c-0.9,1-2.1,1.7-3.5,2.1
		c1.7,0.4,3.1,1.1,4,2.2c0.9,1.1,1.4,2.3,1.4,3.8c0,1.3-0.3,2.4-1,3.4c-0.7,1-1.7,1.7-2.9,2.3s-2.7,0.8-4.3,0.8
		C280.5,76.6,279.1,76.3,277.8,75.8z M286,73.2c1-0.8,1.5-1.9,1.5-3.2c0-1.3-0.5-2.3-1.5-3.2c-1-0.8-2.3-1.4-4-1.6
		c-1.7,0.3-3,0.8-4,1.6c-1,0.8-1.5,1.9-1.5,3.2c0,1.3,0.5,2.4,1.5,3.2c1,0.8,2.3,1.2,3.9,1.2C283.7,74.4,285,74,286,73.2z
		 M285.7,61.6c0.9-0.8,1.4-1.8,1.4-3c0-1.2-0.5-2.2-1.4-3c-1-0.8-2.1-1.2-3.6-1.2c-1.4,0-2.6,0.4-3.6,1.2c-1,0.8-1.4,1.8-1.4,3
		c0,1.2,0.5,2.2,1.4,3c0.9,0.8,2.1,1.3,3.6,1.5C283.6,62.8,284.8,62.3,285.7,61.6z"/>
	<path class="st11" d="M292.3,74.8l0.9-2.1c2.3,1.1,4.5,1.6,6.4,1.6c1.5,0,2.7-0.4,3.7-1.3c1-0.8,1.4-1.9,1.4-3.2
		c0-1.4-0.6-2.5-1.7-3.4c-1.1-0.9-2.6-1.3-4.4-1.3h-1.4v-2.1h1.4c1.7,0,3-0.4,4-1.2c1-0.8,1.6-1.9,1.6-3.1c0-1.2-0.4-2.2-1.3-3
		c-0.9-0.8-2-1.2-3.3-1.2c-1.8,0-3.7,0.5-5.9,1.5l-0.9-2.1c2.4-1.1,4.8-1.6,7.2-1.6c1.4,0,2.6,0.3,3.6,0.8c1,0.5,1.9,1.3,2.5,2.2
		c0.6,0.9,0.9,2,0.9,3.2c0,1.3-0.4,2.5-1.2,3.5c-0.8,1-1.8,1.7-3.2,2.1c1.5,0.4,2.6,1.1,3.5,2.2s1.3,2.4,1.3,3.8
		c0,1.3-0.3,2.4-0.9,3.4c-0.6,1-1.5,1.8-2.7,2.3c-1.1,0.5-2.4,0.8-3.9,0.8C297.4,76.6,294.8,76,292.3,74.8z"/>
	<path class="st11" d="M310.5,80.6c1.6-1.2,2.5-2.6,2.6-4.2c-0.5,0-1-0.1-1.3-0.5c-0.3-0.3-0.5-0.8-0.5-1.3c0-0.6,0.2-1.1,0.5-1.4
		c0.4-0.4,0.8-0.5,1.4-0.5c0.6,0,1.1,0.2,1.5,0.7s0.6,1.1,0.6,2c0,1.3-0.3,2.5-1,3.6c-0.7,1.1-1.6,2.1-2.9,2.9L310.5,80.6z"/>
	<path class="st11" d="M318.4,75.2l0.9-2.1c1.7,0.8,3.2,1.2,4.7,1.2c2.3,0,4-0.9,5.2-2.7c1.2-1.8,1.9-4.3,1.9-7.7
		c-0.5,1.1-1.3,2-2.5,2.7c-1.1,0.7-2.4,1-3.9,1c-1.5,0-2.8-0.3-3.9-0.9s-2-1.5-2.6-2.7c-0.6-1.1-0.9-2.4-0.9-3.9c0-1.5,0.3-2.8,1-4
		c0.7-1.2,1.6-2.1,2.8-2.8c1.2-0.7,2.5-1,4-1c2.7,0,4.7,0.9,6.3,2.8c1.5,1.9,2.3,4.5,2.3,8c0,4.3-0.8,7.7-2.5,10
		c-1.7,2.4-4.1,3.5-7.1,3.5C322.2,76.6,320.2,76.1,318.4,75.2z M328.1,64.8c0.9-0.4,1.5-1,2-1.8c0.5-0.8,0.7-1.6,0.7-2.5
		c0-1.2-0.2-2.2-0.7-3.1c-0.5-0.9-1.1-1.6-2-2.2s-1.8-0.8-2.8-0.8c-1,0-1.9,0.2-2.7,0.7s-1.5,1.2-1.9,2S320,59,320,60
		c0,1.6,0.5,3,1.5,4c1,1,2.3,1.5,3.8,1.5C326.3,65.5,327.3,65.3,328.1,64.8z"/>
	<path class="st11" d="M344.7,55.5l-6.1,3.5l-1-2l7.5-4.3h2.3v23.5h-2.8V55.5z"/>
	<path class="st11" d="M358.1,75.1c-1.3-1-2.3-2.4-3-4.2c-0.7-1.8-1-4-1-6.5c0-2.5,0.4-4.6,1-6.5c0.7-1.8,1.7-3.2,3-4.2
		c1.3-1,2.8-1.5,4.6-1.5s3.3,0.5,4.6,1.5c1.3,1,2.3,2.4,3,4.2c0.7,1.8,1,4,1,6.5c0,2.5-0.3,4.6-1,6.5c-0.7,1.8-1.7,3.2-3,4.2
		c-1.3,1-2.8,1.5-4.6,1.5S359.4,76.1,358.1,75.1z M365.8,73c0.9-0.8,1.6-1.9,2.1-3.4c0.5-1.5,0.7-3.2,0.7-5.2c0-2-0.2-3.8-0.7-5.2
		c-0.5-1.5-1.2-2.6-2.1-3.4c-0.9-0.8-2-1.2-3.2-1.2c-1.2,0-2.3,0.4-3.2,1.2c-0.9,0.8-1.6,1.9-2.1,3.4c-0.5,1.5-0.7,3.2-0.7,5.2
		c0,2,0.2,3.7,0.7,5.2c0.5,1.5,1.2,2.6,2.1,3.4c0.9,0.8,2,1.2,3.2,1.2C363.9,74.3,364.9,73.9,365.8,73z"/>
	<path class="st11" d="M373.8,76c-0.4-0.4-0.5-0.8-0.5-1.3c0-0.6,0.2-1,0.5-1.4c0.4-0.4,0.8-0.5,1.4-0.5c0.5,0,1,0.2,1.4,0.5
		c0.4,0.4,0.5,0.8,0.5,1.4c0,0.5-0.2,1-0.5,1.3c-0.4,0.4-0.8,0.5-1.4,0.5C374.6,76.5,374.2,76.3,373.8,76z"/>
	<path class="st11" d="M385.2,61.4l-4.3,2.5l-0.7-1.4l5.4-3.1h1.7v16.8h-2V61.4z"/>
	<path class="st11" d="M392.2,74.9l6.6-6.6c1.4-1.4,2-2.7,2-4.1c0-1-0.3-1.9-1-2.5c-0.7-0.6-1.5-1-2.6-1c-0.7,0-1.3,0.1-2,0.4
		c-0.7,0.2-1.4,0.6-2.1,1.1l-0.8-1.5c1.8-1.1,3.6-1.7,5.3-1.7c1,0,1.9,0.2,2.7,0.6c0.8,0.4,1.4,1,1.8,1.8c0.4,0.8,0.7,1.6,0.7,2.5
		c0,0.9-0.2,1.8-0.6,2.6s-1,1.7-1.8,2.5l-5.5,5.5h8.1v1.6h-10.8V74.9z"/>
</g>
</svg>
