<?xml version="1.0" encoding="utf-8"?>
<!-- Generator: Adobe Illustrator 22.1.0, SVG Export Plug-In . SVG Version: 6.00 Build 0)  -->
<svg version="1.1" id="Layer_1" xmlns="http://www.w3.org/2000/svg" xmlns:xlink="http://www.w3.org/1999/xlink" x="0px" y="0px"
	 viewBox="0 0 49.3 80.1" style="enable-background:new 0 0 49.3 80.1;" xml:space="preserve">
<style type="text/css">
	.st0{fill:#D7DADD;}
	.st1{fill:#FDC662;}
	.st2{fill:#FFFFFF;}
</style>
<g>
	<g>
		<path id="path4_3_" inkscape:connector-curvature="0" class="st0" d="M32,64.1H17.4c-0.9,0-1.7,0.9-1.7,1.9c0,1.1,0.8,1.9,1.7,1.9
			H32c0.9,0,1.7-0.9,1.7-1.9C33.7,65,32.9,64.1,32,64.1z"/>
		<path id="path6_2_" inkscape:connector-curvature="0" class="st0" d="M33.7,72.1c0-1.1-0.8-1.9-1.7-1.9H17.4
			c-0.9,0-1.7,0.9-1.7,1.9c0,1.1,0.8,1.9,1.7,1.9H32C32.9,74,33.7,73.2,33.7,72.1z"/>
		<path id="path22_2_" inkscape:connector-curvature="0" class="st0" d="M30,78.2c0-1.1-0.8-1.9-1.7-1.9H21c-0.9,0-1.7,0.9-1.7,1.9
			c0,1.1,0.8,1.9,1.7,1.9h7.3C29.3,80.1,30,79.3,30,78.2z"/>
		<path class="st1" d="M24.7,0c-0.9,0-1.9,0-2.8,0.1C10.1,1.3,0.7,10.5,0,21.4C-0.4,28,2.4,34.4,7.5,39c4,3.6,6.4,8.6,6.4,13.6v2.9
			c0,3.1,2.7,5.6,6.1,5.6h9.4c3.4,0,6.1-2.5,6.1-5.6v-2.9c0-5.1,2.3-10,6.2-13.5c4.9-4.3,7.7-10.2,7.7-16.4C49.3,10.2,38.3,0,24.7,0
			z"/>
		<path class="st2" d="M24.7,3.8c-5.2,0-9.6,1.4-11.9,3.4c-0.1,0.1-0.1,0.1-0.2,0.2C12.2,7.7,12,8.2,12,8.7c0,1.2,1,2.1,2.3,2.1
			c0.5,0,1-0.2,1.4-0.5l0,0l0.6-0.4l0,0c1.9-1.2,5-2,8.4-2c3.6,0,6.7,0.9,8.6,2.2l0,0l0.4,0.2l0,0c0.4,0.3,0.9,0.5,1.4,0.5
			c1.3,0,2.3-0.9,2.3-2.1c0-0.5-0.2-1-0.6-1.3c-0.1-0.1-0.1-0.1-0.2-0.2C34.3,5.2,29.8,3.8,24.7,3.8z"/>
	</g>
</g>
</svg>
