<?xml version="1.0" encoding="utf-8"?>
<!-- Generator: Adobe Illustrator 22.1.0, SVG Export Plug-In . SVG Version: 6.00 Build 0)  -->
<svg version="1.1" id="Layer_1" xmlns="http://www.w3.org/2000/svg" xmlns:xlink="http://www.w3.org/1999/xlink" x="0px" y="0px"
	 viewBox="0 0 990.8 208" style="enable-background:new 0 0 990.8 208;" xml:space="preserve">
<style type="text/css">
	.st0{fill:#333333;}
	.st1{fill:#29ABE2;}
	.st2{fill:#4D4D4D;}
	.st3{opacity:0.7;fill:#29ABE2;}
	.st4{fill:#CCCCCC;}
</style>
<g>
	<path class="st0" d="M4,34.5L0.1,19h2.1l1.8,7.8c0.5,1.9,0.9,3.9,1.2,5.4h0c0.3-1.5,0.7-3.4,1.3-5.4L8.6,19h2.1l1.9,7.9
		c0.4,1.8,0.9,3.7,1.1,5.3h0c0.3-1.7,0.8-3.4,1.2-5.4l2-7.8h2l-4.4,15.5h-2.1l-2-8.1c-0.5-2-0.8-3.5-1-5.1h0
		c-0.3,1.5-0.6,3.1-1.2,5.1l-2.2,8.1H4z"/>
	<path class="st0" d="M21.3,29.3c0,2.7,1.8,3.9,3.8,3.9c1.4,0,2.3-0.3,3.1-0.6l0.3,1.4c-0.7,0.3-1.9,0.7-3.7,0.7
		c-3.4,0-5.5-2.3-5.5-5.6s2-6,5.2-6c3.6,0,4.6,3.2,4.6,5.2c0,0.4,0,0.7-0.1,0.9H21.3z M27.2,27.9c0-1.3-0.5-3.3-2.8-3.3
		c-2,0-2.9,1.9-3.1,3.3H27.2z"/>
	<path class="st0" d="M31.7,18.2h2v16.3h-2V18.2z"/>
	<path class="st0" d="M37.1,18.2h2v16.3h-2V18.2z"/>
	<path class="st0" d="M42.4,34.5c0-0.8,0.1-1.9,0.1-2.9V18.2h2v7h0c0.7-1.2,2-2,3.8-2c2.8,0,4.7,2.3,4.7,5.7c0,4-2.5,6-5,6
		c-1.6,0-2.9-0.6-3.7-2.1h-0.1l-0.1,1.8H42.4z M44.5,30.1c0,0.3,0,0.5,0.1,0.7c0.4,1.4,1.6,2.4,3,2.4c2.1,0,3.4-1.7,3.4-4.3
		c0-2.2-1.1-4.1-3.3-4.1c-1.4,0-2.7,0.9-3.1,2.5c0,0.2-0.1,0.5-0.1,0.8V30.1z"/>
	<path class="st0" d="M56.7,29.3c0,2.7,1.8,3.9,3.8,3.9c1.4,0,2.3-0.3,3.1-0.6l0.3,1.4c-0.7,0.3-1.9,0.7-3.7,0.7
		c-3.4,0-5.5-2.3-5.5-5.6s2-6,5.2-6c3.6,0,4.6,3.2,4.6,5.2c0,0.4,0,0.7-0.1,0.9H56.7z M62.7,27.9c0-1.3-0.5-3.3-2.8-3.3
		c-2,0-2.9,1.9-3.1,3.3H62.7z"/>
	<path class="st0" d="M69.4,20.3c0,0.7-0.5,1.2-1.3,1.2c-0.7,0-1.2-0.6-1.2-1.2c0-0.7,0.5-1.3,1.3-1.3C68.9,19,69.4,19.6,69.4,20.3z
		 M67.1,34.5V23.4h2v11.1H67.1z"/>
	<path class="st0" d="M72.5,26.4c0-1.1,0-2.1-0.1-3h1.8l0.1,1.8h0c0.6-1.1,1.8-2.1,3.7-2.1c1.5,0,3.9,0.9,3.9,4.7v6.6h-2v-6.4
		c0-1.8-0.7-3.3-2.6-3.3c-1.3,0-2.4,0.9-2.7,2.1c-0.1,0.3-0.1,0.6-0.1,0.9v6.7h-2V26.4z"/>
	<path class="st0" d="M94.9,23.4c0,0.8-0.1,1.7-0.1,3.1v6.5c0,2.6-0.5,4.1-1.6,5.1c-1.1,1-2.6,1.3-4,1.3c-1.3,0-2.8-0.3-3.7-0.9
		l0.5-1.5c0.7,0.5,1.9,0.9,3.3,0.9c2.1,0,3.6-1.1,3.6-3.9v-1.2h0c-0.6,1-1.8,1.9-3.5,1.9c-2.8,0-4.7-2.3-4.7-5.4
		c0-3.8,2.5-5.9,5-5.9c1.9,0,3,1,3.5,1.9h0l0.1-1.7H94.9z M92.8,27.8c0-0.3,0-0.6-0.1-0.9c-0.4-1.2-1.4-2.1-2.8-2.1
		c-1.9,0-3.3,1.6-3.3,4.2c0,2.2,1.1,4,3.3,4c1.2,0,2.4-0.8,2.8-2.1c0.1-0.3,0.2-0.7,0.2-1.1V27.8z"/>
	<path class="st0" d="M105.1,19v15.5h-2V19H105.1z"/>
	<path class="st0" d="M108.7,26.4c0-1.1,0-2.1-0.1-3h1.8l0.1,1.8h0c0.6-1.1,1.8-2.1,3.7-2.1c1.5,0,3.9,0.9,3.9,4.7v6.6h-2v-6.4
		c0-1.8-0.7-3.3-2.6-3.3c-1.3,0-2.4,0.9-2.7,2.1c-0.1,0.3-0.1,0.6-0.1,0.9v6.7h-2V26.4z"/>
	<path class="st0" d="M129.4,34.1c-0.5,0.3-1.7,0.6-3.2,0.6c-3.4,0-5.5-2.3-5.5-5.7c0-3.4,2.3-5.9,6-5.9c1.2,0,2.3,0.3,2.8,0.6
		l-0.5,1.6c-0.5-0.3-1.2-0.5-2.3-0.5c-2.6,0-3.9,1.9-3.9,4.2c0,2.6,1.7,4.2,3.9,4.2c1.2,0,1.9-0.3,2.5-0.6L129.4,34.1z"/>
	<path class="st0" d="M132.8,29.3c0,2.7,1.8,3.9,3.8,3.9c1.4,0,2.3-0.3,3.1-0.6l0.3,1.4c-0.7,0.3-1.9,0.7-3.7,0.7
		c-3.4,0-5.5-2.3-5.5-5.6s2-6,5.2-6c3.6,0,4.6,3.2,4.6,5.2c0,0.4,0,0.7-0.1,0.9H132.8z M138.7,27.9c0-1.3-0.5-3.3-2.8-3.3
		c-2,0-2.9,1.9-3.1,3.3H138.7z"/>
	<path class="st0" d="M143.2,26.4c0-1.1,0-2.1-0.1-3h1.8l0.1,1.8h0c0.6-1.1,1.8-2.1,3.7-2.1c1.5,0,3.9,0.9,3.9,4.7v6.6h-2v-6.4
		c0-1.8-0.7-3.3-2.6-3.3c-1.3,0-2.4,0.9-2.7,2.1c-0.1,0.3-0.1,0.6-0.1,0.9v6.7h-2V26.4z"/>
	<path class="st0" d="M158.3,20.2v3.2h2.9v1.5h-2.9v6c0,1.4,0.4,2.2,1.5,2.2c0.5,0,0.9-0.1,1.2-0.1l0.1,1.5c-0.4,0.2-1,0.3-1.8,0.3
		c-0.9,0-1.7-0.3-2.2-0.9c-0.6-0.6-0.8-1.6-0.8-2.9v-6.1h-1.7v-1.5h1.7v-2.7L158.3,20.2z"/>
	<path class="st0" d="M165.7,20.3c0,0.7-0.5,1.2-1.3,1.2c-0.7,0-1.2-0.6-1.2-1.2c0-0.7,0.5-1.3,1.3-1.3
		C165.2,19,165.7,19.6,165.7,20.3z M163.5,34.5V23.4h2v11.1H163.5z"/>
	<path class="st0" d="M169.6,23.4l2.2,6.3c0.4,1,0.7,1.9,0.9,2.9h0.1c0.3-0.9,0.6-1.8,0.9-2.9l2.2-6.3h2.1l-4.4,11.1h-1.9l-4.2-11.1
		H169.6z"/>
	<path class="st0" d="M180.8,29.3c0,2.7,1.8,3.9,3.8,3.9c1.4,0,2.3-0.3,3.1-0.6l0.3,1.4c-0.7,0.3-1.9,0.7-3.7,0.7
		c-3.4,0-5.5-2.3-5.5-5.6s2-6,5.2-6c3.6,0,4.6,3.2,4.6,5.2c0,0.4,0,0.7-0.1,0.9H180.8z M186.8,27.9c0-1.3-0.5-3.3-2.8-3.3
		c-2,0-2.9,1.9-3.1,3.3H186.8z"/>
	<path class="st0" d="M200.8,18.2v13.5c0,1,0,2.1,0.1,2.9h-1.8l-0.1-1.9h0c-0.6,1.2-2,2.2-3.8,2.2c-2.7,0-4.8-2.3-4.8-5.7
		c0-3.7,2.3-6,5-6c1.7,0,2.9,0.8,3.4,1.7h0v-6.6H200.8z M198.8,27.9c0-0.3,0-0.6-0.1-0.9c-0.3-1.3-1.4-2.3-2.9-2.3
		c-2.1,0-3.3,1.8-3.3,4.3c0,2.3,1.1,4.1,3.3,4.1c1.4,0,2.6-0.9,3-2.4c0.1-0.3,0.1-0.6,0.1-0.9V27.9z"/>
	<path class="st0" d="M210.2,29.3c0,2.7,1.8,3.9,3.8,3.9c1.4,0,2.3-0.3,3.1-0.6l0.3,1.4c-0.7,0.3-1.9,0.7-3.7,0.7
		c-3.4,0-5.5-2.3-5.5-5.6s2-6,5.2-6c3.6,0,4.6,3.2,4.6,5.2c0,0.4,0,0.7-0.1,0.9H210.2z M216.1,27.9c0-1.3-0.5-3.3-2.8-3.3
		c-2,0-2.9,1.9-3.1,3.3H216.1z"/>
	<path class="st0" d="M226.7,34.5l-0.2-1.4h-0.1c-0.6,0.9-1.8,1.7-3.4,1.7c-2.3,0-3.4-1.6-3.4-3.2c0-2.7,2.4-4.2,6.7-4.1v-0.2
		c0-0.9-0.3-2.6-2.5-2.6c-1,0-2.1,0.3-2.9,0.8l-0.5-1.3c0.9-0.6,2.3-1,3.7-1c3.4,0,4.2,2.3,4.2,4.6v4.2c0,1,0,1.9,0.2,2.7H226.7z
		 M226.4,28.9c-2.2,0-4.7,0.3-4.7,2.5c0,1.3,0.9,1.9,1.9,1.9c1.4,0,2.4-0.9,2.7-1.9c0.1-0.2,0.1-0.4,0.1-0.6V28.9z"/>
	<path class="st0" d="M231.7,26.9c0-1.3,0-2.4-0.1-3.5h1.8l0.1,2.2h0.1c0.5-1.5,1.7-2.4,3.1-2.4c0.2,0,0.4,0,0.6,0.1v1.9
		c-0.2,0-0.4-0.1-0.7-0.1c-1.4,0-2.4,1.1-2.7,2.6c0,0.3-0.1,0.6-0.1,0.9v5.9h-2V26.9z"/>
	<path class="st0" d="M239.3,26.4c0-1.1,0-2.1-0.1-3h1.8l0.1,1.8h0c0.6-1.1,1.8-2.1,3.7-2.1c1.5,0,3.9,0.9,3.9,4.7v6.6h-2v-6.4
		c0-1.8-0.7-3.3-2.6-3.3c-1.3,0-2.4,0.9-2.7,2.1c-0.1,0.3-0.1,0.6-0.1,0.9v6.7h-2V26.4z"/>
	<path class="st0" d="M253.2,29.3c0,2.7,1.8,3.9,3.8,3.9c1.4,0,2.3-0.3,3.1-0.6l0.3,1.4c-0.7,0.3-1.9,0.7-3.7,0.7
		c-3.4,0-5.5-2.3-5.5-5.6s2-6,5.2-6c3.6,0,4.6,3.2,4.6,5.2c0,0.4,0,0.7-0.1,0.9H253.2z M259.1,27.9c0-1.3-0.5-3.3-2.8-3.3
		c-2,0-2.9,1.9-3.1,3.3H259.1z"/>
	<path class="st0" d="M273.2,18.2v13.5c0,1,0,2.1,0.1,2.9h-1.8l-0.1-1.9h0c-0.6,1.2-2,2.2-3.8,2.2c-2.7,0-4.8-2.3-4.8-5.7
		c0-3.7,2.3-6,5-6c1.7,0,2.9,0.8,3.4,1.7h0v-6.6H273.2z M271.2,27.9c0-0.3,0-0.6-0.1-0.9c-0.3-1.3-1.4-2.3-2.9-2.3
		c-2.1,0-3.3,1.8-3.3,4.3c0,2.3,1.1,4.1,3.3,4.1c1.4,0,2.6-0.9,3-2.4c0.1-0.3,0.1-0.6,0.1-0.9V27.9z"/>
</g>
<g>
	<path class="st0" d="M3.8,169.5v-5.1l-3.8-7h1.8l1.7,3.3c0.5,0.9,0.8,1.7,1.2,2.5h0c0.3-0.8,0.8-1.6,1.2-2.5l1.7-3.3h1.8l-4.1,7
		v5.2H3.8z"/>
	<path class="st0" d="M17.3,165.1c0,3.2-2.2,4.6-4.3,4.6c-2.4,0-4.2-1.7-4.2-4.5c0-2.9,1.9-4.6,4.3-4.6
		C15.6,160.6,17.3,162.4,17.3,165.1z M10.4,165.2c0,1.9,1.1,3.3,2.6,3.3c1.5,0,2.6-1.4,2.6-3.4c0-1.5-0.7-3.3-2.6-3.3
		C11.2,161.8,10.4,163.5,10.4,165.2z"/>
	<path class="st0" d="M26.6,167.2c0,0.9,0,1.7,0.1,2.4h-1.4l-0.1-1.4h0c-0.4,0.7-1.3,1.6-2.9,1.6c-1.4,0-3-0.8-3-3.8v-5.1h1.6v4.8
		c0,1.7,0.5,2.8,1.9,2.8c1.1,0,1.8-0.7,2.1-1.4c0.1-0.2,0.1-0.5,0.1-0.8v-5.3h1.6V167.2z"/>
	<path class="st0" d="M37.9,169.5l-0.1-1.1h-0.1c-0.5,0.7-1.4,1.3-2.7,1.3c-1.8,0-2.7-1.2-2.7-2.5c0-2.1,1.9-3.3,5.2-3.2v-0.2
		c0-0.7-0.2-2-2-2c-0.8,0-1.7,0.3-2.3,0.6l-0.4-1c0.7-0.5,1.8-0.8,2.9-0.8c2.7,0,3.3,1.8,3.3,3.6v3.3c0,0.8,0,1.5,0.1,2.1H37.9z
		 M37.7,165.1c-1.7,0-3.7,0.3-3.7,2c0,1,0.7,1.5,1.5,1.5c1.1,0,1.9-0.7,2.1-1.5c0.1-0.2,0.1-0.3,0.1-0.5V165.1z"/>
	<path class="st0" d="M41.7,163.2c0-0.9,0-1.6-0.1-2.4h1.4l0.1,1.4h0c0.4-0.8,1.4-1.6,2.9-1.6c1.2,0,3.1,0.7,3.1,3.7v5.2h-1.6v-5
		c0-1.4-0.5-2.6-2-2.6c-1,0-1.9,0.7-2.1,1.6c-0.1,0.2-0.1,0.5-0.1,0.7v5.2h-1.6V163.2z"/>
	<path class="st0" d="M59.3,156.8v10.5c0,0.8,0,1.7,0.1,2.3h-1.4l-0.1-1.5h0c-0.5,1-1.5,1.7-3,1.7c-2.1,0-3.7-1.8-3.7-4.4
		c0-2.9,1.8-4.7,3.9-4.7c1.3,0,2.2,0.6,2.6,1.3h0v-5.2H59.3z M57.7,164.4c0-0.2,0-0.5-0.1-0.7c-0.2-1-1.1-1.8-2.3-1.8
		c-1.6,0-2.6,1.4-2.6,3.4c0,1.8,0.9,3.2,2.6,3.2c1.1,0,2-0.7,2.3-1.9c0.1-0.2,0.1-0.4,0.1-0.7V164.4z"/>
	<path class="st0" d="M66.3,160.8l1.9,5.1c0.2,0.6,0.4,1.3,0.6,1.8h0c0.2-0.5,0.3-1.2,0.6-1.8l1.7-5.1h1.7l-2.4,6.2
		c-1.1,3-1.9,4.5-3,5.5c-0.8,0.7-1.5,1-1.9,1l-0.4-1.3c0.4-0.1,0.9-0.4,1.4-0.8c0.4-0.3,1-1,1.3-1.8c0.1-0.2,0.1-0.3,0.1-0.4
		c0-0.1,0-0.2-0.1-0.4l-3.2-8H66.3z"/>
	<path class="st0" d="M81.9,165.1c0,3.2-2.2,4.6-4.3,4.6c-2.4,0-4.2-1.7-4.2-4.5c0-2.9,1.9-4.6,4.3-4.6
		C80.2,160.6,81.9,162.4,81.9,165.1z M75,165.2c0,1.9,1.1,3.3,2.6,3.3c1.5,0,2.6-1.4,2.6-3.4c0-1.5-0.7-3.3-2.6-3.3
		C75.8,161.8,75,163.5,75,165.2z"/>
	<path class="st0" d="M91.2,167.2c0,0.9,0,1.7,0.1,2.4h-1.4l-0.1-1.4h0c-0.4,0.7-1.3,1.6-2.9,1.6c-1.4,0-3-0.8-3-3.8v-5.1h1.6v4.8
		c0,1.7,0.5,2.8,1.9,2.8c1.1,0,1.8-0.7,2.1-1.4c0.1-0.2,0.1-0.5,0.1-0.8v-5.3h1.6V167.2z"/>
	<path class="st0" d="M93.8,163.5c0-1,0-1.9-0.1-2.7h1.4l0.1,1.7h0.1c0.4-1.2,1.4-1.9,2.4-1.9c0.2,0,0.3,0,0.5,0.1v1.5
		c-0.2,0-0.3-0.1-0.5-0.1c-1.1,0-1.9,0.8-2.1,2c0,0.2-0.1,0.5-0.1,0.7v4.6h-1.6V163.5z"/>
	<path class="st0" d="M103.3,167.9c0.5,0.3,1.3,0.6,2.1,0.6c1.2,0,1.7-0.6,1.7-1.3c0-0.8-0.5-1.2-1.6-1.6c-1.6-0.6-2.3-1.4-2.3-2.5
		c0-1.4,1.1-2.6,3-2.6c0.9,0,1.7,0.3,2.1,0.5l-0.4,1.2c-0.3-0.2-1-0.5-1.8-0.5c-0.9,0-1.5,0.5-1.5,1.2c0,0.7,0.5,1,1.7,1.5
		c1.5,0.6,2.3,1.3,2.3,2.6c0,1.5-1.2,2.6-3.3,2.6c-1,0-1.8-0.2-2.4-0.6L103.3,167.9z"/>
	<path class="st0" d="M110.6,163.7c0-1.1,0-2-0.1-2.8h1.4l0.1,1.5h0c0.6-1.1,1.7-1.7,3.1-1.7c2.1,0,3.7,1.8,3.7,4.4
		c0,3.1-1.9,4.7-4,4.7c-1.2,0-2.2-0.5-2.7-1.4h0v4.7h-1.6V163.7z M112.2,166c0,0.2,0,0.5,0.1,0.6c0.3,1.1,1.2,1.9,2.4,1.9
		c1.7,0,2.6-1.4,2.6-3.4c0-1.7-0.9-3.2-2.6-3.2c-1.1,0-2.1,0.8-2.4,2c-0.1,0.2-0.1,0.4-0.1,0.6V166z"/>
	<path class="st0" d="M128.8,165.1c0,3.2-2.2,4.6-4.3,4.6c-2.4,0-4.2-1.7-4.2-4.5c0-2.9,1.9-4.6,4.3-4.6
		C127.1,160.6,128.8,162.4,128.8,165.1z M121.8,165.2c0,1.9,1.1,3.3,2.6,3.3c1.5,0,2.6-1.4,2.6-3.4c0-1.5-0.7-3.3-2.6-3.3
		C122.7,161.8,121.8,163.5,121.8,165.2z"/>
	<path class="st0" d="M138,167.2c0,0.9,0,1.7,0.1,2.4h-1.4l-0.1-1.4h0c-0.4,0.7-1.3,1.6-2.9,1.6c-1.4,0-3-0.8-3-3.8v-5.1h1.6v4.8
		c0,1.7,0.5,2.8,1.9,2.8c1.1,0,1.8-0.7,2.1-1.4c0.1-0.2,0.1-0.5,0.1-0.8v-5.3h1.6V167.2z"/>
	<path class="st0" d="M140.5,167.9c0.5,0.3,1.3,0.6,2.1,0.6c1.2,0,1.7-0.6,1.7-1.3c0-0.8-0.5-1.2-1.6-1.6c-1.6-0.6-2.3-1.4-2.3-2.5
		c0-1.4,1.1-2.6,3-2.6c0.9,0,1.7,0.3,2.1,0.5l-0.4,1.2c-0.3-0.2-1-0.5-1.8-0.5c-0.9,0-1.5,0.5-1.5,1.2c0,0.7,0.5,1,1.7,1.5
		c1.5,0.6,2.3,1.3,2.3,2.6c0,1.5-1.2,2.6-3.3,2.6c-1,0-1.8-0.2-2.4-0.6L140.5,167.9z"/>
	<path class="st0" d="M148.7,165.5c0,2.1,1.4,3,3,3c1.1,0,1.8-0.2,2.4-0.5l0.3,1.1c-0.6,0.3-1.5,0.5-2.9,0.5c-2.7,0-4.3-1.8-4.3-4.4
		c0-2.6,1.5-4.7,4.1-4.7c2.8,0,3.6,2.5,3.6,4.1c0,0.3,0,0.6-0.1,0.7H148.7z M153.3,164.3c0-1-0.4-2.6-2.2-2.6
		c-1.6,0-2.3,1.5-2.4,2.6H153.3z"/>
	<path class="st0" d="M162.4,158.4c0,0.5-0.4,1-1,1c-0.6,0-1-0.4-1-1c0-0.6,0.4-1,1-1C162,157.4,162.4,157.8,162.4,158.4z
		 M160.6,169.5v-8.7h1.6v8.7H160.6z"/>
	<path class="st0" d="M164.6,167.9c0.5,0.3,1.3,0.6,2.1,0.6c1.2,0,1.7-0.6,1.7-1.3c0-0.8-0.5-1.2-1.6-1.6c-1.6-0.6-2.3-1.4-2.3-2.5
		c0-1.4,1.1-2.6,3-2.6c0.9,0,1.7,0.3,2.1,0.5l-0.4,1.2c-0.3-0.2-1-0.5-1.8-0.5c-0.9,0-1.5,0.5-1.5,1.2c0,0.7,0.5,1,1.7,1.5
		c1.5,0.6,2.3,1.3,2.3,2.6c0,1.5-1.2,2.6-3.3,2.6c-1,0-1.8-0.2-2.4-0.6L164.6,167.9z"/>
	<path class="st0" d="M176.7,165.5c0,2.1,1.4,3,3,3c1.1,0,1.8-0.2,2.4-0.5l0.3,1.1c-0.6,0.3-1.5,0.5-2.9,0.5c-2.7,0-4.3-1.8-4.3-4.4
		c0-2.6,1.5-4.7,4.1-4.7c2.8,0,3.6,2.5,3.6,4.1c0,0.3,0,0.6-0.1,0.7H176.7z M181.3,164.3c0-1-0.4-2.6-2.2-2.6
		c-1.6,0-2.3,1.5-2.4,2.6H181.3z"/>
	<path class="st0" d="M184.8,156.8h1.6v12.8h-1.6V156.8z"/>
	<path class="st0" d="M190.8,158.4c0,0.5-0.4,1-1,1c-0.6,0-1-0.4-1-1c0-0.6,0.4-1,1-1C190.4,157.4,190.8,157.8,190.8,158.4z
		 M189.1,169.5v-8.7h1.6v8.7H189.1z"/>
	<path class="st0" d="M200.8,160.8c0,0.6-0.1,1.3-0.1,2.4v5.1c0,2-0.4,3.2-1.2,4c-0.8,0.8-2.1,1-3.2,1c-1,0-2.2-0.3-2.9-0.7l0.4-1.2
		c0.6,0.4,1.5,0.7,2.6,0.7c1.6,0,2.8-0.8,2.8-3v-1h0c-0.5,0.8-1.4,1.5-2.8,1.5c-2.2,0-3.7-1.8-3.7-4.2c0-3,1.9-4.6,3.9-4.6
		c1.5,0,2.3,0.8,2.7,1.5h0l0.1-1.3H200.8z M199.1,164.3c0-0.3,0-0.5-0.1-0.7c-0.3-0.9-1.1-1.7-2.2-1.7c-1.5,0-2.6,1.3-2.6,3.3
		c0,1.7,0.9,3.1,2.6,3.1c1,0,1.9-0.6,2.2-1.6c0.1-0.3,0.1-0.6,0.1-0.8V164.3z"/>
	<path class="st0" d="M205,158.4c0,0.5-0.4,1-1,1c-0.6,0-1-0.4-1-1c0-0.6,0.4-1,1-1C204.6,157.4,205,157.8,205,158.4z M203.2,169.5
		v-8.7h1.6v8.7H203.2z"/>
	<path class="st0" d="M207.4,169.5c0-0.6,0.1-1.5,0.1-2.3v-10.5h1.6v5.5h0c0.6-1,1.6-1.6,3-1.6c2.2,0,3.7,1.8,3.7,4.4
		c0,3.1-2,4.7-3.9,4.7c-1.3,0-2.3-0.5-2.9-1.6h-0.1l-0.1,1.4H207.4z M209,166c0,0.2,0,0.4,0.1,0.6c0.3,1.1,1.2,1.9,2.4,1.9
		c1.7,0,2.6-1.4,2.6-3.3c0-1.7-0.9-3.2-2.6-3.2c-1.1,0-2.1,0.7-2.4,1.9c0,0.2-0.1,0.4-0.1,0.6V166z"/>
	<path class="st0" d="M217.7,156.8h1.6v12.8h-1.6V156.8z"/>
	<path class="st0" d="M222.8,165.5c0,2.1,1.4,3,3,3c1.1,0,1.8-0.2,2.4-0.5l0.3,1.1c-0.6,0.3-1.5,0.5-2.9,0.5c-2.7,0-4.3-1.8-4.3-4.4
		c0-2.6,1.5-4.7,4.1-4.7c2.8,0,3.6,2.5,3.6,4.1c0,0.3,0,0.6-0.1,0.7H222.8z M227.4,164.3c0-1-0.4-2.6-2.2-2.6
		c-1.6,0-2.3,1.5-2.4,2.6H227.4z"/>
	<path class="st0" d="M236.7,158.3v2.5h2.3v1.2h-2.3v4.7c0,1.1,0.3,1.7,1.2,1.7c0.4,0,0.7-0.1,0.9-0.1l0.1,1.2
		c-0.3,0.1-0.8,0.2-1.4,0.2c-0.7,0-1.3-0.2-1.7-0.7c-0.5-0.5-0.6-1.2-0.6-2.3V162h-1.4v-1.2h1.4v-2.1L236.7,158.3z"/>
	<path class="st0" d="M248.5,165.1c0,3.2-2.2,4.6-4.3,4.6c-2.4,0-4.2-1.7-4.2-4.5c0-2.9,1.9-4.6,4.3-4.6
		C246.8,160.6,248.5,162.4,248.5,165.1z M241.6,165.2c0,1.9,1.1,3.3,2.6,3.3c1.5,0,2.6-1.4,2.6-3.4c0-1.5-0.7-3.3-2.6-3.3
		C242.4,161.8,241.6,163.5,241.6,165.2z"/>
	<path class="st0" d="M2,187.1c0,2.1,1.4,3,3,3c1.1,0,1.8-0.2,2.4-0.5l0.3,1.1c-0.6,0.3-1.5,0.5-2.9,0.5c-2.7,0-4.3-1.8-4.3-4.4
		c0-2.6,1.5-4.7,4.1-4.7c2.8,0,3.6,2.5,3.6,4.1c0,0.3,0,0.6-0.1,0.7H2z M6.6,185.9c0-1-0.4-2.6-2.2-2.6c-1.6,0-2.3,1.5-2.4,2.6H6.6z
		"/>
	<path class="st0" d="M14.9,191.1l-0.1-1.1h-0.1c-0.5,0.7-1.4,1.3-2.7,1.3c-1.8,0-2.7-1.2-2.7-2.5c0-2.1,1.9-3.3,5.2-3.2v-0.2
		c0-0.7-0.2-2-2-2c-0.8,0-1.7,0.3-2.3,0.6l-0.4-1c0.7-0.5,1.8-0.8,2.9-0.8c2.7,0,3.3,1.8,3.3,3.6v3.3c0,0.8,0,1.5,0.1,2.1H14.9z
		 M14.7,186.7c-1.7,0-3.7,0.3-3.7,2c0,1,0.7,1.5,1.5,1.5c1.1,0,1.9-0.7,2.1-1.5c0.1-0.2,0.1-0.3,0.1-0.5V186.7z"/>
	<path class="st0" d="M18.8,185.1c0-1,0-1.9-0.1-2.7h1.4l0.1,1.7h0.1c0.4-1.2,1.4-1.9,2.4-1.9c0.2,0,0.3,0,0.5,0.1v1.5
		c-0.2,0-0.3-0.1-0.5-0.1c-1.1,0-1.9,0.8-2.1,2c0,0.2-0.1,0.5-0.1,0.7v4.6h-1.6V185.1z"/>
	<path class="st0" d="M24.7,184.8c0-0.9,0-1.6-0.1-2.4h1.4l0.1,1.4h0c0.4-0.8,1.4-1.6,2.9-1.6c1.2,0,3.1,0.7,3.1,3.7v5.2h-1.6v-5
		c0-1.4-0.5-2.6-2-2.6c-1,0-1.9,0.7-2.1,1.6c-0.1,0.2-0.1,0.5-0.1,0.7v5.2h-1.6V184.8z"/>
	<path class="st0" d="M45.8,188.8c0,0.9,0,1.7,0.1,2.4h-1.4l-0.1-1.4h0c-0.4,0.7-1.3,1.6-2.9,1.6c-1.4,0-3-0.8-3-3.8v-5.1h1.6v4.8
		c0,1.7,0.5,2.8,1.9,2.8c1.1,0,1.8-0.7,2.1-1.4c0.1-0.2,0.1-0.5,0.1-0.8v-5.3h1.6V188.8z"/>
	<path class="st0" d="M48.5,185.3c0-1.1,0-2-0.1-2.8h1.4l0.1,1.5h0c0.6-1.1,1.7-1.7,3.1-1.7c2.1,0,3.7,1.8,3.7,4.4
		c0,3.1-1.9,4.7-4,4.7c-1.2,0-2.2-0.5-2.7-1.4h0v4.7h-1.6V185.3z M50,187.6c0,0.2,0,0.5,0.1,0.6c0.3,1.1,1.2,1.9,2.4,1.9
		c1.7,0,2.6-1.4,2.6-3.4c0-1.7-0.9-3.2-2.6-3.2c-1.1,0-2.1,0.8-2.4,2c-0.1,0.2-0.1,0.4-0.1,0.6V187.6z"/>
	<path class="st0" d="M64.4,179.9v2.5h2.3v1.2h-2.3v4.7c0,1.1,0.3,1.7,1.2,1.7c0.4,0,0.7-0.1,0.9-0.1l0.1,1.2
		c-0.3,0.1-0.8,0.2-1.4,0.2c-0.7,0-1.3-0.2-1.7-0.7c-0.5-0.5-0.6-1.2-0.6-2.3v-4.8h-1.4v-1.2h1.4v-2.1L64.4,179.9z"/>
	<path class="st0" d="M76.2,186.7c0,3.2-2.2,4.6-4.3,4.6c-2.4,0-4.2-1.7-4.2-4.5c0-2.9,1.9-4.6,4.3-4.6
		C74.6,182.2,76.2,184,76.2,186.7z M69.3,186.8c0,1.9,1.1,3.3,2.6,3.3c1.5,0,2.6-1.4,2.6-3.4c0-1.5-0.7-3.3-2.6-3.3
		C70.1,183.4,69.3,185.1,69.3,186.8z"/>
	<path class="st0" d="M84.7,192.7v-1.8c-1,0-2.1-0.3-2.8-0.8l0.4-1.2c0.6,0.4,1.6,0.8,2.6,0.8c1.3,0,2.1-0.7,2.1-1.8
		c0-1-0.7-1.6-2-2.1c-1.8-0.7-3-1.5-3-3.1c0-1.5,1.1-2.6,2.7-2.9v-1.8h1.1v1.7c1.1,0,1.8,0.3,2.3,0.6l-0.5,1.2
		c-0.4-0.2-1.1-0.6-2.3-0.6c-1.4,0-1.9,0.8-1.9,1.5c0,0.9,0.7,1.4,2.2,2.1c1.9,0.8,2.8,1.7,2.8,3.3c0,1.4-1,2.8-2.8,3.1v1.9H84.7z"
		/>
	<path class="st0" d="M90.8,191.1v-1L92,189c3-2.8,4.3-4.4,4.4-6.1c0-1.2-0.6-2.3-2.3-2.3c-1.1,0-1.9,0.5-2.5,1l-0.5-1.1
		c0.8-0.7,2-1.2,3.3-1.2c2.5,0,3.6,1.7,3.6,3.4c0,2.2-1.6,3.9-4,6.3l-0.9,0.9v0h5.3v1.3H90.8z"/>
	<path class="st0" d="M107.8,185.2c0,4-1.5,6.2-4.1,6.2c-2.3,0-3.8-2.1-3.9-6c0-3.9,1.7-6.1,4.1-6.1
		C106.4,179.2,107.8,181.4,107.8,185.2z M101.4,185.3c0,3,0.9,4.8,2.4,4.8c1.6,0,2.4-1.9,2.4-4.9c0-2.9-0.7-4.8-2.4-4.8
		C102.5,180.5,101.4,182.1,101.4,185.3z"/>
	<path class="st0" d="M117,185.2c0,4-1.5,6.2-4.1,6.2c-2.3,0-3.8-2.1-3.9-6c0-3.9,1.7-6.1,4.1-6.1C115.6,179.2,117,181.4,117,185.2z
		 M110.7,185.3c0,3,0.9,4.8,2.4,4.8c1.6,0,2.4-1.9,2.4-4.9c0-2.9-0.7-4.8-2.4-4.8C111.7,180.5,110.7,182.1,110.7,185.3z"/>
	<path class="st0" d="M124.6,180c0,0.5-0.4,1-1,1c-0.6,0-1-0.4-1-1c0-0.6,0.4-1,1-1C124.2,179,124.6,179.4,124.6,180z M122.8,191.1
		v-8.7h1.6v8.7H122.8z"/>
	<path class="st0" d="M127,184.8c0-0.9,0-1.6-0.1-2.4h1.4l0.1,1.4h0c0.4-0.8,1.4-1.6,2.9-1.6c1.2,0,3.1,0.7,3.1,3.7v5.2h-1.6v-5
		c0-1.4-0.5-2.6-2-2.6c-1,0-1.9,0.7-2.1,1.6c-0.1,0.2-0.1,0.5-0.1,0.7v5.2H127V184.8z"/>
	<path class="st0" d="M142.2,191.1l-3.1-12.1h1.7l1.4,6.1c0.4,1.5,0.7,3,0.9,4.2h0c0.2-1.2,0.6-2.6,1-4.2l1.6-6.1h1.6l1.5,6.2
		c0.3,1.4,0.7,2.9,0.8,4.2h0c0.3-1.3,0.6-2.7,1-4.2l1.6-6.1h1.6l-3.4,12.1h-1.6l-1.5-6.3c-0.4-1.5-0.6-2.7-0.8-4h0
		c-0.2,1.2-0.5,2.4-0.9,4l-1.7,6.3H142.2z"/>
	<path class="st0" d="M155.7,187.1c0,2.1,1.4,3,3,3c1.1,0,1.8-0.2,2.4-0.5l0.3,1.1c-0.6,0.3-1.5,0.5-2.9,0.5c-2.7,0-4.3-1.8-4.3-4.4
		c0-2.6,1.5-4.7,4.1-4.7c2.8,0,3.6,2.5,3.6,4.1c0,0.3,0,0.6-0.1,0.7H155.7z M160.3,185.9c0-1-0.4-2.6-2.2-2.6
		c-1.6,0-2.3,1.5-2.4,2.6H160.3z"/>
	<path class="st0" d="M163.8,178.3h1.6v12.8h-1.6V178.3z"/>
	<path class="st0" d="M168.1,178.3h1.6v12.8h-1.6V178.3z"/>
	<path class="st0" d="M172.3,184.8c0-0.9,0-1.6-0.1-2.4h1.4l0.1,1.4h0c0.4-0.8,1.4-1.6,2.9-1.6c1.2,0,3.1,0.7,3.1,3.7v5.2h-1.6v-5
		c0-1.4-0.5-2.6-2-2.6c-1,0-1.9,0.7-2.1,1.6c-0.1,0.2-0.1,0.5-0.1,0.7v5.2h-1.6V184.8z"/>
	<path class="st0" d="M183.2,187.1c0,2.1,1.4,3,3,3c1.1,0,1.8-0.2,2.4-0.5l0.3,1.1c-0.6,0.3-1.5,0.5-2.9,0.5c-2.7,0-4.3-1.8-4.3-4.4
		c0-2.6,1.5-4.7,4.1-4.7c2.8,0,3.6,2.5,3.6,4.1c0,0.3,0,0.6-0.1,0.7H183.2z M187.8,185.9c0-1-0.4-2.6-2.2-2.6
		c-1.6,0-2.3,1.5-2.4,2.6H187.8z"/>
	<path class="st0" d="M191.1,189.5c0.5,0.3,1.3,0.6,2.1,0.6c1.2,0,1.7-0.6,1.7-1.3c0-0.8-0.5-1.2-1.6-1.6c-1.6-0.6-2.3-1.4-2.3-2.5
		c0-1.4,1.1-2.6,3-2.6c0.9,0,1.7,0.3,2.1,0.5l-0.4,1.2c-0.3-0.2-1-0.5-1.8-0.5c-0.9,0-1.5,0.5-1.5,1.2c0,0.7,0.5,1,1.7,1.5
		c1.5,0.6,2.3,1.3,2.3,2.6c0,1.5-1.2,2.6-3.3,2.6c-1,0-1.8-0.2-2.4-0.6L191.1,189.5z"/>
	<path class="st0" d="M198.2,189.5c0.5,0.3,1.3,0.6,2.1,0.6c1.2,0,1.7-0.6,1.7-1.3c0-0.8-0.5-1.2-1.6-1.6c-1.6-0.6-2.3-1.4-2.3-2.5
		c0-1.4,1.1-2.6,3-2.6c0.9,0,1.7,0.3,2.1,0.5l-0.4,1.2c-0.3-0.2-1-0.5-1.8-0.5c-0.9,0-1.5,0.5-1.5,1.2c0,0.7,0.5,1,1.7,1.5
		c1.5,0.6,2.3,1.3,2.3,2.6c0,1.5-1.2,2.6-3.3,2.6c-1,0-1.8-0.2-2.4-0.6L198.2,189.5z"/>
	<path class="st0" d="M211,179v12.1h-1.6V179H211z"/>
	<path class="st0" d="M213.9,184.8c0-0.9,0-1.6-0.1-2.4h1.4l0.1,1.4h0c0.4-0.8,1.4-1.6,2.9-1.6c1.2,0,3.1,0.7,3.1,3.7v5.2h-1.6v-5
		c0-1.4-0.5-2.6-2-2.6c-1,0-1.9,0.7-2.1,1.6c-0.1,0.2-0.1,0.5-0.1,0.7v5.2h-1.6V184.8z"/>
	<path class="st0" d="M230.1,190.8c-0.4,0.2-1.3,0.5-2.5,0.5c-2.6,0-4.3-1.8-4.3-4.4c0-2.7,1.8-4.6,4.7-4.6c0.9,0,1.8,0.2,2.2,0.5
		l-0.4,1.2c-0.4-0.2-1-0.4-1.8-0.4c-2,0-3.1,1.5-3.1,3.3c0,2,1.3,3.3,3,3.3c0.9,0,1.5-0.2,1.9-0.4L230.1,190.8z"/>
	<path class="st0" d="M232.7,187.1c0,2.1,1.4,3,3,3c1.1,0,1.8-0.2,2.4-0.5l0.3,1.1c-0.6,0.3-1.5,0.5-2.9,0.5c-2.7,0-4.3-1.8-4.3-4.4
		c0-2.6,1.5-4.7,4.1-4.7c2.8,0,3.6,2.5,3.6,4.1c0,0.3,0,0.6-0.1,0.7H232.7z M237.4,185.9c0-1-0.4-2.6-2.2-2.6
		c-1.6,0-2.3,1.5-2.4,2.6H237.4z"/>
	<path class="st0" d="M240.9,184.8c0-0.9,0-1.6-0.1-2.4h1.4l0.1,1.4h0c0.4-0.8,1.4-1.6,2.9-1.6c1.2,0,3.1,0.7,3.1,3.7v5.2h-1.6v-5
		c0-1.4-0.5-2.6-2-2.6c-1,0-1.9,0.7-2.1,1.6c-0.1,0.2-0.1,0.5-0.1,0.7v5.2h-1.6V184.8z"/>
	<path class="st0" d="M252.7,179.9v2.5h2.3v1.2h-2.3v4.7c0,1.1,0.3,1.7,1.2,1.7c0.4,0,0.7-0.1,0.9-0.1l0.1,1.2
		c-0.3,0.1-0.8,0.2-1.4,0.2c-0.7,0-1.3-0.2-1.7-0.7c-0.5-0.5-0.6-1.2-0.6-2.3v-4.8h-1.4v-1.2h1.4v-2.1L252.7,179.9z"/>
	<path class="st0" d="M258.5,180c0,0.5-0.4,1-1,1c-0.6,0-1-0.4-1-1c0-0.6,0.4-1,1-1C258.1,179,258.5,179.4,258.5,180z M256.7,191.1
		v-8.7h1.6v8.7H256.7z"/>
	<path class="st0" d="M261.6,182.4l1.7,4.9c0.3,0.8,0.5,1.5,0.7,2.2h0.1c0.2-0.7,0.5-1.4,0.7-2.2l1.7-4.9h1.7l-3.4,8.7h-1.5
		l-3.3-8.7H261.6z"/>
	<path class="st0" d="M270.3,187.1c0,2.1,1.4,3,3,3c1.1,0,1.8-0.2,2.4-0.5l0.3,1.1c-0.6,0.3-1.5,0.5-2.9,0.5c-2.7,0-4.3-1.8-4.3-4.4
		c0-2.6,1.5-4.7,4.1-4.7c2.8,0,3.6,2.5,3.6,4.1c0,0.3,0,0.6-0.1,0.7H270.3z M274.9,185.9c0-1-0.4-2.6-2.2-2.6
		c-1.6,0-2.3,1.5-2.4,2.6H274.9z"/>
	<path class="st0" d="M278.2,189.5c0.5,0.3,1.3,0.6,2.1,0.6c1.2,0,1.7-0.6,1.7-1.3c0-0.8-0.5-1.2-1.6-1.6c-1.6-0.6-2.3-1.4-2.3-2.5
		c0-1.4,1.1-2.6,3-2.6c0.9,0,1.7,0.3,2.1,0.5l-0.4,1.2c-0.3-0.2-1-0.5-1.8-0.5c-0.9,0-1.5,0.5-1.5,1.2c0,0.7,0.5,1,1.7,1.5
		c1.5,0.6,2.3,1.3,2.3,2.6c0,1.5-1.2,2.6-3.3,2.6c-1,0-1.8-0.2-2.4-0.6L278.2,189.5z"/>
</g>
<g>
	<path class="st1" d="M10.4,94.4c-2.8-0.2-5.9-0.9-9-2.2l1-3.3c2.8,1.2,5.5,1.9,8.1,2.2V80.2c-1.8-0.5-3.4-1.1-4.6-1.7
		c-1.2-0.6-2.3-1.5-3.1-2.6c-0.8-1.1-1.2-2.6-1.2-4.3c0-2.2,0.8-4,2.4-5.5s3.7-2.3,6.4-2.6v-8.7H14v8.6c2.3,0.2,5,0.9,8,2l-1,3.3
		c-2.7-1.1-5.1-1.8-7.1-2v10.5c1.9,0.5,3.4,1.1,4.7,1.7c1.3,0.6,2.3,1.5,3.1,2.7s1.2,2.7,1.2,4.5c0,2.3-0.8,4.2-2.4,5.6
		c-1.6,1.5-3.8,2.3-6.6,2.6v8.7h-3.5V94.4z M10.5,66.9C9,67.1,7.9,67.7,7,68.5s-1.2,1.8-1.2,3c0,1.2,0.4,2.2,1.2,2.8
		c0.8,0.7,2,1.3,3.5,1.8V66.9z M17.5,89.3c0.9-0.8,1.3-1.9,1.3-3.2c0-1.2-0.4-2.2-1.3-3c-0.9-0.7-2.1-1.4-3.6-1.9V91
		C15.4,90.7,16.6,90.1,17.5,89.3z"/>
	<path class="st1" d="M40.2,65.6l-9,5.2l-1.5-2.9l11.2-6.4h3.5v34.9h-4.2V65.6z"/>
	<path class="st1" d="M60.1,94.8c-1.9-1.5-3.4-3.6-4.5-6.3c-1-2.7-1.6-5.9-1.6-9.6s0.5-6.9,1.6-9.6c1-2.7,2.5-4.8,4.5-6.3
		c1.9-1.5,4.2-2.2,6.8-2.2c2.6,0,4.9,0.7,6.8,2.2c1.9,1.5,3.4,3.6,4.5,6.3c1,2.7,1.6,5.9,1.6,9.6s-0.5,6.9-1.6,9.6
		c-1,2.7-2.5,4.8-4.5,6.3c-1.9,1.5-4.2,2.2-6.8,2.2C64.3,97,62,96.3,60.1,94.8z M71.6,91.7c1.3-1.2,2.4-2.9,3.1-5.1
		c0.7-2.2,1.1-4.8,1.1-7.7c0-3-0.4-5.6-1.1-7.8c-0.7-2.2-1.8-3.9-3.1-5.1c-1.3-1.2-2.9-1.8-4.7-1.8s-3.4,0.6-4.7,1.8
		c-1.3,1.2-2.4,2.9-3.1,5.1c-0.7,2.2-1.1,4.8-1.1,7.8c0,2.9,0.4,5.5,1.1,7.7c0.7,2.2,1.8,3.9,3.1,5.1c1.3,1.2,2.9,1.8,4.7,1.8
		S70.3,92.9,71.6,91.7z"/>
	<path class="st1" d="M87.4,94.8c-1.9-1.5-3.4-3.6-4.5-6.3c-1-2.7-1.6-5.9-1.6-9.6s0.5-6.9,1.6-9.6c1-2.7,2.5-4.8,4.5-6.3
		c1.9-1.5,4.2-2.2,6.8-2.2c2.6,0,4.9,0.7,6.8,2.2c1.9,1.5,3.4,3.6,4.5,6.3c1,2.7,1.6,5.9,1.6,9.6s-0.5,6.9-1.6,9.6
		c-1,2.7-2.5,4.8-4.5,6.3c-1.9,1.5-4.2,2.2-6.8,2.2C91.6,97,89.4,96.3,87.4,94.8z M98.9,91.7c1.3-1.2,2.4-2.9,3.1-5.1
		c0.7-2.2,1.1-4.8,1.1-7.7c0-3-0.4-5.6-1.1-7.8c-0.7-2.2-1.8-3.9-3.1-5.1c-1.3-1.2-2.9-1.8-4.7-1.8s-3.4,0.6-4.7,1.8
		c-1.3,1.2-2.4,2.9-3.1,5.1c-0.7,2.2-1.1,4.8-1.1,7.8c0,2.9,0.4,5.5,1.1,7.7c0.7,2.2,1.8,3.9,3.1,5.1c1.3,1.2,2.9,1.8,4.7,1.8
		S97.6,92.9,98.9,91.7z"/>
	<path class="st1" d="M111,96c-0.5-0.5-0.8-1.2-0.8-2.1c0-0.9,0.3-1.6,0.8-2.1c0.5-0.5,1.2-0.8,2.1-0.8c0.8,0,1.5,0.3,2.1,0.8
		c0.6,0.5,0.8,1.2,0.8,2.1c0,0.8-0.3,1.5-0.8,2.1s-1.2,0.8-2.1,0.8C112.2,96.9,111.5,96.6,111,96z"/>
	<path class="st1" d="M125,94.8c-1.9-1.5-3.4-3.6-4.5-6.3c-1-2.7-1.6-5.9-1.6-9.6s0.5-6.9,1.6-9.6c1-2.7,2.5-4.8,4.5-6.3
		c1.9-1.5,4.2-2.2,6.8-2.2c2.6,0,4.9,0.7,6.8,2.2c1.9,1.5,3.4,3.6,4.5,6.3c1,2.7,1.6,5.9,1.6,9.6s-0.5,6.9-1.6,9.6
		c-1,2.7-2.5,4.8-4.5,6.3c-1.9,1.5-4.2,2.2-6.8,2.2C129.2,97,127,96.3,125,94.8z M136.5,91.7c1.3-1.2,2.4-2.9,3.1-5.1
		c0.7-2.2,1.1-4.8,1.1-7.7c0-3-0.4-5.6-1.1-7.8c-0.7-2.2-1.8-3.9-3.1-5.1c-1.3-1.2-2.9-1.8-4.7-1.8c-1.8,0-3.4,0.6-4.7,1.8
		c-1.3,1.2-2.4,2.9-3.1,5.1c-0.7,2.2-1.1,4.8-1.1,7.8c0,2.9,0.4,5.5,1.1,7.7c0.7,2.2,1.8,3.9,3.1,5.1c1.3,1.2,2.9,1.8,4.7,1.8
		C133.6,93.5,135.2,92.9,136.5,91.7z"/>
	<path class="st1" d="M152.4,94.8c-1.9-1.5-3.4-3.6-4.5-6.3c-1-2.7-1.6-5.9-1.6-9.6s0.5-6.9,1.6-9.6c1-2.7,2.5-4.8,4.5-6.3
		c1.9-1.5,4.2-2.2,6.8-2.2c2.6,0,4.9,0.7,6.8,2.2c1.9,1.5,3.4,3.6,4.5,6.3c1,2.7,1.6,5.9,1.6,9.6s-0.5,6.9-1.6,9.6
		c-1,2.7-2.5,4.8-4.5,6.3c-1.9,1.5-4.2,2.2-6.8,2.2C156.6,97,154.3,96.3,152.4,94.8z M163.9,91.7c1.3-1.2,2.4-2.9,3.1-5.1
		c0.7-2.2,1.1-4.8,1.1-7.7c0-3-0.4-5.6-1.1-7.8c-0.7-2.2-1.8-3.9-3.1-5.1c-1.3-1.2-2.9-1.8-4.7-1.8c-1.8,0-3.4,0.6-4.7,1.8
		c-1.3,1.2-2.4,2.9-3.1,5.1c-0.7,2.2-1.1,4.8-1.1,7.8c0,2.9,0.4,5.5,1.1,7.7c0.7,2.2,1.8,3.9,3.1,5.1c1.3,1.2,2.9,1.8,4.7,1.8
		C161,93.5,162.6,92.9,163.9,91.7z"/>
</g>
<g>
	<path class="st2" d="M10.5,111.6h1.4l5,12.1h-1.5l-1.3-3.3H8.3L7,123.7H5.5L10.5,111.6z M13.6,119.2l-2.4-6l-2.4,6H13.6z"/>
	<path class="st2" d="M18.3,123.2l0.3-1.1c1,0.4,2,0.6,2.8,0.6c0.6,0,1.1-0.1,1.4-0.4c0.4-0.3,0.5-0.6,0.5-1c0-0.3-0.1-0.6-0.3-0.8
		c-0.2-0.2-0.4-0.3-0.7-0.5c-0.3-0.1-0.7-0.2-1.2-0.4c-0.6-0.2-1.1-0.3-1.5-0.5s-0.7-0.4-1-0.8c-0.3-0.3-0.4-0.8-0.4-1.3
		c0-0.5,0.1-0.9,0.4-1.3c0.3-0.4,0.6-0.7,1.1-0.9c0.5-0.2,1-0.3,1.6-0.3c1,0,1.9,0.2,3,0.6l-0.3,1.1c-0.9-0.4-1.8-0.6-2.5-0.6
		c-0.6,0-1,0.1-1.4,0.4c-0.3,0.2-0.5,0.6-0.5,1c0,0.4,0.2,0.8,0.5,1c0.3,0.2,0.9,0.4,1.6,0.6c0.6,0.2,1.1,0.3,1.5,0.5
		c0.4,0.2,0.7,0.4,1,0.8c0.3,0.3,0.4,0.8,0.4,1.4c0,0.7-0.3,1.3-0.9,1.8c-0.6,0.5-1.4,0.7-2.3,0.7C20.5,123.9,19.4,123.7,18.3,123.2
		z"/>
	<path class="st2" d="M32.8,123.3c-0.7-0.4-1.2-0.9-1.6-1.6c-0.4-0.7-0.6-1.5-0.6-2.4c0-0.9,0.2-1.7,0.6-2.4s0.9-1.2,1.6-1.6
		s1.4-0.6,2.3-0.6c0.9,0,1.6,0.2,2.3,0.6c0.7,0.4,1.2,0.9,1.6,1.6c0.4,0.7,0.6,1.5,0.6,2.4c0,0.9-0.2,1.7-0.6,2.4
		c-0.4,0.7-0.9,1.2-1.6,1.6c-0.7,0.4-1.4,0.6-2.3,0.6C34.3,123.9,33.5,123.7,32.8,123.3z M36.7,122.3c0.5-0.3,0.8-0.7,1.1-1.2
		s0.4-1.1,0.4-1.8c0-0.7-0.1-1.3-0.4-1.8c-0.3-0.5-0.6-0.9-1.1-1.2c-0.5-0.3-1-0.4-1.5-0.4c-0.6,0-1.1,0.1-1.5,0.4s-0.8,0.7-1.1,1.2
		c-0.3,0.5-0.4,1.1-0.4,1.8c0,0.7,0.1,1.3,0.4,1.8s0.6,0.9,1.1,1.2s1,0.4,1.5,0.4C35.7,122.7,36.2,122.6,36.7,122.3z"/>
	<path class="st2" d="M42.2,116.1h-1.8v-1.1h1.8v-1.6c0-0.8,0.2-1.4,0.7-1.9c0.5-0.5,1.1-0.7,2-0.7c0.5,0,1.1,0.1,1.7,0.2l-0.2,1.1
		c-0.5-0.1-0.9-0.2-1.2-0.2c-0.5,0-0.8,0.1-1.1,0.4c-0.3,0.3-0.4,0.6-0.4,1.1v1.5h2.5v1.1h-2.5v7.6h-1.4V116.1z"/>
	<path class="st2" d="M53.3,123.2c-0.5-0.5-0.7-1.1-0.7-1.9v-5.3h-1.8v-1.1h1.8v-2.6H54v2.6h2.8v1.1H54v5.1c0,0.5,0.1,0.8,0.4,1.1
		c0.3,0.3,0.7,0.4,1.1,0.4c0.3,0,0.7-0.1,1.2-0.2l0.2,1.1c-0.6,0.2-1.1,0.2-1.7,0.2C54.5,123.9,53.8,123.6,53.3,123.2z"/>
	<path class="st2" d="M60.1,123.3c-0.7-0.4-1.2-0.9-1.6-1.6c-0.4-0.7-0.6-1.5-0.6-2.4c0-0.9,0.2-1.7,0.6-2.4s0.9-1.2,1.6-1.6
		s1.4-0.6,2.3-0.6c0.9,0,1.6,0.2,2.3,0.6c0.7,0.4,1.2,0.9,1.6,1.6c0.4,0.7,0.6,1.5,0.6,2.4c0,0.9-0.2,1.7-0.6,2.4
		c-0.4,0.7-0.9,1.2-1.6,1.6c-0.7,0.4-1.4,0.6-2.3,0.6C61.5,123.9,60.7,123.7,60.1,123.3z M63.9,122.3c0.5-0.3,0.8-0.7,1.1-1.2
		s0.4-1.1,0.4-1.8c0-0.7-0.1-1.3-0.4-1.8c-0.3-0.5-0.6-0.9-1.1-1.2c-0.5-0.3-1-0.4-1.5-0.4c-0.6,0-1.1,0.1-1.5,0.4s-0.8,0.7-1.1,1.2
		c-0.3,0.5-0.4,1.1-0.4,1.8c0,0.7,0.1,1.3,0.4,1.8s0.6,0.9,1.1,1.2s1,0.4,1.5,0.4C63,122.7,63.5,122.6,63.9,122.3z"/>
	<path class="st2" d="M70.3,123.3c-0.6-0.4-1.1-0.9-1.4-1.6c-0.3-0.7-0.5-1.5-0.5-2.4c0-0.9,0.2-1.7,0.5-2.4s0.8-1.2,1.4-1.6
		c0.6-0.4,1.3-0.6,2-0.6c0.6,0,1.2,0.1,1.7,0.4c0.5,0.3,0.9,0.7,1.2,1.2V111h1.4v12.7h-1.2l-0.2-1.5c-0.3,0.5-0.7,1-1.3,1.2
		c-0.5,0.3-1.1,0.4-1.8,0.4C71.6,123.9,70.9,123.7,70.3,123.3z M74.6,122c0.5-0.5,0.7-1.2,0.7-2v-1.4c0-0.8-0.2-1.4-0.7-2
		c-0.5-0.5-1.1-0.8-1.9-0.8c-0.5,0-1,0.1-1.5,0.4s-0.8,0.7-1,1.2c-0.2,0.5-0.4,1.1-0.4,1.8s0.1,1.3,0.4,1.8c0.2,0.5,0.6,0.9,1,1.2
		s0.9,0.4,1.5,0.4C73.5,122.7,74.1,122.5,74.6,122z"/>
	<path class="st2" d="M80.8,123.3c-0.6-0.4-1.1-0.9-1.4-1.6c-0.3-0.7-0.5-1.5-0.5-2.4c0-0.9,0.2-1.7,0.5-2.4s0.8-1.2,1.4-1.6
		c0.6-0.4,1.3-0.6,2-0.6c0.6,0,1.2,0.1,1.7,0.4c0.5,0.3,0.9,0.7,1.2,1.2l0.2-1.4h1.3v8.7H86l-0.2-1.5c-0.3,0.5-0.7,1-1.3,1.2
		c-0.5,0.3-1.1,0.4-1.8,0.4C82.1,123.9,81.4,123.7,80.8,123.3z M85.1,122c0.5-0.5,0.7-1.2,0.7-2v-1.4c0-0.8-0.2-1.4-0.7-2
		c-0.5-0.5-1.1-0.8-1.9-0.8c-0.5,0-1,0.1-1.5,0.4s-0.8,0.7-1,1.2c-0.2,0.5-0.4,1.1-0.4,1.8s0.1,1.3,0.4,1.8c0.2,0.5,0.6,0.9,1,1.2
		s0.9,0.4,1.5,0.4C84,122.7,84.6,122.5,85.1,122z"/>
	<path class="st2" d="M89.2,127.5l0.2-1.2c0.3,0.1,0.6,0.1,0.9,0.1c0.4,0,0.8-0.1,1.1-0.4c0.3-0.3,0.6-0.7,0.8-1.3l0.5-1.1l-3.6-8.7
		h1.5l2.8,7.1l2.7-7.1h1.5L93.5,125c-0.4,0.9-0.8,1.6-1.3,2c-0.5,0.4-1.1,0.6-1.8,0.6C90.1,127.6,89.7,127.6,89.2,127.5z"/>
</g>
<g>
	<path class="st0" d="M555.1,57h3.9v16.5h8.7v3h-12.5V57z"/>
	<path class="st0" d="M572.6,75.9c-1.2-0.6-2.1-1.5-2.7-2.6c-0.7-1.1-1-2.4-1-3.9c0-1.4,0.3-2.7,0.9-3.9c0.6-1.1,1.5-2,2.6-2.6
		c1.1-0.6,2.4-0.9,3.8-0.9c1.3,0,2.5,0.3,3.6,0.9c1,0.6,1.8,1.5,2.4,2.5c0.6,1.1,0.9,2.3,0.9,3.7c0,0.3,0,0.7-0.1,1.2h-10.4
		c0.1,1.1,0.6,2,1.4,2.7c0.8,0.7,1.8,1,3.1,1c1.3,0,2.6-0.4,4.1-1.2l1.1,2.5c-1.9,0.9-3.8,1.4-5.7,1.4
		C575.1,76.9,573.8,76.6,572.6,75.9z M579.4,68.1c-0.1-1-0.4-1.8-1-2.5c-0.6-0.6-1.4-0.9-2.3-0.9c-0.9,0-1.8,0.3-2.4,0.9
		c-0.7,0.6-1,1.4-1.2,2.5H579.4z"/>
	<path class="st0" d="M588,75.9c-1-0.6-1.8-1.5-2.3-2.6c-0.6-1.1-0.8-2.4-0.8-3.9c0-1.4,0.3-2.7,0.8-3.9c0.6-1.1,1.3-2,2.3-2.6
		c1-0.6,2.1-0.9,3.4-0.9c0.9,0,1.8,0.2,2.6,0.6s1.4,0.9,2,1.6l0.5-1.8h3v14.2h-3l-0.5-1.8c-0.5,0.7-1.2,1.2-2,1.6s-1.6,0.6-2.6,0.6
		C590.1,76.9,589,76.6,588,75.9z M594.7,73c0.6-0.7,1-1.5,1-2.6v-1.9c0-1-0.3-1.9-0.9-2.6s-1.4-1-2.5-1c-1.1,0-2,0.4-2.7,1.3
		c-0.7,0.8-1,1.9-1,3.3c0,1.3,0.3,2.4,1,3.2c0.7,0.9,1.6,1.3,2.7,1.3C593.3,74,594.1,73.6,594.7,73z"/>
	<path class="st0" d="M603.1,62.3h3l0.5,2.2c0.4-0.8,1-1.4,1.7-1.8c0.7-0.4,1.6-0.6,2.5-0.6c0.6,0,1.2,0.1,1.7,0.2l-0.3,3
		c-0.6-0.1-1.1-0.2-1.7-0.2c-1.1,0-2,0.4-2.6,1.1c-0.7,0.8-1,1.8-1,3v7.3h-3.7V62.3z"/>
	<path class="st0" d="M614.8,62.3h3l0.5,2.1c0.5-0.8,1.2-1.4,2.1-1.8c0.9-0.4,1.8-0.6,2.8-0.6c1.1,0,2,0.2,2.9,0.7s1.5,1.1,2,1.9
		c0.5,0.8,0.7,1.8,0.7,2.8v9.1h-3.7V68c0-0.9-0.3-1.6-0.8-2.1c-0.6-0.6-1.3-0.8-2.1-0.8c-1,0-1.8,0.3-2.5,1s-1,1.6-1,2.7v7.8h-3.7
		V62.3z"/>
	<path class="st0" d="M641.4,75.9c-1-0.6-1.8-1.5-2.3-2.6c-0.6-1.1-0.8-2.4-0.8-3.9c0-1.4,0.3-2.7,0.8-3.9c0.6-1.1,1.3-2,2.3-2.6
		c1-0.6,2.1-0.9,3.4-0.9c0.9,0,1.8,0.2,2.6,0.6s1.4,0.9,2,1.6l0.5-1.8h3v14.2h-3l-0.5-1.8c-0.5,0.7-1.2,1.2-2,1.6s-1.6,0.6-2.6,0.6
		C643.5,76.9,642.4,76.6,641.4,75.9z M648.2,73c0.6-0.7,1-1.5,1-2.6v-1.9c0-1-0.3-1.9-0.9-2.6s-1.4-1-2.5-1c-1.1,0-2,0.4-2.7,1.3
		c-0.7,0.8-1,1.9-1,3.3c0,1.3,0.3,2.4,1,3.2c0.7,0.9,1.6,1.3,2.7,1.3C646.7,74,647.6,73.6,648.2,73z"/>
	<path class="st0" d="M662,76.3c-0.8-0.4-1.4-0.9-2-1.6l-0.5,1.8h-3V56.1h3.7v7.8c0.5-0.6,1.1-1.1,1.9-1.4c0.7-0.3,1.5-0.5,2.4-0.5
		c1.3,0,2.4,0.3,3.4,0.9s1.8,1.5,2.3,2.6s0.8,2.4,0.8,3.9c0,1.5-0.3,2.7-0.8,3.9s-1.3,2-2.3,2.6s-2.1,0.9-3.4,0.9
		C663.6,76.9,662.7,76.7,662,76.3z M666.3,72.7c0.7-0.8,1-1.9,1-3.2c0-1.3-0.3-2.4-1-3.3c-0.7-0.8-1.6-1.3-2.7-1.3
		c-1,0-1.8,0.3-2.4,1c-0.6,0.7-0.9,1.5-0.9,2.6v1.9c0,1,0.3,1.9,0.9,2.6c0.6,0.7,1.4,1,2.4,1C664.7,74,665.6,73.5,666.3,72.7z"/>
	<path class="st0" d="M676.8,75.9c-1.2-0.6-2.1-1.5-2.7-2.6c-0.6-1.1-1-2.4-1-3.9c0-1.4,0.3-2.7,1-3.9c0.6-1.1,1.6-2,2.7-2.6
		c1.2-0.6,2.5-0.9,4-0.9c1.5,0,2.8,0.3,4,0.9s2.1,1.5,2.7,2.6s1,2.4,1,3.9c0,1.5-0.3,2.7-1,3.9s-1.6,2-2.7,2.6s-2.5,0.9-4,0.9
		C679.3,76.9,678,76.6,676.8,75.9z M683.6,72.7c0.7-0.9,1.1-1.9,1.1-3.3c0-1.4-0.4-2.5-1.1-3.3s-1.7-1.3-2.8-1.3
		c-1.1,0-2.1,0.4-2.8,1.3c-0.7,0.9-1.1,1.9-1.1,3.3s0.4,2.4,1.1,3.3c0.7,0.9,1.7,1.3,2.8,1.3C682,74,682.9,73.6,683.6,72.7z"/>
	<path class="st0" d="M693.9,76.2c-0.9-0.5-1.5-1.1-2-1.9c-0.5-0.8-0.7-1.8-0.7-2.8v-9.1h3.7v8.5c0,0.9,0.3,1.6,0.8,2.2
		s1.3,0.8,2.1,0.8c1,0,1.8-0.3,2.5-1c0.6-0.7,1-1.6,1-2.7v-7.8h3.7v14.2h-3l-0.5-2.1c-0.5,0.8-1.2,1.4-2.1,1.8
		c-0.9,0.4-1.8,0.6-2.8,0.6C695.7,76.9,694.7,76.6,693.9,76.2z"/>
	<path class="st0" d="M711.6,75.6c-0.9-0.9-1.3-2-1.3-3.3v-7.2h-2.6v-2.8h2.6v-4.2h3.7v4.2h3.9v2.8H714v6.8c0,0.6,0.2,1.1,0.6,1.5
		s0.9,0.6,1.5,0.6c0.6,0,1.2-0.1,1.8-0.3l0.5,2.8c-1.1,0.3-2.2,0.4-3.2,0.4C713.6,76.9,712.5,76.5,711.6,75.6z"/>
	<path class="st0" d="M553.2,91h3.9l4.3,14.8l4.3-14.8h3.6l4.3,14.8l4.3-14.8h3.9l-6.2,19.5h-3.8l-4.3-14.8l-4.3,14.8h-3.8L553.2,91
		z"/>
	<path class="st0" d="M585.6,109.9c-1.2-0.6-2.1-1.5-2.7-2.6c-0.7-1.1-1-2.4-1-3.9c0-1.4,0.3-2.7,0.9-3.9c0.6-1.1,1.5-2,2.6-2.6
		c1.1-0.6,2.4-0.9,3.8-0.9c1.3,0,2.5,0.3,3.6,0.9c1,0.6,1.8,1.5,2.4,2.5c0.6,1.1,0.9,2.3,0.9,3.7c0,0.3,0,0.7-0.1,1.2h-10.4
		c0.1,1.1,0.6,2,1.4,2.7c0.8,0.7,1.8,1,3.1,1c1.3,0,2.6-0.4,4.1-1.2l1.1,2.5c-1.9,0.9-3.8,1.4-5.7,1.4
		C588.1,110.9,586.7,110.6,585.6,109.9z M592.4,102.1c-0.1-1-0.4-1.8-1-2.5c-0.6-0.6-1.4-0.9-2.3-0.9c-0.9,0-1.8,0.3-2.4,0.9
		c-0.7,0.6-1,1.4-1.2,2.5H592.4z"/>
	<path class="st0" d="M599.8,109.8c-0.8-0.7-1.2-1.7-1.2-2.9V90.1h3.7v16.4c0,0.4,0.1,0.8,0.4,1.1c0.3,0.3,0.6,0.4,1.1,0.4
		c0.2,0,0.7-0.1,1.3-0.2l0.4,2.8c-1,0.2-1.8,0.3-2.6,0.3C601.6,110.9,600.6,110.5,599.8,109.8z"/>
	<path class="st0" d="M608.4,109.8c-0.8-0.7-1.2-1.7-1.2-2.9V90.1h3.7v16.4c0,0.4,0.1,0.8,0.4,1.1c0.3,0.3,0.6,0.4,1.1,0.4
		c0.2,0,0.7-0.1,1.3-0.2l0.4,2.8c-1,0.2-1.8,0.3-2.6,0.3C610.2,110.9,609.1,110.5,608.4,109.8z"/>
	<path class="st0" d="M616.1,96.3h3l0.5,2.1c0.5-0.8,1.2-1.4,2.1-1.8c0.9-0.4,1.8-0.6,2.8-0.6c1.1,0,2,0.2,2.9,0.7s1.5,1.1,2,1.9
		c0.5,0.8,0.7,1.8,0.7,2.8v9.1h-3.7V102c0-0.9-0.3-1.6-0.8-2.1c-0.6-0.6-1.3-0.8-2.1-0.8c-1,0-1.8,0.3-2.5,1s-1,1.6-1,2.7v7.8h-3.7
		V96.3z"/>
	<path class="st0" d="M636.4,109.9c-1.2-0.6-2.1-1.5-2.7-2.6c-0.7-1.1-1-2.4-1-3.9c0-1.4,0.3-2.7,0.9-3.9c0.6-1.1,1.5-2,2.6-2.6
		c1.1-0.6,2.4-0.9,3.8-0.9c1.3,0,2.5,0.3,3.6,0.9c1,0.6,1.8,1.5,2.4,2.5c0.6,1.1,0.9,2.3,0.9,3.7c0,0.3,0,0.7-0.1,1.2h-10.4
		c0.1,1.1,0.6,2,1.4,2.7c0.8,0.7,1.8,1,3.1,1c1.3,0,2.6-0.4,4.1-1.2l1.1,2.5c-1.9,0.9-3.8,1.4-5.7,1.4
		C638.9,110.9,637.6,110.6,636.4,109.9z M643.3,102.1c-0.1-1-0.4-1.8-1-2.5c-0.6-0.6-1.4-0.9-2.3-0.9c-0.9,0-1.8,0.3-2.4,0.9
		c-0.7,0.6-1,1.4-1.2,2.5H643.3z"/>
	<path class="st0" d="M648.7,109.7l0.8-2.6c1.7,0.7,3.2,1,4.6,1c0.7,0,1.3-0.1,1.7-0.4s0.6-0.7,0.6-1.2s-0.2-0.9-0.7-1.1
		c-0.5-0.2-1.2-0.5-2.1-0.7c-1-0.3-1.8-0.5-2.4-0.8c-0.6-0.3-1.2-0.7-1.6-1.3c-0.5-0.6-0.7-1.3-0.7-2.3c0-0.8,0.2-1.6,0.7-2.2
		c0.5-0.6,1.1-1.2,2-1.5s1.8-0.6,2.9-0.6c1.6,0,3.4,0.3,5.2,1l-0.8,2.7c-1.5-0.6-2.9-0.9-4.1-0.9c-0.7,0-1.2,0.1-1.6,0.4
		c-0.4,0.3-0.6,0.7-0.6,1.1c0,0.5,0.2,0.8,0.7,1c0.4,0.2,1.1,0.5,2.1,0.7c1,0.2,1.8,0.5,2.5,0.8c0.7,0.3,1.2,0.7,1.7,1.3
		c0.5,0.6,0.7,1.4,0.7,2.4c0,0.9-0.2,1.6-0.7,2.3c-0.5,0.7-1.2,1.2-2,1.6s-1.8,0.6-2.9,0.6C652.6,110.9,650.7,110.5,648.7,109.7z"/>
	<path class="st0" d="M662.1,109.7l0.8-2.6c1.7,0.7,3.2,1,4.6,1c0.7,0,1.3-0.1,1.7-0.4s0.6-0.7,0.6-1.2s-0.2-0.9-0.7-1.1
		c-0.5-0.2-1.2-0.5-2.1-0.7c-1-0.3-1.8-0.5-2.4-0.8c-0.6-0.3-1.2-0.7-1.6-1.3c-0.5-0.6-0.7-1.3-0.7-2.3c0-0.8,0.2-1.6,0.7-2.2
		c0.5-0.6,1.1-1.2,2-1.5s1.8-0.6,2.9-0.6c1.6,0,3.4,0.3,5.2,1l-0.8,2.7c-1.5-0.6-2.9-0.9-4.1-0.9c-0.7,0-1.2,0.1-1.6,0.4
		c-0.4,0.3-0.6,0.7-0.6,1.1c0,0.5,0.2,0.8,0.7,1c0.4,0.2,1.1,0.5,2.1,0.7c1,0.2,1.8,0.5,2.5,0.8c0.7,0.3,1.2,0.7,1.7,1.3
		c0.5,0.6,0.7,1.4,0.7,2.4c0,0.9-0.2,1.6-0.7,2.3c-0.5,0.7-1.2,1.2-2,1.6s-1.8,0.6-2.9,0.6C666,110.9,664.1,110.5,662.1,109.7z"/>
	<path class="st0" d="M683.9,91h3.9v19.5h-3.9V91z"/>
	<path class="st0" d="M692.1,96.3h3l0.5,2.1c0.5-0.8,1.2-1.4,2.1-1.8c0.9-0.4,1.8-0.6,2.8-0.6c1.1,0,2,0.2,2.9,0.7s1.5,1.1,2,1.9
		c0.5,0.8,0.7,1.8,0.7,2.8v9.1h-3.7V102c0-0.9-0.3-1.6-0.8-2.1c-0.6-0.6-1.3-0.8-2.1-0.8c-1,0-1.8,0.3-2.5,1s-1,1.6-1,2.7v7.8h-3.7
		V96.3z"/>
	<path class="st0" d="M712.3,109.9c-1.1-0.6-2-1.5-2.7-2.7s-1-2.4-1-3.8c0-1.4,0.3-2.7,1-3.9s1.5-2,2.7-2.6s2.4-0.9,3.9-0.9
		c1.9,0,3.8,0.6,5.5,1.7l-1.5,2.5c-1.2-0.8-2.3-1.2-3.4-1.2c-1.3,0-2.3,0.4-3.1,1.3c-0.8,0.8-1.2,1.9-1.2,3.2c0,1.3,0.4,2.4,1.2,3.2
		c0.8,0.8,1.8,1.3,3.1,1.3c1.1,0,2.2-0.4,3.4-1.2l1.5,2.5c-1.7,1.1-3.5,1.7-5.5,1.7C714.7,110.9,713.4,110.6,712.3,109.9z"/>
	<path class="st0" d="M726.6,109.9c-1.2-0.6-2.1-1.5-2.7-2.6c-0.7-1.1-1-2.4-1-3.9c0-1.4,0.3-2.7,0.9-3.9c0.6-1.1,1.5-2,2.6-2.6
		c1.1-0.6,2.4-0.9,3.8-0.9c1.3,0,2.5,0.3,3.6,0.9c1,0.6,1.8,1.5,2.4,2.5c0.6,1.1,0.9,2.3,0.9,3.7c0,0.3,0,0.7-0.1,1.2h-10.4
		c0.1,1.1,0.6,2,1.4,2.7c0.8,0.7,1.8,1,3.1,1c1.3,0,2.6-0.4,4.1-1.2l1.1,2.5c-1.9,0.9-3.8,1.4-5.7,1.4
		C729.1,110.9,727.7,110.6,726.6,109.9z M733.4,102.1c-0.1-1-0.4-1.8-1-2.5c-0.6-0.6-1.4-0.9-2.3-0.9c-0.9,0-1.8,0.3-2.4,0.9
		c-0.7,0.6-1,1.4-1.2,2.5H733.4z"/>
	<path class="st0" d="M739.7,96.3h3l0.5,2.1c0.5-0.8,1.2-1.4,2.1-1.8C746,96.2,747,96,748,96c1.1,0,2,0.2,2.9,0.7s1.5,1.1,2,1.9
		c0.5,0.8,0.7,1.8,0.7,2.8v9.1h-3.7V102c0-0.9-0.3-1.6-0.8-2.1c-0.6-0.6-1.3-0.8-2.1-0.8c-1,0-1.8,0.3-2.5,1s-1,1.6-1,2.7v7.8h-3.7
		V96.3z"/>
	<path class="st0" d="M759.5,109.6c-0.9-0.9-1.3-2-1.3-3.3v-7.2h-2.6v-2.8h2.6v-4.2h3.7v4.2h3.9v2.8h-3.9v6.8c0,0.6,0.2,1.1,0.6,1.5
		s0.9,0.6,1.5,0.6c0.6,0,1.2-0.1,1.8-0.3l0.5,2.8c-1.1,0.3-2.2,0.4-3.2,0.4C761.5,110.9,760.4,110.5,759.5,109.6z"/>
	<path class="st0" d="M769,93.9c-0.4-0.4-0.6-1-0.6-1.6s0.2-1.2,0.6-1.6c0.4-0.4,0.9-0.6,1.6-0.6c0.7,0,1.2,0.2,1.6,0.6
		c0.4,0.4,0.6,1,0.6,1.6s-0.2,1.2-0.6,1.6c-0.4,0.4-1,0.6-1.6,0.6C770,94.5,769.5,94.3,769,93.9z M768.8,96.3h3.7v14.2h-3.7V96.3z"
		/>
	<path class="st0" d="M774.7,96.3h3.9l3.6,10l3.7-10h3.9l-5.8,14.2h-3.4L774.7,96.3z"/>
	<path class="st0" d="M794.4,109.9c-1.2-0.6-2.1-1.5-2.7-2.6c-0.7-1.1-1-2.4-1-3.9c0-1.4,0.3-2.7,0.9-3.9c0.6-1.1,1.5-2,2.6-2.6
		c1.1-0.6,2.4-0.9,3.8-0.9c1.3,0,2.5,0.3,3.6,0.9c1,0.6,1.8,1.5,2.4,2.5c0.6,1.1,0.9,2.3,0.9,3.7c0,0.3,0,0.7-0.1,1.2h-10.4
		c0.1,1.1,0.6,2,1.4,2.7c0.8,0.7,1.8,1,3.1,1c1.3,0,2.6-0.4,4.1-1.2l1.1,2.5c-1.9,0.9-3.8,1.4-5.7,1.4
		C796.9,110.9,795.6,110.6,794.4,109.9z M801.2,102.1c-0.1-1-0.4-1.8-1-2.5c-0.6-0.6-1.4-0.9-2.3-0.9c-0.9,0-1.8,0.3-2.4,0.9
		c-0.7,0.6-1,1.4-1.2,2.5H801.2z"/>
	<path class="st0" d="M806.6,109.7l0.8-2.6c1.7,0.7,3.2,1,4.6,1c0.7,0,1.3-0.1,1.7-0.4s0.6-0.7,0.6-1.2s-0.2-0.9-0.7-1.1
		c-0.5-0.2-1.2-0.5-2.1-0.7c-1-0.3-1.8-0.5-2.4-0.8c-0.6-0.3-1.2-0.7-1.6-1.3c-0.5-0.6-0.7-1.3-0.7-2.3c0-0.8,0.2-1.6,0.7-2.2
		c0.5-0.6,1.1-1.2,2-1.5s1.8-0.6,2.9-0.6c1.6,0,3.4,0.3,5.2,1l-0.8,2.7c-1.5-0.6-2.9-0.9-4.1-0.9c-0.7,0-1.2,0.1-1.6,0.4
		c-0.4,0.3-0.6,0.7-0.6,1.1c0,0.5,0.2,0.8,0.7,1c0.4,0.2,1.1,0.5,2.1,0.7c1,0.2,1.8,0.5,2.5,0.8c0.7,0.3,1.2,0.7,1.7,1.3
		c0.5,0.6,0.7,1.4,0.7,2.4c0,0.9-0.2,1.6-0.7,2.3c-0.5,0.7-1.2,1.2-2,1.6s-1.8,0.6-2.9,0.6C810.5,110.9,808.7,110.5,806.6,109.7z"/>
</g>
<g>
	<path class="st0" d="M559.8,144.4c-1-0.6-1.8-1.3-2.3-2.3s-0.8-2.1-0.8-3.4s0.3-2.4,0.8-3.4c0.5-1,1.3-1.8,2.3-2.3s2.1-0.8,3.3-0.8
		c1.5,0,3,0.4,4.5,1.3l-0.6,1.1c-1.4-0.7-2.6-1.1-3.7-1.1c-1,0-1.9,0.2-2.6,0.7s-1.4,1.1-1.8,1.9c-0.4,0.8-0.6,1.7-0.6,2.8
		c0,1,0.2,2,0.7,2.8c0.4,0.8,1,1.5,1.8,1.9c0.8,0.5,1.7,0.7,2.7,0.7c1,0,2-0.2,2.9-0.6v-3.8H563v-1.2h4.7v5.8c-1.5,0.7-3,1-4.5,1
		C561.9,145.3,560.8,145,559.8,144.4z"/>
	<path class="st0" d="M572.2,144.7c-0.7-0.4-1.3-1-1.7-1.7c-0.4-0.7-0.6-1.6-0.6-2.5s0.2-1.8,0.6-2.5s0.9-1.3,1.6-1.7
		c0.7-0.4,1.5-0.6,2.3-0.6c0.8,0,1.5,0.2,2.2,0.6s1.1,0.9,1.5,1.7c0.4,0.7,0.5,1.5,0.5,2.4c0,0.2,0,0.4,0,0.6h-7.1
		c0.1,1,0.4,1.8,1,2.4c0.6,0.6,1.4,0.9,2.4,0.9c0.9,0,1.8-0.3,2.8-0.8l0.5,1c-1.2,0.6-2.3,0.9-3.4,0.9
		C573.7,145.3,572.9,145.1,572.2,144.7z M577.1,139.8c0-0.9-0.3-1.7-0.8-2.2s-1.1-0.9-1.9-0.9c-0.8,0-1.5,0.3-2.1,0.8
		c-0.5,0.6-0.9,1.3-0.9,2.3H577.1z"/>
	<path class="st0" d="M582.2,144.5c-0.5-0.5-0.8-1.1-0.8-2V137h-1.9v-1.2h1.9v-2.7h1.5v2.7h2.9v1.2h-2.9v5.4c0,0.5,0.1,0.9,0.4,1.2
		c0.3,0.3,0.7,0.4,1.2,0.4c0.3,0,0.7-0.1,1.3-0.2l0.2,1.2c-0.6,0.2-1.2,0.2-1.8,0.2C583.4,145.3,582.7,145,582.2,144.5z"/>
	<path class="st0" d="M592.8,132.3h4.9c0.8,0,1.5,0.2,2.1,0.5c0.6,0.3,1.1,0.8,1.5,1.4s0.5,1.2,0.5,2c0,1-0.3,1.8-0.9,2.5
		c-0.6,0.7-1.4,1.1-2.3,1.2l3.7,5.3h-1.7L597,140h-2.7v5.1h-1.5V132.3z M597.4,138.7c0.8,0,1.5-0.2,2-0.7c0.5-0.5,0.8-1.1,0.8-1.9
		s-0.3-1.4-0.8-1.9c-0.5-0.5-1.2-0.7-2-0.7h-3.1v5.2H597.4z"/>
	<path class="st0" d="M606.1,144.7c-0.7-0.4-1.3-1-1.7-1.7c-0.4-0.7-0.6-1.6-0.6-2.5s0.2-1.8,0.6-2.5s0.9-1.3,1.6-1.7
		c0.7-0.4,1.5-0.6,2.3-0.6c0.8,0,1.5,0.2,2.2,0.6s1.1,0.9,1.5,1.7c0.4,0.7,0.5,1.5,0.5,2.4c0,0.2,0,0.4,0,0.6h-7.1
		c0.1,1,0.4,1.8,1,2.4c0.6,0.6,1.4,0.9,2.4,0.9c0.9,0,1.8-0.3,2.8-0.8l0.5,1c-1.2,0.6-2.3,0.9-3.4,0.9
		C607.7,145.3,606.8,145.1,606.1,144.7z M611,139.8c0-0.9-0.3-1.7-0.8-2.2s-1.1-0.9-1.9-0.9c-0.8,0-1.5,0.3-2.1,0.8
		c-0.5,0.6-0.9,1.3-0.9,2.3H611z"/>
	<path class="st0" d="M613.5,135.8h1.5l2.3,7.4l2.3-7.4h1.4l2.3,7.4l2.3-7.4h1.5l-3,9.2h-1.5l-2.3-7.4L618,145h-1.5L613.5,135.8z"/>
	<path class="st0" d="M630.3,144.7c-0.6-0.4-1.1-1-1.5-1.7c-0.4-0.7-0.5-1.6-0.5-2.5s0.2-1.8,0.5-2.5s0.9-1.3,1.5-1.7
		c0.6-0.4,1.4-0.6,2.2-0.6c0.7,0,1.3,0.1,1.8,0.4c0.5,0.3,1,0.7,1.3,1.3l0.2-1.5h1.3v9.2h-1.2l-0.2-1.5c-0.3,0.6-0.8,1-1.3,1.3
		c-0.6,0.3-1.2,0.5-1.9,0.5C631.6,145.3,630.9,145.1,630.3,144.7z M634.7,143.2c0.5-0.5,0.8-1.2,0.8-2.1v-1.5c0-0.8-0.3-1.5-0.8-2.1
		c-0.5-0.5-1.2-0.8-2-0.8c-0.6,0-1.1,0.2-1.5,0.5c-0.5,0.3-0.8,0.7-1.1,1.3c-0.3,0.5-0.4,1.2-0.4,1.9c0,0.7,0.1,1.3,0.4,1.9
		c0.3,0.6,0.6,1,1.1,1.3s1,0.5,1.5,0.5C633.6,144,634.2,143.8,634.7,143.2z"/>
	<path class="st0" d="M640,135.8h1.2l0.2,1.7c0.2-0.6,0.6-1.1,1.1-1.4c0.5-0.3,1.1-0.5,1.8-0.5c0.3,0,0.7,0.1,1.2,0.2l-0.2,1.2
		c-0.4-0.1-0.8-0.1-1.1-0.1c-0.8,0-1.4,0.3-1.9,0.9s-0.7,1.3-0.7,2.3v5H640V135.8z"/>
	<path class="st0" d="M648.4,144.7c-0.6-0.4-1.1-1-1.5-1.7c-0.4-0.7-0.5-1.6-0.5-2.5s0.2-1.8,0.5-2.5s0.9-1.3,1.5-1.7
		c0.6-0.4,1.4-0.6,2.2-0.6c0.7,0,1.3,0.1,1.8,0.4c0.5,0.3,1,0.7,1.3,1.3v-5.6h1.5V145h-1.2l-0.2-1.5c-0.3,0.6-0.8,1-1.3,1.3
		c-0.6,0.3-1.2,0.5-1.9,0.5C649.8,145.3,649,145.1,648.4,144.7z M652.9,143.2c0.5-0.5,0.8-1.2,0.8-2.1v-1.5c0-0.8-0.3-1.5-0.8-2.1
		c-0.5-0.5-1.2-0.8-2-0.8c-0.6,0-1.1,0.2-1.5,0.5c-0.5,0.3-0.8,0.7-1.1,1.3c-0.3,0.5-0.4,1.2-0.4,1.9c0,0.7,0.1,1.3,0.4,1.9
		c0.3,0.6,0.6,1,1.1,1.3s1,0.5,1.5,0.5C651.7,144,652.4,143.8,652.9,143.2z"/>
	<path class="st0" d="M659.8,144.7c-0.7-0.4-1.3-1-1.7-1.7c-0.4-0.7-0.6-1.6-0.6-2.5s0.2-1.8,0.6-2.5s0.9-1.3,1.6-1.7
		c0.7-0.4,1.5-0.6,2.3-0.6c0.8,0,1.5,0.2,2.2,0.6s1.1,0.9,1.5,1.7c0.4,0.7,0.5,1.5,0.5,2.4c0,0.2,0,0.4,0,0.6H659
		c0.1,1,0.4,1.8,1,2.4c0.6,0.6,1.4,0.9,2.4,0.9c0.9,0,1.8-0.3,2.8-0.8l0.5,1c-1.2,0.6-2.3,0.9-3.4,0.9
		C661.3,145.3,660.5,145.1,659.8,144.7z M664.7,139.8c0-0.9-0.3-1.7-0.8-2.2s-1.1-0.9-1.9-0.9c-0.8,0-1.5,0.3-2.1,0.8
		c-0.5,0.6-0.9,1.3-0.9,2.3H664.7z"/>
	<path class="st0" d="M669.7,144.7c-0.6-0.4-1.1-1-1.5-1.7c-0.4-0.7-0.5-1.6-0.5-2.5s0.2-1.8,0.5-2.5s0.9-1.3,1.5-1.7
		c0.6-0.4,1.4-0.6,2.2-0.6c0.7,0,1.3,0.1,1.8,0.4c0.5,0.3,1,0.7,1.3,1.3v-5.6h1.5V145h-1.2l-0.2-1.5c-0.3,0.6-0.8,1-1.3,1.3
		c-0.6,0.3-1.2,0.5-1.9,0.5C671,145.3,670.3,145.1,669.7,144.7z M674.2,143.2c0.5-0.5,0.8-1.2,0.8-2.1v-1.5c0-0.8-0.3-1.5-0.8-2.1
		c-0.5-0.5-1.2-0.8-2-0.8c-0.6,0-1.1,0.2-1.5,0.5c-0.5,0.3-0.8,0.7-1.1,1.3c-0.3,0.5-0.4,1.2-0.4,1.9c0,0.7,0.1,1.3,0.4,1.9
		c0.3,0.6,0.6,1,1.1,1.3s1,0.5,1.5,0.5C673,144,673.6,143.8,674.2,143.2z"/>
	<path class="st0" d="M685.3,144.5c-0.5-0.5-0.8-1.1-0.8-2V137h-1.9v-1.2h1.9v-2.7h1.5v2.7h2.9v1.2h-2.9v5.4c0,0.5,0.1,0.9,0.4,1.2
		c0.3,0.3,0.7,0.4,1.2,0.4c0.3,0,0.7-0.1,1.3-0.2l0.2,1.2c-0.6,0.2-1.2,0.2-1.8,0.2C686.5,145.3,685.8,145,685.3,144.5z"/>
	<path class="st0" d="M692.4,144.7c-0.7-0.4-1.3-1-1.7-1.7c-0.4-0.7-0.6-1.6-0.6-2.5s0.2-1.8,0.6-2.5s1-1.3,1.7-1.7
		c0.7-0.4,1.5-0.6,2.4-0.6c0.9,0,1.7,0.2,2.4,0.6c0.7,0.4,1.3,1,1.7,1.7c0.4,0.7,0.6,1.6,0.6,2.5s-0.2,1.8-0.6,2.5
		c-0.4,0.7-1,1.3-1.7,1.7c-0.7,0.4-1.5,0.6-2.4,0.6C694,145.3,693.1,145.1,692.4,144.7z M696.5,143.6c0.5-0.3,0.9-0.7,1.1-1.3
		c0.3-0.6,0.4-1.2,0.4-1.9c0-0.7-0.1-1.3-0.4-1.9c-0.3-0.6-0.6-1-1.1-1.3s-1-0.5-1.6-0.5c-0.6,0-1.2,0.2-1.6,0.5s-0.9,0.7-1.1,1.3
		s-0.4,1.2-0.4,1.9c0,0.7,0.1,1.3,0.4,1.9s0.6,1,1.1,1.3c0.5,0.3,1,0.5,1.6,0.5C695.5,144.1,696,143.9,696.5,143.6z"/>
	<path class="st0" d="M705.9,144.3l0.4-1.2c1.6,0.6,3,1,4,1c0.9,0,1.7-0.2,2.3-0.6c0.6-0.4,0.8-0.9,0.8-1.6c0-0.5-0.1-0.9-0.4-1.2
		c-0.3-0.3-0.7-0.6-1.1-0.7c-0.4-0.2-1-0.4-1.8-0.6c-0.9-0.3-1.6-0.5-2.2-0.7s-1-0.6-1.4-1.1c-0.4-0.5-0.6-1.1-0.6-1.9
		c0-0.7,0.2-1.2,0.6-1.8c0.4-0.5,0.9-0.9,1.6-1.2c0.7-0.3,1.5-0.4,2.3-0.4c1.3,0,2.6,0.3,4.1,0.9l-0.4,1.2c-1.3-0.5-2.5-0.8-3.6-0.8
		c-0.9,0-1.6,0.2-2.2,0.6s-0.8,0.9-0.8,1.6c0,0.5,0.1,0.9,0.4,1.2s0.6,0.6,1.1,0.7c0.4,0.2,1,0.4,1.7,0.6c0.9,0.3,1.6,0.5,2.2,0.8
		c0.6,0.2,1,0.6,1.4,1.1c0.4,0.5,0.6,1.1,0.6,2c0,0.7-0.2,1.3-0.6,1.8c-0.4,0.5-0.9,0.9-1.6,1.2c-0.7,0.3-1.5,0.4-2.4,0.4
		C709.1,145.3,707.6,144.9,705.9,144.3z"/>
	<path class="st0" d="M718.8,144.5c-0.5-0.5-0.8-1.1-0.8-2V137h-1.9v-1.2h1.9v-2.7h1.5v2.7h2.9v1.2h-2.9v5.4c0,0.5,0.1,0.9,0.4,1.2
		c0.3,0.3,0.7,0.4,1.2,0.4c0.3,0,0.7-0.1,1.3-0.2l0.2,1.2c-0.6,0.2-1.2,0.2-1.8,0.2C720.1,145.3,719.4,145,718.8,144.5z"/>
	<path class="st0" d="M725.7,144.7c-0.6-0.4-1.1-1-1.5-1.7c-0.4-0.7-0.5-1.6-0.5-2.5s0.2-1.8,0.5-2.5s0.9-1.3,1.5-1.7
		c0.6-0.4,1.4-0.6,2.2-0.6c0.7,0,1.3,0.1,1.8,0.4c0.5,0.3,1,0.7,1.3,1.3l0.2-1.5h1.3v9.2h-1.2l-0.2-1.5c-0.3,0.6-0.8,1-1.3,1.3
		c-0.6,0.3-1.2,0.5-1.9,0.5C727,145.3,726.3,145.1,725.7,144.7z M730.2,143.2c0.5-0.5,0.8-1.2,0.8-2.1v-1.5c0-0.8-0.3-1.5-0.8-2.1
		c-0.5-0.5-1.2-0.8-2-0.8c-0.6,0-1.1,0.2-1.5,0.5c-0.5,0.3-0.8,0.7-1.1,1.3c-0.3,0.5-0.4,1.2-0.4,1.9c0,0.7,0.1,1.3,0.4,1.9
		c0.3,0.6,0.6,1,1.1,1.3s1,0.5,1.5,0.5C729,144,729.7,143.8,730.2,143.2z"/>
	<path class="st0" d="M737.1,144.5c-0.5-0.5-0.8-1.1-0.8-2V137h-1.9v-1.2h1.9v-2.7h1.5v2.7h2.9v1.2h-2.9v5.4c0,0.5,0.1,0.9,0.4,1.2
		c0.3,0.3,0.7,0.4,1.2,0.4c0.3,0,0.7-0.1,1.3-0.2l0.2,1.2c-0.6,0.2-1.2,0.2-1.8,0.2C738.3,145.3,737.6,145,737.1,144.5z"/>
	<path class="st0" d="M742.2,149.1l0.2-1.2c0.4,0.1,0.7,0.2,0.9,0.2c0.5,0,0.8-0.1,1.1-0.4c0.3-0.3,0.6-0.8,0.8-1.4l0.5-1.2
		l-3.8-9.2h1.6l3,7.5l2.9-7.5h1.6l-4.3,10.6c-0.4,1-0.8,1.7-1.3,2.1c-0.5,0.4-1.1,0.7-1.9,0.7C743.1,149.2,742.6,149.2,742.2,149.1z
		"/>
	<path class="st0" d="M757.5,132.3h8.2v1.2h-6.6v4.9h6v1.2h-6v5.4h-1.6V132.3z"/>
	<path class="st0" d="M768.2,133.7c-0.2-0.2-0.3-0.4-0.3-0.7s0.1-0.5,0.3-0.7c0.2-0.2,0.4-0.3,0.7-0.3c0.3,0,0.5,0.1,0.7,0.3
		c0.2,0.2,0.3,0.4,0.3,0.7s-0.1,0.5-0.3,0.7c-0.2,0.2-0.4,0.3-0.7,0.3C768.7,134,768.4,133.9,768.2,133.7z M768.2,135.8h1.5v9.2
		h-1.5V135.8z"/>
	<path class="st0" d="M774.4,144.5c-0.5-0.5-0.8-1.1-0.8-2V137h-1.9v-1.2h1.9v-2.7h1.5v2.7h2.9v1.2h-2.9v5.4c0,0.5,0.1,0.9,0.4,1.2
		c0.3,0.3,0.7,0.4,1.2,0.4c0.3,0,0.7-0.1,1.3-0.2l0.2,1.2c-0.6,0.2-1.2,0.2-1.8,0.2C775.6,145.3,774.9,145,774.4,144.5z"/>
	<path class="st0" d="M780.6,144.9c-0.2-0.2-0.3-0.4-0.3-0.7s0.1-0.5,0.3-0.7c0.2-0.2,0.4-0.3,0.7-0.3c0.3,0,0.5,0.1,0.7,0.3
		c0.2,0.2,0.3,0.4,0.3,0.7s-0.1,0.5-0.3,0.7c-0.2,0.2-0.4,0.3-0.7,0.3C781,145.2,780.8,145.1,780.6,144.9z M780.5,132.3h1.5
		l-0.1,8.8h-1.3L780.5,132.3z"/>
</g>
<path class="st3" d="M948,12.3c2.7,0.8,5.8,1.3,7.3,4c2,3.4,4.8,6.8,3.2,11.3c-0.3,0.8,0.1,1.9,0.3,2.8c0.7,2.3,0.7,2.3-1.3,2.8
	c-0.4,1.9-0.7,3.7-1.4,5.4c-0.2,0.6-1.1,1.2-1.8,1.2c-1,0.1-2-0.2-3.1-0.3c-0.1,0.5-0.2,1-0.3,1.6c1,0.2,2,0.4,2.9,0.5
	c4.1,0.4,6.7,2.8,8.2,6.5c1.7,4.1,3.3,8.1,5,12.2c0.4,1,1.2,1.9,2,3.3c3.8-3.6,7.4-7,10.9-10.5c1-1,1.4-2.4,0.8-4.1
	c-0.5-1.3-0.1-3,0.2-4.5c0.1-0.5,0.9-0.9,1.4-1.2c0.3-0.2,0.8-0.3,1-0.6c1.4-2,2.6-1.4,4.1-0.5c5,2.9,3.4,7.7,0.2,10
	c-0.8,0.6-1.4,1.4-2,2.2c-2.7,4.2-5.1,8.6-8.1,12.6c-1.9,2.5-4.7,4.3-7.2,6.4c-1.1,1-2.5,0.9-3.6,0c-2.1-1.7-4.1-3.5-6-5.3
	c-0.8-0.7-1.4-1.6-2.2-2.6c-1,2.8-2.5,4.9-5.1,6.1c-0.3,0.1-0.4,0.8-0.5,1.2c-0.7,1.9-1.3,3.8-1.9,5.7c-1.1,3.3-2.3,6.6-3.5,9.9
	c-1.3,3.6-2.7,7.2-4.1,10.8c-0.2,0.5-0.5,1.1-0.8,1.6c4.7,1.7,9.4,3.3,14,5c4.8,1.7,9.4,4,13.5,7.1c2.5,1.9,5.1,3.8,7.7,5.4
	c3.9,2.4,4.6,6.1,3.6,9.9c-0.8,3.4-2.2,6.7-3.8,9.7c-4.5,8.3-9.3,16.5-13.9,24.7c-1.5,2.7-2.9,5.5-2.8,8.9c0.2,2.9,0.8,5.5,2.6,7.6
	c2.3,2.7,4.8,5.1,7.2,7.7c0.6,0.7,1,1.6,1.6,2.4c-0.9,0.4-1.9,1-2.8,1.1c-4.8,0.3-9.1-1-12.9-4.2c-2.9-2.4-6.2-4.4-9.4-6.5
	c-2.3-1.5-3-3.3-1.8-5.8c0.6-1.3,1.4-2.5,2.4-3.5c4.5-4.2,6.9-9.4,8.6-15.2c1.2-4.3,2.3-8.6,3.5-12.9c1.1-3.9,3-7.5,5.7-10.6
	c0.5-0.6,0.9-1.2,1.4-2c-2.8-1.5-5.6-1.9-8.5-2.2c-5.9-0.7-11.9-1-17.7-1.9c-3.4-0.5-6.8-1.7-10.2-2.7c-1-0.3-1.6-0.2-2.2,0.8
	c-5.1,8.3-11.4,15.7-19,21.9c-0.5,0.4-0.9,0.8-1.2,1.3c-3.3,4.4-7.9,7.1-12.9,9.2c-12.5,5.3-24.2,12.1-35.9,19
	c-2.2,1.3-3.8,3.5-5.5,5.5c-1.7,2.1-3.3,4.4-4.7,6.7c-1,1.7-1.7,3.6-2.5,5.5c-0.4,0.8-0.7,1.7-1.1,2.6c-0.5,0-1,0-1.4,0
	c-2.3-4.4-3.9-9-1.7-13.9c1.2-2.6,1.6-5.1,1.1-7.8c0-0.2-0.1-0.5-0.1-0.7c-0.4-4.6,1.1-6.6,5.7-6.4c6.3,0.3,10.9-2.6,15.2-6.7
	c2.6-2.5,5.2-4.9,7.6-7.6c4.8-5.2,10.5-8.6,17.4-9.7c4.1-0.6,6.8-3,8.5-6.6c1.6-3.4,2.7-7,4.4-10.3c2.1-4.2,4.5-8.2,6.8-12.3
	c0.6-1,0.9-1.7,0.8-2.9c-1.1-8.4,2.4-15,9.9-19.1c1.8-1,3.8-2.1,5.2-3.6c2.4-2.7,2.3-6.2,2.1-9.5c-0.3-4.1-0.9-8.2-1.2-12.2
	c-0.2-2.6-0.1-5.2-0.1-7.8c0-2.1-0.7-2.7-2.8-2.2c-6.4,1.4-12.8,2.9-19.1,4.4c-0.4,0.1-0.9,0.6-1,1c-1.2,6.4-2.4,12.8-3.6,19.3
	c-0.1,0.8-0.1,1.7-0.3,2.5c-0.3,1.7,0.1,2.9,1.7,3.9c1.7,1.1,3.1,2.9,1.9,5.3c-0.1,0.1,0,0.2,0,0.4c0,1.4,0.6,3.1-1.1,3.8
	c-2.3,1-4.9,1.8-7.3,0.6c-2-1-3-3.5-2.5-5.5c2-8.1,0.1-16.4,1-24.5c0.4-3.5,1-6.9,1.6-10.4c0.3-1.6,1.3-2.7,2.9-3.3
	c6.2-2.3,12.3-4.7,18.4-7.1c1.2-0.5,2.3-0.9,3.4-1.6c2.7-1.6,5.5-2.3,8.7-2.4c1.7-0.1,3.3-0.6,5-1c0.7-0.2,1.4-0.6,2.2-0.8
	c1.4-0.4,2.9-0.4,3.2-2.3c0.4-2.4,0.9-4.6-0.7-6.8c-1-1.4-1.5-3.1-2.1-4.8c-0.3-0.7-0.2-1.5-0.3-2.3c-0.2,0-0.4-0.1-0.5-0.1
	c-0.2,0.7-0.6,1.4-0.6,2.1c-0.1,1.6,0.1,3.2,0.1,4.8c-0.1,5.1-3.3,8.2-8.7,8.5c0.5-0.4,1-0.8,1.8-1.5c-5.1,1.4-9.7,1.7-13.9-1.4
	c2.1,0,4.2,0,6.9,0c-1.7-0.8-2.8-1.4-3.9-1.9c0-0.2,0.1-0.4,0.1-0.6c2.9,0.9,5.2-0.4,7.4-2.1c-0.6-0.3-1.3-0.7-1.9-1
	c4.2,0.4,5.7-2.4,7.1-5.4c1.7-3.7,2.4-4.2,6.4-5.1c0.5-4.8,4-6.8,8-8.1C945,12.3,946.5,12.3,948,12.3z"/>
<rect x="479.2" class="st4" width="1" height="208"/>
</svg>
