<?xml version="1.0" encoding="utf-8"?>
<!-- Generator: Adobe Illustrator 22.1.0, SVG Export Plug-In . SVG Version: 6.00 Build 0)  -->
<svg version="1.1" id="Layer_1" xmlns="http://www.w3.org/2000/svg" xmlns:xlink="http://www.w3.org/1999/xlink" x="0px" y="0px"
	 viewBox="0 0 459.3 113.3" style="enable-background:new 0 0 459.3 113.3;" xml:space="preserve">
<style type="text/css">
	.st0{fill:#333333;}
	.st1{fill:#14C2F3;}
	.st2{fill:#D7DADD;}
	.st3{fill:#FAAF40;}
</style>
<g>
	<path class="st0" d="M12.2,110c-1.1-0.1-2.3-0.4-3.5-0.9l0.4-1.3c1.1,0.5,2.1,0.7,3.1,0.8v-4.2c-0.7-0.2-1.3-0.4-1.8-0.6
		c-0.5-0.2-0.9-0.6-1.2-1c-0.3-0.4-0.5-1-0.5-1.7c0-0.8,0.3-1.5,0.9-2.1c0.6-0.6,1.4-0.9,2.5-1v-3.3h1.4v3.3
		c0.9,0.1,1.9,0.3,3.1,0.8l-0.4,1.3c-1.1-0.4-2-0.7-2.7-0.8v4c0.7,0.2,1.3,0.4,1.8,0.6c0.5,0.2,0.9,0.6,1.2,1c0.3,0.4,0.5,1,0.5,1.8
		c0,0.9-0.3,1.6-0.9,2.2c-0.6,0.6-1.5,0.9-2.5,1v3.3h-1.4V110z M12.2,99.4c-0.6,0.1-1,0.3-1.3,0.6c-0.3,0.3-0.5,0.7-0.5,1.2
		c0,0.5,0.2,0.8,0.5,1.1c0.3,0.3,0.8,0.5,1.3,0.7V99.4z M14.9,108c0.3-0.3,0.5-0.7,0.5-1.2c0-0.5-0.2-0.9-0.5-1.2
		c-0.3-0.3-0.8-0.5-1.4-0.7v3.8C14.1,108.6,14.6,108.3,14.9,108z"/>
	<path class="st0" d="M20.2,110.2l0.5-1.2c1,0.5,1.9,0.7,2.7,0.7c1.3,0,2.3-0.5,3-1.5c0.7-1,1.1-2.5,1.1-4.4
		c-0.3,0.6-0.8,1.2-1.4,1.5s-1.4,0.6-2.2,0.6c-0.8,0-1.6-0.2-2.2-0.5c-0.6-0.4-1.1-0.9-1.5-1.5c-0.4-0.7-0.5-1.4-0.5-2.2
		c0-0.9,0.2-1.6,0.6-2.3c0.4-0.7,0.9-1.2,1.6-1.6c0.7-0.4,1.4-0.6,2.3-0.6c1.5,0,2.7,0.5,3.6,1.6c0.9,1.1,1.3,2.6,1.3,4.6
		c0,2.5-0.5,4.4-1.4,5.7s-2.3,2-4.1,2C22.3,111,21.2,110.7,20.2,110.2z M25.7,104.3c0.5-0.3,0.9-0.6,1.2-1c0.3-0.4,0.4-0.9,0.4-1.4
		c0-0.7-0.1-1.3-0.4-1.8c-0.3-0.5-0.6-0.9-1.1-1.2s-1-0.4-1.6-0.4c-0.6,0-1.1,0.1-1.6,0.4c-0.5,0.3-0.8,0.7-1.1,1.2
		c-0.3,0.5-0.4,1-0.4,1.6c0,0.9,0.3,1.7,0.8,2.3c0.6,0.6,1.3,0.9,2.2,0.9C24.7,104.6,25.2,104.5,25.7,104.3z"/>
	<path class="st0" d="M31.3,109.7l5.3-5.3c1.1-1.1,1.6-2.2,1.6-3.3c0-0.8-0.3-1.5-0.8-2c-0.5-0.5-1.2-0.8-2.1-0.8
		c-0.5,0-1.1,0.1-1.6,0.3c-0.5,0.2-1.1,0.5-1.7,0.9l-0.6-1.2c1.5-0.9,2.9-1.3,4.2-1.3c0.8,0,1.5,0.2,2.1,0.5
		c0.6,0.3,1.1,0.8,1.5,1.4c0.4,0.6,0.5,1.3,0.5,2c0,0.7-0.2,1.4-0.5,2.1c-0.3,0.7-0.8,1.3-1.4,2l-4.4,4.4h6.5v1.3h-8.6V109.7z"/>
	<path class="st0" d="M42.7,110l0.5-1.2c1.3,0.6,2.6,0.9,3.7,0.9c0.9,0,1.6-0.2,2.1-0.7c0.5-0.5,0.8-1.1,0.8-1.8
		c0-0.8-0.3-1.4-1-1.9c-0.6-0.5-1.5-0.7-2.5-0.7h-0.8v-1.2h0.8c0.9,0,1.7-0.2,2.3-0.7c0.6-0.5,0.9-1.1,0.9-1.8
		c0-0.7-0.2-1.3-0.7-1.7c-0.5-0.4-1.1-0.7-1.9-0.7c-1,0-2.1,0.3-3.4,0.8L43.1,98c1.4-0.6,2.8-0.9,4.1-0.9c0.8,0,1.5,0.1,2.1,0.4
		c0.6,0.3,1.1,0.7,1.4,1.3c0.3,0.5,0.5,1.2,0.5,1.8c0,0.8-0.2,1.4-0.7,2c-0.4,0.6-1,1-1.8,1.2c0.8,0.2,1.5,0.7,2,1.3
		c0.5,0.6,0.8,1.3,0.8,2.2c0,0.7-0.2,1.4-0.5,1.9c-0.4,0.6-0.9,1-1.5,1.3c-0.7,0.3-1.4,0.5-2.2,0.5C45.7,111,44.2,110.6,42.7,110z"
		/>
	<path class="st0" d="M54.9,110.6c-0.2-0.2-0.3-0.5-0.3-0.8c0-0.3,0.1-0.6,0.3-0.8c0.2-0.2,0.5-0.3,0.8-0.3c0.3,0,0.6,0.1,0.8,0.3
		c0.2,0.2,0.3,0.5,0.3,0.8c0,0.3-0.1,0.6-0.3,0.8c-0.2,0.2-0.5,0.3-0.8,0.3C55.4,110.9,55.1,110.8,54.9,110.6z"/>
	<path class="st0" d="M64.2,98.9l-3.5,2l-0.6-1.1l4.3-2.5h1.3v13.4h-1.6V98.9z"/>
	<path class="st0" d="M72.8,110.1c-0.7-0.6-1.3-1.4-1.7-2.4c-0.4-1-0.6-2.3-0.6-3.7s0.2-2.6,0.6-3.7s1-1.9,1.7-2.4
		c0.7-0.6,1.6-0.8,2.6-0.8s1.9,0.3,2.6,0.8c0.7,0.6,1.3,1.4,1.7,2.4s0.6,2.3,0.6,3.7s-0.2,2.6-0.6,3.7c-0.4,1-1,1.9-1.7,2.4
		c-0.7,0.6-1.6,0.9-2.6,0.9S73.6,110.7,72.8,110.1z M77.2,109c0.5-0.5,0.9-1.1,1.2-2c0.3-0.8,0.4-1.8,0.4-3c0-1.1-0.1-2.1-0.4-3
		c-0.3-0.8-0.7-1.5-1.2-2s-1.1-0.7-1.8-0.7s-1.3,0.2-1.8,0.7c-0.5,0.5-0.9,1.1-1.2,2c-0.3,0.8-0.4,1.8-0.4,3c0,1.1,0.1,2.1,0.4,3
		c0.3,0.8,0.7,1.5,1.2,2c0.5,0.5,1.1,0.7,1.8,0.7S76.7,109.4,77.2,109z"/>
</g>
<g>
	<path class="st0" d="M2.6,10.8c-0.8-0.5-1.5-1.1-2-2C0.2,8,0,7,0,5.9s0.2-2,0.7-2.9c0.5-0.8,1.1-1.5,2-2c0.8-0.5,1.8-0.7,2.9-0.7
		c0.7,0,1.3,0.1,2,0.3s1.3,0.5,1.9,0.9L8.5,3C7.6,2.4,6.7,2.1,5.8,2.1c-0.7,0-1.3,0.2-1.9,0.5c-0.5,0.3-1,0.8-1.3,1.4
		c-0.3,0.6-0.5,1.3-0.5,2c0,0.8,0.2,1.4,0.5,2c0.3,0.6,0.7,1,1.3,1.4c0.5,0.3,1.2,0.5,1.9,0.5c0.9,0,1.8-0.3,2.7-0.9l0.9,1.4
		c-0.6,0.4-1.2,0.7-1.9,0.9s-1.3,0.3-2,0.3C4.4,11.5,3.5,11.3,2.6,10.8z"/>
	<path class="st0" d="M12.1,11c-0.6-0.3-1.1-0.8-1.5-1.5s-0.5-1.3-0.5-2.1s0.2-1.5,0.5-2.1s0.9-1.1,1.5-1.5s1.4-0.5,2.2-0.5
		s1.6,0.2,2.2,0.5c0.6,0.3,1.1,0.8,1.5,1.5s0.5,1.3,0.5,2.1S18.4,8.9,18,9.5s-0.9,1.1-1.5,1.5c-0.6,0.3-1.4,0.5-2.2,0.5
		S12.8,11.3,12.1,11z M15.9,9.2c0.4-0.5,0.6-1.1,0.6-1.8c0-0.7-0.2-1.4-0.6-1.8c-0.4-0.5-0.9-0.7-1.6-0.7s-1.1,0.2-1.5,0.7
		c-0.4,0.5-0.6,1.1-0.6,1.8s0.2,1.3,0.6,1.8c0.4,0.5,0.9,0.7,1.5,0.7S15.5,9.7,15.9,9.2z"/>
	<path class="st0" d="M20.2,3.5h1.6l0.3,1.1c0.3-0.4,0.7-0.8,1.2-1c0.5-0.2,1-0.3,1.6-0.3c0.6,0,1.1,0.1,1.6,0.4
		c0.5,0.3,0.8,0.6,1.1,1.1s0.4,1,0.4,1.5v5h-2V6.6c0-0.5-0.2-0.9-0.5-1.2C25,5.1,24.6,5,24.1,5c-0.6,0-1,0.2-1.4,0.6
		c-0.4,0.4-0.5,0.9-0.5,1.5v4.3h-2V3.5z"/>
	<path class="st0" d="M31.1,10.8c-0.5-0.5-0.7-1.1-0.7-1.8V5h-1.5V3.5h1.5V1.2h2v2.3h2.2V5h-2.2v3.7c0,0.3,0.1,0.6,0.3,0.8
		c0.2,0.2,0.5,0.3,0.8,0.3c0.3,0,0.6,0,1-0.1l0.3,1.5c-0.6,0.2-1.2,0.2-1.8,0.2C32.2,11.5,31.6,11.3,31.1,10.8z"/>
	<path class="st0" d="M36.2,3.5h1.6l0.3,1.2c0.2-0.4,0.5-0.8,0.9-1c0.4-0.2,0.9-0.4,1.4-0.4c0.3,0,0.6,0,0.9,0.1l-0.2,1.6
		C40.9,5,40.6,5,40.3,5c-0.6,0-1.1,0.2-1.5,0.6c-0.4,0.4-0.5,1-0.5,1.7v4h-2V3.5z"/>
	<path class="st0" d="M42.8,2.1c-0.2-0.2-0.3-0.5-0.3-0.9c0-0.4,0.1-0.7,0.3-0.9S43.3,0,43.7,0c0.4,0,0.7,0.1,0.9,0.3
		c0.2,0.2,0.3,0.5,0.3,0.9c0,0.4-0.1,0.7-0.3,0.9c-0.2,0.2-0.5,0.3-0.9,0.3C43.3,2.5,43,2.3,42.8,2.1z M42.7,3.5h2v7.8h-2V3.5z"/>
	<path class="st0" d="M49.8,11.2c-0.4-0.2-0.8-0.5-1.1-0.9l-0.3,1h-1.6V0h2v4.3c0.3-0.3,0.6-0.6,1-0.8s0.8-0.3,1.3-0.3
		c0.7,0,1.3,0.2,1.9,0.5c0.5,0.3,1,0.8,1.3,1.5s0.5,1.3,0.5,2.1s-0.2,1.5-0.5,2.1s-0.7,1.1-1.3,1.5c-0.5,0.3-1.2,0.5-1.9,0.5
		C50.7,11.5,50.2,11.4,49.8,11.2z M52.1,9.2c0.4-0.5,0.6-1.1,0.6-1.8c0-0.7-0.2-1.3-0.6-1.8c-0.4-0.5-0.9-0.7-1.5-0.7
		c-0.5,0-1,0.2-1.3,0.6c-0.3,0.4-0.5,0.8-0.5,1.4v1.1c0,0.6,0.2,1,0.5,1.4c0.3,0.4,0.8,0.6,1.3,0.6C51.3,9.9,51.8,9.7,52.1,9.2z"/>
	<path class="st0" d="M57.8,11.1c-0.5-0.3-0.8-0.6-1.1-1.1c-0.3-0.5-0.4-1-0.4-1.5v-5h2v4.7c0,0.5,0.2,0.9,0.5,1.2
		c0.3,0.3,0.7,0.5,1.2,0.5c0.6,0,1-0.2,1.4-0.6c0.4-0.4,0.5-0.9,0.5-1.5V3.5h2v7.8h-1.6L62,10.2c-0.3,0.4-0.7,0.8-1.1,1
		c-0.5,0.2-1,0.3-1.6,0.3C58.8,11.5,58.2,11.4,57.8,11.1z"/>
	<path class="st0" d="M67.5,10.8C67,10.3,66.8,9.7,66.8,9V5h-1.5V3.5h1.5V1.2h2v2.3H71V5h-2.2v3.7c0,0.3,0.1,0.6,0.3,0.8
		c0.2,0.2,0.5,0.3,0.8,0.3c0.3,0,0.6,0,1-0.1l0.3,1.5c-0.6,0.2-1.2,0.2-1.8,0.2C68.7,11.5,68,11.3,67.5,10.8z"/>
	<path class="st0" d="M72.8,2.1c-0.2-0.2-0.3-0.5-0.3-0.9c0-0.4,0.1-0.7,0.3-0.9S73.3,0,73.7,0c0.4,0,0.7,0.1,0.9,0.3
		c0.2,0.2,0.3,0.5,0.3,0.9c0,0.4-0.1,0.7-0.3,0.9c-0.2,0.2-0.5,0.3-0.9,0.3C73.3,2.5,73.1,2.3,72.8,2.1z M72.7,3.5h2v7.8h-2V3.5z"/>
	<path class="st0" d="M78.4,11c-0.6-0.3-1.1-0.8-1.5-1.5s-0.5-1.3-0.5-2.1s0.2-1.5,0.5-2.1s0.9-1.1,1.5-1.5s1.4-0.5,2.2-0.5
		s1.6,0.2,2.2,0.5c0.6,0.3,1.1,0.8,1.5,1.5s0.5,1.3,0.5,2.1s-0.2,1.5-0.5,2.1s-0.9,1.1-1.5,1.5c-0.6,0.3-1.4,0.5-2.2,0.5
		S79,11.3,78.4,11z M82.1,9.2c0.4-0.5,0.6-1.1,0.6-1.8c0-0.7-0.2-1.4-0.6-1.8c-0.4-0.5-0.9-0.7-1.6-0.7S79.4,5.1,79,5.6
		c-0.4,0.5-0.6,1.1-0.6,1.8s0.2,1.3,0.6,1.8c0.4,0.5,0.9,0.7,1.5,0.7S81.7,9.7,82.1,9.2z"/>
	<path class="st0" d="M86.4,3.5h1.6l0.3,1.1c0.3-0.4,0.7-0.8,1.2-1c0.5-0.2,1-0.3,1.6-0.3c0.6,0,1.1,0.1,1.6,0.4
		c0.5,0.3,0.8,0.6,1.1,1.1s0.4,1,0.4,1.5v5h-2V6.6c0-0.5-0.2-0.9-0.5-1.2C91.3,5.1,90.9,5,90.4,5c-0.6,0-1,0.2-1.4,0.6
		c-0.4,0.4-0.5,0.9-0.5,1.5v4.3h-2V3.5z"/>
</g>
<g>
	<path class="st0" d="M172.7,110c-1.1-0.1-2.3-0.4-3.5-0.9l0.4-1.3c1.1,0.5,2.1,0.7,3.1,0.8v-4.2c-0.7-0.2-1.3-0.4-1.8-0.6
		c-0.5-0.2-0.9-0.6-1.2-1c-0.3-0.4-0.5-1-0.5-1.7c0-0.8,0.3-1.5,0.9-2.1c0.6-0.6,1.4-0.9,2.5-1v-3.3h1.4v3.3
		c0.9,0.1,1.9,0.3,3.1,0.8l-0.4,1.3c-1.1-0.4-2-0.7-2.7-0.8v4c0.7,0.2,1.3,0.4,1.8,0.6c0.5,0.2,0.9,0.6,1.2,1c0.3,0.4,0.5,1,0.5,1.8
		c0,0.9-0.3,1.6-0.9,2.2c-0.6,0.6-1.5,0.9-2.5,1v3.3h-1.4V110z M172.7,99.4c-0.6,0.1-1,0.3-1.3,0.6c-0.3,0.3-0.5,0.7-0.5,1.2
		c0,0.5,0.2,0.8,0.5,1.1c0.3,0.3,0.8,0.5,1.3,0.7V99.4z M175.4,108c0.3-0.3,0.5-0.7,0.5-1.2c0-0.5-0.2-0.9-0.5-1.2
		c-0.3-0.3-0.8-0.5-1.4-0.7v3.8C174.6,108.6,175.1,108.3,175.4,108z"/>
	<path class="st0" d="M186.3,107.6h-6.5v-1.1l6.5-9.2h1.5v9h2.1v1.2h-2.1v3.2h-1.5V107.6z M186.3,106.3v-7l-5,7H186.3z"/>
	<path class="st0" d="M193.8,110.1c-0.7-0.6-1.3-1.4-1.7-2.4c-0.4-1-0.6-2.3-0.6-3.7s0.2-2.6,0.6-3.7s1-1.9,1.7-2.4
		c0.7-0.6,1.6-0.8,2.6-0.8s1.9,0.3,2.6,0.8c0.7,0.6,1.3,1.4,1.7,2.4s0.6,2.3,0.6,3.7s-0.2,2.6-0.6,3.7c-0.4,1-1,1.9-1.7,2.4
		c-0.7,0.6-1.6,0.9-2.6,0.9S194.6,110.7,193.8,110.1z M198.2,109c0.5-0.5,0.9-1.1,1.2-2c0.3-0.8,0.4-1.8,0.4-3c0-1.1-0.1-2.1-0.4-3
		c-0.3-0.8-0.7-1.5-1.2-2s-1.1-0.7-1.8-0.7s-1.3,0.2-1.8,0.7c-0.5,0.5-0.9,1.1-1.2,2c-0.3,0.8-0.4,1.8-0.4,3c0,1.1,0.1,2.1,0.4,3
		c0.3,0.8,0.7,1.5,1.2,2c0.5,0.5,1.1,0.7,1.8,0.7S197.7,109.4,198.2,109z"/>
	<path class="st0" d="M205.3,110.1c-0.7-0.6-1.3-1.4-1.7-2.4c-0.4-1-0.6-2.3-0.6-3.7s0.2-2.6,0.6-3.7s1-1.9,1.7-2.4
		c0.7-0.6,1.6-0.8,2.6-0.8s1.9,0.3,2.6,0.8c0.7,0.6,1.3,1.4,1.7,2.4s0.6,2.3,0.6,3.7s-0.2,2.6-0.6,3.7c-0.4,1-1,1.9-1.7,2.4
		c-0.7,0.6-1.6,0.9-2.6,0.9S206.1,110.7,205.3,110.1z M209.8,109c0.5-0.5,0.9-1.1,1.2-2c0.3-0.8,0.4-1.8,0.4-3c0-1.1-0.1-2.1-0.4-3
		c-0.3-0.8-0.7-1.5-1.2-2s-1.1-0.7-1.8-0.7s-1.3,0.2-1.8,0.7c-0.5,0.5-0.9,1.1-1.2,2c-0.3,0.8-0.4,1.8-0.4,3c0,1.1,0.1,2.1,0.4,3
		c0.3,0.8,0.7,1.5,1.2,2c0.5,0.5,1.1,0.7,1.8,0.7S209.3,109.4,209.8,109z"/>
	<path class="st0" d="M215.4,110.6c-0.2-0.2-0.3-0.5-0.3-0.8c0-0.3,0.1-0.6,0.3-0.8c0.2-0.2,0.5-0.3,0.8-0.3c0.3,0,0.6,0.1,0.8,0.3
		c0.2,0.2,0.3,0.5,0.3,0.8c0,0.3-0.1,0.6-0.3,0.8c-0.2,0.2-0.5,0.3-0.8,0.3C215.9,110.9,215.6,110.8,215.4,110.6z"/>
	<path class="st0" d="M221.8,110.1c-0.7-0.6-1.3-1.4-1.7-2.4c-0.4-1-0.6-2.3-0.6-3.7s0.2-2.6,0.6-3.7s1-1.9,1.7-2.4
		c0.7-0.6,1.6-0.8,2.6-0.8s1.9,0.3,2.6,0.8c0.7,0.6,1.3,1.4,1.7,2.4s0.6,2.3,0.6,3.7s-0.2,2.6-0.6,3.7c-0.4,1-1,1.9-1.7,2.4
		c-0.7,0.6-1.6,0.9-2.6,0.9S222.5,110.7,221.8,110.1z M226.2,109c0.5-0.5,0.9-1.1,1.2-2c0.3-0.8,0.4-1.8,0.4-3c0-1.1-0.1-2.1-0.4-3
		c-0.3-0.8-0.7-1.5-1.2-2s-1.1-0.7-1.8-0.7s-1.3,0.2-1.8,0.7c-0.5,0.5-0.9,1.1-1.2,2c-0.3,0.8-0.4,1.8-0.4,3c0,1.1,0.1,2.1,0.4,3
		c0.3,0.8,0.7,1.5,1.2,2c0.5,0.5,1.1,0.7,1.8,0.7S225.7,109.4,226.2,109z"/>
	<path class="st0" d="M233.3,110.1c-0.7-0.6-1.3-1.4-1.7-2.4c-0.4-1-0.6-2.3-0.6-3.7s0.2-2.6,0.6-3.7s1-1.9,1.7-2.4
		c0.7-0.6,1.6-0.8,2.6-0.8s1.9,0.3,2.6,0.8c0.7,0.6,1.3,1.4,1.7,2.4c0.4,1,0.6,2.3,0.6,3.7s-0.2,2.6-0.6,3.7c-0.4,1-1,1.9-1.7,2.4
		c-0.7,0.6-1.6,0.9-2.6,0.9S234.1,110.7,233.3,110.1z M237.7,109c0.5-0.5,0.9-1.1,1.2-2c0.3-0.8,0.4-1.8,0.4-3c0-1.1-0.1-2.1-0.4-3
		c-0.3-0.8-0.7-1.5-1.2-2c-0.5-0.5-1.1-0.7-1.8-0.7s-1.3,0.2-1.8,0.7c-0.5,0.5-0.9,1.1-1.2,2c-0.3,0.8-0.4,1.8-0.4,3
		c0,1.1,0.1,2.1,0.4,3c0.3,0.8,0.7,1.5,1.2,2c0.5,0.5,1.1,0.7,1.8,0.7S237.2,109.4,237.7,109z"/>
</g>
<g>
	<path class="st0" d="M190.3,10.9c-0.8-0.4-1.4-0.9-1.8-1.6c-0.4-0.7-0.6-1.4-0.6-2.3V0.6h2.1V7c0,0.5,0.1,1,0.4,1.4
		c0.2,0.4,0.6,0.8,1,1c0.4,0.2,0.9,0.4,1.5,0.4c0.5,0,1-0.1,1.5-0.4c0.4-0.2,0.8-0.6,1-1c0.2-0.4,0.4-0.9,0.4-1.4V0.6h2.1v6.5
		c0,0.9-0.2,1.6-0.6,2.3c-0.4,0.7-1,1.2-1.8,1.6s-1.6,0.6-2.6,0.6S191,11.3,190.3,10.9z"/>
	<path class="st0" d="M199.6,10.9l0.4-1.5c0.9,0.4,1.8,0.6,2.5,0.6c0.4,0,0.7-0.1,0.9-0.2c0.2-0.2,0.3-0.4,0.3-0.7s-0.1-0.5-0.4-0.6
		s-0.6-0.3-1.2-0.4c-0.5-0.1-1-0.3-1.3-0.4s-0.7-0.4-0.9-0.7c-0.3-0.3-0.4-0.7-0.4-1.3c0-0.5,0.1-0.9,0.4-1.2s0.6-0.6,1.1-0.8
		c0.5-0.2,1-0.3,1.6-0.3c0.9,0,1.9,0.2,2.9,0.5l-0.4,1.5c-0.9-0.3-1.6-0.5-2.3-0.5c-0.4,0-0.7,0.1-0.9,0.2c-0.2,0.2-0.3,0.4-0.3,0.6
		s0.1,0.4,0.4,0.6s0.6,0.3,1.2,0.4c0.5,0.1,1,0.3,1.4,0.4c0.4,0.1,0.7,0.4,0.9,0.7c0.3,0.3,0.4,0.8,0.4,1.3c0,0.5-0.1,0.9-0.4,1.3
		c-0.3,0.4-0.6,0.7-1.1,0.9s-1,0.3-1.6,0.3C201.8,11.5,200.7,11.3,199.6,10.9z"/>
	<path class="st0" d="M209.1,11c-0.6-0.3-1.1-0.8-1.5-1.5c-0.4-0.6-0.5-1.3-0.5-2.1s0.2-1.5,0.5-2.1s0.8-1.1,1.4-1.5
		c0.6-0.3,1.3-0.5,2.1-0.5c0.7,0,1.4,0.2,2,0.5c0.6,0.3,1,0.8,1.3,1.4c0.3,0.6,0.5,1.3,0.5,2.1c0,0.2,0,0.4,0,0.7h-5.7
		c0.1,0.6,0.3,1.1,0.8,1.5c0.5,0.4,1,0.6,1.7,0.6c0.7,0,1.5-0.2,2.3-0.7l0.6,1.4c-1.1,0.5-2.1,0.8-3.1,0.8
		C210.5,11.5,209.7,11.3,209.1,11z M212.9,6.7c0-0.6-0.2-1-0.5-1.4c-0.3-0.3-0.8-0.5-1.3-0.5c-0.5,0-1,0.2-1.3,0.5
		c-0.4,0.3-0.6,0.8-0.6,1.4H212.9z"/>
	<path class="st0" d="M217.6,11c-0.5-0.3-1-0.8-1.3-1.5c-0.3-0.6-0.5-1.3-0.5-2.1s0.2-1.5,0.5-2.1c0.3-0.6,0.7-1.1,1.3-1.5
		c0.5-0.3,1.2-0.5,1.9-0.5c0.5,0,0.9,0.1,1.3,0.3s0.7,0.5,1,0.8V0h2v11.3h-1.6l-0.3-1c-0.3,0.4-0.6,0.7-1.1,0.9
		c-0.4,0.2-0.9,0.3-1.4,0.3C218.8,11.5,218.1,11.3,217.6,11z M221.3,9.3c0.4-0.4,0.5-0.8,0.5-1.4V6.9c0-0.6-0.2-1-0.5-1.4
		s-0.8-0.6-1.4-0.6c-0.6,0-1.1,0.2-1.5,0.7c-0.4,0.5-0.6,1.1-0.6,1.8c0,0.7,0.2,1.3,0.6,1.8c0.4,0.5,0.9,0.7,1.5,0.7
		C220.5,9.9,221,9.7,221.3,9.3z"/>
</g>
<g>
	<path class="st0" d="M311.4,52.6c-1.6-0.1-3.3-0.5-5-1.2l0.6-1.8c1.6,0.7,3.1,1.1,4.5,1.2v-6.1c-1-0.3-1.9-0.6-2.6-0.9
		c-0.7-0.3-1.3-0.8-1.7-1.5c-0.5-0.6-0.7-1.4-0.7-2.4c0-1.2,0.4-2.2,1.3-3c0.9-0.8,2.1-1.3,3.6-1.5v-4.8h2v4.8
		c1.3,0.1,2.8,0.5,4.5,1.1l-0.6,1.9c-1.5-0.6-2.8-1-3.9-1.1V43c1,0.3,1.9,0.6,2.6,0.9c0.7,0.3,1.3,0.8,1.8,1.5s0.7,1.5,0.7,2.5
		c0,1.3-0.5,2.3-1.4,3.1c-0.9,0.8-2.1,1.3-3.7,1.5v4.8h-2V52.6z M311.4,37.3c-0.8,0.2-1.5,0.5-1.9,0.9s-0.7,1-0.7,1.7
		c0,0.7,0.2,1.2,0.7,1.6c0.4,0.4,1.1,0.7,1.9,1V37.3z M315.4,49.8c0.5-0.5,0.7-1.1,0.7-1.8c0-0.7-0.2-1.3-0.7-1.7
		c-0.5-0.4-1.1-0.8-2-1.1v5.5C314.2,50.6,314.9,50.3,315.4,49.8z"/>
	<path class="st0" d="M329.5,36.6l-5,2.9l-0.8-1.6l6.2-3.6h1.9v19.5h-2.3V36.6z"/>
	<path class="st0" d="M338.8,57.4c1.3-1,2-2.2,2.1-3.5c-0.4,0-0.8-0.1-1.1-0.4s-0.4-0.6-0.4-1.1c0-0.5,0.1-0.9,0.4-1.2
		c0.3-0.3,0.7-0.4,1.2-0.4c0.5,0,0.9,0.2,1.2,0.6c0.3,0.4,0.5,0.9,0.5,1.6c0,1.1-0.3,2.1-0.8,3c-0.6,0.9-1.3,1.7-2.4,2.4L338.8,57.4
		z"/>
	<path class="st0" d="M346.4,52.4l0.9-1.7c1.6,1,3.2,1.5,4.8,1.5c1.4,0,2.5-0.4,3.4-1.1c0.9-0.8,1.3-1.8,1.3-3
		c0-1.3-0.4-2.3-1.3-3.1c-0.9-0.8-2.1-1.1-3.6-1.1c-1.3,0-2.7,0.2-4.3,0.5v-10h10.8v1.9h-8.7v6.2c1-0.2,2-0.3,2.8-0.3
		c2,0,3.6,0.5,4.8,1.6c1.2,1.1,1.8,2.5,1.8,4.4c0,1.2-0.3,2.2-0.9,3.1s-1.4,1.6-2.4,2.1c-1,0.5-2.2,0.8-3.5,0.8
		C350.3,54.1,348.3,53.5,346.4,52.4z"/>
	<path class="st0" d="M363.5,52.9l0.8-1.7c1.4,0.7,2.7,1,3.9,1c1.9,0,3.3-0.7,4.3-2.2c1-1.5,1.5-3.6,1.6-6.4
		c-0.4,0.9-1.1,1.7-2.1,2.2c-0.9,0.6-2,0.8-3.2,0.8c-1.2,0-2.3-0.3-3.2-0.8c-0.9-0.5-1.7-1.3-2.2-2.2c-0.5-0.9-0.8-2-0.8-3.2
		c0-1.2,0.3-2.4,0.9-3.3c0.6-1,1.3-1.8,2.3-2.3s2.1-0.9,3.3-0.9c2.2,0,3.9,0.8,5.2,2.3c1.3,1.6,1.9,3.8,1.9,6.6
		c0,3.6-0.7,6.3-2.1,8.3c-1.4,2-3.4,2.9-5.9,2.9C366.6,54.1,365,53.7,363.5,52.9z M371.6,44.3c0.7-0.4,1.3-0.9,1.7-1.5
		c0.4-0.6,0.6-1.3,0.6-2.1c0-1-0.2-1.8-0.6-2.6s-0.9-1.4-1.6-1.8c-0.7-0.4-1.5-0.6-2.3-0.6c-0.8,0-1.6,0.2-2.3,0.6s-1.2,1-1.6,1.7
		c-0.4,0.7-0.6,1.5-0.6,2.3c0,1.4,0.4,2.4,1.2,3.3c0.8,0.8,1.9,1.2,3.2,1.2C370.1,44.9,370.9,44.7,371.6,44.3z"/>
	<path class="st0" d="M382.6,52.9c-1.1-0.8-1.9-2-2.5-3.5s-0.9-3.3-0.9-5.4c0-2,0.3-3.8,0.9-5.4c0.6-1.5,1.4-2.7,2.5-3.5
		c1.1-0.8,2.3-1.2,3.8-1.2c1.4,0,2.7,0.4,3.8,1.2c1.1,0.8,1.9,2,2.5,3.5c0.6,1.5,0.9,3.3,0.9,5.4c0,2-0.3,3.8-0.9,5.4
		s-1.4,2.7-2.5,3.5c-1.1,0.8-2.3,1.2-3.8,1.2C384.9,54.1,383.7,53.7,382.6,52.9z M389,51.1c0.7-0.7,1.3-1.6,1.7-2.8s0.6-2.7,0.6-4.3
		c0-1.7-0.2-3.1-0.6-4.3s-1-2.2-1.7-2.8s-1.6-1-2.6-1c-1,0-1.9,0.3-2.6,1s-1.3,1.6-1.7,2.8c-0.4,1.2-0.6,2.7-0.6,4.3
		c0,1.6,0.2,3.1,0.6,4.3c0.4,1.2,1,2.2,1.7,2.8s1.6,1,2.6,1C387.4,52.2,388.2,51.8,389,51.1z"/>
	<path class="st0" d="M397.1,53.6c-0.3-0.3-0.4-0.7-0.4-1.1c0-0.5,0.1-0.9,0.4-1.2c0.3-0.3,0.7-0.4,1.2-0.4c0.5,0,0.9,0.2,1.2,0.4
		c0.3,0.3,0.5,0.7,0.5,1.2c0,0.5-0.2,0.8-0.5,1.1c-0.3,0.3-0.7,0.4-1.2,0.4C397.8,54,397.4,53.9,397.1,53.6z"/>
	<path class="st0" d="M403.5,52.3l7.6-7.6c1.6-1.6,2.4-3.2,2.4-4.7c0-1.2-0.4-2.2-1.1-2.9s-1.8-1.1-3-1.1c-0.8,0-1.5,0.1-2.3,0.4
		c-0.8,0.3-1.6,0.7-2.5,1.3l-0.9-1.7c2.1-1.3,4.2-1.9,6.1-1.9c1.2,0,2.2,0.2,3.1,0.7c0.9,0.5,1.6,1.2,2.1,2s0.8,1.9,0.8,3
		c0,1-0.2,2-0.7,3c-0.5,1-1.2,1.9-2.1,2.9l-6.4,6.4h9.4v1.9h-12.5V52.3z"/>
	<path class="st0" d="M423.1,52.9c-1.1-0.8-1.9-2-2.5-3.5s-0.9-3.3-0.9-5.4c0-2,0.3-3.8,0.9-5.4c0.6-1.5,1.4-2.7,2.5-3.5
		c1.1-0.8,2.3-1.2,3.8-1.2c1.4,0,2.7,0.4,3.8,1.2c1.1,0.8,1.9,2,2.5,3.5c0.6,1.5,0.9,3.3,0.9,5.4c0,2-0.3,3.8-0.9,5.4
		s-1.4,2.7-2.5,3.5c-1.1,0.8-2.3,1.2-3.8,1.2C425.5,54.1,424.2,53.7,423.1,52.9z M429.6,51.1c0.7-0.7,1.3-1.6,1.7-2.8
		s0.6-2.7,0.6-4.3c0-1.7-0.2-3.1-0.6-4.3s-1-2.2-1.7-2.8s-1.6-1-2.6-1c-1,0-1.9,0.3-2.6,1s-1.3,1.6-1.7,2.8
		c-0.4,1.2-0.6,2.7-0.6,4.3c0,1.6,0.2,3.1,0.6,4.3c0.4,1.2,1,2.2,1.7,2.8s1.6,1,2.6,1C427.9,52.2,428.8,51.8,429.6,51.1z"/>
</g>
<g>
	<path class="st0" d="M343.7,0.6h4.7c0.7,0,1.2,0.1,1.8,0.4c0.5,0.2,0.9,0.6,1.2,1c0.3,0.4,0.4,0.9,0.4,1.5c0,0.5-0.1,1-0.4,1.4
		c-0.3,0.4-0.6,0.7-1.1,0.9c0.6,0.2,1,0.5,1.4,1c0.3,0.5,0.5,1,0.5,1.6c0,0.6-0.2,1.1-0.5,1.5c-0.3,0.5-0.7,0.8-1.3,1.1
		s-1.1,0.4-1.8,0.4h-4.9V0.6z M348.1,5.1c0.5,0,0.9-0.1,1.2-0.4s0.5-0.6,0.5-1.1c0-0.4-0.2-0.8-0.5-1.1c-0.3-0.3-0.7-0.4-1.2-0.4
		h-2.4v3H348.1z M348.3,9.8c0.5,0,0.9-0.2,1.3-0.5s0.5-0.7,0.5-1.2c0-0.5-0.2-0.9-0.5-1.2c-0.3-0.3-0.8-0.4-1.3-0.4h-2.6v3.2H348.3z
		"/>
	<path class="st0" d="M355.2,11c-0.5-0.3-1-0.8-1.3-1.5c-0.3-0.6-0.5-1.3-0.5-2.1s0.2-1.5,0.5-2.1c0.3-0.6,0.7-1.1,1.3-1.5
		s1.2-0.5,1.9-0.5c0.5,0,1,0.1,1.4,0.3c0.4,0.2,0.8,0.5,1.1,0.9l0.3-1h1.6v7.8h-1.6l-0.3-1c-0.3,0.4-0.6,0.7-1.1,0.9
		s-0.9,0.3-1.4,0.3C356.3,11.5,355.7,11.3,355.2,11z M358.9,9.3c0.4-0.4,0.5-0.8,0.5-1.4V6.9c0-0.6-0.2-1-0.5-1.4
		c-0.3-0.4-0.8-0.6-1.4-0.6c-0.6,0-1.1,0.2-1.5,0.7c-0.4,0.5-0.6,1.1-0.6,1.8c0,0.7,0.2,1.3,0.6,1.8c0.4,0.5,0.9,0.7,1.5,0.7
		C358.1,9.9,358.6,9.7,358.9,9.3z"/>
	<path class="st0" d="M364.2,10.9c-0.4-0.4-0.6-0.9-0.6-1.6V0h2v9c0,0.2,0.1,0.4,0.2,0.6c0.1,0.1,0.3,0.2,0.6,0.2
		c0.1,0,0.4,0,0.7-0.1l0.2,1.6c-0.5,0.1-1,0.2-1.4,0.2C365.2,11.5,364.6,11.3,364.2,10.9z"/>
	<path class="st0" d="M369.5,11c-0.5-0.3-1-0.8-1.3-1.5c-0.3-0.6-0.5-1.3-0.5-2.1s0.2-1.5,0.5-2.1c0.3-0.6,0.7-1.1,1.3-1.5
		s1.2-0.5,1.9-0.5c0.5,0,1,0.1,1.4,0.3c0.4,0.2,0.8,0.5,1.1,0.9l0.3-1h1.6v7.8h-1.6l-0.3-1c-0.3,0.4-0.6,0.7-1.1,0.9
		s-0.9,0.3-1.4,0.3C370.7,11.5,370.1,11.3,369.5,11z M373.2,9.3c0.4-0.4,0.5-0.8,0.5-1.4V6.9c0-0.6-0.2-1-0.5-1.4
		c-0.3-0.4-0.8-0.6-1.4-0.6c-0.6,0-1.1,0.2-1.5,0.7c-0.4,0.5-0.6,1.1-0.6,1.8c0,0.7,0.2,1.3,0.6,1.8c0.4,0.5,0.9,0.7,1.5,0.7
		C372.4,9.9,372.9,9.7,373.2,9.3z"/>
	<path class="st0" d="M377.9,3.5h1.6l0.3,1.1c0.3-0.4,0.7-0.8,1.2-1c0.5-0.2,1-0.3,1.6-0.3c0.6,0,1.1,0.1,1.6,0.4
		c0.5,0.3,0.8,0.6,1.1,1.1c0.3,0.5,0.4,1,0.4,1.5v5h-2V6.6c0-0.5-0.2-0.9-0.5-1.2c-0.3-0.3-0.7-0.5-1.2-0.5c-0.6,0-1,0.2-1.4,0.6
		c-0.4,0.4-0.5,0.9-0.5,1.5v4.3h-2V3.5z"/>
	<path class="st0" d="M389,11c-0.6-0.4-1.1-0.8-1.5-1.5S387,8.2,387,7.4c0-0.8,0.2-1.5,0.5-2.1s0.8-1.1,1.5-1.5
		c0.6-0.3,1.3-0.5,2.1-0.5c1.1,0,2.1,0.3,3,0.9l-0.8,1.4c-0.6-0.4-1.3-0.7-1.9-0.7c-0.7,0-1.3,0.2-1.7,0.7c-0.4,0.5-0.7,1.1-0.7,1.8
		s0.2,1.3,0.7,1.8c0.4,0.5,1,0.7,1.7,0.7c0.6,0,1.2-0.2,1.9-0.7l0.8,1.4c-0.9,0.6-1.9,0.9-3,0.9C390.4,11.5,389.6,11.3,389,11z"/>
	<path class="st0" d="M396.9,11c-0.6-0.3-1.2-0.8-1.5-1.5c-0.4-0.6-0.5-1.3-0.5-2.1s0.2-1.5,0.5-2.1c0.3-0.6,0.8-1.1,1.4-1.5
		s1.3-0.5,2.1-0.5c0.7,0,1.4,0.2,2,0.5s1,0.8,1.3,1.4s0.5,1.3,0.5,2.1c0,0.2,0,0.4,0,0.7h-5.7c0.1,0.6,0.3,1.1,0.8,1.5
		c0.5,0.4,1,0.6,1.7,0.6c0.7,0,1.5-0.2,2.3-0.7l0.6,1.4c-1.1,0.5-2.1,0.8-3.1,0.8C398.3,11.5,397.5,11.3,396.9,11z M400.6,6.7
		c0-0.6-0.2-1-0.5-1.4c-0.3-0.3-0.8-0.5-1.3-0.5c-0.5,0-1,0.2-1.3,0.5c-0.4,0.3-0.6,0.8-0.6,1.4H400.6z"/>
</g>
<g>
	<path class="st0" d="M297.2,70.3h3.8c0.5,0,1,0.1,1.4,0.3c0.4,0.2,0.7,0.5,1,0.9c0.2,0.4,0.4,0.8,0.4,1.3c0,0.5-0.1,0.9-0.4,1.3
		c-0.3,0.4-0.6,0.6-1.1,0.8c0.5,0.2,1,0.4,1.3,0.9s0.5,0.9,0.5,1.5c0,0.5-0.1,0.9-0.4,1.3c-0.2,0.4-0.6,0.7-1,0.9
		c-0.4,0.2-0.9,0.3-1.5,0.3h-4V70.3z M300.9,74.5c0.5,0,1-0.2,1.3-0.5s0.5-0.7,0.5-1.2c0-0.5-0.2-0.9-0.5-1.2
		c-0.3-0.3-0.8-0.5-1.3-0.5h-2.5v3.3H300.9z M301.1,78.9c0.6,0,1-0.2,1.4-0.5c0.4-0.3,0.5-0.8,0.5-1.3c0-0.5-0.2-0.9-0.5-1.3
		c-0.4-0.3-0.8-0.5-1.4-0.5h-2.7v3.6H301.1z"/>
	<path class="st0" d="M307,79.4c-0.5-0.3-0.8-0.7-1.1-1.3s-0.4-1.2-0.4-1.8c0-0.7,0.1-1.3,0.4-1.8s0.6-1,1.1-1.3
		c0.5-0.3,1-0.5,1.6-0.5c0.5,0,0.9,0.1,1.3,0.3c0.4,0.2,0.7,0.5,0.9,0.9l0.1-1.1h1v6.8h-0.9l-0.1-1.1c-0.2,0.4-0.6,0.7-1,1
		c-0.4,0.2-0.9,0.3-1.4,0.3C308,79.9,307.5,79.7,307,79.4z M310.3,78.4c0.4-0.4,0.6-0.9,0.6-1.5v-1.1c0-0.6-0.2-1.1-0.6-1.5
		c-0.4-0.4-0.9-0.6-1.4-0.6c-0.4,0-0.8,0.1-1.1,0.3s-0.6,0.5-0.8,0.9c-0.2,0.4-0.3,0.9-0.3,1.4c0,0.5,0.1,1,0.3,1.4
		c0.2,0.4,0.4,0.7,0.8,0.9c0.3,0.2,0.7,0.3,1.1,0.3C309.5,79,310,78.8,310.3,78.4z"/>
	<path class="st0" d="M314.7,79.4c-0.3-0.3-0.5-0.7-0.5-1.2v-8.4h1.1v8.3c0,0.3,0.1,0.5,0.2,0.6c0.1,0.1,0.3,0.2,0.6,0.2
		c0.2,0,0.4,0,0.7-0.1l0.1,0.9c-0.4,0.1-0.7,0.1-1.1,0.1C315.4,79.9,315,79.7,314.7,79.4z"/>
	<path class="st0" d="M319,79.4c-0.5-0.3-0.8-0.7-1.1-1.3c-0.3-0.5-0.4-1.2-0.4-1.8c0-0.7,0.1-1.3,0.4-1.8c0.3-0.5,0.6-1,1.1-1.3
		c0.5-0.3,1-0.5,1.6-0.5c0.5,0,0.9,0.1,1.3,0.3c0.4,0.2,0.7,0.5,0.9,0.9l0.1-1.1h1v6.8h-0.9l-0.1-1.1c-0.2,0.4-0.6,0.7-1,1
		c-0.4,0.2-0.9,0.3-1.4,0.3C320,79.9,319.5,79.7,319,79.4z M322.3,78.4c0.4-0.4,0.6-0.9,0.6-1.5v-1.1c0-0.6-0.2-1.1-0.6-1.5
		s-0.9-0.6-1.4-0.6c-0.4,0-0.8,0.1-1.1,0.3s-0.6,0.5-0.8,0.9c-0.2,0.4-0.3,0.9-0.3,1.4c0,0.5,0.1,1,0.3,1.4c0.2,0.4,0.4,0.7,0.8,0.9
		c0.3,0.2,0.7,0.3,1.1,0.3C321.5,79,321.9,78.8,322.3,78.4z"/>
	<path class="st0" d="M326.2,72.9h0.9l0.1,1.2c0.2-0.4,0.6-0.8,1-1c0.4-0.2,0.9-0.4,1.5-0.4c0.5,0,0.9,0.1,1.3,0.3
		c0.4,0.2,0.7,0.5,0.9,0.9c0.2,0.4,0.3,0.8,0.3,1.3v4.4h-1.1v-4.3c0-0.5-0.2-0.9-0.5-1.3s-0.8-0.5-1.3-0.5c-0.6,0-1.1,0.2-1.5,0.6
		c-0.4,0.4-0.6,0.9-0.6,1.6v3.8h-1.1V72.9z"/>
	<path class="st0" d="M335.5,79.4c-0.5-0.3-0.9-0.7-1.2-1.3c-0.3-0.5-0.4-1.2-0.4-1.8c0-0.7,0.1-1.3,0.4-1.8c0.3-0.5,0.7-1,1.2-1.3
		c0.5-0.3,1.1-0.5,1.8-0.5c0.8,0,1.6,0.3,2.4,0.8l-0.5,0.8c-0.6-0.4-1.2-0.6-1.8-0.6c-0.5,0-0.9,0.1-1.3,0.3
		c-0.4,0.2-0.7,0.5-0.9,0.9c-0.2,0.4-0.3,0.9-0.3,1.4c0,0.5,0.1,1,0.3,1.4c0.2,0.4,0.5,0.7,0.9,0.9c0.4,0.2,0.8,0.3,1.3,0.3
		c0.6,0,1.2-0.2,1.8-0.6l0.5,0.8c-0.8,0.5-1.6,0.8-2.4,0.8C336.6,79.9,336,79.7,335.5,79.4z"/>
	<path class="st0" d="M342.3,79.4c-0.5-0.3-1-0.7-1.3-1.3c-0.3-0.5-0.5-1.2-0.5-1.8c0-0.7,0.1-1.3,0.4-1.8c0.3-0.5,0.7-1,1.2-1.3
		c0.5-0.3,1.1-0.5,1.7-0.5c0.6,0,1.1,0.1,1.6,0.4s0.8,0.7,1.1,1.2c0.3,0.5,0.4,1.1,0.4,1.8c0,0.2,0,0.3,0,0.4h-5.3
		c0,0.7,0.3,1.3,0.8,1.8c0.5,0.4,1.1,0.7,1.8,0.7c0.7,0,1.3-0.2,2.1-0.6l0.4,0.8c-0.9,0.4-1.7,0.7-2.5,0.7
		C343.4,79.9,342.8,79.7,342.3,79.4z M345.9,75.9c0-0.7-0.2-1.2-0.6-1.6c-0.4-0.4-0.8-0.6-1.4-0.6c-0.6,0-1.1,0.2-1.5,0.6
		s-0.6,1-0.7,1.7H345.9z"/>
	<path class="st0" d="M352.9,79.4c-0.5-0.3-0.8-0.7-1.1-1.3s-0.4-1.2-0.4-1.8c0-0.7,0.1-1.3,0.4-1.8s0.6-1,1.1-1.3
		c0.5-0.3,1-0.5,1.6-0.5c0.5,0,0.9,0.1,1.3,0.3c0.4,0.2,0.7,0.5,0.9,0.9l0.1-1.1h1v6.8H357l-0.1-1.1c-0.2,0.4-0.6,0.7-1,1
		s-0.9,0.3-1.4,0.3C353.9,79.9,353.4,79.7,352.9,79.4z M356.2,78.4c0.4-0.4,0.6-0.9,0.6-1.5v-1.1c0-0.6-0.2-1.1-0.6-1.5
		s-0.9-0.6-1.4-0.6c-0.4,0-0.8,0.1-1.1,0.3s-0.6,0.5-0.8,0.9c-0.2,0.4-0.3,0.9-0.3,1.4c0,0.5,0.1,1,0.3,1.4c0.2,0.4,0.4,0.7,0.8,0.9
		c0.3,0.2,0.7,0.3,1.1,0.3C355.4,79,355.9,78.8,356.2,78.4z"/>
	<path class="st0" d="M359.6,79.4l0.3-0.8c0.8,0.3,1.5,0.5,2.2,0.5c0.5,0,0.8-0.1,1.1-0.3s0.4-0.5,0.4-0.8c0-0.2-0.1-0.4-0.2-0.6
		s-0.3-0.3-0.5-0.4c-0.2-0.1-0.5-0.2-0.9-0.3c-0.5-0.1-0.9-0.3-1.2-0.4s-0.6-0.3-0.8-0.6c-0.2-0.3-0.3-0.6-0.3-1.1
		c0-0.4,0.1-0.7,0.3-1s0.5-0.5,0.9-0.7c0.4-0.2,0.8-0.2,1.3-0.2c0.7,0,1.5,0.2,2.3,0.5l-0.3,0.8c-0.7-0.3-1.4-0.4-2-0.4
		c-0.4,0-0.8,0.1-1.1,0.3c-0.3,0.2-0.4,0.4-0.4,0.8c0,0.3,0.1,0.6,0.4,0.7c0.3,0.2,0.7,0.3,1.2,0.5c0.5,0.1,0.9,0.3,1.2,0.4
		c0.3,0.1,0.6,0.3,0.8,0.6s0.3,0.6,0.3,1.1c0,0.6-0.2,1-0.7,1.4c-0.5,0.4-1.1,0.5-1.8,0.5C361.3,79.9,360.5,79.7,359.6,79.4z"/>
	<path class="st0" d="M370.9,79.4c-0.5-0.3-0.9-0.7-1.2-1.3c-0.3-0.5-0.4-1.2-0.4-1.8c0-0.7,0.1-1.3,0.4-1.8c0.3-0.5,0.7-1,1.2-1.3
		c0.5-0.3,1.1-0.5,1.8-0.5c0.7,0,1.3,0.2,1.8,0.5c0.5,0.3,0.9,0.7,1.2,1.3c0.3,0.5,0.4,1.2,0.4,1.8c0,0.7-0.1,1.3-0.4,1.8
		c-0.3,0.5-0.7,1-1.2,1.3c-0.5,0.3-1.1,0.5-1.8,0.5C372.1,79.9,371.5,79.7,370.9,79.4z M373.9,78.7c0.4-0.2,0.6-0.5,0.8-0.9
		c0.2-0.4,0.3-0.9,0.3-1.4c0-0.5-0.1-1-0.3-1.4c-0.2-0.4-0.5-0.7-0.8-1c-0.4-0.2-0.8-0.3-1.2-0.3s-0.8,0.1-1.2,0.3
		c-0.4,0.2-0.6,0.5-0.8,1c-0.2,0.4-0.3,0.9-0.3,1.4c0,0.5,0.1,1,0.3,1.4c0.2,0.4,0.5,0.7,0.8,0.9c0.4,0.2,0.8,0.3,1.2,0.3
		S373.6,78.9,373.9,78.7z"/>
	<path class="st0" d="M378.2,73.8h-1.4v-0.9h1.4v-1.2c0-0.6,0.2-1.1,0.6-1.4c0.4-0.4,0.9-0.5,1.5-0.5c0.4,0,0.8,0.1,1.3,0.2
		l-0.2,0.9c-0.4-0.1-0.7-0.1-0.9-0.1c-0.4,0-0.7,0.1-0.9,0.3s-0.3,0.5-0.3,0.9v1.1h1.9v0.9h-1.9v5.9h-1.1V73.8z"/>
	<path class="st0" d="M389,71.4l-2.4,1.4l-0.4-0.8l3-1.7h0.9v9.4H389V71.4z"/>
	<path class="st0" d="M397,71.4l-2.4,1.4l-0.4-0.8l3-1.7h0.9v9.4H397V71.4z"/>
	<path class="st0" d="M405.2,69.9h1L402,81.6h-1L405.2,69.9z"/>
	<path class="st0" d="M410.5,71.4l-2.4,1.4l-0.4-0.8l3-1.7h0.9v9.4h-1.1V71.4z"/>
	<path class="st0" d="M415.1,79l3.7-3.7c0.8-0.8,1.1-1.5,1.1-2.3c0-0.6-0.2-1-0.6-1.4s-0.9-0.5-1.4-0.5c-0.4,0-0.7,0.1-1.1,0.2
		c-0.4,0.1-0.8,0.3-1.2,0.6l-0.4-0.8c1-0.6,2-0.9,3-0.9c0.6,0,1.1,0.1,1.5,0.4c0.4,0.2,0.8,0.6,1,1c0.2,0.4,0.4,0.9,0.4,1.4
		c0,0.5-0.1,1-0.3,1.5c-0.2,0.5-0.6,0.9-1,1.4l-3.1,3.1h4.5v0.9h-6V79z"/>
	<path class="st0" d="M426.7,69.9h1l-4.2,11.7h-1L426.7,69.9z"/>
	<path class="st0" d="M428.5,79l3.7-3.7c0.8-0.8,1.1-1.5,1.1-2.3c0-0.6-0.2-1-0.6-1.4s-0.9-0.5-1.4-0.5c-0.4,0-0.7,0.1-1.1,0.2
		c-0.4,0.1-0.8,0.3-1.2,0.6l-0.4-0.8c1-0.6,2-0.9,3-0.9c0.6,0,1.1,0.1,1.5,0.4c0.4,0.2,0.8,0.6,1,1c0.2,0.4,0.4,0.9,0.4,1.4
		c0,0.5-0.1,1-0.3,1.5c-0.2,0.5-0.6,0.9-1,1.4l-3.1,3.1h4.5v0.9h-6V79z"/>
	<path class="st0" d="M438,79.3c-0.5-0.4-0.9-1-1.2-1.7c-0.3-0.7-0.4-1.6-0.4-2.6s0.1-1.8,0.4-2.6c0.3-0.7,0.7-1.3,1.2-1.7
		c0.5-0.4,1.1-0.6,1.8-0.6c0.7,0,1.3,0.2,1.8,0.6c0.5,0.4,0.9,1,1.2,1.7c0.3,0.7,0.4,1.6,0.4,2.6s-0.1,1.9-0.4,2.6
		c-0.3,0.7-0.7,1.3-1.2,1.7c-0.5,0.4-1.1,0.6-1.8,0.6C439.2,79.9,438.6,79.7,438,79.3z M441.1,78.5c0.4-0.3,0.6-0.8,0.8-1.4
		c0.2-0.6,0.3-1.3,0.3-2.1c0-0.8-0.1-1.5-0.3-2.1c-0.2-0.6-0.5-1-0.8-1.4s-0.8-0.5-1.3-0.5c-0.5,0-0.9,0.2-1.3,0.5s-0.6,0.8-0.8,1.4
		s-0.3,1.3-0.3,2.1c0,0.8,0.1,1.5,0.3,2.1s0.5,1,0.8,1.4s0.8,0.5,1.3,0.5C440.4,79,440.8,78.8,441.1,78.5z"/>
	<path class="st0" d="M448.1,71.4l-2.4,1.4l-0.4-0.8l3-1.7h0.9v9.4h-1.1V71.4z"/>
	<path class="st0" d="M454.3,79.6c-0.5-0.2-0.9-0.5-1.2-0.9c-0.3-0.4-0.4-0.8-0.4-1.3c0-0.6,0.2-1.1,0.6-1.5
		c0.4-0.4,0.9-0.7,1.6-0.9c-0.6-0.1-1-0.4-1.4-0.8c-0.4-0.4-0.5-0.9-0.5-1.4c0-0.5,0.1-0.9,0.4-1.3c0.3-0.4,0.6-0.7,1.1-0.9
		s1-0.3,1.6-0.3s1.1,0.1,1.6,0.3s0.8,0.5,1.1,0.9s0.4,0.8,0.4,1.3c0,0.6-0.2,1-0.5,1.4c-0.4,0.4-0.8,0.7-1.4,0.8
		c0.7,0.2,1.2,0.5,1.6,0.9c0.4,0.4,0.6,0.9,0.6,1.5c0,0.5-0.1,1-0.4,1.3c-0.3,0.4-0.7,0.7-1.2,0.9c-0.5,0.2-1.1,0.3-1.7,0.3
		C455.4,79.9,454.8,79.8,454.3,79.6z M457.6,78.5c0.4-0.3,0.6-0.8,0.6-1.3c0-0.5-0.2-0.9-0.6-1.3s-0.9-0.5-1.6-0.7
		c-0.7,0.1-1.2,0.3-1.6,0.7c-0.4,0.3-0.6,0.8-0.6,1.3c0,0.5,0.2,0.9,0.6,1.3c0.4,0.3,0.9,0.5,1.6,0.5
		C456.6,79,457.2,78.9,457.6,78.5z M457.5,73.9c0.4-0.3,0.5-0.7,0.5-1.2c0-0.5-0.2-0.9-0.6-1.2c-0.4-0.3-0.9-0.5-1.4-0.5
		c-0.6,0-1,0.2-1.4,0.5c-0.4,0.3-0.6,0.7-0.6,1.2c0,0.5,0.2,0.9,0.5,1.2c0.4,0.3,0.8,0.5,1.5,0.6C456.6,74.4,457.1,74.2,457.5,73.9z
		"/>
</g>
<g>
	<g>
		<path class="st1" d="M45.6,25.8v4.6c11.1,0,20.1,9,20.1,20.1c0,11.1-9,20.1-20.1,20.1c-11.1,0-20.1-9-20.1-20.1h-4.6
			c0,13.6,11.1,24.6,24.7,24.6c13.6,0,24.7-11,24.7-24.7C70.2,36.8,59.2,25.8,45.6,25.8z"/>
		<circle class="st1" cx="45.5" cy="28.1" r="2.3"/>
		<circle class="st1" cx="23.2" cy="50.7" r="2.3"/>
	</g>
	<path class="st2" d="M46.1,17.4L46.1,17.4c0,0-0.1,0-0.1,0c-1.2,0-2.2,1-2.2,2.2c0,1.2,1,2.2,2.2,2.2c0,0,0.1,0,0.1,0v0
		c15.5,0.3,28,13,28,28.6C74.1,66.2,61.3,79,45.6,79S17,66.2,17,50.5c0-4.2,0.9-8.2,2.6-11.9c0.2-0.3,0.2-0.6,0.2-1
		c0-1.2-1-2.3-2.3-2.3c-0.9,0-1.6,0.5-2,1.2l0,0c-2,4.2-3.1,8.9-3.1,13.9c0,18.3,14.8,33.1,33.1,33.1s33.1-14.8,33.1-33.1
		C78.6,32.4,64.1,17.7,46.1,17.4z"/>
</g>
<g>
	<g>
		<path class="st3" d="M206.1,25.8v4.6c11.1,0,20.1,9,20.1,20.1c0,11.1-9,20.1-20.1,20.1c-11.1,0-20.1-9-20.1-20.1h-4.6
			c0,13.6,11.1,24.6,24.7,24.6c13.6,0,24.7-11,24.7-24.7C230.7,36.8,219.7,25.8,206.1,25.8z"/>
		<circle class="st3" cx="206" cy="28.1" r="2.3"/>
		<circle class="st3" cx="183.7" cy="50.7" r="2.3"/>
	</g>
	<path class="st2" d="M206.6,17.4L206.6,17.4c0,0-0.1,0-0.1,0c-1.2,0-2.2,1-2.2,2.2c0,1.2,1,2.2,2.2,2.2c0,0,0.1,0,0.1,0v0
		c15.5,0.3,28,13,28,28.6c0,15.8-12.8,28.6-28.6,28.6s-28.6-12.8-28.6-28.6c0-4.2,0.9-8.2,2.6-11.9c0.2-0.3,0.2-0.6,0.2-1
		c0-1.2-1-2.3-2.3-2.3c-0.9,0-1.6,0.5-2,1.2l0,0c-2,4.2-3.1,8.9-3.1,13.9c0,18.3,14.8,33.1,33.1,33.1s33.1-14.8,33.1-33.1
		C239.1,32.4,224.6,17.7,206.6,17.4z"/>
</g>
</svg>
