<?xml version="1.0" encoding="utf-8"?>
<!-- Generator: Adobe Illustrator 22.1.0, SVG Export Plug-In . SVG Version: 6.00 Build 0)  -->
<svg version="1.1" id="Layer_1" xmlns="http://www.w3.org/2000/svg" xmlns:xlink="http://www.w3.org/1999/xlink" x="0px" y="0px"
	 viewBox="0 0 88.3 88.2" style="enable-background:new 0 0 88.3 88.2;" xml:space="preserve">
<style type="text/css">
	.st0{fill:#313337;}
	.st1{fill:#8BC53F;}
	.st2{fill:#D7DADD;}
</style>
<g>
	<g>
		<g>
			<path class="st0" d="M26.1,48.7c-0.8,0-1.7-0.2-2.7-0.6l0.2-0.6c1,0.4,1.8,0.6,2.5,0.6v-3.7c-0.6-0.2-1-0.3-1.4-0.5
				c-0.4-0.2-0.7-0.4-0.9-0.7c-0.2-0.3-0.4-0.7-0.4-1.2c0-0.6,0.2-1.1,0.7-1.5c0.5-0.4,1.1-0.6,1.9-0.7v-2.5h0.6v2.5
				c0.7,0,1.5,0.2,2.4,0.6l-0.2,0.6c-0.9-0.3-1.6-0.5-2.2-0.6v3.6c0.6,0.2,1,0.3,1.4,0.5c0.4,0.2,0.7,0.4,0.9,0.7
				c0.2,0.3,0.4,0.7,0.4,1.3c0,0.6-0.2,1.2-0.7,1.6c-0.5,0.4-1.1,0.6-1.9,0.7v2.5h-0.6V48.7z M26.1,40.3c-0.6,0.1-1,0.2-1.4,0.5
				c-0.3,0.3-0.5,0.7-0.5,1.1c0,0.5,0.2,0.8,0.5,1.1c0.3,0.2,0.8,0.5,1.4,0.7V40.3z M28.1,47.5c0.4-0.3,0.5-0.7,0.5-1.2
				c0-0.5-0.2-0.9-0.5-1.1c-0.3-0.3-0.8-0.5-1.4-0.7v3.5C27.3,48,27.8,47.8,28.1,47.5z"/>
			<path class="st0" d="M31,48.5l0.3-0.6c0.9,0.5,1.8,0.8,2.6,0.8c0.8,0,1.5-0.2,2-0.7c0.5-0.4,0.7-1,0.7-1.8c0-0.8-0.2-1.4-0.7-1.8
				c-0.5-0.4-1.2-0.7-2-0.7c-0.7,0-1.4,0.1-2.2,0.3v-5H37v0.6h-4.7v3.7c0.6-0.1,1.2-0.2,1.8-0.2c1,0,1.8,0.3,2.4,0.8
				c0.6,0.5,0.9,1.3,0.9,2.2c0,0.6-0.1,1.1-0.4,1.6c-0.3,0.5-0.7,0.8-1.2,1.1c-0.5,0.3-1.1,0.4-1.8,0.4C33,49.4,32,49.1,31,48.5z"/>
			<path class="st0" d="M38.6,51.3c0.7-0.6,1.1-1.2,1.1-2c-0.2,0-0.3,0-0.5-0.1c-0.1-0.1-0.2-0.2-0.2-0.4s0.1-0.3,0.2-0.4
				c0.1-0.1,0.3-0.2,0.4-0.2c0.2,0,0.4,0.1,0.5,0.3s0.2,0.4,0.2,0.7c0,0.5-0.1,1-0.4,1.4c-0.3,0.4-0.6,0.8-1.1,1.1L38.6,51.3z"/>
			<path class="st0" d="M43.1,48.8c-0.5-0.4-1-1-1.3-1.8c-0.3-0.8-0.4-1.7-0.4-2.8s0.1-2,0.4-2.8c0.3-0.8,0.7-1.4,1.3-1.8
				c0.5-0.4,1.2-0.6,1.9-0.6s1.4,0.2,1.9,0.6c0.5,0.4,1,1,1.3,1.8s0.4,1.7,0.4,2.8s-0.1,2-0.4,2.8s-0.7,1.4-1.3,1.8
				c-0.5,0.4-1.2,0.6-1.9,0.6S43.6,49.2,43.1,48.8z M46.5,48.2c0.4-0.4,0.8-0.9,1-1.6s0.4-1.5,0.4-2.4c0-0.9-0.1-1.7-0.4-2.4
				c-0.2-0.7-0.6-1.2-1-1.6c-0.4-0.4-1-0.6-1.5-0.6s-1.1,0.2-1.5,0.6c-0.4,0.4-0.8,0.9-1,1.6c-0.2,0.7-0.4,1.5-0.4,2.4
				c0,0.9,0.1,1.7,0.4,2.4c0.2,0.7,0.6,1.2,1,1.6c0.4,0.4,0.9,0.6,1.5,0.6S46.1,48.6,46.5,48.2z"/>
			<path class="st0" d="M51,48.8c-0.5-0.4-1-1-1.3-1.8c-0.3-0.8-0.4-1.7-0.4-2.8s0.1-2,0.4-2.8c0.3-0.8,0.7-1.4,1.3-1.8
				c0.5-0.4,1.2-0.6,1.9-0.6c0.7,0,1.4,0.2,1.9,0.6c0.5,0.4,1,1,1.3,1.8s0.4,1.7,0.4,2.8s-0.1,2-0.4,2.8s-0.7,1.4-1.3,1.8
				c-0.5,0.4-1.2,0.6-1.9,0.6C52.1,49.4,51.5,49.2,51,48.8z M54.4,48.2c0.4-0.4,0.8-0.9,1-1.6s0.4-1.5,0.4-2.4
				c0-0.9-0.1-1.7-0.4-2.4c-0.2-0.7-0.6-1.2-1-1.6c-0.4-0.4-1-0.6-1.5-0.6s-1.1,0.2-1.5,0.6c-0.4,0.4-0.8,0.9-1,1.6
				c-0.2,0.7-0.4,1.5-0.4,2.4c0,0.9,0.1,1.7,0.4,2.4c0.2,0.7,0.6,1.2,1,1.6c0.4,0.4,0.9,0.6,1.5,0.6S54,48.6,54.4,48.2z"/>
			<path class="st0" d="M58.9,48.8c-0.5-0.4-1-1-1.3-1.8s-0.4-1.7-0.4-2.8s0.1-2,0.4-2.8s0.7-1.4,1.3-1.8c0.5-0.4,1.2-0.6,1.9-0.6
				c0.7,0,1.3,0.2,1.9,0.6c0.5,0.4,1,1,1.3,1.8s0.4,1.7,0.4,2.8s-0.1,2-0.4,2.8s-0.7,1.4-1.3,1.8c-0.5,0.4-1.2,0.6-1.9,0.6
				C60,49.4,59.4,49.2,58.9,48.8z M62.3,48.2c0.4-0.4,0.8-0.9,1-1.6c0.2-0.7,0.4-1.5,0.4-2.4c0-0.9-0.1-1.7-0.4-2.4
				c-0.2-0.7-0.6-1.2-1-1.6c-0.4-0.4-0.9-0.6-1.5-0.6s-1.1,0.2-1.5,0.6s-0.8,0.9-1,1.6c-0.2,0.7-0.4,1.5-0.4,2.4
				c0,0.9,0.1,1.7,0.4,2.4s0.6,1.2,1,1.6s1,0.6,1.5,0.6S61.8,48.6,62.3,48.2z"/>
		</g>
	</g>
	<g>
		<path class="st1" d="M44.1,11.2v6.1C59,17.3,71,29.3,71,44.1c0,14.8-12,26.8-26.8,26.8c-14.8,0-26.8-12-26.8-26.8h-6.1
			C11.2,62.3,26,77,44.1,77c18.2,0,32.9-14.7,32.9-32.9C77.1,25.9,62.3,11.2,44.1,11.2z"/>
		<circle class="st1" cx="44" cy="14.2" r="3.1"/>
		<circle class="st1" cx="14.3" cy="44.4" r="3.1"/>
	</g>
	<path class="st2" d="M44.9,0L44.9,0c0,0-0.1,0-0.1,0c-1.7,0-3,1.3-3,3c0,1.7,1.3,3,3,3c0,0,0.1,0,0.1,0v0
		c20.7,0.4,37.4,17.3,37.4,38.1c0,21.1-17.1,38.1-38.1,38.1S6,65.2,6,44.1c0-5.7,1.2-11,3.5-15.8c0.2-0.4,0.3-0.9,0.3-1.3
		c0-1.7-1.3-3-3-3c-1.2,0-2.1,0.7-2.7,1.6l0,0C1.5,31.2,0,37.5,0,44.1c0,24.4,19.8,44.1,44.1,44.1s44.1-19.8,44.1-44.1
		C88.3,20,68.9,0.4,44.9,0z"/>
</g>
</svg>
