<?xml version="1.0" encoding="utf-8"?>
<!-- Generator: Adobe Illustrator 22.1.0, SVG Export Plug-In . SVG Version: 6.00 Build 0)  -->
<svg version="1.1" id="Layer_1" xmlns="http://www.w3.org/2000/svg" xmlns:xlink="http://www.w3.org/1999/xlink" x="0px" y="0px"
	 viewBox="0 0 1366 768" style="enable-background:new 0 0 1366 768;" xml:space="preserve">
<style type="text/css">
	.st0{fill:#FFFFFF;}
	.st1{opacity:0.5;fill:#FDC662;}
	.st2{opacity:0.5;fill:#14C2F3;}
	.st3{fill:#FDC662;}
	.st4{fill:#14C2F3;}
	.st5{fill:#7D8389;}
	.st6{fill:#D7DADD;}
</style>
<g>
	<path class="st0" d="M926.7,313.4h-85.2c-9.9,0-18-8.1-18-18v0c0-9.9,8.1-18,18-18h85.2c9.9,0,18,8.1,18,18v0
		C944.7,305.3,936.6,313.4,926.7,313.4z"/>
	<rect x="472.2" y="294.9" class="st0" width="359.3" height="1"/>
	<rect x="472.2" y="251.9" class="st0" width="359.3" height="1"/>
	<path class="st0" d="M926.7,270.4h-85.2c-9.9,0-18-8.1-18-18v0c0-9.9,8.1-18,18-18h85.2c9.9,0,18,8.1,18,18v0
		C944.7,262.3,936.6,270.4,926.7,270.4z"/>
	<path class="st1" d="M478.2,400.5L478.2,400.5c-3.3,0-6-2.7-6-6v-50.8c0-3.3,2.7-6,6-6l0,0c3.3,0,6,2.7,6,6v50.8
		C484.2,397.8,481.5,400.5,478.2,400.5z"/>
	<path class="st2" d="M496.2,396.2L496.2,396.2c-3.3,0-6-2.7-6-6v-53.1c0-3.3,2.7-6,6-6l0,0c3.3,0,6,2.7,6,6v53.1
		C502.2,393.5,499.5,396.2,496.2,396.2z"/>
	<path class="st3" d="M478.2,410.8L478.2,410.8c-3.3,0-6-2.7-6-6V354c0-3.3,2.7-6,6-6l0,0c3.3,0,6,2.7,6,6v50.8
		C484.2,408.1,481.5,410.8,478.2,410.8z"/>
	<path class="st4" d="M496.2,410.8L496.2,410.8c-3.3,0-6-2.7-6-6v-53.1c0-3.3,2.7-6,6-6l0,0c3.3,0,6,2.7,6,6v53.1
		C502.2,408.1,499.5,410.8,496.2,410.8z"/>
	<circle class="st0" cx="487.1" cy="451.7" r="18"/>
	<g>
		<g>
			<path class="st5" d="M483.9,454.9h-6v-0.6l6-8.5h0.8v8.4h2v0.7h-2v3h-0.8V454.9z M483.9,454.2V447l-5.1,7.2H483.9z"/>
			<path class="st5" d="M490,457.3c-0.6-0.5-1.1-1.2-1.5-2.2c-0.4-0.9-0.5-2.1-0.5-3.3s0.2-2.4,0.5-3.3c0.4-0.9,0.9-1.7,1.5-2.2
				s1.4-0.8,2.3-0.8c0.9,0,1.6,0.3,2.3,0.8c0.6,0.5,1.1,1.2,1.5,2.2c0.4,0.9,0.5,2.1,0.5,3.3s-0.2,2.4-0.5,3.3
				c-0.4,0.9-0.9,1.7-1.5,2.2c-0.6,0.5-1.4,0.8-2.3,0.8C491.4,458.1,490.7,457.8,490,457.3z M494.1,456.7c0.5-0.5,0.9-1.1,1.2-1.9
				s0.4-1.8,0.4-2.9c0-1.1-0.1-2.1-0.4-2.9s-0.7-1.5-1.2-1.9c-0.5-0.5-1.1-0.7-1.8-0.7c-0.7,0-1.3,0.2-1.8,0.7s-0.9,1.1-1.2,1.9
				s-0.4,1.8-0.4,2.9c0,1.1,0.1,2.1,0.4,2.9s0.7,1.5,1.2,1.9s1.1,0.7,1.8,0.7C493,457.4,493.6,457.1,494.1,456.7z"/>
		</g>
	</g>
	<path class="st1" d="M528.2,398.8L528.2,398.8c-3.3,0-6-2.7-6-6v-61.1c0-3.3,2.7-6,6-6h0c3.3,0,6,2.7,6,6v61.1
		C534.2,396.1,531.5,398.8,528.2,398.8z"/>
	<path class="st2" d="M546.2,394.7L546.2,394.7c-3.3,0-6-2.7-6-6v-60c0-3.3,2.7-6,6-6h0c3.3,0,6,2.7,6,6v60
		C552.2,392,549.5,394.7,546.2,394.7z"/>
	<path class="st3" d="M528.2,412.8L528.2,412.8c-3.3,0-6-2.7-6-6v-61.1c0-3.3,2.7-6,6-6h0c3.3,0,6,2.7,6,6v61.1
		C534.2,410.1,531.5,412.8,528.2,412.8z"/>
	<path class="st4" d="M546.2,410.8L546.2,410.8c-3.3,0-6-2.7-6-6v-60c0-3.3,2.7-6,6-6h0c3.3,0,6,2.7,6,6v60
		C552.2,408.1,549.5,410.8,546.2,410.8z"/>
	<circle class="st0" cx="537.1" cy="451.7" r="18"/>
	<g>
		<g>
			<path class="st5" d="M533.9,454.9h-6v-0.6l6-8.5h0.8v8.4h2v0.7h-2v3h-0.8V454.9z M533.9,454.2V447l-5.1,7.2H533.9z"/>
			<path class="st5" d="M538.4,457.1l0.4-0.7c1.1,0.6,2.1,1,3.2,1c1,0,1.8-0.3,2.4-0.8c0.6-0.5,0.9-1.3,0.9-2.1
				c0-0.9-0.3-1.6-0.9-2.2c-0.6-0.5-1.4-0.8-2.4-0.8c-0.8,0-1.7,0.1-2.7,0.3v-6h6.4v0.7h-5.7v4.5c0.7-0.2,1.4-0.2,2.1-0.2
				c1.2,0,2.2,0.3,2.9,1c0.7,0.7,1.1,1.5,1.1,2.7c0,0.7-0.2,1.4-0.5,1.9s-0.8,1-1.4,1.3s-1.3,0.5-2.1,0.5
				C540.8,458.1,539.6,457.8,538.4,457.1z"/>
		</g>
	</g>
	<path class="st1" d="M578.2,397.4L578.2,397.4c-3.3,0-6-2.7-6-6V322c0-3.3,2.7-6,6-6h0c3.3,0,6,2.7,6,6v69.4
		C584.2,394.7,581.5,397.4,578.2,397.4z"/>
	<path class="st2" d="M596.2,391.6L596.2,391.6c-3.3,0-6-2.7-6-6v-73.8c0-3.3,2.7-6,6-6h0c3.3,0,6,2.7,6,6v73.8
		C602.2,388.9,599.5,391.6,596.2,391.6z"/>
	<path class="st3" d="M578.2,410.8L578.2,410.8c-3.3,0-6-2.7-6-6v-69.4c0-3.3,2.7-6,6-6h0c3.3,0,6,2.7,6,6v69.4
		C584.2,408.1,581.5,410.8,578.2,410.8z"/>
	<path class="st4" d="M596.2,410.8L596.2,410.8c-3.3,0-6-2.7-6-6V331c0-3.3,2.7-6,6-6h0c3.3,0,6,2.7,6,6v73.8
		C602.2,408.1,599.5,410.8,596.2,410.8z"/>
	<circle class="st0" cx="587.1" cy="451.7" r="18"/>
	<g>
		<g>
			<path class="st5" d="M578.5,457.1l0.4-0.7c1.1,0.6,2.1,1,3.2,1c1,0,1.8-0.3,2.4-0.8c0.6-0.5,0.9-1.3,0.9-2.1
				c0-0.9-0.3-1.6-0.9-2.2c-0.6-0.5-1.4-0.8-2.4-0.8c-0.8,0-1.7,0.1-2.7,0.3v-6h6.4v0.7H580v4.5c0.7-0.2,1.4-0.2,2.1-0.2
				c1.2,0,2.2,0.3,2.9,1c0.7,0.7,1.1,1.5,1.1,2.7c0,0.7-0.2,1.4-0.5,1.9s-0.8,1-1.4,1.3s-1.3,0.5-2.1,0.5
				C580.8,458.1,579.7,457.8,578.5,457.1z"/>
			<path class="st5" d="M590,457.3c-0.6-0.5-1.1-1.2-1.5-2.2c-0.4-0.9-0.5-2.1-0.5-3.3s0.2-2.4,0.5-3.3c0.4-0.9,0.9-1.7,1.5-2.2
				s1.4-0.8,2.3-0.8c0.9,0,1.6,0.3,2.3,0.8c0.6,0.5,1.1,1.2,1.5,2.2c0.4,0.9,0.5,2.1,0.5,3.3s-0.2,2.4-0.5,3.3
				c-0.4,0.9-0.9,1.7-1.5,2.2c-0.6,0.5-1.4,0.8-2.3,0.8C591.4,458.1,590.7,457.8,590,457.3z M594.1,456.7c0.5-0.5,0.9-1.1,1.2-1.9
				s0.4-1.8,0.4-2.9c0-1.1-0.1-2.1-0.4-2.9s-0.7-1.5-1.2-1.9c-0.5-0.5-1.1-0.7-1.8-0.7c-0.7,0-1.3,0.2-1.8,0.7s-0.9,1.1-1.2,1.9
				s-0.4,1.8-0.4,2.9c0,1.1,0.1,2.1,0.4,2.9s0.7,1.5,1.2,1.9s1.1,0.7,1.8,0.7C593,457.4,593.6,457.1,594.1,456.7z"/>
		</g>
	</g>
	<path class="st1" d="M628.2,396.4L628.2,396.4c-3.3,0-6-2.7-6-6V315c0-3.3,2.7-6,6-6h0c3.3,0,6,2.7,6,6v75.5
		C634.2,393.7,631.5,396.4,628.2,396.4z"/>
	<path class="st2" d="M646.2,389.7L646.2,389.7c-3.3,0-6-2.7-6-6v-82.2c0-3.3,2.7-6,6-6h0c3.3,0,6,2.7,6,6v82.2
		C652.2,387,649.5,389.7,646.2,389.7z"/>
	<path class="st3" d="M628.2,410.8L628.2,410.8c-3.3,0-6-2.7-6-6v-75.5c0-3.3,2.7-6,6-6h0c3.3,0,6,2.7,6,6v75.5
		C634.2,408.1,631.5,410.8,628.2,410.8z"/>
	<path class="st4" d="M646.2,410.8L646.2,410.8c-3.3,0-6-2.7-6-6v-82.2c0-3.3,2.7-6,6-6h0c3.3,0,6,2.7,6,6v82.2
		C652.2,408.1,649.5,410.8,646.2,410.8z"/>
	<circle class="st0" cx="637.1" cy="451.7" r="18"/>
	<g>
		<g>
			<path class="st5" d="M628.5,457.1l0.4-0.7c1.1,0.6,2.1,1,3.2,1c1,0,1.8-0.3,2.4-0.8c0.6-0.5,0.9-1.3,0.9-2.1
				c0-0.9-0.3-1.6-0.9-2.2c-0.6-0.5-1.4-0.8-2.4-0.8c-0.8,0-1.7,0.1-2.7,0.3v-6h6.4v0.7H630v4.5c0.7-0.2,1.4-0.2,2.1-0.2
				c1.2,0,2.2,0.3,2.9,1c0.7,0.7,1.1,1.5,1.1,2.7c0,0.7-0.2,1.4-0.5,1.9s-0.8,1-1.4,1.3s-1.3,0.5-2.1,0.5
				C630.8,458.1,629.7,457.8,628.5,457.1z"/>
			<path class="st5" d="M638.4,457.1l0.4-0.7c1.1,0.6,2.1,1,3.2,1c1,0,1.8-0.3,2.4-0.8c0.6-0.5,0.9-1.3,0.9-2.1
				c0-0.9-0.3-1.6-0.9-2.2c-0.6-0.5-1.4-0.8-2.4-0.8c-0.8,0-1.7,0.1-2.7,0.3v-6h6.4v0.7h-5.7v4.5c0.7-0.2,1.4-0.2,2.1-0.2
				c1.2,0,2.2,0.3,2.9,1c0.7,0.7,1.1,1.5,1.1,2.7c0,0.7-0.2,1.4-0.5,1.9s-0.8,1-1.4,1.3s-1.3,0.5-2.1,0.5
				C640.8,458.1,639.6,457.8,638.4,457.1z"/>
		</g>
	</g>
	<path class="st1" d="M678.2,394.1L678.2,394.1c-3.3,0-6-2.7-6-6v-89.9c0-3.3,2.7-6,6-6h0c3.3,0,6,2.7,6,6v89.9
		C684.2,391.4,681.5,394.1,678.2,394.1z"/>
	<path class="st2" d="M696.2,385.7L696.2,385.7c-3.3,0-6-2.7-6-6V279.5c0-3.3,2.7-6,6-6h0c3.3,0,6,2.7,6,6v100.1
		C702.2,383,699.5,385.7,696.2,385.7z"/>
	<path class="st3" d="M678.2,410.8L678.2,410.8c-3.3,0-6-2.7-6-6v-89.9c0-3.3,2.7-6,6-6h0c3.3,0,6,2.7,6,6v89.9
		C684.2,408.1,681.5,410.8,678.2,410.8z"/>
	<path class="st4" d="M696.2,410.8L696.2,410.8c-3.3,0-6-2.7-6-6V304.6c0-3.3,2.7-6,6-6h0c3.3,0,6,2.7,6,6v100.1
		C702.2,408.1,699.5,410.8,696.2,410.8z"/>
	<circle class="st0" cx="687.1" cy="451.7" r="18"/>
	<g>
		<g>
			<path class="st5" d="M679.6,456.7c-0.8-0.9-1.1-2.3-1.1-4c0-2.3,0.4-4,1.2-5.2c0.8-1.2,2-1.8,3.6-1.8c1,0,1.9,0.2,2.8,0.7
				l-0.3,0.7c-0.9-0.4-1.7-0.6-2.4-0.6c-1.3,0-2.3,0.5-3,1.6c-0.7,1.1-1,2.6-1,4.6c0.2-0.7,0.7-1.2,1.3-1.6c0.6-0.4,1.4-0.6,2.2-0.6
				c0.7,0,1.4,0.2,2,0.5c0.6,0.3,1,0.8,1.3,1.4c0.3,0.6,0.5,1.3,0.5,2c0,0.7-0.2,1.4-0.5,2c-0.3,0.6-0.8,1.1-1.4,1.4
				c-0.6,0.3-1.3,0.5-2,0.5C681.4,458.1,680.3,457.6,679.6,456.7z M684.2,457c0.5-0.3,0.8-0.7,1.1-1.2c0.3-0.5,0.4-1,0.4-1.6
				c0-0.9-0.3-1.7-0.9-2.3s-1.3-0.9-2.3-0.9c-0.6,0-1.1,0.1-1.6,0.4s-0.9,0.6-1.2,1c-0.3,0.4-0.4,0.9-0.4,1.4c0,0.7,0.1,1.3,0.4,1.8
				c0.3,0.5,0.7,1,1.1,1.3s1,0.5,1.7,0.5C683.2,457.4,683.8,457.2,684.2,457z"/>
			<path class="st5" d="M690,457.3c-0.6-0.5-1.1-1.2-1.5-2.2c-0.4-0.9-0.5-2.1-0.5-3.3s0.2-2.4,0.5-3.3c0.4-0.9,0.9-1.7,1.5-2.2
				s1.4-0.8,2.3-0.8c0.9,0,1.6,0.3,2.3,0.8c0.6,0.5,1.1,1.2,1.5,2.2c0.4,0.9,0.5,2.1,0.5,3.3s-0.2,2.4-0.5,3.3
				c-0.4,0.9-0.9,1.7-1.5,2.2c-0.6,0.5-1.4,0.8-2.3,0.8C691.4,458.1,690.7,457.8,690,457.3z M694.1,456.7c0.5-0.5,0.9-1.1,1.2-1.9
				s0.4-1.8,0.4-2.9c0-1.1-0.1-2.1-0.4-2.9s-0.7-1.5-1.2-1.9c-0.5-0.5-1.1-0.7-1.8-0.7c-0.7,0-1.3,0.2-1.8,0.7s-0.9,1.1-1.2,1.9
				s-0.4,1.8-0.4,2.9c0,1.1,0.1,2.1,0.4,2.9s0.7,1.5,1.2,1.9s1.1,0.7,1.8,0.7C693,457.4,693.6,457.1,694.1,456.7z"/>
		</g>
	</g>
	<path class="st1" d="M728.2,391.7L728.2,391.7c-3.3,0-6-2.7-6-6V281.4c0-3.3,2.7-6,6-6h0c3.3,0,6,2.7,6,6v104.3
		C734.2,389,731.5,391.7,728.2,391.7z"/>
	<path class="st2" d="M746.2,380.7L746.2,380.7c-3.3,0-6-2.7-6-6V252c0-3.3,2.7-6,6-6h0c3.3,0,6,2.7,6,6v122.6
		C752.2,378,749.5,380.7,746.2,380.7z"/>
	<path class="st3" d="M728.2,410.8L728.2,410.8c-3.3,0-6-2.7-6-6V300.5c0-3.3,2.7-6,6-6h0c3.3,0,6,2.7,6,6v104.3
		C734.2,408.1,731.5,410.8,728.2,410.8z"/>
	<path class="st4" d="M746.2,410.8L746.2,410.8c-3.3,0-6-2.7-6-6V282.1c0-3.3,2.7-6,6-6h0c3.3,0,6,2.7,6,6v122.6
		C752.2,408.1,749.5,410.8,746.2,410.8z"/>
	<circle class="st0" cx="737.1" cy="451.7" r="18"/>
	<g>
		<g>
			<path class="st5" d="M729.6,456.7c-0.8-0.9-1.1-2.3-1.1-4c0-2.3,0.4-4,1.2-5.2c0.8-1.2,2-1.8,3.6-1.8c1,0,1.9,0.2,2.8,0.7
				l-0.3,0.7c-0.9-0.4-1.7-0.6-2.4-0.6c-1.3,0-2.3,0.5-3,1.6c-0.7,1.1-1,2.6-1,4.6c0.2-0.7,0.7-1.2,1.3-1.6c0.6-0.4,1.4-0.6,2.2-0.6
				c0.7,0,1.4,0.2,2,0.5c0.6,0.3,1,0.8,1.3,1.4c0.3,0.6,0.5,1.3,0.5,2c0,0.7-0.2,1.4-0.5,2c-0.3,0.6-0.8,1.1-1.4,1.4
				c-0.6,0.3-1.3,0.5-2,0.5C731.4,458.1,730.3,457.6,729.6,456.7z M734.2,457c0.5-0.3,0.8-0.7,1.1-1.2c0.3-0.5,0.4-1,0.4-1.6
				c0-0.9-0.3-1.7-0.9-2.3s-1.3-0.9-2.3-0.9c-0.6,0-1.1,0.1-1.6,0.4s-0.9,0.6-1.2,1c-0.3,0.4-0.4,0.9-0.4,1.4c0,0.7,0.1,1.3,0.4,1.8
				c0.3,0.5,0.7,1,1.1,1.3s1,0.5,1.7,0.5C733.2,457.4,733.8,457.2,734.2,457z"/>
			<path class="st5" d="M738.4,457.1l0.4-0.7c1.1,0.6,2.1,1,3.2,1c1,0,1.8-0.3,2.4-0.8c0.6-0.5,0.9-1.3,0.9-2.1
				c0-0.9-0.3-1.6-0.9-2.2c-0.6-0.5-1.4-0.8-2.4-0.8c-0.8,0-1.7,0.1-2.7,0.3v-6h6.4v0.7h-5.7v4.5c0.7-0.2,1.4-0.2,2.1-0.2
				c1.2,0,2.2,0.3,2.9,1c0.7,0.7,1.1,1.5,1.1,2.7c0,0.7-0.2,1.4-0.5,1.9s-0.8,1-1.4,1.3s-1.3,0.5-2.1,0.5
				C740.8,458.1,739.6,457.8,738.4,457.1z"/>
		</g>
	</g>
	<path class="st1" d="M778.2,388.2L778.2,388.2c-3.3,0-6-2.7-6-6V256.6c0-3.3,2.7-6,6-6h0c3.3,0,6,2.7,6,6v125.6
		C784.2,385.5,781.5,388.2,778.2,388.2z"/>
	<path class="st2" d="M796.2,375.1L796.2,375.1c-3.3,0-6-2.7-6-6V221.8c0-3.3,2.7-6,6-6h0c3.3,0,6,2.7,6,6v147.4
		C802.2,372.4,799.5,375.1,796.2,375.1z"/>
	<path class="st3" d="M778.2,410.8L778.2,410.8c-3.3,0-6-2.7-6-6V279.1c0-3.3,2.7-6,6-6h0c3.3,0,6,2.7,6,6v125.6
		C784.2,408.1,781.5,410.8,778.2,410.8z"/>
	<path class="st4" d="M796.2,410.8L796.2,410.8c-3.3,0-6-2.7-6-6V257.4c0-3.3,2.7-6,6-6h0c3.3,0,6,2.7,6,6v147.4
		C802.2,408.1,799.5,410.8,796.2,410.8z"/>
	<circle class="st0" cx="787.1" cy="451.7" r="18"/>
	<g>
		<g>
			<path class="st5" d="M784.9,446.5h-6.4v-0.7h7.3v0.6l-5,11.5H780L784.9,446.5z"/>
			<path class="st5" d="M790,457.3c-0.6-0.5-1.1-1.2-1.5-2.2c-0.4-0.9-0.5-2.1-0.5-3.3s0.2-2.4,0.5-3.3c0.4-0.9,0.9-1.7,1.5-2.2
				s1.4-0.8,2.3-0.8c0.9,0,1.6,0.3,2.3,0.8c0.6,0.5,1.1,1.2,1.5,2.2c0.4,0.9,0.5,2.1,0.5,3.3s-0.2,2.4-0.5,3.3
				c-0.4,0.9-0.9,1.7-1.5,2.2c-0.6,0.5-1.4,0.8-2.3,0.8C791.4,458.1,790.7,457.8,790,457.3z M794.1,456.7c0.5-0.5,0.9-1.1,1.2-1.9
				s0.4-1.8,0.4-2.9c0-1.1-0.1-2.1-0.4-2.9s-0.7-1.5-1.2-1.9c-0.5-0.5-1.1-0.7-1.8-0.7c-0.7,0-1.3,0.2-1.8,0.7s-0.9,1.1-1.2,1.9
				s-0.4,1.8-0.4,2.9c0,1.1,0.1,2.1,0.4,2.9s0.7,1.5,1.2,1.9s1.1,0.7,1.8,0.7C793,457.4,793.6,457.1,794.1,456.7z"/>
		</g>
	</g>
	<g>
		<path class="st3" d="M602.7,523.2L602.7,523.2c-3.3,0-6-2.7-6-6l0,0c0-3.3,2.7-6,6-6l0,0c3.3,0,6,2.7,6,6l0,0
			C608.7,520.5,606,523.2,602.7,523.2z"/>
		<path class="st1" d="M602.7,547.2L602.7,547.2c-3.3,0-6-2.7-6-6l0,0c0-3.3,2.7-6,6-6l0,0c3.3,0,6,2.7,6,6l0,0
			C608.7,544.5,606,547.2,602.7,547.2z"/>
		<path class="st4" d="M671.9,523.2L671.9,523.2c-3.3,0-6-2.7-6-6l0,0c0-3.3,2.7-6,6-6l0,0c3.3,0,6,2.7,6,6l0,0
			C677.9,520.5,675.2,523.2,671.9,523.2z"/>
		<path class="st2" d="M671.9,547.2L671.9,547.2c-3.3,0-6-2.7-6-6l0,0c0-3.3,2.7-6,6-6l0,0c3.3,0,6,2.7,6,6l0,0
			C677.9,544.5,675.2,547.2,671.9,547.2z"/>
		<g>
			<circle class="st6" cx="637.1" cy="529.2" r="18"/>
			<g>
				<g>
					<path class="st5" d="M629.6,524.7h0.9l3.1,7.7l3.1-7.7h0.9l-3.6,8.7h-0.8L629.6,524.7z"/>
					<path class="st5" d="M638.5,533l0.2-0.7c1,0.4,1.9,0.6,2.8,0.6c0.7,0,1.2-0.2,1.6-0.5c0.4-0.3,0.6-0.7,0.6-1.2
						c0-0.4-0.1-0.7-0.3-0.9c-0.2-0.2-0.5-0.4-0.8-0.6c-0.3-0.1-0.7-0.3-1.3-0.4c-0.6-0.2-1.1-0.4-1.5-0.5s-0.7-0.4-0.9-0.7
						c-0.3-0.3-0.4-0.8-0.4-1.3c0-0.7,0.3-1.2,0.8-1.7c0.6-0.4,1.3-0.6,2.2-0.6s1.8,0.2,2.8,0.6l-0.2,0.7c-0.9-0.4-1.7-0.6-2.5-0.6
						c-0.6,0-1.2,0.1-1.6,0.4s-0.6,0.7-0.6,1.2c0,0.4,0.1,0.7,0.3,0.9c0.2,0.2,0.5,0.4,0.8,0.5c0.3,0.1,0.7,0.3,1.2,0.4
						c0.6,0.2,1.1,0.4,1.5,0.5c0.4,0.2,0.7,0.4,1,0.7c0.3,0.3,0.4,0.8,0.4,1.3c0,0.7-0.3,1.3-0.8,1.7c-0.6,0.4-1.3,0.7-2.2,0.7
						C640.6,533.6,639.5,533.4,638.5,533z"/>
				</g>
			</g>
		</g>
		<g>
			<g>
				<path class="st5" d="M450.8,520.8c-0.7-0.4-1.2-1-1.6-1.7c-0.4-0.7-0.6-1.6-0.6-2.5c0-0.9,0.2-1.8,0.6-2.5
					c0.4-0.7,0.9-1.3,1.6-1.7c0.7-0.4,1.5-0.6,2.4-0.6c0.5,0,1.1,0.1,1.6,0.3c0.5,0.2,1.1,0.4,1.6,0.8l-0.5,0.8
					c-0.8-0.6-1.7-0.9-2.5-0.9c-0.7,0-1.3,0.2-1.9,0.5c-0.5,0.3-1,0.8-1.3,1.4c-0.3,0.6-0.5,1.3-0.5,2c0,0.8,0.2,1.4,0.5,2
					c0.3,0.6,0.7,1.1,1.3,1.4c0.5,0.3,1.2,0.5,1.9,0.5c0.9,0,1.7-0.3,2.5-0.9l0.5,0.8c-0.5,0.3-1,0.6-1.6,0.8
					c-0.5,0.2-1.1,0.3-1.6,0.3C452.3,521.4,451.5,521.2,450.8,520.8z"/>
				<path class="st5" d="M458.8,521.1c-0.4-0.2-0.7-0.5-0.9-0.9c-0.2-0.4-0.3-0.8-0.3-1.3v-4.4h1.1v4.3c0,0.5,0.2,0.9,0.5,1.3
					c0.3,0.3,0.8,0.5,1.3,0.5c0.6,0,1.1-0.2,1.5-0.6c0.4-0.4,0.6-0.9,0.6-1.6v-3.8h1.1v6.8h-0.9l-0.1-1.2c-0.2,0.4-0.6,0.8-1,1
					c-0.4,0.2-0.9,0.4-1.5,0.4C459.6,521.4,459.2,521.3,458.8,521.1z"/>
				<path class="st5" d="M465.5,514.4h0.9l0.1,1.3c0.2-0.4,0.4-0.8,0.8-1s0.8-0.4,1.3-0.4c0.3,0,0.5,0,0.9,0.1l-0.1,0.9
					c-0.3-0.1-0.6-0.1-0.8-0.1c-0.6,0-1,0.2-1.4,0.6c-0.4,0.4-0.5,1-0.5,1.7v3.7h-1.1V514.4z"/>
				<path class="st5" d="M470.5,514.4h0.9l0.1,1.3c0.2-0.4,0.4-0.8,0.8-1s0.8-0.4,1.3-0.4c0.3,0,0.5,0,0.9,0.1l-0.1,0.9
					c-0.3-0.1-0.6-0.1-0.8-0.1c-0.6,0-1,0.2-1.4,0.6c-0.4,0.4-0.5,1-0.5,1.7v3.7h-1.1V514.4z"/>
				<path class="st5" d="M476.6,520.9c-0.5-0.3-1-0.7-1.3-1.3c-0.3-0.5-0.5-1.2-0.5-1.8c0-0.7,0.1-1.3,0.4-1.8s0.7-1,1.2-1.3
					c0.5-0.3,1.1-0.5,1.7-0.5c0.6,0,1.1,0.1,1.6,0.4s0.8,0.7,1.1,1.2c0.3,0.5,0.4,1.1,0.4,1.8c0,0.2,0,0.3,0,0.4H476
					c0,0.7,0.3,1.3,0.8,1.8c0.5,0.4,1.1,0.7,1.8,0.7c0.7,0,1.3-0.2,2.1-0.6l0.3,0.8c-0.9,0.4-1.7,0.7-2.5,0.7
					C477.7,521.4,477.1,521.2,476.6,520.9z M480.2,517.4c0-0.7-0.2-1.2-0.6-1.6c-0.4-0.4-0.8-0.6-1.4-0.6c-0.6,0-1.1,0.2-1.5,0.6
					s-0.6,1-0.7,1.7H480.2z"/>
				<path class="st5" d="M482.5,514.4h0.9l0.1,1.2c0.2-0.4,0.6-0.8,1-1c0.4-0.2,0.9-0.4,1.5-0.4c0.5,0,0.9,0.1,1.3,0.3
					c0.4,0.2,0.7,0.5,0.9,0.9c0.2,0.4,0.3,0.8,0.3,1.3v4.4h-1.1V517c0-0.5-0.2-0.9-0.5-1.3s-0.8-0.5-1.3-0.5c-0.6,0-1.1,0.2-1.5,0.6
					c-0.4,0.4-0.6,0.9-0.6,1.6v3.8h-1.1V514.4z"/>
				<path class="st5" d="M491.4,520.8c-0.4-0.4-0.6-0.8-0.6-1.4v-4.1h-1.4v-0.9h1.4v-2h1.1v2h2.1v0.9h-2.1v4c0,0.4,0.1,0.6,0.3,0.9
					c0.2,0.2,0.5,0.3,0.9,0.3c0.2,0,0.5,0,0.9-0.1l0.2,0.9c-0.5,0.1-0.9,0.2-1.3,0.2C492.3,521.4,491.8,521.2,491.4,520.8z"/>
				<path class="st5" d="M498.8,520.5c-0.4-1-0.6-2.2-0.6-3.3c0-1.2,0.2-2.3,0.6-3.3c0.4-1,1-2,1.8-2.8l0.8,0.5
					c-0.7,0.8-1.2,1.6-1.6,2.6c-0.4,1-0.5,2-0.5,3c0,1.1,0.2,2.1,0.5,3c0.4,1,0.9,1.8,1.6,2.6l-0.8,0.5
					C499.8,522.5,499.2,521.6,498.8,520.5z"/>
				<path class="st5" d="M501.9,514.4h1.1l1.7,5.5l1.7-5.5h1l1.7,5.5l1.7-5.5h1.1l-2.2,6.8h-1.1l-1.7-5.5l-1.7,5.5h-1.1L501.9,514.4
					z"/>
				<path class="st5" d="M514.1,520.9c-0.5-0.3-1-0.7-1.3-1.3c-0.3-0.5-0.5-1.2-0.5-1.8c0-0.7,0.1-1.3,0.4-1.8s0.7-1,1.2-1.3
					c0.5-0.3,1.1-0.5,1.7-0.5c0.6,0,1.1,0.1,1.6,0.4s0.8,0.7,1.1,1.2c0.3,0.5,0.4,1.1,0.4,1.8c0,0.2,0,0.3,0,0.4h-5.3
					c0,0.7,0.3,1.3,0.8,1.8c0.5,0.4,1.1,0.7,1.8,0.7c0.7,0,1.3-0.2,2.1-0.6l0.3,0.8c-0.9,0.4-1.7,0.7-2.5,0.7
					C515.3,521.4,514.7,521.2,514.1,520.9z M517.7,517.4c0-0.7-0.2-1.2-0.6-1.6c-0.4-0.4-0.8-0.6-1.4-0.6c-0.6,0-1.1,0.2-1.5,0.6
					s-0.6,1-0.7,1.7H517.7z"/>
				<path class="st5" d="M521.1,520.9c-0.5-0.3-0.8-0.7-1.1-1.3c-0.3-0.5-0.4-1.2-0.4-1.8c0-0.7,0.1-1.3,0.4-1.8
					c0.3-0.5,0.6-1,1.1-1.3c0.5-0.3,1-0.5,1.6-0.5c0.5,0,0.9,0.1,1.3,0.3c0.4,0.2,0.7,0.5,0.9,0.9l0.1-1.1h1v6.8h-0.9l-0.1-1.1
					c-0.2,0.4-0.6,0.7-1,1c-0.4,0.2-0.9,0.3-1.4,0.3C522.1,521.4,521.5,521.2,521.1,520.9z M524.4,519.9c0.4-0.4,0.6-0.9,0.6-1.5
					v-1.1c0-0.6-0.2-1.1-0.6-1.5c-0.4-0.4-0.9-0.6-1.4-0.6c-0.4,0-0.8,0.1-1.1,0.3s-0.6,0.5-0.8,0.9c-0.2,0.4-0.3,0.9-0.3,1.4
					c0,0.5,0.1,1,0.3,1.4c0.2,0.4,0.4,0.7,0.8,0.9c0.3,0.2,0.7,0.3,1.1,0.3C523.5,520.5,524,520.3,524.4,519.9z"/>
				<path class="st5" d="M527.9,511.4h1.1v6.4l3.2-3.4h1.3l-3.1,3.2l3.2,3.6h-1.3l-2.6-3L529,519v2.2h-1.1V511.4z"/>
				<path class="st5" d="M537.4,514.4h0.9l0.1,1.2c0.2-0.4,0.6-0.8,1-1c0.4-0.2,0.9-0.3,1.4-0.3c0.5,0,1,0.1,1.4,0.4
					c0.4,0.3,0.7,0.6,0.8,1.1c0.3-0.5,0.6-0.8,1-1.1c0.4-0.3,0.9-0.4,1.4-0.4c0.5,0,0.9,0.1,1.3,0.3s0.7,0.5,0.9,0.9
					c0.2,0.4,0.3,0.8,0.3,1.3v4.5h-1.1v-4.4c0-0.5-0.2-0.9-0.5-1.2c-0.3-0.3-0.7-0.5-1.2-0.5c-0.6,0-1,0.2-1.4,0.6
					c-0.4,0.4-0.5,0.9-0.5,1.5v3.9h-1.1v-4.4c0-0.5-0.2-0.9-0.5-1.2c-0.3-0.3-0.7-0.5-1.2-0.5c-0.6,0-1,0.2-1.4,0.6
					c-0.4,0.4-0.5,0.9-0.5,1.5v3.9h-1.1V514.4z"/>
				<path class="st5" d="M550.8,520.9c-0.5-0.3-0.8-0.7-1.1-1.3c-0.3-0.5-0.4-1.2-0.4-1.8c0-0.7,0.1-1.3,0.4-1.8
					c0.3-0.5,0.6-1,1.1-1.3c0.5-0.3,1-0.5,1.6-0.5c0.5,0,0.9,0.1,1.3,0.3c0.4,0.2,0.7,0.5,0.9,0.9l0.1-1.1h1v6.8h-0.9l-0.1-1.1
					c-0.2,0.4-0.6,0.7-1,1c-0.4,0.2-0.9,0.3-1.4,0.3C551.8,521.4,551.2,521.2,550.8,520.9z M554.1,519.9c0.4-0.4,0.6-0.9,0.6-1.5
					v-1.1c0-0.6-0.2-1.1-0.6-1.5c-0.4-0.4-0.9-0.6-1.4-0.6c-0.4,0-0.8,0.1-1.1,0.3s-0.6,0.5-0.8,0.9c-0.2,0.4-0.3,0.9-0.3,1.4
					c0,0.5,0.1,1,0.3,1.4c0.2,0.4,0.4,0.7,0.8,0.9c0.3,0.2,0.7,0.3,1.1,0.3C553.2,520.5,553.7,520.3,554.1,519.9z"/>
				<path class="st5" d="M557.6,514.4h0.9l0.1,1.3c0.2-0.4,0.4-0.8,0.8-1s0.8-0.4,1.3-0.4c0.3,0,0.5,0,0.9,0.1l-0.1,0.9
					c-0.3-0.1-0.6-0.1-0.8-0.1c-0.6,0-1,0.2-1.4,0.6c-0.4,0.4-0.5,1-0.5,1.7v3.7h-1.1V514.4z"/>
				<path class="st5" d="M562.6,511.4h1.1v6.4l3.2-3.4h1.3l-3.1,3.2l3.2,3.6H567l-2.6-3l-0.7,0.7v2.2h-1.1V511.4z"/>
				<path class="st5" d="M570.3,520.9c-0.5-0.3-1-0.7-1.3-1.3c-0.3-0.5-0.5-1.2-0.5-1.8c0-0.7,0.1-1.3,0.4-1.8s0.7-1,1.2-1.3
					c0.5-0.3,1.1-0.5,1.7-0.5c0.6,0,1.1,0.1,1.6,0.4s0.8,0.7,1.1,1.2c0.3,0.5,0.4,1.1,0.4,1.8c0,0.2,0,0.3,0,0.4h-5.3
					c0,0.7,0.3,1.3,0.8,1.8c0.5,0.4,1.1,0.7,1.8,0.7c0.7,0,1.3-0.2,2.1-0.6l0.3,0.8c-0.9,0.4-1.7,0.7-2.5,0.7
					C571.4,521.4,570.8,521.2,570.3,520.9z M573.9,517.4c0-0.7-0.2-1.2-0.6-1.6c-0.4-0.4-0.8-0.6-1.4-0.6c-0.6,0-1.1,0.2-1.5,0.6
					s-0.6,1-0.7,1.7H573.9z"/>
				<path class="st5" d="M577.3,520.8c-0.4-0.4-0.6-0.8-0.6-1.4v-4.1h-1.4v-0.9h1.4v-2h1.1v2h2.1v0.9h-2.1v4c0,0.4,0.1,0.6,0.3,0.9
					c0.2,0.2,0.5,0.3,0.9,0.3c0.2,0,0.5,0,0.9-0.1l0.2,0.9c-0.5,0.1-0.9,0.2-1.3,0.2C578.2,521.4,577.6,521.2,577.3,520.8z"/>
				<path class="st5" d="M580.6,522.8c0.7-0.8,1.2-1.6,1.6-2.6c0.4-1,0.5-2,0.5-3c0-1.1-0.2-2.1-0.5-3c-0.4-1-0.9-1.8-1.6-2.6
					l0.8-0.5c0.8,0.8,1.4,1.8,1.8,2.8c0.4,1.1,0.6,2.2,0.6,3.3c0,1.2-0.2,2.3-0.6,3.3c-0.4,1.1-1,2-1.8,2.9L580.6,522.8z"/>
			</g>
		</g>
		<g>
			<g>
				<path class="st5" d="M443.3,545.8c-0.7-0.4-1.2-1-1.6-1.7c-0.4-0.7-0.6-1.6-0.6-2.5c0-0.9,0.2-1.8,0.6-2.5
					c0.4-0.7,0.9-1.3,1.6-1.7c0.7-0.4,1.5-0.6,2.4-0.6c0.5,0,1.1,0.1,1.6,0.3c0.5,0.2,1.1,0.4,1.6,0.8l-0.5,0.8
					c-0.8-0.6-1.7-0.9-2.5-0.9c-0.7,0-1.3,0.2-1.9,0.5c-0.5,0.3-1,0.8-1.3,1.4c-0.3,0.6-0.5,1.3-0.5,2c0,0.8,0.2,1.4,0.5,2
					c0.3,0.6,0.7,1.1,1.3,1.4c0.5,0.3,1.2,0.5,1.9,0.5c0.9,0,1.7-0.3,2.5-0.9l0.5,0.8c-0.5,0.3-1,0.6-1.6,0.8
					c-0.5,0.2-1.1,0.3-1.6,0.3C444.8,546.4,444,546.2,443.3,545.8z"/>
				<path class="st5" d="M451.4,546.1c-0.4-0.2-0.7-0.5-0.9-0.9c-0.2-0.4-0.3-0.8-0.3-1.3v-4.4h1.1v4.3c0,0.5,0.2,0.9,0.5,1.3
					c0.3,0.3,0.8,0.5,1.3,0.5c0.6,0,1.1-0.2,1.5-0.6c0.4-0.4,0.6-0.9,0.6-1.6v-3.8h1.1v6.8h-0.9l-0.1-1.2c-0.2,0.4-0.6,0.8-1,1
					c-0.4,0.2-0.9,0.4-1.5,0.4C452.2,546.4,451.8,546.3,451.4,546.1z"/>
				<path class="st5" d="M458,539.4h0.9l0.1,1.3c0.2-0.4,0.4-0.8,0.8-1s0.8-0.4,1.3-0.4c0.3,0,0.5,0,0.9,0.1l-0.1,0.9
					c-0.3-0.1-0.6-0.1-0.8-0.1c-0.6,0-1,0.2-1.4,0.6c-0.4,0.4-0.5,1-0.5,1.7v3.7H458V539.4z"/>
				<path class="st5" d="M463.1,539.4h0.9l0.1,1.3c0.2-0.4,0.4-0.8,0.8-1s0.8-0.4,1.3-0.4c0.3,0,0.5,0,0.9,0.1l-0.1,0.9
					c-0.3-0.1-0.6-0.1-0.8-0.1c-0.6,0-1,0.2-1.4,0.6c-0.4,0.4-0.5,1-0.5,1.7v3.7h-1.1V539.4z"/>
				<path class="st5" d="M469.1,545.9c-0.5-0.3-1-0.7-1.3-1.3c-0.3-0.5-0.5-1.2-0.5-1.8c0-0.7,0.1-1.3,0.4-1.8s0.7-1,1.2-1.3
					c0.5-0.3,1.1-0.5,1.7-0.5c0.6,0,1.1,0.1,1.6,0.4s0.8,0.7,1.1,1.2c0.3,0.5,0.4,1.1,0.4,1.8c0,0.2,0,0.3,0,0.4h-5.3
					c0,0.7,0.3,1.3,0.8,1.8c0.5,0.4,1.1,0.7,1.8,0.7c0.7,0,1.3-0.2,2.1-0.6l0.3,0.8c-0.9,0.4-1.7,0.7-2.5,0.7
					C470.3,546.4,469.7,546.2,469.1,545.9z M472.7,542.4c0-0.7-0.2-1.2-0.6-1.6c-0.4-0.4-0.8-0.6-1.4-0.6c-0.6,0-1.1,0.2-1.5,0.6
					s-0.6,1-0.7,1.7H472.7z"/>
				<path class="st5" d="M475.1,539.4h0.9l0.1,1.2c0.2-0.4,0.6-0.8,1-1c0.4-0.2,0.9-0.4,1.5-0.4c0.5,0,0.9,0.1,1.3,0.3
					c0.4,0.2,0.7,0.5,0.9,0.9c0.2,0.4,0.3,0.8,0.3,1.3v4.4H480V542c0-0.5-0.2-0.9-0.5-1.3s-0.8-0.5-1.3-0.5c-0.6,0-1.1,0.2-1.5,0.6
					c-0.4,0.4-0.6,0.9-0.6,1.6v3.8h-1.1V539.4z"/>
				<path class="st5" d="M483.9,545.8c-0.4-0.4-0.6-0.8-0.6-1.4v-4.1H482v-0.9h1.4v-2h1.1v2h2.1v0.9h-2.1v4c0,0.4,0.1,0.6,0.3,0.9
					c0.2,0.2,0.5,0.3,0.9,0.3c0.2,0,0.5,0,0.9-0.1l0.2,0.9c-0.5,0.1-0.9,0.2-1.3,0.2C484.8,546.4,484.3,546.2,483.9,545.8z"/>
				<path class="st5" d="M491.4,545.5c-0.4-1-0.6-2.2-0.6-3.3c0-1.2,0.2-2.3,0.6-3.3c0.4-1,1-2,1.8-2.8l0.8,0.5
					c-0.7,0.8-1.2,1.6-1.6,2.6c-0.4,1-0.5,2-0.5,3c0,1.1,0.2,2.1,0.5,3c0.4,1,0.9,1.8,1.6,2.6l-0.8,0.5
					C492.4,547.5,491.8,546.6,491.4,545.5z"/>
				<path class="st5" d="M494.6,545.9l0.3-0.8c0.8,0.3,1.5,0.5,2.2,0.5c0.5,0,0.8-0.1,1.1-0.3s0.4-0.5,0.4-0.8
					c0-0.2-0.1-0.4-0.2-0.6c-0.1-0.1-0.3-0.3-0.5-0.4c-0.2-0.1-0.5-0.2-0.9-0.3c-0.5-0.1-0.9-0.3-1.2-0.4s-0.6-0.3-0.8-0.6
					c-0.2-0.3-0.3-0.6-0.3-1.1c0-0.4,0.1-0.7,0.3-1s0.5-0.5,0.9-0.7c0.4-0.2,0.8-0.2,1.3-0.2c0.7,0,1.5,0.2,2.3,0.5l-0.3,0.8
					c-0.7-0.3-1.4-0.4-2-0.4c-0.4,0-0.8,0.1-1.1,0.3c-0.3,0.2-0.4,0.4-0.4,0.8c0,0.3,0.1,0.6,0.4,0.7c0.3,0.2,0.7,0.3,1.2,0.5
					c0.5,0.1,0.9,0.3,1.2,0.4s0.6,0.3,0.8,0.6c0.2,0.3,0.3,0.6,0.3,1.1c0,0.6-0.2,1-0.7,1.4s-1.1,0.5-1.8,0.5
					C496.4,546.4,495.5,546.2,494.6,545.9z"/>
				<path class="st5" d="M502.1,545.8c-0.4-0.4-0.6-0.8-0.6-1.4v-4.1h-1.4v-0.9h1.4v-2h1.1v2h2.1v0.9h-2.1v4c0,0.4,0.1,0.6,0.3,0.9
					c0.2,0.2,0.5,0.3,0.9,0.3c0.2,0,0.5,0,0.9-0.1l0.2,0.9c-0.5,0.1-0.9,0.2-1.3,0.2C503,546.4,502.5,546.2,502.1,545.8z"/>
				<path class="st5" d="M506.2,539.4h0.9l0.1,1.3c0.2-0.4,0.4-0.8,0.8-1s0.8-0.4,1.3-0.4c0.3,0,0.5,0,0.9,0.1l-0.1,0.9
					c-0.3-0.1-0.6-0.1-0.8-0.1c-0.6,0-1,0.2-1.4,0.6c-0.4,0.4-0.5,1-0.5,1.7v3.7h-1.1V539.4z"/>
				<path class="st5" d="M512.2,545.9c-0.5-0.3-0.9-0.7-1.2-1.3s-0.4-1.2-0.4-1.8c0-0.7,0.1-1.3,0.4-1.8s0.7-1,1.2-1.3
					c0.5-0.3,1.1-0.5,1.8-0.5c0.7,0,1.3,0.2,1.8,0.5c0.5,0.3,0.9,0.7,1.2,1.3c0.3,0.5,0.4,1.2,0.4,1.8c0,0.7-0.1,1.3-0.4,1.8
					c-0.3,0.5-0.7,1-1.2,1.3c-0.5,0.3-1.1,0.5-1.8,0.5C513.3,546.4,512.7,546.2,512.2,545.9z M515.2,545.2c0.4-0.2,0.6-0.5,0.8-0.9
					s0.3-0.9,0.3-1.4c0-0.5-0.1-1-0.3-1.4c-0.2-0.4-0.5-0.7-0.8-1c-0.4-0.2-0.8-0.3-1.2-0.3s-0.8,0.1-1.2,0.3
					c-0.4,0.2-0.6,0.5-0.8,1c-0.2,0.4-0.3,0.9-0.3,1.4c0,0.5,0.1,1,0.3,1.4c0.2,0.4,0.5,0.7,0.8,0.9c0.4,0.2,0.8,0.3,1.2,0.3
					S514.8,545.4,515.2,545.2z"/>
				<path class="st5" d="M518.8,539.4h0.9l0.1,1.2c0.2-0.4,0.6-0.8,1-1c0.4-0.2,0.9-0.4,1.5-0.4c0.5,0,0.9,0.1,1.3,0.3
					c0.4,0.2,0.7,0.5,0.9,0.9c0.2,0.4,0.3,0.8,0.3,1.3v4.4h-1.1V542c0-0.5-0.2-0.9-0.5-1.3s-0.8-0.5-1.3-0.5c-0.6,0-1.1,0.2-1.5,0.6
					c-0.4,0.4-0.6,0.9-0.6,1.6v3.8h-1.1V539.4z"/>
				<path class="st5" d="M526.5,548.7l0.3-0.8c0.8,0.4,1.6,0.5,2.3,0.5c0.7,0,1.2-0.2,1.7-0.6c0.4-0.4,0.7-0.9,0.7-1.5v-1.2
					c-0.2,0.4-0.6,0.7-0.9,0.9c-0.4,0.2-0.8,0.3-1.3,0.3c-0.6,0-1.1-0.2-1.6-0.5c-0.5-0.3-0.8-0.7-1.1-1.3c-0.3-0.5-0.4-1.2-0.4-1.8
					c0-0.7,0.1-1.3,0.4-1.8c0.3-0.5,0.6-1,1.1-1.3c0.5-0.3,1-0.5,1.6-0.5c0.5,0,1,0.1,1.4,0.3c0.4,0.2,0.7,0.5,1,1l0.1-1.1h0.9v6.9
					c0,0.6-0.1,1.1-0.4,1.5c-0.3,0.4-0.7,0.8-1.2,1c-0.5,0.3-1.1,0.4-1.7,0.4C528.4,549.3,527.5,549.1,526.5,548.7z M530.9,544.9
					c0.4-0.4,0.6-0.9,0.6-1.5v-1.1c0-0.6-0.2-1.1-0.6-1.5c-0.4-0.4-0.9-0.6-1.4-0.6c-0.4,0-0.8,0.1-1.1,0.3s-0.6,0.5-0.8,0.9
					c-0.2,0.4-0.3,0.9-0.3,1.4c0,0.5,0.1,1,0.3,1.4c0.2,0.4,0.4,0.7,0.8,0.9c0.3,0.2,0.7,0.3,1.1,0.3
					C530.1,545.5,530.5,545.3,530.9,544.9z"/>
				<path class="st5" d="M537.4,539.4h0.9l0.1,1.2c0.2-0.4,0.6-0.8,1-1c0.4-0.2,0.9-0.3,1.4-0.3c0.5,0,1,0.1,1.4,0.4
					c0.4,0.3,0.7,0.6,0.8,1.1c0.3-0.5,0.6-0.8,1-1.1c0.4-0.3,0.9-0.4,1.4-0.4c0.5,0,0.9,0.1,1.3,0.3s0.7,0.5,0.9,0.9
					c0.2,0.4,0.3,0.8,0.3,1.3v4.5h-1.1v-4.4c0-0.5-0.2-0.9-0.5-1.2c-0.3-0.3-0.7-0.5-1.2-0.5c-0.6,0-1,0.2-1.4,0.6
					c-0.4,0.4-0.5,0.9-0.5,1.5v3.9h-1.1v-4.4c0-0.5-0.2-0.9-0.5-1.2c-0.3-0.3-0.7-0.5-1.2-0.5c-0.6,0-1,0.2-1.4,0.6
					c-0.4,0.4-0.5,0.9-0.5,1.5v3.9h-1.1V539.4z"/>
				<path class="st5" d="M550.8,545.9c-0.5-0.3-0.8-0.7-1.1-1.3c-0.3-0.5-0.4-1.2-0.4-1.8c0-0.7,0.1-1.3,0.4-1.8
					c0.3-0.5,0.6-1,1.1-1.3c0.5-0.3,1-0.5,1.6-0.5c0.5,0,0.9,0.1,1.3,0.3c0.4,0.2,0.7,0.5,0.9,0.9l0.1-1.1h1v6.8h-0.9l-0.1-1.1
					c-0.2,0.4-0.6,0.7-1,1c-0.4,0.2-0.9,0.3-1.4,0.3C551.8,546.4,551.2,546.2,550.8,545.9z M554.1,544.9c0.4-0.4,0.6-0.9,0.6-1.5
					v-1.1c0-0.6-0.2-1.1-0.6-1.5c-0.4-0.4-0.9-0.6-1.4-0.6c-0.4,0-0.8,0.1-1.1,0.3s-0.6,0.5-0.8,0.9c-0.2,0.4-0.3,0.9-0.3,1.4
					c0,0.5,0.1,1,0.3,1.4c0.2,0.4,0.4,0.7,0.8,0.9c0.3,0.2,0.7,0.3,1.1,0.3C553.2,545.5,553.7,545.3,554.1,544.9z"/>
				<path class="st5" d="M557.6,539.4h0.9l0.1,1.3c0.2-0.4,0.4-0.8,0.8-1s0.8-0.4,1.3-0.4c0.3,0,0.5,0,0.9,0.1l-0.1,0.9
					c-0.3-0.1-0.6-0.1-0.8-0.1c-0.6,0-1,0.2-1.4,0.6c-0.4,0.4-0.5,1-0.5,1.7v3.7h-1.1V539.4z"/>
				<path class="st5" d="M562.6,536.4h1.1v6.4l3.2-3.4h1.3l-3.1,3.2l3.2,3.6H567l-2.6-3l-0.7,0.7v2.2h-1.1V536.4z"/>
				<path class="st5" d="M570.3,545.9c-0.5-0.3-1-0.7-1.3-1.3c-0.3-0.5-0.5-1.2-0.5-1.8c0-0.7,0.1-1.3,0.4-1.8s0.7-1,1.2-1.3
					c0.5-0.3,1.1-0.5,1.7-0.5c0.6,0,1.1,0.1,1.6,0.4s0.8,0.7,1.1,1.2c0.3,0.5,0.4,1.1,0.4,1.8c0,0.2,0,0.3,0,0.4h-5.3
					c0,0.7,0.3,1.3,0.8,1.8c0.5,0.4,1.1,0.7,1.8,0.7c0.7,0,1.3-0.2,2.1-0.6l0.3,0.8c-0.9,0.4-1.7,0.7-2.5,0.7
					C571.4,546.4,570.8,546.2,570.3,545.9z M573.9,542.4c0-0.7-0.2-1.2-0.6-1.6c-0.4-0.4-0.8-0.6-1.4-0.6c-0.6,0-1.1,0.2-1.5,0.6
					s-0.6,1-0.7,1.7H573.9z"/>
				<path class="st5" d="M577.3,545.8c-0.4-0.4-0.6-0.8-0.6-1.4v-4.1h-1.4v-0.9h1.4v-2h1.1v2h2.1v0.9h-2.1v4c0,0.4,0.1,0.6,0.3,0.9
					c0.2,0.2,0.5,0.3,0.9,0.3c0.2,0,0.5,0,0.9-0.1l0.2,0.9c-0.5,0.1-0.9,0.2-1.3,0.2C578.2,546.4,577.6,546.2,577.3,545.8z"/>
				<path class="st5" d="M580.6,547.8c0.7-0.8,1.2-1.6,1.6-2.6c0.4-1,0.5-2,0.5-3c0-1.1-0.2-2.1-0.5-3c-0.4-1-0.9-1.8-1.6-2.6
					l0.8-0.5c0.8,0.8,1.4,1.8,1.8,2.8c0.4,1.1,0.6,2.2,0.6,3.3c0,1.2-0.2,2.3-0.6,3.3c-0.4,1.1-1,2-1.8,2.9L580.6,547.8z"/>
			</g>
		</g>
		<g>
			<g>
				<path class="st5" d="M692.9,517.7h-2.8v-1h2.8v-2.8h1v2.8h2.8v1h-2.8v2.8h-1V517.7z"/>
				<path class="st5" d="M697.8,520.5l3.7-3.7c0.8-0.8,1.1-1.5,1.1-2.3c0-0.6-0.2-1-0.6-1.4s-0.9-0.5-1.4-0.5
					c-0.4,0-0.7,0.1-1.1,0.2c-0.4,0.1-0.8,0.3-1.2,0.6l-0.4-0.8c1-0.6,2-0.9,3-0.9c0.6,0,1.1,0.1,1.5,0.4s0.8,0.6,1,1
					s0.4,0.9,0.4,1.4c0,0.5-0.1,1-0.3,1.5c-0.2,0.5-0.6,0.9-1,1.4l-3.1,3.1h4.5v0.9h-6V520.5z"/>
				<path class="st5" d="M706.5,516.4c-0.4-0.2-0.6-0.5-0.8-0.9c-0.2-0.4-0.3-0.8-0.3-1.3s0.1-0.9,0.3-1.3c0.2-0.4,0.5-0.7,0.8-0.9
					s0.8-0.3,1.2-0.3s0.8,0.1,1.2,0.3c0.4,0.2,0.6,0.5,0.8,0.9c0.2,0.4,0.3,0.8,0.3,1.3s-0.1,0.9-0.3,1.3c-0.2,0.4-0.5,0.7-0.8,0.9
					c-0.4,0.2-0.8,0.3-1.2,0.3S706.9,516.6,706.5,516.4z M708.8,515.5c0.3-0.3,0.4-0.8,0.4-1.3c0-0.5-0.1-1-0.4-1.3
					s-0.6-0.5-1.1-0.5c-0.4,0-0.8,0.2-1.1,0.5s-0.4,0.8-0.4,1.3c0,0.5,0.1,1,0.4,1.3c0.3,0.3,0.6,0.5,1.1,0.5
					S708.5,515.8,708.8,515.5z M713.9,511.8h0.9l-7.1,9.4h-0.9L713.9,511.8z M712.7,521.1c-0.4-0.2-0.6-0.5-0.8-0.9
					c-0.2-0.4-0.3-0.8-0.3-1.3s0.1-0.9,0.3-1.3c0.2-0.4,0.5-0.7,0.8-0.9c0.4-0.2,0.8-0.3,1.2-0.3c0.4,0,0.8,0.1,1.2,0.3
					s0.6,0.5,0.8,0.9c0.2,0.4,0.3,0.8,0.3,1.3s-0.1,0.9-0.3,1.3c-0.2,0.4-0.5,0.7-0.8,0.9c-0.4,0.2-0.8,0.3-1.2,0.3
					C713.5,521.4,713.1,521.3,712.7,521.1z M715,520.2c0.3-0.3,0.4-0.8,0.4-1.3c0-0.5-0.1-1-0.4-1.3s-0.6-0.5-1.1-0.5
					c-0.4,0-0.8,0.2-1.1,0.5s-0.4,0.8-0.4,1.3c0,0.5,0.1,1,0.4,1.3c0.3,0.3,0.6,0.5,1.1,0.5C714.4,520.7,714.7,520.5,715,520.2z"/>
				<path class="st5" d="M721.8,520.9c-0.5-0.3-0.9-0.7-1.2-1.3s-0.4-1.2-0.4-1.8c0-0.7,0.1-1.3,0.4-1.8s0.7-1,1.2-1.3
					c0.5-0.3,1.1-0.5,1.8-0.5c0.8,0,1.6,0.3,2.4,0.8l-0.5,0.8c-0.6-0.4-1.2-0.6-1.8-0.6c-0.5,0-0.9,0.1-1.3,0.3
					c-0.4,0.2-0.7,0.5-0.9,0.9c-0.2,0.4-0.3,0.9-0.3,1.4c0,0.5,0.1,1,0.3,1.4c0.2,0.4,0.5,0.7,0.9,0.9c0.4,0.2,0.8,0.3,1.3,0.3
					c0.6,0,1.2-0.2,1.8-0.6l0.5,0.8c-0.8,0.5-1.6,0.8-2.4,0.8C722.9,521.4,722.3,521.2,721.8,520.9z"/>
				<path class="st5" d="M728.2,520.9c-0.5-0.3-0.9-0.7-1.2-1.3s-0.4-1.2-0.4-1.8c0-0.7,0.1-1.3,0.4-1.8s0.7-1,1.2-1.3
					c0.5-0.3,1.1-0.5,1.8-0.5c0.7,0,1.3,0.2,1.8,0.5c0.5,0.3,0.9,0.7,1.2,1.3c0.3,0.5,0.4,1.2,0.4,1.8c0,0.7-0.1,1.3-0.4,1.8
					c-0.3,0.5-0.7,1-1.2,1.3c-0.5,0.3-1.1,0.5-1.8,0.5C729.3,521.4,728.7,521.2,728.2,520.9z M731.2,520.2c0.4-0.2,0.6-0.5,0.8-0.9
					s0.3-0.9,0.3-1.4c0-0.5-0.1-1-0.3-1.4c-0.2-0.4-0.5-0.7-0.8-1c-0.4-0.2-0.8-0.3-1.2-0.3s-0.8,0.1-1.2,0.3
					c-0.4,0.2-0.6,0.5-0.8,1c-0.2,0.4-0.3,0.9-0.3,1.4c0,0.5,0.1,1,0.3,1.4c0.2,0.4,0.5,0.7,0.8,0.9c0.4,0.2,0.8,0.3,1.2,0.3
					S730.8,520.4,731.2,520.2z"/>
				<path class="st5" d="M734.8,514.4h0.9l0.1,1.2c0.2-0.4,0.6-0.8,1-1c0.4-0.2,0.9-0.4,1.5-0.4c0.5,0,0.9,0.1,1.3,0.3
					c0.4,0.2,0.7,0.5,0.9,0.9c0.2,0.4,0.3,0.8,0.3,1.3v4.4h-1.1V517c0-0.5-0.2-0.9-0.5-1.3s-0.8-0.5-1.3-0.5c-0.6,0-1.1,0.2-1.5,0.6
					c-0.4,0.4-0.6,0.9-0.6,1.6v3.8h-1.1V514.4z"/>
				<path class="st5" d="M743.7,520.8c-0.4-0.4-0.6-0.8-0.6-1.4v-4.1h-1.4v-0.9h1.4v-2h1.1v2h2.1v0.9h-2.1v4c0,0.4,0.1,0.6,0.3,0.9
					c0.2,0.2,0.5,0.3,0.9,0.3c0.2,0,0.5,0,0.9-0.1l0.2,0.9c-0.5,0.1-0.9,0.2-1.3,0.2C744.6,521.4,744.1,521.2,743.7,520.8z"/>
				<path class="st5" d="M747.7,514.4h0.9l0.1,1.3c0.2-0.4,0.4-0.8,0.8-1s0.8-0.4,1.3-0.4c0.3,0,0.5,0,0.9,0.1l-0.1,0.9
					c-0.3-0.1-0.6-0.1-0.8-0.1c-0.6,0-1,0.2-1.4,0.6c-0.4,0.4-0.5,1-0.5,1.7v3.7h-1.1V514.4z"/>
				<path class="st5" d="M752.7,512.9c-0.1-0.1-0.2-0.3-0.2-0.5s0.1-0.4,0.2-0.5c0.1-0.1,0.3-0.2,0.5-0.2c0.2,0,0.4,0.1,0.5,0.2
					c0.1,0.1,0.2,0.3,0.2,0.5s-0.1,0.4-0.2,0.5c-0.1,0.1-0.3,0.2-0.5,0.2C753.1,513.1,752.9,513,752.7,512.9z M752.7,514.4h1.1v6.8
					h-1.1V514.4z"/>
				<path class="st5" d="M757.7,521.1c-0.4-0.2-0.7-0.5-1-1l-0.1,1.1h-0.9v-9.9h1.1v4.1c0.2-0.4,0.6-0.7,1-0.9
					c0.4-0.2,0.8-0.3,1.3-0.3c0.6,0,1.1,0.2,1.6,0.5c0.5,0.3,0.8,0.7,1.1,1.3c0.3,0.5,0.4,1.2,0.4,1.8c0,0.7-0.1,1.3-0.4,1.8
					c-0.3,0.5-0.6,1-1.1,1.3c-0.5,0.3-1,0.5-1.6,0.5C758.6,521.4,758.1,521.3,757.7,521.1z M759.9,520.1c0.3-0.2,0.6-0.5,0.8-0.9
					c0.2-0.4,0.3-0.9,0.3-1.4c0-0.5-0.1-1-0.3-1.4c-0.2-0.4-0.4-0.7-0.8-0.9s-0.7-0.3-1.1-0.3c-0.6,0-1.1,0.2-1.5,0.6
					s-0.6,0.9-0.6,1.5v1.1c0,0.6,0.2,1.1,0.6,1.5s0.9,0.6,1.5,0.6C759.2,520.5,759.6,520.4,759.9,520.1z"/>
				<path class="st5" d="M764.6,521.1c-0.4-0.2-0.7-0.5-0.9-0.9c-0.2-0.4-0.3-0.8-0.3-1.3v-4.4h1.1v4.3c0,0.5,0.2,0.9,0.5,1.3
					c0.3,0.3,0.8,0.5,1.3,0.5c0.6,0,1.1-0.2,1.5-0.6c0.4-0.4,0.6-0.9,0.6-1.6v-3.8h1.1v6.8h-0.9l-0.1-1.2c-0.2,0.4-0.6,0.8-1,1
					c-0.4,0.2-0.9,0.4-1.5,0.4C765.5,521.4,765,521.3,764.6,521.1z"/>
				<path class="st5" d="M772.6,520.8c-0.4-0.4-0.6-0.8-0.6-1.4v-4.1h-1.4v-0.9h1.4v-2h1.1v2h2.1v0.9h-2.1v4c0,0.4,0.1,0.6,0.3,0.9
					c0.2,0.2,0.5,0.3,0.9,0.3c0.2,0,0.5,0,0.9-0.1l0.2,0.9c-0.5,0.1-0.9,0.2-1.3,0.2C773.5,521.4,772.9,521.2,772.6,520.8z"/>
				<path class="st5" d="M776.6,512.9c-0.1-0.1-0.2-0.3-0.2-0.5s0.1-0.4,0.2-0.5c0.1-0.1,0.3-0.2,0.5-0.2c0.2,0,0.4,0.1,0.5,0.2
					c0.1,0.1,0.2,0.3,0.2,0.5s-0.1,0.4-0.2,0.5c-0.1,0.1-0.3,0.2-0.5,0.2C776.9,513.1,776.7,513,776.6,512.9z M776.6,514.4h1.1v6.8
					h-1.1V514.4z"/>
				<path class="st5" d="M780.7,520.9c-0.5-0.3-0.9-0.7-1.2-1.3s-0.4-1.2-0.4-1.8c0-0.7,0.1-1.3,0.4-1.8s0.7-1,1.2-1.3
					c0.5-0.3,1.1-0.5,1.8-0.5c0.7,0,1.3,0.2,1.8,0.5c0.5,0.3,0.9,0.7,1.2,1.3c0.3,0.5,0.4,1.2,0.4,1.8c0,0.7-0.1,1.3-0.4,1.8
					c-0.3,0.5-0.7,1-1.2,1.3c-0.5,0.3-1.1,0.5-1.8,0.5C781.9,521.4,781.3,521.2,780.7,520.9z M783.7,520.2c0.4-0.2,0.6-0.5,0.8-0.9
					s0.3-0.9,0.3-1.4c0-0.5-0.1-1-0.3-1.4c-0.2-0.4-0.5-0.7-0.8-1c-0.4-0.2-0.8-0.3-1.2-0.3s-0.8,0.1-1.2,0.3
					c-0.4,0.2-0.6,0.5-0.8,1c-0.2,0.4-0.3,0.9-0.3,1.4c0,0.5,0.1,1,0.3,1.4c0.2,0.4,0.5,0.7,0.8,0.9c0.4,0.2,0.8,0.3,1.2,0.3
					S783.4,520.4,783.7,520.2z"/>
				<path class="st5" d="M787.4,514.4h0.9l0.1,1.2c0.2-0.4,0.6-0.8,1-1c0.4-0.2,0.9-0.4,1.5-0.4c0.5,0,0.9,0.1,1.3,0.3
					c0.4,0.2,0.7,0.5,0.9,0.9c0.2,0.4,0.3,0.8,0.3,1.3v4.4h-1.1V517c0-0.5-0.2-0.9-0.5-1.3s-0.8-0.5-1.3-0.5c-0.6,0-1.1,0.2-1.5,0.6
					c-0.4,0.4-0.6,0.9-0.6,1.6v3.8h-1.1V514.4z"/>
				<path class="st5" d="M798.8,520.5c-0.4-1-0.6-2.2-0.6-3.3c0-1.2,0.2-2.3,0.6-3.3c0.4-1,1-2,1.8-2.8l0.8,0.5
					c-0.7,0.8-1.2,1.6-1.6,2.6c-0.4,1-0.5,2-0.5,3c0,1.1,0.2,2.1,0.5,3c0.4,1,0.9,1.8,1.6,2.6l-0.8,0.5
					C799.8,522.5,799.2,521.6,798.8,520.5z"/>
				<path class="st5" d="M801.9,514.4h1.1l1.7,5.5l1.7-5.5h1l1.7,5.5l1.7-5.5h1.1l-2.2,6.8h-1.1l-1.7-5.5l-1.7,5.5h-1.1L801.9,514.4
					z"/>
				<path class="st5" d="M814.1,520.9c-0.5-0.3-1-0.7-1.3-1.3c-0.3-0.5-0.5-1.2-0.5-1.8c0-0.7,0.1-1.3,0.4-1.8s0.7-1,1.2-1.3
					c0.5-0.3,1.1-0.5,1.7-0.5c0.6,0,1.1,0.1,1.6,0.4s0.8,0.7,1.1,1.2c0.3,0.5,0.4,1.1,0.4,1.8c0,0.2,0,0.3,0,0.4h-5.3
					c0,0.7,0.3,1.3,0.8,1.8c0.5,0.4,1.1,0.7,1.8,0.7c0.7,0,1.3-0.2,2.1-0.6l0.3,0.8c-0.9,0.4-1.7,0.7-2.5,0.7
					C815.3,521.4,814.7,521.2,814.1,520.9z M817.7,517.4c0-0.7-0.2-1.2-0.6-1.6c-0.4-0.4-0.8-0.6-1.4-0.6c-0.6,0-1.1,0.2-1.5,0.6
					s-0.6,1-0.7,1.7H817.7z"/>
				<path class="st5" d="M821.1,520.9c-0.5-0.3-0.8-0.7-1.1-1.3c-0.3-0.5-0.4-1.2-0.4-1.8c0-0.7,0.1-1.3,0.4-1.8
					c0.3-0.5,0.6-1,1.1-1.3c0.5-0.3,1-0.5,1.6-0.5c0.5,0,0.9,0.1,1.3,0.3c0.4,0.2,0.7,0.5,0.9,0.9l0.1-1.1h1v6.8h-0.9l-0.1-1.1
					c-0.2,0.4-0.6,0.7-1,1c-0.4,0.2-0.9,0.3-1.4,0.3C822.1,521.4,821.5,521.2,821.1,520.9z M824.4,519.9c0.4-0.4,0.6-0.9,0.6-1.5
					v-1.1c0-0.6-0.2-1.1-0.6-1.5c-0.4-0.4-0.9-0.6-1.4-0.6c-0.4,0-0.8,0.1-1.1,0.3s-0.6,0.5-0.8,0.9c-0.2,0.4-0.3,0.9-0.3,1.4
					c0,0.5,0.1,1,0.3,1.4c0.2,0.4,0.4,0.7,0.8,0.9c0.3,0.2,0.7,0.3,1.1,0.3C823.5,520.5,824,520.3,824.4,519.9z"/>
				<path class="st5" d="M827.9,511.4h1.1v6.4l3.2-3.4h1.3l-3.1,3.2l3.2,3.6h-1.3l-2.6-3l-0.7,0.7v2.2h-1.1V511.4z"/>
				<path class="st5" d="M837.4,514.4h0.9l0.1,1.2c0.2-0.4,0.6-0.8,1-1c0.4-0.2,0.9-0.3,1.4-0.3c0.5,0,1,0.1,1.4,0.4
					c0.4,0.3,0.7,0.6,0.8,1.1c0.3-0.5,0.6-0.8,1-1.1c0.4-0.3,0.9-0.4,1.4-0.4c0.5,0,0.9,0.1,1.3,0.3s0.7,0.5,0.9,0.9
					c0.2,0.4,0.3,0.8,0.3,1.3v4.5h-1.1v-4.4c0-0.5-0.2-0.9-0.5-1.2c-0.3-0.3-0.7-0.5-1.2-0.5c-0.6,0-1,0.2-1.4,0.6
					c-0.4,0.4-0.5,0.9-0.5,1.5v3.9h-1.1v-4.4c0-0.5-0.2-0.9-0.5-1.2c-0.3-0.3-0.7-0.5-1.2-0.5c-0.6,0-1,0.2-1.4,0.6
					c-0.4,0.4-0.5,0.9-0.5,1.5v3.9h-1.1V514.4z"/>
				<path class="st5" d="M850.8,520.9c-0.5-0.3-0.8-0.7-1.1-1.3c-0.3-0.5-0.4-1.2-0.4-1.8c0-0.7,0.1-1.3,0.4-1.8
					c0.3-0.5,0.6-1,1.1-1.3c0.5-0.3,1-0.5,1.6-0.5c0.5,0,0.9,0.1,1.3,0.3c0.4,0.2,0.7,0.5,0.9,0.9l0.1-1.1h1v6.8h-0.9l-0.1-1.1
					c-0.2,0.4-0.6,0.7-1,1c-0.4,0.2-0.9,0.3-1.4,0.3C851.8,521.4,851.2,521.2,850.8,520.9z M854.1,519.9c0.4-0.4,0.6-0.9,0.6-1.5
					v-1.1c0-0.6-0.2-1.1-0.6-1.5c-0.4-0.4-0.9-0.6-1.4-0.6c-0.4,0-0.8,0.1-1.1,0.3s-0.6,0.5-0.8,0.9c-0.2,0.4-0.3,0.9-0.3,1.4
					c0,0.5,0.1,1,0.3,1.4c0.2,0.4,0.4,0.7,0.8,0.9c0.3,0.2,0.7,0.3,1.1,0.3C853.2,520.5,853.7,520.3,854.1,519.9z"/>
				<path class="st5" d="M857.6,514.4h0.9l0.1,1.3c0.2-0.4,0.4-0.8,0.8-1s0.8-0.4,1.3-0.4c0.3,0,0.5,0,0.9,0.1l-0.1,0.9
					c-0.3-0.1-0.6-0.1-0.8-0.1c-0.6,0-1,0.2-1.4,0.6c-0.4,0.4-0.5,1-0.5,1.7v3.7h-1.1V514.4z"/>
				<path class="st5" d="M862.6,511.4h1.1v6.4l3.2-3.4h1.3l-3.1,3.2l3.2,3.6H867l-2.6-3l-0.7,0.7v2.2h-1.1V511.4z"/>
				<path class="st5" d="M870.2,520.9c-0.5-0.3-1-0.7-1.3-1.3c-0.3-0.5-0.5-1.2-0.5-1.8c0-0.7,0.1-1.3,0.4-1.8s0.7-1,1.2-1.3
					c0.5-0.3,1.1-0.5,1.7-0.5c0.6,0,1.1,0.1,1.6,0.4s0.8,0.7,1.1,1.2c0.3,0.5,0.4,1.1,0.4,1.8c0,0.2,0,0.3,0,0.4h-5.3
					c0,0.7,0.3,1.3,0.8,1.8c0.5,0.4,1.1,0.7,1.8,0.7c0.7,0,1.3-0.2,2.1-0.6l0.3,0.8c-0.9,0.4-1.7,0.7-2.5,0.7
					C871.4,521.4,870.8,521.2,870.2,520.9z M873.8,517.4c0-0.7-0.2-1.2-0.6-1.6c-0.4-0.4-0.8-0.6-1.4-0.6c-0.6,0-1.1,0.2-1.5,0.6
					s-0.6,1-0.7,1.7H873.8z"/>
				<path class="st5" d="M877.3,520.8c-0.4-0.4-0.6-0.8-0.6-1.4v-4.1h-1.4v-0.9h1.4v-2h1.1v2h2.1v0.9h-2.1v4c0,0.4,0.1,0.6,0.3,0.9
					c0.2,0.2,0.5,0.3,0.9,0.3c0.2,0,0.5,0,0.9-0.1l0.2,0.9c-0.5,0.1-0.9,0.2-1.3,0.2C878.1,521.4,877.6,521.2,877.3,520.8z"/>
				<path class="st5" d="M880.6,522.8c0.7-0.8,1.2-1.6,1.6-2.6c0.4-1,0.5-2,0.5-3c0-1.1-0.2-2.1-0.5-3c-0.4-1-0.9-1.8-1.6-2.6
					l0.8-0.5c0.8,0.8,1.4,1.8,1.8,2.8c0.4,1.1,0.6,2.2,0.6,3.3c0,1.2-0.2,2.3-0.6,3.3c-0.4,1.1-1,2-1.8,2.9L880.6,522.8z"/>
			</g>
		</g>
		<g>
			<g>
				<path class="st5" d="M692.9,542.7h-2.8v-1h2.8v-2.8h1v2.8h2.8v1h-2.8v2.8h-1V542.7z"/>
				<path class="st5" d="M697.8,545.5l3.7-3.7c0.8-0.8,1.1-1.5,1.1-2.3c0-0.6-0.2-1-0.6-1.4s-0.9-0.5-1.4-0.5
					c-0.4,0-0.7,0.1-1.1,0.2c-0.4,0.1-0.8,0.3-1.2,0.6l-0.4-0.8c1-0.6,2-0.9,3-0.9c0.6,0,1.1,0.1,1.5,0.4s0.8,0.6,1,1
					s0.4,0.9,0.4,1.4c0,0.5-0.1,1-0.3,1.5c-0.2,0.5-0.6,0.9-1,1.4l-3.1,3.1h4.5v0.9h-6V545.5z"/>
				<path class="st5" d="M706.5,541.4c-0.4-0.2-0.6-0.5-0.8-0.9c-0.2-0.4-0.3-0.8-0.3-1.3s0.1-0.9,0.3-1.3c0.2-0.4,0.5-0.7,0.8-0.9
					s0.8-0.3,1.2-0.3s0.8,0.1,1.2,0.3c0.4,0.2,0.6,0.5,0.8,0.9c0.2,0.4,0.3,0.8,0.3,1.3s-0.1,0.9-0.3,1.3c-0.2,0.4-0.5,0.7-0.8,0.9
					c-0.4,0.2-0.8,0.3-1.2,0.3S706.9,541.6,706.5,541.4z M708.8,540.5c0.3-0.3,0.4-0.8,0.4-1.3c0-0.5-0.1-1-0.4-1.3
					s-0.6-0.5-1.1-0.5c-0.4,0-0.8,0.2-1.1,0.5s-0.4,0.8-0.4,1.3c0,0.5,0.1,1,0.4,1.3c0.3,0.3,0.6,0.5,1.1,0.5
					S708.5,540.8,708.8,540.5z M713.9,536.8h0.9l-7.1,9.4h-0.9L713.9,536.8z M712.7,546.1c-0.4-0.2-0.6-0.5-0.8-0.9
					c-0.2-0.4-0.3-0.8-0.3-1.3s0.1-0.9,0.3-1.3c0.2-0.4,0.5-0.7,0.8-0.9c0.4-0.2,0.8-0.3,1.2-0.3c0.4,0,0.8,0.1,1.2,0.3
					s0.6,0.5,0.8,0.9c0.2,0.4,0.3,0.8,0.3,1.3s-0.1,0.9-0.3,1.3c-0.2,0.4-0.5,0.7-0.8,0.9c-0.4,0.2-0.8,0.3-1.2,0.3
					C713.5,546.4,713.1,546.3,712.7,546.1z M715,545.2c0.3-0.3,0.4-0.8,0.4-1.3c0-0.5-0.1-1-0.4-1.3s-0.6-0.5-1.1-0.5
					c-0.4,0-0.8,0.2-1.1,0.5s-0.4,0.8-0.4,1.3c0,0.5,0.1,1,0.4,1.3c0.3,0.3,0.6,0.5,1.1,0.5C714.4,545.7,714.7,545.5,715,545.2z"/>
				<path class="st5" d="M721.8,545.9c-0.5-0.3-0.9-0.7-1.2-1.3s-0.4-1.2-0.4-1.8c0-0.7,0.1-1.3,0.4-1.8s0.7-1,1.2-1.3
					c0.5-0.3,1.1-0.5,1.8-0.5c0.8,0,1.6,0.3,2.4,0.8l-0.5,0.8c-0.6-0.4-1.2-0.6-1.8-0.6c-0.5,0-0.9,0.1-1.3,0.3
					c-0.4,0.2-0.7,0.5-0.9,0.9c-0.2,0.4-0.3,0.9-0.3,1.4c0,0.5,0.1,1,0.3,1.4c0.2,0.4,0.5,0.7,0.9,0.9c0.4,0.2,0.8,0.3,1.3,0.3
					c0.6,0,1.2-0.2,1.8-0.6l0.5,0.8c-0.8,0.5-1.6,0.8-2.4,0.8C722.9,546.4,722.3,546.2,721.8,545.9z"/>
				<path class="st5" d="M728.2,545.9c-0.5-0.3-0.9-0.7-1.2-1.3s-0.4-1.2-0.4-1.8c0-0.7,0.1-1.3,0.4-1.8s0.7-1,1.2-1.3
					c0.5-0.3,1.1-0.5,1.8-0.5c0.7,0,1.3,0.2,1.8,0.5c0.5,0.3,0.9,0.7,1.2,1.3c0.3,0.5,0.4,1.2,0.4,1.8c0,0.7-0.1,1.3-0.4,1.8
					c-0.3,0.5-0.7,1-1.2,1.3c-0.5,0.3-1.1,0.5-1.8,0.5C729.3,546.4,728.7,546.2,728.2,545.9z M731.2,545.2c0.4-0.2,0.6-0.5,0.8-0.9
					s0.3-0.9,0.3-1.4c0-0.5-0.1-1-0.3-1.4c-0.2-0.4-0.5-0.7-0.8-1c-0.4-0.2-0.8-0.3-1.2-0.3s-0.8,0.1-1.2,0.3
					c-0.4,0.2-0.6,0.5-0.8,1c-0.2,0.4-0.3,0.9-0.3,1.4c0,0.5,0.1,1,0.3,1.4c0.2,0.4,0.5,0.7,0.8,0.9c0.4,0.2,0.8,0.3,1.2,0.3
					S730.8,545.4,731.2,545.2z"/>
				<path class="st5" d="M734.8,539.4h0.9l0.1,1.2c0.2-0.4,0.6-0.8,1-1c0.4-0.2,0.9-0.4,1.5-0.4c0.5,0,0.9,0.1,1.3,0.3
					c0.4,0.2,0.7,0.5,0.9,0.9c0.2,0.4,0.3,0.8,0.3,1.3v4.4h-1.1V542c0-0.5-0.2-0.9-0.5-1.3s-0.8-0.5-1.3-0.5c-0.6,0-1.1,0.2-1.5,0.6
					c-0.4,0.4-0.6,0.9-0.6,1.6v3.8h-1.1V539.4z"/>
				<path class="st5" d="M743.7,545.8c-0.4-0.4-0.6-0.8-0.6-1.4v-4.1h-1.4v-0.9h1.4v-2h1.1v2h2.1v0.9h-2.1v4c0,0.4,0.1,0.6,0.3,0.9
					c0.2,0.2,0.5,0.3,0.9,0.3c0.2,0,0.5,0,0.9-0.1l0.2,0.9c-0.5,0.1-0.9,0.2-1.3,0.2C744.6,546.4,744.1,546.2,743.7,545.8z"/>
				<path class="st5" d="M747.7,539.4h0.9l0.1,1.3c0.2-0.4,0.4-0.8,0.8-1s0.8-0.4,1.3-0.4c0.3,0,0.5,0,0.9,0.1l-0.1,0.9
					c-0.3-0.1-0.6-0.1-0.8-0.1c-0.6,0-1,0.2-1.4,0.6c-0.4,0.4-0.5,1-0.5,1.7v3.7h-1.1V539.4z"/>
				<path class="st5" d="M752.7,537.9c-0.1-0.1-0.2-0.3-0.2-0.5s0.1-0.4,0.2-0.5c0.1-0.1,0.3-0.2,0.5-0.2c0.2,0,0.4,0.1,0.5,0.2
					c0.1,0.1,0.2,0.3,0.2,0.5s-0.1,0.4-0.2,0.5c-0.1,0.1-0.3,0.2-0.5,0.2C753.1,538.1,752.9,538,752.7,537.9z M752.7,539.4h1.1v6.8
					h-1.1V539.4z"/>
				<path class="st5" d="M757.7,546.1c-0.4-0.2-0.7-0.5-1-1l-0.1,1.1h-0.9v-9.9h1.1v4.1c0.2-0.4,0.6-0.7,1-0.9
					c0.4-0.2,0.8-0.3,1.3-0.3c0.6,0,1.1,0.2,1.6,0.5c0.5,0.3,0.8,0.7,1.1,1.3c0.3,0.5,0.4,1.2,0.4,1.8c0,0.7-0.1,1.3-0.4,1.8
					c-0.3,0.5-0.6,1-1.1,1.3c-0.5,0.3-1,0.5-1.6,0.5C758.6,546.4,758.1,546.3,757.7,546.1z M759.9,545.1c0.3-0.2,0.6-0.5,0.8-0.9
					c0.2-0.4,0.3-0.9,0.3-1.4c0-0.5-0.1-1-0.3-1.4c-0.2-0.4-0.4-0.7-0.8-0.9s-0.7-0.3-1.1-0.3c-0.6,0-1.1,0.2-1.5,0.6
					s-0.6,0.9-0.6,1.5v1.1c0,0.6,0.2,1.1,0.6,1.5s0.9,0.6,1.5,0.6C759.2,545.5,759.6,545.4,759.9,545.1z"/>
				<path class="st5" d="M764.6,546.1c-0.4-0.2-0.7-0.5-0.9-0.9c-0.2-0.4-0.3-0.8-0.3-1.3v-4.4h1.1v4.3c0,0.5,0.2,0.9,0.5,1.3
					c0.3,0.3,0.8,0.5,1.3,0.5c0.6,0,1.1-0.2,1.5-0.6c0.4-0.4,0.6-0.9,0.6-1.6v-3.8h1.1v6.8h-0.9l-0.1-1.2c-0.2,0.4-0.6,0.8-1,1
					c-0.4,0.2-0.9,0.4-1.5,0.4C765.5,546.4,765,546.3,764.6,546.1z"/>
				<path class="st5" d="M772.6,545.8c-0.4-0.4-0.6-0.8-0.6-1.4v-4.1h-1.4v-0.9h1.4v-2h1.1v2h2.1v0.9h-2.1v4c0,0.4,0.1,0.6,0.3,0.9
					c0.2,0.2,0.5,0.3,0.9,0.3c0.2,0,0.5,0,0.9-0.1l0.2,0.9c-0.5,0.1-0.9,0.2-1.3,0.2C773.5,546.4,772.9,546.2,772.6,545.8z"/>
				<path class="st5" d="M776.6,537.9c-0.1-0.1-0.2-0.3-0.2-0.5s0.1-0.4,0.2-0.5c0.1-0.1,0.3-0.2,0.5-0.2c0.2,0,0.4,0.1,0.5,0.2
					c0.1,0.1,0.2,0.3,0.2,0.5s-0.1,0.4-0.2,0.5c-0.1,0.1-0.3,0.2-0.5,0.2C776.9,538.1,776.7,538,776.6,537.9z M776.6,539.4h1.1v6.8
					h-1.1V539.4z"/>
				<path class="st5" d="M780.7,545.9c-0.5-0.3-0.9-0.7-1.2-1.3s-0.4-1.2-0.4-1.8c0-0.7,0.1-1.3,0.4-1.8s0.7-1,1.2-1.3
					c0.5-0.3,1.1-0.5,1.8-0.5c0.7,0,1.3,0.2,1.8,0.5c0.5,0.3,0.9,0.7,1.2,1.3c0.3,0.5,0.4,1.2,0.4,1.8c0,0.7-0.1,1.3-0.4,1.8
					c-0.3,0.5-0.7,1-1.2,1.3c-0.5,0.3-1.1,0.5-1.8,0.5C781.9,546.4,781.3,546.2,780.7,545.9z M783.7,545.2c0.4-0.2,0.6-0.5,0.8-0.9
					s0.3-0.9,0.3-1.4c0-0.5-0.1-1-0.3-1.4c-0.2-0.4-0.5-0.7-0.8-1c-0.4-0.2-0.8-0.3-1.2-0.3s-0.8,0.1-1.2,0.3
					c-0.4,0.2-0.6,0.5-0.8,1c-0.2,0.4-0.3,0.9-0.3,1.4c0,0.5,0.1,1,0.3,1.4c0.2,0.4,0.5,0.7,0.8,0.9c0.4,0.2,0.8,0.3,1.2,0.3
					S783.4,545.4,783.7,545.2z"/>
				<path class="st5" d="M787.4,539.4h0.9l0.1,1.2c0.2-0.4,0.6-0.8,1-1c0.4-0.2,0.9-0.4,1.5-0.4c0.5,0,0.9,0.1,1.3,0.3
					c0.4,0.2,0.7,0.5,0.9,0.9c0.2,0.4,0.3,0.8,0.3,1.3v4.4h-1.1V542c0-0.5-0.2-0.9-0.5-1.3s-0.8-0.5-1.3-0.5c-0.6,0-1.1,0.2-1.5,0.6
					c-0.4,0.4-0.6,0.9-0.6,1.6v3.8h-1.1V539.4z"/>
				<path class="st5" d="M798.8,545.5c-0.4-1-0.6-2.2-0.6-3.3c0-1.2,0.2-2.3,0.6-3.3c0.4-1,1-2,1.8-2.8l0.8,0.5
					c-0.7,0.8-1.2,1.6-1.6,2.6c-0.4,1-0.5,2-0.5,3c0,1.1,0.2,2.1,0.5,3c0.4,1,0.9,1.8,1.6,2.6l-0.8,0.5
					C799.8,547.5,799.2,546.6,798.8,545.5z"/>
				<path class="st5" d="M802.1,545.9l0.3-0.8c0.8,0.3,1.5,0.5,2.2,0.5c0.5,0,0.8-0.1,1.1-0.3s0.4-0.5,0.4-0.8
					c0-0.2-0.1-0.4-0.2-0.6c-0.1-0.1-0.3-0.3-0.5-0.4c-0.2-0.1-0.5-0.2-0.9-0.3c-0.5-0.1-0.9-0.3-1.2-0.4s-0.6-0.3-0.8-0.6
					c-0.2-0.3-0.3-0.6-0.3-1.1c0-0.4,0.1-0.7,0.3-1s0.5-0.5,0.9-0.7c0.4-0.2,0.8-0.2,1.3-0.2c0.7,0,1.5,0.2,2.3,0.5l-0.3,0.8
					c-0.7-0.3-1.4-0.4-2-0.4c-0.4,0-0.8,0.1-1.1,0.3c-0.3,0.2-0.4,0.4-0.4,0.8c0,0.3,0.1,0.6,0.4,0.7c0.3,0.2,0.7,0.3,1.2,0.5
					c0.5,0.1,0.9,0.3,1.2,0.4s0.6,0.3,0.8,0.6c0.2,0.3,0.3,0.6,0.3,1.1c0,0.6-0.2,1-0.7,1.4s-1.1,0.5-1.8,0.5
					C803.8,546.4,803,546.2,802.1,545.9z"/>
				<path class="st5" d="M809.6,545.8c-0.4-0.4-0.6-0.8-0.6-1.4v-4.1h-1.4v-0.9h1.4v-2h1.1v2h2.1v0.9h-2.1v4c0,0.4,0.1,0.6,0.3,0.9
					c0.2,0.2,0.5,0.3,0.9,0.3c0.2,0,0.5,0,0.9-0.1l0.2,0.9c-0.5,0.1-0.9,0.2-1.3,0.2C810.5,546.4,809.9,546.2,809.6,545.8z"/>
				<path class="st5" d="M813.6,539.4h0.9l0.1,1.3c0.2-0.4,0.4-0.8,0.8-1s0.8-0.4,1.3-0.4c0.3,0,0.5,0,0.9,0.1l-0.1,0.9
					c-0.3-0.1-0.6-0.1-0.8-0.1c-0.6,0-1,0.2-1.4,0.6c-0.4,0.4-0.5,1-0.5,1.7v3.7h-1.1V539.4z"/>
				<path class="st5" d="M819.6,545.9c-0.5-0.3-0.9-0.7-1.2-1.3s-0.4-1.2-0.4-1.8c0-0.7,0.1-1.3,0.4-1.8s0.7-1,1.2-1.3
					c0.5-0.3,1.1-0.5,1.8-0.5c0.7,0,1.3,0.2,1.8,0.5c0.5,0.3,0.9,0.7,1.2,1.3c0.3,0.5,0.4,1.2,0.4,1.8c0,0.7-0.1,1.3-0.4,1.8
					c-0.3,0.5-0.7,1-1.2,1.3c-0.5,0.3-1.1,0.5-1.8,0.5C820.7,546.4,820.1,546.2,819.6,545.9z M822.6,545.2c0.4-0.2,0.6-0.5,0.8-0.9
					s0.3-0.9,0.3-1.4c0-0.5-0.1-1-0.3-1.4c-0.2-0.4-0.5-0.7-0.8-1c-0.4-0.2-0.8-0.3-1.2-0.3s-0.8,0.1-1.2,0.3
					c-0.4,0.2-0.6,0.5-0.8,1c-0.2,0.4-0.3,0.9-0.3,1.4c0,0.5,0.1,1,0.3,1.4c0.2,0.4,0.5,0.7,0.8,0.9c0.4,0.2,0.8,0.3,1.2,0.3
					S822.3,545.4,822.6,545.2z"/>
				<path class="st5" d="M826.2,539.4h0.9l0.1,1.2c0.2-0.4,0.6-0.8,1-1c0.4-0.2,0.9-0.4,1.5-0.4c0.5,0,0.9,0.1,1.3,0.3
					c0.4,0.2,0.7,0.5,0.9,0.9c0.2,0.4,0.3,0.8,0.3,1.3v4.4h-1.1V542c0-0.5-0.2-0.9-0.5-1.3s-0.8-0.5-1.3-0.5c-0.6,0-1.1,0.2-1.5,0.6
					c-0.4,0.4-0.6,0.9-0.6,1.6v3.8h-1.1V539.4z"/>
				<path class="st5" d="M834,548.7l0.3-0.8c0.8,0.4,1.6,0.5,2.3,0.5c0.7,0,1.2-0.2,1.7-0.6c0.4-0.4,0.7-0.9,0.7-1.5v-1.2
					c-0.2,0.4-0.6,0.7-0.9,0.9c-0.4,0.2-0.8,0.3-1.3,0.3c-0.6,0-1.1-0.2-1.6-0.5c-0.5-0.3-0.8-0.7-1.1-1.3c-0.3-0.5-0.4-1.2-0.4-1.8
					c0-0.7,0.1-1.3,0.4-1.8c0.3-0.5,0.6-1,1.1-1.3c0.5-0.3,1-0.5,1.6-0.5c0.5,0,1,0.1,1.4,0.3c0.4,0.2,0.7,0.5,1,1l0.1-1.1h0.9v6.9
					c0,0.6-0.1,1.1-0.4,1.5c-0.3,0.4-0.7,0.8-1.2,1c-0.5,0.3-1.1,0.4-1.7,0.4C835.8,549.3,834.9,549.1,834,548.7z M838.4,544.9
					c0.4-0.4,0.6-0.9,0.6-1.5v-1.1c0-0.6-0.2-1.1-0.6-1.5c-0.4-0.4-0.9-0.6-1.4-0.6c-0.4,0-0.8,0.1-1.1,0.3s-0.6,0.5-0.8,0.9
					c-0.2,0.4-0.3,0.9-0.3,1.4c0,0.5,0.1,1,0.3,1.4c0.2,0.4,0.4,0.7,0.8,0.9c0.3,0.2,0.7,0.3,1.1,0.3
					C837.5,545.5,838,545.3,838.4,544.9z"/>
				<path class="st5" d="M844.9,539.4h0.9l0.1,1.2c0.2-0.4,0.6-0.8,1-1c0.4-0.2,0.9-0.3,1.4-0.3c0.5,0,1,0.1,1.4,0.4
					c0.4,0.3,0.7,0.6,0.8,1.1c0.3-0.5,0.6-0.8,1-1.1c0.4-0.3,0.9-0.4,1.4-0.4c0.5,0,0.9,0.1,1.3,0.3s0.7,0.5,0.9,0.9
					c0.2,0.4,0.3,0.8,0.3,1.3v4.5h-1.1v-4.4c0-0.5-0.2-0.9-0.5-1.2c-0.3-0.3-0.7-0.5-1.2-0.5c-0.6,0-1,0.2-1.4,0.6
					c-0.4,0.4-0.5,0.9-0.5,1.5v3.9h-1.1v-4.4c0-0.5-0.2-0.9-0.5-1.2c-0.3-0.3-0.7-0.5-1.2-0.5c-0.6,0-1,0.2-1.4,0.6
					c-0.4,0.4-0.5,0.9-0.5,1.5v3.9h-1.1V539.4z"/>
				<path class="st5" d="M858.2,545.9c-0.5-0.3-0.8-0.7-1.1-1.3c-0.3-0.5-0.4-1.2-0.4-1.8c0-0.7,0.1-1.3,0.4-1.8
					c0.3-0.5,0.6-1,1.1-1.3c0.5-0.3,1-0.5,1.6-0.5c0.5,0,0.9,0.1,1.3,0.3c0.4,0.2,0.7,0.5,0.9,0.9l0.1-1.1h1v6.8h-0.9l-0.1-1.1
					c-0.2,0.4-0.6,0.7-1,1c-0.4,0.2-0.9,0.3-1.4,0.3C859.2,546.4,858.7,546.2,858.2,545.9z M861.5,544.9c0.4-0.4,0.6-0.9,0.6-1.5
					v-1.1c0-0.6-0.2-1.1-0.6-1.5c-0.4-0.4-0.9-0.6-1.4-0.6c-0.4,0-0.8,0.1-1.1,0.3s-0.6,0.5-0.8,0.9c-0.2,0.4-0.3,0.9-0.3,1.4
					c0,0.5,0.1,1,0.3,1.4c0.2,0.4,0.4,0.7,0.8,0.9c0.3,0.2,0.7,0.3,1.1,0.3C860.6,545.5,861.1,545.3,861.5,544.9z"/>
				<path class="st5" d="M865,539.4h0.9l0.1,1.3c0.2-0.4,0.4-0.8,0.8-1s0.8-0.4,1.3-0.4c0.3,0,0.5,0,0.9,0.1l-0.1,0.9
					c-0.3-0.1-0.6-0.1-0.8-0.1c-0.6,0-1,0.2-1.4,0.6c-0.4,0.4-0.5,1-0.5,1.7v3.7H865V539.4z"/>
				<path class="st5" d="M870,536.4h1.1v6.4l3.2-3.4h1.3l-3.1,3.2l3.2,3.6h-1.3l-2.6-3l-0.7,0.7v2.2H870V536.4z"/>
				<path class="st5" d="M877.7,545.9c-0.5-0.3-1-0.7-1.3-1.3c-0.3-0.5-0.5-1.2-0.5-1.8c0-0.7,0.1-1.3,0.4-1.8s0.7-1,1.2-1.3
					c0.5-0.3,1.1-0.5,1.7-0.5c0.6,0,1.1,0.1,1.6,0.4s0.8,0.7,1.1,1.2c0.3,0.5,0.4,1.1,0.4,1.8c0,0.2,0,0.3,0,0.4h-5.3
					c0,0.7,0.3,1.3,0.8,1.8c0.5,0.4,1.1,0.7,1.8,0.7c0.7,0,1.3-0.2,2.1-0.6l0.3,0.8c-0.9,0.4-1.7,0.7-2.5,0.7
					C878.8,546.4,878.2,546.2,877.7,545.9z M881.3,542.4c0-0.7-0.2-1.2-0.6-1.6c-0.4-0.4-0.8-0.6-1.4-0.6c-0.6,0-1.1,0.2-1.5,0.6
					s-0.6,1-0.7,1.7H881.3z"/>
				<path class="st5" d="M884.7,545.8c-0.4-0.4-0.6-0.8-0.6-1.4v-4.1h-1.4v-0.9h1.4v-2h1.1v2h2.1v0.9h-2.1v4c0,0.4,0.1,0.6,0.3,0.9
					c0.2,0.2,0.5,0.3,0.9,0.3c0.2,0,0.5,0,0.9-0.1l0.2,0.9c-0.5,0.1-0.9,0.2-1.3,0.2C885.6,546.4,885.1,546.2,884.7,545.8z"/>
				<path class="st5" d="M888.1,547.8c0.7-0.8,1.2-1.6,1.6-2.6c0.4-1,0.5-2,0.5-3c0-1.1-0.2-2.1-0.5-3c-0.4-1-0.9-1.8-1.6-2.6
					l0.8-0.5c0.8,0.8,1.4,1.8,1.8,2.8c0.4,1.1,0.6,2.2,0.6,3.3c0,1.2-0.2,2.3-0.6,3.3c-0.4,1.1-1,2-1.8,2.9L888.1,547.8z"/>
			</g>
		</g>
	</g>
	<g>
		<g>
			<path class="st5" d="M432.9,446.3h1.1l3.9,9.4h-1.2l-1-2.6h-4.4l-1,2.6H429L432.9,446.3z M435.3,452.2l-1.9-4.6l-1.9,4.6H435.3z"
				/>
			<path class="st5" d="M438.8,458.2l0.3-0.8c0.8,0.4,1.6,0.5,2.3,0.5c0.7,0,1.2-0.2,1.7-0.6c0.4-0.4,0.7-0.9,0.7-1.5v-1.2
				c-0.2,0.4-0.6,0.7-0.9,0.9c-0.4,0.2-0.8,0.3-1.3,0.3c-0.6,0-1.1-0.2-1.6-0.5c-0.5-0.3-0.8-0.7-1.1-1.3c-0.3-0.5-0.4-1.2-0.4-1.8
				c0-0.7,0.1-1.3,0.4-1.8c0.3-0.5,0.6-1,1.1-1.3c0.5-0.3,1-0.5,1.6-0.5c0.5,0,1,0.1,1.4,0.3c0.4,0.2,0.7,0.5,1,1l0.1-1.1h0.9v6.9
				c0,0.6-0.1,1.1-0.4,1.5c-0.3,0.4-0.7,0.8-1.2,1c-0.5,0.3-1.1,0.4-1.7,0.4C440.6,458.8,439.7,458.6,438.8,458.2z M443.2,454.4
				c0.4-0.4,0.6-0.9,0.6-1.5v-1.1c0-0.6-0.2-1.1-0.6-1.5c-0.4-0.4-0.9-0.6-1.4-0.6c-0.4,0-0.8,0.1-1.1,0.3s-0.6,0.5-0.8,0.9
				c-0.2,0.4-0.3,0.9-0.3,1.4c0,0.5,0.1,1,0.3,1.4c0.2,0.4,0.4,0.7,0.8,0.9c0.3,0.2,0.7,0.3,1.1,0.3
				C442.3,455,442.8,454.8,443.2,454.4z"/>
			<path class="st5" d="M447.9,455.4c-0.5-0.3-1-0.7-1.3-1.3c-0.3-0.5-0.5-1.2-0.5-1.8c0-0.7,0.1-1.3,0.4-1.8s0.7-1,1.2-1.3
				c0.5-0.3,1.1-0.5,1.7-0.5c0.6,0,1.1,0.1,1.6,0.4s0.8,0.7,1.1,1.2c0.3,0.5,0.4,1.1,0.4,1.8c0,0.2,0,0.3,0,0.4h-5.3
				c0,0.7,0.3,1.3,0.8,1.8c0.5,0.4,1.1,0.7,1.8,0.7c0.7,0,1.3-0.2,2.1-0.6l0.3,0.8c-0.9,0.4-1.7,0.7-2.5,0.7
				C449.1,455.9,448.5,455.7,447.9,455.4z M451.5,451.9c0-0.7-0.2-1.2-0.6-1.6c-0.4-0.4-0.8-0.6-1.4-0.6c-0.6,0-1.1,0.2-1.5,0.6
				s-0.6,1-0.7,1.7H451.5z"/>
		</g>
	</g>
	<g>
		<g>
			<path class="st5" d="M426.8,255.2c-0.7-0.4-1.3-1-1.7-1.7c-0.4-0.7-0.6-1.6-0.6-2.5c0-0.9,0.2-1.8,0.6-2.5s1-1.3,1.7-1.7
				c0.7-0.4,1.5-0.6,2.5-0.6c1.1,0,2.2,0.3,3.3,0.9l-0.4,0.8c-1-0.6-1.9-0.8-2.7-0.8c-0.7,0-1.4,0.2-1.9,0.5c-0.6,0.3-1,0.8-1.3,1.4
				c-0.3,0.6-0.5,1.3-0.5,2.1c0,0.8,0.2,1.4,0.5,2.1c0.3,0.6,0.8,1.1,1.3,1.4s1.2,0.5,2,0.5c0.8,0,1.5-0.2,2.2-0.5v-2.8h-2.4v-0.9
				h3.4v4.3c-1.1,0.5-2.2,0.8-3.3,0.8C428.4,255.9,427.5,255.7,426.8,255.2z"/>
			<path class="st5" d="M435.6,255.4c-0.5-0.3-0.9-0.7-1.2-1.3s-0.4-1.2-0.4-1.8c0-0.7,0.1-1.3,0.4-1.8s0.7-1,1.2-1.3
				c0.5-0.3,1.1-0.5,1.8-0.5c0.7,0,1.3,0.2,1.8,0.5c0.5,0.3,0.9,0.7,1.2,1.3c0.3,0.5,0.4,1.2,0.4,1.8c0,0.7-0.1,1.3-0.4,1.8
				c-0.3,0.5-0.7,1-1.2,1.3c-0.5,0.3-1.1,0.5-1.8,0.5C436.7,255.9,436.1,255.7,435.6,255.4z M438.6,254.6c0.4-0.2,0.6-0.5,0.8-0.9
				s0.3-0.9,0.3-1.4c0-0.5-0.1-1-0.3-1.4c-0.2-0.4-0.5-0.7-0.8-1c-0.4-0.2-0.8-0.3-1.2-0.3s-0.8,0.1-1.2,0.3c-0.4,0.2-0.6,0.5-0.8,1
				c-0.2,0.4-0.3,0.9-0.3,1.4c0,0.5,0.1,1,0.3,1.4c0.2,0.4,0.5,0.7,0.8,0.9c0.4,0.2,0.8,0.3,1.2,0.3S438.2,254.9,438.6,254.6z"/>
			<path class="st5" d="M443.2,255.4c-0.5-0.3-0.8-0.7-1.1-1.3c-0.3-0.5-0.4-1.2-0.4-1.8c0-0.7,0.1-1.3,0.4-1.8
				c0.3-0.5,0.6-1,1.1-1.3c0.5-0.3,1-0.5,1.6-0.5c0.5,0,0.9,0.1,1.3,0.3c0.4,0.2,0.7,0.5,0.9,0.9l0.1-1.1h1v6.8h-0.9l-0.1-1.1
				c-0.2,0.4-0.6,0.7-1,1c-0.4,0.2-0.9,0.3-1.4,0.3C444.2,255.9,443.7,255.7,443.2,255.4z M446.5,254.4c0.4-0.4,0.6-0.9,0.6-1.5
				v-1.1c0-0.6-0.2-1.1-0.6-1.5c-0.4-0.4-0.9-0.6-1.4-0.6c-0.4,0-0.8,0.1-1.1,0.3s-0.6,0.5-0.8,0.9c-0.2,0.4-0.3,0.9-0.3,1.4
				c0,0.5,0.1,1,0.3,1.4c0.2,0.4,0.4,0.7,0.8,0.9c0.3,0.2,0.7,0.3,1.1,0.3C445.6,255,446.1,254.8,446.5,254.4z"/>
			<path class="st5" d="M450.5,255.4c-0.3-0.3-0.5-0.7-0.5-1.2v-8.4h1.1v8.3c0,0.3,0.1,0.5,0.2,0.6s0.4,0.2,0.6,0.2
				c0.2,0,0.4,0,0.7-0.1l0.1,0.9c-0.4,0.1-0.7,0.1-1,0.1C451.2,255.9,450.8,255.7,450.5,255.4z"/>
		</g>
	</g>
	<g>
		<path class="st4" d="M843.8,256.7c-1-0.1-2-0.3-3.1-0.8l0.3-1.1c1,0.4,1.9,0.7,2.8,0.8v-3.8c-0.6-0.2-1.2-0.4-1.6-0.6
			c-0.4-0.2-0.8-0.5-1.1-0.9c-0.3-0.4-0.4-0.9-0.4-1.5c0-0.8,0.3-1.4,0.8-1.9c0.6-0.5,1.3-0.8,2.2-0.9v-3h1.2v3
			c0.8,0.1,1.7,0.3,2.8,0.7l-0.3,1.2c-0.9-0.4-1.8-0.6-2.4-0.7v3.6c0.6,0.2,1.2,0.4,1.6,0.6c0.4,0.2,0.8,0.5,1.1,0.9
			c0.3,0.4,0.4,0.9,0.4,1.6c0,0.8-0.3,1.4-0.8,2c-0.6,0.5-1.3,0.8-2.3,0.9v3h-1.2V256.7z M843.8,247.1c-0.5,0.1-0.9,0.3-1.2,0.6
			c-0.3,0.3-0.4,0.6-0.4,1c0,0.4,0.1,0.7,0.4,1c0.3,0.2,0.7,0.4,1.2,0.6V247.1z M846.3,254.9c0.3-0.3,0.4-0.7,0.4-1.1
			c0-0.4-0.1-0.8-0.4-1c-0.3-0.3-0.7-0.5-1.3-0.7v3.4C845.5,255.4,846,255.2,846.3,254.9z"/>
		<path class="st4" d="M850.7,256.5l0.6-1.1c1,0.6,2,0.9,3,0.9c0.9,0,1.6-0.2,2.1-0.7c0.5-0.5,0.8-1.1,0.8-1.9
			c0-0.8-0.3-1.5-0.8-1.9c-0.5-0.5-1.3-0.7-2.2-0.7c-0.8,0-1.7,0.1-2.6,0.3v-6.2h6.7v1.2h-5.4v3.9c0.6-0.1,1.2-0.2,1.8-0.2
			c1.2,0,2.2,0.3,3,1c0.7,0.7,1.1,1.6,1.1,2.7c0,0.7-0.2,1.4-0.5,2c-0.4,0.6-0.8,1-1.5,1.3c-0.6,0.3-1.4,0.5-2.2,0.5
			C853.1,257.6,851.9,257.2,850.7,256.5z"/>
		<path class="st4" d="M860.8,259.6c0.8-0.6,1.3-1.4,1.3-2.2c-0.3,0-0.5-0.1-0.7-0.3c-0.2-0.2-0.3-0.4-0.3-0.7
			c0-0.3,0.1-0.5,0.3-0.7c0.2-0.2,0.4-0.3,0.7-0.3c0.3,0,0.6,0.1,0.8,0.4c0.2,0.3,0.3,0.6,0.3,1c0,0.7-0.2,1.3-0.5,1.9
			c-0.3,0.6-0.8,1.1-1.5,1.5L860.8,259.6z"/>
		<path class="st4" d="M867.2,256.8c-0.7-0.5-1.2-1.2-1.5-2.2c-0.4-0.9-0.5-2-0.5-3.3s0.2-2.4,0.5-3.3c0.4-0.9,0.9-1.7,1.5-2.2
			s1.5-0.8,2.4-0.8s1.7,0.3,2.4,0.8s1.2,1.2,1.5,2.2c0.4,0.9,0.5,2,0.5,3.3s-0.2,2.4-0.5,3.3c-0.4,0.9-0.9,1.7-1.5,2.2
			s-1.5,0.8-2.4,0.8S867.9,257.3,867.2,256.8z M871.2,255.7c0.5-0.4,0.8-1,1.1-1.8c0.3-0.8,0.4-1.7,0.4-2.7c0-1-0.1-1.9-0.4-2.7
			c-0.3-0.8-0.6-1.3-1.1-1.8c-0.5-0.4-1-0.6-1.6-0.6c-0.6,0-1.2,0.2-1.6,0.6c-0.5,0.4-0.8,1-1.1,1.8c-0.3,0.8-0.4,1.7-0.4,2.7
			c0,1,0.1,1.9,0.4,2.7c0.3,0.8,0.6,1.4,1.1,1.8c0.5,0.4,1,0.6,1.6,0.6C870.2,256.4,870.8,256.2,871.2,255.7z"/>
		<path class="st4" d="M877.6,256.8c-0.7-0.5-1.2-1.2-1.5-2.2c-0.4-0.9-0.5-2-0.5-3.3s0.2-2.4,0.5-3.3c0.4-0.9,0.9-1.7,1.5-2.2
			s1.5-0.8,2.4-0.8s1.7,0.3,2.4,0.8s1.2,1.2,1.5,2.2c0.4,0.9,0.5,2,0.5,3.3s-0.2,2.4-0.5,3.3c-0.4,0.9-0.9,1.7-1.5,2.2
			s-1.5,0.8-2.4,0.8S878.3,257.3,877.6,256.8z M881.6,255.7c0.5-0.4,0.8-1,1.1-1.8c0.3-0.8,0.4-1.7,0.4-2.7c0-1-0.1-1.9-0.4-2.7
			c-0.3-0.8-0.6-1.3-1.1-1.8c-0.5-0.4-1-0.6-1.6-0.6c-0.6,0-1.2,0.2-1.6,0.6c-0.5,0.4-0.8,1-1.1,1.8c-0.3,0.8-0.4,1.7-0.4,2.7
			c0,1,0.1,1.9,0.4,2.7c0.3,0.8,0.6,1.4,1.1,1.8c0.5,0.4,1,0.6,1.6,0.6C880.6,256.4,881.1,256.2,881.6,255.7z"/>
		<path class="st4" d="M888,256.8c-0.7-0.5-1.2-1.2-1.5-2.2c-0.4-0.9-0.5-2-0.5-3.3s0.2-2.4,0.5-3.3c0.4-0.9,0.9-1.7,1.5-2.2
			s1.5-0.8,2.4-0.8c0.9,0,1.7,0.3,2.4,0.8s1.2,1.2,1.5,2.2c0.4,0.9,0.5,2,0.5,3.3s-0.2,2.4-0.5,3.3c-0.4,0.9-0.9,1.7-1.5,2.2
			s-1.5,0.8-2.4,0.8C889.4,257.6,888.7,257.3,888,256.8z M892,255.7c0.5-0.4,0.8-1,1.1-1.8c0.3-0.8,0.4-1.7,0.4-2.7
			c0-1-0.1-1.9-0.4-2.7c-0.3-0.8-0.6-1.3-1.1-1.8c-0.5-0.4-1-0.6-1.6-0.6c-0.6,0-1.2,0.2-1.6,0.6c-0.5,0.4-0.8,1-1.1,1.8
			c-0.3,0.8-0.4,1.7-0.4,2.7c0,1,0.1,1.9,0.4,2.7c0.3,0.8,0.6,1.4,1.1,1.8c0.5,0.4,1,0.6,1.6,0.6C891,256.4,891.5,256.2,892,255.7z"
			/>
		<path class="st4" d="M901,244.7h1.3l-5.4,15h-1.3L901,244.7z"/>
		<path class="st4" d="M903.3,248.6h1.2l0.2,1.5c0.3-0.6,0.7-1,1.2-1.3c0.5-0.3,1.1-0.4,1.8-0.4c0.7,0,1.3,0.2,1.8,0.5
			c0.5,0.3,0.9,0.8,1.1,1.4c0.3-0.6,0.8-1.1,1.4-1.4c0.6-0.3,1.2-0.5,1.9-0.5c0.6,0,1.2,0.1,1.6,0.4s0.9,0.6,1.1,1.1s0.4,1,0.4,1.6
			v5.9h-1.4v-5.6c0-0.6-0.2-1.1-0.6-1.5s-0.9-0.6-1.5-0.6c-0.7,0-1.3,0.3-1.8,0.8c-0.5,0.5-0.7,1.1-0.7,1.9v5.1h-1.4v-5.6
			c0-0.6-0.2-1.1-0.6-1.5s-0.9-0.6-1.6-0.6c-0.7,0-1.3,0.3-1.8,0.8c-0.5,0.5-0.7,1.1-0.7,1.9v5.1h-1.4V248.6z"/>
		<path class="st4" d="M921.1,257c-0.7-0.4-1.2-0.9-1.6-1.6c-0.4-0.7-0.6-1.5-0.6-2.4c0-0.9,0.2-1.7,0.6-2.4
			c0.4-0.7,0.9-1.2,1.6-1.6s1.4-0.6,2.3-0.6c0.9,0,1.6,0.2,2.3,0.6s1.2,0.9,1.6,1.6c0.4,0.7,0.6,1.5,0.6,2.4c0,0.9-0.2,1.7-0.6,2.4
			c-0.4,0.7-0.9,1.2-1.6,1.6c-0.7,0.4-1.4,0.6-2.3,0.6C922.5,257.6,921.8,257.4,921.1,257z M925,256c0.5-0.3,0.8-0.7,1.1-1.2
			s0.4-1.1,0.4-1.8c0-0.7-0.1-1.3-0.4-1.8s-0.6-0.9-1.1-1.2c-0.5-0.3-1-0.4-1.5-0.4s-1.1,0.1-1.5,0.4c-0.5,0.3-0.8,0.7-1.1,1.2
			s-0.4,1.1-0.4,1.8c0,0.7,0.1,1.3,0.4,1.8s0.6,0.9,1.1,1.2c0.5,0.3,1,0.4,1.5,0.4S924.5,256.3,925,256z"/>
	</g>
	<path class="st3" d="M478.2,430.8L478.2,430.8c-3.3,0-6-2.7-6-6V374c0-3.3,2.7-6,6-6l0,0c3.3,0,6,2.7,6,6v50.8
		C484.2,428.1,481.5,430.8,478.2,430.8z"/>
	<path class="st4" d="M496.2,430.8L496.2,430.8c-3.3,0-6-2.7-6-6v-53.1c0-3.3,2.7-6,6-6l0,0c3.3,0,6,2.7,6,6v53.1
		C502.2,428.1,499.5,430.8,496.2,430.8z"/>
	<path class="st3" d="M528.2,430.8L528.2,430.8c-3.3,0-6-2.7-6-6v-61.1c0-3.3,2.7-6,6-6h0c3.3,0,6,2.7,6,6v61.1
		C534.2,428.1,531.5,430.8,528.2,430.8z"/>
	<path class="st4" d="M546.2,430.8L546.2,430.8c-3.3,0-6-2.7-6-6v-60c0-3.3,2.7-6,6-6h0c3.3,0,6,2.7,6,6v60
		C552.2,428.1,549.5,430.8,546.2,430.8z"/>
	<path class="st3" d="M578.2,430.8L578.2,430.8c-3.3,0-6-2.7-6-6v-69.4c0-3.3,2.7-6,6-6h0c3.3,0,6,2.7,6,6v69.4
		C584.2,428.1,581.5,430.8,578.2,430.8z"/>
	<path class="st4" d="M596.2,430.8L596.2,430.8c-3.3,0-6-2.7-6-6V351c0-3.3,2.7-6,6-6h0c3.3,0,6,2.7,6,6v73.8
		C602.2,428.1,599.5,430.8,596.2,430.8z"/>
	<path class="st3" d="M628.2,430.8L628.2,430.8c-3.3,0-6-2.7-6-6v-75.5c0-3.3,2.7-6,6-6h0c3.3,0,6,2.7,6,6v75.5
		C634.2,428.1,631.5,430.8,628.2,430.8z"/>
	<path class="st4" d="M646.2,430.8L646.2,430.8c-3.3,0-6-2.7-6-6v-82.2c0-3.3,2.7-6,6-6h0c3.3,0,6,2.7,6,6v82.2
		C652.2,428.1,649.5,430.8,646.2,430.8z"/>
	<path class="st3" d="M678.2,430.8L678.2,430.8c-3.3,0-6-2.7-6-6v-89.9c0-3.3,2.7-6,6-6h0c3.3,0,6,2.7,6,6v89.9
		C684.2,428.1,681.5,430.8,678.2,430.8z"/>
	<path class="st4" d="M696.2,430.8L696.2,430.8c-3.3,0-6-2.7-6-6V324.6c0-3.3,2.7-6,6-6h0c3.3,0,6,2.7,6,6v100.1
		C702.2,428.1,699.5,430.8,696.2,430.8z"/>
	<path class="st3" d="M728.2,430.8L728.2,430.8c-3.3,0-6-2.7-6-6V320.5c0-3.3,2.7-6,6-6h0c3.3,0,6,2.7,6,6v104.3
		C734.2,428.1,731.5,430.8,728.2,430.8z"/>
	<path class="st4" d="M746.2,430.8L746.2,430.8c-3.3,0-6-2.7-6-6V302.1c0-3.3,2.7-6,6-6h0c3.3,0,6,2.7,6,6v122.6
		C752.2,428.1,749.5,430.8,746.2,430.8z"/>
	<path class="st3" d="M778.2,430.8L778.2,430.8c-3.3,0-6-2.7-6-6V299.1c0-3.3,2.7-6,6-6h0c3.3,0,6,2.7,6,6v125.6
		C784.2,428.1,781.5,430.8,778.2,430.8z"/>
	<path class="st4" d="M796.2,430.8L796.2,430.8c-3.3,0-6-2.7-6-6V277.4c0-3.3,2.7-6,6-6h0c3.3,0,6,2.7,6,6v147.4
		C802.2,428.1,799.5,430.8,796.2,430.8z"/>
	<g>
		<g>
			<path class="st3" d="M843.8,299.7c-1-0.1-2-0.3-3.1-0.8l0.3-1.1c1,0.4,1.9,0.7,2.8,0.8v-3.8c-0.6-0.2-1.2-0.4-1.6-0.6
				c-0.4-0.2-0.8-0.5-1.1-0.9c-0.3-0.4-0.4-0.9-0.4-1.5c0-0.8,0.3-1.4,0.8-1.9c0.6-0.5,1.3-0.8,2.2-0.9v-3h1.2v3
				c0.8,0.1,1.7,0.3,2.8,0.7l-0.3,1.2c-0.9-0.4-1.8-0.6-2.4-0.7v3.6c0.6,0.2,1.2,0.4,1.6,0.6c0.4,0.2,0.8,0.5,1.1,0.9
				c0.3,0.4,0.4,0.9,0.4,1.6c0,0.8-0.3,1.4-0.8,2c-0.6,0.5-1.3,0.8-2.3,0.9v3h-1.2V299.7z M843.8,290.1c-0.5,0.1-0.9,0.3-1.2,0.6
				c-0.3,0.3-0.4,0.6-0.4,1c0,0.4,0.1,0.7,0.4,1c0.3,0.2,0.7,0.4,1.2,0.6V290.1z M846.3,297.9c0.3-0.3,0.4-0.7,0.4-1.1
				c0-0.4-0.1-0.8-0.4-1c-0.3-0.3-0.7-0.5-1.3-0.7v3.4C845.5,298.4,846,298.2,846.3,297.9z"/>
			<path class="st3" d="M850.6,299.4l4.7-4.7c1-1,1.5-2,1.5-2.9c0-0.7-0.2-1.3-0.7-1.8c-0.5-0.5-1.1-0.7-1.9-0.7
				c-0.5,0-1,0.1-1.4,0.3c-0.5,0.2-1,0.4-1.5,0.8l-0.6-1.1c1.3-0.8,2.6-1.2,3.8-1.2c0.7,0,1.4,0.2,1.9,0.5s1,0.7,1.3,1.3
				c0.3,0.5,0.5,1.2,0.5,1.8c0,0.6-0.1,1.3-0.4,1.9c-0.3,0.6-0.7,1.2-1.3,1.8l-3.9,3.9h5.8v1.2h-7.8V299.4z"/>
			<path class="st3" d="M860.8,302.6c0.8-0.6,1.3-1.4,1.3-2.2c-0.3,0-0.5-0.1-0.7-0.3c-0.2-0.2-0.3-0.4-0.3-0.7
				c0-0.3,0.1-0.5,0.3-0.7c0.2-0.2,0.4-0.3,0.7-0.3c0.3,0,0.6,0.1,0.8,0.4c0.2,0.3,0.3,0.6,0.3,1c0,0.7-0.2,1.3-0.5,1.9
				c-0.3,0.6-0.8,1.1-1.5,1.5L860.8,302.6z"/>
			<path class="st3" d="M865.8,299.8l0.5-1.1c0.9,0.4,1.7,0.6,2.4,0.6c1.2,0,2.1-0.5,2.7-1.4c0.6-0.9,1-2.2,1-4
				c-0.3,0.6-0.7,1-1.3,1.4c-0.6,0.3-1.2,0.5-2,0.5c-0.8,0-1.4-0.2-2-0.5c-0.6-0.3-1-0.8-1.3-1.4s-0.5-1.3-0.5-2
				c0-0.8,0.2-1.5,0.5-2.1c0.4-0.6,0.8-1.1,1.4-1.5c0.6-0.4,1.3-0.5,2.1-0.5c1.4,0,2.4,0.5,3.2,1.4s1.2,2.3,1.2,4.1
				c0,2.2-0.4,3.9-1.3,5.1c-0.9,1.2-2.1,1.8-3.7,1.8C867.7,300.6,866.7,300.3,865.8,299.8z M870.8,294.5c0.4-0.2,0.8-0.5,1-0.9
				c0.3-0.4,0.4-0.8,0.4-1.3c0-0.6-0.1-1.1-0.4-1.6c-0.2-0.5-0.6-0.8-1-1.1c-0.4-0.3-0.9-0.4-1.5-0.4c-0.5,0-1,0.1-1.4,0.4
				c-0.4,0.3-0.8,0.6-1,1c-0.2,0.4-0.4,0.9-0.4,1.4c0,0.8,0.3,1.5,0.8,2c0.5,0.5,1.2,0.8,2,0.8C869.9,294.9,870.3,294.7,870.8,294.5
				z"/>
			<path class="st3" d="M877,299.1c-0.8-1-1.2-2.3-1.2-4.1c0-2.2,0.4-3.9,1.3-5.1c0.9-1.2,2.1-1.8,3.7-1.8c1,0,2,0.2,3,0.7l-0.5,1.1
				c-0.9-0.4-1.7-0.6-2.4-0.6c-1.2,0-2.1,0.5-2.7,1.4c-0.6,0.9-1,2.2-1,4c0.3-0.6,0.7-1,1.3-1.4s1.2-0.5,2-0.5c0.8,0,1.4,0.2,2,0.5
				c0.6,0.3,1,0.8,1.3,1.4c0.3,0.6,0.5,1.3,0.5,2c0,0.8-0.2,1.5-0.5,2.1s-0.8,1.1-1.4,1.5c-0.6,0.4-1.3,0.5-2.1,0.5
				C878.9,300.6,877.8,300.1,877,299.1z M881.6,299c0.4-0.3,0.8-0.6,1-1c0.2-0.4,0.4-0.9,0.4-1.4c0-0.8-0.3-1.5-0.8-2
				c-0.5-0.5-1.2-0.8-2-0.8c-0.5,0-1,0.1-1.5,0.3c-0.4,0.2-0.8,0.5-1,0.9s-0.4,0.8-0.4,1.3c0,0.6,0.1,1.1,0.4,1.6
				c0.2,0.5,0.6,0.8,1,1.1c0.4,0.3,0.9,0.4,1.5,0.4C880.7,299.4,881.2,299.3,881.6,299z"/>
			<path class="st3" d="M886.3,299.5l0.6-1.1c1,0.6,2,0.9,3,0.9c0.9,0,1.6-0.2,2.1-0.7c0.5-0.5,0.8-1.1,0.8-1.9
				c0-0.8-0.3-1.5-0.8-1.9c-0.5-0.5-1.3-0.7-2.2-0.7c-0.8,0-1.7,0.1-2.6,0.3v-6.2h6.7v1.2h-5.4v3.9c0.6-0.1,1.2-0.2,1.8-0.2
				c1.2,0,2.2,0.3,3,1c0.7,0.7,1.1,1.6,1.1,2.7c0,0.7-0.2,1.4-0.5,2c-0.4,0.6-0.8,1-1.5,1.3c-0.6,0.3-1.4,0.5-2.2,0.5
				C888.7,300.6,887.5,300.2,886.3,299.5z"/>
			<path class="st3" d="M901,287.7h1.3l-5.4,15h-1.3L901,287.7z"/>
			<path class="st3" d="M903.3,291.6h1.2l0.2,1.5c0.3-0.6,0.7-1,1.2-1.3c0.5-0.3,1.1-0.4,1.8-0.4c0.7,0,1.3,0.2,1.8,0.5
				c0.5,0.3,0.9,0.8,1.1,1.4c0.3-0.6,0.8-1.1,1.4-1.4c0.6-0.3,1.2-0.5,1.9-0.5c0.6,0,1.2,0.1,1.6,0.4s0.9,0.6,1.1,1.1s0.4,1,0.4,1.6
				v5.9h-1.4v-5.6c0-0.6-0.2-1.1-0.6-1.5s-0.9-0.6-1.5-0.6c-0.7,0-1.3,0.3-1.8,0.8c-0.5,0.5-0.7,1.1-0.7,1.9v5.1h-1.4v-5.6
				c0-0.6-0.2-1.1-0.6-1.5s-0.9-0.6-1.6-0.6c-0.7,0-1.3,0.3-1.8,0.8c-0.5,0.5-0.7,1.1-0.7,1.9v5.1h-1.4V291.6z"/>
			<path class="st3" d="M921.1,300c-0.7-0.4-1.2-0.9-1.6-1.6c-0.4-0.7-0.6-1.5-0.6-2.4c0-0.9,0.2-1.7,0.6-2.4
				c0.4-0.7,0.9-1.2,1.6-1.6s1.4-0.6,2.3-0.6c0.9,0,1.6,0.2,2.3,0.6s1.2,0.9,1.6,1.6c0.4,0.7,0.6,1.5,0.6,2.4c0,0.9-0.2,1.7-0.6,2.4
				c-0.4,0.7-0.9,1.2-1.6,1.6c-0.7,0.4-1.4,0.6-2.3,0.6C922.5,300.6,921.8,300.4,921.1,300z M925,299c0.5-0.3,0.8-0.7,1.1-1.2
				s0.4-1.1,0.4-1.8c0-0.7-0.1-1.3-0.4-1.8s-0.6-0.9-1.1-1.2c-0.5-0.3-1-0.4-1.5-0.4s-1.1,0.1-1.5,0.4c-0.5,0.3-0.8,0.7-1.1,1.2
				s-0.4,1.1-0.4,1.8c0,0.7,0.1,1.3,0.4,1.8s0.6,0.9,1.1,1.2c0.5,0.3,1,0.4,1.5,0.4S924.5,299.3,925,299z"/>
		</g>
	</g>
</g>
</svg>
