<?xml version="1.0" encoding="utf-8"?>
<!-- Generator: Adobe Illustrator 22.1.0, SVG Export Plug-In . SVG Version: 6.00 Build 0)  -->
<svg version="1.1" id="Layer_1" xmlns="http://www.w3.org/2000/svg" xmlns:xlink="http://www.w3.org/1999/xlink" x="0px" y="0px"
	 viewBox="0 0 127.1 19.2" style="enable-background:new 0 0 127.1 19.2;" xml:space="preserve">
<style type="text/css">
	.st0{fill:#FFFFFF;}
</style>
<g>
	<g id="layer1_1_" transform="translate(-539.17946,-568.85777)">
		<path id="path3611_1_" class="st0" d="M583.3,587.9c8.2,0,12.7-6.8,12.7-12.7c0-0.2,0-0.4,0-0.6c0.9-0.6,1.6-1.4,2.2-2.3
			c-0.8,0.4-1.7,0.6-2.6,0.7c0.9-0.6,1.6-1.4,2-2.5c-0.9,0.5-1.8,0.9-2.8,1.1c-0.8-0.9-2-1.4-3.2-1.4c-2.5,0-4.5,2-4.5,4.5
			c0,0.3,0,0.7,0.1,1c-3.7-0.2-7-2-9.2-4.7c-0.4,0.7-0.6,1.4-0.6,2.2c0,1.5,0.8,2.9,2,3.7c-0.7,0-1.4-0.2-2-0.6c0,0,0,0,0,0.1
			c0,2.2,1.5,4,3.6,4.4c-0.4,0.1-0.8,0.2-1.2,0.2c-0.3,0-0.6,0-0.8-0.1c0.6,1.8,2.2,3.1,4.2,3.1c-1.5,1.2-3.4,1.9-5.5,1.9
			c-0.4,0-0.7,0-1.1-0.1C578.5,587.2,580.8,587.9,583.3,587.9"/>
	</g>
	<path class="st0" d="M17.9,0.1H1c-0.6,0-1,0.5-1,1V18c0,0.6,0.5,1,1,1h9.1v-7.3H7.7V8.9h2.5V6.7c0-2.5,1.5-3.8,3.7-3.8
		c1,0,1.9,0.1,2.2,0.1v2.6l-1.5,0c-1.2,0-1.4,0.6-1.4,1.4v1.8h2.8l-0.4,2.9h-2.5v7.3h4.8c0.6,0,1-0.5,1-1V1.1
		C19,0.6,18.5,0.1,17.9,0.1z"/>
	<path class="st0" d="M117.5,0c-5.3,0-9.6,4.3-9.6,9.6s4.3,9.6,9.6,9.6c5.3,0,9.6-4.3,9.6-9.6S122.8,0,117.5,0z M118.2,12.3
		c-1,1.3-2.8,1.6-4.3,1.1c-1.4-0.4-2.4-1.7-2.6-3.1c0-0.2,0-0.4,0-0.6c0-0.1,0-0.3,0-0.4c0.1-1.9,1.8-3.5,3.7-3.6c1-0.1,2,0.3,2.8,1
		l0,0c0,0,0,0,0,0c-0.3,0.4-0.7,0.7-1,1c-0.7-0.4-1.5-0.7-2.3-0.5c-1.3,0.4-2.1,1.9-1.6,3.2c0.1,0.3,0.3,0.6,0.5,0.9
		c0.7,0.7,1.8,1,2.8,0.6c0.7-0.2,1.1-0.8,1.3-1.5c-0.8,0-1.5,0-2.3,0v0h0c0-0.4,0-0.9,0-1.3c1.3,0,2.5,0,3.8,0l0,0h0
		C119.1,10.2,118.9,11.4,118.2,12.3z M123.7,9.1v1.1v0l-1.1,0c0,0.4,0,0.8,0,1.1c-0.4,0-0.8,0-1.1,0c0-0.4,0-0.8,0-1.1
		c-0.4,0-0.8,0-1.1,0v0V9.1v0c0.4,0,0.8,0,1.1,0c0-0.4,0-0.8,0-1.1h1.1c0,0.4,0,0.8,0,1.1C123,9.1,123.3,9.1,123.7,9.1L123.7,9.1z"
		/>
	<g>
		<path id="LinkedIn_1_" class="st0" d="M93.7,11v6.9h-4v-6.4c0-1.6-0.6-2.7-2-2.7c-1.1,0-1.8,0.7-2,1.5c-0.1,0.3-0.1,0.6-0.1,1v6.7
			h-4c0,0,0.1-10.9,0-12h4v1.7c0,0,0,0,0,0h0v0c0.5-0.8,1.5-2,3.6-2C91.7,5.6,93.7,7.3,93.7,11z M77.4,0.1c-1.4,0-2.3,0.9-2.3,2.1
			c0,1.2,0.9,2.1,2.2,2.1h0c1.4,0,2.3-0.9,2.3-2.1C79.6,1,78.7,0.1,77.4,0.1z M75.4,17.9h4v-12h-4V17.9z"/>
	</g>
</g>
</svg>
