<?xml version="1.0" encoding="utf-8"?>
<!-- Generator: Adobe Illustrator 22.1.0, SVG Export Plug-In . SVG Version: 6.00 Build 0)  -->
<svg version="1.1" id="Layer_1" xmlns="http://www.w3.org/2000/svg" xmlns:xlink="http://www.w3.org/1999/xlink" x="0px" y="0px"
	 viewBox="0 0 990.4 235.7" style="enable-background:new 0 0 990.4 235.7;" xml:space="preserve">
<style type="text/css">
	.st0{fill:#333333;}
	.st1{fill:#0071BC;}
	.st2{fill:#313337;}
	.st3{fill:#F6921E;}
	.st4{fill:#14C2F3;}
	.st5{fill:#00A99D;}
</style>
<g>
	<g>
		<path class="st0" d="M51.9,163.9c-2.1,0-4.4-0.6-6.9-1.7l-1,2.3c2.7,1.3,5.5,1.9,8.4,1.9c1.6,0,2.9-0.3,4.2-0.9
			c1.2-0.6,2.2-1.4,2.9-2.5c0.7-1.1,1-2.3,1-3.6c0-1.5-0.5-2.9-1.4-4.1c-1-1.2-2.2-2-3.8-2.4c1.4-0.4,2.6-1.2,3.4-2.3
			c0.8-1.1,1.2-2.3,1.2-3.8c0-1.3-0.3-2.5-0.9-3.5c-0.6-1-1.5-1.8-2.6-2.4s-2.4-0.8-3.9-0.8c-2.6,0-5.2,0.6-7.8,1.8l1,2.3
			c2.3-1.1,4.5-1.6,6.4-1.6c1.5,0,2.6,0.4,3.6,1.3c0.9,0.8,1.4,1.9,1.4,3.3c0,1.4-0.6,2.5-1.7,3.4s-2.6,1.3-4.3,1.3h-1.5v2.3h1.5
			c1.9,0,3.5,0.5,4.7,1.4c1.2,0.9,1.8,2.1,1.8,3.6c0,1.4-0.5,2.6-1.5,3.5C54.9,163.5,53.5,163.9,51.9,163.9z"/>
		<path class="st0" d="M63.8,159.4c0,1.4,0.4,2.6,1.1,3.6s1.8,1.9,3.1,2.5c1.3,0.6,2.9,0.9,4.6,0.9c1.7,0,3.3-0.3,4.6-0.9
			c1.3-0.6,2.4-1.4,3.1-2.5s1.1-2.3,1.1-3.6c0-1.6-0.5-2.9-1.5-4.1c-1-1.1-2.5-1.9-4.3-2.4c1.6-0.4,2.8-1.1,3.8-2.2
			c1-1.1,1.4-2.4,1.4-3.9c0-1.3-0.4-2.4-1.1-3.4c-0.7-1-1.7-1.8-2.9-2.4c-1.3-0.6-2.7-0.8-4.3-0.8c-1.6,0-3,0.3-4.3,0.8
			s-2.2,1.4-2.9,2.4c-0.7,1-1.1,2.2-1.1,3.4c0,1.5,0.5,2.8,1.4,3.9c1,1.1,2.2,1.8,3.8,2.2c-1.9,0.4-3.3,1.2-4.3,2.4
			C64.3,156.5,63.8,157.8,63.8,159.4z M68.8,150.2c-1-0.8-1.5-1.9-1.5-3.2c0-1.3,0.5-2.3,1.5-3.2c1-0.9,2.3-1.3,3.8-1.3
			c1.5,0,2.8,0.4,3.8,1.3c1,0.9,1.5,1.9,1.5,3.2c0,1.3-0.5,2.4-1.5,3.2s-2.3,1.4-3.9,1.7C71.1,151.6,69.8,151,68.8,150.2z
			 M68.4,155.8c1-0.9,2.5-1.5,4.3-1.7c1.8,0.3,3.3,0.9,4.3,1.7c1,0.9,1.6,2,1.6,3.4c0,1.4-0.5,2.6-1.6,3.4c-1.1,0.9-2.5,1.3-4.2,1.3
			c-1.7,0-3.1-0.4-4.2-1.3c-1.1-0.9-1.6-2-1.6-3.4C66.8,157.9,67.4,156.7,68.4,155.8z"/>
		<path class="st0" d="M90.7,149v16.9h1.9v-6.6c0-1.1,0.3-2,1-2.7s1.5-1.1,2.5-1.1c0.9,0,1.6,0.3,2.2,0.9c0.6,0.6,0.9,1.3,0.9,2.2
			v7.3h1.9v-7.6c0-0.8-0.2-1.6-0.6-2.3c-0.4-0.7-0.9-1.2-1.6-1.5c-0.7-0.4-1.4-0.6-2.3-0.6c-0.9,0-1.7,0.2-2.4,0.6
			c-0.7,0.4-1.3,1-1.7,1.7V149H90.7z"/>
		<path class="st0" d="M106.3,156.7c0.6-0.7,1.4-1.1,2.4-1.1c0.4,0,0.9,0.1,1.4,0.2l0.2-1.6c-0.5-0.1-1-0.2-1.5-0.2
			c-0.8,0-1.6,0.2-2.2,0.6c-0.6,0.4-1.1,1-1.4,1.8l-0.2-2.2h-1.5v11.7h1.9v-6.3C105.4,158.4,105.7,157.5,106.3,156.7z"/>
		<path class="st0" d="M116.7,164.2c-0.5,0.4-1.1,0.5-1.9,0.5c-1.1,0-2.4-0.3-3.7-0.8l-0.5,1.4c1.5,0.6,3,0.9,4.3,0.9
			c1.3,0,2.3-0.3,3.1-0.9c0.8-0.6,1.2-1.4,1.2-2.4c0-0.8-0.2-1.4-0.5-1.8c-0.4-0.5-0.8-0.8-1.3-1c-0.5-0.2-1.2-0.4-2-0.7
			c-0.9-0.3-1.6-0.5-2.1-0.8c-0.5-0.3-0.7-0.7-0.7-1.3c0-0.5,0.2-1,0.7-1.3s1.1-0.5,1.8-0.5c1,0,2.1,0.3,3.4,0.8l0.4-1.4
			c-1.3-0.5-2.7-0.8-3.9-0.8c-0.8,0-1.5,0.1-2.2,0.4c-0.6,0.3-1.2,0.7-1.5,1.2c-0.4,0.5-0.5,1.1-0.5,1.7c0,0.8,0.2,1.4,0.5,1.8
			c0.4,0.4,0.8,0.8,1.3,1c0.5,0.2,1.2,0.4,2,0.7c0.7,0.2,1.2,0.4,1.5,0.5c0.4,0.2,0.7,0.4,0.9,0.6s0.4,0.6,0.4,1
			C117.5,163.4,117.2,163.9,116.7,164.2z"/>
		<path class="st1" d="M82.6,70.5L82.6,70.5c-0.1,0-0.2,0-0.3,0c-4.2,0-7.7,3.4-7.7,7.7c0,4.2,3.4,7.7,7.7,7.7c0.1,0,0.2,0,0.3,0v0
			c37.2,0,67.3,30.1,67.3,67.3c0,37.2-30.1,67.3-67.3,67.3c-36.8,0-66.7-29.6-67.3-66.2c0-0.1,0-0.2,0-0.4c0-4.2-3.4-7.7-7.7-7.7
			c-4,0-7.3,3.1-7.7,7.1h0c0,0.1,0,0.3,0,0.4c0,0.1,0,0.1,0,0.2c0,0.2,0,0.4,0,0.6c0.7,45,37.4,81.3,82.6,81.3
			c45.6,0,82.6-37,82.6-82.6C165.2,107.5,128.3,70.5,82.6,70.5z"/>
	</g>
	<g>
		<path class="st2" d="M15.5,0.2v8.4c0,3.2,1.4,4.5,3.3,4.5c2.1,0,3.4-1.4,3.4-4.5V0.2h1.8v8.3c0,4.3-2.3,6.1-5.4,6.1
			c-2.9,0-5.1-1.7-5.1-6V0.2H15.5z"/>
		<path class="st2" d="M26.2,13.3c0-0.8,0.5-1.3,1.3-1.3s1.2,0.5,1.2,1.3c0,0.8-0.5,1.3-1.3,1.3C26.7,14.6,26.2,14,26.2,13.3z"/>
		<path class="st2" d="M30.8,12.2c0.8,0.5,2,0.9,3.3,0.9c1.9,0,3-1,3-2.4c0-1.3-0.8-2.1-2.7-2.8c-2.3-0.8-3.7-2-3.7-4
			c0-2.2,1.8-3.8,4.6-3.8c1.4,0,2.5,0.3,3.1,0.7l-0.5,1.5c-0.5-0.3-1.4-0.7-2.7-0.7c-1.9,0-2.7,1.2-2.7,2.1c0,1.3,0.9,2,2.8,2.7
			c2.4,0.9,3.6,2.1,3.6,4.2c0,2.2-1.6,4.1-5,4.1c-1.4,0-2.9-0.4-3.6-0.9L30.8,12.2z"/>
		<path class="st2" d="M40.9,13.3c0-0.8,0.5-1.3,1.3-1.3s1.2,0.5,1.2,1.3c0,0.8-0.5,1.3-1.3,1.3C41.4,14.6,40.9,14,40.9,13.3z"/>
		<path class="st2" d="M57.5,7.7H52v5.1h6.1v1.5h-8V0.2h7.6v1.5H52v4.5h5.5V7.7z"/>
		<path class="st2" d="M72.4,8.2c-0.1-2-0.2-4.3-0.2-6.1h-0.1c-0.5,1.7-1.1,3.4-1.8,5.4l-2.5,6.9h-1.4l-2.3-6.7
			c-0.7-2-1.2-3.8-1.6-5.5h0c0,1.8-0.1,4.1-0.3,6.3l-0.4,6.1h-1.7l1-14.2h2.3l2.4,6.8c0.6,1.7,1.1,3.3,1.4,4.8h0.1
			c0.4-1.4,0.9-3,1.5-4.8l2.5-6.8h2.3l0.9,14.2h-1.8L72.4,8.2z"/>
		<path class="st2" d="M77.4,0.4c0.9-0.1,2-0.3,3.5-0.3c1.8,0,3.1,0.4,4,1.2c0.8,0.7,1.2,1.7,1.2,3c0,1.3-0.4,2.3-1.1,3
			c-1,1-2.5,1.6-4.3,1.6c-0.5,0-1.1,0-1.5-0.1v5.7h-1.8V0.4z M79.2,7.2c0.4,0.1,0.9,0.1,1.5,0.1c2.2,0,3.5-1.1,3.5-3
			c0-1.9-1.3-2.8-3.3-2.8c-0.8,0-1.4,0.1-1.7,0.1V7.2z"/>
		<path class="st2" d="M88.6,0.2h1.8v12.6h6v1.5h-7.9V0.2z"/>
		<path class="st2" d="M109.7,7.2c0,4.9-3,7.5-6.6,7.5c-3.7,0-6.4-2.9-6.4-7.2c0-4.5,2.8-7.4,6.6-7.4C107.3,0,109.7,3,109.7,7.2z
			 M98.8,7.4c0,3,1.6,5.7,4.5,5.7c2.9,0,4.5-2.7,4.5-5.9c0-2.8-1.5-5.8-4.5-5.8C100.3,1.5,98.8,4.3,98.8,7.4z"/>
		<path class="st2" d="M114.7,14.4v-6l-4.5-8.1h2.1l2,3.9c0.5,1.1,1,1.9,1.4,2.9h0c0.4-0.9,0.9-1.8,1.4-2.9l2-3.9h2.1l-4.7,8.1v6
			H114.7z"/>
		<path class="st2" d="M130.1,7.7h-5.5v5.1h6.1v1.5h-8V0.2h7.6v1.5h-5.8v4.5h5.5V7.7z"/>
		<path class="st2" d="M140.4,7.7h-5.5v5.1h6.1v1.5h-8V0.2h7.6v1.5h-5.8v4.5h5.5V7.7z"/>
		<path class="st2" d="M36.5,39.6l-4.6-14.2h2l2.2,7c0.6,1.9,1.1,3.6,1.5,5.3h0c0.4-1.6,1-3.4,1.6-5.3l2.4-7h2l-5.1,14.2H36.5z"/>
		<path class="st2" d="M46.2,35.1l-1.5,4.5h-1.9l4.8-14.2h2.2l4.8,14.2h-2l-1.5-4.5H46.2z M50.8,33.7l-1.4-4.1
			c-0.3-0.9-0.5-1.8-0.7-2.6h0c-0.2,0.8-0.4,1.7-0.7,2.6l-1.4,4.1H50.8z"/>
		<path class="st2" d="M66.3,39.1c-0.7,0.3-2,0.7-3.7,0.7c-4,0-7-2.5-7-7.2c0-4.4,3-7.4,7.4-7.4c1.8,0,2.9,0.4,3.4,0.6l-0.4,1.5
			c-0.7-0.3-1.7-0.6-2.9-0.6c-3.3,0-5.5,2.1-5.5,5.8c0,3.5,2,5.7,5.4,5.7c1.1,0,2.2-0.2,3-0.6L66.3,39.1z"/>
		<path class="st2" d="M71,35.1l-1.5,4.5h-1.9l4.8-14.2h2.2l4.8,14.2h-2L76,35.1H71z M75.6,33.7l-1.4-4.1c-0.3-0.9-0.5-1.8-0.7-2.6
			h0c-0.2,0.8-0.4,1.7-0.7,2.6l-1.4,4.1H75.6z"/>
		<path class="st2" d="M82.6,27h-4.3v-1.6h10.5V27h-4.3v12.6h-1.8V27z"/>
		<path class="st2" d="M92.2,25.4v14.2h-1.8V25.4H92.2z"/>
		<path class="st2" d="M107.5,32.4c0,4.9-3,7.5-6.6,7.5c-3.7,0-6.4-2.9-6.4-7.2c0-4.5,2.8-7.4,6.6-7.4
			C105,25.2,107.5,28.2,107.5,32.4z M96.5,32.6c0,3,1.6,5.7,4.5,5.7c2.9,0,4.5-2.7,4.5-5.9c0-2.8-1.5-5.8-4.5-5.8
			C98,26.7,96.5,29.5,96.5,32.6z"/>
		<path class="st2" d="M109.9,39.6V25.4h2l4.5,7.2c1.1,1.7,1.9,3.1,2.5,4.6l0,0c-0.2-1.9-0.2-3.6-0.2-5.8v-5.9h1.7v14.2h-1.8
			l-4.5-7.2c-1-1.6-1.9-3.2-2.6-4.7l-0.1,0c0.1,1.8,0.1,3.5,0.1,5.8v6H109.9z"/>
	</g>
</g>
<g>
	<g>
		<polygon class="st0" points="319.7,143.6 319.7,165.9 322.7,165.9 322.7,140.6 320.2,140.6 312.1,145.3 313.1,147.4 		"/>
		<path class="st0" d="M346.5,163.5h-12.2l8.2-8.2c1.2-1.2,2.1-2.4,2.7-3.7c0.6-1.3,0.9-2.6,0.9-3.9c0-1.4-0.3-2.7-1-3.8
			c-0.7-1.1-1.6-2-2.8-2.6c-1.2-0.6-2.5-0.9-4-0.9c-2.5,0-5.2,0.8-8,2.5l1.2,2.3c1.2-0.7,2.2-1.3,3.2-1.7c1-0.4,2-0.6,3-0.6
			c1.6,0,2.9,0.5,3.9,1.4s1.5,2.2,1.5,3.8c0,2-1,4.1-3.1,6.1l-9.9,9.9v1.9h16.3V163.5z"/>
		<path class="st0" d="M352.6,166.3c0.6,0,1.1-0.2,1.5-0.6s0.6-0.9,0.6-1.5c0-0.6-0.2-1.1-0.6-1.5s-0.9-0.6-1.5-0.6
			c-0.6,0-1.1,0.2-1.5,0.6c-0.4,0.4-0.6,0.9-0.6,1.5c0,0.6,0.2,1.1,0.6,1.5C351.5,166.1,352,166.3,352.6,166.3z"/>
		<path class="st0" d="M365.1,163.8c-2.1,0-4.1-0.7-6.2-2l-1.2,2.3c2.5,1.5,5,2.2,7.6,2.2c1.7,0,3.3-0.3,4.6-1
			c1.3-0.7,2.4-1.6,3.1-2.8s1.1-2.6,1.1-4.1c0-2.4-0.8-4.2-2.3-5.6c-1.5-1.4-3.6-2.1-6.2-2.1c-1.1,0-2.4,0.1-3.7,0.4v-8.1h11.3v-2.4
			h-14v13c2-0.5,3.8-0.7,5.5-0.7c2,0,3.6,0.5,4.7,1.5s1.7,2.3,1.7,4c0,1.6-0.6,2.9-1.7,3.9C368.4,163.4,367,163.8,365.1,163.8z"/>
		<path class="st0" d="M384.2,149v16.9h1.9v-6.6c0-1.1,0.3-2,1-2.7s1.5-1.1,2.5-1.1c0.9,0,1.6,0.3,2.2,0.9c0.6,0.6,0.9,1.3,0.9,2.2
			v7.3h1.9v-7.6c0-0.8-0.2-1.6-0.6-2.3c-0.4-0.7-0.9-1.2-1.6-1.5c-0.7-0.4-1.4-0.6-2.3-0.6c-0.9,0-1.7,0.2-2.4,0.6
			c-0.7,0.4-1.3,1-1.7,1.7V149H384.2z"/>
		<path class="st0" d="M399.8,156.7c0.6-0.7,1.4-1.1,2.4-1.1c0.4,0,0.9,0.1,1.4,0.2l0.2-1.6c-0.5-0.1-1-0.2-1.5-0.2
			c-0.8,0-1.6,0.2-2.2,0.6c-0.6,0.4-1.1,1-1.4,1.8l-0.2-2.2H397v11.7h1.9v-6.3C398.9,158.4,399.2,157.5,399.8,156.7z"/>
		<path class="st0" d="M410.2,164.2c-0.5,0.4-1.1,0.5-1.9,0.5c-1.1,0-2.4-0.3-3.7-0.8l-0.5,1.4c1.5,0.6,3,0.9,4.3,0.9
			c1.3,0,2.3-0.3,3.1-0.9c0.8-0.6,1.2-1.4,1.2-2.4c0-0.8-0.2-1.4-0.5-1.8c-0.4-0.5-0.8-0.8-1.3-1c-0.5-0.2-1.2-0.4-2-0.7
			c-0.9-0.3-1.6-0.5-2.1-0.8c-0.5-0.3-0.7-0.7-0.7-1.3c0-0.5,0.2-1,0.7-1.3s1.1-0.5,1.8-0.5c1,0,2.1,0.3,3.4,0.8l0.4-1.4
			c-1.3-0.5-2.7-0.8-3.9-0.8c-0.8,0-1.5,0.1-2.2,0.4c-0.6,0.3-1.2,0.7-1.5,1.2c-0.4,0.5-0.5,1.1-0.5,1.7c0,0.8,0.2,1.4,0.5,1.8
			c0.4,0.4,0.8,0.8,1.3,1c0.5,0.2,1.2,0.4,2,0.7c0.7,0.2,1.2,0.4,1.5,0.5c0.4,0.2,0.7,0.4,0.9,0.6s0.4,0.6,0.4,1
			C410.9,163.4,410.7,163.9,410.2,164.2z"/>
		<path class="st3" d="M362.5,70.5L362.5,70.5c-0.1,0-0.2,0-0.3,0c-4.2,0-7.7,3.4-7.7,7.7c0,4.2,3.4,7.7,7.7,7.7c0.1,0,0.2,0,0.3,0
			v0c37.2,0,67.3,30.1,67.3,67.3c0,37.2-30.1,67.3-67.3,67.3c-36.8,0-66.7-29.6-67.3-66.3c0-0.1,0-0.2,0-0.4c0-4.2-3.4-7.7-7.7-7.7
			c-4,0-7.3,3.1-7.7,7.1h0c0,0.1,0,0.3,0,0.4c0,0.1,0,0.1,0,0.2c0,0.2,0,0.4,0,0.6c0.7,45,37.4,81.3,82.6,81.3
			c45.6,0,82.6-37,82.6-82.6C445.1,107.5,408.1,70.5,362.5,70.5z"/>
	</g>
</g>
<g>
	<g>
		<polygon class="st0" points="606.2,143.6 606.2,165.9 609.2,165.9 609.2,140.6 606.7,140.6 598.6,145.3 599.7,147.4 		"/>
		<path class="st0" d="M633,163.5h-12.2l8.2-8.2c1.2-1.2,2.1-2.4,2.7-3.7c0.6-1.3,0.9-2.6,0.9-3.9c0-1.4-0.3-2.7-1-3.8
			c-0.7-1.1-1.6-2-2.8-2.6c-1.2-0.6-2.5-0.9-4-0.9c-2.5,0-5.2,0.8-8,2.5l1.2,2.3c1.2-0.7,2.2-1.3,3.2-1.7c1-0.4,2-0.6,3-0.6
			c1.6,0,2.9,0.5,3.9,1.4s1.5,2.2,1.5,3.8c0,2-1,4.1-3.1,6.1l-9.9,9.9v1.9H633V163.5z"/>
		<path class="st0" d="M640.4,164.8c1.4,1.1,3,1.6,4.9,1.6c1.9,0,3.5-0.5,4.9-1.6c1.4-1.1,2.5-2.6,3.2-4.6s1.1-4.3,1.1-6.9
			s-0.4-5-1.1-6.9s-1.8-3.5-3.2-4.6c-1.4-1.1-3-1.6-4.9-1.6c-1.9,0-3.5,0.5-4.9,1.6s-2.5,2.6-3.2,4.6s-1.1,4.3-1.1,6.9
			s0.4,5,1.1,6.9S639,163.7,640.4,164.8z M639.7,147.6c0.5-1.6,1.3-2.8,2.2-3.7c1-0.9,2.1-1.3,3.4-1.3c1.3,0,2.4,0.4,3.4,1.3
			c1,0.9,1.7,2.1,2.2,3.7c0.5,1.6,0.8,3.5,0.8,5.6c0,2.1-0.3,4-0.8,5.6c-0.5,1.6-1.3,2.8-2.2,3.7s-2.1,1.3-3.4,1.3
			c-1.3,0-2.4-0.4-3.4-1.3s-1.7-2.1-2.2-3.7c-0.5-1.6-0.8-3.5-0.8-5.6C638.9,151.1,639.2,149.2,639.7,147.6z"/>
		<path class="st0" d="M663.3,149v16.9h1.9v-6.6c0-1.1,0.3-2,1-2.7s1.5-1.1,2.5-1.1c0.9,0,1.6,0.3,2.2,0.9c0.6,0.6,0.9,1.3,0.9,2.2
			v7.3h1.9v-7.6c0-0.8-0.2-1.6-0.6-2.3c-0.4-0.7-0.9-1.2-1.6-1.5c-0.7-0.4-1.4-0.6-2.3-0.6c-0.9,0-1.7,0.2-2.4,0.6
			c-0.7,0.4-1.3,1-1.7,1.7V149H663.3z"/>
		<path class="st0" d="M679,156.7c0.6-0.7,1.4-1.1,2.4-1.1c0.4,0,0.9,0.1,1.4,0.2l0.2-1.6c-0.5-0.1-1-0.2-1.5-0.2
			c-0.8,0-1.6,0.2-2.2,0.6c-0.6,0.4-1.1,1-1.4,1.8l-0.2-2.2h-1.5v11.7h1.9v-6.3C678,158.4,678.3,157.5,679,156.7z"/>
		<path class="st0" d="M689.4,164.2c-0.5,0.4-1.1,0.5-1.9,0.5c-1.1,0-2.4-0.3-3.7-0.8l-0.5,1.4c1.5,0.6,3,0.9,4.3,0.9
			c1.3,0,2.3-0.3,3.1-0.9c0.8-0.6,1.2-1.4,1.2-2.4c0-0.8-0.2-1.4-0.5-1.8c-0.4-0.5-0.8-0.8-1.3-1c-0.5-0.2-1.2-0.4-2-0.7
			c-0.9-0.3-1.6-0.5-2.1-0.8c-0.5-0.3-0.7-0.7-0.7-1.3c0-0.5,0.2-1,0.7-1.3s1.1-0.5,1.8-0.5c1,0,2.1,0.3,3.4,0.8l0.4-1.4
			c-1.3-0.5-2.7-0.8-3.9-0.8c-0.8,0-1.5,0.1-2.2,0.4c-0.6,0.3-1.2,0.7-1.5,1.2c-0.4,0.5-0.5,1.1-0.5,1.7c0,0.8,0.2,1.4,0.5,1.8
			c0.4,0.4,0.8,0.8,1.3,1c0.5,0.2,1.2,0.4,2,0.7c0.7,0.2,1.2,0.4,1.5,0.5c0.4,0.2,0.7,0.4,0.9,0.6s0.4,0.6,0.4,1
			C690.1,163.4,689.8,163.9,689.4,164.2z"/>
		<path class="st4" d="M645.4,70.5L645.4,70.5c-0.1,0-0.2,0-0.3,0c-4.2,0-7.7,3.4-7.7,7.7c0,4.2,3.4,7.7,7.7,7.7c0.1,0,0.2,0,0.3,0
			v0c37.2,0,67.3,30.1,67.3,67.3c0,37.2-30.1,67.3-67.3,67.3c-36.8,0-66.7-29.6-67.3-66.3c0-0.1,0-0.2,0-0.4c0-4.2-3.4-7.7-7.7-7.7
			c-4,0-7.3,3.1-7.7,7.1h0c0,0.1,0,0.3,0,0.4c0,0.1,0,0.1,0,0.2c0,0.2,0,0.4,0,0.6c0.7,45,37.4,81.3,82.6,81.3
			c45.6,0,82.6-37,82.6-82.6C727.9,107.5,691,70.5,645.4,70.5z"/>
	</g>
	<g>
		<path class="st2" d="M321.2,0.2v8.4c0,3.2,1.4,4.5,3.3,4.5c2.1,0,3.4-1.4,3.4-4.5V0.2h1.8v8.3c0,4.3-2.3,6.1-5.4,6.1
			c-2.9,0-5.1-1.7-5.1-6V0.2H321.2z"/>
		<path class="st2" d="M331.9,13.3c0-0.8,0.5-1.3,1.3-1.3s1.2,0.5,1.2,1.3c0,0.8-0.5,1.3-1.3,1.3C332.4,14.6,331.9,14,331.9,13.3z"
			/>
		<path class="st2" d="M336.5,12.2c0.8,0.5,2,0.9,3.3,0.9c1.9,0,3-1,3-2.4c0-1.3-0.8-2.1-2.7-2.8c-2.3-0.8-3.7-2-3.7-4
			c0-2.2,1.8-3.8,4.6-3.8c1.4,0,2.5,0.3,3.1,0.7l-0.5,1.5c-0.5-0.3-1.4-0.7-2.7-0.7c-1.9,0-2.7,1.2-2.7,2.1c0,1.3,0.9,2,2.8,2.7
			c2.4,0.9,3.6,2.1,3.6,4.2c0,2.2-1.6,4.1-5,4.1c-1.4,0-2.9-0.4-3.6-0.9L336.5,12.2z"/>
		<path class="st2" d="M346.6,13.3c0-0.8,0.5-1.3,1.3-1.3s1.2,0.5,1.2,1.3c0,0.8-0.5,1.3-1.3,1.3C347.1,14.6,346.6,14,346.6,13.3z"
			/>
		<path class="st2" d="M363.2,7.7h-5.5v5.1h6.1v1.5h-8V0.2h7.6v1.5h-5.8v4.5h5.5V7.7z"/>
		<path class="st2" d="M378.1,8.2c-0.1-2-0.2-4.3-0.2-6.1h-0.1c-0.5,1.7-1.1,3.4-1.8,5.4l-2.5,6.9h-1.4l-2.3-6.7
			c-0.7-2-1.2-3.8-1.6-5.5h0c0,1.8-0.1,4.1-0.3,6.3l-0.4,6.1h-1.7l1-14.2h2.3l2.4,6.8c0.6,1.7,1.1,3.3,1.4,4.8h0.1
			c0.4-1.4,0.9-3,1.5-4.8l2.5-6.8h2.3l0.9,14.2h-1.8L378.1,8.2z"/>
		<path class="st2" d="M383.1,0.4c0.9-0.1,2-0.3,3.5-0.3c1.8,0,3.1,0.4,4,1.2c0.8,0.7,1.2,1.7,1.2,3c0,1.3-0.4,2.3-1.1,3
			c-1,1-2.5,1.6-4.3,1.6c-0.5,0-1,0-1.5-0.1v5.7h-1.8V0.4z M384.9,7.2c0.4,0.1,0.9,0.1,1.5,0.1c2.2,0,3.5-1.1,3.5-3
			c0-1.9-1.3-2.8-3.3-2.8c-0.8,0-1.4,0.1-1.7,0.1V7.2z"/>
		<path class="st2" d="M286.5,25.6c0.9-0.1,2-0.3,3.5-0.3c1.8,0,3.1,0.4,4,1.2c0.8,0.7,1.2,1.7,1.2,3c0,1.3-0.4,2.3-1.1,3
			c-1,1-2.5,1.6-4.3,1.6c-0.5,0-1.1,0-1.5-0.1v5.7h-1.8V25.6z M288.4,32.4c0.4,0.1,0.9,0.1,1.5,0.1c2.2,0,3.5-1.1,3.5-3
			c0-1.9-1.3-2.8-3.3-2.8c-0.8,0-1.4,0.1-1.7,0.1V32.4z"/>
		<path class="st2" d="M305,32.9h-5.5v5.1h6.1v1.5h-8V25.4h7.6V27h-5.8v4.5h5.5V32.9z"/>
		<path class="st2" d="M308,25.6c0.9-0.2,2.2-0.3,3.5-0.3c2,0,3.2,0.4,4.1,1.2c0.7,0.6,1.1,1.6,1.1,2.7c0,1.9-1.2,3.1-2.7,3.6v0.1
			c1.1,0.4,1.7,1.4,2.1,2.9c0.5,2,0.8,3.3,1.1,3.9h-1.9c-0.2-0.4-0.5-1.6-0.9-3.4c-0.4-2-1.2-2.7-2.8-2.8h-1.7v6.1H308V25.6z
			 M309.9,32.1h1.9c2,0,3.2-1.1,3.2-2.7c0-1.8-1.3-2.6-3.3-2.6c-0.9,0-1.5,0.1-1.8,0.2V32.1z"/>
		<path class="st2" d="M319.1,37.4c0.8,0.5,2,0.9,3.3,0.9c1.9,0,3-1,3-2.4c0-1.3-0.8-2.1-2.7-2.8c-2.3-0.8-3.7-2-3.7-4
			c0-2.2,1.8-3.8,4.6-3.8c1.4,0,2.5,0.3,3.1,0.7l-0.5,1.5c-0.5-0.3-1.4-0.7-2.7-0.7c-1.9,0-2.7,1.2-2.7,2.1c0,1.3,0.9,2,2.8,2.7
			c2.4,0.9,3.6,2.1,3.6,4.2c0,2.2-1.6,4.1-5,4.1c-1.4,0-2.9-0.4-3.6-0.9L319.1,37.4z"/>
		<path class="st2" d="M341.8,32.4c0,4.9-3,7.5-6.6,7.5c-3.7,0-6.4-2.9-6.4-7.2c0-4.5,2.8-7.4,6.6-7.4
			C339.3,25.2,341.8,28.2,341.8,32.4z M330.8,32.6c0,3,1.6,5.7,4.5,5.7c2.9,0,4.5-2.7,4.5-5.9c0-2.8-1.5-5.8-4.5-5.8
			C332.3,26.7,330.8,29.5,330.8,32.6z"/>
		<path class="st2" d="M344.2,39.6V25.4h2l4.5,7.2c1.1,1.7,1.9,3.1,2.5,4.6l0,0c-0.2-1.9-0.2-3.6-0.2-5.8v-5.9h1.7v14.2h-1.8
			l-4.5-7.2c-1-1.6-1.9-3.2-2.6-4.7l-0.1,0c0.1,1.8,0.1,3.5,0.1,5.8v6H344.2z"/>
		<path class="st2" d="M360.3,35.1l-1.5,4.5h-1.9l4.8-14.2h2.2l4.8,14.2h-2l-1.5-4.5H360.3z M364.9,33.7l-1.4-4.1
			c-0.3-0.9-0.5-1.8-0.7-2.6h0c-0.2,0.8-0.4,1.7-0.7,2.6l-1.4,4.1H364.9z"/>
		<path class="st2" d="M370.8,25.4h1.8v12.6h6v1.5h-7.9V25.4z"/>
		<path class="st2" d="M385.2,25.6c1.1-0.2,2.4-0.3,3.9-0.3c2.6,0,4.5,0.6,5.7,1.8c1.3,1.2,2,2.8,2,5.1c0,2.3-0.7,4.2-2,5.5
			c-1.3,1.3-3.5,2-6.3,2c-1.3,0-2.4-0.1-3.3-0.2V25.6z M387,38.1c0.5,0.1,1.1,0.1,1.8,0.1c3.9,0,6-2.2,6-6c0-3.3-1.9-5.5-5.7-5.5
			c-0.9,0-1.7,0.1-2.1,0.2V38.1z"/>
		<path class="st2" d="M401.2,35.1l-1.5,4.5h-1.9l4.8-14.2h2.2l4.8,14.2h-2l-1.5-4.5H401.2z M405.8,33.7l-1.4-4.1
			c-0.3-0.9-0.5-1.8-0.7-2.6h0c-0.2,0.8-0.4,1.7-0.7,2.6l-1.4,4.1H405.8z"/>
		<path class="st2" d="M413.2,39.6v-6l-4.5-8.1h2.1l2,3.9c0.5,1.1,1,1.9,1.4,2.9h0c0.4-0.9,0.9-1.8,1.4-2.9l2-3.9h2.1l-4.7,8.1v6
			H413.2z"/>
		<path class="st2" d="M420.9,37.4c0.8,0.5,2,0.9,3.3,0.9c1.9,0,3-1,3-2.4c0-1.3-0.8-2.1-2.7-2.8c-2.3-0.8-3.7-2-3.7-4
			c0-2.2,1.8-3.8,4.6-3.8c1.4,0,2.5,0.3,3.1,0.7l-0.5,1.5c-0.5-0.3-1.4-0.7-2.7-0.7c-1.9,0-2.7,1.2-2.7,2.1c0,1.3,0.9,2,2.8,2.7
			c2.4,0.9,3.6,2.1,3.6,4.2c0,2.2-1.6,4.1-5,4.1c-1.4,0-2.9-0.4-3.6-0.9L420.9,37.4z"/>
	</g>
</g>
<g>
	<g>
		<path class="st0" d="M885.6,163.5h-12.2l8.2-8.2c1.2-1.2,2.1-2.4,2.7-3.7c0.6-1.3,0.9-2.6,0.9-3.9c0-1.4-0.3-2.7-1-3.8
			c-0.7-1.1-1.6-2-2.8-2.6c-1.2-0.6-2.5-0.9-4-0.9c-2.5,0-5.2,0.8-8,2.5l1.2,2.3c1.2-0.7,2.2-1.3,3.2-1.7c1-0.4,2-0.6,3-0.6
			c1.6,0,2.9,0.5,3.9,1.4s1.5,2.2,1.5,3.8c0,2-1,4.1-3.1,6.1l-9.9,9.9v1.9h16.3V163.5z"/>
		<path class="st0" d="M900.5,165.9h2.8v-6h3.9v-2.3h-3.9v-17h-2.9l-12.2,17.2v2.1h12.3V165.9z M891.1,157.6l9.4-13.2v13.2H891.1z"
			/>
		<path class="st0" d="M915.9,149v16.9h1.9v-6.6c0-1.1,0.3-2,1-2.7s1.5-1.1,2.5-1.1c0.9,0,1.6,0.3,2.2,0.9c0.6,0.6,0.9,1.3,0.9,2.2
			v7.3h1.9v-7.6c0-0.8-0.2-1.6-0.6-2.3c-0.4-0.7-0.9-1.2-1.6-1.5c-0.7-0.4-1.4-0.6-2.3-0.6c-0.9,0-1.7,0.2-2.4,0.6
			c-0.7,0.4-1.3,1-1.7,1.7V149H915.9z"/>
		<path class="st0" d="M931.5,156.7c0.6-0.7,1.4-1.1,2.4-1.1c0.4,0,0.9,0.1,1.4,0.2l0.2-1.6c-0.5-0.1-1-0.2-1.5-0.2
			c-0.8,0-1.6,0.2-2.2,0.6c-0.6,0.4-1.1,1-1.4,1.8l-0.2-2.2h-1.5v11.7h1.9v-6.3C930.6,158.4,930.9,157.5,931.5,156.7z"/>
		<path class="st0" d="M941.9,164.2c-0.5,0.4-1.1,0.5-1.9,0.5c-1.1,0-2.4-0.3-3.7-0.8l-0.5,1.4c1.5,0.6,3,0.9,4.3,0.9
			c1.3,0,2.3-0.3,3.1-0.9c0.8-0.6,1.2-1.4,1.2-2.4c0-0.8-0.2-1.4-0.5-1.8c-0.4-0.5-0.8-0.8-1.3-1c-0.5-0.2-1.2-0.4-2-0.7
			c-0.9-0.3-1.6-0.5-2.1-0.8c-0.5-0.3-0.7-0.7-0.7-1.3c0-0.5,0.2-1,0.7-1.3s1.1-0.5,1.8-0.5c1,0,2.1,0.3,3.4,0.8l0.4-1.4
			c-1.3-0.5-2.7-0.8-3.9-0.8c-0.8,0-1.5,0.1-2.2,0.4c-0.6,0.3-1.2,0.7-1.5,1.2c-0.4,0.5-0.5,1.1-0.5,1.7c0,0.8,0.2,1.4,0.5,1.8
			c0.4,0.4,0.8,0.8,1.3,1c0.5,0.2,1.2,0.4,2,0.7c0.7,0.2,1.2,0.4,1.5,0.5c0.4,0.2,0.7,0.4,0.9,0.6s0.4,0.6,0.4,1
			C942.6,163.4,942.4,163.9,941.9,164.2z"/>
		<path class="st5" d="M907.8,70.5L907.8,70.5c-0.1,0-0.2,0-0.3,0c-4.2,0-7.7,3.4-7.7,7.7c0,4.2,3.4,7.7,7.7,7.7c0.1,0,0.2,0,0.3,0
			v0c37.2,0,67.3,30.1,67.3,67.3c0,37.2-30.1,67.3-67.3,67.3c-36.8,0-66.7-29.6-67.3-66.3c0-0.1,0-0.2,0-0.4c0-4.2-3.4-7.7-7.7-7.7
			c-4,0-7.3,3.1-7.7,7.1h0c0,0.1,0,0.3,0,0.4c0,0.1,0,0.1,0,0.2c0,0.2,0,0.4,0,0.6c0.7,45,37.4,81.3,82.6,81.3
			c45.6,0,82.6-37,82.6-82.6C990.4,107.5,953.4,70.5,907.8,70.5z"/>
	</g>
	<g>
		<path class="st2" d="M854.2,0.2h7.6v1.5h-5.8v4.7h5.4V8h-5.4v6.4h-1.8V0.2z"/>
		<path class="st2" d="M864.5,0.2h1.8v12.6h6v1.5h-7.9V0.2z"/>
		<path class="st2" d="M885.7,7.2c0,4.9-3,7.5-6.6,7.5c-3.7,0-6.4-2.9-6.4-7.2c0-4.5,2.8-7.4,6.6-7.4C883.2,0,885.7,3,885.7,7.2z
			 M874.7,7.4c0,3,1.6,5.7,4.5,5.7c2.9,0,4.5-2.7,4.5-5.9c0-2.8-1.5-5.8-4.5-5.8C876.2,1.5,874.7,4.3,874.7,7.4z"/>
		<path class="st2" d="M890,9.9l-1.5,4.5h-1.9l4.8-14.2h2.2l4.8,14.2h-2L895,9.9H890z M894.7,8.5l-1.4-4.1c-0.3-0.9-0.5-1.8-0.7-2.6
			h0c-0.2,0.8-0.4,1.7-0.7,2.6l-1.4,4.1H894.7z"/>
		<path class="st2" d="M901.7,1.8h-4.3V0.2h10.5v1.6h-4.3v12.6h-1.8V1.8z"/>
		<path class="st2" d="M911.2,0.2v14.2h-1.8V0.2H911.2z"/>
		<path class="st2" d="M914.4,14.4V0.2h2l4.5,7.2c1,1.7,1.9,3.2,2.5,4.6l0,0c-0.2-1.9-0.2-3.6-0.2-5.8V0.2h1.7v14.2h-1.8l-4.5-7.2
			c-1-1.6-1.9-3.2-2.6-4.7l-0.1,0c0.1,1.8,0.1,3.5,0.1,5.8v6H914.4z"/>
		<path class="st2" d="M939,13.8c-0.8,0.3-2.4,0.8-4.3,0.8c-2.1,0-3.9-0.5-5.3-1.9c-1.2-1.2-2-3.1-2-5.3c0-4.2,2.9-7.3,7.7-7.3
			c1.6,0,2.9,0.4,3.5,0.7l-0.4,1.5c-0.8-0.3-1.7-0.6-3.1-0.6c-3.4,0-5.7,2.1-5.7,5.7c0,3.6,2.2,5.7,5.5,5.7c1.2,0,2-0.2,2.4-0.4V8.4
			h-2.9V7h4.7V13.8z"/>
		<path class="st2" d="M860.2,25.4v5.9h6.8v-5.9h1.8v14.2H867v-6.6h-6.8v6.6h-1.8V25.4H860.2z"/>
		<path class="st2" d="M884.1,32.4c0,4.9-3,7.5-6.6,7.5c-3.7,0-6.4-2.9-6.4-7.2c0-4.5,2.8-7.4,6.6-7.4
			C881.7,25.2,884.1,28.2,884.1,32.4z M873.2,32.6c0,3,1.6,5.7,4.5,5.7c2.9,0,4.5-2.7,4.5-5.9c0-2.8-1.5-5.8-4.5-5.8
			C874.7,26.7,873.2,29.5,873.2,32.6z"/>
		<path class="st2" d="M886.5,25.4h1.8v12.6h6v1.5h-7.9V25.4z"/>
		<path class="st2" d="M898.3,25.4v14.2h-1.8V25.4H898.3z"/>
		<path class="st2" d="M901.5,25.6c1.1-0.2,2.4-0.3,3.9-0.3c2.6,0,4.5,0.6,5.7,1.8c1.3,1.2,2,2.8,2,5.1c0,2.3-0.7,4.2-2,5.5
			c-1.3,1.3-3.5,2-6.3,2c-1.3,0-2.4-0.1-3.3-0.2V25.6z M903.3,38.1c0.5,0.1,1.1,0.1,1.8,0.1c3.9,0,6-2.2,6-6c0-3.3-1.9-5.5-5.7-5.5
			c-0.9,0-1.7,0.1-2.1,0.2V38.1z"/>
		<path class="st2" d="M917.4,35.1l-1.5,4.5h-1.9l4.8-14.2h2.2l4.8,14.2h-2l-1.5-4.5H917.4z M922.1,33.7l-1.4-4.1
			c-0.3-0.9-0.5-1.8-0.7-2.6h0c-0.2,0.8-0.4,1.7-0.7,2.6l-1.4,4.1H922.1z"/>
		<path class="st2" d="M929.5,39.6v-6l-4.5-8.1h2.1l2,3.9c0.5,1.1,1,1.9,1.4,2.9h0c0.4-0.9,0.9-1.8,1.4-2.9l2-3.9h2.1l-4.7,8.1v6
			H929.5z"/>
	</g>
</g>
<g>
	<path class="st2" d="M594.7,31.1c0.8,0.5,2,0.9,3.3,0.9c1.9,0,3-1,3-2.4c0-1.3-0.8-2.1-2.7-2.8c-2.3-0.8-3.7-2-3.7-4
		c0-2.2,1.8-3.8,4.6-3.8c1.4,0,2.5,0.3,3.1,0.7l-0.5,1.5c-0.5-0.3-1.4-0.7-2.7-0.7c-1.9,0-2.7,1.2-2.7,2.1c0,1.3,0.9,2,2.8,2.7
		c2.4,0.9,3.6,2.1,3.6,4.2c0,2.2-1.6,4.1-5,4.1c-1.4,0-2.9-0.4-3.6-0.9L594.7,31.1z"/>
	<path class="st2" d="M607.1,19.2v14.2h-1.8V19.2H607.1z"/>
	<path class="st2" d="M620.2,32.9c-0.7,0.3-2,0.7-3.7,0.7c-4,0-7-2.5-7-7.2c0-4.4,3-7.4,7.4-7.4c1.8,0,2.9,0.4,3.4,0.6l-0.4,1.5
		c-0.7-0.3-1.7-0.6-2.9-0.6c-3.3,0-5.5,2.1-5.5,5.8c0,3.5,2,5.7,5.4,5.7c1.1,0,2.2-0.2,3-0.6L620.2,32.9z"/>
	<path class="st2" d="M622.5,19.2h1.8V26h0.1c0.4-0.5,0.8-1,1.1-1.5l4.3-5.3h2.3l-5.1,6l5.5,8.1h-2.2l-4.7-6.9l-1.3,1.6v5.4h-1.8
		V19.2z"/>
	<path class="st2" d="M638.3,19.4c1.1-0.2,2.4-0.3,3.9-0.3c2.6,0,4.5,0.6,5.7,1.8c1.3,1.2,2,2.8,2,5.1c0,2.3-0.7,4.2-2,5.5
		c-1.3,1.3-3.5,2-6.3,2c-1.3,0-2.4-0.1-3.3-0.2V19.4z M640.1,31.9c0.5,0.1,1.1,0.1,1.8,0.1c3.9,0,6-2.2,6-6c0-3.3-1.9-5.5-5.7-5.5
		c-0.9,0-1.7,0.1-2.1,0.2V31.9z"/>
	<path class="st2" d="M654.3,28.9l-1.5,4.5h-1.9l4.8-14.2h2.2l4.8,14.2h-2l-1.5-4.5H654.3z M658.9,27.5l-1.4-4.1
		c-0.3-0.9-0.5-1.8-0.7-2.6h0c-0.2,0.8-0.4,1.7-0.7,2.6l-1.4,4.1H658.9z"/>
	<path class="st2" d="M666.3,33.3v-6l-4.5-8.1h2.1l2,3.9c0.5,1.1,1,1.9,1.4,2.9h0c0.4-0.9,0.9-1.8,1.4-2.9l2-3.9h2.1l-4.7,8.1v6
		H666.3z"/>
	<path class="st2" d="M674,31.1c0.8,0.5,2,0.9,3.3,0.9c1.9,0,3-1,3-2.4c0-1.3-0.8-2.1-2.7-2.8c-2.3-0.8-3.7-2-3.7-4
		c0-2.2,1.8-3.8,4.6-3.8c1.4,0,2.5,0.3,3.1,0.7l-0.5,1.5c-0.5-0.3-1.4-0.7-2.7-0.7c-1.9,0-2.7,1.2-2.7,2.1c0,1.3,0.9,2,2.8,2.7
		c2.4,0.9,3.6,2.1,3.6,4.2c0,2.2-1.6,4.1-5,4.1c-1.4,0-2.9-0.4-3.6-0.9L674,31.1z"/>
</g>
</svg>
